<svg xmlns="http://www.w3.org/2000/svg" width="800" height="600" viewBox="0 0 800 600">
<path d="M 210.69,10.52 L 205.26,10.00 L 199.84,12.05 L 200.19,16.34 L 201.99,23.19 L 204.15,34.85 L 205.41,42.90 L 205.22,54.04 L 203.04,61.40 L 199.24,63.63 L 190.83,67.82 L 191.82,68.59 L 194.89,72.36 L 197.78,76.48 L 197.78,80.42 L 196.33,83.33 L 193.25,86.41 L 187.47,88.46 L 176.62,90.17 L 172.28,90.51 L 168.49,92.39 L 164.87,94.44 L 160.89,96.84 L 156.73,96.66 L 152.58,96.32 L 150.23,94.95 L 141.74,92.03 L 132.34,91.00 L 127.82,93.57 L 119.50,99.90 L 115.16,105.21 L 109.20,108.98 L 98.90,111.38 L 91.31,115.32 L 83.90,119.26 L 81.55,118.92 L 78.30,117.20 L 75.95,115.83 L 75.22,109.32 L 69.98,106.93 L 70.34,103.84 L 70.58,98.14 L 68.90,93.90 L 64.68,94.18 L 59.31,94.12 L 52.45,96.65 L 49.74,99.56 L 46.31,104.36 L 45.64,111.69 L 42.88,117.04 L 38.91,120.30 L 29.87,123.21 L 24.09,123.39 L 17.31,125.49 L 10.00,127.17 L 12.42,131.47 L 13.62,133.33 L 13.80,136.76 L 12.86,139.77 L 13.71,140.18 L 14.18,140.36 L 14.84,140.38 L 15.50,140.44 L 15.80,140.60 L 16.05,140.84 L 17.36,142.02 L 17.69,142.31 L 18.09,142.78 L 18.27,143.17 L 18.63,143.69 L 19.44,144.69 L 19.45,144.70 L 20.20,145.63 L 20.50,145.98 L 21.52,146.75 L 22.52,147.49 L 23.19,148.07 L 23.65,148.49 L 23.94,148.95 L 24.50,149.61 L 25.21,150.52 L 26.39,151.95 L 27.40,153.45 L 27.99,154.19 L 29.23,155.44 L 30.32,156.58 L 31.29,157.41 L 32.21,158.00 L 33.13,158.59 L 34.13,159.28 L 35.22,159.82 L 36.95,160.29 L 38.48,160.78 L 39.81,161.41 L 40.59,162.15 L 40.68,162.25 L 41.59,163.36 L 41.94,163.80 L 42.01,164.76 L 41.98,165.45 L 42.12,165.91 L 42.55,166.77 L 42.99,167.62 L 43.26,169.09 L 43.40,169.78 L 43.39,171.06 L 43.40,171.48 L 43.41,171.90 L 43.20,173.04 L 43.08,174.75 L 42.67,176.00 L 42.38,176.82 L 42.90,178.82 L 43.53,179.63 L 44.56,181.12 L 44.56,181.12 L 45.04,181.93 L 45.53,182.62 L 45.82,183.37 L 45.87,183.71 L 46.93,186.05 L 47.18,186.36 L 48.18,187.67 L 48.40,188.02 L 49.55,189.17 L 50.41,190.28 L 51.34,191.35 L 53.02,192.93 L 53.78,193.76 L 55.14,195.48 L 55.82,196.55 L 56.55,197.54 L 57.44,198.46 L 57.45,198.46 L 58.57,199.42 L 59.37,200.34 L 59.72,200.73 L 60.41,201.94 L 61.07,202.92 L 61.46,203.69 L 62.54,205.20 L 63.42,206.52 L 63.96,207.62 L 64.27,208.44 L 64.27,208.44 L 65.13,210.13 L 65.32,210.84 L 65.15,212.76 L 65.05,213.94 L 65.12,215.24 L 65.33,216.33 L 65.60,216.91 L 65.98,217.61 L 66.66,218.29 L 67.72,219.24 L 68.01,219.65 L 68.08,220.19 L 67.96,220.79 L 67.49,221.88 L 67.31,222.54 L 67.18,223.56 L 67.22,224.13 L 67.38,224.76 L 67.75,225.50 L 67.75,225.50 L 68.78,227.13 L 69.12,227.47 L 69.40,227.95 L 69.48,228.71 L 69.44,229.33 L 69.20,229.81 L 68.44,230.54 L 67.29,231.12 L 66.54,231.39 L 65.38,231.63 L 64.78,231.94 L 64.23,232.53 L 63.69,233.41 L 62.95,235.21 L 62.68,236.55 L 62.63,237.31 L 62.76,238.57 L 62.61,239.14 L 61.95,239.88 L 61.29,240.62 L 61.05,240.90 L 61.20,241.75 L 61.63,242.84 L 61.66,243.41 L 61.63,243.92 L 61.22,245.83 L 61.07,246.96 L 60.98,247.65 L 60.49,249.11 L 60.25,249.97 L 59.91,251.00 L 59.70,251.92 L 59.43,252.79 L 59.43,253.33 L 59.56,254.07 L 59.73,254.76 L 59.75,255.84 L 59.75,255.84 L 59.41,256.59 L 58.89,258.01 L 58.38,259.70 L 57.85,261.39 L 57.13,262.41 L 56.12,263.49 L 55.56,264.36 L 54.99,265.98 L 54.45,267.36 L 54.00,268.32 L 53.43,269.79 L 53.15,270.70 L 52.88,271.60 L 52.59,272.46 L 52.40,272.97 L 52.23,274.42 L 52.19,275.35 L 52.16,275.88 L 52.40,277.18 L 52.63,277.89 L 53.01,279.13 L 53.84,281.11 L 54.06,281.70 L 54.96,283.95 L 55.40,285.03 L 56.06,286.81 L 56.41,287.63 L 56.92,289.19 L 57.25,290.13 L 57.61,291.36 L 57.77,291.91 L 57.92,292.75 L 58.07,293.59 L 58.07,295.02 L 58.19,296.06 L 58.29,297.32 L 58.32,298.39 L 58.29,299.29 L 58.02,300.21 L 57.63,301.31 L 57.27,302.31 L 56.97,302.94 L 56.29,303.63 L 55.63,304.34 L 55.04,304.91 L 54.47,305.33 L 53.47,305.72 L 52.34,306.21 L 51.23,306.78 L 49.58,307.46 L 48.87,307.89 L 48.19,308.43 L 47.46,309.23 L 46.50,310.51 L 45.35,311.79 L 44.72,312.81 L 43.80,314.29 L 43.11,315.87 L 42.69,316.77 L 42.20,317.51 L 42.19,317.52 L 41.43,319.00 L 40.69,320.45 L 38.69,324.16 L 37.10,326.92 L 37.09,326.92 L 37.09,326.93 L 35.18,329.77 L 33.59,332.42 L 32.59,334.37 L 31.73,336.25 L 31.28,337.46 L 30.84,338.68 L 30.26,340.73 L 30.03,341.77 L 29.68,342.68 L 29.45,342.99 L 29.11,343.29 L 29.02,343.45 L 28.99,343.57 L 28.99,343.58 L 28.96,343.74 L 28.83,344.83 L 28.68,345.89 L 28.56,346.86 L 28.41,347.75 L 28.32,348.39 L 28.20,348.83 L 28.04,349.54 L 27.88,350.00 L 27.63,350.76 L 27.42,351.60 L 27.24,352.15 L 27.01,353.01 L 26.80,353.52 L 26.54,354.38 L 26.39,354.85 L 26.25,355.45 L 26.09,356.14 L 25.89,356.82 L 25.59,357.62 L 25.42,358.11 L 25.22,358.76 L 24.93,359.61 L 24.77,360.15 L 24.56,360.90 L 24.21,362.08 L 24.03,362.55 L 23.97,362.91 L 23.87,363.70 L 23.87,363.70 L 23.78,364.22 L 23.78,364.22 L 23.70,364.87 L 23.65,365.44 L 23.56,366.25 L 23.43,367.37 L 23.46,367.86 L 23.55,368.71 L 23.58,369.80 L 23.57,370.21 L 23.59,370.96 L 23.59,370.96 L 23.56,371.70 L 23.59,372.22 L 23.54,372.71 L 23.66,373.53 L 23.74,374.00 L 23.89,374.58 L 24.22,375.69 L 24.37,376.14 L 24.56,376.70 L 24.89,377.45 L 25.19,378.01 L 25.44,378.59 L 26.01,379.96 L 26.45,380.70 L 26.98,381.67 L 27.18,381.98 L 27.73,382.87 L 28.09,383.53 L 28.43,383.95 L 29.00,384.79 L 29.32,385.23 L 29.33,385.23 L 29.92,386.21 L 30.25,386.78 L 30.74,387.69 L 31.24,388.46 L 32.07,389.73 L 32.38,390.17 L 32.75,390.73 L 33.51,391.76 L 34.03,392.46 L 34.81,393.57 L 35.33,394.21 L 35.89,394.93 L 36.39,395.60 L 37.01,396.35 L 37.47,397.02 L 37.90,397.56 L 38.15,397.96 L 38.61,398.56 L 39.29,399.74 L 39.51,400.14 L 40.00,400.85 L 40.60,402.00 L 40.74,402.30 L 40.98,402.77 L 41.26,403.51 L 41.45,404.04 L 41.60,404.58 L 41.69,404.94 L 41.78,405.31 L 41.83,405.62 L 41.90,406.09 L 41.95,406.56 L 41.98,406.82 L 41.95,407.30 L 41.90,407.85 L 41.88,408.27 L 41.83,408.73 L 41.82,409.15 L 41.80,409.58 L 41.67,410.12 L 41.57,410.44 L 41.48,410.76 L 41.30,411.22 L 40.94,411.94 L 40.75,412.27 L 40.43,412.73 L 40.05,413.15 L 39.65,413.59 L 39.09,414.15 L 38.58,414.60 L 38.05,415.08 L 38.04,415.08 L 37.41,415.53 L 36.86,415.95 L 36.52,416.23 L 36.08,416.49 L 36.08,416.49 L 35.56,416.77 L 35.04,417.14 L 34.58,417.50 L 33.87,418.08 L 33.06,418.79 L 32.30,419.43 L 31.72,419.94 L 31.03,420.67 L 30.34,421.28 L 29.99,421.62 L 29.24,422.27 L 29.17,422.32 L 28.75,422.66 L 28.28,423.01 L 27.76,423.39 L 27.27,423.68 L 26.88,423.92 L 26.38,424.25 L 25.95,424.52 L 25.53,424.78 L 24.45,425.58 L 23.82,425.96 L 23.82,425.97 L 22.65,426.59 L 21.54,427.27 L 21.08,427.55 L 19.97,428.24 L 19.41,428.65 L 18.77,429.05 L 17.94,429.53 L 17.10,429.93 L 16.56,430.17 L 15.49,430.72 L 14.90,431.01 L 14.21,431.36 L 13.28,431.83 L 12.14,432.38 L 11.60,432.64 L 11.22,432.84 L 16.61,435.21 L 17.02,436.62 L 22.80,436.49 L 22.19,439.33 L 19.70,443.68 L 17.16,447.28 L 12.90,450.42 L 17.17,453.59 L 21.43,456.76 L 29.76,459.69 L 38.15,463.68 L 47.85,469.10 L 52.94,472.90 L 61.42,479.21 L 75.36,489.43 L 89.04,497.60 L 113.03,509.24 L 114.53,510.00 L 119.83,512.69 L 130.70,518.20 L 152.69,532.52 L 189.91,560.92 L 201.95,570.32 L 203.57,571.59 L 226.01,590.00 L 235.36,586.98 L 247.39,584.38 L 286.97,577.97 L 300.99,575.57 L 309.53,575.08 L 313.29,574.86 L 313.30,574.16 L 313.19,572.87 L 313.05,571.66 L 312.83,570.66 L 312.50,569.49 L 312.29,567.97 L 312.22,566.92 L 312.21,566.14 L 312.21,565.95 L 312.19,565.35 L 312.17,564.48 L 312.19,563.35 L 312.22,562.00 L 312.23,561.77 L 312.23,561.55 L 312.24,560.02 L 312.24,559.66 L 312.24,559.52 L 312.26,558.28 L 312.40,557.54 L 312.51,556.92 L 312.95,555.61 L 313.03,555.56 L 313.38,555.36 L 314.72,554.44 L 314.87,554.34 L 315.89,553.68 L 315.98,553.62 L 316.03,553.58 L 317.90,551.93 L 318.66,551.17 L 319.43,550.41 L 320.15,549.96 L 320.77,549.58 L 321.43,548.96 L 321.99,548.43 L 322.38,547.59 L 322.51,547.08 L 322.70,546.71 L 323.17,546.26 L 323.43,546.02 L 323.90,545.59 L 324.08,545.46 L 324.68,545.04 L 325.76,544.51 L 326.36,544.30 L 326.73,544.20 L 327.09,544.06 L 327.16,544.00 L 327.61,543.60 L 328.15,543.09 L 329.05,541.99 L 330.10,540.82 L 331.64,539.11 L 331.81,538.78 L 332.33,538.14 L 332.62,537.69 L 333.08,537.12 L 333.66,536.12 L 333.99,535.75 L 334.61,535.40 L 335.13,535.17 L 335.67,534.71 L 336.18,534.18 L 336.61,533.68 L 336.93,533.29 L 337.22,532.88 L 337.30,532.31 L 337.54,531.92 L 337.76,531.19 L 337.87,530.80 L 338.13,530.33 L 338.34,529.82 L 338.67,529.37 L 338.82,529.00 L 338.90,528.59 L 338.87,528.51 L 338.75,528.16 L 338.34,527.73 L 338.20,526.98 L 338.20,526.88 L 338.20,526.83 L 338.20,526.36 L 338.19,526.31 L 338.05,525.75 L 337.88,525.05 L 337.58,523.91 L 337.09,522.50 L 336.50,521.35 L 336.15,520.70 L 335.83,520.55 L 335.31,520.53 L 335.10,520.49 L 334.88,520.39 L 334.67,520.10 L 334.66,519.95 L 334.65,519.78 L 334.65,519.25 L 334.63,519.23 L 334.37,518.88 L 333.92,518.51 L 333.64,518.20 L 333.17,517.06 L 332.96,516.45 L 332.89,515.89 L 332.55,515.01 L 331.91,513.52 L 331.72,512.93 L 331.64,512.42 L 331.64,512.39 L 331.74,511.72 L 331.98,511.29 L 332.43,510.66 L 332.80,510.31 L 333.29,509.82 L 333.74,509.29 L 334.05,508.65 L 334.37,508.24 L 334.87,507.85 L 336.12,507.49 L 336.72,507.16 L 337.19,507.00 L 337.94,506.67 L 338.48,506.40 L 339.06,506.01 L 339.55,505.69 L 340.13,505.30 L 340.65,504.99 L 342.12,503.89 L 342.64,503.38 L 343.20,502.94 L 343.61,502.64 L 344.05,502.29 L 344.55,501.80 L 345.13,501.39 L 345.82,500.86 L 346.16,500.55 L 347.14,499.86 L 347.63,499.57 L 348.39,499.19 L 348.84,498.84 L 349.27,498.43 L 349.78,498.06 L 350.24,497.63 L 350.65,497.32 L 351.16,496.69 L 351.78,496.32 L 352.74,495.77 L 353.21,495.56 L 353.75,495.52 L 354.42,495.52 L 354.78,495.56 L 355.36,495.28 L 355.77,495.01 L 356.22,494.83 L 357.17,494.42 L 357.70,494.13 L 358.31,493.76 L 359.03,493.36 L 359.20,493.19 L 359.20,492.44 L 359.18,492.32 L 358.98,491.27 L 358.70,490.02 L 358.53,489.21 L 358.53,489.17 L 358.58,488.39 L 358.75,487.92 L 359.29,486.65 L 359.70,485.79 L 360.07,485.46 L 360.32,484.40 L 360.30,484.25 L 360.08,483.09 L 359.58,481.43 L 359.14,479.45 L 358.32,476.90 L 358.29,476.77 L 358.24,476.55 L 358.06,475.83 L 357.96,474.73 L 357.89,473.40 L 357.78,472.87 L 357.78,472.54 L 357.91,472.34 L 358.21,472.29 L 358.66,472.34 L 359.18,472.48 L 359.61,472.50 L 360.06,472.13 L 360.42,471.62 L 360.75,471.21 L 361.35,470.84 L 361.99,470.56 L 362.82,470.11 L 363.14,469.95 L 363.68,469.80 L 364.17,469.66 L 364.43,469.39 L 364.64,469.17 L 365.12,468.92 L 365.46,468.78 L 365.85,468.72 L 366.34,468.72 L 367.05,468.76 L 367.35,468.62 L 367.46,468.35 L 367.46,468.02 L 367.43,467.59 L 367.40,467.10 L 367.23,465.98 L 366.96,464.83 L 366.91,464.68 L 366.79,464.32 L 366.41,463.15 L 366.40,463.14 L 365.57,461.79 L 365.11,461.03 L 365.06,460.89 L 364.77,460.13 L 364.64,459.72 L 364.54,459.29 L 364.62,459.03 L 364.67,458.64 L 364.60,458.48 L 364.54,458.36 L 364.41,458.06 L 364.41,458.06 L 363.81,457.25 L 362.35,455.16 L 361.90,454.39 L 361.77,454.18 L 361.38,453.63 L 360.70,452.58 L 360.66,452.50 L 360.11,451.48 L 359.99,450.70 L 360.01,449.86 L 360.03,449.05 L 360.23,447.76 L 360.61,446.80 L 360.71,446.04 L 360.59,445.31 L 360.29,444.20 L 359.97,442.83 L 359.73,441.89 L 359.58,441.36 L 359.15,440.60 L 359.10,440.57 L 358.55,440.25 L 358.08,440.01 L 357.78,439.81 L 357.63,439.68 L 357.58,439.59 L 357.46,439.38 L 357.42,439.05 L 357.76,438.52 L 358.33,437.74 L 358.58,437.41 L 358.82,437.08 L 358.93,436.53 L 359.21,436.08 L 359.64,435.57 L 359.81,435.41 L 360.18,435.08 L 360.56,434.65 L 360.95,433.98 L 361.30,432.76 L 361.61,431.90 L 362.04,431.04 L 362.14,430.76 L 362.57,430.31 L 363.15,430.12 L 363.88,429.94 L 364.66,429.94 L 365.51,430.02 L 366.22,430.22 L 367.02,430.35 L 367.74,430.56 L 368.43,430.19 L 369.32,428.98 L 369.62,428.59 L 369.88,428.18 L 370.59,427.69 L 371.12,427.37 L 371.73,427.08 L 372.33,426.67 L 372.86,426.42 L 373.40,426.08 L 373.77,425.79 L 374.30,425.10 L 374.70,423.50 L 374.98,422.69 L 374.88,422.09 L 374.53,421.42 L 374.26,420.99 L 373.94,420.19 L 374.02,419.64 L 374.08,419.31 L 374.40,418.68 L 375.02,418.21 L 375.69,417.90 L 376.46,417.47 L 377.13,417.14 L 377.69,416.92 L 378.33,416.63 L 379.00,416.33 L 379.38,416.16 L 379.40,416.15 L 380.07,415.86 L 381.26,415.26 L 381.86,415.12 L 382.34,415.00 L 383.24,414.63 L 383.56,414.41 L 383.99,414.18 L 384.44,413.87 L 385.26,413.46 L 385.92,413.03 L 386.80,412.42 L 387.93,411.66 L 388.90,410.99 L 389.88,410.40 L 390.75,409.88 L 391.63,409.40 L 392.74,408.91 L 393.31,408.65 L 393.88,408.39 L 395.14,407.81 L 395.23,407.77 L 395.48,407.66 L 396.28,407.31 L 396.99,407.11 L 398.06,406.61 L 398.83,406.25 L 400.17,405.59 L 401.41,404.98 L 403.01,404.18 L 403.50,403.95 L 405.29,403.00 L 406.23,402.43 L 407.29,401.80 L 408.58,400.86 L 409.49,399.89 L 410.24,398.94 L 411.01,397.88 L 411.83,396.73 L 412.41,395.76 L 412.83,394.80 L 413.02,394.16 L 413.14,393.42 L 413.21,392.58 L 413.23,392.42 L 413.23,392.37 L 413.31,391.46 L 413.25,390.68 L 413.05,389.47 L 412.84,388.67 L 412.32,387.34 L 412.00,386.43 L 411.35,384.82 L 410.75,383.49 L 410.08,382.47 L 409.51,381.67 L 409.42,381.58 L 408.65,380.88 L 408.58,380.80 L 407.83,379.83 L 407.27,379.14 L 406.68,378.44 L 405.83,377.15 L 405.24,376.14 L 404.82,375.29 L 404.56,374.56 L 404.44,373.90 L 404.28,373.23 L 404.26,372.49 L 404.37,371.04 L 404.40,370.65 L 404.43,370.25 L 404.54,369.02 L 404.56,368.45 L 404.73,367.81 L 404.99,367.24 L 405.33,366.46 L 405.82,364.72 L 406.15,363.70 L 406.28,363.11 L 406.19,362.58 L 406.30,361.78 L 406.57,360.55 L 406.53,360.10 L 406.47,359.37 L 406.30,358.84 L 406.28,358.34 L 406.44,357.87 L 406.23,357.72 L 405.92,357.50 L 405.33,356.50 L 404.84,355.26 L 404.49,354.16 L 404.09,353.20 L 403.63,352.27 L 402.98,351.31 L 402.27,350.49 L 401.55,349.80 L 400.62,349.06 L 399.63,348.52 L 398.42,348.37 L 397.82,348.31 L 395.83,348.56 L 393.93,348.89 L 392.20,349.40 L 391.00,349.85 L 390.30,350.15 L 389.50,350.30 L 388.74,350.17 L 387.36,349.77 L 386.25,349.25 L 385.48,348.73 L 384.17,347.73 L 383.38,346.93 L 382.32,346.27 L 381.08,345.40 L 380.29,344.72 L 379.80,344.19 L 379.30,343.66 L 379.21,343.56 L 377.96,342.16 L 376.17,340.50 L 375.62,339.99 L 373.17,338.53 L 372.00,338.05 L 370.06,337.46 L 367.34,336.99 L 366.09,336.60 L 364.46,335.25 L 363.04,333.46 L 362.56,331.42 L 362.40,329.45 L 362.66,326.38 L 364.06,325.44 L 366.56,325.12 L 369.07,324.80 L 372.48,324.56 L 376.40,324.31 L 377.46,324.16 L 378.51,324.02 L 379.64,323.46 L 380.89,323.06 L 384.35,320.45 L 384.80,318.95 L 384.22,316.90 L 383.85,314.64 L 384.30,312.43 L 384.79,311.39 L 385.28,310.34 L 386.36,308.21 L 386.42,308.12 L 387.99,305.60 L 388.63,303.39 L 388.53,302.43 L 388.28,301.93 L 387.62,300.62 L 385.10,298.40 L 384.67,295.80 L 384.67,295.80 L 385.01,294.36 L 386.45,291.84 L 386.59,291.44 L 386.72,291.03 L 386.64,289.37 L 385.56,287.15 L 383.63,284.75 L 381.59,282.67 L 378.42,280.17 L 375.88,278.13 L 373.38,275.31 L 372.64,273.59 L 372.62,271.80 L 374.17,269.15 L 375.50,266.77 L 376.17,265.04 L 376.44,263.71 L 376.71,262.37 L 377.03,260.87 L 376.91,257.59 L 377.82,256.04 L 379.58,254.22 L 381.68,251.82 L 383.60,249.54 L 386.91,246.26 L 382.96,245.81 L 381.22,244.28 L 380.30,241.80 L 379.37,239.32 L 378.15,233.66 L 374.69,224.35 L 371.97,222.10 L 366.01,221.50 L 362.29,219.13 L 358.71,210.40 L 353.61,214.69 L 348.50,218.98 L 350.89,209.44 L 351.27,205.91 L 351.06,200.96 L 349.17,198.95 L 350.30,195.20 L 353.05,188.35 L 353.30,186.11 L 351.57,184.81 L 346.97,183.98 L 339.76,184.44 L 326.22,186.18 L 320.99,186.13 L 315.75,186.09 L 303.94,186.56 L 299.37,193.94 L 296.13,194.77 L 293.48,197.69 L 292.15,203.75 L 292.04,210.58 L 291.99,213.99 L 286.11,215.93 L 280.47,215.46 L 275.69,212.43 L 272.90,213.13 L 269.07,214.79 L 260.70,219.24 L 253.97,219.79 L 243.66,218.94 L 240.57,222.56 L 238.65,223.17 L 236.89,221.88 L 235.14,220.60 L 232.06,215.86 L 229.13,211.95 L 225.91,202.33 L 224.16,193.69 L 226.33,187.21 L 226.78,186.31 L 227.50,184.72 L 228.07,183.27 L 228.23,182.60 L 228.67,181.71 L 229.02,180.53 L 229.47,179.35 L 229.70,178.91 L 230.29,177.42 L 230.90,175.92 L 231.47,174.47 L 232.20,172.89 L 232.72,171.67 L 233.33,170.13 L 233.95,168.60 L 234.58,167.03 L 234.96,166.10 L 237.24,153.20 L 236.35,130.49 L 234.22,113.72 L 233.30,96.82 L 232.84,88.38 L 232.73,86.40 L 230.32,73.60 L 228.32,60.86 L 227.63,56.46 L 226.21,39.49 L 222.79,28.70 L 220.80,24.58 L 218.82,20.47 L 214.49,12.24 L 210.69,10.52 Z" fill="#1d3672" stroke="#333" stroke-width="1"/>
</svg>