<svg xmlns="http://www.w3.org/2000/svg" width="800" height="600" viewBox="0 0 800 600">
<path d="M 584.02,39.60 L 584.13,39.28 L 583.22,39.41 L 582.11,39.46 L 582.29,40.02 L 582.68,41.80 L 582.86,42.55 L 584.39,42.71 L 585.17,42.78 L 586.71,42.96 L 587.53,43.11 L 589.00,43.32 L 589.67,43.48 L 590.94,43.70 L 591.73,43.84 L 593.09,44.27 L 593.57,44.31 L 593.71,44.51 L 593.88,44.67 L 594.11,44.79 L 594.38,44.80 L 594.80,44.73 L 595.28,44.53 L 595.63,44.49 L 595.87,44.56 L 596.15,44.75 L 596.36,45.00 L 596.44,45.25 L 596.33,45.58 L 596.08,45.99 L 595.55,46.41 L 595.03,47.01 L 594.86,47.48 L 594.87,47.71 L 594.94,47.86 L 595.10,48.03 L 595.32,48.16 L 595.38,48.51 L 595.49,48.74 L 595.55,49.33 L 595.68,50.47 L 595.79,51.25 L 596.95,51.07 L 597.61,51.06 L 597.95,51.07 L 597.72,51.46 L 597.59,51.75 L 597.52,51.99 L 597.54,52.22 L 597.62,52.43 L 597.69,52.61 L 599.36,56.02 L 598.09,56.13 L 596.66,56.29 L 594.63,56.55 L 592.99,56.73 L 591.32,56.94 L 590.13,57.11 L 589.15,57.32 L 587.68,57.83 L 587.57,57.88 L 587.35,57.95 L 585.77,58.65 L 584.37,59.38 L 582.55,60.55 L 581.76,61.11 L 580.10,62.49 L 579.27,63.26 L 578.59,63.93 L 578.41,64.11 L 578.37,64.15 L 577.98,64.67 L 577.84,64.90 L 577.01,66.26 L 576.29,67.91 L 575.69,69.65 L 575.41,70.45 L 575.12,71.78 L 574.58,73.52 L 573.96,75.22 L 573.66,76.11 L 573.21,77.08 L 572.58,78.12 L 571.97,79.27 L 571.12,80.79 L 570.11,82.40 L 569.68,83.08 L 569.03,84.10 L 567.41,86.71 L 566.99,87.37 L 566.40,88.26 L 566.04,88.83 L 565.49,89.78 L 565.47,89.79 L 564.58,90.58 L 564.55,90.60 L 562.79,91.20 L 562.50,91.30 L 560.72,92.43 L 557.46,95.22 L 551.30,99.23 L 546.63,102.20 L 542.94,105.28 L 540.23,108.77 L 538.17,111.47 L 536.31,113.22 L 534.44,116.35 L 532.20,120.36 L 530.24,121.93 L 527.63,123.67 L 524.19,125.36 L 518.64,127.91 L 518.51,127.98 L 513.46,129.63 L 509.54,130.25 L 504.06,130.68 L 499.77,131.02 L 496.98,131.03 L 493.24,131.03 L 490.07,131.29 L 486.61,131.12 L 480.82,131.38 L 476.63,131.38 L 474.85,131.38 L 472.24,130.25 L 469.81,130.60 L 466.73,131.47 L 465.07,131.98 L 464.83,132.05 L 462.68,133.27 L 460.54,135.19 L 458.11,136.93 L 456.99,137.63 L 454.19,139.38 L 452.51,140.25 L 449.25,142.95 L 446.92,145.91 L 444.77,149.10 L 443.18,151.80 L 442.06,154.67 L 441.59,157.21 L 441.17,160.48 L 441.17,161.55 L 440.92,163.14 L 440.99,164.25 L 440.80,166.28 L 440.55,167.44 L 440.39,168.31 L 440.11,169.38 L 439.73,170.90 L 439.10,172.64 L 438.82,173.76 L 438.38,175.26 L 437.89,176.71 L 437.26,177.71 L 436.65,178.97 L 436.02,180.00 L 435.35,181.22 L 434.77,182.05 L 433.65,183.84 L 432.52,185.11 L 430.76,187.03 L 429.70,187.93 L 428.30,188.67 L 426.44,189.90 L 424.69,190.71 L 423.03,191.44 L 422.77,191.55 L 421.26,191.88 L 419.61,191.91 L 418.14,191.65 L 417.42,191.39 L 416.37,191.09 L 415.45,190.96 L 414.69,190.96 L 413.47,191.07 L 412.10,191.07 L 410.74,191.16 L 409.09,190.90 L 407.48,190.66 L 406.47,190.54 L 404.73,190.43 L 402.90,190.25 L 401.34,190.12 L 399.58,190.29 L 398.39,190.13 L 396.61,190.11 L 394.58,190.18 L 392.28,190.55 L 390.97,190.75 L 389.01,191.10 L 386.32,191.61 L 383.91,191.74 L 381.58,192.07 L 379.62,192.59 L 377.28,193.25 L 377.22,193.27 L 374.88,193.71 L 374.54,193.77 L 374.03,193.93 L 373.93,193.96 L 373.60,194.10 L 373.32,194.21 L 372.71,194.37 L 371.59,194.59 L 370.27,194.95 L 369.14,195.09 L 367.55,195.29 L 366.13,195.41 L 362.98,195.87 L 346.28,197.21 L 345.79,197.25 L 345.28,197.28 L 344.20,197.41 L 341.88,197.67 L 339.84,197.88 L 338.90,197.95 L 338.14,198.00 L 337.68,198.03 L 336.70,198.15 L 335.79,198.30 L 335.32,198.37 L 334.03,198.64 L 332.75,198.77 L 330.55,199.00 L 329.18,199.17 L 325.47,199.58 L 319.95,200.43 L 318.68,200.61 L 315.33,201.06 L 314.37,201.19 L 312.76,201.46 L 310.04,201.95 L 308.54,202.12 L 305.43,202.28 L 304.47,202.34 L 303.14,202.41 L 301.17,202.45 L 300.11,202.47 L 298.34,202.44 L 296.47,202.37 L 294.71,202.34 L 293.52,202.43 L 292.35,202.36 L 291.30,202.43 L 289.91,202.33 L 288.76,202.13 L 287.53,201.89 L 286.59,201.58 L 284.94,201.08 L 283.93,200.85 L 282.79,200.49 L 281.57,200.17 L 280.78,199.85 L 279.72,199.43 L 278.80,199.00 L 278.02,198.68 L 277.52,198.51 L 276.66,198.28 L 276.36,198.21 L 275.17,197.92 L 274.01,197.52 L 272.96,197.13 L 272.36,196.66 L 270.60,195.40 L 269.53,194.66 L 268.74,194.11 L 268.34,193.81 L 267.62,193.27 L 267.26,192.96 L 266.63,192.41 L 265.98,191.62 L 265.53,191.02 L 264.95,189.94 L 263.51,187.45 L 261.63,184.89 L 260.87,183.75 L 260.30,183.00 L 259.54,182.02 L 259.04,181.19 L 258.47,180.31 L 257.13,178.87 L 256.43,178.15 L 255.82,177.51 L 255.12,176.67 L 254.31,175.94 L 253.45,175.28 L 252.89,174.87 L 250.47,173.31 L 249.72,172.76 L 248.92,172.17 L 246.01,170.41 L 244.23,169.47 L 242.96,168.85 L 241.19,167.81 L 240.19,167.12 L 239.26,166.52 L 238.32,166.01 L 236.15,164.85 L 235.20,164.51 L 234.26,164.21 L 233.26,163.83 L 232.80,163.70 L 230.93,163.21 L 229.19,162.76 L 227.36,162.38 L 226.44,162.25 L 225.35,162.13 L 224.61,162.02 L 223.83,161.92 L 222.55,161.80 L 221.51,161.73 L 220.38,161.60 L 220.28,161.60 L 220.04,161.73 L 219.95,161.85 L 219.97,162.29 L 220.06,163.09 L 220.21,164.07 L 220.34,165.49 L 220.36,166.27 L 220.55,167.40 L 220.77,167.98 L 220.77,168.24 L 220.53,168.37 L 220.04,168.51 L 219.84,168.57 L 218.84,168.86 L 217.91,169.17 L 216.66,169.52 L 215.07,169.93 L 213.94,170.19 L 212.39,170.45 L 210.67,170.69 L 210.14,170.76 L 209.87,170.74 L 209.70,170.62 L 209.30,169.96 L 207.52,167.45 L 206.89,166.61 L 205.89,165.09 L 205.72,164.84 L 205.38,164.32 L 205.08,164.16 L 204.49,164.14 L 204.09,164.09 L 202.83,164.20 L 201.05,164.53 L 199.65,164.95 L 198.82,165.23 L 198.35,165.20 L 192.43,166.29 L 185.21,168.71 L 185.06,168.76 L 184.94,168.77 L 182.44,169.22 L 180.03,169.63 L 177.47,169.96 L 176.02,170.38 L 173.90,170.86 L 172.45,171.33 L 171.53,171.75 L 170.66,172.04 L 169.42,172.39 L 167.85,172.77 L 166.82,173.13 L 165.97,173.33 L 164.77,173.62 L 163.98,173.84 L 163.12,174.09 L 161.94,174.45 L 161.14,174.88 L 160.02,175.43 L 159.35,175.90 L 158.98,176.12 L 158.77,176.17 L 153.93,178.62 L 149.11,180.77 L 146.22,181.91 L 140.44,184.70 L 139.77,184.88 L 139.10,185.11 L 139.04,185.13 L 136.26,185.92 L 134.87,186.41 L 133.42,186.79 L 132.68,187.07 L 131.68,187.45 L 128.58,188.56 L 127.80,188.82 L 126.85,189.17 L 124.12,190.17 L 123.15,190.50 L 121.43,191.14 L 119.40,191.76 L 118.05,192.11 L 117.92,192.15 L 117.64,192.22 L 113.96,193.02 L 109.80,193.51 L 104.96,194.75 L 103.78,194.89 L 102.86,195.06 L 101.99,195.21 L 100.99,195.28 L 99.71,195.47 L 98.21,195.70 L 97.02,195.87 L 96.56,195.96 L 95.47,196.17 L 94.27,196.37 L 93.08,196.63 L 91.89,196.89 L 90.73,197.11 L 89.56,197.44 L 88.28,197.85 L 87.47,198.07 L 86.62,198.27 L 85.65,198.50 L 85.19,198.64 L 83.06,199.13 L 82.37,199.31 L 82.08,199.41 L 80.60,199.77 L 79.76,200.01 L 79.25,200.15 L 78.33,200.38 L 77.80,200.55 L 77.01,200.81 L 76.00,201.18 L 75.32,201.44 L 74.49,201.77 L 73.32,202.26 L 72.33,202.78 L 71.26,203.39 L 71.10,203.47 L 70.53,203.75 L 68.82,204.59 L 66.77,205.70 L 64.86,206.79 L 62.61,208.18 L 60.85,209.41 L 60.41,209.77 L 58.95,210.97 L 56.51,212.97 L 53.77,215.69 L 51.61,218.00 L 50.61,218.96 L 49.65,219.72 L 48.92,220.25 L 47.63,221.10 L 46.63,221.77 L 45.90,222.18 L 44.95,222.82 L 43.29,223.74 L 42.31,224.27 L 40.40,225.11 L 38.11,225.95 L 36.27,226.73 L 34.86,227.24 L 34.42,227.40 L 33.08,227.84 L 31.43,228.49 L 30.49,228.88 L 29.60,229.30 L 28.91,229.58 L 27.96,230.02 L 27.01,230.49 L 25.62,231.14 L 25.19,231.39 L 24.45,231.73 L 20.85,233.17 L 20.29,233.43 L 18.76,234.10 L 16.95,234.85 L 15.88,235.40 L 14.06,236.22 L 12.55,236.94 L 11.31,237.48 L 10.67,237.79 L 10.70,240.50 L 10.60,241.20 L 10.48,242.08 L 10.28,243.78 L 10.22,244.75 L 10.16,245.68 L 10.19,246.71 L 10.19,246.78 L 10.31,248.57 L 10.44,249.47 L 10.62,250.47 L 10.56,251.26 L 10.41,252.28 L 10.21,253.31 L 10.21,253.39 L 10.00,254.06 L 10.18,254.36 L 10.20,254.46 L 10.20,254.80 L 10.27,255.46 L 10.37,255.90 L 10.55,256.30 L 11.00,256.94 L 11.68,257.71 L 12.22,258.16 L 12.51,258.32 L 12.67,258.36 L 12.83,258.33 L 13.00,258.27 L 13.29,258.11 L 13.68,257.77 L 14.02,257.52 L 14.21,257.41 L 14.52,257.38 L 14.93,257.42 L 15.48,257.55 L 16.21,257.74 L 16.60,257.92 L 16.89,258.12 L 17.21,258.37 L 17.40,258.51 L 17.73,258.55 L 18.42,258.48 L 18.92,258.46 L 19.26,258.47 L 19.61,258.57 L 20.19,258.88 L 20.48,259.09 L 20.92,259.57 L 21.55,260.18 L 22.21,260.90 L 22.64,261.40 L 23.08,261.90 L 23.28,262.14 L 23.54,262.44 L 24.02,262.83 L 24.69,263.14 L 25.06,263.25 L 25.45,263.28 L 25.73,263.28 L 25.98,263.25 L 26.08,263.46 L 26.07,263.46 L 26.12,263.69 L 26.20,263.89 L 26.32,264.06 L 26.73,264.34 L 27.05,264.59 L 27.21,264.82 L 27.31,265.04 L 27.35,265.23 L 27.36,265.34 L 27.30,265.70 L 27.37,266.06 L 27.41,266.41 L 27.52,266.74 L 27.57,266.92 L 27.56,267.18 L 27.59,267.45 L 27.59,267.46 L 27.67,267.72 L 27.78,267.90 L 27.90,268.01 L 28.19,268.13 L 28.54,268.33 L 28.70,268.53 L 28.89,268.87 L 28.88,268.87 L 28.98,269.07 L 29.05,269.23 L 29.26,269.56 L 29.34,269.68 L 29.55,269.85 L 29.85,270.03 L 30.15,270.25 L 30.43,270.57 L 30.44,270.57 L 30.43,270.58 L 30.60,270.71 L 30.80,270.80 L 31.36,271.03 L 31.90,271.34 L 32.44,271.66 L 32.61,271.74 L 32.89,271.85 L 32.89,271.86 L 33.18,271.94 L 34.06,272.39 L 34.20,272.49 L 34.33,272.67 L 34.60,273.58 L 34.73,273.82 L 34.73,273.83 L 36.00,274.91 L 36.66,275.21 L 36.99,275.45 L 37.38,275.85 L 37.82,276.38 L 39.01,277.59 L 39.01,277.59 L 39.26,278.57 L 39.46,278.82 L 40.53,280.47 L 41.62,282.03 L 42.16,282.90 L 42.43,283.78 L 42.68,284.82 L 42.98,285.73 L 43.38,286.61 L 44.35,288.22 L 45.31,289.94 L 45.91,291.56 L 46.65,293.55 L 47.10,294.44 L 47.56,295.18 L 48.61,295.73 L 49.84,296.84 L 50.69,297.79 L 51.28,298.65 L 52.69,299.90 L 54.30,300.94 L 56.06,302.21 L 56.53,302.91 L 57.72,304.25 L 59.00,305.80 L 59.75,306.55 L 60.76,306.93 L 61.67,307.56 L 63.34,308.71 L 64.35,309.33 L 65.93,309.89 L 68.10,309.79 L 70.18,310.07 L 70.58,311.27 L 71.17,313.12 L 72.06,315.52 L 73.94,318.43 L 74.83,321.02 L 75.49,322.89 L 75.82,323.62 L 75.91,323.76 L 76.11,324.11 L 76.24,324.46 L 76.33,324.83 L 76.43,325.28 L 76.52,325.49 L 76.64,325.78 L 76.78,326.12 L 76.84,326.31 L 76.91,326.62 L 76.95,326.81 L 77.12,327.23 L 77.25,327.49 L 77.35,327.70 L 77.46,327.90 L 77.57,328.03 L 77.68,328.14 L 77.87,328.24 L 78.08,328.27 L 78.25,328.26 L 78.29,328.28 L 78.42,328.43 L 78.54,328.54 L 78.60,328.62 L 78.68,328.69 L 78.73,328.81 L 78.84,329.10 L 78.92,329.22 L 78.99,329.26 L 79.00,329.26 L 79.08,329.25 L 79.22,329.22 L 79.22,329.22 L 79.38,329.20 L 79.51,329.20 L 79.66,329.23 L 79.78,329.28 L 79.91,329.36 L 79.97,329.45 L 80.03,329.58 L 80.04,329.80 L 80.09,329.94 L 80.15,330.01 L 80.25,330.07 L 80.38,330.11 L 80.38,330.11 L 80.51,330.11 L 80.51,330.11 L 80.61,330.13 L 80.70,330.16 L 80.74,330.20 L 80.76,330.25 L 80.78,330.33 L 80.78,330.46 L 80.75,330.65 L 80.65,330.97 L 80.63,331.17 L 80.66,331.32 L 80.76,331.43 L 80.82,331.50 L 81.01,331.73 L 81.21,331.90 L 81.36,331.99 L 81.44,332.04 L 81.45,332.04 L 81.73,332.07 L 81.90,332.09 L 81.74,332.07 L 81.91,332.09 L 82.00,332.12 L 82.07,332.16 L 82.11,332.21 L 82.14,332.29 L 82.14,332.38 L 82.11,332.51 L 82.09,332.70 L 82.11,332.82 L 82.18,332.89 L 82.27,332.95 L 82.43,333.04 L 82.56,333.12 L 82.62,333.21 L 82.67,333.40 L 82.76,333.58 L 82.85,333.68 L 82.97,333.76 L 83.08,333.80 L 83.23,333.82 L 83.43,333.84 L 83.60,333.84 L 83.93,333.82 L 83.94,333.82 L 84.10,333.82 L 84.22,333.86 L 84.32,333.92 L 84.43,334.04 L 84.51,334.16 L 84.57,334.40 L 84.58,334.57 L 84.57,334.82 L 84.53,335.10 L 84.48,335.36 L 84.39,335.58 L 84.29,335.85 L 84.27,336.13 L 84.31,336.34 L 84.38,336.53 L 84.46,336.81 L 84.52,337.03 L 84.49,337.20 L 84.41,337.49 L 84.41,337.59 L 84.45,337.68 L 84.60,337.79 L 84.76,337.94 L 84.84,338.01 L 84.89,338.11 L 84.92,338.20 L 84.92,338.32 L 84.90,338.40 L 84.90,338.41 L 84.82,338.66 L 84.71,338.92 L 84.69,339.14 L 84.70,339.21 L 84.73,339.31 L 84.82,339.40 L 85.03,339.61 L 85.22,339.84 L 85.31,340.01 L 85.36,340.19 L 85.39,340.54 L 85.39,340.69 L 85.39,341.02 L 85.39,341.36 L 85.37,341.84 L 85.39,342.17 L 85.44,342.34 L 85.58,342.51 L 85.80,342.66 L 85.94,342.70 L 86.17,342.68 L 86.35,342.62 L 86.36,342.62 L 86.56,342.57 L 86.73,342.59 L 86.83,342.62 L 86.90,342.68 L 86.97,342.76 L 87.06,342.92 L 87.13,343.10 L 87.23,343.62 L 87.32,344.12 L 87.26,344.58 L 87.03,345.09 L 86.79,345.55 L 86.61,346.05 L 86.61,346.05 L 86.72,346.30 L 86.92,346.56 L 87.18,346.78 L 87.37,346.97 L 87.42,347.06 L 87.45,347.19 L 87.45,347.31 L 87.53,347.78 L 87.62,348.21 L 87.74,348.47 L 87.95,348.64 L 88.26,348.83 L 88.57,349.08 L 88.83,349.37 L 88.98,349.59 L 89.10,349.87 L 89.16,350.20 L 89.15,350.40 L 89.07,350.69 L 88.92,350.96 L 88.75,351.21 L 88.63,351.51 L 88.59,351.66 L 88.59,351.72 L 88.61,351.79 L 88.69,351.92 L 88.76,351.99 L 89.03,352.13 L 89.25,352.17 L 89.56,352.18 L 89.80,352.20 L 90.04,352.21 L 90.40,352.41 L 90.83,352.76 L 91.64,353.50 L 92.03,353.82 L 92.70,354.68 L 93.39,355.51 L 93.78,355.89 L 93.90,356.00 L 94.42,355.90 L 94.94,355.61 L 95.84,355.57 L 96.54,355.59 L 97.55,356.05 L 98.25,356.65 L 98.80,357.33 L 99.47,358.03 L 100.04,358.25 L 100.94,357.86 L 101.54,357.76 L 101.78,357.85 L 101.86,357.97 L 102.11,358.54 L 102.27,358.82 L 102.38,358.96 L 102.48,359.06 L 102.61,359.10 L 102.74,359.15 L 103.02,359.19 L 103.35,359.23 L 103.50,359.29 L 103.59,359.36 L 103.62,359.53 L 103.59,359.71 L 103.46,359.89 L 103.19,360.11 L 102.97,360.28 L 102.72,360.48 L 102.52,360.71 L 102.28,360.89 L 101.76,361.20 L 101.26,361.57 L 100.91,361.92 L 100.65,362.41 L 100.57,362.84 L 100.57,363.82 L 100.64,364.32 L 100.77,364.98 L 100.96,365.75 L 101.21,366.19 L 101.84,367.09 L 102.22,367.52 L 102.73,367.93 L 103.87,369.15 L 104.20,369.51 L 104.38,369.63 L 104.54,369.63 L 104.76,369.62 L 105.00,369.58 L 105.22,369.73 L 105.41,369.78 L 105.63,369.76 L 105.95,369.81 L 106.18,370.07 L 106.35,370.29 L 106.45,370.54 L 106.54,370.84 L 106.65,371.08 L 106.75,371.17 L 106.92,371.28 L 107.14,371.40 L 107.37,371.59 L 107.66,371.97 L 107.87,372.14 L 108.07,372.22 L 108.27,372.56 L 108.51,372.56 L 108.99,372.93 L 109.80,373.60 L 110.60,374.34 L 110.83,374.63 L 111.06,374.92 L 111.37,375.38 L 111.68,376.86 L 115.02,392.02 L 115.55,394.45 L 116.65,395.96 L 116.77,396.13 L 116.99,396.75 L 117.27,397.01 L 117.37,397.42 L 117.46,397.46 L 117.56,397.56 L 117.68,397.69 L 117.83,397.86 L 118.11,398.19 L 118.17,398.28 L 118.23,398.40 L 118.33,398.53 L 118.48,398.74 L 118.60,398.91 L 118.72,399.06 L 118.84,399.19 L 118.93,399.32 L 119.27,399.59 L 119.57,399.87 L 119.81,400.11 L 120.02,400.30 L 120.23,400.49 L 120.49,400.71 L 120.73,400.94 L 120.99,401.11 L 121.30,401.21 L 121.55,401.27 L 121.68,401.30 L 121.81,401.32 L 121.96,401.32 L 122.12,401.33 L 122.28,401.32 L 122.47,401.32 L 122.60,401.33 L 122.82,401.36 L 122.97,401.40 L 123.06,401.45 L 123.14,401.50 L 123.20,401.55 L 123.30,401.64 L 123.36,401.72 L 123.44,401.85 L 123.53,402.11 L 123.60,402.35 L 123.63,402.45 L 123.66,402.53 L 123.71,402.66 L 123.79,402.81 L 123.92,402.98 L 124.13,403.25 L 124.26,403.39 L 124.41,403.60 L 124.53,403.79 L 124.64,403.99 L 124.82,404.23 L 125.24,404.71 L 125.51,405.01 L 125.73,405.24 L 126.08,405.69 L 126.17,405.84 L 126.23,405.97 L 126.29,406.08 L 126.34,406.20 L 126.34,406.29 L 125.95,406.93 L 125.96,406.96 L 125.95,407.03 L 125.91,407.14 L 125.80,407.38 L 125.68,407.55 L 125.49,407.90 L 125.42,408.08 L 125.35,408.24 L 125.33,408.43 L 125.34,408.57 L 125.38,408.72 L 125.44,408.92 L 125.52,409.10 L 125.58,409.21 L 125.63,409.47 L 125.71,409.80 L 125.80,410.22 L 125.89,410.37 L 126.08,410.64 L 126.19,410.84 L 126.27,411.06 L 126.33,411.34 L 126.44,411.63 L 126.55,411.88 L 126.63,412.03 L 126.77,412.22 L 126.91,412.42 L 126.97,412.48 L 127.20,412.79 L 127.47,413.17 L 127.73,413.48 L 127.88,413.76 L 128.06,414.08 L 128.22,414.32 L 128.34,414.49 L 128.36,414.53 L 128.45,414.70 L 128.11,415.17 L 127.47,415.22 L 128.49,417.69 L 128.53,417.79 L 129.17,419.57 L 129.72,421.29 L 128.98,422.20 L 128.50,422.96 L 128.76,424.50 L 128.93,425.53 L 129.03,428.41 L 129.39,431.14 L 131.47,430.99 L 131.64,431.98 L 131.82,433.75 L 131.11,434.54 L 130.31,435.13 L 129.34,435.80 L 128.43,436.34 L 128.65,437.40 L 128.89,438.35 L 129.72,439.03 L 131.02,440.75 L 131.13,441.80 L 131.20,442.78 L 131.23,443.76 L 131.02,444.67 L 130.82,445.62 L 130.59,446.42 L 131.23,448.27 L 131.97,448.95 L 132.82,449.63 L 133.57,450.27 L 134.26,450.87 L 135.03,451.56 L 135.58,452.42 L 136.09,453.18 L 136.58,454.05 L 137.04,454.82 L 137.14,456.15 L 137.56,457.18 L 137.57,458.23 L 137.60,459.24 L 137.68,460.05 L 137.99,461.71 L 138.05,462.03 L 138.79,464.17 L 139.25,465.09 L 139.83,466.71 L 141.84,471.48 L 142.59,473.11 L 143.43,473.96 L 144.26,474.80 L 145.59,476.98 L 146.67,479.20 L 147.00,479.70 L 147.01,479.70 L 147.64,481.11 L 147.65,481.14 L 148.56,482.96 L 149.23,484.40 L 147.89,486.83 L 147.69,487.46 L 150.36,491.87 L 151.12,493.43 L 152.16,494.65 L 154.09,497.00 L 154.49,498.87 L 153.96,501.21 L 153.96,502.39 L 154.53,504.29 L 154.89,505.98 L 156.16,511.86 L 156.56,513.98 L 156.72,514.74 L 158.09,521.19 L 158.33,522.29 L 156.99,523.79 L 156.96,524.50 L 157.25,526.75 L 157.59,527.91 L 158.36,529.42 L 159.62,529.88 L 160.59,529.91 L 161.93,530.82 L 162.79,531.65 L 164.49,533.88 L 164.06,534.60 L 163.59,535.35 L 163.66,535.94 L 164.29,537.32 L 166.10,538.85 L 167.95,539.84 L 169.02,540.58 L 169.22,541.24 L 169.63,541.89 L 169.55,545.54 L 169.59,546.50 L 169.59,548.56 L 170.39,550.28 L 171.06,551.92 L 171.49,552.67 L 171.94,553.18 L 172.39,553.70 L 173.16,554.95 L 174.09,556.60 L 174.36,557.93 L 174.79,558.74 L 177.16,560.77 L 177.55,560.90 L 178.58,561.26 L 178.70,561.29 L 178.79,561.30 L 179.97,561.42 L 181.45,561.72 L 181.73,562.07 L 181.64,562.75 L 181.83,563.58 L 182.33,564.00 L 183.13,564.82 L 183.45,565.59 L 183.69,566.81 L 183.89,567.19 L 184.33,567.81 L 183.82,568.40 L 183.67,568.79 L 183.04,570.46 L 184.27,571.50 L 185.29,572.56 L 185.39,572.86 L 185.65,573.87 L 186.66,574.44 L 188.50,576.04 L 190.56,577.76 L 191.87,578.74 L 192.88,578.76 L 193.61,578.91 L 194.77,579.06 L 195.82,579.56 L 197.10,580.43 L 198.11,580.91 L 198.73,581.14 L 199.61,580.88 L 200.59,580.87 L 201.87,580.78 L 202.27,580.90 L 202.99,581.45 L 203.37,581.87 L 204.38,581.83 L 205.85,582.00 L 207.66,582.55 L 208.89,582.78 L 208.81,583.62 L 208.40,584.29 L 208.05,584.52 L 207.84,584.94 L 208.08,585.22 L 208.67,585.59 L 209.41,585.69 L 210.30,585.79 L 211.02,585.77 L 211.39,585.77 L 211.71,585.96 L 211.66,586.99 L 211.65,587.90 L 211.97,588.78 L 212.21,589.50 L 212.56,589.75 L 213.30,589.77 L 214.37,589.55 L 214.77,589.65 L 215.47,589.73 L 216.05,589.98 L 216.35,590.00 L 216.56,589.87 L 216.46,589.50 L 216.19,588.63 L 215.84,587.60 L 215.82,586.50 L 215.92,585.43 L 216.29,584.51 L 216.72,584.09 L 218.00,583.69 L 219.04,583.36 L 219.52,582.81 L 219.66,582.29 L 219.90,581.48 L 220.03,580.62 L 220.56,579.92 L 221.50,579.08 L 222.06,578.60 L 222.73,578.73 L 224.04,578.53 L 224.85,578.10 L 225.79,576.96 L 226.78,575.33 L 227.22,574.92 L 228.06,574.62 L 230.03,574.37 L 231.47,574.47 L 233.34,574.70 L 234.35,574.92 L 235.69,575.79 L 237.20,576.59 L 238.08,576.69 L 239.60,576.51 L 240.27,575.99 L 240.80,575.56 L 241.25,575.52 L 242.29,575.50 L 243.34,575.42 L 244.41,574.94 L 244.96,575.07 L 245.95,575.32 L 247.03,575.17 L 247.70,574.97 L 247.97,574.80 L 247.92,574.38 L 247.91,573.75 L 248.15,572.87 L 248.61,572.53 L 249.01,572.38 L 250.02,572.58 L 250.66,572.46 L 251.69,572.76 L 252.45,572.66 L 253.75,572.16 L 254.93,571.51 L 256.82,570.81 L 258.08,569.59 L 258.40,569.16 L 258.98,568.92 L 259.73,568.72 L 260.53,568.73 L 262.37,569.33 L 263.33,569.78 L 263.92,570.22 L 264.21,571.29 L 264.40,571.99 L 264.88,572.65 L 265.75,573.41 L 267.03,573.91 L 267.94,573.96 L 269.11,573.56 L 270.07,573.31 L 271.48,573.04 L 272.29,572.91 L 273.28,573.16 L 274.48,572.89 L 275.73,572.14 L 277.15,571.24 L 278.58,570.47 L 279.55,569.56 L 280.07,568.85 L 280.72,568.33 L 281.33,568.29 L 282.08,568.49 L 282.78,568.81 L 284.08,568.83 L 285.65,568.51 L 286.46,568.64 L 286.93,568.88 L 287.76,568.54 L 287.98,567.56 L 288.22,566.44 L 288.50,566.17 L 289.28,565.95 L 290.72,565.55 L 291.79,564.95 L 292.13,564.15 L 292.70,563.93 L 294.00,563.98 L 294.81,564.18 L 296.81,565.13 L 297.49,565.25 L 299.65,565.85 L 301.23,566.00 L 302.54,565.83 L 304.71,566.15 L 305.21,565.87 L 306.12,564.48 L 306.15,563.03 L 306.12,561.57 L 306.26,560.92 L 306.52,560.62 L 306.92,560.54 L 307.60,560.75 L 308.28,560.90 L 308.68,560.88 L 310.05,561.00 L 310.98,561.15 L 311.97,560.90 L 312.48,560.65 L 313.12,560.68 L 313.79,560.95 L 315.71,561.68 L 317.87,562.30 L 318.30,562.35 L 319.46,562.47 L 320.29,562.82 L 320.71,563.07 L 321.40,561.97 L 321.92,561.30 L 322.74,559.95 L 323.46,559.18 L 325.20,556.68 L 325.97,555.52 L 326.69,554.30 L 327.17,553.60 L 327.36,553.63 L 327.79,554.03 L 328.99,555.80 L 329.82,555.03 L 330.94,553.66 L 331.77,554.15 L 332.37,554.70 L 333.41,556.02 L 333.97,556.62 L 334.45,556.84 L 335.47,556.42 L 336.67,555.77 L 337.72,554.72 L 338.59,554.18 L 339.07,554.72 L 340.44,555.32 L 340.94,555.16 L 341.95,554.68 L 342.83,554.26 L 343.44,553.76 L 343.80,553.62 L 343.98,553.54 L 345.24,553.41 L 345.80,553.26 L 347.50,552.96 L 347.84,553.34 L 348.16,554.00 L 348.60,554.25 L 351.67,553.01 L 352.13,552.68 L 352.29,551.90 L 352.35,551.25 L 352.21,550.36 L 352.05,549.51 L 352.06,548.48 L 352.05,547.96 L 352.51,547.69 L 352.64,546.86 L 353.63,546.74 L 354.38,546.64 L 355.15,546.26 L 355.79,545.82 L 356.40,545.30 L 357.66,544.08 L 358.65,543.23 L 359.66,542.74 L 360.41,542.34 L 360.84,542.13 L 361.64,542.39 L 362.57,542.36 L 363.27,542.24 L 364.39,542.56 L 365.32,542.69 L 366.23,542.52 L 367.51,542.39 L 368.35,542.54 L 369.08,542.62 L 370.22,542.24 L 371.27,541.52 L 373.11,540.18 L 373.67,539.70 L 374.05,539.68 L 374.53,539.92 L 375.91,540.30 L 377.48,536.99 L 378.84,533.90 L 379.50,532.35 L 381.98,532.16 L 384.32,532.22 L 388.89,532.19 L 391.63,532.19 L 394.65,532.28 L 395.71,532.31 L 399.58,532.18 L 400.41,532.12 L 400.48,533.36 L 400.52,534.47 L 400.44,534.80 L 400.20,535.27 L 399.99,535.66 L 399.93,535.95 L 399.94,536.25 L 399.83,536.70 L 399.70,537.08 L 399.59,537.35 L 399.54,537.71 L 399.47,538.46 L 399.49,539.03 L 399.50,539.59 L 399.65,540.22 L 399.95,540.97 L 400.39,541.69 L 400.59,542.11 L 401.11,543.00 L 401.61,543.86 L 402.34,544.98 L 403.06,546.10 L 403.33,546.47 L 403.57,546.63 L 403.83,546.77 L 404.13,546.96 L 404.52,547.10 L 404.91,547.35 L 405.42,547.82 L 405.70,548.14 L 406.48,548.59 L 407.13,548.93 L 407.49,549.11 L 407.69,549.44 L 408.03,549.84 L 408.49,550.36 L 408.95,550.86 L 409.52,551.45 L 409.92,551.90 L 410.16,552.23 L 410.22,552.36 L 410.33,552.78 L 410.35,553.96 L 410.41,555.04 L 410.47,555.50 L 410.29,556.11 L 410.21,556.60 L 410.68,556.64 L 411.14,556.54 L 411.66,556.43 L 412.70,556.45 L 413.65,556.45 L 415.00,556.44 L 415.87,556.35 L 416.22,556.28 L 418.59,556.33 L 420.55,556.46 L 421.14,556.45 L 422.92,556.65 L 425.06,556.77 L 429.62,557.06 L 431.81,557.30 L 436.99,557.58 L 438.12,557.65 L 439.64,557.76 L 440.97,557.89 L 441.30,557.90 L 441.87,558.34 L 442.25,558.27 L 442.66,558.23 L 443.41,557.61 L 443.91,557.02 L 446.78,556.82 L 449.20,556.70 L 452.33,556.38 L 453.78,556.20 L 455.01,555.89 L 456.08,555.49 L 458.30,554.32 L 460.39,552.94 L 461.53,552.15 L 462.19,551.42 L 462.64,550.17 L 462.68,548.04 L 462.78,546.58 L 463.18,545.48 L 464.01,544.23 L 465.60,542.66 L 467.17,541.66 L 467.97,540.84 L 469.25,539.35 L 469.86,538.47 L 469.98,538.10 L 471.81,540.38 L 473.07,541.40 L 473.97,542.18 L 474.49,543.13 L 474.52,544.08 L 474.75,544.70 L 475.65,545.23 L 476.86,546.10 L 478.76,547.29 L 479.89,548.11 L 480.59,548.30 L 481.51,548.39 L 483.31,548.17 L 484.71,548.00 L 485.37,547.88 L 486.60,548.15 L 487.67,548.48 L 489.04,548.41 L 491.23,548.10 L 492.77,547.79 L 493.88,547.54 L 494.43,547.50 L 494.96,547.68 L 495.81,548.08 L 496.62,548.10 L 497.66,547.70 L 498.15,547.45 L 498.56,547.16 L 498.96,547.12 L 499.38,547.30 L 500.00,548.10 L 501.02,548.92 L 502.16,549.16 L 503.09,549.43 L 504.63,550.38 L 505.75,550.87 L 507.10,550.96 L 508.56,550.67 L 510.10,550.03 L 511.64,549.43 L 512.24,549.29 L 513.21,548.60 L 514.01,548.38 L 515.06,548.50 L 515.75,548.73 L 516.79,549.07 L 518.41,549.05 L 519.78,549.09 L 520.66,549.14 L 522.72,549.24 L 524.17,549.09 L 525.07,548.75 L 526.13,548.35 L 527.30,547.91 L 528.44,547.69 L 529.84,547.69 L 532.36,547.54 L 534.28,547.34 L 535.66,546.89 L 537.56,546.25 L 539.58,545.43 L 540.59,545.12 L 541.65,545.89 L 543.37,546.48 L 545.61,547.65 L 549.02,549.21 L 550.47,549.86 L 552.47,550.00 L 553.69,549.88 L 554.67,549.61 L 555.83,549.52 L 556.33,549.46 L 557.30,549.52 L 558.09,548.67 L 559.21,547.56 L 560.17,546.76 L 560.91,546.03 L 562.45,545.41 L 563.88,544.57 L 561.59,541.31 L 562.16,540.18 L 562.96,539.20 L 563.04,539.25 L 566.06,535.49 L 567.95,533.38 L 568.87,532.32 L 570.40,530.43 L 570.69,527.73 L 570.96,525.93 L 571.13,524.92 L 571.56,524.02 L 573.52,521.32 L 574.62,519.92 L 576.47,518.37 L 576.96,517.77 L 577.13,516.06 L 577.60,515.34 L 578.16,514.60 L 578.49,514.14 L 578.29,510.66 L 578.19,508.42 L 578.29,507.77 L 578.63,507.24 L 579.95,506.40 L 582.90,504.01 L 583.99,503.25 L 584.49,502.94 L 584.95,502.78 L 585.71,502.75 L 589.04,502.72 L 590.99,502.85 L 591.85,502.72 L 593.01,502.41 L 594.64,501.32 L 595.67,500.70 L 596.43,500.49 L 598.57,500.74 L 600.23,500.77 L 602.98,500.56 L 605.57,502.82 L 606.03,503.05 L 606.73,503.46 L 608.48,503.89 L 610.11,504.26 L 612.17,504.73 L 614.20,506.28 L 617.52,506.61 L 619.25,505.18 L 620.55,503.78 L 621.58,503.32 L 624.26,503.43 L 625.86,503.71 L 626.57,503.37 L 628.35,502.04 L 629.34,501.80 L 631.19,502.41 L 633.54,502.42 L 636.40,502.20 L 637.67,501.85 L 638.42,501.32 L 639.53,500.89 L 642.10,501.94 L 643.83,502.74 L 650.81,503.03 L 655.22,501.52 L 662.93,500.19 L 663.76,499.86 L 665.80,498.86 L 668.45,497.84 L 669.66,497.83 L 671.05,497.75 L 673.24,497.59 L 675.35,497.52 L 678.75,497.45 L 683.95,496.94 L 686.26,496.96 L 689.17,496.88 L 693.45,496.53 L 701.51,495.56 L 704.34,495.36 L 704.15,491.11 L 704.11,489.06 L 704.00,486.66 L 703.92,483.73 L 703.81,482.37 L 703.69,477.26 L 703.48,473.73 L 703.03,467.99 L 702.89,466.78 L 702.89,465.95 L 702.93,464.11 L 703.50,462.58 L 703.90,461.68 L 704.72,460.29 L 705.60,459.23 L 706.14,458.60 L 707.11,457.17 L 707.57,456.73 L 708.27,456.58 L 708.79,456.57 L 710.26,456.71 L 710.72,456.78 L 711.66,456.68 L 712.23,456.55 L 714.09,455.16 L 715.90,454.13 L 716.40,453.70 L 716.96,453.09 L 715.90,452.20 L 714.64,451.27 L 713.41,450.76 L 712.43,450.70 L 712.04,450.76 L 711.29,451.00 L 710.65,451.53 L 710.50,451.59 L 708.73,452.92 L 708.42,453.09 L 707.96,453.25 L 707.15,453.26 L 706.24,453.08 L 703.79,452.34 L 701.79,450.95 L 701.19,450.39 L 699.97,449.10 L 699.43,448.27 L 699.07,447.22 L 698.55,443.39 L 698.26,442.37 L 697.82,440.46 L 697.57,440.01 L 697.28,439.79 L 696.65,439.54 L 696.14,439.46 L 695.91,439.59 L 694.96,439.60 L 693.93,439.52 L 693.34,439.42 L 692.91,438.99 L 692.77,438.52 L 692.82,437.99 L 692.94,437.51 L 693.11,436.94 L 693.15,436.53 L 692.87,436.06 L 692.39,435.77 L 692.66,434.95 L 692.77,434.39 L 692.77,434.21 L 693.11,433.14 L 693.33,432.08 L 693.47,431.73 L 693.69,431.33 L 693.93,430.70 L 694.12,430.28 L 694.67,429.29 L 695.13,428.45 L 695.24,427.41 L 695.09,426.45 L 695.16,425.49 L 695.58,424.40 L 695.97,423.55 L 696.49,422.66 L 696.80,421.82 L 697.65,421.10 L 698.44,420.46 L 699.16,419.84 L 699.79,419.16 L 700.21,418.33 L 699.94,417.37 L 699.51,416.49 L 699.02,415.68 L 698.59,414.86 L 698.50,413.88 L 698.90,412.84 L 699.71,412.07 L 700.47,411.41 L 701.14,410.86 L 701.69,410.02 L 702.22,409.19 L 702.66,408.52 L 703.15,407.57 L 703.66,406.80 L 703.82,406.43 L 704.32,406.71 L 704.95,406.78 L 705.54,406.75 L 706.75,406.46 L 708.29,405.85 L 709.26,405.32 L 709.95,405.07 L 710.57,404.94 L 711.28,404.99 L 711.92,405.32 L 712.86,406.48 L 713.25,406.93 L 713.48,407.18 L 713.65,407.24 L 714.29,407.14 L 714.97,407.04 L 715.73,407.05 L 716.12,407.00 L 716.58,406.88 L 717.02,406.52 L 717.39,405.99 L 717.82,405.68 L 718.60,405.45 L 719.31,405.42 L 719.96,405.64 L 720.18,405.72 L 720.65,405.40 L 721.54,405.28 L 722.56,405.09 L 723.52,404.94 L 725.56,404.64 L 727.50,404.52 L 728.44,404.31 L 729.48,404.23 L 730.59,404.33 L 731.56,404.66 L 732.44,405.32 L 733.25,406.02 L 733.87,406.58 L 734.48,407.12 L 735.27,407.70 L 736.01,408.43 L 736.69,409.05 L 736.71,409.91 L 736.77,410.81 L 736.95,411.71 L 737.43,412.61 L 738.01,413.27 L 738.62,413.87 L 739.44,414.48 L 740.08,415.24 L 740.78,415.75 L 741.34,416.59 L 741.80,417.45 L 742.09,418.34 L 742.50,419.18 L 742.88,420.01 L 743.39,420.69 L 743.80,421.59 L 744.54,422.29 L 745.36,422.74 L 746.32,423.14 L 747.37,423.45 L 748.53,423.36 L 749.48,422.99 L 750.32,422.52 L 751.16,421.99 L 751.53,421.70 L 755.40,420.15 L 755.72,419.99 L 754.85,417.52 L 753.94,414.57 L 753.44,412.68 L 752.80,410.94 L 752.15,410.18 L 751.85,409.80 L 751.46,409.68 L 751.06,409.35 L 750.60,408.55 L 750.46,407.55 L 750.43,407.12 L 750.53,406.35 L 751.02,405.42 L 751.33,405.14 L 751.53,405.19 L 751.54,405.03 L 751.61,404.99 L 751.86,405.05 L 752.26,400.55 L 752.82,397.65 L 753.02,394.54 L 753.38,392.43 L 753.30,389.70 L 753.30,388.36 L 753.10,385.50 L 753.57,382.31 L 753.49,381.84 L 753.49,381.80 L 753.97,381.09 L 757.06,376.59 L 760.00,372.08 L 761.16,370.64 L 762.72,368.25 L 763.22,367.45 L 764.08,363.88 L 765.43,358.53 L 766.55,353.28 L 766.98,350.77 L 767.18,349.89 L 767.50,349.46 L 767.88,348.81 L 768.34,347.99 L 768.57,345.02 L 768.98,339.55 L 769.62,333.81 L 770.14,329.04 L 770.90,324.25 L 771.76,318.67 L 772.38,313.24 L 772.96,308.08 L 773.65,303.15 L 774.10,298.47 L 774.19,297.54 L 774.04,291.91 L 773.97,287.03 L 773.95,281.70 L 773.98,277.89 L 773.98,273.64 L 773.85,272.70 L 773.75,266.91 L 773.64,261.83 L 773.70,257.23 L 773.82,256.36 L 773.91,256.27 L 779.35,250.84 L 784.48,245.72 L 786.60,243.64 L 787.63,242.60 L 787.50,241.08 L 786.98,237.91 L 786.98,237.83 L 786.98,237.55 L 787.41,236.55 L 788.52,234.55 L 789.50,232.44 L 789.97,231.43 L 790.00,230.82 L 789.85,229.97 L 789.68,228.67 L 789.70,227.37 L 789.76,225.27 L 789.52,224.39 L 789.30,223.81 L 788.84,223.38 L 787.77,222.87 L 785.87,222.32 L 784.70,222.00 L 784.17,221.59 L 783.40,220.62 L 782.69,219.84 L 782.15,219.51 L 781.25,219.35 L 779.93,218.82 L 779.32,218.21 L 779.14,217.91 L 778.61,217.38 L 778.06,217.21 L 777.36,217.18 L 775.00,217.85 L 773.58,218.12 L 772.34,217.70 L 771.57,216.99 L 769.45,213.62 L 768.46,212.21 L 767.16,210.10 L 767.16,209.49 L 767.37,208.99 L 767.83,208.48 L 769.43,206.87 L 769.68,206.45 L 770.12,205.18 L 771.02,200.16 L 771.27,197.80 L 771.63,196.46 L 772.19,193.13 L 772.15,192.25 L 771.64,191.24 L 770.61,190.24 L 767.61,187.33 L 766.38,185.45 L 765.90,184.94 L 765.90,184.91 L 764.76,184.49 L 760.61,182.68 L 758.16,182.40 L 755.26,182.26 L 753.77,182.18 L 753.02,181.85 L 751.85,180.96 L 750.18,179.75 L 749.24,179.01 L 748.78,178.30 L 748.46,177.07 L 748.19,176.24 L 748.00,175.28 L 748.04,174.41 L 747.79,172.90 L 747.70,172.38 L 747.42,171.81 L 747.01,171.40 L 746.39,170.84 L 745.91,170.66 L 745.53,170.55 L 744.83,170.55 L 744.21,170.48 L 743.63,170.54 L 742.80,170.97 L 742.63,171.12 L 742.48,171.20 L 741.93,171.69 L 741.38,172.16 L 740.91,172.98 L 740.19,173.78 L 739.88,174.15 L 739.65,174.29 L 739.55,174.38 L 739.33,174.52 L 738.39,175.36 L 737.92,175.56 L 736.65,175.78 L 735.87,175.72 L 735.13,175.61 L 734.18,175.27 L 733.54,175.00 L 733.09,174.67 L 731.64,173.77 L 730.98,173.21 L 730.53,172.71 L 730.01,172.16 L 729.97,172.10 L 729.66,171.56 L 729.47,171.16 L 729.39,170.83 L 729.44,170.47 L 729.53,170.05 L 729.73,169.76 L 730.12,169.42 L 730.95,168.72 L 732.15,167.95 L 733.47,167.28 L 734.44,166.70 L 736.11,165.67 L 736.70,165.32 L 738.05,164.71 L 738.15,164.58 L 738.37,164.48 L 738.76,163.99 L 738.86,163.71 L 738.86,163.39 L 738.80,163.06 L 738.56,162.56 L 738.19,161.80 L 738.04,161.38 L 737.82,160.90 L 737.57,160.17 L 737.16,159.10 L 736.98,158.19 L 736.60,157.09 L 736.13,156.54 L 735.82,156.33 L 735.29,156.09 L 734.88,156.02 L 734.20,156.04 L 733.26,156.35 L 731.89,157.00 L 730.00,157.92 L 728.35,158.49 L 727.47,158.68 L 726.54,158.66 L 726.03,158.68 L 725.51,158.53 L 724.92,158.20 L 724.73,157.92 L 724.67,157.71 L 724.67,157.68 L 724.67,157.57 L 724.67,157.46 L 724.73,157.22 L 724.81,157.09 L 724.91,156.88 L 725.20,156.39 L 725.45,156.00 L 725.93,155.43 L 726.10,155.16 L 726.47,154.38 L 726.63,153.85 L 726.46,153.20 L 726.14,152.57 L 725.89,152.29 L 725.36,152.01 L 724.87,151.93 L 724.25,151.88 L 723.27,151.91 L 721.66,151.95 L 720.62,151.91 L 720.07,151.83 L 718.94,151.66 L 718.19,151.44 L 717.49,151.06 L 716.55,150.44 L 715.72,149.81 L 714.96,149.45 L 714.49,149.28 L 713.68,149.19 L 713.07,149.19 L 712.44,149.30 L 711.10,149.42 L 710.55,149.57 L 710.01,149.94 L 709.92,150.01 L 709.68,150.17 L 709.16,150.57 L 708.16,151.04 L 707.57,151.32 L 706.89,151.38 L 706.52,151.32 L 706.25,151.13 L 705.98,150.90 L 705.90,150.78 L 705.78,150.57 L 705.74,150.25 L 705.87,149.76 L 705.95,149.14 L 706.17,148.77 L 706.36,148.53 L 706.60,148.27 L 706.84,148.10 L 707.29,147.82 L 707.95,147.37 L 708.38,147.21 L 708.82,146.94 L 709.06,146.76 L 709.14,146.71 L 709.46,146.47 L 709.69,146.09 L 709.85,145.70 L 709.95,145.28 L 709.97,144.92 L 709.87,144.34 L 709.70,143.87 L 709.68,143.62 L 709.40,142.76 L 709.23,142.33 L 708.86,141.54 L 708.67,141.15 L 708.35,140.70 L 708.00,140.34 L 707.71,140.17 L 707.46,140.07 L 707.17,140.03 L 706.79,140.08 L 706.51,140.17 L 706.26,140.33 L 706.21,140.39 L 706.18,140.40 L 705.94,140.56 L 705.58,141.06 L 705.12,141.71 L 704.64,142.23 L 704.63,142.24 L 704.27,142.35 L 703.79,142.37 L 703.01,142.37 L 702.64,142.30 L 702.21,142.20 L 701.79,142.11 L 701.51,142.05 L 700.76,141.76 L 700.06,141.40 L 699.54,141.28 L 699.05,141.37 L 698.60,141.61 L 698.51,141.72 L 698.28,141.84 L 697.91,142.25 L 697.68,142.66 L 697.35,143.48 L 697.03,144.20 L 696.78,144.96 L 696.60,145.77 L 696.39,146.50 L 695.78,147.60 L 695.07,148.26 L 694.45,148.59 L 693.80,148.76 L 693.23,148.87 L 692.35,148.89 L 691.58,148.90 L 691.00,148.77 L 690.48,148.54 L 689.31,148.14 L 688.51,147.95 L 687.67,147.81 L 687.08,147.89 L 685.87,148.26 L 685.40,148.31 L 684.24,148.26 L 683.40,148.03 L 682.81,147.84 L 682.24,147.58 L 681.53,147.22 L 681.29,147.16 L 680.83,146.84 L 679.74,146.30 L 679.05,145.91 L 678.38,145.51 L 677.65,144.96 L 677.15,144.45 L 676.59,143.72 L 676.13,143.01 L 675.73,142.39 L 675.52,142.11 L 675.25,141.49 L 674.92,140.90 L 674.79,140.50 L 674.40,139.48 L 674.14,138.74 L 673.85,138.29 L 673.58,137.87 L 673.02,137.36 L 672.57,137.05 L 671.84,136.55 L 670.76,135.90 L 669.79,135.42 L 669.44,135.10 L 669.33,134.74 L 669.31,134.37 L 669.32,133.99 L 669.39,133.50 L 669.47,132.85 L 669.52,132.47 L 669.74,131.93 L 669.94,131.24 L 670.05,130.72 L 670.11,130.03 L 670.23,129.45 L 670.23,128.93 L 670.17,128.50 L 670.02,128.08 L 669.71,127.42 L 669.33,127.09 L 668.73,126.78 L 667.95,126.56 L 666.86,126.43 L 665.94,126.40 L 665.15,126.41 L 663.73,126.42 L 662.96,126.34 L 662.47,126.20 L 662.02,125.89 L 661.72,125.55 L 661.52,125.18 L 661.35,124.77 L 661.23,124.29 L 661.15,123.73 L 661.13,123.38 L 661.04,122.56 L 660.86,121.38 L 660.74,120.94 L 660.65,120.14 L 660.57,119.74 L 660.51,119.27 L 660.39,118.56 L 660.20,117.73 L 660.11,117.35 L 660.11,117.08 L 660.19,116.70 L 660.19,116.17 L 660.23,115.62 L 660.35,115.28 L 660.55,114.85 L 660.76,114.30 L 660.85,113.76 L 660.89,113.04 L 660.96,112.25 L 660.96,111.75 L 660.89,110.86 L 660.88,110.26 L 660.88,109.79 L 661.09,109.20 L 661.18,108.77 L 661.42,108.38 L 661.98,107.85 L 662.36,107.61 L 663.37,107.10 L 664.13,106.67 L 664.19,106.59 L 664.46,106.44 L 664.81,105.97 L 664.89,105.72 L 664.84,105.46 L 664.69,105.23 L 664.40,105.03 L 664.01,104.95 L 663.66,104.95 L 662.77,104.95 L 661.94,104.97 L 661.32,104.79 L 661.06,104.56 L 660.85,104.18 L 660.79,103.83 L 660.85,103.37 L 660.92,103.00 L 661.34,101.94 L 661.93,100.53 L 662.16,99.85 L 662.20,99.33 L 662.33,98.85 L 662.31,98.40 L 662.17,98.01 L 661.76,97.21 L 661.22,96.32 L 660.64,95.58 L 660.34,95.27 L 659.85,94.46 L 659.23,94.00 L 658.69,93.77 L 658.08,93.60 L 657.47,93.51 L 656.98,93.52 L 655.78,93.62 L 655.03,93.77 L 654.37,94.01 L 653.49,94.26 L 652.68,94.16 L 652.22,94.00 L 651.70,93.74 L 651.33,93.32 L 651.03,92.78 L 650.91,92.19 L 650.92,91.77 L 651.07,91.34 L 651.30,90.98 L 651.71,90.67 L 651.99,90.49 L 652.51,90.24 L 653.05,90.12 L 653.43,90.11 L 653.95,90.14 L 655.02,90.46 L 655.88,90.84 L 656.43,90.94 L 657.02,90.95 L 657.62,90.95 L 658.57,90.79 L 659.25,90.58 L 659.56,90.36 L 659.58,90.35 L 659.91,90.11 L 660.43,89.78 L 660.45,89.77 L 660.55,89.69 L 660.76,89.55 L 660.77,89.54 L 664.77,86.21 L 665.84,85.87 L 666.81,85.87 L 667.67,86.21 L 668.41,87.07 L 669.43,88.67 L 670.29,89.78 L 671.01,89.78 L 671.53,89.94 L 672.48,89.78 L 673.22,89.78 L 673.49,89.72 L 674.27,89.46 L 675.18,89.08 L 675.67,88.88 L 676.24,88.61 L 676.56,88.38 L 676.56,88.38 L 676.69,88.29 L 677.28,87.92 L 677.45,87.79 L 677.61,87.69 L 677.86,87.50 L 678.07,87.36 L 678.16,87.29 L 678.40,87.13 L 678.79,86.82 L 679.15,86.43 L 679.42,86.20 L 679.76,85.83 L 680.17,85.31 L 680.55,84.93 L 680.81,84.66 L 680.94,84.51 L 681.02,84.06 L 681.03,83.70 L 681.01,83.42 L 680.88,82.94 L 680.77,82.62 L 680.55,82.26 L 680.15,81.74 L 679.85,81.54 L 679.47,81.45 L 679.10,81.42 L 678.64,81.41 L 678.09,81.47 L 677.52,81.59 L 677.23,81.63 L 676.82,81.65 L 676.60,81.59 L 676.44,81.45 L 676.39,81.35 L 676.25,81.11 L 676.04,80.78 L 676.00,80.61 L 675.98,80.39 L 676.01,79.99 L 676.07,79.48 L 676.16,78.76 L 676.13,78.09 L 675.89,77.65 L 675.37,77.12 L 674.72,76.58 L 674.23,76.28 L 673.56,75.95 L 672.85,75.62 L 671.80,75.29 L 671.00,75.04 L 669.88,74.70 L 669.08,74.42 L 668.63,74.12 L 668.11,73.59 L 667.79,73.09 L 667.63,72.60 L 667.52,72.09 L 667.51,71.58 L 667.63,71.07 L 667.96,70.25 L 668.25,69.57 L 668.50,68.83 L 668.64,68.18 L 668.75,67.57 L 668.89,66.86 L 668.79,66.33 L 668.65,65.82 L 668.47,65.36 L 668.14,64.94 L 667.64,64.50 L 667.11,63.91 L 666.44,63.27 L 665.84,62.76 L 665.09,62.17 L 664.35,61.57 L 663.60,61.05 L 662.93,60.66 L 662.25,60.36 L 661.58,59.97 L 661.02,59.51 L 660.73,59.01 L 660.67,58.49 L 660.89,57.97 L 661.13,57.65 L 661.37,57.49 L 661.74,57.36 L 662.22,57.29 L 662.71,57.23 L 663.59,57.30 L 664.23,57.46 L 664.80,57.62 L 666.00,57.75 L 666.69,57.67 L 667.24,57.46 L 667.64,57.26 L 667.70,57.17 L 667.97,57.03 L 668.19,56.66 L 668.25,56.34 L 668.16,55.77 L 667.91,55.42 L 667.64,55.18 L 667.04,54.88 L 666.28,54.52 L 665.47,54.24 L 664.88,54.05 L 664.33,53.94 L 663.66,53.89 L 662.38,53.59 L 661.50,53.24 L 661.16,53.01 L 660.73,52.42 L 660.06,51.49 L 659.54,50.87 L 658.77,50.05 L 658.22,49.71 L 657.59,49.35 L 656.62,48.87 L 655.59,48.42 L 654.70,47.95 L 653.96,47.63 L 653.47,47.50 L 652.76,47.07 L 651.18,45.88 L 650.09,44.87 L 650.03,44.90 L 649.72,45.05 L 649.70,45.03 L 648.61,45.54 L 647.15,46.32 L 646.20,46.85 L 645.33,47.41 L 644.51,47.73 L 643.44,48.06 L 641.05,48.85 L 640.00,49.19 L 638.86,49.54 L 636.82,50.09 L 635.38,50.47 L 632.78,51.15 L 631.28,51.44 L 629.23,51.88 L 627.97,52.23 L 626.51,52.63 L 626.19,52.70 L 625.15,52.94 L 623.61,53.20 L 621.63,53.51 L 620.33,53.63 L 617.40,53.96 L 616.08,54.11 L 613.13,54.51 L 611.64,54.76 L 608.95,55.00 L 607.02,55.28 L 605.02,55.43 L 604.98,55.44 L 602.18,52.00 L 601.69,52.04 L 601.15,51.36 L 600.68,50.30 L 600.41,49.75 L 599.80,48.59 L 599.47,48.04 L 598.80,46.80 L 598.55,46.26 L 597.90,45.09 L 597.56,44.51 L 596.99,43.20 L 596.79,42.71 L 596.01,41.31 L 595.63,40.71 L 595.05,39.53 L 594.44,39.80 L 592.87,40.61 L 592.25,40.97 L 591.91,41.05 L 591.83,40.93 L 591.60,40.78 L 591.26,40.58 L 590.86,40.43 L 590.35,40.27 L 589.94,40.02 L 589.35,39.78 L 589.02,39.72 L 588.70,39.73 L 588.44,39.83 L 588.03,40.18 L 587.34,40.95 L 586.93,41.46 L 586.60,41.65 L 586.35,41.71 L 586.12,41.68 L 585.88,41.59 L 585.62,41.38 L 585.17,40.90 L 584.94,40.65 L 584.43,40.24 L 584.05,39.85 L 584.02,39.60 Z" fill="#1d3672" stroke="#333" stroke-width="1"/>
</svg>