<svg xmlns="http://www.w3.org/2000/svg" width="800" height="600" viewBox="0 0 800 600">
<path d="M 556.18,18.26 L 554.83,17.59 L 553.19,17.12 L 552.13,16.95 L 550.57,17.49 L 549.12,17.90 L 547.58,18.26 L 545.76,18.66 L 543.96,18.81 L 543.09,18.83 L 541.60,18.22 L 540.21,17.51 L 540.06,17.43 L 539.74,17.37 L 539.17,17.58 L 538.37,18.17 L 537.34,19.00 L 536.22,20.01 L 535.28,20.48 L 534.53,20.41 L 533.68,20.20 L 532.53,19.76 L 531.96,19.34 L 531.18,18.51 L 530.63,17.98 L 530.13,17.60 L 529.58,17.47 L 528.87,17.60 L 527.90,17.94 L 526.93,18.36 L 526.26,18.59 L 525.64,18.59 L 524.79,18.38 L 522.07,17.95 L 521.12,17.70 L 519.72,17.44 L 519.18,17.40 L 518.92,17.54 L 518.81,17.74 L 518.69,18.12 L 518.55,18.58 L 518.38,19.58 L 518.20,20.13 L 517.80,20.47 L 517.07,20.65 L 516.37,20.60 L 515.49,20.51 L 514.74,20.36 L 514.44,20.38 L 514.28,20.72 L 514.28,21.08 L 514.35,21.46 L 514.56,21.88 L 514.91,22.58 L 515.07,23.47 L 515.00,24.17 L 514.88,24.61 L 514.68,25.03 L 514.32,25.29 L 513.41,25.48 L 512.76,25.46 L 511.72,26.24 L 510.50,27.02 L 508.88,27.82 L 507.20,28.61 L 507.15,28.65 L 506.40,29.06 L 503.94,30.58 L 500.70,32.48 L 499.27,33.77 L 498.80,34.83 L 498.09,37.11 L 496.91,38.78 L 494.85,40.38 L 494.22,41.89 L 494.22,42.73 L 494.46,44.85 L 494.69,48.57 L 494.38,48.55 L 490.85,48.28 L 490.26,48.09 L 489.08,47.78 L 487.74,47.46 L 486.42,47.37 L 485.19,47.18 L 483.88,46.94 L 482.32,46.71 L 480.75,46.57 L 480.46,46.49 L 478.64,46.26 L 477.04,46.03 L 476.10,45.83 L 477.15,48.39 L 477.67,49.82 L 477.99,51.29 L 478.53,54.06 L 479.17,57.08 L 476.03,57.00 L 469.23,56.86 L 465.67,56.83 L 459.42,56.87 L 455.29,56.76 L 455.10,59.56 L 454.43,65.06 L 454.65,68.83 L 454.43,71.41 L 450.48,70.98 L 447.65,70.62 L 443.53,70.37 L 440.47,69.98 L 439.28,69.83 L 429.53,68.58 L 429.13,68.61 L 428.90,68.83 L 427.53,69.66 L 426.52,69.88 L 425.98,70.05 L 423.95,71.31 L 422.64,71.94 L 420.16,73.28 L 419.14,73.67 L 418.18,73.92 L 417.94,73.94 L 417.51,73.81 L 417.16,73.85 L 416.48,74.13 L 413.67,75.75 L 410.86,77.04 L 409.49,77.56 L 408.75,77.49 L 407.31,77.08 L 406.02,76.59 L 405.42,76.39 L 404.23,75.98 L 401.53,75.06 L 398.88,73.90 L 398.43,73.65 L 396.82,72.76 L 395.41,72.03 L 394.42,71.35 L 392.25,70.09 L 389.65,68.74 L 387.78,67.56 L 385.88,66.43 L 384.06,65.35 L 383.64,65.12 L 381.08,64.88 L 379.07,64.72 L 377.68,64.50 L 377.73,64.21 L 378.25,61.97 L 378.70,59.80 L 379.21,57.37 L 379.51,56.24 L 379.43,55.96 L 378.96,55.94 L 377.76,56.03 L 377.44,56.05 L 374.06,56.33 L 373.30,56.39 L 370.72,56.57 L 368.22,56.78 L 366.42,56.88 L 363.68,57.12 L 362.39,57.26 L 361.05,57.42 L 359.79,57.53 L 358.10,57.66 L 357.56,57.70 L 355.65,57.80 L 355.15,57.74 L 354.48,57.51 L 353.47,57.10 L 351.56,56.21 L 351.88,55.65 L 352.32,54.73 L 352.93,53.41 L 353.22,52.67 L 353.45,51.79 L 353.47,51.20 L 353.38,50.78 L 353.05,49.87 L 352.00,47.88 L 351.62,46.96 L 351.49,46.43 L 351.45,46.00 L 351.49,44.31 L 351.06,44.34 L 349.96,44.48 L 349.06,44.60 L 347.68,44.82 L 347.18,44.89 L 345.86,45.12 L 343.28,45.55 L 342.52,45.72 L 339.83,46.20 L 337.37,46.80 L 336.55,47.03 L 335.05,47.44 L 334.25,47.66 L 333.71,47.77 L 333.28,47.88 L 331.38,48.35 L 330.82,48.48 L 329.10,48.94 L 326.21,49.61 L 324.72,49.92 L 323.32,50.31 L 320.98,51.44 L 317.62,52.35 L 313.88,53.23 L 310.12,54.33 L 307.91,54.83 L 307.72,57.28 L 307.51,59.18 L 307.57,60.22 L 307.63,63.36 L 308.00,66.12 L 308.63,69.42 L 308.77,70.35 L 309.23,71.67 L 309.58,74.57 L 310.18,77.47 L 309.87,79.62 L 309.58,81.55 L 309.43,83.50 L 309.14,86.81 L 308.75,89.53 L 308.52,91.38 L 308.09,95.87 L 307.89,98.18 L 307.66,102.28 L 307.29,106.35 L 307.06,109.11 L 303.15,111.36 L 302.98,117.18 L 302.90,118.78 L 302.72,120.16 L 302.61,126.33 L 302.70,130.21 L 302.70,133.77 L 302.69,136.57 L 306.18,137.69 L 307.72,137.95 L 308.74,138.15 L 309.78,138.34 L 310.77,138.75 L 311.52,138.91 L 312.69,139.21 L 314.09,139.64 L 314.82,139.94 L 315.98,140.32 L 316.98,140.70 L 317.67,140.92 L 318.62,141.08 L 319.81,141.33 L 320.43,141.54 L 321.58,141.88 L 322.53,142.18 L 323.26,142.52 L 323.33,142.54 L 324.59,142.95 L 325.48,143.25 L 326.45,143.64 L 327.29,144.07 L 327.82,144.43 L 329.16,145.36 L 330.40,146.05 L 332.22,146.95 L 333.40,147.52 L 334.23,147.83 L 334.60,147.86 L 335.78,147.96 L 336.88,148.06 L 337.97,148.23 L 339.11,148.35 L 340.69,148.38 L 341.57,148.43 L 341.73,150.08 L 342.16,153.18 L 342.41,154.53 L 342.70,156.74 L 343.23,158.40 L 343.71,161.66 L 343.81,162.06 L 343.74,163.06 L 343.88,164.89 L 344.14,166.16 L 344.57,167.77 L 344.49,168.90 L 344.36,170.84 L 344.54,174.95 L 344.57,175.77 L 344.56,175.81 L 344.11,175.74 L 343.59,175.67 L 342.65,175.47 L 342.02,175.36 L 341.46,175.29 L 341.45,175.29 L 340.11,175.23 L 338.82,175.18 L 337.39,175.26 L 336.58,175.44 L 335.86,175.62 L 334.88,175.83 L 333.89,176.11 L 333.12,176.32 L 332.05,176.49 L 330.83,176.66 L 329.76,176.84 L 329.15,176.94 L 328.29,177.22 L 326.54,177.74 L 324.65,178.35 L 323.51,178.68 L 323.56,178.80 L 324.20,180.84 L 324.38,181.86 L 324.29,183.73 L 324.14,184.98 L 323.66,186.01 L 323.41,186.21 L 323.41,186.22 L 323.42,186.23 L 323.59,186.62 L 323.62,186.83 L 323.58,187.12 L 323.57,187.16 L 323.31,187.62 L 322.42,188.97 L 322.13,189.66 L 322.01,190.26 L 321.88,190.78 L 321.84,191.09 L 321.78,191.46 L 321.78,191.88 L 321.79,192.26 L 321.86,192.64 L 321.87,193.01 L 322.05,193.53 L 322.19,194.03 L 322.31,194.62 L 322.30,195.16 L 322.30,195.17 L 322.29,196.22 L 322.32,197.04 L 322.33,198.22 L 322.39,198.48 L 322.51,199.17 L 322.57,199.33 L 320.28,199.16 L 320.38,199.67 L 320.80,200.66 L 321.76,202.98 L 322.34,204.88 L 322.87,206.47 L 322.90,206.57 L 322.57,206.91 L 321.61,208.22 L 320.99,209.28 L 320.14,210.45 L 318.99,211.52 L 318.26,212.25 L 317.89,212.71 L 317.72,213.01 L 317.43,213.76 L 317.20,214.60 L 316.90,216.26 L 316.83,217.27 L 316.57,217.91 L 315.54,219.25 L 315.16,219.74 L 314.85,220.45 L 314.60,221.27 L 314.19,222.81 L 313.79,223.96 L 313.16,225.38 L 312.65,226.05 L 312.31,226.75 L 312.01,227.77 L 311.72,229.01 L 311.62,229.63 L 310.90,231.11 L 310.24,232.05 L 309.50,233.04 L 308.95,233.61 L 308.08,234.09 L 306.77,234.70 L 306.15,234.89 L 304.93,235.63 L 304.59,236.09 L 303.85,238.32 L 303.80,239.58 L 303.50,241.02 L 302.82,241.78 L 301.62,242.80 L 300.45,243.52 L 295.74,241.43 L 294.64,241.18 L 292.72,241.50 L 286.60,241.89 L 282.30,242.22 L 277.45,242.47 L 277.42,242.77 L 277.44,243.31 L 277.48,244.03 L 277.54,244.98 L 277.58,245.72 L 277.65,246.42 L 277.69,246.58 L 274.40,246.44 L 274.43,246.92 L 274.52,247.25 L 274.68,247.74 L 274.78,248.16 L 274.82,248.93 L 274.75,249.41 L 274.55,249.95 L 274.32,250.48 L 273.97,251.21 L 273.58,251.94 L 273.33,252.40 L 273.11,253.02 L 272.83,253.67 L 272.57,254.12 L 272.20,254.66 L 271.51,255.53 L 270.77,256.23 L 270.37,256.57 L 270.22,256.71 L 269.90,257.04 L 269.68,257.28 L 269.54,257.46 L 269.41,257.75 L 269.33,258.31 L 269.23,258.63 L 269.08,259.06 L 269.03,259.49 L 269.02,259.86 L 269.16,260.49 L 269.33,260.99 L 269.31,261.53 L 269.32,261.76 L 269.33,261.86 L 269.19,262.22 L 268.79,263.05 L 268.53,263.50 L 267.89,264.53 L 267.71,264.75 L 267.54,265.00 L 267.48,265.25 L 267.41,265.55 L 267.40,265.86 L 267.51,266.21 L 267.74,266.63 L 267.83,267.00 L 267.72,267.54 L 267.40,268.16 L 266.68,268.90 L 266.40,269.18 L 266.09,269.56 L 265.83,270.15 L 265.73,270.58 L 265.57,271.24 L 265.35,271.89 L 265.16,272.24 L 264.92,272.68 L 264.46,273.48 L 264.19,274.06 L 263.70,275.26 L 263.48,275.62 L 262.96,276.39 L 262.72,276.89 L 262.60,277.24 L 262.38,277.81 L 262.06,278.12 L 261.80,278.31 L 261.46,278.62 L 261.03,279.06 L 260.55,279.29 L 260.15,279.41 L 259.73,279.51 L 259.26,279.54 L 258.83,279.65 L 258.27,279.95 L 257.94,280.11 L 257.62,280.23 L 257.28,280.46 L 256.48,281.14 L 256.14,281.52 L 255.47,282.11 L 255.01,282.50 L 254.51,282.97 L 254.16,283.25 L 254.02,283.43 L 253.58,284.13 L 253.32,284.50 L 252.95,285.09 L 252.59,285.46 L 252.00,286.18 L 251.65,286.56 L 251.38,287.00 L 250.93,287.74 L 250.46,288.69 L 250.32,289.15 L 250.20,289.58 L 250.19,289.81 L 250.17,290.18 L 250.21,290.94 L 250.33,291.43 L 250.60,292.17 L 250.81,292.63 L 251.16,293.24 L 251.39,293.65 L 251.49,293.96 L 251.58,294.33 L 251.59,294.80 L 251.39,295.20 L 250.90,295.93 L 250.62,296.38 L 250.25,297.08 L 250.07,297.47 L 249.91,297.99 L 249.78,298.37 L 249.66,298.87 L 249.56,299.81 L 249.48,300.27 L 249.48,300.71 L 249.58,301.25 L 249.75,302.10 L 249.78,302.69 L 249.81,303.59 L 249.75,303.95 L 249.58,304.57 L 249.32,305.02 L 249.19,305.45 L 249.13,305.65 L 249.11,306.00 L 249.20,306.58 L 249.27,307.06 L 249.38,307.88 L 249.57,308.28 L 249.63,308.52 L 249.66,308.65 L 249.66,309.34 L 249.65,309.84 L 249.50,311.35 L 249.49,311.77 L 249.45,312.27 L 249.52,312.92 L 249.62,313.75 L 249.64,314.06 L 249.64,314.12 L 249.64,314.42 L 249.55,314.87 L 249.46,315.46 L 249.33,316.19 L 249.19,316.76 L 248.97,317.61 L 248.86,318.12 L 248.64,318.78 L 248.48,319.40 L 248.29,320.40 L 248.25,320.95 L 248.13,322.07 L 248.08,322.42 L 248.00,322.79 L 247.79,323.30 L 247.62,323.58 L 247.16,324.82 L 246.66,325.98 L 246.37,326.50 L 246.28,326.67 L 245.71,327.41 L 245.47,327.74 L 245.21,328.03 L 244.74,328.54 L 244.54,328.81 L 244.40,329.07 L 244.23,329.33 L 244.08,329.64 L 243.96,329.84 L 243.81,330.18 L 243.70,330.52 L 243.60,330.83 L 243.47,331.21 L 243.24,331.80 L 243.16,332.26 L 243.09,332.66 L 242.99,333.87 L 242.93,334.16 L 242.86,334.64 L 242.73,335.25 L 242.70,335.51 L 242.69,335.79 L 242.71,336.57 L 242.75,337.09 L 242.74,337.38 L 242.58,338.16 L 242.40,338.76 L 242.24,339.24 L 242.13,339.80 L 242.05,340.39 L 242.01,341.19 L 242.00,341.58 L 241.93,341.88 L 241.86,342.13 L 241.71,342.67 L 241.48,343.14 L 241.35,343.75 L 241.23,344.41 L 241.12,345.12 L 241.00,346.36 L 241.05,346.99 L 241.23,347.53 L 241.67,348.39 L 241.77,348.98 L 241.74,349.18 L 241.64,349.62 L 241.33,350.88 L 241.33,351.17 L 241.33,351.99 L 241.37,352.58 L 241.34,353.14 L 241.32,353.73 L 241.30,354.81 L 241.23,356.47 L 241.16,357.06 L 241.22,358.03 L 241.29,359.61 L 241.37,360.10 L 241.52,360.56 L 241.72,361.32 L 242.02,362.14 L 242.20,362.60 L 242.48,363.07 L 243.04,363.98 L 243.31,364.35 L 243.48,364.72 L 243.62,365.31 L 243.81,365.94 L 244.06,366.91 L 244.37,367.79 L 244.53,368.14 L 244.71,368.42 L 245.14,368.88 L 245.60,369.17 L 246.08,369.48 L 246.58,369.79 L 247.20,370.39 L 247.37,370.64 L 247.49,370.85 L 247.53,371.06 L 247.56,371.25 L 247.59,371.60 L 247.58,371.83 L 247.53,372.03 L 247.45,372.31 L 247.29,372.54 L 247.20,372.88 L 247.20,373.11 L 246.94,373.28 L 246.59,373.36 L 245.11,373.73 L 244.19,374.02 L 243.08,374.23 L 241.41,374.58 L 238.45,375.18 L 236.76,375.44 L 235.36,375.69 L 234.56,375.63 L 232.87,375.57 L 232.16,375.45 L 231.14,375.41 L 230.64,375.38 L 229.00,375.20 L 228.49,375.18 L 227.32,375.11 L 226.70,375.11 L 226.30,375.18 L 225.68,375.41 L 225.29,375.48 L 225.00,375.47 L 224.67,375.42 L 223.58,375.35 L 222.94,375.21 L 221.92,375.00 L 221.30,374.82 L 220.70,374.76 L 220.11,374.70 L 219.43,374.62 L 218.80,374.61 L 218.25,374.46 L 217.94,374.31 L 217.69,374.09 L 217.63,374.09 L 216.83,374.06 L 216.20,373.97 L 214.99,373.87 L 214.42,373.79 L 213.70,373.71 L 212.61,373.52 L 211.35,373.36 L 210.11,373.24 L 209.27,373.23 L 208.74,373.21 L 206.92,373.17 L 206.20,373.13 L 205.07,373.18 L 204.47,373.15 L 203.91,373.10 L 202.46,373.12 L 201.62,373.16 L 200.07,373.17 L 199.48,373.09 L 198.98,373.10 L 197.73,373.07 L 197.20,373.13 L 196.61,373.08 L 194.93,373.06 L 194.27,373.11 L 192.30,373.08 L 191.64,373.03 L 190.83,372.99 L 190.20,373.06 L 189.42,373.04 L 187.28,373.04 L 186.79,373.01 L 185.42,373.03 L 184.21,373.02 L 183.48,373.04 L 183.24,373.06 L 183.23,373.08 L 182.77,373.88 L 182.39,374.58 L 182.13,375.07 L 181.70,375.70 L 181.51,375.58 L 181.14,375.39 L 180.61,375.19 L 179.35,374.47 L 177.17,373.41 L 176.15,372.98 L 173.93,371.97 L 172.89,371.50 L 172.53,371.34 L 172.15,371.23 L 172.02,371.16 L 171.72,371.00 L 171.28,370.70 L 170.38,370.11 L 169.84,369.73 L 169.00,369.15 L 167.78,368.38 L 166.56,367.75 L 165.09,366.90 L 164.27,366.39 L 163.62,365.88 L 162.48,364.87 L 161.87,364.32 L 160.69,363.32 L 159.95,362.71 L 159.12,361.93 L 158.67,361.47 L 157.66,360.59 L 156.68,359.90 L 156.12,359.57 L 155.95,359.47 L 155.78,359.38 L 154.71,358.60 L 153.60,357.09 L 153.33,356.72 L 152.73,355.73 L 152.42,355.38 L 151.51,355.48 L 150.99,355.52 L 149.28,355.79 L 147.39,355.84 L 145.10,356.02 L 143.07,355.92 L 140.65,355.97 L 138.32,356.10 L 136.15,356.16 L 133.86,356.30 L 131.57,356.45 L 129.04,356.48 L 126.37,356.51 L 123.97,356.51 L 121.72,356.31 L 119.32,356.42 L 117.02,356.48 L 114.54,356.68 L 112.23,356.76 L 111.50,356.92 L 109.72,356.94 L 107.56,357.06 L 104.90,357.05 L 103.94,357.10 L 102.34,357.13 L 100.24,357.08 L 99.36,357.09 L 97.84,357.12 L 97.00,357.11 L 95.30,357.05 L 94.65,357.10 L 93.62,357.08 L 92.99,357.04 L 93.01,357.23 L 92.96,358.82 L 93.01,360.42 L 93.07,362.05 L 93.13,363.70 L 93.11,365.08 L 93.20,366.53 L 93.29,366.86 L 93.42,368.04 L 93.44,368.32 L 93.55,369.59 L 93.80,370.96 L 93.72,372.40 L 93.50,373.94 L 93.43,375.65 L 93.35,377.23 L 93.31,377.93 L 93.33,378.94 L 93.25,378.94 L 91.17,379.01 L 90.38,379.12 L 88.97,379.07 L 86.58,379.14 L 83.84,379.16 L 82.52,379.17 L 81.42,379.29 L 78.80,379.32 L 76.40,379.44 L 74.21,379.70 L 73.18,379.84 L 71.32,380.02 L 68.45,380.95 L 65.98,381.77 L 63.26,382.78 L 60.72,383.65 L 58.53,384.27 L 56.02,385.13 L 55.14,385.53 L 53.66,385.99 L 52.95,386.35 L 52.12,386.90 L 51.32,387.20 L 50.92,387.33 L 50.37,387.57 L 49.72,387.80 L 48.80,388.08 L 47.41,388.56 L 47.44,389.39 L 47.06,391.72 L 46.16,393.45 L 45.31,394.84 L 45.09,395.35 L 44.67,396.37 L 44.52,396.56 L 44.12,398.13 L 43.88,399.87 L 43.70,401.48 L 43.50,402.30 L 43.52,403.46 L 44.00,404.78 L 44.21,406.18 L 43.90,407.54 L 43.79,407.95 L 43.17,408.85 L 42.87,409.33 L 42.15,410.54 L 42.01,410.75 L 41.65,411.04 L 41.23,411.75 L 40.58,412.84 L 39.22,413.90 L 38.42,414.93 L 36.61,416.99 L 35.83,418.34 L 35.57,418.63 L 35.29,419.29 L 35.24,420.01 L 35.27,420.65 L 35.32,421.30 L 35.40,421.96 L 35.50,422.65 L 35.62,423.26 L 35.74,423.90 L 35.83,424.56 L 35.92,425.16 L 36.05,425.81 L 36.19,426.30 L 36.23,426.91 L 36.50,427.60 L 36.80,428.22 L 37.08,428.81 L 37.15,429.02 L 37.41,429.45 L 37.58,430.12 L 37.87,430.78 L 38.14,431.27 L 38.28,431.50 L 38.55,432.01 L 38.89,432.60 L 39.02,433.17 L 39.35,434.25 L 39.58,434.70 L 39.86,435.94 L 39.56,437.86 L 38.14,439.80 L 36.84,440.93 L 35.78,441.97 L 34.30,443.08 L 32.76,444.52 L 31.08,446.33 L 29.83,448.03 L 28.76,449.57 L 27.89,451.13 L 27.46,451.91 L 27.10,452.83 L 26.89,453.50 L 26.65,454.63 L 26.63,455.24 L 26.92,455.64 L 27.83,456.34 L 29.70,457.73 L 31.86,459.14 L 32.40,459.48 L 32.97,459.90 L 34.29,460.68 L 36.14,461.81 L 37.87,462.86 L 38.51,463.15 L 40.11,464.05 L 40.98,464.49 L 42.29,465.34 L 42.94,465.56 L 43.60,466.05 L 44.37,466.61 L 45.40,467.57 L 45.71,468.03 L 46.08,468.64 L 46.52,469.49 L 46.65,469.81 L 46.94,470.71 L 47.09,471.18 L 47.04,471.63 L 46.86,473.26 L 45.61,476.44 L 45.10,477.33 L 43.77,478.69 L 42.86,479.65 L 41.73,480.41 L 41.00,480.78 L 40.58,481.09 L 40.03,481.43 L 38.64,481.91 L 37.24,482.36 L 36.44,482.73 L 35.94,482.87 L 35.41,482.97 L 34.85,483.13 L 32.84,483.77 L 31.89,483.98 L 30.86,484.19 L 29.83,484.35 L 29.51,484.48 L 28.28,484.40 L 26.90,484.55 L 26.34,484.52 L 25.25,484.52 L 23.71,484.52 L 22.22,484.62 L 21.39,484.70 L 20.85,484.85 L 20.19,484.93 L 19.56,485.16 L 18.47,485.57 L 18.06,485.86 L 17.10,486.20 L 16.92,486.26 L 16.78,487.59 L 16.64,489.04 L 16.55,489.66 L 16.55,489.67 L 14.22,496.06 L 13.02,499.87 L 12.91,500.65 L 11.41,503.92 L 10.80,506.07 L 10.14,509.06 L 10.00,512.27 L 10.59,514.89 L 10.68,515.29 L 11.97,517.81 L 12.51,518.98 L 13.96,521.24 L 15.94,522.92 L 18.40,524.28 L 18.83,524.04 L 22.31,525.44 L 25.31,526.52 L 27.38,527.34 L 29.26,527.44 L 29.33,527.44 L 32.40,528.34 L 34.64,529.62 L 36.82,531.38 L 38.65,533.34 L 41.93,537.03 L 43.41,539.49 L 46.98,544.52 L 49.01,546.17 L 52.52,551.31 L 53.60,552.91 L 56.95,556.55 L 58.12,557.71 L 59.30,558.56 L 59.34,558.59 L 62.09,559.99 L 64.62,560.80 L 66.51,560.83 L 68.81,560.57 L 72.00,559.40 L 74.82,558.09 L 78.71,556.46 L 82.77,554.17 L 86.79,552.07 L 88.42,551.21 L 91.94,549.95 L 94.43,549.11 L 94.64,549.04 L 97.63,548.24 L 104.51,545.92 L 107.71,544.94 L 112.87,543.04 L 115.41,542.17 L 117.15,542.12 L 120.16,542.54 L 122.33,542.54 L 122.55,542.54 L 125.25,542.37 L 127.21,542.45 L 133.13,542.51 L 135.77,542.51 L 137.23,542.12 L 140.01,541.78 L 144.43,541.81 L 146.41,541.39 L 150.85,540.61 L 153.26,540.61 L 154.60,540.25 L 155.04,540.16 L 155.99,539.72 L 156.88,538.87 L 157.68,537.77 L 158.40,536.72 L 159.14,535.84 L 159.91,534.82 L 160.62,533.87 L 161.77,532.41 L 162.07,531.97 L 162.31,531.64 L 163.29,530.50 L 164.04,529.61 L 165.23,528.20 L 166.50,526.84 L 167.15,526.09 L 167.18,526.05 L 167.72,525.05 L 167.88,524.74 L 168.69,523.68 L 169.54,522.53 L 170.28,521.71 L 171.01,520.84 L 171.67,520.44 L 172.74,520.00 L 174.17,519.70 L 175.65,519.40 L 176.56,519.30 L 177.58,519.50 L 178.87,519.70 L 180.29,519.90 L 181.41,520.29 L 182.56,520.62 L 183.84,520.87 L 184.40,521.04 L 186.18,521.35 L 187.74,521.66 L 189.24,521.87 L 191.21,522.11 L 192.99,522.40 L 194.41,522.53 L 195.60,522.51 L 196.86,522.43 L 197.42,522.36 L 197.57,522.35 L 199.46,522.22 L 201.38,522.14 L 203.14,522.01 L 204.91,521.87 L 205.54,521.84 L 206.96,521.67 L 207.95,521.51 L 209.86,521.08 L 211.01,520.76 L 212.24,520.39 L 213.15,520.02 L 214.63,519.55 L 215.85,519.13 L 215.82,519.43 L 217.19,519.02 L 218.45,518.70 L 220.12,518.17 L 221.29,517.80 L 223.14,517.32 L 224.52,516.92 L 225.76,516.59 L 226.52,516.48 L 228.09,516.27 L 229.71,516.13 L 230.92,516.03 L 232.02,516.07 L 233.65,516.30 L 235.38,516.52 L 236.47,516.75 L 236.48,516.34 L 236.67,516.39 L 237.11,516.47 L 238.49,516.92 L 239.93,517.42 L 240.94,518.00 L 241.71,518.87 L 242.20,519.58 L 242.81,520.82 L 243.50,521.58 L 243.99,522.41 L 244.29,523.36 L 245.11,525.26 L 245.93,527.17 L 246.65,529.48 L 247.10,530.85 L 247.38,531.68 L 247.93,532.78 L 248.60,533.71 L 249.45,535.28 L 250.20,536.52 L 251.69,539.11 L 252.26,540.07 L 253.24,541.93 L 253.70,543.04 L 254.04,543.72 L 254.58,543.14 L 255.13,542.44 L 255.36,542.12 L 255.74,542.12 L 256.52,542.68 L 257.58,543.63 L 258.22,544.32 L 258.91,545.06 L 259.42,545.73 L 260.15,546.82 L 260.74,547.52 L 261.03,547.82 L 261.48,548.14 L 262.21,548.52 L 263.00,548.71 L 263.42,548.70 L 263.84,548.58 L 264.21,548.35 L 264.68,547.97 L 265.09,547.53 L 265.53,547.01 L 265.88,546.55 L 266.31,546.04 L 266.51,545.79 L 266.80,545.60 L 267.47,545.50 L 267.96,545.49 L 268.29,545.42 L 268.56,545.26 L 268.90,545.09 L 269.17,545.03 L 269.71,544.87 L 270.20,544.70 L 270.54,544.51 L 271.06,544.12 L 271.37,543.80 L 271.78,543.56 L 272.10,543.43 L 272.45,543.38 L 273.12,543.26 L 273.62,543.10 L 273.94,542.89 L 274.27,542.56 L 274.62,542.13 L 274.63,542.12 L 275.07,541.33 L 275.29,540.69 L 275.44,540.15 L 275.39,539.51 L 275.35,539.03 L 275.41,538.33 L 275.49,537.47 L 275.49,536.71 L 275.32,535.42 L 275.36,534.85 L 275.37,534.81 L 275.47,534.54 L 275.76,534.30 L 276.44,533.87 L 276.87,533.56 L 277.18,533.11 L 277.50,532.55 L 277.76,532.11 L 278.07,531.65 L 278.40,531.24 L 278.74,530.73 L 278.88,530.53 L 279.11,529.96 L 279.18,529.80 L 279.51,529.31 L 279.62,529.15 L 279.91,528.52 L 280.17,527.48 L 280.36,526.82 L 280.69,526.11 L 280.83,525.80 L 281.31,525.38 L 282.21,525.09 L 282.23,525.08 L 282.64,524.90 L 281.74,524.20 L 281.07,523.65 L 280.64,523.21 L 280.18,522.77 L 278.91,521.50 L 278.12,520.70 L 277.62,520.25 L 277.22,519.89 L 277.16,519.83 L 277.73,519.16 L 278.56,518.26 L 279.07,517.61 L 279.98,516.66 L 281.28,515.25 L 282.16,514.27 L 282.99,513.38 L 283.96,512.31 L 285.12,511.00 L 285.94,510.10 L 286.63,509.19 L 287.56,508.19 L 288.44,507.30 L 289.23,506.43 L 289.93,505.66 L 290.65,504.83 L 291.04,504.40 L 291.39,504.35 L 291.42,504.32 L 292.39,503.99 L 293.45,503.71 L 294.25,503.62 L 294.98,503.54 L 295.63,503.47 L 297.19,503.33 L 298.48,503.21 L 299.00,503.17 L 300.29,502.95 L 301.13,502.78 L 302.44,502.36 L 303.81,501.98 L 304.91,501.66 L 305.41,501.47 L 306.04,501.16 L 306.77,500.89 L 307.51,500.76 L 308.15,500.68 L 308.80,500.55 L 309.02,500.47 L 309.35,500.15 L 309.79,499.70 L 310.57,499.36 L 311.27,499.12 L 311.80,499.01 L 312.27,498.74 L 312.30,498.71 L 312.88,498.15 L 312.90,498.14 L 313.52,497.72 L 314.40,497.12 L 314.83,496.93 L 315.54,496.85 L 315.94,496.84 L 316.71,496.92 L 316.80,496.55 L 316.91,496.56 L 317.60,496.63 L 317.84,496.68 L 318.00,496.94 L 318.05,497.71 L 318.54,498.79 L 319.01,499.16 L 320.04,500.27 L 320.42,500.78 L 321.14,501.34 L 321.63,501.66 L 322.18,501.97 L 322.34,502.07 L 322.73,502.55 L 322.93,502.75 L 324.58,503.87 L 325.20,504.26 L 325.77,504.71 L 326.71,505.50 L 327.54,506.23 L 329.32,507.81 L 331.64,509.66 L 332.90,510.63 L 334.49,511.78 L 335.07,512.35 L 335.63,512.88 L 336.58,513.49 L 337.50,513.87 L 338.34,514.34 L 339.36,514.98 L 340.28,515.49 L 341.21,516.12 L 341.94,516.55 L 343.34,517.44 L 344.44,518.13 L 344.91,518.16 L 345.00,518.24 L 345.95,518.94 L 346.42,519.36 L 346.84,519.48 L 347.54,519.83 L 348.06,520.09 L 348.51,520.33 L 348.90,520.54 L 349.90,521.14 L 350.40,521.38 L 351.38,521.79 L 352.38,522.24 L 352.98,522.47 L 354.16,522.97 L 355.31,523.42 L 356.50,523.90 L 357.68,524.26 L 358.86,524.66 L 359.80,525.06 L 361.16,525.49 L 362.44,525.90 L 363.62,526.34 L 365.69,526.98 L 367.82,527.61 L 368.78,528.10 L 370.09,528.71 L 371.54,529.17 L 372.75,529.64 L 373.40,529.82 L 374.07,529.98 L 374.75,530.15 L 375.33,530.44 L 375.46,531.57 L 375.57,532.83 L 375.62,534.06 L 375.64,534.27 L 375.66,534.63 L 375.72,535.45 L 375.82,536.95 L 375.86,538.33 L 375.92,539.53 L 376.03,540.38 L 376.08,540.87 L 376.16,541.90 L 376.22,543.50 L 376.31,544.68 L 376.40,545.80 L 376.51,546.81 L 376.63,548.95 L 376.72,550.47 L 376.84,551.84 L 376.96,554.66 L 377.07,556.96 L 377.20,559.03 L 377.19,560.94 L 377.28,562.99 L 377.27,563.82 L 377.31,565.16 L 377.39,567.28 L 377.43,568.92 L 377.52,569.99 L 377.70,571.53 L 377.77,572.56 L 377.87,573.88 L 377.98,575.31 L 377.99,576.18 L 378.03,578.40 L 378.06,579.87 L 378.14,581.11 L 378.36,582.26 L 378.47,582.62 L 378.57,585.45 L 378.63,586.59 L 379.48,586.77 L 380.69,586.90 L 381.86,587.05 L 382.83,587.26 L 383.26,587.39 L 384.51,587.65 L 385.75,587.92 L 387.17,588.27 L 387.79,588.39 L 388.65,588.64 L 390.05,589.02 L 392.53,589.77 L 393.69,590.00 L 394.94,587.74 L 395.07,587.51 L 396.21,585.30 L 396.26,585.20 L 396.93,583.99 L 397.36,583.28 L 397.70,582.77 L 398.66,581.58 L 399.20,580.79 L 399.31,580.63 L 399.66,579.84 L 400.06,578.92 L 400.60,576.85 L 400.88,575.31 L 401.08,574.19 L 401.09,573.05 L 401.12,572.28 L 401.13,572.03 L 401.57,571.77 L 402.24,571.38 L 402.81,570.93 L 403.01,570.78 L 403.00,570.23 L 403.00,570.04 L 402.98,568.80 L 403.02,567.23 L 403.05,566.39 L 403.03,566.07 L 402.98,565.00 L 401.75,565.36 L 400.59,565.62 L 399.39,565.80 L 397.63,566.16 L 397.39,565.52 L 397.05,565.12 L 396.70,564.67 L 396.23,563.45 L 395.95,562.65 L 395.59,561.81 L 395.27,561.03 L 394.95,560.25 L 394.66,559.40 L 394.04,558.06 L 393.54,556.57 L 392.41,553.23 L 391.98,552.09 L 391.34,550.37 L 390.87,549.06 L 390.51,548.17 L 390.29,547.06 L 390.16,546.53 L 389.86,546.12 L 389.66,545.75 L 389.49,545.21 L 389.36,544.15 L 389.00,543.09 L 388.76,542.42 L 388.73,541.83 L 388.77,541.26 L 388.74,540.96 L 388.47,540.31 L 388.35,539.82 L 388.40,539.36 L 388.43,538.72 L 388.37,538.23 L 388.30,537.49 L 388.20,536.71 L 387.96,534.38 L 387.93,534.10 L 387.89,533.79 L 387.66,532.04 L 387.59,531.08 L 387.48,530.20 L 387.27,528.68 L 387.19,527.19 L 387.18,526.96 L 387.04,526.32 L 386.76,525.57 L 386.71,525.14 L 386.74,524.33 L 386.66,523.89 L 386.15,522.39 L 385.94,521.67 L 385.67,520.87 L 385.67,520.84 L 385.66,520.59 L 385.64,520.53 L 385.64,520.52 L 386.19,520.42 L 386.99,520.16 L 388.18,519.71 L 388.79,519.37 L 389.37,518.96 L 391.87,517.34 L 393.59,516.10 L 394.81,515.44 L 396.41,514.43 L 396.76,513.94 L 396.87,513.90 L 396.92,513.89 L 397.24,513.75 L 397.80,513.43 L 398.58,513.08 L 399.20,512.79 L 399.66,512.62 L 399.86,512.64 L 399.88,512.68 L 401.66,512.07 L 402.92,511.53 L 404.18,511.14 L 405.52,510.74 L 406.78,510.36 L 409.80,509.58 L 412.05,509.01 L 413.70,508.49 L 415.60,507.98 L 417.07,507.45 L 419.07,506.75 L 420.34,505.78 L 420.60,505.72 L 420.95,505.74 L 421.38,505.79 L 422.81,506.02 L 424.64,506.27 L 425.59,506.48 L 426.84,506.78 L 428.08,507.01 L 429.56,507.28 L 430.96,507.56 L 432.71,507.83 L 433.67,507.88 L 435.75,507.86 L 438.18,507.92 L 439.56,507.95 L 440.35,507.95 L 442.00,507.97 L 443.96,507.57 L 446.87,506.99 L 448.63,506.66 L 451.46,505.94 L 452.65,505.53 L 453.91,505.10 L 455.07,504.52 L 455.74,504.31 L 456.01,504.28 L 458.51,504.09 L 459.46,503.99 L 460.02,503.99 L 461.50,503.75 L 462.92,503.64 L 464.69,503.65 L 464.90,503.65 L 464.81,501.96 L 464.84,499.47 L 464.82,496.90 L 464.13,493.09 L 463.71,490.59 L 463.69,489.76 L 463.68,489.39 L 463.80,489.40 L 465.60,489.47 L 465.87,489.49 L 466.94,489.45 L 467.61,489.30 L 467.76,489.26 L 468.24,489.06 L 468.35,489.05 L 468.57,489.00 L 468.77,488.94 L 469.08,488.74 L 469.78,488.29 L 469.84,488.47 L 470.17,488.22 L 470.51,488.01 L 470.85,487.82 L 471.24,487.57 L 471.57,487.39 L 471.89,487.23 L 472.33,487.05 L 472.64,486.91 L 472.91,486.80 L 473.07,486.74 L 473.53,486.61 L 473.95,486.55 L 474.67,486.47 L 475.82,486.39 L 476.65,486.27 L 477.69,486.00 L 478.42,485.83 L 479.73,485.62 L 480.85,485.47 L 481.85,485.38 L 482.80,485.40 L 484.39,485.45 L 484.58,485.45 L 484.58,485.47 L 484.39,485.71 L 484.41,486.58 L 484.44,487.25 L 484.45,488.57 L 484.45,488.61 L 484.45,489.00 L 484.46,489.28 L 484.66,489.62 L 484.71,489.79 L 484.83,490.33 L 484.86,490.95 L 484.93,492.05 L 484.89,492.78 L 484.98,493.26 L 485.07,493.79 L 485.08,494.69 L 485.19,495.16 L 485.76,495.28 L 486.98,495.46 L 487.48,495.63 L 488.18,495.79 L 488.74,495.81 L 489.77,496.11 L 490.87,496.38 L 491.66,496.37 L 493.03,497.65 L 491.32,501.37 L 491.19,501.80 L 491.85,504.07 L 492.94,508.12 L 493.43,510.05 L 497.09,509.34 L 499.75,508.93 L 501.30,509.95 L 505.48,509.27 L 508.04,508.95 L 511.21,508.49 L 512.62,508.34 L 515.27,505.97 L 518.09,508.85 L 519.32,509.95 L 521.69,509.80 L 521.96,509.84 L 522.62,513.29 L 523.12,515.85 L 523.62,518.51 L 524.33,522.84 L 525.17,527.50 L 525.89,531.70 L 526.55,536.31 L 527.18,539.82 L 527.45,541.93 L 527.79,544.71 L 534.63,544.84 L 536.28,544.75 L 537.78,544.45 L 538.31,544.57 L 539.23,545.40 L 539.54,546.11 L 541.28,545.65 L 542.88,545.39 L 545.30,545.49 L 548.30,545.69 L 552.47,546.05 L 555.18,546.30 L 560.44,546.81 L 562.07,546.99 L 566.31,547.10 L 569.38,547.15 L 574.04,547.26 L 576.69,547.31 L 583.11,547.66 L 583.15,547.66 L 583.29,547.34 L 584.03,545.31 L 584.80,543.62 L 585.18,542.01 L 585.10,541.12 L 584.75,539.93 L 584.50,539.45 L 583.89,538.73 L 583.06,537.82 L 581.93,536.61 L 580.61,534.89 L 579.85,533.65 L 579.18,532.64 L 578.54,532.03 L 577.66,531.47 L 576.81,531.13 L 576.18,530.69 L 575.80,530.07 L 575.60,529.38 L 575.76,528.84 L 576.03,528.52 L 576.97,527.73 L 578.06,526.75 L 578.70,526.19 L 580.86,526.00 L 583.64,525.46 L 587.14,524.85 L 590.74,524.24 L 594.84,523.54 L 598.62,522.95 L 601.48,522.19 L 604.47,520.95 L 607.47,519.70 L 610.45,518.52 L 613.34,518.36 L 613.64,518.35 L 617.46,518.29 L 620.04,518.06 L 620.20,518.07 L 620.51,520.32 L 620.78,523.02 L 621.14,526.21 L 621.45,528.09 L 622.51,531.81 L 624.20,536.37 L 625.14,539.23 L 626.19,539.64 L 627.43,543.64 L 627.46,543.74 L 628.74,548.30 L 630.25,552.61 L 631.77,556.89 L 632.24,558.35 L 632.06,561.85 L 631.95,566.34 L 631.85,570.82 L 631.87,571.65 L 631.88,571.87 L 633.48,572.22 L 635.08,572.29 L 637.00,571.73 L 638.68,571.68 L 644.30,571.80 L 648.85,572.06 L 648.92,572.62 L 651.08,572.57 L 651.29,572.58 L 651.29,572.21 L 651.48,572.22 L 651.48,572.07 L 656.36,571.85 L 656.41,572.19 L 659.52,571.99 L 662.91,571.84 L 668.32,571.70 L 670.95,571.58 L 671.04,571.23 L 671.13,571.22 L 671.60,569.38 L 672.15,566.20 L 672.76,563.49 L 673.15,561.34 L 673.55,559.21 L 674.88,556.48 L 676.28,553.87 L 676.34,553.73 L 676.47,553.50 L 677.36,551.59 L 679.48,547.90 L 679.59,547.68 L 679.67,547.54 L 680.51,545.77 L 681.75,543.18 L 683.87,538.55 L 686.01,534.02 L 688.20,529.41 L 688.97,527.92 L 690.48,527.04 L 694.74,525.24 L 697.75,524.07 L 701.00,523.30 L 703.49,522.71 L 705.78,522.61 L 709.67,522.96 L 709.62,522.58 L 709.86,522.60 L 709.60,520.53 L 709.16,517.64 L 708.50,513.76 L 708.13,512.07 L 707.40,508.69 L 707.03,506.68 L 706.26,503.06 L 706.04,501.08 L 705.52,496.89 L 705.74,495.37 L 701.99,494.85 L 698.13,494.18 L 691.62,493.17 L 690.23,492.96 L 687.88,492.61 L 683.65,492.48 L 682.14,492.44 L 676.77,492.35 L 674.12,492.21 L 670.70,491.91 L 666.77,491.20 L 666.11,491.09 L 661.84,490.30 L 658.17,489.62 L 652.47,488.65 L 650.27,488.18 L 644.50,486.95 L 645.45,482.80 L 646.22,479.45 L 646.39,476.89 L 646.69,474.82 L 647.35,471.04 L 647.76,468.44 L 649.00,463.85 L 649.96,459.69 L 650.69,456.84 L 651.26,455.16 L 652.27,455.69 L 652.22,455.21 L 652.46,455.34 L 652.34,454.17 L 652.61,452.26 L 653.05,449.73 L 653.56,446.23 L 654.11,442.96 L 654.74,439.01 L 654.74,438.35 L 654.04,436.66 L 653.31,434.33 L 653.31,434.31 L 653.32,434.06 L 653.42,432.04 L 653.49,428.90 L 653.67,425.49 L 653.75,423.44 L 653.68,422.96 L 654.23,418.09 L 654.45,416.37 L 654.86,412.66 L 654.96,411.58 L 655.33,408.19 L 653.16,408.29 L 650.41,408.43 L 647.05,407.90 L 644.40,407.39 L 640.91,406.79 L 639.07,406.97 L 635.94,407.02 L 633.12,407.30 L 631.17,407.01 L 626.87,407.56 L 623.63,407.81 L 622.31,407.97 L 618.55,409.34 L 614.69,410.30 L 613.85,410.53 L 612.08,410.73 L 609.21,410.95 L 607.70,410.77 L 606.68,411.06 L 604.71,411.44 L 604.06,411.57 L 604.01,410.78 L 604.09,409.10 L 603.85,406.90 L 603.72,406.14 L 603.76,405.47 L 603.99,404.23 L 604.66,402.84 L 605.01,401.91 L 604.97,400.88 L 604.73,400.03 L 604.04,398.85 L 603.94,398.28 L 603.87,397.32 L 604.01,396.41 L 603.82,395.15 L 603.76,394.67 L 603.92,394.25 L 604.36,393.61 L 604.42,393.44 L 604.55,393.26 L 604.78,392.63 L 604.82,392.08 L 604.45,391.64 L 604.05,391.27 L 603.93,391.04 L 603.93,390.80 L 604.24,390.28 L 604.27,390.20 L 604.43,389.93 L 604.60,389.37 L 604.64,388.26 L 604.45,387.33 L 604.14,386.54 L 604.05,385.33 L 604.23,383.61 L 604.29,382.64 L 602.16,382.45 L 600.96,382.40 L 601.08,381.96 L 601.20,381.49 L 601.11,379.33 L 601.00,377.09 L 601.00,376.43 L 600.88,373.74 L 600.80,371.03 L 600.73,368.32 L 600.65,365.62 L 600.62,363.37 L 600.61,362.92 L 601.50,362.33 L 603.42,361.08 L 604.00,360.82 L 605.77,360.66 L 608.91,360.36 L 612.98,360.40 L 617.08,359.85 L 619.17,359.58 L 621.06,358.89 L 623.37,358.21 L 625.73,357.82 L 626.04,357.85 L 626.98,357.59 L 628.89,356.64 L 631.22,355.33 L 634.26,353.64 L 636.66,352.57 L 640.01,351.12 L 641.76,350.15 L 645.25,348.10 L 647.76,346.99 L 650.95,345.49 L 652.64,344.07 L 655.19,341.77 L 656.90,340.35 L 658.83,338.58 L 660.36,337.11 L 660.37,337.08 L 660.41,336.88 L 660.55,336.75 L 660.56,336.72 L 660.70,336.08 L 660.38,334.06 L 660.19,333.08 L 660.09,331.91 L 660.02,331.19 L 659.59,328.80 L 657.36,328.72 L 655.44,328.63 L 651.42,328.60 L 647.42,328.49 L 643.47,328.39 L 643.00,328.44 L 641.44,329.16 L 639.95,329.78 L 638.57,329.80 L 636.09,330.03 L 634.34,330.11 L 631.82,330.46 L 630.32,330.71 L 627.57,331.03 L 626.20,331.34 L 624.03,332.00 L 621.70,332.72 L 620.82,332.98 L 620.11,331.06 L 619.72,329.79 L 618.87,327.27 L 618.05,324.77 L 617.70,323.42 L 617.63,322.66 L 617.56,322.09 L 617.94,320.76 L 618.33,319.42 L 618.51,317.39 L 619.07,314.96 L 619.82,312.15 L 620.61,309.56 L 621.91,306.11 L 622.85,305.88 L 625.46,306.00 L 627.82,305.40 L 631.09,305.02 L 634.69,304.91 L 639.52,304.40 L 641.73,303.98 L 646.07,302.91 L 647.59,302.35 L 648.04,301.96 L 648.13,301.38 L 648.15,301.32 L 648.64,298.81 L 649.39,297.48 L 649.58,296.90 L 649.50,296.30 L 649.23,295.52 L 649.01,295.16 L 648.74,294.15 L 648.66,293.61 L 648.05,290.31 L 647.28,286.89 L 647.16,285.24 L 646.69,282.08 L 646.12,280.72 L 645.61,278.48 L 644.93,274.33 L 644.04,274.21 L 643.91,273.64 L 643.58,272.88 L 636.22,271.69 L 632.03,271.22 L 624.83,270.12 L 621.95,269.37 L 617.89,268.38 L 615.14,267.42 L 614.39,266.78 L 614.02,266.04 L 613.61,264.27 L 613.46,263.71 L 613.64,261.91 L 613.87,260.34 L 614.01,258.67 L 613.88,257.86 L 613.46,256.88 L 613.07,255.46 L 612.92,254.60 L 612.55,252.91 L 612.27,250.53 L 611.88,249.09 L 611.13,246.83 L 610.69,245.66 L 609.63,243.84 L 608.92,242.37 L 608.87,242.30 L 608.82,242.23 L 608.36,240.19 L 607.82,238.64 L 607.23,237.99 L 607.13,237.99 L 606.99,237.50 L 606.43,235.60 L 603.88,235.86 L 603.87,225.63 L 603.25,225.70 L 603.31,223.28 L 602.54,223.26 L 602.68,221.04 L 602.68,219.59 L 602.78,218.05 L 602.10,218.06 L 602.47,211.09 L 602.21,205.28 L 602.04,203.15 L 601.79,199.37 L 601.37,197.41 L 601.19,194.00 L 601.42,192.39 L 601.51,192.81 L 601.79,194.32 L 603.66,193.43 L 604.65,193.09 L 606.15,192.77 L 607.78,192.66 L 608.73,192.55 L 609.98,192.80 L 611.20,193.34 L 612.43,193.70 L 613.13,193.73 L 614.76,193.55 L 615.57,193.55 L 617.06,193.76 L 618.10,194.14 L 618.84,194.31 L 619.63,194.49 L 621.87,195.31 L 622.57,195.49 L 625.18,196.47 L 626.00,196.76 L 626.20,196.82 L 626.54,196.84 L 626.86,196.72 L 628.10,196.27 L 629.24,195.82 L 630.55,195.53 L 631.38,195.43 L 632.82,195.26 L 636.45,195.06 L 639.39,194.73 L 640.51,194.68 L 643.16,194.53 L 645.75,194.58 L 647.45,194.50 L 649.75,194.32 L 651.44,194.30 L 653.38,194.01 L 655.18,193.48 L 656.62,193.12 L 658.00,192.78 L 658.26,192.67 L 659.81,192.01 L 660.25,191.99 L 661.42,191.91 L 663.55,191.78 L 663.83,191.46 L 664.96,189.94 L 666.11,188.46 L 666.95,187.29 L 668.41,187.46 L 668.56,187.14 L 668.99,185.91 L 671.18,186.27 L 672.99,186.55 L 674.56,186.73 L 676.49,186.92 L 678.11,187.20 L 679.33,187.41 L 681.30,187.83 L 682.28,188.02 L 682.59,188.06 L 682.62,188.06 L 682.65,187.55 L 682.93,186.49 L 683.17,185.55 L 683.45,184.81 L 684.21,184.71 L 686.00,184.67 L 688.13,184.48 L 689.69,184.25 L 692.03,184.07 L 693.72,184.11 L 695.57,184.08 L 697.79,184.06 L 699.45,184.09 L 701.99,184.06 L 705.08,184.05 L 706.46,184.07 L 709.32,184.06 L 711.17,184.01 L 713.23,183.99 L 715.05,183.99 L 716.76,183.97 L 718.48,184.00 L 719.91,183.95 L 719.88,183.75 L 719.79,183.31 L 719.66,182.47 L 719.65,182.43 L 719.35,180.76 L 719.38,180.58 L 719.53,180.37 L 719.98,180.01 L 720.61,179.39 L 720.97,178.70 L 721.24,178.09 L 721.23,177.40 L 721.16,176.92 L 721.05,176.51 L 720.91,176.23 L 720.89,176.11 L 720.91,175.81 L 721.56,174.39 L 723.41,169.87 L 723.96,168.50 L 724.95,166.06 L 725.54,164.51 L 726.45,162.31 L 726.90,161.15 L 727.21,160.37 L 727.67,159.27 L 728.16,157.92 L 728.71,156.65 L 729.00,155.75 L 729.03,155.65 L 729.43,154.33 L 729.53,153.77 L 729.98,151.21 L 730.65,148.35 L 731.15,146.37 L 731.71,143.63 L 731.30,142.38 L 730.77,140.62 L 730.18,138.32 L 730.03,137.30 L 730.03,136.25 L 730.04,135.87 L 730.15,135.64 L 730.32,135.53 L 730.52,135.50 L 731.14,135.48 L 731.29,135.47 L 731.39,135.42 L 731.49,135.28 L 731.57,135.10 L 731.60,134.78 L 731.68,134.38 L 731.77,133.93 L 731.82,132.91 L 731.82,132.34 L 732.18,131.08 L 732.22,130.66 L 732.16,130.65 L 726.53,130.09 L 717.94,128.57 L 715.78,128.15 L 712.82,126.73 L 712.01,126.11 L 710.75,124.99 L 706.40,121.06 L 701.74,116.66 L 701.06,116.14 L 699.31,114.79 L 699.31,114.79 L 699.30,114.79 L 698.59,114.72 L 698.58,114.72 L 694.28,113.83 L 691.70,113.62 L 690.51,113.58 L 687.69,113.13 L 685.31,112.54 L 678.53,111.29 L 673.17,110.05 L 671.55,110.05 L 667.05,109.51 L 667.59,108.68 L 667.89,108.02 L 668.17,107.22 L 668.51,105.73 L 668.47,104.87 L 668.20,103.24 L 667.93,101.43 L 667.58,99.08 L 667.32,97.10 L 667.32,97.01 L 667.20,94.35 L 667.09,89.82 L 667.17,86.57 L 667.20,85.77 L 667.47,84.91 L 667.54,84.33 L 667.56,84.25 L 667.36,83.01 L 666.43,79.20 L 666.17,76.80 L 665.67,74.63 L 663.74,75.00 L 661.47,75.52 L 659.80,75.93 L 658.86,76.23 L 656.96,76.87 L 656.15,77.04 L 655.08,76.99 L 652.55,76.58 L 649.90,76.08 L 648.00,75.90 L 646.91,75.52 L 645.23,75.12 L 645.18,73.89 L 644.41,73.76 L 642.11,73.16 L 641.66,71.50 L 641.58,70.56 L 640.83,70.99 L 639.58,68.01 L 637.68,64.31 L 637.18,62.87 L 636.30,61.33 L 635.76,59.80 L 635.19,60.61 L 634.72,61.05 L 633.88,61.37 L 632.68,61.58 L 631.35,61.63 L 629.59,61.70 L 628.46,61.89 L 627.36,61.87 L 626.37,62.00 L 625.24,62.25 L 624.19,62.34 L 623.59,62.28 L 622.23,61.76 L 621.18,61.70 L 620.56,61.89 L 619.43,62.47 L 617.14,63.70 L 615.39,64.46 L 613.62,65.38 L 612.57,65.66 L 611.58,65.32 L 609.36,64.90 L 607.50,64.63 L 605.32,64.45 L 603.88,64.19 L 601.99,63.77 L 599.78,63.54 L 597.03,63.16 L 594.79,62.67 L 592.67,62.06 L 591.43,61.69 L 589.77,61.34 L 589.13,61.04 L 588.99,60.47 L 588.74,59.96 L 588.32,58.65 L 588.08,58.40 L 587.82,58.33 L 587.33,58.33 L 586.64,58.42 L 585.99,58.30 L 584.85,57.20 L 583.97,56.32 L 583.03,55.36 L 581.85,53.86 L 581.29,52.63 L 580.51,50.58 L 579.59,48.60 L 578.99,46.84 L 578.60,45.38 L 578.39,44.81 L 577.95,43.99 L 578.10,43.44 L 578.51,42.62 L 578.92,41.79 L 579.46,39.14 L 580.33,36.12 L 578.80,35.40 L 577.71,34.92 L 574.52,33.54 L 572.41,32.64 L 569.95,31.38 L 567.99,30.42 L 566.75,29.83 L 565.82,29.35 L 565.56,29.02 L 565.28,28.63 L 564.96,27.93 L 564.62,27.24 L 564.48,26.94 L 564.35,26.69 L 564.44,25.52 L 564.25,24.97 L 564.11,24.77 L 563.53,24.32 L 561.68,22.43 L 559.78,20.38 L 557.66,19.13 L 556.18,18.26 Z" fill="#1d3672" stroke="#333" stroke-width="1"/>
<path d="M 379.29,36.16 L 380.38,35.64 L 382.16,34.68 L 383.21,34.22 L 384.23,33.64 L 384.63,32.91 L 385.14,31.79 L 385.87,30.02 L 386.56,28.32 L 387.23,26.72 L 387.98,25.01 L 388.53,23.65 L 389.33,21.78 L 390.05,20.20 L 390.75,18.54 L 391.14,17.72 L 391.63,16.63 L 392.17,15.34 L 391.09,15.15 L 389.87,14.51 L 388.79,13.84 L 387.27,12.95 L 385.59,12.59 L 384.28,12.51 L 381.01,12.32 L 378.84,12.08 L 376.19,11.84 L 375.91,11.82 L 373.34,11.58 L 371.57,11.45 L 366.97,11.00 L 363.54,10.69 L 357.62,10.19 L 356.75,10.13 L 354.96,10.00 L 354.88,10.79 L 354.84,12.11 L 354.80,13.23 L 354.81,15.28 L 354.90,17.04 L 354.91,19.31 L 354.99,20.99 L 355.09,23.68 L 355.16,25.27 L 355.36,29.29 L 357.32,30.14 L 357.70,30.29 L 359.12,30.78 L 360.61,31.22 L 361.92,31.61 L 363.47,32.12 L 365.28,32.68 L 367.28,33.28 L 368.97,33.73 L 370.89,34.29 L 372.62,34.85 L 375.22,35.66 L 376.97,36.23 L 378.38,36.66 L 379.29,36.16 Z" fill="#1d3672" stroke="#333" stroke-width="1"/>
</svg>