<svg xmlns="http://www.w3.org/2000/svg" width="800" height="600" viewBox="0 0 800 600">
<path d="M 335.89,12.57 L 335.87,10.00 L 334.41,10.63 L 332.87,11.22 L 332.86,11.23 L 331.65,11.67 L 330.63,12.14 L 329.73,12.49 L 328.52,12.96 L 327.14,13.68 L 326.85,13.90 L 326.19,14.42 L 325.27,14.87 L 324.16,15.23 L 324.08,15.26 L 323.39,15.54 L 322.59,15.87 L 320.39,16.54 L 317.01,18.14 L 310.56,20.78 L 303.53,23.26 L 290.41,28.89 L 289.70,29.19 L 275.18,35.77 L 269.57,38.71 L 268.86,39.08 L 263.96,41.65 L 256.19,46.13 L 255.56,46.49 L 254.70,46.82 L 252.65,47.62 L 250.80,48.33 L 245.98,50.16 L 239.47,54.54 L 239.37,54.61 L 235.39,57.55 L 232.72,59.02 L 228.90,61.12 L 225.14,63.47 L 223.93,64.23 L 221.69,65.13 L 219.93,65.58 L 217.99,65.98 L 215.75,67.12 L 212.02,69.18 L 208.57,70.66 L 205.78,71.73 L 204.48,72.18 L 202.14,72.98 L 198.50,73.94 L 195.17,74.85 L 194.28,74.89 L 193.05,74.95 L 190.53,74.95 L 186.35,73.93 L 185.66,73.92 L 182.80,73.88 L 182.41,73.87 L 175.44,74.72 L 171.32,75.62 L 166.90,76.98 L 163.68,78.40 L 160.35,80.67 L 157.65,83.35 L 155.62,85.36 L 154.69,86.38 L 154.27,86.85 L 150.56,90.94 L 146.04,94.75 L 145.65,95.08 L 145.42,95.20 L 143.84,96.06 L 142.62,96.72 L 140.26,97.57 L 137.45,97.97 L 135.53,98.24 L 130.93,97.85 L 125.69,96.76 L 121.51,95.63 L 117.45,94.84 L 110.91,94.28 L 104.78,94.22 L 100.01,94.34 L 90.56,94.80 L 82.25,95.30 L 79.40,95.39 L 76.01,95.48 L 75.31,95.58 L 71.47,96.10 L 62.23,98.08 L 60.96,98.46 L 56.18,99.89 L 50.18,102.72 L 48.18,105.04 L 42.67,110.20 L 38.67,115.07 L 34.51,119.17 L 32.14,121.33 L 32.14,121.67 L 32.63,122.12 L 34.27,123.48 L 34.92,123.99 L 35.05,124.10 L 35.12,124.17 L 35.46,124.30 L 36.10,124.57 L 38.66,124.51 L 39.94,124.77 L 41.56,125.86 L 42.28,126.51 L 42.78,126.96 L 44.01,128.41 L 44.79,129.92 L 45.07,132.26 L 45.29,133.98 L 46.30,137.20 L 46.97,139.33 L 47.97,141.04 L 48.75,141.88 L 49.01,142.01 L 49.75,142.40 L 51.25,142.24 L 53.98,141.62 L 56.38,141.56 L 59.16,141.56 L 62.45,140.62 L 64.68,140.52 L 68.35,140.16 L 72.64,140.16 L 75.04,140.47 L 76.21,141.25 L 76.47,141.49 L 76.99,141.97 L 77.49,143.06 L 77.30,144.64 L 77.19,146.15 L 77.52,148.50 L 78.47,150.52 L 78.59,150.68 L 79.28,151.62 L 79.48,151.88 L 80.12,152.16 L 80.65,152.39 L 82.71,152.60 L 83.22,152.94 L 84.04,153.49 L 84.71,154.37 L 84.60,155.21 L 84.35,155.62 L 84.10,156.03 L 83.49,156.71 L 82.71,156.97 L 80.54,157.45 L 79.09,157.69 L 77.53,158.20 L 76.56,159.02 L 76.21,159.55 L 75.91,161.01 L 75.89,162.90 L 76.23,164.22 L 76.75,165.16 L 77.53,166.90 L 77.54,166.91 L 78.26,167.66 L 78.80,167.73 L 80.03,167.35 L 81.08,166.75 L 82.16,166.55 L 84.05,166.69 L 86.18,166.80 L 86.97,166.93 L 88.50,167.65 L 90.29,168.79 L 91.88,170.17 L 92.27,170.81 L 92.28,170.95 L 92.38,171.81 L 92.07,172.63 L 91.25,173.44 L 90.41,174.09 L 88.93,174.62 L 86.73,174.89 L 82.61,174.62 L 81.08,174.93 L 80.62,175.31 L 79.98,176.12 L 79.70,176.54 L 79.45,177.36 L 79.60,178.36 L 80.37,180.71 L 80.53,181.91 L 80.45,183.86 L 80.35,185.29 L 80.24,186.50 L 80.35,187.58 L 80.65,188.23 L 80.74,188.43 L 81.37,189.00 L 82.77,189.49 L 84.47,189.60 L 85.60,189.78 L 86.73,190.31 L 86.93,190.53 L 87.26,190.90 L 87.38,191.29 L 87.49,191.68 L 87.47,192.44 L 87.31,193.26 L 87.00,194.25 L 84.82,197.05 L 83.77,197.99 L 80.34,199.92 L 75.77,202.56 L 75.03,203.29 L 73.88,204.88 L 72.26,207.32 L 72.01,207.83 L 71.89,208.69 L 72.05,209.31 L 72.48,211.22 L 72.85,212.38 L 73.71,213.92 L 73.74,213.96 L 74.82,215.23 L 76.16,216.85 L 77.78,218.00 L 79.87,218.93 L 83.68,219.67 L 84.47,219.99 L 85.43,220.37 L 86.35,221.47 L 87.27,223.47 L 87.46,224.32 L 87.80,225.80 L 88.02,227.40 L 88.30,228.08 L 89.08,229.93 L 89.09,229.95 L 89.25,230.35 L 90.26,232.75 L 92.79,235.26 L 92.86,235.33 L 93.24,235.63 L 97.69,239.26 L 98.03,239.54 L 101.14,242.05 L 102.98,244.06 L 104.59,246.34 L 106.34,247.20 L 110.48,246.98 L 112.32,247.70 L 115.38,250.20 L 117.99,252.85 L 118.83,254.92 L 120.67,259.36 L 120.88,259.69 L 121.48,261.05 L 122.01,261.86 L 123.40,263.34 L 123.56,263.47 L 124.31,264.40 L 126.53,266.12 L 129.13,267.19 L 129.16,267.23 L 129.33,267.42 L 129.40,267.82 L 129.46,268.12 L 129.54,268.12 L 130.16,268.39 L 130.74,269.06 L 133.58,272.64 L 135.80,273.92 L 135.88,273.94 L 135.95,273.99 L 136.32,274.13 L 137.22,274.24 L 140.00,274.85 L 144.22,275.14 L 149.12,276.36 L 150.17,276.80 L 151.21,277.27 L 151.76,277.48 L 152.00,277.58 L 152.07,277.58 L 153.20,278.05 L 154.06,278.55 L 154.43,278.77 L 157.19,281.84 L 157.56,283.04 L 157.60,283.34 L 157.68,283.44 L 158.03,284.57 L 160.10,287.07 L 161.55,289.36 L 161.90,290.34 L 159.77,291.50 L 158.41,292.01 L 158.65,292.26 L 158.58,292.32 L 159.16,292.79 L 160.32,294.02 L 161.86,296.52 L 162.70,298.81 L 165.15,301.03 L 167.29,302.67 L 167.83,303.63 L 167.98,307.79 L 168.36,308.86 L 169.13,309.87 L 169.66,311.58 L 169.33,315.93 L 169.33,315.93 L 169.13,318.53 L 169.38,318.97 L 169.62,319.39 L 169.81,319.74 L 170.51,320.67 L 170.52,321.89 L 169.96,323.95 L 169.91,324.15 L 169.76,324.72 L 169.49,325.81 L 169.66,327.71 L 169.92,328.80 L 171.43,331.22 L 172.42,332.40 L 172.99,333.16 L 173.50,334.21 L 173.33,335.18 L 172.30,336.44 L 172.25,337.12 L 172.38,337.93 L 172.59,339.14 L 172.56,340.49 L 172.55,340.76 L 171.86,342.10 L 171.52,342.42 L 169.90,343.98 L 169.27,344.60 L 168.88,345.57 L 168.32,349.05 L 167.28,352.20 L 165.64,354.62 L 165.07,356.61 L 164.95,358.02 L 165.42,359.20 L 165.42,359.61 L 165.42,360.57 L 165.24,361.01 L 164.99,361.66 L 164.34,366.79 L 164.25,366.81 L 163.29,366.96 L 162.31,366.86 L 161.35,366.61 L 159.89,366.29 L 158.41,366.63 L 157.89,366.89 L 157.26,367.15 L 156.71,367.39 L 155.79,367.78 L 155.60,367.91 L 155.19,368.19 L 154.06,368.68 L 152.89,369.36 L 152.40,369.75 L 150.28,371.45 L 148.96,372.40 L 147.94,373.19 L 145.88,374.29 L 145.51,374.50 L 145.39,374.56 L 144.21,375.20 L 144.07,375.27 L 143.91,375.31 L 141.73,375.89 L 141.17,376.03 L 139.41,376.49 L 138.85,376.64 L 136.81,377.17 L 136.62,377.24 L 136.33,377.34 L 134.99,377.80 L 133.75,378.24 L 133.20,378.43 L 132.75,378.58 L 123.85,382.79 L 121.41,380.99 L 118.92,379.15 L 118.85,379.15 L 117.58,379.07 L 116.89,379.56 L 116.55,379.64 L 115.25,378.67 L 113.69,377.29 L 112.79,376.89 L 112.06,377.29 L 111.71,377.78 L 111.54,378.99 L 111.92,380.49 L 111.75,383.24 L 110.93,384.57 L 110.65,385.14 L 110.33,385.78 L 109.98,386.92 L 109.37,387.56 L 107.78,388.09 L 106.52,387.93 L 105.49,387.56 L 104.71,386.99 L 103.93,386.83 L 103.47,387.33 L 103.02,387.80 L 103.00,387.95 L 102.15,388.91 L 100.52,390.58 L 99.84,390.97 L 99.41,391.14 L 98.51,391.35 L 97.82,391.67 L 96.21,392.76 L 95.60,393.40 L 94.10,395.31 L 93.70,395.65 L 93.40,395.66 L 92.87,395.42 L 92.46,395.04 L 91.89,394.63 L 91.42,394.36 L 90.81,394.11 L 90.22,394.04 L 89.36,394.07 L 88.22,394.00 L 88.07,393.82 L 88.10,393.43 L 88.36,392.70 L 89.80,390.94 L 90.41,389.20 L 90.66,388.23 L 90.32,387.70 L 90.27,387.68 L 89.45,387.18 L 88.50,386.98 L 87.29,387.18 L 85.78,388.51 L 85.08,388.59 L 85.06,388.12 L 84.55,388.17 L 84.41,388.10 L 84.19,387.83 L 84.06,387.62 L 84.01,387.53 L 83.59,386.56 L 83.32,385.57 L 83.32,385.48 L 83.02,384.11 L 82.88,383.91 L 82.86,383.84 L 82.47,382.99 L 82.26,382.73 L 81.94,382.35 L 81.24,382.04 L 81.01,382.12 L 80.64,382.56 L 79.84,383.95 L 79.25,384.45 L 78.62,384.86 L 77.58,385.30 L 76.23,385.42 L 74.58,385.93 L 73.95,386.06 L 73.43,385.93 L 73.10,385.69 L 72.66,384.86 L 72.42,384.25 L 72.46,383.76 L 72.39,383.46 L 72.22,383.13 L 71.93,382.87 L 70.67,381.99 L 69.91,381.14 L 69.55,380.84 L 69.06,380.75 L 68.49,380.77 L 67.78,380.86 L 67.38,380.98 L 66.75,381.27 L 66.36,381.56 L 66.11,381.74 L 65.61,382.19 L 65.02,382.59 L 64.32,382.85 L 63.63,382.92 L 62.94,382.81 L 61.19,382.21 L 60.82,381.80 L 60.07,380.70 L 59.31,379.86 L 58.86,379.76 L 58.75,379.81 L 58.56,379.99 L 58.37,380.34 L 58.34,380.65 L 57.98,381.37 L 58.32,382.09 L 58.34,382.83 L 58.26,383.54 L 58.10,383.93 L 56.68,385.20 L 56.09,385.63 L 55.50,385.77 L 54.43,385.63 L 52.88,385.30 L 52.19,385.24 L 51.46,385.34 L 49.51,385.88 L 48.68,386.18 L 47.82,386.40 L 46.95,386.51 L 46.05,386.56 L 45.17,386.42 L 45.08,386.61 L 45.02,386.96 L 44.55,387.94 L 44.32,388.13 L 43.71,388.47 L 43.34,388.67 L 41.89,389.25 L 40.71,389.83 L 36.87,390.42 L 35.24,390.72 L 30.34,391.77 L 28.48,392.02 L 21.32,394.18 L 20.15,394.86 L 19.17,395.78 L 18.54,396.51 L 18.19,398.17 L 18.17,398.48 L 17.91,399.41 L 17.81,400.70 L 17.78,400.80 L 16.99,401.47 L 16.09,401.90 L 15.43,401.69 L 14.70,401.72 L 13.82,401.83 L 12.75,402.13 L 12.55,402.19 L 10.53,402.08 L 10.63,402.58 L 10.00,402.59 L 10.44,404.94 L 11.56,408.57 L 12.64,410.85 L 13.04,412.91 L 12.98,413.07 L 12.68,413.25 L 12.24,414.39 L 11.99,415.41 L 11.75,416.39 L 11.99,416.58 L 12.30,416.83 L 12.71,416.86 L 12.73,416.86 L 14.38,417.63 L 14.89,417.88 L 18.61,418.97 L 19.99,419.81 L 20.95,420.54 L 21.64,422.00 L 22.77,424.00 L 23.65,425.53 L 26.57,428.87 L 30.46,432.38 L 35.03,436.26 L 37.36,437.71 L 41.84,438.05 L 43.83,437.49 L 43.95,437.48 L 44.50,437.37 L 46.18,437.41 L 47.92,437.80 L 52.26,439.33 L 55.88,439.29 L 58.35,441.90 L 58.70,442.68 L 59.76,445.00 L 60.50,446.65 L 60.51,446.73 L 60.62,447.69 L 60.68,448.18 L 59.86,449.44 L 59.56,451.18 L 59.45,451.83 L 59.76,452.99 L 59.80,453.21 L 60.00,454.00 L 60.06,454.12 L 60.36,455.25 L 61.01,456.08 L 61.07,456.42 L 61.07,457.10 L 60.86,457.55 L 60.59,458.01 L 60.50,458.35 L 60.51,458.72 L 60.27,459.06 L 60.69,459.79 L 61.74,460.17 L 63.16,460.22 L 63.37,461.03 L 63.33,461.15 L 63.27,461.26 L 62.63,462.10 L 62.32,462.43 L 62.09,462.99 L 61.98,463.45 L 62.09,464.13 L 62.29,464.62 L 62.48,464.94 L 62.56,465.57 L 63.16,467.24 L 63.16,469.02 L 63.13,469.15 L 62.96,470.04 L 63.05,470.28 L 63.16,470.41 L 63.16,471.35 L 63.53,471.98 L 63.53,471.99 L 63.69,472.28 L 63.71,472.29 L 64.30,473.32 L 64.74,473.81 L 64.72,474.07 L 64.57,474.42 L 64.53,474.79 L 64.70,474.98 L 64.58,475.20 L 65.53,476.48 L 65.86,476.99 L 65.88,477.09 L 65.85,477.58 L 65.53,478.41 L 65.67,479.07 L 65.64,479.32 L 65.71,479.79 L 65.86,480.00 L 66.18,481.53 L 67.32,484.96 L 67.60,486.84 L 69.37,488.58 L 69.38,488.61 L 69.38,488.64 L 69.43,490.99 L 71.44,494.07 L 71.40,495.56 L 70.77,496.51 L 70.42,496.82 L 70.34,497.74 L 70.70,498.69 L 70.80,498.87 L 70.94,499.59 L 72.62,504.89 L 74.68,507.93 L 77.60,507.84 L 77.97,508.61 L 77.83,509.81 L 77.34,510.22 L 77.09,510.43 L 76.59,510.84 L 76.14,511.52 L 76.50,512.51 L 77.78,513.88 L 78.11,515.20 L 78.17,515.81 L 78.18,515.96 L 78.34,517.64 L 78.46,518.65 L 78.48,518.77 L 77.50,520.72 L 77.47,520.78 L 77.61,521.85 L 79.11,521.94 L 80.29,521.26 L 80.30,521.25 L 80.62,521.51 L 80.60,521.98 L 80.53,523.47 L 81.77,526.64 L 83.37,528.56 L 85.01,532.22 L 85.38,536.46 L 85.49,537.29 L 85.80,539.63 L 86.85,543.66 L 87.76,545.41 L 88.04,549.13 L 87.89,551.35 L 87.55,551.34 L 87.89,551.35 L 87.85,551.99 L 88.16,557.18 L 91.29,560.92 L 90.96,561.00 L 91.29,560.92 L 91.31,560.94 L 93.14,563.76 L 93.41,564.62 L 93.92,565.18 L 95.19,565.98 L 99.99,568.98 L 101.73,570.57 L 104.38,573.82 L 104.71,574.41 L 104.40,574.40 L 104.71,574.41 L 105.12,575.15 L 107.58,578.40 L 108.50,580.24 L 108.68,580.97 L 109.34,582.51 L 109.32,582.54 L 109.34,582.51 L 110.09,584.30 L 112.82,589.23 L 113.78,588.58 L 114.83,590.00 L 115.28,589.78 L 115.38,589.74 L 118.62,588.27 L 124.51,587.03 L 124.56,587.22 L 125.91,587.05 L 126.11,587.69 L 126.21,587.70 L 126.27,588.01 L 128.05,587.89 L 128.54,587.94 L 128.55,589.02 L 129.20,588.93 L 129.22,589.02 L 129.28,588.92 L 129.84,588.85 L 129.87,588.81 L 129.84,588.33 L 129.99,587.81 L 130.52,587.46 L 130.78,587.17 L 130.59,586.60 L 131.23,584.82 L 131.31,584.77 L 133.15,584.49 L 134.00,584.75 L 135.87,585.09 L 136.61,584.96 L 137.74,584.75 L 140.12,580.59 L 141.31,579.35 L 141.67,578.84 L 141.99,578.39 L 142.40,577.38 L 142.46,577.05 L 142.17,576.98 L 141.06,576.77 L 136.79,576.48 L 133.41,576.16 L 132.90,574.95 L 132.07,573.19 L 131.54,572.19 L 131.49,572.00 L 130.71,568.62 L 136.46,568.32 L 136.47,567.98 L 136.67,567.97 L 136.64,570.68 L 141.56,570.87 L 142.82,570.80 L 142.72,571.23 L 143.33,570.62 L 144.69,569.23 L 144.78,569.13 L 148.21,569.39 L 148.94,572.17 L 150.04,580.00 L 155.75,578.25 L 160.75,576.23 L 161.49,575.94 L 166.44,573.51 L 168.48,572.64 L 170.90,573.07 L 172.18,571.92 L 172.62,570.62 L 172.75,570.55 L 175.38,569.65 L 176.42,568.67 L 176.60,568.58 L 177.96,568.02 L 178.73,567.76 L 179.43,567.65 L 184.31,565.76 L 184.95,565.54 L 187.26,564.64 L 188.59,563.98 L 189.26,563.65 L 189.08,562.17 L 188.98,560.37 L 188.68,558.87 L 188.71,558.85 L 189.24,558.77 L 188.94,557.26 L 188.68,555.51 L 188.11,553.18 L 187.78,551.53 L 189.08,550.95 L 189.42,550.91 L 193.69,553.03 L 198.81,554.53 L 201.21,556.41 L 201.61,557.53 L 204.04,558.72 L 207.10,558.30 L 207.34,558.04 L 208.38,556.89 L 208.52,556.89 L 212.18,557.06 L 212.06,556.12 L 211.62,552.65 L 211.94,550.51 L 212.56,550.46 L 218.49,549.98 L 218.80,549.96 L 219.39,550.39 L 221.04,551.59 L 222.78,553.21 L 222.73,558.13 L 223.37,561.13 L 225.74,564.46 L 227.04,566.48 L 227.45,567.47 L 227.27,568.96 L 228.41,568.97 L 230.83,569.01 L 232.39,568.66 L 236.78,566.65 L 238.04,566.14 L 238.20,566.12 L 239.35,565.84 L 239.23,565.31 L 239.19,565.16 L 240.56,563.95 L 241.23,563.14 L 246.83,562.51 L 247.42,564.09 L 247.52,565.97 L 251.30,565.97 L 251.44,568.59 L 254.44,568.40 L 254.92,568.37 L 254.86,568.03 L 255.76,568.05 L 255.43,565.84 L 255.09,564.50 L 255.61,564.36 L 255.78,561.95 L 256.26,561.87 L 256.28,559.70 L 259.48,558.16 L 259.79,557.54 L 260.70,557.08 L 260.52,556.51 L 259.87,553.85 L 259.31,551.84 L 260.53,551.87 L 260.67,551.44 L 261.15,551.35 L 261.24,550.08 L 261.76,550.00 L 261.33,541.92 L 260.76,541.86 L 259.96,539.57 L 259.24,537.97 L 260.86,535.31 L 260.45,532.43 L 260.05,529.95 L 259.75,528.56 L 263.19,527.68 L 267.30,527.17 L 268.22,528.15 L 268.53,533.41 L 269.63,539.92 L 270.76,546.89 L 273.63,549.42 L 275.89,554.33 L 276.32,555.28 L 277.70,555.28 L 277.95,554.56 L 278.24,553.74 L 278.29,553.73 L 280.85,553.27 L 285.05,553.06 L 286.97,553.06 L 288.02,553.83 L 289.90,553.92 L 292.25,555.46 L 299.47,554.86 L 299.44,553.87 L 299.43,553.75 L 299.41,553.20 L 299.34,551.18 L 299.34,551.10 L 299.28,551.03 L 297.42,548.74 L 297.37,546.57 L 295.83,545.45 L 295.00,544.13 L 293.22,542.26 L 290.48,541.06 L 289.38,539.61 L 288.42,536.57 L 287.93,532.80 L 287.93,531.26 L 288.17,530.48 L 288.25,530.00 L 287.96,528.26 L 287.56,525.06 L 287.97,524.94 L 288.49,524.79 L 289.74,524.55 L 291.02,524.38 L 292.54,524.35 L 295.76,524.44 L 297.43,524.58 L 297.81,526.06 L 298.33,527.14 L 299.79,528.62 L 299.92,528.70 L 300.46,528.63 L 300.54,528.62 L 303.75,528.00 L 304.83,527.86 L 305.66,527.42 L 306.61,527.21 L 307.63,527.05 L 307.76,526.28 L 307.76,526.26 L 307.95,526.23 L 309.15,526.05 L 310.63,525.94 L 311.66,525.81 L 312.78,525.56 L 313.93,525.16 L 314.78,525.00 L 315.21,525.32 L 315.23,525.43 L 315.23,525.44 L 315.33,526.19 L 315.27,526.99 L 315.38,527.52 L 315.64,527.66 L 316.31,527.69 L 316.74,527.88 L 317.09,528.19 L 317.34,528.22 L 317.49,528.20 L 317.86,528.12 L 318.31,528.13 L 318.42,528.20 L 318.52,528.34 L 318.73,529.04 L 319.07,529.24 L 319.20,529.36 L 319.28,529.44 L 319.35,529.61 L 319.37,529.69 L 319.34,529.85 L 319.00,530.10 L 318.65,530.25 L 318.63,530.27 L 318.39,530.60 L 318.32,530.95 L 318.32,531.35 L 318.54,531.58 L 318.74,531.53 L 318.92,531.49 L 319.05,531.42 L 319.50,531.21 L 319.98,530.97 L 320.40,530.95 L 320.59,531.04 L 320.84,531.14 L 322.17,530.72 L 323.42,529.77 L 323.70,529.58 L 325.81,528.08 L 327.38,526.28 L 327.15,525.21 L 327.14,525.15 L 326.76,524.62 L 325.94,523.46 L 325.09,521.77 L 325.61,521.67 L 328.17,521.15 L 328.46,521.09 L 329.89,521.09 L 330.26,521.09 L 330.59,519.13 L 330.89,517.34 L 331.43,514.59 L 331.73,512.23 L 332.26,509.66 L 334.68,510.82 L 336.43,511.49 L 337.09,512.51 L 338.47,514.20 L 339.92,515.44 L 339.60,515.75 L 340.53,515.86 L 341.65,515.73 L 343.27,515.70 L 343.94,515.75 L 345.97,515.91 L 347.03,515.79 L 348.14,515.67 L 349.07,515.57 L 352.17,515.24 L 354.14,514.68 L 354.39,514.61 L 356.93,515.68 L 357.45,516.00 L 358.29,516.52 L 360.27,517.31 L 360.61,517.38 L 361.90,517.65 L 363.34,518.05 L 363.51,518.10 L 363.89,518.21 L 363.99,518.26 L 366.72,519.79 L 367.68,521.08 L 367.74,521.06 L 367.90,521.04 L 374.51,520.38 L 374.14,517.51 L 374.19,517.09 L 374.23,516.82 L 374.32,516.13 L 375.45,516.09 L 375.82,516.08 L 375.92,514.11 L 375.94,513.71 L 379.01,513.54 L 379.00,515.96 L 379.00,516.22 L 379.40,516.29 L 379.66,516.33 L 379.72,521.13 L 378.31,521.57 L 377.74,521.75 L 379.18,522.20 L 381.71,522.99 L 382.28,523.21 L 382.98,523.49 L 383.06,524.21 L 383.10,524.51 L 384.61,524.95 L 386.59,525.58 L 386.61,525.22 L 386.78,522.36 L 386.77,520.84 L 387.28,520.71 L 388.09,520.50 L 388.10,520.15 L 388.15,518.64 L 388.64,518.60 L 390.02,518.47 L 390.26,519.71 L 392.67,519.54 L 392.77,520.17 L 392.97,521.51 L 392.25,521.68 L 392.33,522.25 L 392.49,523.43 L 395.20,523.09 L 394.96,521.29 L 397.25,521.01 L 396.46,517.62 L 396.95,517.55 L 397.91,517.40 L 398.21,518.69 L 398.93,518.47 L 399.23,519.26 L 399.35,519.59 L 400.62,519.31 L 400.44,518.38 L 400.38,518.02 L 401.82,517.84 L 402.25,517.79 L 402.69,515.96 L 402.98,514.21 L 402.14,511.18 L 401.78,507.57 L 401.75,505.58 L 401.71,502.33 L 402.86,502.22 L 403.56,503.61 L 403.73,503.95 L 403.91,504.31 L 405.57,502.99 L 406.11,502.59 L 406.35,502.20 L 407.58,502.24 L 407.66,502.21 L 407.66,501.03 L 407.75,498.46 L 408.59,497.64 L 408.74,497.02 L 408.31,495.91 L 407.54,491.36 L 412.99,488.07 L 412.93,487.29 L 412.57,486.74 L 413.17,486.57 L 416.15,485.33 L 416.59,485.13 L 417.77,484.83 L 419.62,484.83 L 421.83,484.60 L 423.81,484.27 L 426.80,483.88 L 428.83,483.60 L 428.53,483.26 L 428.11,483.04 L 426.62,482.03 L 425.54,480.19 L 425.06,479.68 L 424.05,479.74 L 423.33,479.07 L 423.15,477.00 L 422.37,475.32 L 421.24,472.64 L 414.06,472.47 L 412.39,472.30 L 412.44,470.74 L 411.61,468.50 L 410.53,465.94 L 409.63,464.76 L 409.76,462.97 L 409.34,462.19 L 408.86,461.01 L 408.86,459.56 L 408.56,456.79 L 407.42,452.93 L 407.70,451.97 L 407.00,449.88 L 404.72,443.61 L 398.35,442.67 L 394.96,442.10 L 393.64,442.50 L 390.78,443.39 L 387.96,443.56 L 385.57,444.63 L 382.77,440.53 L 381.58,438.40 L 380.20,434.31 L 379.06,429.78 L 378.40,424.38 L 377.56,419.62 L 377.98,418.51 L 378.93,416.02 L 375.07,408.41 L 375.22,408.38 L 377.12,408.34 L 379.16,408.29 L 381.35,408.15 L 382.57,408.10 L 383.06,406.46 L 383.47,402.61 L 383.60,402.46 L 383.96,399.42 L 386.21,398.55 L 387.35,398.55 L 391.79,397.26 L 392.15,397.20 L 392.19,397.18 L 392.82,396.97 L 394.50,396.48 L 396.51,396.08 L 397.56,395.90 L 398.82,395.74 L 399.94,395.59 L 400.86,395.14 L 401.75,394.66 L 402.02,394.34 L 402.06,394.07 L 402.33,393.69 L 402.72,392.95 L 403.15,392.16 L 402.84,391.65 L 402.73,391.37 L 402.01,390.63 L 401.18,389.52 L 400.61,388.92 L 400.48,388.61 L 400.34,388.10 L 400.53,386.64 L 400.42,385.95 L 400.44,385.90 L 400.03,384.86 L 399.78,384.41 L 398.58,383.01 L 397.94,382.11 L 397.55,381.42 L 397.85,380.62 L 398.46,379.22 L 398.84,378.09 L 398.80,377.23 L 398.52,376.67 L 398.03,375.90 L 397.62,375.37 L 396.83,374.49 L 396.08,373.76 L 394.95,372.80 L 393.78,371.77 L 393.07,371.00 L 392.53,370.18 L 392.17,368.99 L 391.66,368.03 L 391.30,367.49 L 390.85,366.00 L 390.22,364.12 L 389.53,362.66 L 389.31,361.79 L 389.43,361.03 L 390.37,359.71 L 391.06,358.84 L 391.69,357.52 L 391.99,356.07 L 392.50,354.63 L 393.04,351.58 L 393.31,350.48 L 393.54,348.06 L 393.13,346.74 L 393.18,346.15 L 394.08,345.11 L 395.56,343.82 L 397.27,342.70 L 399.22,341.35 L 400.97,340.56 L 402.35,339.77 L 403.65,339.08 L 405.60,339.32 L 407.35,339.54 L 407.92,339.57 L 409.60,339.14 L 410.33,339.29 L 411.17,339.17 L 412.15,339.34 L 413.56,339.48 L 414.20,339.39 L 414.62,339.93 L 415.61,341.13 L 416.21,341.56 L 417.14,342.01 L 417.65,342.17 L 419.04,341.92 L 420.52,341.58 L 421.38,340.94 L 422.37,340.35 L 423.05,339.46 L 423.15,339.44 L 423.39,339.30 L 426.07,339.05 L 428.69,338.97 L 430.31,338.65 L 431.49,338.49 L 433.34,338.35 L 435.02,338.55 L 435.99,338.77 L 436.89,338.96 L 437.52,339.36 L 437.82,339.56 L 437.91,339.05 L 438.48,338.38 L 439.86,337.11 L 441.01,336.44 L 442.03,336.04 L 443.14,335.62 L 444.63,334.98 L 445.26,334.78 L 445.80,334.75 L 446.50,334.84 L 447.49,335.96 L 447.95,337.04 L 449.05,338.35 L 449.80,339.10 L 451.32,340.89 L 452.62,341.84 L 453.88,342.88 L 453.97,343.10 L 454.08,343.36 L 454.26,344.05 L 454.56,345.56 L 454.74,346.52 L 455.16,347.66 L 455.52,348.75 L 455.79,349.22 L 457.77,349.34 L 459.24,349.23 L 460.02,349.28 L 461.06,349.84 L 462.11,350.54 L 463.19,351.02 L 464.42,351.16 L 465.83,351.16 L 465.85,351.18 L 468.12,350.82 L 468.59,352.42 L 468.98,353.88 L 469.49,354.85 L 469.70,355.72 L 469.79,357.02 L 470.09,358.28 L 470.72,359.79 L 472.13,361.65 L 472.15,361.98 L 472.18,362.57 L 472.37,363.68 L 472.22,365.33 L 471.86,365.92 L 470.87,367.18 L 470.69,368.13 L 470.21,369.33 L 470.00,369.78 L 470.21,370.43 L 470.52,371.31 L 470.52,372.06 L 470.10,373.49 L 469.66,374.91 L 469.09,375.75 L 468.28,378.30 L 467.71,379.55 L 467.20,382.32 L 465.89,382.90 L 464.34,383.65 L 461.80,384.60 L 461.65,385.25 L 461.68,386.25 L 459.95,387.68 L 458.66,388.94 L 457.40,390.30 L 456.15,392.07 L 456.27,392.43 L 457.20,394.27 L 457.89,396.92 L 458.81,399.82 L 457.71,399.54 L 455.88,399.10 L 454.74,398.93 L 453.74,398.69 L 452.33,398.66 L 451.20,398.50 L 449.96,398.50 L 448.79,398.42 L 445.12,398.29 L 449.38,406.36 L 449.48,406.71 L 449.73,408.05 L 450.45,408.89 L 451.11,409.52 L 452.74,411.78 L 453.04,413.47 L 453.52,415.83 L 454.13,416.90 L 455.09,418.31 L 456.12,420.56 L 455.94,422.88 L 456.42,424.40 L 456.84,425.47 L 457.21,426.83 L 457.38,427.56 L 458.11,428.69 L 458.65,429.87 L 459.37,431.11 L 459.73,431.96 L 460.33,432.81 L 461.12,433.31 L 461.30,433.20 L 463.35,432.35 L 467.03,430.83 L 466.54,429.41 L 465.88,427.50 L 465.46,424.85 L 464.77,423.17 L 465.04,421.01 L 464.79,417.16 L 464.62,415.70 L 463.52,411.63 L 460.81,410.45 L 456.70,408.55 L 455.50,407.95 L 455.51,407.44 L 455.77,406.22 L 456.61,405.26 L 457.49,405.02 L 458.37,405.23 L 458.90,405.75 L 459.18,406.27 L 459.96,407.26 L 460.55,407.51 L 460.79,407.51 L 461.02,407.53 L 461.21,407.44 L 463.96,407.45 L 467.49,407.47 L 470.65,407.53 L 473.94,407.59 L 474.24,409.84 L 474.55,411.51 L 474.79,412.72 L 475.38,416.10 L 475.36,417.65 L 475.83,418.55 L 476.53,419.73 L 476.80,420.55 L 477.20,422.26 L 477.44,423.47 L 477.70,424.66 L 477.85,425.36 L 477.53,425.93 L 477.17,426.37 L 480.18,425.76 L 481.14,419.22 L 481.62,415.84 L 488.29,415.54 L 489.70,415.28 L 491.26,413.47 L 492.71,411.33 L 493.08,406.35 L 497.58,405.68 L 500.70,405.32 L 502.44,403.33 L 502.70,403.06 L 502.98,402.86 L 503.38,402.55 L 503.96,401.56 L 504.22,400.24 L 504.40,399.32 L 504.51,398.58 L 504.70,397.83 L 504.79,397.31 L 504.29,396.85 L 503.65,396.31 L 502.50,396.10 L 501.23,395.42 L 500.42,394.61 L 499.85,393.87 L 499.28,392.87 L 499.31,391.41 L 499.01,390.91 L 498.11,390.93 L 497.87,390.52 L 497.63,389.93 L 497.54,388.81 L 497.66,388.26 L 497.84,386.99 L 497.60,385.60 L 498.02,384.70 L 498.14,384.16 L 497.75,383.77 L 497.24,383.65 L 496.64,383.26 L 496.67,382.91 L 497.09,381.31 L 497.00,380.27 L 497.06,379.29 L 496.91,378.39 L 496.44,377.84 L 494.18,375.87 L 493.26,374.76 L 493.26,374.31 L 493.23,373.05 L 493.41,372.07 L 493.82,371.30 L 493.92,369.87 L 493.65,369.31 L 493.62,368.86 L 494.31,368.02 L 494.34,367.17 L 493.62,366.61 L 493.71,366.25 L 493.61,365.66 L 493.37,365.40 L 492.60,365.21 L 491.81,364.73 L 491.97,364.39 L 492.17,363.92 L 491.84,363.16 L 491.84,362.78 L 491.31,362.33 L 490.64,361.82 L 490.07,361.60 L 489.57,361.46 L 489.30,361.15 L 489.39,359.91 L 489.41,358.87 L 489.32,357.70 L 488.76,356.50 L 487.71,355.30 L 486.26,354.20 L 485.01,353.25 L 483.99,352.19 L 483.00,350.84 L 482.77,350.54 L 482.58,349.98 L 482.28,347.82 L 482.27,347.76 L 482.39,346.95 L 483.11,346.11 L 483.44,345.41 L 483.98,344.37 L 483.89,343.51 L 483.92,342.72 L 484.22,341.15 L 485.90,340.45 L 486.65,340.09 L 487.01,339.47 L 487.29,338.06 L 487.76,334.27 L 488.51,331.96 L 488.66,331.46 L 491.22,330.11 L 494.84,328.41 L 497.12,327.36 L 498.13,326.81 L 498.82,326.33 L 499.54,325.88 L 500.14,324.30 L 500.28,323.93 L 500.77,323.37 L 500.35,322.78 L 500.16,322.42 L 499.93,321.26 L 499.63,320.53 L 498.87,319.75 L 498.40,319.35 L 498.22,318.57 L 498.30,317.92 L 498.03,317.59 L 496.62,317.30 L 495.51,317.19 L 495.43,317.18 L 495.31,317.15 L 494.33,316.81 L 493.96,316.68 L 491.71,314.76 L 491.30,313.99 L 491.05,312.72 L 490.16,311.15 L 489.43,309.97 L 489.00,309.48 L 488.57,308.99 L 488.16,308.28 L 487.53,306.72 L 486.77,305.09 L 486.77,303.13 L 486.74,302.22 L 486.80,298.76 L 486.42,298.14 L 486.23,297.51 L 485.21,296.81 L 483.45,295.87 L 481.74,294.42 L 481.14,293.11 L 481.07,292.55 L 481.52,291.84 L 481.93,291.15 L 480.32,289.04 L 479.49,288.24 L 478.22,287.38 L 477.31,287.35 L 476.11,286.92 L 475.38,285.48 L 475.06,284.38 L 474.78,282.25 L 474.81,281.57 L 476.08,280.14 L 475.85,279.10 L 474.55,272.97 L 474.40,272.25 L 474.02,270.24 L 472.81,264.66 L 472.47,263.05 L 471.92,261.25 L 471.93,260.13 L 472.43,257.91 L 472.05,256.13 L 470.22,253.90 L 469.24,252.74 L 468.51,251.26 L 465.98,247.07 L 466.17,246.48 L 467.44,244.16 L 466.80,242.80 L 465.94,241.07 L 465.93,241.04 L 465.33,239.70 L 465.32,239.70 L 465.00,239.23 L 463.99,237.12 L 462.72,235.05 L 461.93,234.25 L 461.13,233.45 L 460.42,231.90 L 458.51,227.37 L 457.96,225.83 L 457.53,224.95 L 456.82,222.92 L 456.77,222.62 L 456.47,221.04 L 456.40,220.28 L 456.37,219.31 L 456.36,218.32 L 455.96,217.34 L 455.86,216.07 L 455.43,215.35 L 454.96,214.52 L 454.47,213.80 L 453.95,212.98 L 453.22,212.32 L 452.57,211.75 L 451.85,211.15 L 451.05,210.51 L 450.34,209.86 L 449.74,208.10 L 449.96,207.35 L 450.15,206.44 L 450.34,205.57 L 450.32,204.64 L 450.25,203.72 L 450.15,202.71 L 448.91,201.09 L 448.12,200.44 L 447.90,199.53 L 447.68,198.53 L 448.56,198.01 L 449.48,197.39 L 450.23,196.82 L 450.91,196.07 L 450.74,194.39 L 450.57,193.45 L 448.60,193.59 L 448.26,191.00 L 448.16,188.26 L 448.00,187.29 L 447.75,185.82 L 448.21,185.10 L 448.91,184.24 L 448.39,182.61 L 447.78,180.92 L 447.75,180.82 L 446.77,178.48 L 447.39,178.43 L 447.71,177.99 L 447.62,177.82 L 447.60,177.79 L 447.48,177.62 L 447.34,177.40 L 447.17,177.09 L 447.03,176.82 L 446.78,176.53 L 446.52,176.17 L 446.30,175.88 L 446.24,175.82 L 446.11,175.63 L 445.98,175.45 L 445.90,175.30 L 445.80,175.07 L 445.70,174.79 L 445.63,174.53 L 445.56,174.32 L 445.45,174.13 L 445.27,173.87 L 445.19,173.73 L 445.10,173.33 L 445.03,173.02 L 444.98,172.77 L 444.93,172.66 L 444.85,172.49 L 444.79,172.30 L 444.75,172.16 L 444.74,172.03 L 444.76,171.85 L 444.83,171.70 L 444.90,171.53 L 445.08,171.20 L 445.19,171.03 L 445.29,170.81 L 445.33,170.70 L 445.34,170.63 L 445.34,170.60 L 445.70,169.99 L 445.70,169.92 L 445.65,169.80 L 445.60,169.69 L 445.54,169.57 L 445.46,169.43 L 445.13,169.00 L 444.91,168.78 L 444.66,168.50 L 444.26,168.04 L 444.09,167.81 L 443.98,167.63 L 443.87,167.45 L 443.73,167.25 L 443.60,167.11 L 443.40,166.85 L 443.28,166.69 L 443.21,166.55 L 443.16,166.43 L 443.13,166.35 L 443.10,166.26 L 443.04,166.03 L 442.95,165.78 L 442.87,165.66 L 442.81,165.58 L 442.72,165.50 L 442.66,165.45 L 442.59,165.40 L 442.50,165.36 L 442.36,165.32 L 442.16,165.29 L 442.03,165.27 L 441.84,165.27 L 441.69,165.29 L 441.55,165.28 L 441.40,165.27 L 441.28,165.26 L 441.15,165.23 L 440.92,165.17 L 440.62,165.08 L 440.38,164.92 L 440.15,164.70 L 439.90,164.49 L 439.70,164.31 L 439.50,164.13 L 439.27,163.90 L 438.99,163.63 L 438.66,163.38 L 438.58,163.25 L 438.47,163.13 L 438.35,162.99 L 438.24,162.83 L 438.10,162.63 L 438.00,162.50 L 437.94,162.39 L 437.89,162.31 L 437.62,161.99 L 437.48,161.83 L 437.37,161.71 L 437.27,161.61 L 437.18,161.58 L 437.09,161.19 L 436.82,160.94 L 436.61,160.35 L 436.50,160.19 L 435.46,158.75 L 434.95,156.45 L 431.78,142.05 L 431.48,140.64 L 431.19,140.20 L 430.98,139.93 L 430.76,139.66 L 429.99,138.96 L 429.22,138.32 L 428.77,137.97 L 428.55,137.97 L 428.35,137.64 L 428.16,137.57 L 427.96,137.41 L 427.69,137.04 L 427.47,136.86 L 427.26,136.75 L 427.10,136.65 L 427.01,136.57 L 426.90,136.34 L 426.81,136.05 L 426.72,135.81 L 426.56,135.60 L 426.34,135.36 L 426.04,135.31 L 425.83,135.32 L 425.64,135.28 L 425.44,135.14 L 425.21,135.18 L 425.00,135.19 L 424.85,135.19 L 424.68,135.07 L 424.37,134.73 L 423.29,133.57 L 422.80,133.18 L 422.44,132.77 L 421.84,131.92 L 421.60,131.50 L 421.42,130.77 L 421.30,130.15 L 421.23,129.67 L 421.23,128.74 L 421.31,128.33 L 421.55,127.86 L 421.89,127.53 L 422.36,127.18 L 422.86,126.89 L 423.08,126.72 L 423.28,126.50 L 423.51,126.31 L 423.72,126.15 L 423.98,125.94 L 424.10,125.77 L 424.13,125.59 L 424.10,125.43 L 424.02,125.37 L 423.87,125.31 L 423.55,125.28 L 423.29,125.23 L 423.17,125.19 L 423.04,125.15 L 422.95,125.06 L 422.85,124.92 L 422.70,124.65 L 422.46,124.12 L 422.38,124.00 L 422.16,123.92 L 421.59,124.01 L 420.73,124.38 L 420.19,124.17 L 419.55,123.50 L 419.03,122.86 L 418.37,122.29 L 417.41,121.85 L 416.75,121.83 L 415.89,121.88 L 415.39,122.15 L 414.90,122.25 L 414.79,122.14 L 414.42,121.77 L 413.76,120.99 L 413.12,120.18 L 412.75,119.87 L 411.99,119.17 L 411.58,118.83 L 411.23,118.65 L 411.00,118.63 L 410.77,118.62 L 410.48,118.61 L 410.27,118.57 L 410.02,118.43 L 409.96,118.37 L 409.87,118.24 L 409.86,118.18 L 409.85,118.12 L 409.89,117.98 L 410.00,117.69 L 410.17,117.46 L 410.32,117.20 L 410.39,116.93 L 410.40,116.74 L 410.34,116.42 L 410.23,116.16 L 410.09,115.95 L 409.84,115.67 L 409.55,115.44 L 409.25,115.25 L 409.05,115.10 L 408.94,114.84 L 408.85,114.44 L 408.78,114.00 L 408.77,113.87 L 408.74,113.75 L 408.69,113.67 L 408.51,113.49 L 408.27,113.28 L 408.08,113.03 L 407.98,112.80 L 407.97,112.79 L 408.15,112.32 L 408.37,111.88 L 408.60,111.40 L 408.65,110.96 L 408.57,110.49 L 408.47,109.99 L 408.40,109.83 L 408.32,109.67 L 408.26,109.59 L 408.19,109.53 L 408.09,109.51 L 407.93,109.50 L 407.74,109.54 L 407.73,109.54 L 407.56,109.59 L 407.34,109.61 L 407.21,109.58 L 407.00,109.43 L 406.87,109.27 L 406.81,109.11 L 406.80,108.80 L 406.82,108.34 L 406.82,108.02 L 406.81,107.71 L 406.82,107.56 L 406.79,107.23 L 406.74,107.06 L 406.66,106.90 L 406.48,106.68 L 406.28,106.48 L 406.19,106.39 L 406.16,106.30 L 406.15,106.23 L 406.18,106.02 L 406.27,105.78 L 406.35,105.55 L 406.35,105.53 L 406.37,105.45 L 406.37,105.34 L 406.34,105.26 L 406.29,105.16 L 406.22,105.09 L 406.06,104.96 L 405.93,104.85 L 405.89,104.76 L 405.89,104.67 L 405.97,104.39 L 405.99,104.23 L 405.94,104.02 L 405.86,103.75 L 405.79,103.58 L 405.76,103.38 L 405.77,103.11 L 405.87,102.86 L 405.95,102.65 L 406.00,102.40 L 406.04,102.13 L 406.05,101.89 L 406.04,101.74 L 405.98,101.51 L 405.91,101.39 L 405.81,101.28 L 405.71,101.22 L 405.59,101.19 L 405.44,101.18 L 405.43,101.18 L 405.12,101.20 L 404.96,101.20 L 404.77,101.19 L 404.63,101.17 L 404.52,101.12 L 404.41,101.05 L 404.32,100.95 L 404.23,100.78 L 404.19,100.61 L 404.13,100.52 L 404.01,100.44 L 403.86,100.36 L 403.77,100.30 L 403.71,100.24 L 403.69,100.12 L 403.71,99.94 L 403.73,99.82 L 403.73,99.73 L 403.70,99.66 L 403.67,99.61 L 403.60,99.56 L 403.51,99.54 L 403.35,99.52 L 403.51,99.54 L 403.35,99.52 L 403.08,99.49 L 403.07,99.49 L 402.99,99.45 L 402.85,99.36 L 402.66,99.20 L 402.48,98.98 L 402.42,98.91 L 402.33,98.81 L 402.30,98.67 L 402.32,98.47 L 402.41,98.17 L 402.45,97.99 L 402.45,97.87 L 402.42,97.79 L 402.40,97.74 L 402.36,97.71 L 402.28,97.68 L 402.19,97.66 L 402.18,97.66 L 402.06,97.66 L 402.06,97.66 L 401.94,97.63 L 401.84,97.56 L 401.79,97.50 L 401.74,97.37 L 401.72,97.15 L 401.68,97.03 L 401.61,96.95 L 401.50,96.88 L 401.38,96.82 L 401.23,96.80 L 401.11,96.80 L 400.96,96.82 L 400.96,96.82 L 400.83,96.84 L 400.75,96.85 L 400.74,96.85 L 400.68,96.82 L 400.60,96.70 L 400.49,96.43 L 400.44,96.31 L 400.37,96.24 L 400.31,96.16 L 400.20,96.06 L 400.08,95.93 L 400.04,95.90 L 399.88,95.91 L 399.67,95.88 L 399.50,95.79 L 399.39,95.69 L 399.29,95.56 L 399.19,95.37 L 399.09,95.18 L 398.97,94.92 L 398.80,94.53 L 398.77,94.34 L 398.70,94.05 L 398.64,93.87 L 398.51,93.55 L 398.40,93.27 L 398.31,93.07 L 398.22,92.65 L 398.13,92.30 L 398.01,91.96 L 397.81,91.63 L 397.73,91.50 L 397.42,90.80 L 396.80,89.03 L 395.95,86.57 L 394.16,83.81 L 393.31,81.53 L 392.75,79.77 L 392.38,78.63 L 390.40,78.37 L 388.34,78.46 L 386.83,77.93 L 385.88,77.34 L 384.30,76.25 L 383.43,75.65 L 382.47,75.29 L 381.76,74.57 L 380.54,73.10 L 379.41,71.83 L 378.97,71.17 L 377.30,69.96 L 375.77,68.97 L 374.43,67.79 L 373.87,66.97 L 373.06,66.07 L 371.89,65.02 L 370.90,64.49 L 370.46,63.79 L 370.03,62.94 L 369.33,61.06 L 368.76,59.52 L 367.85,57.89 L 366.93,56.35 L 366.55,55.52 L 366.27,54.65 L 366.03,53.66 L 365.77,52.84 L 365.26,52.00 L 364.22,50.53 L 363.21,48.96 L 363.02,48.72 L 362.78,47.79 L 362.78,47.79 L 361.65,46.64 L 361.23,46.14 L 360.86,45.76 L 360.54,45.53 L 359.92,45.25 L 358.71,44.22 L 358.71,44.21 L 358.59,43.98 L 358.34,43.11 L 358.21,42.95 L 358.08,42.85 L 357.24,42.43 L 356.97,42.35 L 356.97,42.34 L 356.70,42.24 L 356.54,42.16 L 356.03,41.85 L 355.51,41.56 L 354.98,41.34 L 354.80,41.26 L 354.63,41.13 L 354.64,41.12 L 354.63,41.12 L 354.37,40.82 L 354.08,40.61 L 353.80,40.44 L 353.60,40.28 L 353.52,40.16 L 353.32,39.85 L 353.25,39.70 L 353.16,39.51 L 353.17,39.51 L 352.99,39.19 L 352.83,39.00 L 352.50,38.80 L 352.22,38.69 L 352.11,38.59 L 352.01,38.42 L 351.93,38.17 L 351.93,38.16 L 351.91,37.91 L 351.91,37.65 L 351.87,37.49 L 351.76,37.17 L 351.72,36.84 L 351.66,36.50 L 351.72,36.15 L 351.70,36.05 L 351.67,35.87 L 351.58,35.66 L 351.42,35.45 L 351.12,35.21 L 350.73,34.94 L 350.61,34.78 L 350.54,34.59 L 350.49,34.37 L 350.50,34.37 L 350.41,34.18 L 350.17,34.20 L 349.90,34.20 L 349.53,34.18 L 349.18,34.07 L 348.54,33.77 L 348.09,33.40 L 347.84,33.12 L 347.65,32.89 L 347.23,32.41 L 346.83,31.94 L 346.20,31.26 L 345.60,30.67 L 345.18,30.22 L 344.91,30.02 L 344.35,29.73 L 344.03,29.63 L 343.70,29.63 L 343.23,29.65 L 342.57,29.71 L 342.26,29.67 L 342.07,29.54 L 341.78,29.31 L 341.50,29.11 L 341.12,28.94 L 340.43,28.76 L 339.91,28.64 L 339.52,28.60 L 339.23,28.63 L 339.05,28.73 L 338.73,28.97 L 338.35,29.30 L 338.08,29.44 L 337.92,29.50 L 337.76,29.53 L 337.62,29.50 L 337.34,29.34 L 336.83,28.91 L 336.18,28.18 L 335.75,27.57 L 335.59,27.20 L 335.49,26.78 L 335.43,26.15 L 335.43,25.82 L 335.40,25.73 L 335.23,25.44 L 335.43,24.81 L 335.43,24.74 L 335.63,23.76 L 335.76,22.79 L 335.82,22.04 L 335.65,21.09 L 335.53,20.23 L 335.41,18.53 L 335.41,18.47 L 335.38,17.49 L 335.44,16.60 L 335.49,15.68 L 335.69,14.07 L 335.80,13.24 L 335.89,12.57 Z" fill="#1d3672" stroke="#333" stroke-width="1"/>
</svg>