<svg xmlns="http://www.w3.org/2000/svg" width="800" height="600" viewBox="0 0 800 600">
<path d="M 213.96,10.34 L 210.53,10.00 L 206.78,10.44 L 200.64,11.67 L 196.69,12.40 L 194.72,14.42 L 193.42,15.35 L 189.87,16.19 L 187.75,16.67 L 183.69,18.64 L 180.99,20.01 L 179.84,20.21 L 178.80,20.21 L 177.55,20.65 L 176.56,20.85 L 175.16,20.65 L 169.59,18.84 L 167.98,24.05 L 165.23,29.99 L 163.71,36.14 L 163.56,37.22 L 162.57,38.99 L 160.80,45.87 L 159.13,48.97 L 159.04,49.07 L 158.55,49.56 L 151.17,51.67 L 146.23,53.29 L 141.66,54.38 L 140.25,54.96 L 136.87,59.64 L 133.28,63.18 L 132.29,64.75 L 129.62,66.22 L 128.55,66.81 L 127.82,67.35 L 126.78,68.04 L 123.19,68.78 L 119.44,70.10 L 117.26,70.74 L 114.14,70.98 L 109.36,72.41 L 107.39,71.13 L 103.32,67.25 L 101.40,66.51 L 94.69,60.76 L 96.88,55.30 L 99.74,51.81 L 102.18,48.22 L 103.23,45.17 L 104.89,39.81 L 106.30,36.17 L 108.80,29.87 L 105.73,29.14 L 99.90,27.96 L 97.83,27.56 L 94.75,26.28 L 91.06,23.04 L 87.16,19.84 L 84.51,17.87 L 79.20,15.07 L 74.89,12.96 L 73.99,12.72 L 70.88,11.88 L 62.93,10.89 L 62.76,10.89 L 62.44,11.35 L 62.17,11.78 L 61.98,12.12 L 61.94,12.26 L 61.88,12.53 L 61.85,12.81 L 61.85,13.23 L 61.96,13.83 L 62.04,14.24 L 62.07,14.68 L 62.06,15.04 L 61.93,15.47 L 61.72,15.74 L 61.29,16.13 L 60.83,16.42 L 60.47,16.73 L 60.35,16.89 L 60.13,17.17 L 60.10,17.35 L 60.04,17.64 L 60.06,18.02 L 60.16,18.77 L 60.21,19.33 L 60.27,19.61 L 60.27,19.87 L 60.25,20.09 L 60.21,20.32 L 60.09,20.53 L 59.92,20.74 L 59.64,20.89 L 59.26,21.01 L 58.54,21.26 L 58.09,21.50 L 57.83,21.78 L 57.59,22.10 L 57.21,22.72 L 57.06,23.40 L 56.90,24.11 L 56.76,24.44 L 56.66,24.64 L 56.29,25.05 L 55.76,25.51 L 55.46,25.80 L 55.37,26.03 L 55.24,26.40 L 55.17,26.84 L 55.04,27.15 L 54.76,27.54 L 54.44,27.89 L 54.27,28.17 L 54.07,28.61 L 53.83,29.02 L 53.48,29.32 L 53.03,29.68 L 52.71,29.95 L 52.37,30.17 L 52.31,30.31 L 52.11,31.08 L 51.96,31.41 L 51.84,31.94 L 51.69,32.39 L 51.55,32.61 L 51.45,32.76 L 51.32,32.88 L 51.21,32.96 L 51.04,33.05 L 50.76,33.07 L 50.33,33.10 L 50.16,33.16 L 50.01,33.20 L 49.71,33.30 L 49.45,33.53 L 49.08,33.86 L 48.45,34.65 L 48.05,35.28 L 47.78,35.91 L 47.52,36.54 L 47.30,36.96 L 47.15,37.21 L 47.07,37.32 L 47.16,37.60 L 47.34,37.91 L 47.69,38.42 L 47.80,38.61 L 47.87,38.79 L 47.96,39.13 L 48.03,39.59 L 48.10,40.01 L 48.34,40.65 L 48.48,41.00 L 48.55,41.29 L 48.72,41.80 L 48.88,42.24 L 49.11,42.86 L 49.48,43.53 L 49.03,43.48 L 48.71,45.62 L 48.32,45.69 L 48.15,45.66 L 47.62,45.74 L 44.29,45.76 L 40.18,45.78 L 37.52,45.73 L 36.42,45.77 L 36.42,45.77 L 35.37,47.46 L 34.50,48.03 L 31.65,49.30 L 30.77,49.56 L 28.81,52.95 L 28.12,54.54 L 27.20,56.66 L 26.58,57.91 L 25.76,59.61 L 25.75,59.63 L 25.73,59.66 L 24.61,61.64 L 24.27,63.02 L 24.37,63.67 L 24.46,64.20 L 24.44,64.62 L 24.37,65.13 L 24.30,65.31 L 23.98,66.04 L 23.66,66.77 L 23.62,66.85 L 23.60,66.87 L 23.60,66.87 L 22.97,68.28 L 22.96,68.32 L 22.88,68.56 L 22.83,68.70 L 22.73,68.94 L 22.55,69.41 L 22.55,69.42 L 22.52,69.48 L 22.50,69.51 L 22.44,69.60 L 20.87,72.38 L 20.86,72.38 L 20.66,73.28 L 19.90,74.63 L 19.87,74.70 L 19.87,74.70 L 19.29,75.82 L 19.10,76.22 L 17.90,77.69 L 17.88,77.72 L 16.63,79.36 L 15.23,81.36 L 14.23,82.82 L 12.96,84.96 L 12.25,86.17 L 12.14,86.35 L 10.49,90.13 L 10.00,92.18 L 11.17,95.00 L 11.21,95.12 L 12.11,97.70 L 12.65,98.82 L 13.44,100.83 L 13.46,103.01 L 15.06,103.92 L 16.14,105.93 L 16.34,108.04 L 16.29,110.60 L 16.24,112.30 L 16.46,114.64 L 16.61,116.69 L 16.61,116.88 L 16.65,118.07 L 16.89,119.81 L 18.30,121.48 L 21.06,122.68 L 23.13,122.63 L 25.73,122.65 L 26.42,124.47 L 26.42,124.48 L 26.70,125.96 L 26.97,127.01 L 27.22,127.99 L 30.31,129.77 L 32.76,129.84 L 35.60,129.84 L 37.42,129.83 L 37.42,129.83 L 39.31,129.91 L 40.36,129.95 L 43.64,129.88 L 44.14,129.93 L 47.07,130.25 L 49.19,130.27 L 51.30,130.29 L 53.51,130.17 L 55.28,130.08 L 55.28,130.08 L 57.04,130.15 L 59.64,130.09 L 61.98,130.16 L 64.99,130.09 L 67.03,130.05 L 68.83,130.05 L 70.56,129.90 L 74.78,128.98 L 74.78,128.98 L 76.88,128.53 L 77.97,127.55 L 78.88,126.73 L 81.35,125.71 L 81.35,125.71 L 82.33,125.87 L 83.12,126.00 L 83.12,126.00 L 84.65,124.30 L 85.36,122.61 L 86.29,120.53 L 85.12,118.25 L 85.98,116.22 L 85.98,116.22 L 86.96,114.50 L 88.64,113.31 L 90.68,113.81 L 92.63,114.30 L 94.65,114.55 L 96.53,114.72 L 96.53,114.72 L 96.70,116.22 L 96.92,117.71 L 100.35,119.19 L 101.50,119.34 L 101.92,119.48 L 102.98,119.82 L 104.21,120.41 L 105.10,121.10 L 105.47,121.47 L 105.81,121.80 L 105.85,122.78 L 105.84,122.82 L 105.43,124.55 L 105.28,125.41 L 105.26,125.56 L 105.20,125.84 L 104.97,127.06 L 104.99,127.50 L 105.03,128.26 L 106.24,131.89 L 106.50,133.15 L 106.90,134.19 L 107.52,136.54 L 107.69,137.20 L 107.75,137.45 L 108.03,138.65 L 107.70,140.05 L 107.00,142.89 L 105.49,145.60 L 102.90,149.44 L 102.45,150.06 L 101.15,151.83 L 100.34,152.96 L 99.25,155.55 L 98.72,156.72 L 98.63,156.92 L 97.67,158.18 L 97.63,160.51 L 102.57,161.56 L 103.49,168.62 L 103.92,173.42 L 108.47,175.60 L 108.76,175.82 L 109.26,176.20 L 109.61,176.46 L 111.14,177.42 L 112.55,179.01 L 109.72,179.95 L 109.32,180.98 L 108.47,183.97 L 108.75,185.93 L 108.16,187.59 L 107.71,188.85 L 106.55,193.90 L 104.24,196.65 L 104.21,196.86 L 103.35,200.00 L 103.35,200.01 L 102.86,201.99 L 102.64,202.88 L 104.17,203.91 L 106.27,203.21 L 108.88,203.29 L 109.72,203.40 L 110.57,203.52 L 114.28,203.70 L 116.36,203.20 L 117.98,203.22 L 118.79,204.04 L 121.96,207.46 L 123.43,207.77 L 124.17,208.03 L 124.60,208.19 L 124.68,208.26 L 124.82,208.38 L 124.96,208.55 L 125.17,208.83 L 125.37,209.16 L 125.65,210.03 L 125.65,210.03 L 125.90,210.86 L 126.05,211.36 L 128.78,214.14 L 130.02,214.89 L 130.16,214.98 L 130.21,215.02 L 131.25,215.80 L 134.45,216.89 L 134.67,216.99 L 135.01,217.14 L 135.46,217.34 L 135.54,217.38 L 136.24,218.05 L 138.09,219.85 L 138.27,220.00 L 138.86,220.52 L 138.96,220.69 L 138.99,220.74 L 138.98,220.78 L 138.91,221.07 L 138.63,221.71 L 138.54,221.91 L 140.33,223.99 L 140.65,223.83 L 141.09,223.60 L 141.52,223.54 L 141.82,223.49 L 142.03,223.45 L 142.17,223.49 L 142.48,223.56 L 142.61,223.68 L 142.81,223.84 L 145.44,225.25 L 146.21,225.38 L 146.30,225.43 L 146.81,225.68 L 147.00,225.87 L 147.48,226.32 L 147.53,226.53 L 147.57,226.72 L 147.92,230.43 L 148.49,230.51 L 149.36,230.79 L 150.42,231.06 L 150.73,231.12 L 150.96,231.18 L 151.31,231.28 L 152.41,231.79 L 153.31,232.21 L 153.87,232.51 L 154.32,232.90 L 154.49,233.45 L 154.53,233.91 L 154.24,235.52 L 154.80,236.57 L 155.30,237.51 L 155.62,238.83 L 155.72,240.32 L 155.56,241.47 L 155.30,243.24 L 155.24,243.57 L 155.06,244.57 L 157.06,246.10 L 157.71,246.28 L 159.09,247.07 L 159.72,247.71 L 160.14,248.17 L 160.50,248.80 L 160.50,248.80 L 160.26,248.98 L 160.13,249.15 L 160.05,249.75 L 159.76,250.24 L 158.98,251.06 L 158.83,251.32 L 160.41,252.85 L 161.16,253.33 L 161.81,254.00 L 161.85,254.13 L 161.85,254.28 L 161.80,254.39 L 161.72,254.46 L 161.56,254.51 L 161.36,254.51 L 161.16,254.48 L 160.86,254.30 L 160.38,254.03 L 160.18,253.97 L 160.09,253.96 L 160.03,253.99 L 159.95,254.05 L 159.74,254.61 L 160.26,256.18 L 160.34,256.40 L 160.34,256.48 L 160.30,256.57 L 160.10,256.75 L 159.80,257.79 L 160.72,259.43 L 164.09,258.92 L 164.27,258.91 L 164.68,258.98 L 165.01,259.13 L 165.15,259.27 L 165.41,259.71 L 167.12,261.66 L 167.54,262.28 L 167.98,263.07 L 167.97,263.50 L 167.89,263.65 L 167.82,263.71 L 167.75,263.76 L 167.62,263.81 L 167.46,263.81 L 167.31,263.78 L 167.16,263.75 L 167.09,263.74 L 167.01,263.72 L 166.77,263.62 L 166.65,263.55 L 166.17,263.25 L 164.05,264.07 L 162.81,265.05 L 161.76,263.86 L 162.30,265.45 L 162.53,265.66 L 163.01,266.02 L 163.29,266.32 L 163.37,266.48 L 163.41,266.72 L 163.39,266.83 L 163.31,266.94 L 162.99,267.09 L 162.58,267.92 L 162.61,268.10 L 162.62,268.32 L 162.58,268.46 L 162.46,268.59 L 162.37,268.68 L 162.17,268.74 L 159.66,269.65 L 159.37,269.76 L 159.17,269.79 L 158.91,269.77 L 158.79,269.77 L 157.79,269.90 L 156.87,270.68 L 156.36,271.25 L 156.26,271.45 L 156.27,271.64 L 155.77,271.61 L 153.39,273.71 L 152.22,275.01 L 151.67,275.49 L 150.32,276.34 L 149.43,276.79 L 146.35,277.84 L 143.30,279.26 L 141.51,280.71 L 140.68,281.43 L 140.40,281.58 L 140.02,281.67 L 139.69,281.66 L 139.52,281.63 L 139.37,281.57 L 139.25,281.49 L 139.13,281.35 L 139.01,281.15 L 138.70,280.53 L 138.56,280.37 L 138.33,280.25 L 138.16,280.19 L 137.98,280.15 L 137.09,280.17 L 136.74,280.35 L 136.33,280.65 L 135.90,280.89 L 135.65,280.98 L 135.44,281.02 L 135.13,280.99 L 135.09,280.98 L 133.58,280.85 L 131.81,282.44 L 131.37,283.05 L 130.81,283.70 L 130.32,284.09 L 129.91,284.33 L 128.04,285.76 L 127.65,286.00 L 127.37,286.09 L 126.98,286.07 L 126.49,286.04 L 126.35,286.04 L 126.35,286.04 L 124.72,286.87 L 124.72,286.87 L 124.72,286.87 L 122.85,288.26 L 122.24,298.47 L 122.24,298.47 L 122.15,299.93 L 121.38,313.18 L 121.35,320.41 L 121.33,322.33 L 121.32,323.44 L 121.32,323.45 L 121.30,326.43 L 121.18,327.83 L 121.18,327.83 L 121.18,327.84 L 121.21,329.43 L 121.20,330.50 L 121.20,330.50 L 121.20,330.50 L 120.84,331.18 L 119.92,332.35 L 117.71,334.52 L 114.13,337.33 L 114.98,339.29 L 111.57,342.09 L 112.10,343.96 L 113.03,347.46 L 113.03,347.46 L 111.50,349.39 L 111.50,349.39 L 111.50,349.39 L 111.94,350.99 L 111.94,350.99 L 112.21,352.86 L 112.21,352.86 L 112.62,354.92 L 112.53,356.69 L 112.32,358.20 L 112.19,359.07 L 112.19,359.07 L 112.54,360.80 L 112.54,360.80 L 112.38,362.51 L 112.49,363.20 L 112.50,363.23 L 112.68,364.33 L 112.68,364.33 L 112.35,365.71 L 112.29,365.96 L 111.94,366.42 L 111.02,367.64 L 110.32,369.42 L 110.32,369.42 L 110.32,369.42 L 110.86,371.04 L 110.86,371.04 L 111.37,372.47 L 111.88,373.89 L 112.80,376.72 L 113.27,378.88 L 113.27,378.88 L 111.22,380.59 L 110.34,383.09 L 109.72,384.70 L 109.27,385.89 L 107.74,390.25 L 107.74,390.25 L 107.74,390.25 L 107.22,394.55 L 107.19,394.97 L 107.11,396.15 L 107.11,396.15 L 107.61,399.92 L 110.49,400.45 L 114.84,401.52 L 114.84,401.52 L 117.87,402.08 L 117.87,402.08 L 118.17,402.09 L 119.46,402.13 L 121.05,402.18 L 122.34,402.21 L 124.14,402.41 L 124.20,403.45 L 124.21,403.71 L 124.21,403.71 L 124.76,407.94 L 125.06,410.82 L 125.41,414.58 L 127.82,414.52 L 127.86,415.19 L 127.99,417.40 L 127.99,417.40 L 128.29,418.33 L 128.87,420.12 L 128.87,420.13 L 130.51,420.36 L 131.08,420.57 L 131.86,420.99 L 132.14,421.14 L 132.14,421.14 L 131.19,425.20 L 130.18,429.95 L 129.22,433.87 L 128.70,435.98 L 127.53,440.27 L 126.69,443.26 L 126.09,445.48 L 125.98,445.88 L 125.88,446.26 L 124.99,448.36 L 122.14,448.77 L 122.14,448.77 L 121.34,448.85 L 120.46,448.94 L 116.83,448.98 L 116.83,448.98 L 115.73,449.02 L 112.30,449.15 L 108.00,450.35 L 105.68,450.48 L 105.03,450.51 L 103.93,450.60 L 98.32,451.06 L 92.98,451.38 L 87.40,451.23 L 87.38,453.85 L 87.38,453.85 L 88.20,460.57 L 90.38,463.60 L 92.91,466.29 L 94.70,468.49 L 97.41,470.35 L 97.94,473.94 L 98.84,477.84 L 99.76,480.88 L 100.58,482.70 L 102.28,482.47 L 102.28,482.47 L 106.93,483.28 L 107.25,489.28 L 107.11,492.19 L 107.37,494.14 L 107.57,496.39 L 107.74,498.33 L 107.84,499.48 L 107.84,499.48 L 106.10,504.47 L 106.10,504.47 L 100.08,504.84 L 100.08,504.84 L 100.08,504.84 L 97.18,505.63 L 97.18,505.63 L 95.53,506.05 L 95.53,506.05 L 92.54,507.08 L 92.54,507.09 L 92.53,507.09 L 88.10,508.15 L 88.10,508.15 L 88.64,509.82 L 89.14,511.88 L 89.14,511.88 L 89.41,513.69 L 90.89,515.34 L 91.50,515.58 L 92.56,516.00 L 92.56,516.00 L 93.34,517.85 L 91.68,517.75 L 91.11,517.71 L 90.10,517.73 L 87.56,517.79 L 84.51,517.60 L 83.75,517.53 L 81.91,517.37 L 80.99,517.41 L 79.96,517.47 L 77.43,517.43 L 76.95,517.40 L 75.74,517.31 L 74.25,517.15 L 73.12,517.02 L 71.65,516.78 L 71.01,516.68 L 70.59,518.54 L 70.33,519.71 L 70.14,520.99 L 69.93,522.39 L 69.67,524.08 L 69.44,526.76 L 69.23,529.13 L 69.13,531.03 L 69.02,533.17 L 69.04,533.87 L 69.05,534.78 L 69.05,534.78 L 70.27,536.68 L 71.23,537.00 L 72.15,538.60 L 71.45,540.46 L 71.45,540.46 L 71.31,540.87 L 70.89,542.13 L 70.89,542.13 L 69.43,543.94 L 69.43,543.94 L 69.43,543.94 L 70.03,545.64 L 70.03,545.64 L 73.75,545.39 L 73.93,545.44 L 75.60,545.87 L 76.57,546.20 L 78.40,546.67 L 79.62,547.49 L 82.22,549.30 L 83.90,549.58 L 86.24,549.52 L 89.14,548.98 L 93.08,549.10 L 94.71,549.72 L 97.16,551.05 L 98.74,551.77 L 100.01,551.57 L 102.19,550.21 L 103.95,549.09 L 105.83,548.08 L 107.20,547.59 L 107.91,547.44 L 109.08,547.43 L 110.20,547.62 L 113.00,549.20 L 117.09,552.31 L 119.03,553.55 L 120.32,554.54 L 121.69,554.94 L 123.83,554.81 L 124.93,554.36 L 125.28,554.03 L 125.51,553.56 L 126.71,551.05 L 127.11,549.32 L 126.69,546.63 L 127.19,544.70 L 127.80,543.82 L 128.96,543.25 L 131.25,542.70 L 132.52,543.08 L 134.05,543.79 L 134.61,544.27 L 135.13,545.62 L 136.41,548.94 L 137.23,549.37 L 138.71,549.37 L 141.96,549.73 L 145.39,548.95 L 147.48,548.32 L 147.46,548.25 L 149.55,547.83 L 151.89,546.96 L 155.23,546.26 L 158.33,545.34 L 164.17,544.35 L 167.94,543.90 L 170.40,543.39 L 172.73,543.16 L 174.28,542.68 L 175.68,542.09 L 176.54,541.46 L 176.73,541.03 L 176.58,540.29 L 175.44,539.39 L 174.22,538.88 L 171.98,538.24 L 170.60,537.55 L 170.01,536.52 L 169.95,535.46 L 171.38,531.83 L 172.21,530.18 L 172.78,528.21 L 172.97,526.12 L 172.61,523.77 L 173.04,522.54 L 173.94,521.67 L 175.41,520.72 L 176.52,519.55 L 178.09,519.08 L 181.72,519.28 L 184.44,519.56 L 185.28,519.29 L 186.47,518.39 L 187.48,516.85 L 188.76,515.28 L 190.36,514.50 L 191.22,514.38 L 192.59,515.14 L 194.91,516.95 L 197.08,518.39 L 198.91,518.55 L 200.61,518.03 L 201.27,517.50 L 202.43,515.40 L 204.72,512.67 L 205.91,512.00 L 207.33,511.41 L 208.68,511.29 L 209.74,511.68 L 210.85,512.61 L 212.14,515.73 L 212.72,519.19 L 212.63,522.52 L 213.81,524.63 L 215.29,525.97 L 216.87,527.06 L 219.76,527.48 L 224.91,529.19 L 227.30,530.28 L 227.50,530.36 L 229.30,530.44 L 230.72,530.24 L 232.13,529.08 L 233.86,528.16 L 235.23,528.05 L 236.94,529.19 L 239.75,532.27 L 242.10,534.56 L 243.33,536.10 L 243.85,537.98 L 244.51,538.94 L 247.26,539.45 L 249.74,539.92 L 252.19,540.77 L 253.20,541.88 L 253.21,541.98 L 253.72,543.87 L 254.04,548.29 L 254.25,550.02 L 254.77,551.27 L 254.62,552.28 L 254.84,553.68 L 256.24,554.87 L 258.77,554.88 L 261.82,554.19 L 264.15,554.63 L 266.99,554.09 L 270.93,554.29 L 274.18,554.88 L 276.15,556.21 L 278.56,558.11 L 281.03,559.38 L 282.33,559.64 L 282.91,559.61 L 283.57,559.57 L 284.11,559.47 L 284.54,559.31 L 285.00,559.10 L 285.77,558.58 L 286.42,558.12 L 286.84,557.76 L 287.28,557.31 L 287.63,556.84 L 287.94,556.35 L 288.30,555.84 L 288.58,555.47 L 289.01,555.02 L 289.36,554.77 L 289.81,554.49 L 290.16,554.16 L 290.52,553.69 L 290.88,553.33 L 291.29,553.09 L 291.67,553.01 L 292.14,552.96 L 292.57,553.02 L 292.95,553.14 L 293.22,553.46 L 293.52,553.99 L 293.69,554.68 L 293.91,555.31 L 293.94,555.94 L 293.87,556.81 L 293.77,557.57 L 293.68,558.20 L 293.58,558.76 L 293.49,559.57 L 293.50,560.15 L 293.63,560.79 L 293.85,561.16 L 294.14,561.55 L 294.48,561.85 L 294.77,562.01 L 295.15,562.14 L 295.68,562.25 L 296.39,562.28 L 296.94,562.32 L 297.53,562.38 L 298.19,562.50 L 298.86,562.55 L 299.77,562.63 L 301.32,562.65 L 301.93,562.73 L 302.39,562.86 L 302.93,563.03 L 303.44,563.18 L 303.90,563.25 L 304.51,563.26 L 305.32,563.47 L 305.81,563.64 L 306.37,563.88 L 306.76,564.14 L 307.19,564.54 L 307.27,564.64 L 308.79,565.88 L 310.59,566.91 L 313.19,567.93 L 314.80,568.43 L 315.98,568.79 L 317.06,569.32 L 318.10,569.82 L 319.19,570.48 L 320.01,571.28 L 321.26,572.62 L 321.73,573.12 L 322.71,574.02 L 324.37,575.98 L 325.64,577.46 L 326.97,578.76 L 327.77,579.43 L 330.18,579.20 L 332.83,578.48 L 336.70,577.18 L 338.21,576.92 L 339.68,576.92 L 341.40,576.55 L 343.05,576.90 L 344.84,577.04 L 347.72,577.39 L 350.32,578.33 L 351.74,578.82 L 353.35,580.03 L 354.77,581.01 L 355.52,581.91 L 356.23,582.98 L 357.42,585.53 L 357.89,586.73 L 358.32,587.58 L 358.74,588.02 L 359.16,588.47 L 360.29,589.19 L 361.76,589.60 L 363.55,589.99 L 366.15,590.00 L 367.85,589.63 L 370.31,589.05 L 371.44,589.05 L 372.99,589.09 L 375.74,589.36 L 376.89,589.18 L 378.87,588.46 L 380.31,587.72 L 381.76,586.98 L 384.11,585.77 L 385.53,585.19 L 386.95,584.78 L 388.84,584.25 L 389.78,583.71 L 391.53,582.46 L 392.53,581.21 L 392.61,579.82 L 391.91,577.94 L 391.58,576.19 L 391.62,575.03 L 392.37,573.91 L 393.56,573.37 L 395.03,573.01 L 397.19,573.32 L 399.44,573.60 L 402.13,573.47 L 403.31,573.23 L 405.39,572.70 L 406.63,572.56 L 407.76,572.52 L 408.09,572.53 L 409.03,573.01 L 409.97,573.99 L 410.41,575.08 L 411.69,571.83 L 412.40,570.57 L 413.72,568.63 L 415.30,567.13 L 415.61,566.34 L 415.86,565.83 L 416.37,565.10 L 416.89,564.39 L 417.22,563.88 L 417.34,563.33 L 417.35,562.93 L 417.28,562.45 L 416.99,561.43 L 416.44,560.04 L 416.17,559.29 L 416.32,558.67 L 416.63,557.77 L 416.96,556.87 L 417.22,556.10 L 417.46,555.11 L 417.66,554.29 L 417.68,554.15 L 419.38,553.40 L 419.38,553.18 L 419.37,552.61 L 419.28,552.02 L 419.26,551.43 L 419.30,550.98 L 419.56,550.35 L 419.79,549.88 L 420.37,548.84 L 421.09,547.40 L 421.56,546.34 L 422.04,545.22 L 422.34,544.56 L 422.90,543.78 L 423.61,542.85 L 424.31,542.26 L 424.66,541.82 L 425.01,541.28 L 425.16,540.88 L 425.13,540.60 L 425.11,540.35 L 424.94,539.95 L 424.82,539.79 L 424.45,539.31 L 423.77,538.42 L 423.17,537.52 L 422.79,536.69 L 422.54,536.00 L 422.94,534.40 L 423.58,533.46 L 424.49,532.56 L 426.47,528.79 L 426.50,527.14 L 426.68,525.10 L 426.95,524.03 L 427.30,523.14 L 427.57,521.84 L 427.84,520.10 L 427.94,519.48 L 428.08,517.96 L 428.09,516.78 L 428.31,515.53 L 428.75,513.36 L 428.76,513.35 L 428.76,513.35 L 428.80,512.90 L 428.85,512.44 L 428.46,512.36 L 427.87,512.32 L 427.02,512.21 L 426.48,512.17 L 425.53,512.10 L 424.72,511.96 L 423.78,511.85 L 422.99,511.74 L 422.22,511.59 L 421.49,511.46 L 420.71,511.23 L 419.93,510.96 L 419.47,510.82 L 419.07,510.60 L 418.34,510.31 L 417.52,510.06 L 416.91,509.81 L 416.30,509.58 L 415.75,509.33 L 415.33,509.24 L 414.79,509.10 L 413.47,508.75 L 412.79,508.59 L 411.32,508.35 L 409.52,507.96 L 407.61,507.48 L 405.87,507.16 L 404.68,506.91 L 403.43,506.70 L 402.72,506.51 L 402.30,506.37 L 401.87,506.17 L 401.39,505.91 L 400.98,505.67 L 400.42,505.32 L 399.86,504.96 L 399.23,504.46 L 398.78,503.99 L 398.39,503.49 L 398.03,502.93 L 397.43,502.18 L 397.04,501.60 L 396.73,501.25 L 396.23,500.81 L 395.81,500.36 L 395.24,499.65 L 394.73,498.97 L 394.35,498.27 L 393.84,497.43 L 393.45,496.72 L 393.03,496.11 L 392.49,495.51 L 391.88,494.88 L 391.63,494.66 L 391.23,494.39 L 390.68,494.10 L 389.64,493.56 L 389.10,493.27 L 388.81,493.07 L 388.42,492.65 L 387.83,492.04 L 387.26,491.57 L 386.81,491.30 L 386.05,490.85 L 385.86,490.71 L 386.51,488.82 L 387.74,485.85 L 389.84,481.58 L 393.99,472.93 L 395.73,469.20 L 396.13,466.94 L 396.28,463.84 L 395.72,456.41 L 395.10,450.62 L 394.33,444.31 L 392.65,435.27 L 375.30,435.42 L 374.77,428.86 L 373.99,423.53 L 373.02,418.04 L 372.24,413.80 L 371.28,411.03 L 375.07,407.10 L 376.85,405.74 L 379.22,404.96 L 382.09,404.23 L 384.18,403.94 L 384.80,403.45 L 385.21,401.80 L 386.79,393.77 L 388.38,384.26 L 388.89,382.20 L 389.96,379.77 L 390.80,376.19 L 391.09,370.06 L 391.13,365.35 L 391.29,362.05 L 391.49,355.53 L 391.48,345.47 L 390.66,341.43 L 389.45,333.84 L 400.91,331.32 L 418.54,327.10 L 418.67,322.13 L 419.60,318.69 L 422.77,310.63 L 425.39,304.22 L 425.28,300.66 L 425.69,294.63 L 425.95,291.11 L 437.30,292.26 L 442.17,292.45 L 446.84,292.59 L 452.55,292.69 L 459.46,292.52 L 459.56,289.46 L 460.07,286.45 L 460.08,284.80 L 458.95,281.60 L 458.17,279.75 L 458.38,278.58 L 459.30,277.71 L 460.43,277.23 L 462.13,277.23 L 463.31,277.23 L 464.70,276.98 L 465.66,276.16 L 467.46,272.43 L 468.99,269.47 L 469.45,267.87 L 470.07,266.46 L 470.99,265.35 L 472.13,264.04 L 473.19,261.73 L 473.55,259.55 L 473.70,256.63 L 473.65,255.51 L 473.35,254.60 L 472.42,253.77 L 471.75,253.04 L 471.50,252.41 L 471.60,251.49 L 472.06,250.70 L 472.88,249.74 L 473.94,248.99 L 476.07,248.62 L 477.19,248.33 L 477.91,247.94 L 479.20,246.34 L 480.02,245.71 L 481.35,245.42 L 482.63,245.26 L 483.86,244.89 L 485.00,244.35 L 486.43,243.38 L 487.28,242.58 L 487.80,241.72 L 488.11,240.16 L 488.41,238.55 L 489.23,237.29 L 490.26,236.42 L 493.08,234.42 L 494.21,233.89 L 495.29,233.94 L 497.03,234.62 L 499.19,235.64 L 500.53,236.32 L 504.20,231.57 L 505.13,231.00 L 508.77,229.14 L 511.18,229.14 L 512.92,235.07 L 515.29,233.32 L 517.39,234.15 L 520.68,228.27 L 527.69,221.26 L 527.02,214.21 L 526.98,208.54 L 526.78,203.03 L 526.62,198.66 L 525.54,191.67 L 525.20,188.09 L 532.81,186.55 L 534.81,185.29 L 537.48,183.30 L 539.85,182.47 L 540.82,181.89 L 541.34,181.12 L 541.08,179.12 L 540.93,178.05 L 546.03,173.28 L 546.15,166.37 L 546.45,164.92 L 547.13,164.33 L 548.52,163.41 L 549.11,162.62 L 549.48,161.32 L 549.89,158.35 L 550.71,156.99 L 552.00,155.59 L 555.75,151.21 L 557.74,149.56 L 559.08,148.45 L 560.16,147.57 L 560.47,147.09 L 560.25,144.63 L 576.68,133.45 L 578.83,131.98 L 582.05,129.48 L 587.79,121.29 L 593.64,115.61 L 596.89,109.30 L 598.16,103.01 L 598.40,102.22 L 599.09,101.52 L 603.07,99.56 L 610.05,96.07 L 609.91,95.63 L 609.83,95.55 L 609.58,95.28 L 604.63,94.31 L 600.83,93.92 L 595.50,92.91 L 593.66,92.51 L 592.59,91.95 L 590.59,91.20 L 586.58,90.91 L 584.31,90.69 L 582.32,89.68 L 579.73,88.02 L 568.98,85.91 L 562.51,84.53 L 556.72,83.47 L 552.32,83.43 L 551.47,83.57 L 550.63,83.71 L 546.49,85.59 L 544.40,86.35 L 542.73,86.92 L 540.65,87.57 L 538.00,86.94 L 533.93,86.03 L 530.58,85.64 L 527.16,84.86 L 523.18,84.06 L 520.74,83.63 L 520.02,83.62 L 518.00,83.37 L 514.53,83.27 L 510.08,83.20 L 509.37,83.19 L 504.68,82.89 L 503.85,82.82 L 501.12,82.24 L 494.05,80.93 L 493.19,81.06 L 488.09,78.61 L 487.37,78.46 L 485.18,78.04 L 471.83,76.90 L 457.95,77.27 L 454.59,77.35 L 454.11,77.11 L 453.36,76.34 L 452.80,74.29 L 451.96,67.98 L 447.84,67.45 L 448.67,58.43 L 448.83,52.89 L 444.61,52.45 L 437.06,50.00 L 430.97,47.96 L 426.99,45.93 L 426.15,45.50 L 425.17,44.89 L 421.46,44.67 L 412.77,44.43 L 404.80,45.06 L 400.04,46.95 L 398.24,48.32 L 396.62,49.73 L 394.07,50.82 L 390.33,52.13 L 388.63,52.54 L 386.78,60.70 L 385.97,60.99 L 385.85,61.07 L 385.29,61.01 L 384.70,60.93 L 383.96,60.75 L 383.85,60.68 L 383.56,60.57 L 383.38,60.39 L 383.26,60.59 L 383.19,60.63 L 382.50,60.85 L 378.56,60.86 L 378.00,63.00 L 377.82,67.21 L 378.06,71.50 L 377.80,77.00 L 377.44,78.71 L 364.69,75.65 L 359.48,74.54 L 360.96,71.99 L 361.56,70.55 L 355.67,69.11 L 354.56,68.67 L 353.59,66.52 L 351.20,63.21 L 347.67,58.92 L 347.47,58.54 L 346.28,56.17 L 345.04,45.36 L 342.19,41.84 L 340.57,39.69 L 339.45,34.91 L 337.52,30.59 L 335.85,27.61 L 333.82,29.29 L 331.55,31.48 L 330.81,31.69 L 329.54,32.84 L 327.28,34.90 L 321.77,39.15 L 319.66,40.57 L 318.46,40.89 L 312.71,41.54 L 312.33,41.58 L 312.04,41.76 L 311.64,41.79 L 311.33,41.76 L 310.52,41.84 L 309.83,41.92 L 308.00,41.93 L 307.62,41.99 L 307.23,41.95 L 306.24,41.92 L 304.34,41.92 L 304.23,41.99 L 303.41,42.11 L 302.87,42.13 L 302.48,42.03 L 301.80,42.17 L 301.35,42.36 L 300.90,42.75 L 300.24,42.98 L 300.00,43.00 L 299.61,43.06 L 299.51,43.12 L 298.71,43.17 L 297.92,43.77 L 296.56,44.79 L 293.79,45.44 L 289.08,46.46 L 286.09,47.98 L 285.97,48.00 L 283.56,48.41 L 282.33,48.36 L 278.67,48.28 L 275.12,48.65 L 271.56,39.72 L 267.97,38.01 L 267.84,36.30 L 266.56,35.72 L 265.52,35.25 L 260.09,32.03 L 253.99,27.94 L 249.43,27.98 L 244.91,27.78 L 243.76,27.72 L 236.38,26.14 L 229.41,24.84 L 227.69,24.51 L 224.93,14.82 L 220.04,11.97 L 218.23,11.19 L 215.48,10.64 L 213.96,10.34 Z" fill="#1d3672" stroke="#333" stroke-width="1"/>
</svg>