<svg xmlns="http://www.w3.org/2000/svg" width="800" height="600" viewBox="0 0 800 600">
<path d="M 538.49,61.38 L 536.33,60.83 L 534.44,61.01 L 531.69,61.60 L 529.43,62.22 L 527.58,62.86 L 526.29,63.31 L 525.20,64.17 L 524.80,64.44 L 523.94,64.60 L 522.25,64.77 L 519.68,65.18 L 516.36,65.35 L 515.25,65.43 L 513.54,65.53 L 512.42,65.61 L 511.10,66.17 L 509.33,66.03 L 506.35,65.66 L 504.83,65.35 L 503.27,65.62 L 502.24,65.86 L 501.38,65.60 L 500.18,65.72 L 499.41,65.85 L 498.16,66.73 L 496.59,66.83 L 495.34,67.02 L 493.71,67.53 L 492.51,67.43 L 490.64,67.32 L 488.66,67.37 L 486.17,67.94 L 483.38,68.94 L 480.87,69.54 L 478.36,70.22 L 475.77,70.85 L 475.05,71.04 L 474.60,70.93 L 473.82,70.28 L 472.09,69.50 L 470.44,68.78 L 468.81,67.88 L 468.23,67.51 L 468.01,67.10 L 451.76,67.45 L 445.65,69.13 L 431.78,68.81 L 427.79,69.55 L 417.90,71.38 L 402.63,73.42 L 380.70,77.53 L 361.28,79.30 L 358.18,89.53 L 352.32,97.92 L 342.30,106.56 L 330.07,112.03 L 315.08,117.23 L 301.19,122.44 L 278.40,134.71 L 256.17,148.30 L 231.43,163.72 L 217.57,173.74 L 210.86,180.48 L 200.58,185.70 L 186.42,193.54 L 179.76,194.84 L 173.38,194.82 L 168.66,196.90 L 158.12,201.87 L 143.98,202.88 L 133.53,201.29 L 114.59,204.63 L 103.56,205.56 L 92.40,209.83 L 79.92,211.37 L 69.11,213.98 L 73.52,219.51 L 76.55,228.98 L 84.29,236.09 L 86.49,239.38 L 88.70,242.67 L 91.45,251.35 L 91.14,261.34 L 87.51,270.00 L 80.84,277.34 L 73.34,283.63 L 71.12,286.25 L 69.15,291.38 L 69.38,292.52 L 70.65,294.88 L 74.60,299.98 L 78.29,302.93 L 82.08,305.46 L 84.93,307.16 L 87.64,308.54 L 89.86,310.62 L 90.72,311.72 L 91.58,312.82 L 92.10,315.30 L 91.46,318.02 L 90.65,319.20 L 87.75,321.90 L 84.04,324.01 L 76.83,329.23 L 74.14,332.03 L 69.23,335.93 L 66.25,338.36 L 65.25,340.93 L 65.28,342.58 L 66.97,346.76 L 68.04,349.11 L 70.10,353.57 L 71.29,356.80 L 72.10,361.18 L 72.18,365.40 L 70.92,368.88 L 69.68,371.80 L 69.68,371.80 L 68.39,374.84 L 67.12,380.44 L 67.31,384.70 L 66.91,385.93 L 64.56,389.16 L 60.41,393.50 L 56.99,398.04 L 50.89,403.80 L 45.36,409.28 L 42.17,413.09 L 38.66,417.09 L 35.72,420.12 L 34.20,422.70 L 34.40,428.18 L 33.88,430.68 L 33.43,432.91 L 32.97,435.14 L 31.85,438.02 L 29.63,442.00 L 27.04,446.41 L 27.07,449.41 L 28.32,452.26 L 32.48,456.97 L 36.72,460.37 L 42.01,464.55 L 45.41,468.01 L 48.63,472.01 L 50.43,475.72 L 50.57,478.50 L 50.35,479.17 L 50.13,479.85 L 47.72,484.06 L 47.15,486.45 L 47.15,486.46 L 47.87,490.79 L 52.08,494.49 L 53.17,496.68 L 53.59,497.52 L 53.75,499.12 L 52.69,502.80 L 50.06,507.00 L 49.96,507.16 L 48.16,510.71 L 47.35,512.46 L 46.54,514.20 L 45.79,517.88 L 46.41,521.66 L 47.36,525.06 L 46.62,527.58 L 40.85,531.92 L 38.76,532.60 L 36.87,533.53 L 35.11,533.77 L 33.36,534.01 L 26.82,534.43 L 21.12,534.83 L 16.94,535.37 L 12.77,535.91 L 10.43,537.46 L 10.00,542.60 L 10.27,545.87 L 11.07,549.28 L 13.44,552.26 L 16.15,554.51 L 18.23,555.16 L 22.78,555.96 L 26.02,556.94 L 27.96,557.74 L 32.05,560.17 L 32.97,561.02 L 35.95,563.79 L 38.04,566.13 L 38.19,566.30 L 39.02,567.18 L 39.85,568.06 L 41.16,569.20 L 43.22,570.65 L 45.01,571.76 L 46.32,573.08 L 48.51,574.76 L 49.79,575.61 L 51.64,576.49 L 53.95,577.15 L 55.21,577.38 L 56.55,577.12 L 57.71,576.62 L 59.72,575.88 L 62.60,575.02 L 65.77,574.48 L 69.08,574.05 L 70.08,574.16 L 72.11,574.40 L 73.76,575.31 L 75.31,576.53 L 76.51,577.69 L 77.70,579.06 L 78.78,580.65 L 79.54,582.21 L 80.22,583.81 L 80.80,585.64 L 81.61,587.72 L 82.60,589.39 L 83.12,589.75 L 83.48,590.00 L 83.52,589.88 L 84.42,588.68 L 85.44,587.42 L 85.47,587.35 L 85.52,587.25 L 86.09,585.95 L 86.56,584.86 L 86.95,583.94 L 87.71,582.98 L 88.25,582.10 L 89.18,580.90 L 90.75,578.51 L 91.25,577.18 L 92.11,575.86 L 92.72,574.90 L 93.26,574.22 L 94.55,573.12 L 95.90,572.20 L 98.08,571.49 L 99.98,570.91 L 102.06,570.40 L 103.30,570.16 L 104.53,569.92 L 106.47,569.38 L 108.38,568.96 L 110.96,568.66 L 112.65,568.35 L 114.83,568.05 L 116.27,567.61 L 117.52,567.43 L 121.30,566.85 L 121.72,566.72 L 121.97,566.64 L 122.70,566.41 L 122.86,566.15 L 123.09,566.12 L 124.24,566.04 L 124.99,565.87 L 126.30,565.77 L 126.67,565.77 L 127.53,566.00 L 128.50,565.97 L 132.08,565.15 L 138.94,563.04 L 143.25,561.69 L 145.25,560.79 L 151.50,557.78 L 153.97,556.48 L 154.02,556.45 L 158.64,553.19 L 160.93,551.48 L 164.02,548.90 L 165.46,547.74 L 168.74,544.34 L 172.51,540.15 L 173.90,538.41 L 175.99,535.40 L 177.42,532.79 L 178.10,531.03 L 178.70,528.90 L 178.94,525.17 L 178.94,525.16 L 178.97,524.92 L 179.06,524.11 L 179.21,522.21 L 179.95,518.04 L 180.99,514.36 L 182.97,510.18 L 185.01,506.17 L 185.90,503.99 L 186.79,501.80 L 187.89,499.21 L 188.13,498.63 L 188.22,498.40 L 188.80,496.99 L 191.22,493.40 L 193.76,489.60 L 195.01,487.94 L 197.46,484.46 L 198.92,482.03 L 200.28,479.16 L 201.02,477.49 L 202.10,475.31 L 202.37,473.82 L 203.35,471.46 L 204.91,466.87 L 205.57,464.61 L 206.23,462.34 L 206.80,460.35 L 208.17,456.94 L 210.17,453.23 L 210.19,453.20 L 210.32,453.00 L 212.44,449.64 L 214.31,447.19 L 215.70,445.60 L 218.01,443.43 L 219.95,441.95 L 221.33,441.28 L 222.18,441.05 L 223.78,440.59 L 226.24,440.08 L 228.26,439.69 L 230.26,439.24 L 232.25,438.79 L 234.00,438.57 L 235.51,438.65 L 237.78,438.82 L 241.70,438.87 L 243.34,439.20 L 244.97,439.53 L 247.43,439.87 L 249.41,439.66 L 252.22,438.84 L 256.11,437.57 L 258.91,436.91 L 259.93,436.47 L 260.98,435.70 L 262.17,434.81 L 265.03,433.60 L 266.17,433.19 L 267.30,432.78 L 268.09,432.27 L 268.93,431.14 L 270.25,429.16 L 272.07,426.26 L 273.06,423.87 L 274.31,420.72 L 274.84,419.74 L 274.92,419.59 L 275.38,418.73 L 277.04,415.92 L 278.13,413.88 L 279.91,411.09 L 282.27,408.83 L 283.49,406.58 L 285.34,403.61 L 287.02,400.56 L 288.47,398.26 L 290.60,395.15 L 291.72,393.06 L 293.08,390.81 L 294.45,389.43 L 297.42,387.60 L 298.86,386.53 L 299.68,385.53 L 300.27,384.22 L 300.60,383.15 L 301.02,382.40 L 302.84,381.31 L 302.91,381.28 L 305.03,380.27 L 306.34,379.98 L 308.13,379.08 L 309.40,377.91 L 310.80,376.67 L 311.97,375.97 L 313.70,374.28 L 315.27,373.10 L 316.35,371.49 L 317.71,369.63 L 319.63,367.34 L 321.81,364.82 L 323.79,363.12 L 326.31,361.38 L 329.47,359.95 L 333.24,358.73 L 336.60,357.80 L 340.95,356.74 L 343.73,356.71 L 344.90,356.88 L 346.49,357.59 L 348.31,358.74 L 349.60,360.17 L 351.01,361.89 L 351.15,362.06 L 351.86,363.06 L 353.48,366.25 L 354.17,367.26 L 356.40,371.45 L 357.85,375.51 L 359.40,379.31 L 361.11,383.11 L 362.41,386.40 L 362.47,386.57 L 363.63,387.21 L 364.03,387.86 L 364.74,390.04 L 366.63,393.15 L 366.57,394.34 L 366.00,396.11 L 363.07,398.85 L 361.91,400.16 L 361.69,400.96 L 361.79,402.53 L 362.61,405.82 L 362.93,406.71 L 363.01,406.94 L 363.22,408.35 L 363.21,410.59 L 363.35,411.42 L 363.49,412.25 L 364.20,414.26 L 365.13,416.99 L 365.30,418.31 L 365.25,420.46 L 365.23,422.23 L 364.25,424.92 L 364.06,425.76 L 364.19,426.49 L 366.19,429.34 L 368.01,431.78 L 368.96,433.28 L 370.34,435.59 L 371.47,437.31 L 372.55,439.79 L 373.90,441.72 L 375.13,444.01 L 376.38,445.66 L 377.51,447.10 L 379.23,449.44 L 381.40,452.07 L 382.44,453.66 L 383.44,456.10 L 384.18,457.86 L 385.45,459.60 L 385.53,459.65 L 385.67,459.85 L 387.85,461.38 L 388.58,462.02 L 388.75,462.17 L 389.16,463.08 L 389.02,463.90 L 387.71,466.64 L 387.60,467.92 L 388.52,471.02 L 389.07,473.07 L 390.65,475.70 L 390.68,475.75 L 391.87,477.14 L 392.06,477.37 L 392.36,478.04 L 392.48,479.71 L 392.90,480.78 L 392.93,480.87 L 393.97,481.95 L 394.66,483.17 L 394.83,483.81 L 395.00,484.44 L 395.28,484.85 L 395.29,484.84 L 395.48,485.11 L 396.20,484.90 L 397.73,484.47 L 398.84,484.68 L 401.65,486.69 L 403.99,488.11 L 404.20,488.23 L 405.57,489.00 L 406.70,488.86 L 407.50,489.21 L 408.91,489.81 L 410.31,490.35 L 411.47,490.29 L 412.82,489.43 L 415.10,488.78 L 416.70,488.58 L 417.95,488.73 L 419.60,488.83 L 421.65,488.35 L 422.92,487.56 L 424.14,486.43 L 426.98,483.54 L 427.78,482.38 L 428.04,481.13 L 428.10,480.37 L 428.25,480.10 L 428.54,479.84 L 429.40,479.69 L 430.53,479.61 L 432.14,479.02 L 434.48,477.79 L 437.65,477.04 L 440.19,476.48 L 441.80,475.97 L 442.70,475.57 L 443.02,475.47 L 443.45,475.61 L 444.17,476.37 L 444.49,476.62 L 444.67,476.62 L 444.92,476.55 L 445.12,476.30 L 445.50,475.19 L 445.96,474.76 L 446.93,474.15 L 448.83,472.52 L 449.75,471.35 L 450.19,470.47 L 450.88,468.94 L 451.43,467.72 L 451.85,467.36 L 452.78,466.75 L 455.26,465.81 L 458.26,465.31 L 462.04,464.34 L 466.37,463.08 L 469.00,461.96 L 472.78,459.91 L 474.87,458.52 L 477.31,457.33 L 478.96,456.85 L 479.29,456.79 L 481.47,456.67 L 483.60,456.41 L 485.74,456.16 L 488.46,456.36 L 490.49,457.01 L 492.29,457.74 L 494.01,458.72 L 495.45,459.75 L 497.06,461.32 L 498.02,462.55 L 498.12,462.67 L 498.12,462.68 L 499.08,464.87 L 499.73,466.70 L 499.98,467.25 L 500.07,467.47 L 501.06,468.21 L 502.27,468.92 L 502.83,469.52 L 503.89,470.62 L 505.01,472.31 L 505.11,472.46 L 505.95,474.46 L 506.67,476.47 L 507.00,477.87 L 506.71,479.32 L 506.41,480.76 L 506.16,482.08 L 505.90,483.40 L 504.81,485.48 L 503.75,487.83 L 502.90,490.37 L 502.32,492.55 L 501.88,494.75 L 501.36,498.55 L 501.22,500.21 L 501.04,502.38 L 500.50,504.92 L 500.56,505.71 L 500.62,506.51 L 500.66,506.81 L 500.89,508.91 L 501.19,511.07 L 501.49,514.38 L 501.73,515.75 L 501.73,515.75 L 501.94,516.24 L 504.02,517.33 L 505.85,518.25 L 508.00,519.19 L 510.22,519.89 L 511.57,519.97 L 512.33,519.80 L 512.98,519.66 L 514.61,519.18 L 515.20,519.33 L 515.77,519.82 L 516.43,520.70 L 517.46,521.87 L 518.28,522.83 L 518.72,522.98 L 519.88,522.77 L 520.59,522.69 L 520.91,522.44 L 521.21,522.06 L 521.48,521.69 L 521.72,521.60 L 521.92,521.60 L 522.05,521.63 L 522.18,521.66 L 522.50,521.98 L 523.25,522.75 L 523.63,523.15 L 524.03,523.15 L 524.78,523.11 L 525.89,522.41 L 526.36,522.28 L 527.02,522.24 L 529.19,523.35 L 531.01,523.45 L 533.16,523.30 L 535.09,522.74 L 537.33,521.14 L 539.10,519.64 L 539.90,519.04 L 540.59,518.85 L 542.34,519.10 L 545.14,519.64 L 546.10,519.43 L 546.74,519.13 L 548.92,517.30 L 549.87,516.84 L 549.98,516.78 L 550.81,516.38 L 552.83,515.96 L 554.94,516.02 L 555.03,516.02 L 559.60,516.89 L 562.23,516.96 L 564.26,516.82 L 566.28,517.26 L 567.60,518.08 L 568.46,518.35 L 569.05,518.33 L 571.24,517.41 L 573.26,516.46 L 574.54,516.09 L 574.80,515.40 L 575.23,513.90 L 575.69,513.41 L 576.36,513.29 L 577.10,513.62 L 578.49,514.25 L 581.10,514.56 L 583.00,514.57 L 583.40,514.64 L 584.14,514.92 L 584.69,515.21 L 585.44,515.53 L 585.96,515.75 L 586.35,515.95 L 586.67,515.99 L 586.92,515.86 L 587.27,515.59 L 587.59,515.29 L 587.75,515.07 L 588.04,514.72 L 588.43,514.27 L 588.83,513.99 L 589.26,513.65 L 589.66,513.39 L 589.93,513.27 L 589.99,513.24 L 590.25,513.25 L 590.81,513.28 L 591.30,513.40 L 591.78,513.42 L 592.32,513.44 L 592.81,513.34 L 593.19,513.18 L 593.64,512.94 L 594.17,512.62 L 594.84,512.42 L 595.25,512.21 L 595.63,511.72 L 595.93,511.31 L 596.06,511.19 L 596.22,511.04 L 596.52,510.87 L 597.28,510.67 L 598.03,510.37 L 598.49,510.07 L 598.85,509.80 L 599.00,509.28 L 599.04,508.96 L 599.07,508.61 L 598.90,508.13 L 598.65,507.61 L 598.32,507.01 L 598.13,506.29 L 598.02,505.72 L 598.00,505.13 L 598.09,504.66 L 598.16,504.30 L 598.34,503.59 L 598.67,502.98 L 598.98,502.72 L 599.60,502.30 L 600.02,502.10 L 600.57,502.04 L 601.04,502.08 L 601.63,502.09 L 602.21,502.11 L 602.45,502.09 L 602.74,501.89 L 602.95,501.55 L 603.18,501.09 L 603.37,500.64 L 603.53,500.28 L 603.85,500.01 L 604.32,499.74 L 605.05,499.09 L 605.28,498.82 L 605.42,498.49 L 605.69,497.82 L 605.83,497.27 L 605.94,496.91 L 606.11,496.65 L 606.37,496.44 L 606.65,496.17 L 606.98,495.92 L 607.21,495.65 L 607.31,495.44 L 607.41,495.32 L 607.51,495.21 L 607.69,494.92 L 607.86,494.74 L 608.05,494.64 L 608.49,494.53 L 608.87,494.51 L 609.45,494.50 L 609.92,494.44 L 610.23,494.38 L 610.54,494.16 L 610.71,493.83 L 611.02,493.40 L 611.36,492.86 L 612.07,491.26 L 612.41,490.45 L 612.90,489.63 L 613.29,488.97 L 613.57,488.19 L 613.80,487.66 L 614.23,487.22 L 614.92,486.69 L 615.42,486.21 L 615.99,485.69 L 616.22,485.28 L 616.60,484.60 L 617.00,483.31 L 617.29,482.33 L 617.45,481.71 L 617.62,481.18 L 617.87,480.56 L 618.25,479.87 L 618.79,479.10 L 619.14,478.79 L 619.85,478.21 L 620.27,478.02 L 620.84,477.80 L 621.40,477.26 L 621.79,476.94 L 622.28,476.51 L 622.82,476.02 L 623.32,475.71 L 623.87,475.52 L 624.25,475.39 L 625.05,475.14 L 625.37,475.01 L 625.95,474.65 L 626.74,474.03 L 627.68,473.48 L 628.30,473.06 L 629.09,472.51 L 630.78,471.79 L 632.35,470.99 L 633.71,470.20 L 635.07,469.27 L 636.41,468.36 L 637.53,467.53 L 638.47,466.58 L 638.70,466.38 L 640.06,466.18 L 641.31,466.18 L 642.89,466.19 L 644.05,466.09 L 644.53,466.26 L 645.10,466.35 L 645.75,466.32 L 646.29,466.21 L 646.80,466.05 L 647.70,465.75 L 648.48,465.45 L 648.91,465.21 L 649.27,464.94 L 649.66,464.53 L 650.14,463.82 L 650.45,463.05 L 650.72,462.49 L 650.92,462.06 L 651.67,461.60 L 653.02,461.58 L 654.30,461.58 L 655.58,461.62 L 656.82,461.66 L 658.20,461.35 L 659.38,460.97 L 659.56,460.88 L 660.07,460.83 L 660.73,460.76 L 661.46,460.56 L 661.91,460.26 L 662.35,459.87 L 662.80,459.47 L 663.19,458.95 L 663.64,458.29 L 663.88,457.79 L 664.23,457.26 L 664.42,456.88 L 664.57,456.49 L 664.74,456.02 L 664.80,455.44 L 664.84,455.08 L 664.90,454.83 L 665.07,454.30 L 665.33,453.93 L 665.60,453.60 L 665.81,453.40 L 666.12,453.09 L 666.34,452.85 L 666.63,452.48 L 666.82,452.13 L 666.91,451.80 L 667.04,451.13 L 667.10,450.64 L 667.20,450.01 L 667.21,449.22 L 667.33,448.61 L 667.49,448.29 L 668.09,447.69 L 668.47,447.33 L 669.12,447.04 L 669.86,446.76 L 669.90,446.74 L 670.24,446.61 L 672.80,446.12 L 673.74,445.62 L 674.24,445.53 L 674.94,445.36 L 675.63,445.14 L 676.48,444.71 L 677.28,444.22 L 678.12,443.61 L 679.11,442.86 L 679.58,442.46 L 680.26,441.69 L 680.77,441.10 L 681.66,440.28 L 682.12,439.92 L 682.51,439.68 L 682.93,439.50 L 683.47,439.29 L 684.11,438.95 L 684.73,438.55 L 685.20,438.33 L 685.83,438.06 L 686.70,437.55 L 687.60,437.17 L 688.15,436.80 L 688.47,436.59 L 688.58,436.55 L 688.93,436.43 L 689.23,436.29 L 689.69,436.11 L 690.16,436.04 L 690.85,435.71 L 691.97,435.10 L 692.54,434.75 L 693.35,434.32 L 694.06,433.94 L 694.61,433.52 L 695.04,433.20 L 695.69,432.78 L 696.27,432.25 L 696.76,431.82 L 697.39,431.17 L 697.62,430.97 L 697.90,430.73 L 697.97,430.67 L 698.29,430.36 L 698.68,430.11 L 699.00,429.93 L 699.43,429.74 L 699.84,429.56 L 700.25,429.52 L 700.62,429.49 L 701.11,429.47 L 701.50,429.32 L 701.92,429.11 L 702.22,428.88 L 702.58,428.58 L 703.06,428.25 L 703.32,428.12 L 703.70,428.05 L 704.07,428.05 L 704.52,428.07 L 704.83,428.12 L 705.32,428.02 L 705.67,427.92 L 706.04,427.73 L 706.50,427.50 L 706.88,427.24 L 707.30,426.99 L 707.55,426.90 L 707.98,426.63 L 708.76,426.31 L 709.40,426.14 L 709.86,426.00 L 710.19,425.95 L 711.58,425.23 L 712.47,424.75 L 713.34,424.32 L 714.51,423.65 L 715.60,422.96 L 716.57,422.35 L 717.29,422.03 L 718.07,421.57 L 718.63,421.13 L 719.08,420.76 L 719.40,420.38 L 719.61,420.00 L 719.91,419.54 L 720.25,419.01 L 720.71,418.39 L 721.12,417.94 L 721.69,417.26 L 722.09,416.87 L 722.58,416.17 L 723.11,415.44 L 723.42,414.91 L 723.74,414.36 L 724.01,413.77 L 724.20,413.30 L 724.43,412.62 L 724.50,412.32 L 724.59,412.04 L 724.81,411.63 L 725.19,411.15 L 725.36,410.94 L 725.52,410.82 L 725.90,410.55 L 726.11,410.39 L 726.56,410.15 L 727.34,409.84 L 726.79,409.01 L 725.35,406.86 L 724.41,405.14 L 723.85,402.52 L 722.39,401.95 L 720.28,401.27 L 713.42,399.65 L 710.22,397.73 L 706.80,395.13 L 703.73,392.71 L 701.17,392.48 L 699.88,391.00 L 698.29,389.48 L 696.29,388.70 L 692.87,387.43 L 690.86,384.78 L 672.10,352.83 L 672.11,352.69 L 672.11,352.11 L 671.33,351.52 L 670.47,350.05 L 667.41,331.97 L 672.71,313.52 L 672.88,313.42 L 673.26,313.16 L 673.71,312.89 L 674.33,312.54 L 675.03,312.28 L 675.50,312.13 L 675.90,312.01 L 676.43,311.80 L 676.85,311.57 L 677.97,310.82 L 678.66,310.40 L 679.28,309.90 L 679.85,309.42 L 680.26,309.06 L 681.02,308.70 L 682.17,308.29 L 682.88,308.06 L 683.65,307.69 L 684.24,307.12 L 684.78,306.41 L 685.21,305.91 L 685.51,305.61 L 685.94,305.28 L 686.36,304.89 L 686.71,304.57 L 687.13,304.35 L 687.54,304.29 L 688.03,304.31 L 688.68,304.33 L 689.00,304.34 L 689.40,304.37 L 690.48,304.58 L 691.18,304.75 L 691.70,304.87 L 692.16,304.87 L 692.51,304.83 L 692.87,304.52 L 693.31,304.08 L 693.61,303.67 L 693.79,303.40 L 694.01,302.95 L 694.23,302.63 L 694.46,302.20 L 694.81,301.41 L 695.04,300.86 L 695.30,300.50 L 695.86,300.21 L 696.23,300.03 L 696.73,299.92 L 697.21,299.94 L 698.10,299.93 L 698.76,299.91 L 699.42,299.86 L 700.03,299.83 L 700.75,299.71 L 701.35,299.59 L 702.14,299.40 L 703.52,299.08 L 704.49,298.85 L 705.60,298.64 L 706.09,298.48 L 706.59,298.31 L 707.19,298.09 L 707.66,297.84 L 708.18,297.57 L 708.53,297.44 L 708.89,297.35 L 709.22,297.26 L 709.60,297.06 L 709.98,296.90 L 710.40,296.68 L 710.66,296.53 L 710.90,296.29 L 711.17,296.04 L 711.52,295.77 L 711.73,295.60 L 711.90,295.51 L 712.15,295.37 L 712.32,295.26 L 712.52,295.19 L 712.90,295.20 L 713.21,295.20 L 713.58,295.23 L 713.93,295.32 L 714.35,295.42 L 714.71,295.47 L 714.98,295.47 L 715.47,295.46 L 715.78,295.41 L 716.02,295.36 L 716.20,295.31 L 716.39,295.28 L 716.60,295.24 L 716.75,295.25 L 716.94,295.27 L 717.14,295.37 L 717.29,295.47 L 717.72,295.77 L 717.96,296.04 L 718.25,296.34 L 718.67,296.66 L 719.14,296.94 L 719.53,297.04 L 719.82,297.10 L 720.28,297.11 L 720.50,297.06 L 720.87,296.90 L 721.06,296.81 L 721.60,296.54 L 722.03,296.33 L 722.24,296.18 L 722.42,295.97 L 722.64,295.76 L 722.96,295.57 L 723.19,295.45 L 723.38,295.35 L 723.52,295.34 L 723.66,295.35 L 723.79,295.42 L 723.98,295.60 L 724.11,295.78 L 724.38,296.04 L 724.56,296.20 L 724.80,296.27 L 725.04,296.34 L 725.44,296.63 L 726.19,297.10 L 726.68,297.41 L 727.21,297.61 L 727.68,297.65 L 727.86,297.66 L 728.40,297.67 L 728.96,297.65 L 729.45,297.56 L 729.92,297.50 L 730.23,297.35 L 730.73,297.17 L 731.20,296.86 L 731.72,296.58 L 732.01,296.43 L 732.29,296.36 L 732.50,296.32 L 732.69,296.33 L 732.86,296.36 L 733.08,296.41 L 733.51,296.63 L 733.72,296.74 L 733.94,296.92 L 734.19,297.09 L 734.50,297.37 L 734.87,297.61 L 735.10,297.61 L 735.31,297.59 L 735.51,297.49 L 735.71,297.42 L 735.95,297.36 L 736.18,297.34 L 736.42,297.33 L 736.52,297.35 L 736.73,297.38 L 736.85,297.44 L 737.07,297.49 L 737.28,297.49 L 737.59,297.44 L 738.22,297.23 L 739.09,297.39 L 741.07,297.66 L 741.61,297.77 L 742.08,297.92 L 742.51,298.16 L 742.69,298.36 L 742.80,298.63 L 742.82,298.79 L 742.86,298.95 L 742.92,299.10 L 743.02,299.23 L 743.11,299.33 L 743.21,299.35 L 743.39,299.35 L 743.49,299.34 L 743.55,299.25 L 743.58,299.07 L 743.63,298.87 L 743.68,298.71 L 743.79,298.47 L 744.01,298.25 L 744.19,298.17 L 744.43,298.11 L 744.68,298.12 L 744.96,298.13 L 745.30,298.14 L 745.63,298.14 L 745.93,298.09 L 746.20,298.01 L 746.51,297.86 L 746.85,297.67 L 747.27,297.44 L 747.57,297.31 L 747.94,297.21 L 748.74,297.14 L 749.36,297.12 L 750.42,297.17 L 753.48,297.63 L 754.78,297.74 L 756.32,297.72 L 757.24,297.50 L 758.83,296.35 L 761.88,293.39 L 765.10,290.70 L 767.83,287.89 L 768.39,285.81 L 771.47,282.95 L 772.87,281.02 L 773.59,279.48 L 773.95,278.70 L 775.10,277.74 L 775.75,277.48 L 777.06,276.71 L 777.61,276.35 L 778.08,275.54 L 778.40,274.48 L 778.64,272.92 L 780.75,270.83 L 783.11,268.56 L 784.46,266.96 L 785.59,262.94 L 786.58,261.01 L 786.72,259.33 L 786.58,258.91 L 786.02,256.51 L 786.82,254.73 L 788.95,250.97 L 789.57,249.17 L 790.00,246.94 L 789.83,244.88 L 789.62,242.84 L 789.00,240.67 L 788.86,238.64 L 788.56,234.52 L 788.11,230.55 L 787.74,228.37 L 787.24,226.79 L 786.18,224.58 L 786.38,220.86 L 785.20,219.62 L 783.20,218.51 L 784.48,217.84 L 784.82,217.27 L 785.05,216.60 L 784.50,213.78 L 783.56,211.65 L 785.41,209.13 L 785.63,208.40 L 785.20,206.75 L 784.66,205.65 L 784.66,205.19 L 784.91,204.42 L 785.51,203.34 L 785.85,202.61 L 785.79,201.77 L 785.48,199.89 L 785.74,197.73 L 786.07,195.58 L 786.16,194.98 L 785.96,194.58 L 785.67,194.31 L 784.65,194.01 L 782.75,193.69 L 780.76,193.36 L 780.16,192.85 L 778.18,190.05 L 775.16,188.14 L 770.37,185.56 L 770.03,185.80 L 769.12,186.43 L 767.64,187.40 L 766.34,187.97 L 764.60,188.73 L 763.75,189.40 L 762.67,190.94 L 761.60,192.43 L 760.59,193.33 L 758.80,194.77 L 757.55,195.52 L 756.78,195.77 L 755.82,195.91 L 755.58,195.90 L 755.11,195.88 L 754.57,195.66 L 752.61,194.35 L 750.99,192.99 L 749.37,191.63 L 748.98,191.88 L 747.01,193.15 L 745.76,193.69 L 744.77,193.96 L 743.86,194.07 L 743.66,194.04 L 742.82,193.94 L 741.14,193.57 L 740.32,193.14 L 739.89,192.79 L 739.26,192.04 L 738.78,191.71 L 737.61,191.31 L 734.24,190.70 L 732.91,190.35 L 732.42,190.00 L 731.60,189.25 L 730.29,187.10 L 728.58,184.79 L 727.58,183.87 L 725.89,182.88 L 723.70,181.86 L 722.90,179.50 L 722.90,178.63 L 723.27,175.97 L 723.38,174.14 L 720.93,172.55 L 718.24,171.27 L 715.68,169.71 L 715.11,168.69 L 714.46,167.03 L 712.98,164.09 L 712.60,162.87 L 712.40,160.38 L 712.29,158.66 L 711.40,157.58 L 710.12,155.89 L 709.15,153.84 L 709.63,152.39 L 710.03,150.37 L 710.56,148.71 L 710.87,146.87 L 710.47,146.12 L 710.04,143.83 L 709.61,141.92 L 709.21,139.75 L 708.33,138.45 L 706.96,136.70 L 706.05,135.33 L 705.63,134.37 L 705.43,133.10 L 705.14,131.67 L 704.71,130.84 L 704.34,130.46 L 703.86,130.16 L 703.83,130.15 L 702.73,129.63 L 699.72,128.83 L 698.61,128.67 L 698.46,128.69 L 697.95,128.78 L 695.80,129.86 L 694.07,129.81 L 692.03,129.76 L 690.09,129.92 L 689.61,129.87 L 687.79,129.69 L 687.09,129.34 L 686.04,128.64 L 684.33,127.54 L 683.59,127.22 L 681.06,126.09 L 679.25,124.54 L 678.34,123.98 L 677.00,123.52 L 676.84,123.58 L 675.24,124.19 L 673.54,125.14 L 671.50,126.06 L 669.59,126.71 L 668.03,126.98 L 666.82,127.14 L 665.05,126.88 L 663.43,126.64 L 663.04,127.04 L 662.25,128.06 L 660.43,129.91 L 660.29,130.06 L 658.74,131.32 L 656.72,132.35 L 654.25,133.35 L 653.57,133.73 L 652.43,134.49 L 650.56,135.60 L 648.61,136.37 L 644.97,137.41 L 640.13,138.47 L 638.51,138.58 L 637.71,138.56 L 637.27,138.43 L 635.75,137.99 L 634.72,137.54 L 632.88,136.28 L 630.61,134.67 L 629.69,134.24 L 628.64,133.89 L 628.48,133.87 L 627.79,133.78 L 626.71,133.89 L 624.04,134.58 L 621.77,135.61 L 620.32,135.61 L 620.26,135.45 L 619.46,133.38 L 617.75,130.74 L 616.57,129.68 L 616.32,129.46 L 613.16,126.60 L 612.70,124.95 L 611.64,120.66 L 611.27,120.32 L 609.36,119.01 L 609.13,118.50 L 609.13,116.69 L 609.47,115.69 L 610.57,113.40 L 610.91,112.69 L 611.18,111.36 L 611.27,110.52 L 611.26,108.50 L 611.14,107.18 L 611.51,105.52 L 612.41,102.25 L 610.93,100.49 L 609.31,99.06 L 607.66,97.67 L 606.73,97.13 L 606.42,97.04 L 606.07,96.94 L 604.42,96.79 L 602.72,96.55 L 601.22,96.26 L 599.99,95.80 L 599.93,95.77 L 599.37,95.40 L 598.85,94.94 L 598.42,94.32 L 598.08,93.60 L 597.65,91.35 L 597.48,90.65 L 597.22,90.11 L 596.76,89.41 L 596.36,88.84 L 595.94,88.46 L 595.37,88.14 L 595.09,88.04 L 594.49,87.82 L 592.67,87.18 L 591.07,86.51 L 590.97,86.45 L 590.19,86.00 L 588.59,84.95 L 587.08,84.03 L 586.70,83.86 L 585.23,83.17 L 582.97,82.50 L 581.33,82.10 L 579.90,81.89 L 579.46,81.78 L 578.29,80.92 L 576.44,79.21 L 574.80,77.63 L 574.02,76.73 L 572.73,75.49 L 572.51,75.30 L 571.85,75.18 L 570.51,75.30 L 568.38,75.66 L 566.38,75.79 L 564.80,75.63 L 563.26,75.55 L 562.58,75.46 L 561.78,75.20 L 560.51,74.16 L 559.82,73.60 L 559.44,73.06 L 558.73,71.96 L 558.45,70.86 L 558.00,69.84 L 557.27,69.49 L 556.18,69.53 L 554.92,69.45 L 553.56,69.02 L 553.09,68.90 L 551.77,67.83 L 550.98,66.97 L 549.44,65.82 L 547.89,64.86 L 546.70,64.18 L 544.82,63.61 L 543.64,63.44 L 543.07,62.75 L 542.74,62.50 L 541.71,62.40 L 540.37,61.97 L 538.49,61.38 Z" fill="#1d3672" stroke="#333" stroke-width="1"/>
</svg>