<svg xmlns="http://www.w3.org/2000/svg" width="800" height="600" viewBox="0 0 800 600">
<path d="M 665.38,38.61 L 665.01,38.58 L 664.92,38.61 L 664.91,38.61 L 663.95,38.88 L 663.81,38.91 L 663.18,39.06 L 661.20,39.94 L 660.24,40.37 L 658.59,41.24 L 657.32,41.92 L 655.48,42.50 L 654.58,42.85 L 652.81,43.25 L 651.95,43.50 L 650.64,44.02 L 649.87,44.20 L 648.65,44.47 L 648.65,44.48 L 648.55,44.50 L 647.78,44.81 L 647.52,45.00 L 647.43,45.07 L 646.41,45.83 L 645.86,46.34 L 644.79,47.26 L 643.87,47.81 L 643.66,47.85 L 642.12,47.92 L 640.68,48.02 L 639.14,48.16 L 637.97,48.21 L 636.71,48.39 L 636.27,48.52 L 635.64,48.53 L 635.15,48.51 L 633.87,48.36 L 633.24,48.30 L 632.01,48.31 L 631.31,48.42 L 629.38,48.98 L 629.12,49.06 L 626.95,49.48 L 625.83,49.61 L 624.35,49.86 L 623.97,49.87 L 623.70,49.87 L 622.86,49.74 L 621.74,49.75 L 620.73,49.87 L 618.75,50.14 L 617.79,50.37 L 616.24,50.82 L 616.14,50.85 L 616.14,50.86 L 614.61,51.47 L 614.11,51.67 L 611.41,52.55 L 610.47,52.84 L 608.50,53.58 L 607.57,53.95 L 607.11,54.12 L 606.09,54.29 L 604.79,54.38 L 603.72,54.29 L 602.19,54.22 L 600.69,54.31 L 599.26,54.51 L 597.60,54.80 L 596.50,55.02 L 594.99,55.11 L 592.72,55.20 L 590.22,55.04 L 589.04,54.98 L 587.22,54.96 L 586.25,55.06 L 584.80,54.89 L 583.39,54.63 L 581.55,54.22 L 580.55,54.13 L 579.62,54.13 L 578.58,54.14 L 577.52,54.27 L 575.60,54.30 L 574.51,54.44 L 573.45,54.48 L 572.50,54.36 L 571.79,54.20 L 571.31,54.02 L 570.43,53.56 L 569.63,53.14 L 568.61,52.81 L 568.24,52.77 L 567.87,52.91 L 567.81,52.95 L 567.77,52.97 L 567.01,53.48 L 566.96,53.52 L 566.16,53.85 L 565.64,53.95 L 563.32,53.85 L 560.76,53.69 L 558.10,53.64 L 555.42,53.59 L 554.33,53.63 L 552.48,53.55 L 551.66,53.40 L 549.84,53.07 L 549.06,52.97 L 548.72,52.81 L 547.15,52.41 L 546.51,52.33 L 545.13,51.90 L 544.24,51.56 L 542.33,50.83 L 541.21,50.38 L 540.58,50.17 L 540.34,50.16 L 540.26,50.16 L 539.93,50.15 L 539.29,50.19 L 539.04,50.26 L 538.73,50.38 L 537.67,50.72 L 536.64,51.08 L 534.89,51.41 L 533.65,51.74 L 532.12,52.20 L 531.42,52.35 L 530.89,52.53 L 528.88,53.01 L 526.19,53.51 L 525.04,53.67 L 523.79,53.92 L 522.99,53.99 L 522.38,54.17 L 521.46,54.43 L 520.43,54.80 L 519.97,54.88 L 519.68,54.81 L 519.31,54.64 L 517.24,53.68 L 515.20,52.83 L 514.34,52.49 L 512.80,51.67 L 512.16,51.35 L 511.86,51.29 L 510.64,51.14 L 509.76,51.12 L 508.79,51.16 L 508.00,51.25 L 507.02,51.33 L 505.98,51.50 L 504.59,51.72 L 502.97,52.01 L 501.98,52.10 L 501.04,52.20 L 500.20,52.13 L 499.17,52.16 L 498.39,52.18 L 497.71,52.06 L 496.41,51.87 L 496.12,51.79 L 495.83,51.72 L 494.92,51.23 L 494.30,50.83 L 492.46,49.74 L 490.29,48.74 L 489.40,48.27 L 488.30,47.84 L 488.10,47.79 L 487.85,47.77 L 487.51,47.75 L 486.88,47.84 L 486.26,47.93 L 485.77,48.06 L 485.53,48.15 L 478.82,49.23 L 478.78,49.38 L 478.66,49.41 L 478.53,49.50 L 478.47,49.63 L 478.42,49.76 L 478.33,50.69 L 478.22,51.54 L 478.15,52.11 L 477.98,53.51 L 477.93,54.60 L 477.92,54.86 L 477.91,55.78 L 477.97,56.41 L 478.06,56.87 L 478.22,58.17 L 478.35,58.27 L 478.58,58.45 L 479.43,58.97 L 480.31,59.18 L 480.90,59.31 L 481.97,59.93 L 483.90,61.17 L 484.56,61.71 L 485.05,62.37 L 485.17,63.28 L 484.90,64.49 L 484.24,65.33 L 483.61,66.08 L 483.24,66.98 L 483.09,67.33 L 482.62,68.39 L 482.09,69.85 L 482.70,70.30 L 484.19,71.42 L 485.62,72.38 L 486.49,72.85 L 487.30,73.29 L 487.59,73.39 L 488.05,73.48 L 488.33,73.48 L 488.72,73.56 L 488.72,73.62 L 488.71,74.10 L 488.63,74.61 L 488.40,75.64 L 488.18,76.36 L 487.94,77.07 L 487.25,78.90 L 487.14,79.20 L 486.88,79.73 L 486.64,80.36 L 486.29,81.19 L 485.84,82.09 L 485.44,83.08 L 485.12,83.52 L 484.80,83.82 L 484.32,83.70 L 482.79,83.26 L 481.62,82.95 L 479.65,82.41 L 478.55,82.19 L 477.56,81.84 L 476.59,81.32 L 476.11,81.06 L 475.01,80.36 L 474.20,79.81 L 472.28,78.52 L 471.44,78.07 L 470.88,77.95 L 470.38,77.96 L 469.37,78.19 L 468.91,78.40 L 468.59,78.58 L 468.35,78.80 L 468.15,78.99 L 467.69,79.45 L 467.43,79.71 L 466.95,80.26 L 466.63,80.56 L 466.48,80.88 L 463.94,83.89 L 459.48,91.20 L 456.78,91.81 L 449.05,91.01 L 448.77,90.83 L 447.36,89.97 L 446.52,89.63 L 446.04,89.36 L 444.88,88.93 L 444.64,88.98 L 444.54,89.00 L 444.47,89.08 L 444.44,89.08 L 444.13,89.40 L 443.45,90.09 L 443.08,90.53 L 442.68,90.21 L 442.30,89.93 L 441.17,89.94 L 440.72,89.83 L 439.16,89.62 L 438.31,89.43 L 437.64,89.29 L 436.57,89.00 L 436.11,89.04 L 435.54,89.19 L 434.86,89.60 L 434.09,90.09 L 433.52,90.28 L 433.21,90.16 L 432.49,89.17 L 432.13,88.96 L 432.13,88.96 L 431.94,88.88 L 431.64,88.89 L 431.40,88.96 L 431.06,89.04 L 429.88,89.00 L 429.55,88.93 L 429.20,88.85 L 428.46,88.59 L 428.46,88.71 L 428.36,88.67 L 428.34,89.14 L 428.29,90.19 L 428.34,90.61 L 428.62,91.49 L 428.78,92.08 L 428.94,92.44 L 429.05,93.64 L 429.10,94.03 L 429.18,95.23 L 429.08,96.75 L 428.96,97.58 L 428.97,98.51 L 428.58,99.64 L 428.57,99.96 L 428.43,100.88 L 428.33,101.19 L 428.53,102.68 L 428.60,103.94 L 428.77,104.45 L 429.15,104.89 L 428.33,105.65 L 427.32,106.34 L 426.36,106.90 L 425.99,106.99 L 425.52,107.09 L 424.31,107.29 L 423.06,107.48 L 422.70,107.64 L 422.65,107.70 L 422.60,107.72 L 421.66,108.92 L 420.99,110.00 L 420.87,110.05 L 419.73,110.05 L 418.39,110.02 L 417.82,109.89 L 417.05,109.79 L 416.73,109.72 L 415.28,109.05 L 415.20,109.15 L 415.18,109.14 L 414.97,109.38 L 414.51,110.21 L 413.95,111.61 L 413.38,112.99 L 412.92,114.07 L 412.88,114.17 L 415.66,114.69 L 420.42,116.75 L 426.80,119.84 L 423.63,127.64 L 422.32,130.72 L 419.70,133.90 L 417.12,137.06 L 414.66,137.50 L 410.89,138.09 L 410.11,134.66 L 406.56,136.71 L 402.61,138.64 L 393.82,143.13 L 394.13,143.44 L 394.22,143.94 L 393.89,144.42 L 393.28,144.97 L 392.89,145.20 L 391.94,145.56 L 391.38,145.84 L 390.82,146.46 L 390.67,146.85 L 390.73,147.36 L 391.20,148.06 L 391.80,148.98 L 392.14,149.89 L 392.35,150.72 L 392.33,151.87 L 392.07,152.95 L 391.81,153.74 L 390.94,155.93 L 390.75,156.28 L 389.99,157.69 L 389.43,158.58 L 389.19,159.02 L 388.79,159.76 L 388.73,160.18 L 388.79,160.93 L 389.17,161.59 L 389.67,161.88 L 390.35,161.92 L 390.74,161.81 L 391.87,160.95 L 392.88,159.92 L 393.99,158.95 L 394.60,158.69 L 394.90,158.66 L 395.25,158.73 L 395.61,158.93 L 396.69,160.00 L 397.55,161.11 L 397.77,161.43 L 398.55,162.77 L 399.11,163.71 L 399.75,164.40 L 400.38,164.94 L 401.01,165.32 L 401.71,165.55 L 402.53,165.53 L 403.20,165.38 L 404.14,164.86 L 405.38,163.66 L 405.95,162.43 L 405.93,161.64 L 405.71,160.09 L 405.76,159.48 L 406.24,159.00 L 406.58,158.94 L 407.30,158.97 L 408.56,159.19 L 409.91,159.62 L 410.65,159.76 L 411.88,159.80 L 413.37,159.59 L 414.57,159.55 L 415.18,159.65 L 416.18,160.02 L 417.11,160.82 L 418.10,162.09 L 419.16,163.72 L 419.97,164.73 L 420.20,165.12 L 420.22,165.66 L 420.01,166.29 L 419.79,166.60 L 418.92,167.64 L 418.51,167.98 L 418.00,168.05 L 417.49,167.82 L 417.25,167.59 L 415.89,165.93 L 415.16,164.82 L 414.31,163.82 L 413.71,163.34 L 413.00,162.98 L 412.26,162.80 L 411.60,162.82 L 410.91,163.09 L 410.29,163.48 L 408.21,165.48 L 407.12,166.88 L 406.63,167.45 L 405.97,168.44 L 405.76,169.15 L 405.52,170.33 L 405.03,172.28 L 404.80,172.90 L 403.98,174.84 L 403.74,175.47 L 403.71,176.03 L 403.85,177.03 L 404.17,177.55 L 404.85,177.84 L 405.83,178.02 L 407.51,177.89 L 408.74,177.84 L 409.27,177.88 L 410.26,178.18 L 411.47,178.85 L 411.98,179.35 L 412.19,179.82 L 412.13,180.18 L 411.77,180.67 L 410.75,182.13 L 409.55,183.19 L 408.48,184.05 L 407.83,184.83 L 407.60,185.24 L 407.56,185.65 L 407.70,186.06 L 408.32,186.51 L 408.39,186.51 L 408.49,192.10 L 408.54,194.54 L 408.06,196.37 L 407.00,199.17 L 406.58,201.50 L 405.11,204.16 L 403.80,206.64 L 403.51,208.70 L 403.18,212.68 L 402.73,217.03 L 402.72,219.00 L 402.85,221.65 L 403.28,226.92 L 403.30,227.38 L 403.75,230.25 L 403.40,231.42 L 403.00,234.44 L 402.92,235.28 L 403.04,242.09 L 403.11,244.73 L 402.81,248.66 L 402.79,252.76 L 402.95,255.35 L 402.95,258.68 L 403.35,265.51 L 403.22,265.77 L 403.25,266.19 L 403.24,266.67 L 403.15,267.32 L 403.11,267.96 L 403.37,268.46 L 403.63,269.05 L 403.59,269.21 L 403.40,269.86 L 403.54,270.37 L 403.75,270.91 L 403.86,271.02 L 403.91,271.22 L 403.78,271.54 L 403.66,271.90 L 403.77,272.32 L 404.24,272.87 L 404.68,273.32 L 404.80,273.68 L 404.46,273.99 L 403.87,274.08 L 403.80,275.86 L 403.56,277.24 L 402.75,279.09 L 402.66,279.56 L 402.79,280.40 L 402.93,281.61 L 402.80,282.02 L 401.53,283.60 L 400.23,284.84 L 399.21,286.23 L 398.90,287.55 L 398.59,289.28 L 397.47,289.25 L 395.71,288.82 L 394.34,288.86 L 392.48,289.14 L 389.84,289.98 L 387.51,290.89 L 386.04,291.70 L 385.99,291.74 L 385.50,292.06 L 384.43,292.73 L 382.92,292.92 L 381.65,292.94 L 381.09,292.55 L 380.36,291.84 L 380.25,291.75 L 379.72,291.48 L 378.00,290.19 L 378.00,290.19 L 377.24,289.57 L 376.61,288.99 L 375.42,287.91 L 375.05,287.47 L 373.56,286.34 L 372.84,285.86 L 371.99,285.31 L 371.29,285.12 L 368.58,285.01 L 366.18,284.91 L 365.43,284.84 L 363.23,284.74 L 361.83,284.35 L 360.50,284.03 L 360.47,284.02 L 358.31,283.25 L 356.24,282.23 L 354.99,281.18 L 353.45,279.42 L 351.97,278.10 L 351.33,277.64 L 350.66,277.19 L 349.76,276.91 L 348.23,276.85 L 346.98,277.06 L 345.34,277.52 L 343.51,277.65 L 342.06,277.68 L 340.61,277.65 L 340.16,277.51 L 339.67,277.14 L 339.07,276.49 L 338.56,275.62 L 338.43,275.03 L 338.52,274.40 L 338.65,273.67 L 338.67,273.24 L 338.52,272.88 L 338.28,272.51 L 337.92,272.31 L 336.87,272.03 L 335.32,271.58 L 332.18,270.75 L 327.74,269.58 L 327.68,269.55 L 328.18,271.02 L 328.55,272.24 L 328.43,273.42 L 328.43,273.42 L 328.47,275.26 L 327.39,277.96 L 325.59,282.46 L 324.50,285.19 L 324.63,288.11 L 325.40,288.93 L 325.40,288.93 L 325.41,288.97 L 325.33,289.19 L 325.05,289.88 L 324.91,290.16 L 324.73,290.61 L 324.59,291.05 L 324.43,291.68 L 324.42,291.70 L 324.24,291.95 L 323.95,292.29 L 323.64,292.67 L 323.57,292.87 L 323.56,293.03 L 323.60,293.22 L 323.68,293.56 L 323.76,293.81 L 323.82,294.01 L 323.82,294.15 L 323.78,294.37 L 323.69,294.51 L 323.60,294.63 L 323.47,294.75 L 323.31,294.87 L 322.94,295.17 L 322.78,295.40 L 322.62,295.70 L 322.41,295.99 L 322.26,296.14 L 322.03,296.30 L 321.88,296.41 L 321.62,296.64 L 321.46,296.86 L 321.32,297.08 L 321.23,297.30 L 321.19,297.53 L 321.11,297.85 L 321.01,298.24 L 321.13,298.84 L 321.05,299.97 L 320.97,300.56 L 321.01,301.25 L 320.91,301.81 L 320.68,302.31 L 320.58,302.92 L 320.63,303.48 L 320.97,303.99 L 321.41,304.48 L 321.92,304.91 L 321.64,305.48 L 321.54,306.04 L 321.74,306.59 L 322.05,307.59 L 321.93,308.29 L 321.59,308.73 L 321.31,309.11 L 320.95,309.57 L 320.47,310.03 L 320.22,310.45 L 319.63,311.29 L 319.37,311.77 L 319.11,312.30 L 318.83,312.81 L 318.62,313.34 L 318.37,313.88 L 318.17,314.54 L 318.08,315.10 L 317.97,315.62 L 317.85,316.24 L 317.57,317.79 L 317.46,318.36 L 317.29,318.90 L 317.19,319.99 L 317.10,320.64 L 316.79,321.22 L 316.78,321.64 L 315.66,321.76 L 314.89,321.82 L 314.63,321.79 L 314.39,321.70 L 314.16,321.57 L 314.06,321.45 L 313.95,321.16 L 313.89,320.86 L 313.82,320.44 L 313.78,320.11 L 313.64,319.79 L 313.38,319.35 L 313.19,319.13 L 313.12,318.95 L 313.09,318.62 L 313.04,318.32 L 313.00,318.04 L 312.93,317.85 L 312.80,317.65 L 312.61,317.54 L 312.30,317.47 L 311.96,317.48 L 311.54,317.70 L 311.16,317.90 L 310.88,318.01 L 310.60,318.08 L 310.29,318.11 L 309.61,318.08 L 309.29,318.02 L 308.97,317.87 L 308.60,317.67 L 308.44,317.57 L 308.27,317.52 L 308.14,317.50 L 307.98,317.50 L 307.72,317.53 L 307.46,317.61 L 307.19,317.71 L 306.95,317.85 L 306.74,317.99 L 306.26,318.09 L 305.97,318.07 L 305.71,318.02 L 305.41,317.93 L 304.96,317.64 L 304.66,317.38 L 304.43,317.23 L 304.24,317.12 L 304.08,317.12 L 303.88,317.11 L 303.69,317.13 L 303.42,317.12 L 303.30,317.09 L 303.17,317.03 L 303.02,316.98 L 302.93,316.71 L 302.48,317.04 L 302.05,317.44 L 301.18,318.14 L 300.60,318.34 L 300.01,318.11 L 299.45,317.89 L 299.45,317.89 L 299.33,317.84 L 298.78,317.92 L 297.67,318.22 L 297.20,318.36 L 297.18,318.47 L 297.12,318.58 L 297.03,318.64 L 296.89,318.64 L 296.83,318.60 L 296.70,318.47 L 296.58,318.22 L 296.50,318.09 L 296.43,318.04 L 296.35,317.99 L 296.31,318.00 L 296.24,318.04 L 296.15,318.13 L 296.12,318.19 L 296.13,318.36 L 296.17,318.59 L 296.24,318.69 L 296.26,318.76 L 296.25,318.85 L 296.17,318.90 L 295.90,318.95 L 295.50,318.96 L 295.24,318.91 L 295.06,318.80 L 294.96,318.66 L 294.94,318.52 L 294.96,318.36 L 295.05,318.19 L 295.23,317.95 L 294.71,317.70 L 293.22,316.96 L 291.63,316.18 L 290.53,315.76 L 289.98,315.68 L 289.38,315.80 L 288.88,316.12 L 288.36,316.45 L 287.76,316.69 L 287.16,316.69 L 286.67,316.55 L 286.20,316.29 L 285.04,315.72 L 283.75,314.91 L 282.64,314.46 L 281.46,314.25 L 280.28,314.25 L 279.69,314.30 L 279.24,314.48 L 277.91,315.56 L 276.62,316.64 L 275.70,317.27 L 274.31,317.99 L 273.33,318.49 L 272.95,318.90 L 272.85,318.28 L 272.75,317.69 L 272.89,316.64 L 273.05,315.62 L 273.37,314.68 L 273.51,314.12 L 273.40,313.63 L 273.01,313.30 L 272.58,312.95 L 271.63,312.54 L 271.15,312.31 L 270.36,311.68 L 269.62,310.99 L 269.16,310.65 L 268.25,309.90 L 267.46,309.35 L 266.59,308.69 L 266.33,308.13 L 266.04,306.62 L 265.25,305.84 L 264.61,304.97 L 263.84,304.01 L 263.12,303.34 L 262.66,303.08 L 262.10,302.96 L 261.62,303.24 L 261.33,303.60 L 261.16,304.59 L 260.61,305.07 L 260.06,304.86 L 259.72,304.48 L 259.60,303.99 L 259.27,303.71 L 258.17,304.19 L 258.53,306.38 L 258.06,306.70 L 257.01,306.71 L 256.40,307.01 L 255.78,307.94 L 254.90,308.71 L 254.53,309.08 L 254.04,309.17 L 253.05,309.44 L 252.70,309.75 L 253.21,310.39 L 253.38,310.63 L 253.36,311.34 L 252.93,311.46 L 252.50,311.71 L 251.47,311.58 L 250.52,311.87 L 248.94,312.24 L 248.34,312.15 L 247.19,312.37 L 245.76,312.90 L 244.19,313.44 L 243.17,313.56 L 242.62,313.36 L 242.27,313.05 L 242.04,312.64 L 241.86,312.33 L 241.49,312.10 L 240.71,311.37 L 240.01,310.86 L 238.68,309.42 L 238.02,308.42 L 236.83,306.76 L 235.63,305.05 L 235.02,304.08 L 233.99,302.13 L 232.48,300.01 L 231.67,299.28 L 231.12,299.45 L 229.31,299.84 L 227.23,300.39 L 225.63,300.83 L 224.71,301.34 L 223.17,302.00 L 220.92,302.94 L 220.31,303.37 L 218.92,304.34 L 217.74,305.49 L 215.86,306.97 L 214.11,308.05 L 210.47,311.91 L 208.62,314.53 L 208.17,315.15 L 205.45,317.35 L 203.21,320.15 L 201.32,322.73 L 201.33,324.69 L 202.05,328.97 L 202.53,331.17 L 203.60,332.77 L 204.11,334.75 L 204.39,335.26 L 205.24,335.99 L 206.39,335.68 L 207.66,334.67 L 208.06,332.78 L 208.73,331.48 L 208.96,328.68 L 210.28,328.59 L 210.81,330.75 L 213.74,329.98 L 215.54,330.82 L 215.33,332.84 L 215.74,336.42 L 215.77,344.76 L 217.76,346.40 L 218.15,347.82 L 218.27,349.41 L 217.91,350.66 L 217.82,352.27 L 218.69,352.55 L 220.02,353.03 L 220.57,353.30 L 220.92,353.83 L 221.19,354.27 L 222.00,354.32 L 221.85,354.83 L 221.62,355.28 L 222.32,355.57 L 223.17,356.04 L 223.82,356.53 L 222.91,357.65 L 222.60,358.10 L 222.13,358.85 L 221.80,359.29 L 222.03,360.67 L 222.11,361.15 L 222.11,361.46 L 224.15,381.80 L 102.52,493.84 L 55.30,519.51 L 54.68,520.02 L 54.34,520.20 L 53.46,520.58 L 52.95,520.79 L 52.62,520.98 L 52.21,521.42 L 52.08,521.73 L 52.04,522.00 L 52.13,522.40 L 52.47,522.97 L 52.55,523.30 L 52.61,523.73 L 52.59,523.94 L 52.44,524.34 L 52.39,524.72 L 52.53,525.12 L 52.97,525.74 L 53.12,526.03 L 53.48,526.54 L 53.63,527.15 L 53.90,528.01 L 54.29,528.77 L 54.61,529.50 L 54.95,530.20 L 55.38,530.85 L 55.56,531.23 L 55.53,531.46 L 55.29,531.70 L 54.97,531.87 L 54.13,532.13 L 53.44,532.33 L 52.67,532.59 L 51.98,532.62 L 51.47,532.56 L 50.87,532.31 L 50.48,532.02 L 49.46,531.31 L 48.86,530.94 L 48.35,530.74 L 47.92,530.70 L 47.75,530.74 L 47.67,530.82 L 47.72,530.94 L 47.93,531.22 L 48.08,531.50 L 48.16,531.81 L 48.09,532.08 L 47.61,532.60 L 46.36,533.52 L 45.87,534.00 L 44.74,534.85 L 44.05,535.54 L 42.99,536.60 L 42.09,537.60 L 41.43,538.31 L 40.56,539.13 L 40.13,539.68 L 39.99,539.98 L 39.93,540.22 L 40.03,540.45 L 40.34,540.76 L 40.73,540.86 L 41.73,541.06 L 42.65,541.14 L 43.51,541.11 L 44.02,541.08 L 44.49,541.01 L 45.14,540.87 L 45.48,540.75 L 45.85,540.70 L 46.17,540.69 L 46.67,540.75 L 47.18,540.87 L 47.69,541.09 L 48.19,541.42 L 48.43,541.66 L 48.52,541.86 L 48.55,542.08 L 48.47,542.45 L 48.16,543.57 L 47.80,544.80 L 47.63,545.35 L 47.49,545.65 L 47.38,546.03 L 47.41,546.28 L 47.50,546.43 L 47.70,546.62 L 48.15,546.83 L 48.49,546.97 L 48.97,547.14 L 49.27,547.28 L 49.38,547.38 L 48.99,547.84 L 48.82,548.14 L 48.71,548.28 L 48.53,548.67 L 48.43,548.99 L 48.35,549.49 L 48.37,549.89 L 48.47,550.51 L 48.52,551.41 L 48.64,551.99 L 48.77,552.55 L 48.82,553.03 L 48.82,553.83 L 48.81,554.25 L 48.81,554.61 L 48.86,555.00 L 48.94,555.38 L 48.96,555.59 L 48.75,555.77 L 48.33,555.90 L 47.70,555.94 L 47.01,555.78 L 46.42,555.68 L 45.79,555.42 L 45.12,555.06 L 44.57,554.75 L 44.13,554.40 L 43.65,554.07 L 43.28,553.82 L 42.85,553.61 L 42.44,553.50 L 42.18,553.41 L 41.86,553.33 L 41.49,553.27 L 41.13,553.32 L 40.74,553.54 L 40.52,553.79 L 40.37,554.10 L 40.24,554.82 L 40.27,555.26 L 40.35,555.63 L 40.50,556.10 L 40.76,556.82 L 40.93,557.23 L 41.05,557.59 L 41.12,557.94 L 41.14,558.31 L 41.09,558.67 L 40.89,558.99 L 40.65,559.20 L 40.28,559.36 L 39.87,559.48 L 39.51,559.55 L 39.25,559.58 L 38.94,559.54 L 38.73,559.48 L 38.48,559.41 L 38.19,559.29 L 37.94,559.11 L 37.57,558.81 L 37.29,558.52 L 37.20,558.37 L 37.00,558.03 L 36.87,557.70 L 36.74,557.39 L 36.61,557.06 L 36.46,556.85 L 36.32,556.66 L 36.15,556.52 L 35.96,556.44 L 35.65,556.38 L 35.31,556.42 L 35.01,556.47 L 34.72,556.55 L 34.30,556.73 L 33.78,557.11 L 33.17,557.47 L 32.62,557.76 L 32.19,557.94 L 31.72,558.08 L 31.17,558.09 L 30.78,558.08 L 30.45,558.07 L 30.09,558.09 L 29.81,558.16 L 29.47,558.32 L 29.19,558.47 L 28.89,558.70 L 28.66,558.95 L 28.56,559.17 L 28.54,559.47 L 28.63,559.84 L 28.78,560.43 L 28.92,560.90 L 29.13,561.44 L 29.25,561.72 L 29.33,562.03 L 29.35,562.29 L 29.33,562.50 L 29.26,562.79 L 29.13,563.18 L 28.97,563.57 L 28.79,563.99 L 28.70,564.28 L 28.62,564.49 L 28.56,564.74 L 28.53,565.11 L 28.60,565.50 L 28.71,565.99 L 28.76,566.27 L 28.73,566.57 L 28.69,566.83 L 28.62,567.10 L 28.49,567.41 L 28.27,567.74 L 28.05,568.09 L 27.82,568.41 L 27.60,568.65 L 27.38,568.79 L 27.09,568.82 L 26.89,568.80 L 26.71,568.77 L 26.54,568.65 L 26.39,568.47 L 26.29,568.33 L 26.17,568.11 L 26.00,567.85 L 25.95,567.57 L 25.94,567.30 L 25.93,566.86 L 26.00,566.46 L 26.04,566.12 L 26.03,565.94 L 26.02,565.67 L 25.99,565.44 L 25.92,565.23 L 25.82,565.07 L 25.68,564.95 L 25.43,564.85 L 25.13,564.82 L 24.82,564.82 L 24.41,564.84 L 24.05,564.92 L 23.63,565.03 L 23.23,565.16 L 22.85,565.25 L 22.68,565.28 L 22.31,565.07 L 22.03,564.87 L 21.61,564.60 L 21.41,564.37 L 21.19,564.07 L 21.02,563.78 L 20.81,563.42 L 20.56,562.99 L 20.38,562.61 L 20.14,562.14 L 19.89,561.66 L 19.58,561.09 L 19.44,560.80 L 19.18,560.43 L 18.96,560.09 L 18.69,559.63 L 18.48,559.24 L 18.29,558.84 L 18.22,558.53 L 18.17,557.94 L 18.13,557.63 L 18.07,557.33 L 17.95,557.00 L 17.78,556.67 L 17.57,556.24 L 17.38,555.84 L 17.14,555.38 L 17.00,555.13 L 16.82,554.90 L 16.60,554.65 L 16.35,554.39 L 16.16,554.25 L 15.97,554.15 L 15.83,554.11 L 15.64,554.12 L 15.41,554.20 L 15.23,554.36 L 14.93,554.60 L 14.64,554.87 L 14.28,555.23 L 14.04,555.41 L 13.97,555.51 L 13.96,555.78 L 13.95,556.46 L 13.99,557.06 L 13.98,557.37 L 13.91,557.76 L 13.90,558.21 L 13.89,558.62 L 13.86,559.06 L 13.83,559.55 L 13.80,560.02 L 13.81,560.46 L 13.74,560.78 L 13.67,561.04 L 13.61,561.29 L 13.56,561.48 L 13.46,561.65 L 13.21,561.94 L 12.98,562.19 L 12.84,562.45 L 12.71,562.85 L 12.61,563.33 L 12.53,563.91 L 12.47,564.45 L 12.47,564.84 L 12.47,565.40 L 12.50,565.70 L 12.53,566.00 L 12.56,566.29 L 12.56,566.62 L 12.47,567.05 L 12.39,567.42 L 12.35,567.74 L 12.35,568.17 L 12.32,568.64 L 12.31,569.06 L 12.37,569.57 L 12.45,570.04 L 12.49,570.33 L 12.43,570.73 L 12.39,571.10 L 12.32,571.31 L 12.16,571.62 L 11.98,571.94 L 11.89,572.27 L 11.87,572.55 L 11.84,572.73 L 11.85,573.30 L 11.83,573.93 L 11.85,574.65 L 11.83,575.23 L 11.80,575.52 L 11.76,576.04 L 11.76,576.41 L 11.69,576.80 L 11.57,577.19 L 11.39,577.62 L 11.22,578.03 L 11.09,578.35 L 11.04,578.62 L 10.99,578.86 L 10.97,579.21 L 10.96,579.57 L 10.98,579.78 L 11.05,580.13 L 11.12,580.71 L 11.06,581.19 L 10.97,581.83 L 10.84,583.31 L 10.74,583.90 L 10.65,584.50 L 10.43,585.11 L 10.42,585.13 L 10.00,585.95 L 10.58,586.18 L 11.43,586.20 L 12.76,586.16 L 13.79,586.23 L 15.05,586.44 L 16.45,586.46 L 17.69,586.42 L 18.54,586.29 L 18.56,587.58 L 18.58,589.23 L 18.59,589.84 L 19.73,589.91 L 20.75,590.00 L 22.02,589.90 L 24.55,589.61 L 27.05,589.31 L 28.52,589.24 L 29.70,589.08 L 31.03,588.83 L 32.21,588.55 L 33.53,588.12 L 34.66,587.75 L 35.96,587.44 L 37.82,586.96 L 38.90,586.68 L 39.68,586.51 L 40.24,586.32 L 40.96,586.09 L 41.65,585.88 L 42.21,585.72 L 42.60,585.58 L 42.72,586.11 L 42.85,586.65 L 42.90,586.87 L 43.24,586.83 L 43.81,586.75 L 44.47,586.61 L 45.41,586.45 L 46.02,586.50 L 47.02,586.76 L 48.41,587.02 L 49.38,587.16 L 49.59,587.17 L 49.96,587.19 L 50.57,587.29 L 50.97,587.32 L 51.53,587.43 L 52.09,587.58 L 52.70,587.61 L 53.42,587.68 L 54.75,587.91 L 55.54,588.02 L 55.94,588.09 L 56.73,588.07 L 57.02,588.04 L 58.14,587.73 L 59.27,587.38 L 60.20,587.06 L 60.70,586.75 L 60.96,586.50 L 61.42,586.05 L 61.89,585.61 L 62.79,584.78 L 62.97,584.80 L 63.59,584.96 L 63.80,584.99 L 64.10,584.93 L 64.81,584.73 L 65.95,584.44 L 67.14,584.18 L 68.02,583.96 L 68.80,583.74 L 68.98,583.66 L 69.13,583.50 L 69.52,582.79 L 70.03,582.00 L 70.48,581.30 L 70.85,580.68 L 71.45,579.75 L 71.68,579.46 L 71.99,579.11 L 72.40,579.70 L 72.60,579.98 L 73.02,580.54 L 73.45,581.05 L 73.88,581.57 L 74.02,581.69 L 74.70,581.89 L 75.13,582.03 L 75.43,582.27 L 75.64,582.44 L 75.86,582.64 L 75.86,582.94 L 75.69,583.25 L 75.32,583.75 L 75.35,583.84 L 75.47,583.96 L 75.66,584.04 L 76.14,584.17 L 76.55,584.26 L 76.88,584.24 L 77.13,584.18 L 77.34,584.15 L 77.52,584.22 L 77.94,584.59 L 78.17,584.92 L 78.28,585.00 L 79.11,584.63 L 80.10,584.13 L 80.84,583.74 L 81.47,583.51 L 81.80,583.43 L 81.99,583.43 L 82.61,583.34 L 83.26,583.28 L 83.99,583.16 L 84.71,583.05 L 85.53,582.95 L 86.22,582.89 L 87.62,582.77 L 88.30,582.72 L 88.95,582.65 L 89.99,582.58 L 90.91,582.48 L 91.56,582.45 L 92.62,582.37 L 93.58,582.30 L 95.03,582.17 L 95.56,582.13 L 96.49,582.02 L 96.69,581.99 L 97.72,581.79 L 100.41,581.22 L 102.26,581.50 L 104.15,579.64 L 104.76,579.65 L 110.22,579.64 L 111.41,577.13 L 113.48,577.71 L 116.07,576.98 L 117.59,575.67 L 119.52,575.75 L 121.57,575.90 L 124.33,575.98 L 124.74,575.05 L 126.74,574.94 L 129.27,574.75 L 131.94,574.52 L 134.86,574.43 L 135.81,574.29 L 136.81,573.42 L 138.50,573.40 L 141.34,573.34 L 145.23,573.19 L 148.18,573.14 L 151.87,573.35 L 154.98,574.01 L 158.16,574.68 L 161.95,575.49 L 165.66,576.64 L 169.91,577.84 L 172.43,578.05 L 178.04,578.58 L 181.43,578.89 L 184.72,576.06 L 187.28,576.50 L 190.69,576.99 L 190.67,576.54 L 190.18,575.85 L 189.37,574.63 L 188.91,573.45 L 191.74,574.37 L 196.06,575.81 L 199.91,577.00 L 200.60,575.15 L 203.48,575.74 L 205.69,576.22 L 209.27,576.98 L 213.77,578.05 L 213.73,575.96 L 213.61,572.69 L 214.14,572.45 L 214.82,572.20 L 215.45,572.17 L 215.87,572.17 L 216.81,572.17 L 217.34,572.19 L 217.69,572.23 L 218.78,572.22 L 219.31,572.24 L 219.58,572.22 L 219.56,571.79 L 219.59,571.11 L 219.63,570.45 L 219.64,569.84 L 219.68,569.60 L 219.83,569.41 L 220.14,569.23 L 220.63,569.04 L 220.98,568.95 L 221.42,568.79 L 221.56,568.70 L 221.66,568.55 L 221.73,568.41 L 221.78,568.22 L 221.79,568.16 L 221.79,567.81 L 221.76,567.42 L 221.74,566.97 L 221.68,566.62 L 221.60,566.34 L 221.45,566.13 L 221.38,565.90 L 221.31,565.79 L 221.26,565.73 L 221.04,565.30 L 220.80,564.86 L 220.62,564.59 L 220.49,564.28 L 220.46,564.14 L 220.46,564.00 L 220.54,563.72 L 220.66,563.50 L 220.87,563.16 L 221.12,562.87 L 221.36,562.56 L 221.42,562.28 L 221.42,562.08 L 221.26,561.72 L 221.16,561.58 L 220.98,561.27 L 220.40,560.40 L 219.97,559.74 L 219.50,559.00 L 219.17,558.40 L 219.12,558.28 L 218.99,557.91 L 218.94,557.53 L 218.90,557.13 L 218.98,556.64 L 219.12,556.17 L 219.27,555.70 L 219.42,555.41 L 219.57,555.13 L 219.83,554.66 L 220.22,553.88 L 220.43,553.51 L 220.65,553.03 L 220.71,552.75 L 220.83,552.09 L 220.77,551.83 L 220.68,551.56 L 220.59,551.23 L 220.57,550.98 L 220.51,550.46 L 220.51,550.15 L 220.51,549.80 L 220.55,549.33 L 220.58,549.15 L 220.71,548.83 L 220.78,548.55 L 220.82,548.21 L 220.93,547.84 L 220.97,547.55 L 221.13,547.11 L 221.46,546.65 L 221.74,546.47 L 222.13,546.30 L 222.61,546.08 L 223.24,545.71 L 223.53,545.57 L 223.78,545.40 L 224.45,545.03 L 225.66,544.50 L 226.05,544.26 L 226.28,544.10 L 226.39,543.93 L 226.66,543.50 L 226.80,543.29 L 227.01,542.98 L 227.17,542.60 L 227.30,542.17 L 227.38,541.83 L 227.48,541.39 L 227.50,541.11 L 227.54,540.93 L 227.73,540.37 L 227.84,540.20 L 228.01,539.54 L 228.16,539.17 L 228.98,539.26 L 229.68,539.38 L 230.37,539.53 L 231.76,539.74 L 232.37,539.85 L 232.83,539.94 L 233.99,540.16 L 234.55,540.28 L 234.77,540.24 L 234.93,540.10 L 235.21,539.91 L 235.32,539.75 L 235.51,539.47 L 235.60,539.21 L 235.80,538.71 L 236.20,537.72 L 236.54,536.92 L 237.10,535.86 L 237.20,535.55 L 237.25,535.22 L 237.40,534.95 L 237.53,534.43 L 237.75,533.79 L 237.84,533.42 L 237.91,533.04 L 237.96,532.76 L 238.09,531.91 L 238.12,531.81 L 238.37,531.73 L 238.83,531.60 L 239.39,531.43 L 240.01,531.31 L 240.55,531.15 L 241.71,530.85 L 242.01,530.74 L 242.54,530.62 L 242.89,530.48 L 245.48,529.79 L 245.90,529.62 L 246.68,529.49 L 247.10,529.43 L 247.54,529.40 L 248.09,529.63 L 248.60,529.94 L 249.32,530.35 L 249.60,530.51 L 250.41,530.99 L 251.47,531.56 L 252.28,531.95 L 252.99,532.34 L 253.77,532.74 L 253.80,532.76 L 254.29,532.82 L 254.96,532.85 L 255.75,532.98 L 256.30,533.05 L 257.40,533.13 L 257.94,533.21 L 258.29,533.45 L 258.52,533.76 L 258.59,533.86 L 258.78,534.43 L 258.85,534.78 L 258.85,535.58 L 258.95,536.23 L 259.06,536.51 L 259.14,536.72 L 259.26,536.96 L 259.46,537.18 L 260.33,538.41 L 260.63,538.88 L 261.08,539.48 L 261.38,539.96 L 261.58,540.44 L 261.70,540.70 L 261.92,541.30 L 262.11,542.11 L 262.20,542.47 L 262.52,543.07 L 262.68,543.32 L 262.96,543.43 L 263.22,543.52 L 263.43,543.56 L 263.64,543.59 L 263.96,543.61 L 264.24,543.60 L 264.69,543.49 L 265.00,543.44 L 265.28,543.41 L 265.84,543.35 L 266.44,543.25 L 267.12,543.07 L 267.89,542.87 L 268.19,542.84 L 268.44,542.79 L 268.64,542.76 L 268.78,542.76 L 269.02,542.76 L 269.23,542.80 L 269.74,542.98 L 270.07,543.20 L 270.54,543.82 L 270.85,544.46 L 271.22,545.18 L 271.37,545.51 L 271.50,546.06 L 271.59,546.64 L 271.84,548.07 L 271.91,548.71 L 271.95,549.04 L 272.20,549.32 L 272.73,549.75 L 273.08,550.13 L 273.52,550.79 L 273.67,551.19 L 273.73,551.28 L 273.82,551.36 L 273.92,551.45 L 274.17,551.54 L 274.47,551.66 L 274.78,551.78 L 275.36,552.06 L 275.97,552.51 L 276.35,552.96 L 277.10,553.96 L 277.39,554.36 L 277.65,554.79 L 277.84,555.05 L 277.95,555.19 L 278.04,555.16 L 278.38,554.97 L 279.80,554.37 L 280.22,554.16 L 280.45,554.08 L 280.65,553.98 L 281.19,553.74 L 281.54,553.70 L 281.98,553.63 L 282.79,553.61 L 283.35,553.60 L 283.95,553.60 L 285.44,553.74 L 286.14,553.87 L 286.86,554.13 L 287.45,554.51 L 287.81,554.83 L 288.16,555.12 L 288.44,555.52 L 288.72,555.92 L 289.22,557.02 L 289.64,558.01 L 289.76,558.30 L 289.97,558.46 L 290.13,558.61 L 290.34,558.68 L 290.64,558.52 L 291.20,558.36 L 291.57,558.13 L 291.85,557.98 L 292.09,557.86 L 293.20,557.27 L 293.61,556.96 L 293.92,556.68 L 294.47,556.20 L 294.85,555.65 L 295.00,555.32 L 295.25,554.81 L 295.45,554.33 L 295.63,553.97 L 295.82,553.65 L 296.01,553.51 L 296.27,553.44 L 296.58,553.37 L 296.88,553.37 L 297.17,553.35 L 298.23,553.34 L 298.54,553.24 L 298.99,552.94 L 299.41,552.64 L 299.78,552.20 L 299.96,551.96 L 300.48,551.34 L 300.73,551.10 L 301.05,550.71 L 301.35,550.49 L 301.61,550.28 L 301.90,550.14 L 302.19,549.99 L 302.42,549.94 L 302.74,549.83 L 303.38,549.67 L 303.76,549.65 L 304.11,549.63 L 304.69,549.68 L 305.08,549.74 L 305.63,550.18 L 306.29,551.06 L 307.00,551.90 L 307.55,552.22 L 308.15,552.48 L 309.07,552.78 L 309.88,552.98 L 310.88,553.20 L 312.83,553.70 L 313.78,553.82 L 314.50,553.98 L 315.26,554.29 L 316.48,555.12 L 316.96,555.49 L 317.59,555.89 L 318.68,556.32 L 319.12,556.45 L 320.09,556.48 L 320.73,556.44 L 321.93,556.30 L 322.71,556.16 L 324.14,555.86 L 324.98,555.74 L 325.92,555.72 L 326.09,555.71 L 326.24,555.65 L 326.39,555.54 L 326.49,555.41 L 326.55,555.26 L 326.63,555.07 L 326.71,554.65 L 326.86,553.92 L 326.98,553.02 L 327.02,552.63 L 327.07,552.44 L 327.11,552.23 L 327.15,551.90 L 327.23,551.47 L 327.28,551.35 L 327.45,551.25 L 327.73,551.17 L 328.20,551.09 L 328.66,551.15 L 329.06,551.22 L 329.23,551.27 L 331.18,551.44 L 331.84,551.32 L 332.26,551.27 L 332.94,551.17 L 333.22,551.13 L 333.24,551.73 L 333.53,552.36 L 333.61,552.59 L 334.01,552.56 L 334.56,553.35 L 335.32,553.84 L 336.02,554.27 L 337.28,554.79 L 337.97,555.07 L 338.09,555.10 L 338.21,555.13 L 338.28,555.13 L 338.57,554.95 L 338.80,554.77 L 339.45,554.16 L 339.74,553.88 L 340.02,553.64 L 340.68,553.16 L 340.99,553.04 L 341.39,552.81 L 341.94,552.52 L 342.72,552.02 L 343.24,551.86 L 343.79,551.71 L 344.18,551.70 L 344.97,551.65 L 345.57,551.61 L 345.93,551.46 L 346.38,551.21 L 346.74,551.01 L 348.11,550.14 L 348.30,550.04 L 348.71,549.94 L 349.00,549.85 L 350.41,549.57 L 351.01,549.43 L 352.50,549.13 L 352.88,549.00 L 353.21,548.89 L 353.87,548.72 L 354.45,548.62 L 355.01,548.38 L 355.29,548.23 L 355.52,548.12 L 355.95,547.82 L 355.97,547.82 L 356.17,547.62 L 356.28,547.41 L 356.57,546.87 L 356.72,546.44 L 356.99,545.66 L 357.16,545.18 L 357.28,544.88 L 357.48,544.49 L 357.79,544.24 L 358.40,543.74 L 359.15,543.10 L 359.95,542.51 L 360.75,541.88 L 360.98,541.73 L 361.25,541.62 L 361.62,541.51 L 361.80,541.48 L 362.30,541.48 L 362.61,541.57 L 363.44,541.79 L 363.46,541.79 L 363.91,541.89 L 364.52,541.98 L 364.82,541.95 L 365.52,541.83 L 365.78,541.76 L 366.21,541.69 L 367.62,541.27 L 368.28,540.96 L 368.83,540.73 L 369.75,540.25 L 370.28,539.95 L 371.23,539.39 L 371.66,538.95 L 371.97,538.59 L 372.16,538.19 L 372.24,537.78 L 372.18,537.32 L 371.96,536.52 L 371.86,536.12 L 371.68,535.68 L 371.57,535.35 L 371.35,534.92 L 371.10,534.32 L 371.10,534.12 L 371.13,533.92 L 371.22,533.78 L 371.46,533.70 L 371.89,533.57 L 372.17,533.52 L 372.90,533.38 L 373.41,533.38 L 374.04,533.39 L 374.68,533.42 L 375.09,533.43 L 376.38,533.42 L 377.07,533.45 L 377.80,533.53 L 378.48,533.58 L 379.37,533.97 L 380.72,534.71 L 381.40,535.01 L 381.93,535.36 L 382.48,535.68 L 382.51,535.78 L 384.90,535.83 L 386.72,535.73 L 388.60,535.64 L 390.31,535.33 L 391.77,535.03 L 393.07,534.95 L 394.14,534.69 L 394.60,536.04 L 394.87,537.02 L 395.53,538.54 L 396.02,539.55 L 396.21,540.40 L 398.08,539.77 L 400.12,538.73 L 402.37,537.62 L 403.50,536.94 L 404.10,536.71 L 405.21,536.29 L 407.34,535.71 L 408.78,535.64 L 409.39,535.58 L 410.48,535.20 L 411.08,535.00 L 412.21,534.79 L 412.81,534.65 L 413.39,534.40 L 413.99,534.97 L 415.03,535.57 L 416.24,535.95 L 417.64,536.17 L 418.26,536.32 L 418.98,536.36 L 419.64,537.92 L 420.36,539.00 L 420.93,540.10 L 421.30,540.90 L 422.05,542.13 L 422.43,542.85 L 423.31,543.76 L 423.57,543.93 L 424.45,544.54 L 425.06,544.72 L 425.91,544.83 L 426.95,544.75 L 427.99,544.67 L 430.36,544.44 L 432.42,544.20 L 433.79,543.60 L 434.39,543.20 L 435.01,543.62 L 435.14,543.71 L 436.02,544.59 L 436.83,544.95 L 437.36,544.97 L 437.96,544.49 L 438.76,543.31 L 439.48,542.49 L 439.49,542.49 L 439.60,542.55 L 439.84,542.76 L 439.92,542.90 L 440.05,543.06 L 440.15,543.22 L 440.41,543.37 L 440.53,543.49 L 440.56,543.56 L 440.90,543.85 L 441.20,544.07 L 441.34,544.16 L 441.42,544.26 L 441.51,544.49 L 441.64,544.66 L 441.93,544.92 L 442.18,545.05 L 442.43,545.14 L 442.60,545.25 L 442.69,545.38 L 443.67,545.27 L 444.67,545.20 L 446.17,545.07 L 447.15,544.99 L 447.65,544.89 L 448.16,544.80 L 448.71,544.87 L 448.95,544.89 L 449.59,544.87 L 449.83,543.81 L 449.97,543.16 L 450.12,542.53 L 451.21,542.24 L 451.91,542.08 L 453.17,541.66 L 454.55,541.38 L 455.22,541.17 L 457.45,540.60 L 458.24,540.34 L 458.87,540.04 L 459.54,539.75 L 461.52,538.52 L 462.11,538.07 L 462.71,537.54 L 463.23,537.12 L 463.77,536.69 L 465.07,536.10 L 465.69,535.80 L 466.32,535.33 L 467.35,534.63 L 467.84,534.27 L 469.60,533.02 L 470.70,532.23 L 471.14,531.86 L 471.73,531.58 L 472.35,531.38 L 472.93,531.14 L 473.69,530.95 L 475.13,530.48 L 475.78,530.34 L 477.42,530.20 L 477.94,530.17 L 477.45,530.62 L 477.13,530.97 L 476.92,531.27 L 476.73,531.70 L 476.71,531.86 L 476.66,532.20 L 476.67,532.41 L 476.72,532.56 L 476.81,532.73 L 476.90,532.84 L 477.02,532.95 L 477.25,533.06 L 477.44,533.11 L 477.97,533.09 L 478.24,533.07 L 478.41,533.11 L 478.49,533.15 L 478.65,533.06 L 478.97,533.05 L 479.27,533.08 L 480.03,533.22 L 480.86,533.43 L 481.55,533.62 L 483.01,533.99 L 483.67,534.13 L 485.13,534.49 L 485.93,534.65 L 486.70,534.65 L 488.17,534.49 L 488.83,534.38 L 489.94,534.12 L 490.63,533.94 L 491.28,533.76 L 491.73,533.51 L 492.05,533.11 L 492.06,532.57 L 492.23,531.79 L 492.51,530.95 L 492.68,530.22 L 492.82,529.58 L 493.20,528.86 L 493.50,528.04 L 494.12,527.34 L 494.44,526.96 L 494.77,526.57 L 494.98,525.69 L 495.37,525.23 L 495.47,524.77 L 495.30,524.23 L 495.01,523.80 L 494.76,523.40 L 496.14,522.88 L 496.99,522.83 L 498.29,522.52 L 499.20,522.49 L 500.76,522.21 L 501.99,521.82 L 503.33,521.32 L 503.97,521.09 L 505.56,519.69 L 506.63,518.34 L 507.05,516.73 L 507.26,516.11 L 507.49,515.32 L 508.46,514.70 L 510.41,513.00 L 511.70,512.00 L 512.63,511.09 L 514.18,512.85 L 515.21,513.88 L 515.70,514.09 L 517.23,514.06 L 519.14,513.39 L 520.16,512.70 L 521.04,511.66 L 521.52,510.66 L 521.91,509.74 L 521.95,509.26 L 522.40,507.51 L 522.56,506.29 L 522.85,505.44 L 523.04,505.23 L 524.12,505.20 L 524.90,505.16 L 526.00,505.25 L 526.71,505.38 L 526.87,505.28 L 527.00,505.19 L 527.85,503.73 L 528.95,502.42 L 529.76,501.48 L 531.28,499.64 L 533.00,497.51 L 533.43,497.08 L 534.30,496.47 L 535.24,496.08 L 536.02,495.46 L 536.64,494.67 L 537.34,493.77 L 537.99,492.55 L 538.41,491.70 L 539.16,490.76 L 540.01,490.02 L 540.46,489.57 L 541.36,489.07 L 542.95,488.38 L 544.60,488.02 L 545.87,487.44 L 547.98,486.62 L 549.64,486.22 L 550.87,486.13 L 552.46,486.64 L 554.30,487.40 L 555.34,487.68 L 555.96,489.02 L 556.42,490.48 L 556.51,492.00 L 556.82,493.09 L 557.38,494.00 L 557.86,494.95 L 557.93,495.86 L 557.67,497.66 L 558.22,498.39 L 559.16,499.42 L 558.97,501.23 L 557.73,504.46 L 557.28,505.41 L 557.09,506.32 L 557.48,507.87 L 557.73,508.30 L 557.88,508.30 L 558.03,508.30 L 558.42,508.06 L 559.26,506.47 L 559.97,505.19 L 561.08,503.49 L 561.73,502.66 L 562.44,501.60 L 562.77,501.18 L 563.73,499.94 L 564.18,499.08 L 564.74,498.17 L 565.16,497.04 L 565.48,496.53 L 566.21,495.42 L 569.02,495.67 L 568.84,495.20 L 568.78,494.92 L 568.84,494.65 L 568.93,494.23 L 568.81,493.95 L 568.57,493.65 L 568.37,493.42 L 568.37,493.15 L 568.43,492.91 L 568.59,492.66 L 568.72,492.44 L 568.83,492.19 L 569.03,491.83 L 569.06,491.51 L 569.21,491.37 L 569.45,491.29 L 569.52,491.14 L 569.52,490.95 L 570.54,491.23 L 571.62,491.37 L 573.50,491.29 L 574.63,491.21 L 575.28,491.15 L 576.86,490.86 L 577.33,490.74 L 578.18,490.23 L 578.62,490.12 L 579.57,490.18 L 580.57,489.65 L 582.02,489.73 L 583.95,489.83 L 585.31,489.61 L 586.70,489.30 L 587.91,489.14 L 588.69,489.07 L 589.44,489.51 L 589.54,489.52 L 589.60,488.87 L 589.62,488.52 L 589.27,487.96 L 589.01,487.58 L 588.88,487.21 L 588.83,486.89 L 588.78,486.54 L 588.51,486.02 L 588.41,485.66 L 588.45,485.20 L 588.35,484.35 L 588.13,483.64 L 587.72,482.82 L 587.47,482.35 L 587.34,481.95 L 587.30,480.99 L 587.31,480.44 L 587.34,479.64 L 587.32,479.44 L 587.16,479.13 L 586.72,478.38 L 586.45,477.79 L 586.19,476.99 L 586.17,476.67 L 586.24,476.37 L 586.11,475.99 L 585.91,475.79 L 585.57,475.69 L 585.40,475.62 L 585.02,475.42 L 584.85,475.22 L 584.83,475.07 L 584.88,474.75 L 585.01,474.49 L 585.69,474.65 L 586.60,474.71 L 587.49,474.65 L 587.97,474.68 L 589.99,474.86 L 590.89,474.89 L 591.66,474.83 L 590.19,473.81 L 588.84,473.06 L 587.24,472.16 L 583.28,469.81 L 580.78,468.38 L 579.84,467.70 L 578.12,466.61 L 578.13,464.74 L 578.34,462.74 L 578.45,461.85 L 578.69,461.16 L 578.89,460.76 L 579.77,459.60 L 580.48,458.80 L 581.28,457.12 L 582.09,455.27 L 582.73,454.37 L 583.20,453.62 L 583.40,452.92 L 583.30,451.85 L 583.03,450.82 L 582.86,449.94 L 582.94,449.15 L 583.50,447.88 L 584.24,446.56 L 584.47,446.25 L 582.43,446.14 L 580.51,446.11 L 579.18,446.03 L 578.39,445.82 L 577.55,445.47 L 575.92,445.30 L 575.43,445.22 L 575.43,444.68 L 575.46,444.06 L 575.28,443.65 L 575.26,443.39 L 575.34,443.20 L 575.62,443.02 L 575.84,442.94 L 576.37,441.90 L 576.52,441.55 L 576.58,441.25 L 576.59,440.68 L 576.70,439.88 L 576.59,439.31 L 576.35,438.65 L 576.13,438.07 L 575.98,437.46 L 576.01,436.98 L 575.97,436.61 L 575.89,436.25 L 575.74,435.90 L 575.63,435.66 L 576.56,435.86 L 577.83,436.34 L 579.24,436.62 L 580.24,436.77 L 581.16,436.70 L 582.16,436.61 L 582.98,436.57 L 584.82,436.42 L 586.56,436.26 L 588.10,436.23 L 589.57,435.95 L 590.99,435.67 L 592.46,435.46 L 593.69,435.28 L 594.94,435.06 L 595.61,434.93 L 595.01,434.48 L 593.36,433.54 L 593.15,433.21 L 592.80,431.54 L 592.56,430.32 L 592.18,428.80 L 591.92,427.53 L 595.54,428.16 L 598.05,428.65 L 599.76,428.99 L 601.75,429.05 L 602.99,429.11 L 604.15,428.88 L 604.07,426.70 L 604.14,424.22 L 604.14,421.92 L 604.07,420.57 L 604.17,419.47 L 604.27,418.34 L 604.53,417.76 L 604.33,417.24 L 604.14,416.22 L 604.07,414.91 L 604.11,414.45 L 604.33,414.29 L 605.74,414.24 L 608.07,414.11 L 608.57,414.01 L 608.91,414.38 L 609.24,415.24 L 610.06,415.62 L 611.56,416.37 L 612.33,416.65 L 613.35,417.16 L 614.23,417.41 L 615.26,417.22 L 616.52,417.05 L 618.01,416.80 L 619.77,416.64 L 621.40,416.44 L 622.94,416.36 L 624.48,416.16 L 625.96,416.03 L 626.93,416.03 L 627.97,416.21 L 629.45,416.10 L 630.35,415.92 L 631.97,415.60 L 632.92,415.59 L 633.26,415.53 L 633.26,414.97 L 633.23,414.33 L 633.15,413.75 L 632.98,413.42 L 632.92,413.02 L 632.97,412.51 L 632.98,412.16 L 633.13,411.77 L 634.06,410.49 L 634.43,409.98 L 634.98,409.23 L 635.38,408.65 L 635.83,407.96 L 636.22,407.52 L 637.58,408.75 L 638.69,409.56 L 639.41,410.03 L 640.04,410.51 L 640.48,410.63 L 641.31,410.47 L 642.98,410.34 L 644.42,410.32 L 645.69,410.27 L 646.72,410.23 L 647.96,410.14 L 648.51,410.25 L 648.88,410.46 L 649.47,411.10 L 650.01,411.50 L 650.93,411.64 L 652.32,411.76 L 652.92,411.74 L 653.85,411.70 L 653.84,410.61 L 653.40,409.97 L 652.87,409.15 L 652.48,408.80 L 651.80,407.92 L 651.52,407.35 L 651.49,406.60 L 651.37,405.56 L 651.42,404.69 L 651.50,403.95 L 651.44,403.15 L 651.36,401.63 L 651.21,401.23 L 650.98,400.70 L 650.77,400.17 L 650.71,399.82 L 650.76,399.57 L 651.03,399.27 L 651.21,399.16 L 651.67,399.16 L 652.11,399.30 L 652.46,399.65 L 652.75,400.10 L 652.80,400.91 L 653.00,401.28 L 653.49,401.63 L 653.72,401.77 L 654.78,401.74 L 655.48,401.56 L 656.17,400.82 L 656.55,400.53 L 656.94,400.08 L 657.52,399.69 L 658.30,399.24 L 659.11,399.00 L 659.79,398.70 L 660.50,398.69 L 661.48,398.96 L 662.88,399.41 L 663.78,399.96 L 664.14,400.33 L 664.58,400.59 L 664.45,400.04 L 664.55,398.68 L 664.75,397.78 L 664.86,397.56 L 665.29,397.42 L 666.29,397.29 L 667.42,397.10 L 668.57,397.31 L 670.83,399.09 L 672.83,400.63 L 672.84,400.30 L 672.71,399.54 L 672.72,399.12 L 672.79,398.38 L 672.90,397.16 L 673.15,394.80 L 673.27,392.69 L 673.30,391.40 L 673.26,388.11 L 673.13,386.21 L 673.11,385.88 L 673.01,384.51 L 673.05,383.26 L 673.11,381.83 L 673.20,380.54 L 673.32,380.21 L 672.98,380.15 L 672.61,379.77 L 672.12,379.05 L 670.99,377.06 L 670.17,375.23 L 669.62,374.38 L 669.13,373.35 L 668.57,371.93 L 668.19,371.52 L 667.68,370.89 L 665.71,367.17 L 665.66,366.73 L 665.56,366.26 L 665.29,365.19 L 664.90,364.02 L 664.71,362.98 L 664.59,362.12 L 664.48,361.24 L 664.19,360.62 L 663.75,359.86 L 663.15,359.05 L 662.97,358.60 L 662.91,357.85 L 662.83,357.01 L 662.94,356.39 L 662.67,356.19 L 660.00,353.75 L 659.79,353.57 L 658.38,352.41 L 660.12,345.11 L 660.51,343.84 L 660.58,343.61 L 660.87,342.50 L 660.72,342.41 L 660.49,342.18 L 659.56,341.46 L 659.22,341.16 L 658.77,340.63 L 658.42,339.50 L 658.46,338.73 L 658.77,338.27 L 659.32,337.89 L 659.63,337.59 L 659.78,336.95 L 659.85,336.26 L 660.12,335.29 L 660.05,335.01 L 660.03,334.92 L 659.68,334.51 L 659.23,334.06 L 658.34,333.19 L 657.78,332.76 L 657.49,332.61 L 656.59,331.86 L 656.20,331.57 L 655.62,331.31 L 655.05,331.00 L 654.30,330.56 L 653.64,330.36 L 653.23,330.25 L 652.79,330.00 L 652.09,329.34 L 651.21,328.37 L 650.53,327.56 L 649.55,326.34 L 649.29,325.98 L 648.81,325.33 L 648.23,324.51 L 648.04,324.38 L 647.63,324.08 L 647.29,323.77 L 647.07,323.70 L 646.60,323.70 L 646.19,323.65 L 645.90,323.53 L 645.51,323.51 L 644.83,323.73 L 644.31,323.93 L 643.85,323.98 L 643.47,323.92 L 642.97,323.65 L 642.59,323.37 L 642.31,323.23 L 641.95,323.22 L 641.53,323.28 L 641.10,323.31 L 640.74,323.31 L 640.23,323.09 L 640.01,323.07 L 630.25,319.08 L 630.28,318.16 L 630.19,316.74 L 629.93,315.77 L 629.57,315.08 L 628.45,313.62 L 627.96,312.92 L 627.43,312.37 L 627.67,312.17 L 628.45,311.50 L 629.83,310.79 L 630.37,310.66 L 630.69,310.49 L 630.87,309.59 L 630.79,309.21 L 630.49,308.53 L 630.45,308.35 L 630.59,307.76 L 630.69,307.01 L 630.99,306.18 L 631.43,305.23 L 631.66,304.29 L 631.16,303.74 L 630.26,302.51 L 630.11,302.26 L 629.55,301.32 L 629.01,300.43 L 628.50,299.74 L 627.72,298.83 L 626.97,297.95 L 626.22,296.85 L 626.07,296.42 L 625.70,295.58 L 625.27,294.52 L 624.82,293.52 L 624.39,292.91 L 624.02,292.56 L 623.33,292.02 L 623.20,291.68 L 622.21,290.93 L 621.07,290.19 L 620.28,289.60 L 617.55,285.92 L 616.97,284.61 L 616.63,283.82 L 616.14,282.58 L 615.77,281.63 L 615.34,281.14 L 615.00,280.61 L 614.92,280.22 L 614.86,279.79 L 614.76,279.46 L 614.51,279.18 L 614.06,278.80 L 613.52,278.41 L 612.98,277.83 L 612.55,277.42 L 612.26,276.85 L 612.06,276.31 L 611.95,275.62 L 611.92,275.22 L 611.91,275.11 L 611.85,274.23 L 611.84,273.21 L 611.75,272.18 L 611.63,270.14 L 611.65,269.40 L 611.59,268.59 L 611.63,267.28 L 611.65,266.69 L 611.75,266.01 L 611.93,264.57 L 611.96,264.36 L 612.07,263.48 L 612.15,262.74 L 612.13,261.95 L 612.29,261.45 L 612.50,260.96 L 613.09,260.02 L 614.41,257.91 L 614.72,257.36 L 615.11,256.73 L 615.44,256.40 L 615.77,256.15 L 616.37,255.72 L 617.28,255.12 L 618.11,254.71 L 619.12,254.27 L 619.76,253.94 L 620.91,253.38 L 621.56,253.08 L 622.68,252.52 L 623.74,252.02 L 624.35,251.71 L 625.24,251.28 L 625.85,251.06 L 627.21,250.69 L 628.12,250.46 L 628.90,250.24 L 629.59,250.67 L 630.83,251.40 L 632.31,252.33 L 633.01,252.05 L 633.84,251.64 L 634.18,251.55 L 634.56,252.03 L 635.36,252.79 L 636.48,253.30 L 637.39,253.47 L 637.76,253.36 L 638.24,253.06 L 639.44,252.14 L 640.49,251.42 L 641.42,250.87 L 643.10,249.75 L 643.85,249.12 L 644.00,248.82 L 643.92,248.47 L 643.72,247.98 L 643.06,247.01 L 642.87,246.73 L 642.41,246.41 L 641.86,245.97 L 641.78,245.57 L 641.81,245.28 L 641.88,244.70 L 641.95,244.00 L 642.18,242.61 L 642.26,242.20 L 642.35,241.74 L 642.58,241.75 L 643.73,241.77 L 645.12,241.79 L 646.78,242.03 L 648.25,242.09 L 649.23,242.07 L 650.43,242.08 L 651.73,242.13 L 652.61,242.21 L 653.24,242.33 L 653.93,242.45 L 655.29,242.84 L 656.19,243.12 L 656.78,243.35 L 657.69,243.74 L 657.94,243.98 L 658.25,244.77 L 658.57,245.64 L 659.38,245.73 L 660.90,245.83 L 663.02,245.80 L 663.61,245.82 L 664.79,245.80 L 665.59,245.86 L 666.41,245.85 L 666.92,245.84 L 667.71,245.71 L 669.31,245.43 L 670.69,245.21 L 671.92,244.91 L 672.69,244.80 L 673.61,244.84 L 674.40,244.95 L 675.28,245.22 L 676.42,245.32 L 677.23,245.31 L 677.70,245.34 L 678.10,245.39 L 678.70,245.23 L 679.33,244.81 L 680.02,244.37 L 680.88,244.14 L 681.67,244.07 L 682.82,243.97 L 683.00,243.95 L 683.19,243.94 L 683.80,243.93 L 687.78,243.10 L 687.82,243.11 L 689.52,243.58 L 692.69,244.45 L 695.61,247.44 L 696.40,247.53 L 698.49,248.52 L 698.94,249.68 L 699.46,250.37 L 699.93,250.96 L 700.37,251.47 L 701.29,252.03 L 704.16,253.30 L 707.83,254.27 L 708.73,254.50 L 709.84,254.47 L 713.14,254.87 L 714.73,255.93 L 716.16,256.28 L 716.24,256.31 L 719.33,257.40 L 719.92,257.89 L 720.04,257.89 L 721.85,257.84 L 724.77,257.70 L 726.00,257.67 L 727.85,257.72 L 729.47,257.78 L 730.93,258.34 L 734.15,259.55 L 735.09,259.87 L 736.56,260.38 L 738.72,261.13 L 738.87,261.19 L 740.04,261.69 L 742.86,263.15 L 744.67,264.08 L 746.05,264.61 L 749.55,265.85 L 751.91,266.64 L 755.32,267.38 L 755.56,267.42 L 758.81,266.75 L 760.25,266.53 L 761.76,266.38 L 764.11,266.39 L 765.89,266.36 L 767.45,266.46 L 767.53,266.43 L 768.51,266.03 L 768.54,266.04 L 771.04,266.76 L 773.05,267.06 L 773.89,267.17 L 774.28,267.22 L 774.38,267.18 L 777.41,266.05 L 778.19,264.79 L 779.10,263.53 L 780.54,262.42 L 780.63,262.42 L 781.72,262.49 L 781.76,262.45 L 781.86,262.46 L 782.61,261.53 L 783.24,260.85 L 784.33,259.63 L 785.99,257.78 L 786.42,257.29 L 789.45,256.25 L 790.00,256.02 L 789.86,254.82 L 788.92,252.91 L 788.05,251.01 L 787.64,249.42 L 787.18,247.64 L 787.08,247.21 L 787.02,246.98 L 786.48,246.40 L 785.24,245.73 L 783.94,244.86 L 781.80,243.26 L 780.49,241.97 L 779.82,241.36 L 778.55,240.19 L 776.74,238.38 L 776.35,237.95 L 775.01,236.75 L 774.57,236.43 L 774.49,236.49 L 774.44,236.46 L 774.10,236.69 L 773.98,236.75 L 773.07,237.24 L 771.83,238.05 L 771.35,238.34 L 769.12,239.00 L 767.84,239.53 L 767.60,239.50 L 767.54,239.54 L 767.47,239.53 L 767.19,239.70 L 766.89,239.82 L 766.78,239.90 L 766.63,240.03 L 766.44,240.21 L 766.29,240.30 L 766.15,240.33 L 765.96,240.36 L 765.87,240.38 L 765.83,240.39 L 765.45,240.48 L 764.84,240.75 L 764.27,241.10 L 762.86,241.71 L 762.04,241.93 L 761.98,241.94 L 761.36,242.03 L 760.82,242.02 L 760.37,241.94 L 758.01,241.13 L 757.44,240.84 L 757.31,240.65 L 757.25,240.47 L 757.22,239.44 L 757.22,237.80 L 756.09,236.05 L 755.32,234.87 L 755.21,234.37 L 754.76,232.61 L 754.67,232.37 L 754.59,232.13 L 754.70,230.70 L 755.34,229.11 L 755.14,227.24 L 755.04,226.30 L 755.18,225.53 L 755.52,223.62 L 755.97,221.80 L 756.15,221.10 L 756.28,221.07 L 756.52,220.15 L 756.62,219.76 L 757.18,219.77 L 757.17,219.75 L 756.89,219.01 L 756.63,218.47 L 756.36,217.87 L 756.17,217.07 L 756.13,216.91 L 755.94,216.18 L 755.93,215.26 L 755.87,214.36 L 755.87,213.85 L 755.83,211.91 L 755.75,210.11 L 755.65,208.67 L 755.51,207.61 L 755.24,206.72 L 755.15,206.18 L 755.13,204.39 L 755.04,202.55 L 754.86,200.78 L 754.57,199.13 L 754.43,197.65 L 754.21,195.95 L 753.95,194.36 L 753.73,192.71 L 753.70,190.95 L 753.65,189.20 L 753.58,187.44 L 753.49,185.81 L 753.35,184.01 L 753.21,182.58 L 753.19,182.37 L 753.58,181.92 L 753.65,181.83 L 754.18,181.21 L 755.36,179.67 L 755.98,178.77 L 755.62,177.87 L 755.30,177.05 L 754.97,176.13 L 754.33,174.53 L 753.74,172.95 L 753.14,171.28 L 752.91,170.76 L 751.86,169.36 L 750.59,167.63 L 750.33,167.25 L 749.50,166.45 L 748.82,164.81 L 747.84,163.15 L 747.45,162.51 L 747.19,161.81 L 746.06,160.18 L 745.59,159.29 L 745.32,158.54 L 744.68,156.97 L 744.58,156.73 L 745.14,156.32 L 745.12,155.82 L 744.96,155.34 L 744.48,153.80 L 744.01,151.89 L 743.49,150.02 L 743.35,148.39 L 743.24,146.59 L 743.22,145.61 L 743.21,144.67 L 743.10,143.81 L 743.24,143.81 L 743.20,143.53 L 743.12,142.81 L 743.01,141.15 L 742.92,140.00 L 742.85,138.35 L 742.88,137.55 L 743.09,136.53 L 742.41,135.02 L 742.32,134.78 L 741.40,133.48 L 740.40,132.13 L 739.63,130.65 L 738.68,128.90 L 737.68,127.07 L 737.24,126.26 L 736.64,125.32 L 736.10,124.29 L 735.85,123.84 L 734.81,123.26 L 733.31,122.35 L 732.52,120.83 L 732.01,119.51 L 731.82,118.88 L 731.60,118.17 L 731.37,116.82 L 731.09,115.01 L 730.98,114.14 L 730.87,113.33 L 730.66,111.66 L 730.62,111.49 L 730.11,110.13 L 729.55,108.84 L 728.86,107.18 L 728.45,106.21 L 728.12,105.48 L 727.33,103.69 L 726.69,102.26 L 726.15,100.73 L 725.62,100.34 L 725.52,100.20 L 725.40,99.97 L 725.22,99.69 L 725.05,99.36 L 724.93,99.11 L 724.78,98.92 L 724.63,98.70 L 724.57,98.59 L 724.41,98.44 L 724.17,98.26 L 723.85,98.06 L 723.68,97.98 L 723.43,97.86 L 723.09,97.60 L 722.39,97.06 L 722.23,96.89 L 721.78,96.53 L 721.62,96.42 L 721.33,96.33 L 720.69,96.17 L 720.13,96.00 L 719.92,95.93 L 719.59,95.86 L 719.32,95.82 L 719.20,95.84 L 718.95,95.87 L 718.88,95.78 L 718.54,95.10 L 718.30,94.66 L 718.20,94.48 L 718.08,94.39 L 717.86,94.27 L 717.66,94.17 L 717.44,94.05 L 717.23,93.94 L 716.96,93.75 L 716.77,93.65 L 716.58,93.54 L 716.45,93.43 L 716.20,93.30 L 716.06,93.21 L 715.87,93.19 L 715.79,93.21 L 715.76,93.21 L 715.60,93.24 L 715.43,93.26 L 715.15,93.28 L 714.87,93.31 L 714.67,93.26 L 714.45,93.09 L 714.26,92.83 L 714.16,92.86 L 714.15,92.84 L 710.87,93.84 L 710.69,93.83 L 709.48,93.51 L 708.31,92.05 L 707.90,91.11 L 707.84,90.65 L 707.78,89.71 L 707.94,89.25 L 708.17,88.68 L 708.18,88.35 L 707.96,87.88 L 706.99,86.36 L 706.72,85.83 L 707.01,85.03 L 707.24,84.17 L 707.68,83.20 L 707.92,82.81 L 708.43,82.14 L 708.94,81.46 L 708.71,81.39 L 708.35,81.39 L 708.30,81.40 L 708.24,81.40 L 707.61,81.58 L 706.89,81.92 L 706.66,81.95 L 706.50,81.85 L 704.86,80.81 L 704.49,80.61 L 703.96,80.28 L 702.91,79.21 L 701.38,77.76 L 700.78,77.25 L 699.39,76.35 L 698.26,75.35 L 697.74,74.91 L 696.90,74.46 L 696.10,73.97 L 695.39,72.55 L 694.56,70.87 L 694.06,69.85 L 693.77,69.47 L 692.71,68.08 L 692.29,67.67 L 691.72,67.65 L 691.67,67.66 L 691.62,67.66 L 690.57,67.98 L 689.60,66.94 L 688.25,65.46 L 687.43,64.12 L 687.10,63.59 L 687.01,63.55 L 687.22,63.01 L 687.46,62.32 L 687.55,61.87 L 687.55,61.54 L 687.43,61.29 L 687.28,61.17 L 687.24,61.14 L 686.88,60.92 L 686.25,60.62 L 685.64,60.37 L 685.07,60.21 L 684.55,60.08 L 684.50,60.08 L 684.06,60.02 L 683.80,60.05 L 683.53,60.13 L 683.27,60.20 L 682.70,60.23 L 682.29,60.08 L 681.25,59.51 L 680.44,59.15 L 679.94,59.07 L 679.72,59.09 L 679.03,59.48 L 678.73,59.78 L 671.67,56.57 L 671.41,56.41 L 670.79,56.09 L 670.14,55.75 L 668.50,54.99 L 667.68,54.67 L 666.94,54.30 L 666.22,53.86 L 665.73,53.49 L 665.58,53.28 L 665.47,53.04 L 665.46,52.87 L 665.53,52.66 L 665.74,52.16 L 666.10,51.43 L 666.13,51.18 L 666.09,50.86 L 665.98,50.26 L 665.99,49.87 L 666.03,49.48 L 666.02,48.89 L 665.99,48.52 L 665.86,48.29 L 665.46,47.67 L 664.80,46.78 L 664.40,46.10 L 664.31,45.90 L 664.27,45.55 L 664.30,45.33 L 664.39,45.12 L 664.59,44.89 L 664.84,44.75 L 665.12,44.68 L 665.98,44.59 L 667.27,44.60 L 667.36,44.58 L 667.37,44.58 L 668.27,44.38 L 668.66,44.07 L 668.99,43.73 L 669.21,43.34 L 669.36,42.79 L 669.39,42.40 L 669.32,41.76 L 669.18,41.48 L 668.93,41.05 L 668.49,40.65 L 667.89,40.29 L 667.28,39.93 L 666.59,39.50 L 665.86,39.08 L 665.38,38.61 Z" fill="#1d3672" stroke="#333" stroke-width="1"/>
</svg>