<svg xmlns="http://www.w3.org/2000/svg" width="800" height="600" viewBox="0 0 800 600">
<path d="M 611.63,10.27 L 610.46,10.00 L 609.40,10.02 L 608.91,10.10 L 607.82,10.27 L 607.32,10.46 L 606.92,10.61 L 606.21,10.98 L 606.13,11.05 L 606.08,11.08 L 605.74,11.37 L 604.73,12.21 L 604.18,12.87 L 603.37,13.89 L 603.16,14.33 L 603.15,14.39 L 603.11,14.50 L 602.87,15.43 L 602.82,15.80 L 602.70,16.47 L 602.64,17.06 L 602.70,17.52 L 603.08,18.18 L 603.29,18.61 L 603.45,19.00 L 603.58,19.69 L 603.62,20.34 L 603.75,21.27 L 603.72,21.64 L 603.59,22.03 L 603.41,22.51 L 602.76,23.62 L 602.27,24.42 L 601.67,24.93 L 601.31,25.12 L 599.95,25.84 L 598.65,26.26 L 598.05,26.28 L 597.82,26.29 L 596.44,26.19 L 594.66,26.08 L 593.39,26.08 L 592.72,26.07 L 590.28,25.74 L 588.87,25.53 L 587.00,25.39 L 585.27,25.07 L 584.06,24.87 L 583.45,24.79 L 581.63,24.59 L 581.12,24.53 L 579.80,24.33 L 578.53,23.79 L 578.17,23.57 L 577.84,23.37 L 576.82,22.47 L 576.48,22.15 L 575.70,21.32 L 575.59,20.94 L 575.50,20.66 L 575.01,19.97 L 574.66,19.50 L 574.31,19.22 L 573.08,18.64 L 572.64,18.40 L 572.37,18.08 L 571.73,17.34 L 571.21,16.79 L 570.56,16.44 L 570.10,16.34 L 569.99,16.31 L 569.53,16.25 L 568.15,16.29 L 567.62,16.18 L 566.32,15.64 L 564.01,14.76 L 563.42,14.61 L 561.49,14.02 L 561.13,13.95 L 560.16,13.81 L 559.60,13.81 L 558.47,13.91 L 557.74,13.98 L 555.98,14.07 L 554.68,14.08 L 554.15,14.06 L 551.76,14.18 L 550.39,14.30 L 548.15,14.50 L 546.87,14.62 L 544.98,15.11 L 543.28,15.65 L 541.61,16.35 L 540.93,16.60 L 539.93,16.96 L 538.40,17.56 L 538.21,17.62 L 536.76,18.08 L 534.96,18.39 L 533.12,18.59 L 531.37,18.89 L 529.60,19.14 L 528.23,19.36 L 527.80,19.45 L 527.74,19.47 L 527.65,19.48 L 525.73,19.81 L 525.27,19.89 L 523.95,20.07 L 522.22,20.28 L 521.78,20.32 L 520.54,20.73 L 518.83,21.31 L 517.01,21.83 L 515.87,22.08 L 515.31,22.15 L 513.56,22.27 L 513.02,22.23 L 511.94,21.47 L 511.72,21.28 L 510.67,20.35 L 509.50,19.20 L 508.55,18.28 L 508.28,17.98 L 507.92,17.67 L 506.73,16.89 L 505.63,16.30 L 505.03,16.16 L 504.62,16.08 L 503.62,16.07 L 503.20,16.22 L 502.72,16.28 L 502.64,16.29 L 501.30,16.40 L 499.66,16.80 L 499.14,16.82 L 499.05,16.89 L 498.99,16.90 L 497.81,17.81 L 496.61,18.49 L 496.12,18.83 L 495.43,19.17 L 495.08,19.64 L 494.79,20.12 L 493.95,20.86 L 493.60,21.52 L 492.48,23.04 L 491.27,24.23 L 491.16,24.34 L 491.13,24.43 L 491.01,24.74 L 490.48,25.46 L 490.25,25.65 L 490.10,25.77 L 489.77,25.99 L 489.43,26.32 L 489.29,26.77 L 489.22,27.09 L 489.11,27.53 L 488.72,28.36 L 488.51,28.67 L 487.67,29.86 L 487.35,30.19 L 485.94,30.96 L 485.83,31.02 L 484.99,31.27 L 483.47,31.68 L 483.07,31.76 L 482.05,31.98 L 481.14,32.30 L 479.44,32.97 L 478.21,33.38 L 477.75,33.49 L 476.56,33.94 L 476.16,34.10 L 475.04,34.51 L 474.95,34.55 L 474.61,34.76 L 474.55,34.80 L 473.43,35.16 L 473.04,35.30 L 473.00,35.31 L 471.52,36.05 L 470.33,36.71 L 469.94,37.01 L 468.93,37.48 L 468.80,37.53 L 467.06,38.16 L 466.95,38.20 L 465.97,38.91 L 464.49,40.11 L 463.82,40.70 L 463.57,40.92 L 463.46,41.00 L 463.38,41.05 L 463.24,41.12 L 463.08,41.24 L 462.11,42.02 L 461.08,42.84 L 460.69,43.05 L 460.29,43.36 L 459.30,44.06 L 458.85,44.29 L 457.82,44.90 L 457.54,44.99 L 456.38,45.42 L 455.24,45.86 L 454.87,45.94 L 454.33,46.05 L 453.50,46.23 L 452.68,46.50 L 451.51,46.98 L 451.48,46.99 L 451.36,47.04 L 449.71,47.79 L 448.12,48.57 L 446.75,49.49 L 445.54,50.33 L 445.37,50.48 L 445.25,50.58 L 445.23,50.59 L 444.43,51.28 L 443.58,51.78 L 443.04,52.10 L 441.64,52.95 L 439.17,54.88 L 438.59,55.40 L 437.09,56.48 L 436.00,57.11 L 433.89,57.76 L 432.58,58.07 L 430.37,58.84 L 430.33,58.86 L 430.21,58.90 L 428.91,59.44 L 426.81,60.53 L 426.26,60.87 L 426.14,60.95 L 426.13,60.95 L 425.43,61.38 L 423.54,62.72 L 422.66,63.39 L 419.61,65.71 L 418.97,66.16 L 418.79,66.31 L 417.72,67.21 L 417.04,67.78 L 415.51,69.31 L 414.97,69.92 L 414.38,70.60 L 413.94,71.28 L 413.81,71.72 L 413.63,72.32 L 413.22,72.96 L 412.67,73.67 L 411.89,74.54 L 410.91,75.31 L 410.08,75.87 L 408.43,76.85 L 407.40,77.36 L 406.57,77.86 L 404.60,79.00 L 402.99,79.97 L 400.67,81.37 L 399.75,81.77 L 399.08,82.05 L 397.46,82.71 L 397.23,82.82 L 397.22,82.83 L 397.20,82.84 L 396.53,83.18 L 396.43,83.23 L 395.53,83.74 L 395.15,84.03 L 394.79,84.39 L 394.42,84.89 L 393.93,85.93 L 393.69,86.57 L 393.37,87.55 L 393.08,88.09 L 393.00,88.41 L 392.72,88.80 L 392.71,88.82 L 392.15,89.38 L 391.92,89.65 L 391.42,90.06 L 390.76,90.55 L 390.10,90.93 L 389.30,91.33 L 388.59,91.60 L 387.58,91.96 L 386.48,92.38 L 385.92,92.59 L 385.34,92.93 L 384.56,93.44 L 384.02,93.80 L 383.93,93.85 L 383.91,93.87 L 382.99,94.46 L 382.22,94.97 L 382.04,95.09 L 381.24,95.64 L 379.52,96.57 L 378.06,97.20 L 376.52,97.91 L 375.74,98.24 L 374.65,98.60 L 373.98,98.89 L 373.22,99.09 L 372.29,99.36 L 371.91,99.48 L 371.68,99.55 L 371.18,99.79 L 370.39,100.19 L 369.88,100.52 L 369.50,100.84 L 368.73,101.49 L 368.16,102.24 L 367.64,102.69 L 366.96,103.25 L 365.96,104.05 L 365.42,104.48 L 364.97,104.92 L 364.76,105.16 L 364.45,105.42 L 363.80,106.00 L 363.49,106.34 L 362.90,106.89 L 362.33,107.51 L 361.84,107.90 L 361.08,108.52 L 360.57,109.03 L 359.94,109.65 L 359.11,110.36 L 358.71,110.72 L 357.98,111.38 L 357.48,111.75 L 356.53,112.41 L 356.20,112.70 L 355.12,113.35 L 354.82,113.53 L 354.78,113.56 L 353.63,114.24 L 353.26,114.40 L 352.18,114.98 L 351.66,115.22 L 350.54,115.75 L 350.25,115.92 L 349.14,116.51 L 348.67,116.79 L 348.14,117.04 L 347.85,117.18 L 347.26,117.45 L 346.45,117.87 L 345.68,118.29 L 344.65,118.83 L 344.29,119.01 L 343.49,119.40 L 343.02,119.65 L 342.77,119.82 L 342.12,120.34 L 341.63,120.66 L 341.38,120.85 L 340.84,121.29 L 340.07,121.84 L 339.40,122.37 L 338.80,122.86 L 338.17,123.36 L 337.42,124.01 L 336.96,124.39 L 336.23,124.94 L 335.81,125.31 L 334.89,126.00 L 334.53,126.37 L 333.62,127.12 L 333.25,127.45 L 333.09,127.58 L 332.43,128.16 L 332.01,128.53 L 331.16,129.27 L 330.68,129.62 L 329.84,130.23 L 329.38,130.56 L 329.04,130.83 L 328.48,131.27 L 328.06,131.61 L 327.16,132.39 L 326.75,132.72 L 326.16,133.19 L 325.97,133.33 L 325.91,133.39 L 325.50,133.79 L 324.92,134.34 L 324.50,134.72 L 323.56,135.65 L 323.27,136.07 L 322.96,136.63 L 322.71,137.12 L 322.53,137.55 L 322.37,138.08 L 322.28,138.48 L 322.18,139.12 L 322.13,139.59 L 322.05,140.26 L 322.03,140.67 L 321.93,141.31 L 321.85,141.66 L 321.72,142.24 L 321.55,142.62 L 321.42,142.88 L 321.29,143.15 L 320.92,143.55 L 320.39,144.02 L 320.15,144.22 L 319.95,144.39 L 319.10,145.15 L 318.81,145.47 L 318.27,146.04 L 317.85,146.46 L 317.21,147.06 L 316.73,147.45 L 315.83,148.23 L 315.35,148.54 L 315.09,148.73 L 314.62,149.02 L 314.06,149.33 L 313.64,149.54 L 312.81,149.90 L 312.16,150.10 L 311.50,150.25 L 310.77,150.37 L 310.41,150.43 L 310.41,150.43 L 309.74,150.43 L 308.84,150.34 L 308.35,150.15 L 307.96,149.99 L 307.17,149.58 L 306.30,149.09 L 305.80,148.89 L 305.77,148.88 L 305.28,148.68 L 304.49,148.41 L 303.96,148.26 L 303.35,148.08 L 303.22,148.05 L 302.63,147.87 L 301.53,147.55 L 301.21,147.47 L 300.84,147.38 L 300.52,147.28 L 299.61,147.01 L 299.09,146.86 L 297.95,146.59 L 297.42,146.41 L 296.24,146.02 L 295.81,145.81 L 294.65,145.33 L 294.14,145.17 L 292.97,144.64 L 292.51,144.49 L 291.31,143.96 L 290.90,143.77 L 289.50,143.15 L 289.12,142.97 L 287.92,142.45 L 287.41,142.17 L 286.27,141.67 L 285.91,141.52 L 285.87,141.50 L 285.68,141.42 L 284.84,140.98 L 284.32,140.61 L 283.99,140.41 L 282.76,139.67 L 282.41,139.41 L 281.35,138.82 L 280.83,138.43 L 279.54,137.67 L 279.07,137.42 L 278.15,136.88 L 277.58,136.62 L 277.44,136.56 L 276.31,136.15 L 275.79,135.94 L 274.59,135.45 L 274.26,135.33 L 274.03,135.24 L 273.39,135.06 L 272.72,134.80 L 272.27,134.64 L 270.99,134.23 L 270.49,134.08 L 269.21,133.71 L 268.64,133.54 L 267.58,133.24 L 266.80,132.98 L 265.97,132.68 L 265.19,132.42 L 264.44,132.12 L 263.83,131.96 L 263.44,131.89 L 263.15,131.82 L 262.72,131.73 L 262.24,131.70 L 261.92,131.73 L 261.64,131.76 L 261.11,131.85 L 260.93,131.89 L 260.52,131.94 L 260.02,132.03 L 259.36,132.21 L 258.57,132.46 L 258.10,132.62 L 257.65,132.83 L 257.26,133.00 L 256.89,133.25 L 256.60,133.48 L 256.22,133.86 L 255.71,134.25 L 255.15,134.76 L 254.90,135.01 L 254.59,135.27 L 253.69,136.03 L 253.31,136.34 L 252.46,137.17 L 252.07,137.57 L 252.05,137.59 L 251.64,138.00 L 250.95,138.85 L 250.30,139.68 L 249.87,140.33 L 249.65,140.67 L 249.38,141.23 L 249.14,141.65 L 248.93,142.21 L 248.88,142.53 L 248.69,142.95 L 248.56,143.41 L 248.48,143.91 L 248.44,144.22 L 248.41,144.36 L 248.29,144.73 L 248.19,145.17 L 248.16,145.40 L 248.03,145.87 L 247.87,146.36 L 247.74,147.07 L 247.72,147.41 L 247.58,148.02 L 247.50,148.45 L 247.38,149.01 L 247.28,149.39 L 247.15,149.99 L 247.11,150.42 L 247.06,150.64 L 247.00,150.99 L 246.87,151.36 L 246.67,151.94 L 246.43,152.37 L 246.11,152.99 L 245.89,153.35 L 245.55,153.80 L 245.24,154.15 L 244.99,154.37 L 244.42,154.89 L 243.93,155.31 L 243.11,155.92 L 242.62,156.25 L 241.95,156.62 L 241.32,156.97 L 240.79,157.25 L 239.33,157.91 L 238.85,158.08 L 237.78,158.41 L 236.86,158.61 L 236.02,158.76 L 235.42,158.85 L 235.18,158.85 L 235.09,158.85 L 235.01,158.85 L 234.43,158.85 L 233.71,158.85 L 233.23,158.81 L 232.86,158.80 L 232.36,158.69 L 231.93,158.57 L 231.47,158.34 L 230.27,157.96 L 229.74,157.76 L 228.62,157.39 L 228.00,157.21 L 226.69,156.71 L 226.25,156.62 L 224.53,156.06 L 223.61,155.90 L 222.86,155.86 L 221.81,155.72 L 221.16,155.62 L 219.98,155.42 L 219.58,155.38 L 217.96,155.14 L 216.70,154.96 L 216.28,154.96 L 215.43,154.82 L 214.94,154.77 L 214.13,154.62 L 213.25,154.47 L 212.29,154.27 L 212.19,154.25 L 212.09,154.23 L 211.57,154.12 L 210.86,153.89 L 210.44,153.74 L 208.98,153.33 L 208.44,153.16 L 207.29,152.77 L 206.85,152.60 L 205.64,152.17 L 205.16,151.99 L 204.89,151.84 L 204.60,151.74 L 204.58,151.74 L 204.50,151.71 L 203.90,151.61 L 203.14,151.53 L 202.60,151.53 L 201.99,151.59 L 201.64,151.67 L 200.90,151.74 L 200.25,151.83 L 199.74,151.96 L 199.08,152.16 L 198.60,152.40 L 198.06,152.73 L 197.67,153.09 L 197.37,153.38 L 197.32,153.47 L 197.26,153.55 L 197.22,153.61 L 197.02,153.96 L 196.74,154.30 L 196.54,154.56 L 196.28,155.01 L 196.11,155.60 L 195.99,156.17 L 195.97,156.55 L 195.97,157.20 L 195.91,157.67 L 195.81,158.34 L 195.79,158.63 L 195.71,159.32 L 195.70,159.64 L 195.67,160.04 L 195.60,160.33 L 195.51,160.61 L 195.40,161.21 L 195.38,161.49 L 195.22,161.97 L 195.09,162.27 L 195.03,162.52 L 194.84,163.15 L 194.64,163.60 L 194.29,164.48 L 194.14,164.78 L 193.90,165.25 L 193.72,165.59 L 193.51,166.08 L 193.21,166.53 L 192.97,166.85 L 192.64,167.19 L 192.51,167.34 L 192.25,167.61 L 192.24,167.62 L 191.52,168.32 L 191.23,168.59 L 190.52,169.18 L 190.11,169.50 L 189.62,169.99 L 189.16,170.41 L 188.51,170.99 L 187.98,171.42 L 187.42,172.01 L 187.15,172.32 L 186.68,172.93 L 186.51,173.17 L 186.01,173.94 L 185.87,174.19 L 185.61,174.75 L 185.39,175.21 L 185.07,175.92 L 184.96,176.23 L 184.70,176.90 L 184.55,177.28 L 184.38,178.00 L 184.26,178.35 L 184.09,178.98 L 183.98,179.33 L 183.77,180.09 L 183.72,180.35 L 183.56,181.15 L 183.51,181.38 L 183.43,182.09 L 183.34,182.43 L 183.22,183.23 L 183.18,183.50 L 183.06,184.34 L 182.99,185.27 L 182.95,185.63 L 182.95,185.65 L 182.90,186.02 L 182.87,186.31 L 182.85,186.80 L 182.81,187.27 L 182.81,188.02 L 182.77,188.35 L 182.83,189.08 L 182.84,189.38 L 182.93,189.88 L 182.99,190.09 L 183.08,190.35 L 183.13,190.66 L 183.14,190.73 L 183.17,190.91 L 183.18,190.98 L 183.22,191.23 L 183.22,191.58 L 183.17,192.06 L 183.16,192.86 L 183.15,193.15 L 183.12,193.83 L 183.13,194.19 L 183.13,194.99 L 183.09,195.23 L 183.03,196.19 L 183.06,196.61 L 183.14,197.07 L 183.29,197.88 L 183.42,198.57 L 183.54,198.99 L 183.80,199.79 L 183.88,200.11 L 184.17,201.03 L 184.48,201.84 L 184.60,202.06 L 184.89,202.50 L 185.17,202.97 L 185.74,203.86 L 186.32,204.76 L 186.89,205.61 L 187.40,206.21 L 187.66,206.51 L 188.15,207.00 L 188.59,207.36 L 189.56,208.24 L 190.08,208.77 L 190.32,209.09 L 191.05,209.91 L 191.40,210.38 L 191.48,210.57 L 191.59,210.86 L 191.76,211.36 L 191.79,211.86 L 191.86,212.85 L 191.86,213.73 L 191.78,214.56 L 191.64,215.02 L 191.54,215.21 L 191.53,215.23 L 191.44,215.40 L 191.16,215.95 L 190.80,216.48 L 190.57,216.76 L 190.23,217.03 L 189.98,217.25 L 189.77,217.39 L 189.58,217.51 L 188.68,218.27 L 188.22,218.60 L 187.45,219.19 L 186.79,219.68 L 186.05,220.26 L 185.63,220.59 L 184.74,221.42 L 183.96,222.07 L 183.83,222.18 L 183.56,222.40 L 183.01,222.68 L 182.49,222.92 L 181.92,223.15 L 181.33,223.36 L 180.52,223.71 L 180.00,223.84 L 179.32,224.02 L 178.71,224.15 L 177.87,224.26 L 177.30,224.38 L 176.97,224.43 L 176.23,224.57 L 175.82,224.61 L 174.69,224.77 L 174.16,224.81 L 173.75,224.82 L 172.89,224.86 L 172.14,224.94 L 171.58,224.98 L 170.79,225.11 L 170.46,225.22 L 170.28,225.30 L 169.79,225.45 L 169.41,225.65 L 169.08,225.86 L 168.80,226.06 L 168.50,226.31 L 167.95,226.84 L 167.70,227.06 L 167.45,227.28 L 167.07,227.70 L 166.76,228.05 L 166.41,228.48 L 166.07,228.91 L 165.63,229.46 L 165.36,229.79 L 164.82,230.42 L 164.55,230.75 L 164.31,231.08 L 163.61,231.82 L 163.59,231.93 L 163.63,232.03 L 163.70,232.21 L 164.15,232.81 L 164.67,233.44 L 164.78,233.63 L 165.23,234.25 L 165.48,234.71 L 165.93,235.30 L 166.20,235.69 L 166.64,236.27 L 166.81,236.52 L 167.07,236.94 L 167.28,237.26 L 167.46,237.50 L 167.81,237.91 L 168.11,238.33 L 168.40,238.91 L 168.60,239.23 L 169.06,239.93 L 169.26,240.21 L 169.79,241.11 L 170.38,242.08 L 170.96,243.06 L 171.34,243.98 L 171.82,244.86 L 172.34,245.77 L 172.87,246.71 L 173.45,247.62 L 173.63,247.82 L 173.71,248.00 L 173.79,248.17 L 173.84,248.22 L 173.95,248.28 L 174.02,248.28 L 174.21,248.30 L 174.54,248.33 L 174.90,248.31 L 175.20,248.25 L 175.70,248.15 L 176.04,248.08 L 176.28,248.06 L 176.59,248.06 L 176.90,248.08 L 177.10,248.11 L 177.36,248.16 L 177.57,248.18 L 177.73,248.14 L 178.00,248.03 L 178.33,247.94 L 178.50,247.92 L 178.79,247.97 L 178.82,247.99 L 178.97,248.07 L 179.17,248.16 L 179.23,248.17 L 179.35,248.19 L 179.62,248.19 L 179.92,248.14 L 180.17,248.09 L 180.38,248.10 L 180.62,248.14 L 180.72,248.18 L 180.99,248.26 L 181.00,248.26 L 181.20,248.31 L 181.32,248.33 L 181.54,248.33 L 181.83,248.29 L 182.04,248.29 L 182.32,248.35 L 182.35,248.37 L 182.56,248.49 L 182.84,248.74 L 183.02,248.96 L 183.07,249.08 L 183.13,249.34 L 183.17,249.70 L 183.21,250.07 L 183.27,250.35 L 183.40,250.66 L 183.60,250.98 L 183.82,251.22 L 184.05,251.38 L 184.45,251.58 L 185.00,251.95 L 185.38,252.31 L 185.55,252.49 L 186.00,252.92 L 186.10,253.02 L 186.25,253.07 L 186.25,253.07 L 186.52,253.08 L 187.11,253.05 L 187.40,253.03 L 188.00,253.03 L 188.71,253.05 L 189.18,253.08 L 189.45,253.08 L 189.84,253.12 L 189.91,253.16 L 189.94,253.17 L 190.01,253.32 L 189.99,253.69 L 190.12,256.56 L 190.12,256.56 L 190.12,256.57 L 190.20,256.66 L 192.98,259.98 L 193.43,260.72 L 194.65,261.87 L 195.80,263.04 L 196.88,264.30 L 198.46,265.88 L 198.07,268.19 L 197.55,271.22 L 197.04,274.03 L 197.02,274.20 L 196.74,276.37 L 196.29,276.43 L 194.91,275.79 L 194.90,275.79 L 194.81,275.75 L 194.34,275.70 L 193.93,275.86 L 193.62,276.13 L 193.55,276.20 L 193.38,276.63 L 193.34,276.75 L 193.00,276.90 L 192.90,276.95 L 192.59,277.25 L 191.92,277.48 L 191.60,278.01 L 191.32,278.18 L 190.26,278.14 L 189.13,283.70 L 189.13,283.71 L 189.00,284.35 L 189.00,284.35 L 188.83,284.99 L 188.88,286.93 L 188.88,286.97 L 188.89,287.07 L 188.89,287.11 L 188.89,287.36 L 188.90,288.10 L 188.91,289.41 L 188.79,289.99 L 188.73,290.27 L 188.56,291.06 L 188.41,291.35 L 187.90,292.28 L 187.29,292.96 L 187.27,292.99 L 186.60,293.73 L 186.15,294.39 L 186.07,294.49 L 186.00,294.60 L 185.94,294.68 L 185.72,294.99 L 185.67,295.06 L 185.37,295.44 L 185.14,295.74 L 184.71,296.31 L 183.07,297.73 L 180.34,299.38 L 179.46,299.86 L 178.20,300.54 L 175.37,301.35 L 173.64,301.95 L 173.54,301.98 L 170.38,303.25 L 166.09,304.54 L 164.02,305.38 L 161.72,306.98 L 158.31,309.32 L 157.00,310.24 L 156.23,311.23 L 156.19,311.29 L 155.87,311.70 L 155.17,312.60 L 154.62,313.52 L 154.32,314.04 L 154.31,314.05 L 154.07,314.42 L 153.77,314.88 L 153.64,315.08 L 153.45,315.36 L 153.37,315.48 L 153.19,315.62 L 153.01,315.77 L 152.95,315.82 L 152.74,315.98 L 152.72,316.00 L 152.61,316.09 L 152.60,316.09 L 152.57,316.10 L 148.43,316.61 L 147.91,316.67 L 147.83,316.78 L 147.83,316.78 L 147.76,316.81 L 145.74,317.74 L 144.63,318.41 L 144.02,318.78 L 142.95,319.60 L 141.22,322.44 L 141.14,322.58 L 141.00,322.80 L 139.46,325.97 L 138.20,328.44 L 136.93,330.48 L 137.10,330.46 L 137.23,330.46 L 137.62,330.47 L 137.98,330.50 L 138.01,330.51 L 138.35,330.65 L 138.67,330.88 L 138.97,331.24 L 139.20,331.70 L 139.27,332.02 L 139.29,332.54 L 139.28,332.95 L 139.22,333.78 L 139.22,334.08 L 139.19,334.42 L 139.14,334.56 L 138.94,334.95 L 138.56,335.46 L 138.29,335.82 L 137.84,336.29 L 136.77,337.38 L 136.40,337.70 L 136.19,337.98 L 136.07,338.17 L 135.97,338.44 L 135.96,338.89 L 135.97,339.10 L 136.08,339.37 L 136.33,339.67 L 137.01,340.16 L 137.64,340.50 L 137.78,340.71 L 137.91,341.01 L 138.05,341.27 L 138.19,341.89 L 138.42,342.51 L 138.57,342.88 L 138.68,343.25 L 138.80,343.47 L 138.85,343.70 L 138.82,344.03 L 138.64,344.36 L 138.42,344.62 L 138.24,344.83 L 138.16,344.99 L 138.03,345.60 L 137.82,346.22 L 137.75,346.55 L 137.77,347.27 L 137.76,347.72 L 137.85,347.91 L 137.94,348.09 L 138.10,348.37 L 138.28,348.53 L 138.59,348.68 L 138.95,348.73 L 138.94,348.79 L 138.83,349.77 L 138.54,350.50 L 136.87,351.82 L 135.42,352.57 L 128.12,354.92 L 123.23,357.58 L 120.17,359.82 L 120.13,359.86 L 118.80,360.83 L 114.37,364.08 L 110.23,366.66 L 103.80,370.10 L 98.17,373.24 L 94.63,375.04 L 94.08,375.33 L 94.05,375.34 L 93.93,375.40 L 92.00,376.38 L 82.21,382.35 L 76.22,386.11 L 70.85,390.47 L 70.77,390.53 L 70.66,390.62 L 63.08,396.73 L 59.01,400.20 L 56.07,402.50 L 52.24,404.74 L 47.51,407.66 L 46.35,408.57 L 45.66,409.12 L 45.43,409.30 L 45.43,409.30 L 43.35,410.94 L 42.44,411.66 L 38.38,414.87 L 26.80,422.92 L 22.22,426.68 L 22.00,426.86 L 21.84,426.99 L 20.87,427.79 L 19.38,429.00 L 18.95,429.34 L 18.68,429.56 L 16.50,431.33 L 12.76,433.90 L 12.61,434.00 L 12.31,434.21 L 11.77,434.58 L 10.16,435.93 L 10.00,436.07 L 10.63,436.88 L 11.25,437.70 L 14.07,440.61 L 14.38,441.05 L 16.28,443.69 L 19.18,448.54 L 19.68,449.17 L 22.77,453.09 L 24.62,455.45 L 25.79,456.95 L 28.43,460.05 L 28.54,460.18 L 32.02,464.32 L 34.42,467.13 L 36.09,468.47 L 37.26,469.51 L 38.38,470.50 L 39.45,472.13 L 40.25,473.19 L 41.74,475.17 L 42.42,475.97 L 42.48,476.04 L 42.53,476.10 L 43.59,477.03 L 44.21,478.04 L 44.33,478.24 L 44.88,480.33 L 45.84,482.12 L 46.46,482.84 L 48.71,485.43 L 54.54,492.15 L 54.79,492.10 L 58.44,491.36 L 62.84,490.41 L 64.51,490.05 L 69.69,489.57 L 70.95,489.25 L 71.66,488.74 L 74.14,486.93 L 77.89,484.02 L 78.45,483.82 L 79.89,483.31 L 82.28,483.72 L 82.64,483.75 L 83.07,483.80 L 83.76,484.14 L 84.56,484.54 L 84.84,484.63 L 85.52,484.85 L 85.52,484.85 L 86.97,484.71 L 87.73,484.43 L 87.79,484.41 L 88.58,485.36 L 89.55,486.16 L 91.13,486.69 L 91.69,486.78 L 93.70,486.98 L 95.31,487.14 L 99.13,487.28 L 101.53,487.36 L 102.58,487.48 L 106.76,487.95 L 107.02,487.98 L 110.77,487.98 L 112.77,487.69 L 113.94,486.96 L 114.59,486.34 L 114.92,485.57 L 114.94,485.32 L 114.65,484.22 L 114.55,483.09 L 114.64,482.59 L 115.14,482.32 L 116.10,482.59 L 117.40,483.80 L 117.81,483.83 L 119.64,483.28 L 120.78,482.74 L 121.06,482.57 L 121.05,482.59 L 120.90,483.44 L 120.55,484.26 L 120.24,485.59 L 120.43,486.35 L 121.12,487.05 L 122.06,487.78 L 122.54,488.68 L 122.90,489.36 L 123.28,490.05 L 123.49,490.70 L 123.46,491.72 L 123.23,492.15 L 123.41,492.81 L 123.64,492.74 L 124.59,492.59 L 125.17,492.84 L 125.80,493.46 L 126.56,493.76 L 127.39,493.96 L 128.44,494.03 L 129.15,494.34 L 129.48,494.60 L 130.12,495.71 L 131.39,499.23 L 132.65,504.59 L 133.48,508.96 L 133.97,510.96 L 134.62,512.64 L 135.25,513.43 L 135.97,513.72 L 136.72,513.69 L 138.64,513.17 L 139.24,512.98 L 140.16,513.73 L 141.31,515.41 L 141.99,518.32 L 142.40,519.76 L 142.88,520.47 L 144.40,520.47 L 145.27,520.33 L 145.75,520.36 L 146.79,522.57 L 147.82,524.44 L 147.64,524.69 L 147.52,524.85 L 146.54,526.13 L 144.84,528.23 L 144.01,529.24 L 141.43,532.33 L 139.99,534.06 L 139.51,534.63 L 139.60,534.91 L 139.98,536.08 L 140.48,537.38 L 141.07,538.94 L 142.26,541.94 L 142.38,542.20 L 142.65,542.80 L 143.08,543.96 L 143.56,545.24 L 144.02,546.21 L 144.06,546.28 L 145.01,547.82 L 146.85,550.15 L 145.82,552.06 L 144.71,554.23 L 147.83,556.44 L 148.00,556.58 L 148.42,556.80 L 149.76,558.16 L 150.46,558.91 L 151.53,560.07 L 151.82,560.39 L 152.76,559.67 L 153.30,559.25 L 154.96,557.88 L 155.45,557.52 L 155.87,557.20 L 156.25,556.94 L 156.31,556.90 L 156.64,556.70 L 156.93,556.62 L 157.34,556.53 L 157.61,556.54 L 157.79,556.55 L 158.52,556.64 L 159.21,556.88 L 160.16,557.41 L 160.67,557.84 L 161.05,558.43 L 161.23,558.84 L 161.61,559.70 L 162.01,560.54 L 162.03,560.57 L 162.36,561.26 L 162.62,561.71 L 162.71,561.87 L 162.86,562.47 L 162.86,562.47 L 163.19,564.56 L 163.24,564.80 L 163.42,565.70 L 163.52,566.05 L 163.56,566.18 L 163.74,566.43 L 163.97,566.74 L 163.97,567.65 L 164.03,568.06 L 164.08,568.48 L 164.16,569.05 L 164.18,569.21 L 164.49,569.90 L 165.27,571.29 L 165.60,571.82 L 165.93,572.36 L 165.78,573.24 L 165.64,574.67 L 165.61,576.08 L 165.61,576.46 L 165.61,576.71 L 165.22,577.78 L 165.01,578.36 L 165.38,579.62 L 165.58,580.33 L 165.78,581.04 L 165.84,581.22 L 166.23,582.37 L 166.23,583.50 L 166.15,584.42 L 166.19,585.10 L 166.21,585.48 L 166.27,585.69 L 166.39,586.18 L 167.07,587.13 L 167.11,587.19 L 167.25,587.38 L 167.49,587.75 L 168.16,588.77 L 168.73,589.15 L 169.23,589.48 L 169.87,589.74 L 170.11,589.84 L 171.41,589.88 L 172.54,589.91 L 173.06,589.93 L 174.49,589.97 L 175.56,590.00 L 178.16,589.95 L 178.97,589.50 L 180.81,588.39 L 182.80,587.25 L 183.58,586.77 L 184.46,586.23 L 184.38,585.82 L 184.36,585.58 L 184.37,585.17 L 184.39,584.77 L 184.45,584.49 L 184.51,584.18 L 184.65,583.81 L 184.86,583.34 L 185.06,582.85 L 185.20,582.39 L 185.28,581.94 L 185.28,581.52 L 185.33,580.92 L 185.37,580.58 L 185.39,579.92 L 185.36,579.09 L 185.38,578.35 L 185.37,577.70 L 185.41,577.49 L 185.43,577.17 L 185.53,576.79 L 185.74,576.42 L 185.92,576.07 L 186.01,575.82 L 186.05,575.40 L 186.12,574.94 L 186.08,574.60 L 185.98,574.05 L 185.92,573.48 L 185.93,572.99 L 185.96,572.44 L 185.96,571.95 L 186.01,571.58 L 186.10,571.16 L 186.20,570.66 L 186.20,570.28 L 186.17,569.94 L 186.13,569.60 L 186.10,569.25 L 186.09,568.60 L 186.10,568.16 L 186.17,567.54 L 186.26,566.87 L 186.38,566.31 L 186.52,565.85 L 186.68,565.56 L 186.95,565.26 L 187.24,564.93 L 187.35,564.73 L 187.42,564.52 L 187.49,564.23 L 187.56,563.93 L 187.65,563.56 L 187.63,563.05 L 187.67,562.51 L 187.70,561.95 L 187.74,561.44 L 187.74,560.97 L 187.76,560.45 L 187.84,560.00 L 187.85,559.64 L 187.81,558.95 L 187.82,558.16 L 187.83,557.85 L 187.91,557.74 L 188.18,557.53 L 188.60,557.12 L 188.94,556.81 L 189.28,556.53 L 189.49,556.35 L 189.76,556.26 L 189.98,556.24 L 190.14,556.29 L 190.35,556.41 L 190.57,556.57 L 190.85,556.86 L 191.11,557.15 L 191.32,557.42 L 191.48,557.71 L 191.75,558.23 L 191.98,558.69 L 192.22,559.19 L 192.41,559.57 L 192.55,559.95 L 192.62,560.29 L 192.67,560.66 L 192.73,561.33 L 192.81,561.69 L 193.03,562.16 L 193.27,562.61 L 193.58,563.14 L 193.83,563.52 L 194.14,563.95 L 194.30,564.28 L 194.65,564.94 L 194.93,565.49 L 195.21,566.04 L 195.42,566.48 L 195.71,566.97 L 195.96,567.39 L 196.15,567.73 L 196.40,568.07 L 196.63,568.33 L 197.12,568.64 L 197.44,568.87 L 197.86,569.12 L 198.07,569.08 L 198.50,568.97 L 198.96,568.83 L 199.44,568.70 L 199.86,568.61 L 200.33,568.58 L 200.69,568.58 L 201.03,568.62 L 201.32,568.73 L 201.48,568.87 L 201.60,569.05 L 201.68,569.29 L 201.71,569.56 L 201.73,569.88 L 201.73,570.08 L 201.69,570.47 L 201.61,570.93 L 201.62,571.45 L 201.64,571.76 L 201.70,572.08 L 201.89,572.38 L 202.03,572.63 L 202.15,572.79 L 202.32,572.99 L 202.51,573.14 L 202.72,573.17 L 202.95,573.20 L 203.28,573.16 L 203.53,573.00 L 203.79,572.73 L 204.06,572.35 L 204.31,571.95 L 204.56,571.56 L 204.71,571.21 L 204.80,570.90 L 204.84,570.60 L 204.87,570.26 L 204.82,569.94 L 204.69,569.37 L 204.60,568.91 L 204.64,568.49 L 204.71,568.20 L 204.80,567.96 L 204.91,567.63 L 205.11,567.15 L 205.30,566.70 L 205.46,566.25 L 205.53,565.91 L 205.55,565.67 L 205.53,565.37 L 205.43,565.01 L 205.30,564.69 L 205.06,564.07 L 204.90,563.53 L 204.73,562.84 L 204.62,562.41 L 204.65,562.07 L 204.75,561.82 L 205.03,561.53 L 205.37,561.26 L 205.69,561.10 L 206.08,560.91 L 206.41,560.83 L 206.83,560.81 L 207.20,560.81 L 207.65,560.83 L 208.28,560.82 L 208.83,560.66 L 209.32,560.45 L 209.95,560.11 L 210.66,559.70 L 211.26,559.27 L 211.75,559.06 L 212.08,558.96 L 212.43,558.91 L 212.81,558.86 L 213.17,558.93 L 213.39,559.01 L 213.59,559.18 L 213.75,559.40 L 213.92,559.64 L 214.07,560.02 L 214.23,560.38 L 214.37,560.76 L 214.61,561.15 L 214.71,561.32 L 215.03,561.66 L 215.46,562.00 L 215.75,562.21 L 216.07,562.35 L 216.37,562.43 L 216.61,562.50 L 216.97,562.55 L 217.26,562.51 L 217.68,562.43 L 218.15,562.29 L 218.58,562.11 L 218.86,561.87 L 219.09,561.50 L 219.15,561.09 L 219.12,560.66 L 219.04,560.25 L 218.90,559.83 L 218.70,559.36 L 218.40,558.53 L 218.23,557.99 L 218.14,557.57 L 218.10,557.06 L 218.26,556.23 L 218.42,555.87 L 218.68,555.59 L 219.13,555.33 L 219.55,555.27 L 219.97,555.34 L 220.34,555.43 L 220.64,555.54 L 221.11,555.66 L 221.61,555.90 L 222.04,556.20 L 222.59,556.57 L 223.10,556.98 L 223.73,557.34 L 224.50,557.75 L 225.22,558.06 L 225.91,558.16 L 226.71,558.35 L 227.43,558.30 L 227.92,558.15 L 228.15,557.95 L 228.14,557.70 L 228.05,557.27 L 227.99,556.82 L 227.98,556.40 L 227.99,555.92 L 228.00,555.00 L 227.94,554.44 L 227.79,553.80 L 227.64,553.13 L 227.60,552.10 L 227.47,551.38 L 227.46,550.91 L 227.54,550.34 L 227.66,549.97 L 227.87,549.53 L 227.99,549.36 L 228.19,549.01 L 228.64,548.49 L 228.51,548.37 L 228.17,548.21 L 227.62,548.01 L 227.22,547.85 L 226.70,547.61 L 226.47,547.39 L 226.37,547.22 L 226.34,546.92 L 226.46,546.49 L 226.62,546.14 L 226.82,545.52 L 227.23,544.10 L 227.60,542.80 L 227.68,542.37 L 227.65,542.12 L 227.54,541.89 L 227.27,541.62 L 226.69,541.24 L 226.10,540.98 L 225.52,540.84 L 224.94,540.77 L 224.57,540.78 L 224.14,540.84 L 223.75,540.98 L 223.01,541.15 L 222.47,541.22 L 221.87,541.26 L 220.88,541.30 L 219.83,541.20 L 218.67,540.97 L 218.22,540.86 L 217.86,540.50 L 217.75,540.24 L 217.82,539.96 L 217.98,539.61 L 218.48,538.98 L 219.48,538.03 L 220.24,537.22 L 221.28,536.06 L 222.49,534.83 L 223.29,534.05 L 224.60,533.06 L 225.16,532.51 L 226.60,531.45 L 227.16,530.85 L 227.24,530.54 L 227.14,530.18 L 226.97,529.86 L 226.72,529.54 L 226.67,529.40 L 226.76,529.31 L 226.95,529.26 L 227.45,529.31 L 228.04,529.54 L 228.73,529.97 L 229.91,530.78 L 230.36,531.11 L 231.04,531.41 L 231.64,531.47 L 232.44,531.44 L 233.31,531.14 L 234.11,530.91 L 235.08,530.61 L 235.45,530.41 L 235.73,530.14 L 235.76,529.87 L 235.56,529.43 L 235.05,528.68 L 234.66,527.88 L 234.30,527.03 L 233.85,526.16 L 233.53,525.17 L 233.37,524.47 L 232.95,523.88 L 232.78,523.54 L 232.27,522.82 L 232.11,522.37 L 232.17,521.93 L 232.34,521.47 L 232.36,521.23 L 232.29,520.74 L 232.21,520.35 L 231.81,519.69 L 231.71,519.24 L 231.75,518.92 L 231.90,518.57 L 232.37,518.06 L 232.75,517.83 L 233.34,517.60 L 234.36,517.16 L 234.75,516.95 L 235.47,516.36 L 289.88,486.78 L 430.07,357.65 L 427.72,334.20 L 427.72,333.85 L 427.63,333.30 L 427.37,331.71 L 427.74,331.20 L 428.28,330.33 L 428.65,329.81 L 429.68,328.52 L 428.94,327.96 L 427.96,327.42 L 427.15,327.08 L 427.42,326.56 L 427.59,325.98 L 426.66,325.92 L 426.35,325.41 L 425.95,324.79 L 425.31,324.48 L 423.77,323.94 L 422.78,323.62 L 422.88,321.75 L 423.29,320.32 L 423.16,318.48 L 422.70,316.85 L 420.41,314.95 L 420.38,305.34 L 419.91,301.21 L 420.15,298.89 L 418.07,297.92 L 414.70,298.81 L 414.09,296.32 L 412.56,296.43 L 412.30,299.65 L 411.53,301.14 L 411.07,303.32 L 409.60,304.49 L 408.27,304.85 L 407.29,304.01 L 406.97,303.42 L 406.38,301.13 L 405.15,299.30 L 404.60,296.76 L 403.76,291.82 L 403.76,289.57 L 405.94,286.59 L 408.52,283.36 L 411.65,280.83 L 412.17,280.11 L 414.31,277.10 L 418.50,272.65 L 420.52,271.40 L 422.68,269.70 L 424.05,268.37 L 425.64,267.25 L 426.35,266.76 L 428.94,265.68 L 430.72,264.92 L 431.77,264.33 L 433.62,263.82 L 436.01,263.19 L 438.11,262.73 L 438.74,262.54 L 439.67,263.38 L 441.41,265.82 L 442.60,268.07 L 443.30,269.18 L 444.68,271.16 L 446.06,273.08 L 446.82,274.23 L 448.35,275.89 L 449.16,276.47 L 450.06,277.31 L 450.49,277.58 L 450.68,277.93 L 450.96,278.41 L 451.36,278.76 L 451.99,278.99 L 453.16,278.86 L 454.98,278.23 L 456.62,277.62 L 457.95,277.37 L 458.64,277.47 L 460.46,277.05 L 461.56,276.71 L 462.75,276.86 L 463.24,276.57 L 463.74,276.44 L 463.76,275.62 L 463.56,275.35 L 462.97,274.61 L 463.38,274.25 L 464.52,273.94 L 465.09,273.83 L 465.52,273.41 L 466.53,272.52 L 467.24,271.45 L 467.94,271.10 L 469.16,271.10 L 469.69,270.72 L 469.28,268.19 L 470.54,267.65 L 470.92,267.96 L 471.06,268.53 L 471.46,268.97 L 472.09,269.21 L 472.72,268.66 L 472.92,267.52 L 473.26,267.10 L 473.81,266.78 L 474.46,266.91 L 474.99,267.21 L 475.82,267.99 L 476.70,269.09 L 477.44,270.10 L 478.35,270.99 L 478.68,272.74 L 478.98,273.39 L 479.99,274.14 L 480.90,274.78 L 481.95,275.65 L 482.47,276.03 L 483.33,276.83 L 484.24,277.55 L 484.79,277.82 L 485.88,278.29 L 486.39,278.70 L 486.84,279.07 L 486.96,279.64 L 486.80,280.28 L 486.43,281.37 L 486.25,282.55 L 486.08,283.76 L 486.19,284.43 L 486.32,285.16 L 486.75,284.67 L 487.88,284.10 L 489.48,283.27 L 490.54,282.55 L 492.04,281.30 L 493.56,280.06 L 494.08,279.85 L 494.76,279.79 L 496.13,279.79 L 497.48,280.03 L 498.76,280.56 L 500.25,281.48 L 501.58,282.15 L 502.13,282.44 L 502.69,282.61 L 503.39,282.61 L 504.07,282.33 L 504.67,281.95 L 505.25,281.58 L 505.94,281.44 L 506.58,281.53 L 507.85,282.02 L 509.68,282.91 L 511.39,283.76 L 512.00,284.06 L 511.79,284.34 L 511.68,284.53 L 511.66,284.71 L 511.68,284.88 L 511.80,285.03 L 512.01,285.16 L 512.31,285.22 L 512.76,285.21 L 513.08,285.15 L 513.17,285.10 L 513.18,284.99 L 513.16,284.91 L 513.08,284.79 L 513.03,284.53 L 513.02,284.34 L 513.06,284.26 L 513.16,284.16 L 513.23,284.12 L 513.29,284.10 L 513.38,284.16 L 513.45,284.21 L 513.55,284.36 L 513.69,284.65 L 513.83,284.81 L 513.91,284.85 L 514.06,284.85 L 514.18,284.78 L 514.24,284.65 L 514.27,284.53 L 514.81,284.36 L 516.09,284.02 L 516.71,283.93 L 516.85,283.99 L 516.86,283.99 L 517.50,284.24 L 518.18,284.50 L 518.85,284.27 L 519.86,283.47 L 520.34,283.01 L 520.87,282.62 L 520.98,282.94 L 521.15,282.99 L 521.29,283.06 L 521.43,283.10 L 521.74,283.11 L 521.96,283.09 L 522.19,283.10 L 522.38,283.10 L 522.59,283.23 L 522.86,283.40 L 523.21,283.69 L 523.73,284.03 L 524.07,284.14 L 524.38,284.19 L 524.71,284.21 L 525.26,284.11 L 525.51,283.94 L 525.78,283.78 L 526.09,283.66 L 526.39,283.57 L 526.68,283.53 L 526.87,283.54 L 527.03,283.56 L 527.22,283.62 L 527.40,283.73 L 527.83,283.97 L 528.20,284.14 L 528.56,284.21 L 529.35,284.24 L 529.71,284.20 L 530.03,284.13 L 530.35,283.99 L 530.79,283.77 L 531.27,283.51 L 531.67,283.50 L 532.03,283.58 L 532.25,283.71 L 532.39,283.94 L 532.47,284.16 L 532.52,284.48 L 532.58,284.83 L 532.61,285.21 L 532.69,285.41 L 532.92,285.67 L 533.21,286.18 L 533.38,286.54 L 533.42,286.92 L 533.50,287.41 L 533.57,287.75 L 533.69,288.09 L 533.81,288.23 L 534.08,288.38 L 534.35,288.48 L 534.65,288.51 L 535.54,288.45 L 536.83,288.31 L 536.84,287.82 L 537.20,287.16 L 537.30,286.41 L 537.42,285.15 L 537.61,284.52 L 537.74,283.87 L 538.06,282.08 L 538.21,281.37 L 538.32,280.78 L 538.43,280.12 L 538.67,279.36 L 538.95,278.74 L 539.19,278.13 L 539.51,277.55 L 539.81,276.94 L 540.12,276.38 L 540.79,275.42 L 541.08,274.92 L 541.64,274.40 L 542.05,273.87 L 542.38,273.43 L 542.77,272.92 L 542.90,272.12 L 542.55,270.96 L 542.31,270.33 L 542.43,269.68 L 542.75,269.03 L 542.16,268.54 L 541.66,267.97 L 541.26,267.38 L 541.21,266.74 L 541.33,266.03 L 541.59,265.46 L 541.71,264.80 L 541.66,264.02 L 541.75,263.33 L 541.85,262.04 L 541.71,261.34 L 541.82,260.89 L 541.91,260.53 L 541.96,260.25 L 542.06,260.00 L 542.22,259.75 L 542.41,259.50 L 542.71,259.23 L 542.89,259.10 L 543.14,258.92 L 543.32,258.74 L 543.56,258.41 L 543.74,258.07 L 543.93,257.81 L 544.36,257.45 L 544.54,257.31 L 544.69,257.18 L 544.80,257.04 L 544.90,256.87 L 544.94,256.62 L 544.94,256.47 L 544.88,256.24 L 544.78,255.95 L 544.69,255.55 L 544.64,255.34 L 544.65,255.15 L 544.74,254.92 L 545.09,254.48 L 545.43,254.09 L 545.63,253.81 L 545.64,253.78 L 545.83,253.05 L 545.99,252.55 L 546.20,252.03 L 546.36,251.70 L 546.68,250.91 L 546.77,250.66 L 546.76,250.61 L 546.76,250.61 L 545.87,249.66 L 545.73,246.30 L 546.99,243.16 L 549.06,237.97 L 550.31,234.85 L 550.26,232.73 L 550.26,232.73 L 550.39,231.38 L 549.97,229.96 L 549.39,228.28 L 549.47,228.31 L 554.58,229.66 L 558.20,230.61 L 559.98,231.13 L 561.20,231.46 L 561.61,231.68 L 561.89,232.11 L 562.06,232.53 L 562.03,233.02 L 561.89,233.87 L 561.79,234.59 L 561.93,235.27 L 562.52,236.28 L 563.21,237.03 L 563.77,237.45 L 564.29,237.61 L 565.96,237.65 L 567.63,237.61 L 569.74,237.46 L 571.64,236.92 L 573.07,236.68 L 574.84,236.75 L 575.87,237.07 L 576.65,237.60 L 577.39,238.13 L 579.09,239.65 L 580.87,241.67 L 582.31,242.88 L 584.70,244.06 L 587.18,244.95 L 587.22,244.97 L 588.76,245.33 L 590.36,245.78 L 592.90,245.89 L 593.77,245.98 L 596.54,246.09 L 599.66,246.22 L 600.47,246.44 L 601.44,247.07 L 602.27,247.63 L 603.99,248.92 L 604.42,249.43 L 605.78,250.68 L 606.51,251.35 L 607.38,252.07 L 607.39,252.06 L 609.38,253.55 L 609.99,253.86 L 610.11,253.97 L 610.94,254.78 L 611.60,255.23 L 613.06,255.21 L 614.79,254.99 L 616.03,254.22 L 616.60,253.85 L 616.66,253.80 L 618.35,252.87 L 621.03,251.82 L 624.08,250.86 L 626.22,250.52 L 627.80,250.48 L 629.83,250.98 L 631.12,251.01 L 631.48,249.02 L 631.83,247.50 L 633.01,245.89 L 634.50,244.47 L 635.98,242.65 L 636.12,242.18 L 635.96,240.78 L 635.81,239.81 L 635.92,239.27 L 636.85,237.14 L 637.13,235.54 L 637.21,233.50 L 637.89,233.39 L 638.28,233.04 L 638.14,232.62 L 637.63,232.10 L 637.09,231.46 L 636.96,230.98 L 637.10,230.56 L 637.25,230.20 L 637.20,229.96 L 637.07,229.84 L 636.83,229.22 L 636.66,228.63 L 636.88,227.88 L 636.93,227.70 L 636.63,227.01 L 636.33,226.44 L 636.37,225.70 L 636.47,224.95 L 636.49,224.40 L 636.45,223.92 L 636.60,223.62 L 636.15,215.74 L 636.14,211.91 L 635.97,208.92 L 635.98,204.20 L 636.33,199.67 L 636.24,196.63 L 636.11,188.77 L 636.20,187.81 L 636.67,184.33 L 637.06,182.98 L 636.55,179.67 L 636.52,179.14 L 636.03,173.06 L 635.88,170.02 L 635.89,167.74 L 636.41,162.73 L 636.79,158.14 L 637.12,155.77 L 638.64,152.91 L 640.33,149.84 L 640.81,147.15 L 642.03,143.93 L 642.59,141.82 L 642.53,139.01 L 642.41,132.57 L 642.33,132.57 L 641.62,132.05 L 641.46,131.57 L 641.50,131.10 L 641.77,130.63 L 642.51,129.74 L 643.75,128.74 L 645.14,127.52 L 646.31,125.84 L 646.73,125.27 L 646.80,124.85 L 646.56,124.31 L 645.97,123.73 L 644.57,122.96 L 643.43,122.62 L 642.82,122.57 L 641.40,122.64 L 639.46,122.78 L 638.34,122.58 L 637.55,122.24 L 637.18,121.64 L 637.02,120.48 L 637.05,119.84 L 637.33,119.11 L 638.28,116.88 L 638.54,116.17 L 639.10,113.92 L 639.38,112.55 L 639.62,111.74 L 640.39,110.60 L 640.95,109.95 L 642.20,108.32 L 644.60,106.03 L 645.31,105.57 L 646.11,105.26 L 646.88,105.24 L 647.73,105.45 L 648.54,105.87 L 649.24,106.42 L 650.21,107.56 L 651.06,108.85 L 652.62,110.76 L 652.90,111.03 L 653.49,111.29 L 654.08,111.20 L 654.56,110.82 L 655.55,109.62 L 655.81,109.26 L 656.05,108.53 L 656.03,107.91 L 655.77,107.47 L 654.83,106.29 L 653.61,104.42 L 652.46,102.96 L 651.39,102.03 L 650.24,101.60 L 649.54,101.49 L 648.16,101.53 L 646.44,101.78 L 645.02,101.74 L 644.17,101.58 L 642.61,101.07 L 641.16,100.83 L 640.32,100.79 L 639.94,100.86 L 639.39,101.41 L 639.32,102.12 L 639.59,103.91 L 639.60,104.81 L 638.95,106.23 L 637.51,107.61 L 636.43,108.21 L 635.66,108.39 L 634.72,108.41 L 633.90,108.14 L 633.18,107.71 L 632.46,107.08 L 631.71,106.29 L 631.07,105.20 L 630.18,103.67 L 629.92,103.29 L 628.93,102.01 L 627.69,100.77 L 627.27,100.55 L 626.87,100.47 L 626.52,100.50 L 625.82,100.80 L 624.54,101.92 L 623.37,103.11 L 622.07,104.09 L 621.62,104.22 L 620.84,104.18 L 620.26,103.84 L 619.83,103.08 L 619.76,102.22 L 619.83,101.73 L 620.29,100.88 L 620.56,100.38 L 621.21,99.35 L 622.08,97.72 L 622.31,97.32 L 623.31,94.79 L 623.61,93.88 L 623.90,92.64 L 623.93,91.31 L 623.68,90.35 L 623.30,89.31 L 622.60,88.25 L 622.06,87.44 L 621.99,86.86 L 622.17,86.40 L 622.81,85.69 L 623.46,85.37 L 624.55,84.95 L 625.00,84.69 L 625.70,84.06 L 626.08,83.50 L 625.98,82.92 L 625.62,82.57 L 635.75,77.40 L 640.30,75.17 L 644.40,72.80 L 645.30,76.75 L 649.64,76.08 L 652.47,75.57 L 655.45,71.93 L 658.47,68.27 L 659.98,64.72 L 663.63,55.72 L 656.28,52.17 L 650.80,49.79 L 647.59,49.19 L 647.64,49.07 L 644.34,47.95 L 642.80,47.32 L 641.26,46.56 L 639.80,45.71 L 638.50,44.47 L 637.44,43.03 L 636.30,41.55 L 635.21,40.29 L 633.66,39.64 L 631.97,38.99 L 630.16,38.41 L 629.69,38.32 L 628.83,38.28 L 628.32,38.22 L 627.80,38.06 L 626.55,37.69 L 625.02,36.88 L 623.90,36.32 L 623.62,36.09 L 623.56,36.04 L 623.56,35.94 L 623.55,35.68 L 623.73,34.49 L 623.81,33.98 L 624.33,32.74 L 624.86,31.03 L 625.50,29.42 L 625.96,27.88 L 626.38,26.28 L 626.53,25.87 L 626.82,24.64 L 627.00,24.23 L 627.08,22.96 L 627.30,20.14 L 627.32,19.81 L 627.31,18.90 L 627.18,18.14 L 627.12,17.64 L 627.19,16.26 L 627.16,15.42 L 626.39,15.11 L 625.14,14.78 L 624.72,14.61 L 623.06,13.78 L 621.97,13.14 L 621.44,13.05 L 619.63,13.10 L 619.21,13.03 L 617.96,13.06 L 616.83,13.03 L 616.32,12.93 L 615.90,12.83 L 614.88,12.23 L 614.55,12.04 L 613.66,11.29 L 612.09,10.51 L 611.63,10.27 Z" fill="#1d3672" stroke="#333" stroke-width="1"/>
</svg>