<svg xmlns="http://www.w3.org/2000/svg" width="800" height="600" viewBox="0 0 800 600">
<path d="M 396.09,10.05 L 394.65,10.00 L 393.58,10.11 L 392.28,10.35 L 390.31,11.06 L 388.35,12.48 L 387.62,13.54 L 387.62,13.54 L 387.49,13.69 L 386.29,15.72 L 385.41,17.47 L 384.47,18.52 L 382.52,20.12 L 381.58,20.71 L 380.53,21.07 L 379.38,21.48 L 376.36,22.20 L 373.81,22.87 L 372.35,23.25 L 370.51,23.87 L 369.55,24.13 L 368.03,24.35 L 366.24,24.44 L 364.91,24.74 L 363.53,25.17 L 363.33,25.23 L 362.15,25.93 L 362.15,25.93 L 362.10,25.96 L 360.95,26.96 L 360.26,27.66 L 359.80,28.13 L 359.23,28.81 L 358.83,29.28 L 358.27,30.40 L 358.16,30.61 L 358.15,30.66 L 357.89,31.77 L 357.56,33.33 L 357.34,34.58 L 357.06,36.28 L 356.99,36.84 L 356.87,37.69 L 356.54,39.31 L 356.42,39.59 L 355.78,41.21 L 354.02,44.78 L 353.67,45.56 L 352.87,47.31 L 352.31,48.68 L 352.31,48.68 L 352.28,48.74 L 352.15,48.95 L 351.90,49.33 L 351.49,49.84 L 351.00,50.20 L 350.70,50.35 L 350.53,50.44 L 349.37,50.79 L 348.73,50.98 L 348.70,50.99 L 347.56,51.24 L 347.34,51.29 L 346.99,51.37 L 345.93,51.60 L 344.83,51.85 L 343.55,52.02 L 341.28,52.02 L 340.37,51.84 L 339.61,51.51 L 339.23,51.34 L 338.34,50.94 L 336.63,50.09 L 336.63,50.09 L 336.52,50.07 L 335.31,49.83 L 334.84,49.67 L 334.03,49.39 L 332.87,49.06 L 332.87,49.06 L 331.17,48.88 L 329.09,49.04 L 327.23,49.53 L 327.17,49.55 L 326.86,49.67 L 325.06,50.29 L 324.64,50.44 L 324.42,50.55 L 322.10,51.75 L 321.59,52.02 L 321.36,52.13 L 320.63,52.53 L 319.79,53.06 L 319.76,53.08 L 317.90,54.49 L 315.69,56.36 L 315.69,56.36 L 315.63,56.40 L 315.21,56.70 L 313.68,57.75 L 312.07,58.86 L 310.57,59.91 L 310.48,59.97 L 310.23,60.15 L 309.35,60.66 L 308.08,61.39 L 306.36,62.40 L 305.12,63.25 L 304.05,63.98 L 302.82,64.71 L 302.11,65.13 L 301.50,65.57 L 300.87,66.01 L 300.75,66.13 L 300.74,66.14 L 300.17,66.71 L 298.68,68.22 L 298.11,68.83 L 298.03,68.92 L 297.00,70.04 L 296.87,70.18 L 296.55,70.53 L 295.48,71.86 L 295.34,72.03 L 295.16,72.31 L 294.91,72.90 L 294.89,73.41 L 294.87,73.86 L 294.96,74.50 L 295.05,75.15 L 295.10,75.34 L 295.37,76.29 L 295.44,76.57 L 295.50,76.79 L 295.95,78.27 L 296.39,80.86 L 296.37,81.13 L 296.33,81.55 L 296.21,82.07 L 296.21,82.07 L 296.05,82.42 L 295.81,82.91 L 295.53,83.30 L 295.31,83.59 L 294.34,84.52 L 293.68,84.89 L 293.08,85.22 L 292.22,85.54 L 291.14,85.93 L 290.06,86.06 L 288.90,86.20 L 288.56,86.18 L 287.91,86.16 L 286.85,86.01 L 284.48,85.61 L 283.07,85.47 L 282.80,85.42 L 283.64,87.29 L 284.64,89.09 L 285.33,90.09 L 285.83,91.38 L 286.51,93.01 L 286.92,94.74 L 287.22,96.39 L 287.41,97.38 L 287.74,98.37 L 287.95,99.60 L 288.23,100.80 L 288.32,102.61 L 288.19,105.07 L 288.01,107.27 L 287.79,110.65 L 287.58,112.15 L 287.42,113.50 L 287.20,114.81 L 287.26,117.58 L 287.24,120.71 L 287.75,122.20 L 288.19,123.65 L 286.72,124.18 L 285.22,124.88 L 283.38,125.69 L 282.19,126.16 L 280.45,126.85 L 279.27,127.36 L 278.00,127.94 L 276.67,128.94 L 275.75,129.85 L 274.82,130.93 L 273.76,132.09 L 273.47,133.48 L 274.30,134.35 L 274.82,135.35 L 275.46,136.60 L 275.56,137.76 L 275.03,138.75 L 274.58,139.62 L 274.28,140.75 L 274.07,141.98 L 273.70,144.38 L 272.86,144.58 L 272.52,144.59 L 272.47,144.55 L 272.29,144.53 L 271.93,144.41 L 271.67,144.28 L 271.53,144.26 L 271.43,144.20 L 271.16,144.18 L 270.75,144.24 L 270.08,144.43 L 269.34,144.66 L 267.86,144.61 L 266.28,144.62 L 264.92,144.89 L 263.46,144.53 L 263.47,144.61 L 263.51,144.86 L 263.54,145.12 L 263.57,145.36 L 263.59,145.57 L 263.61,145.72 L 263.63,145.83 L 263.64,145.89 L 263.64,145.93 L 263.64,145.96 L 263.65,145.99 L 263.65,146.03 L 263.66,146.11 L 263.66,146.24 L 263.67,146.45 L 263.69,146.73 L 263.71,147.05 L 263.73,147.40 L 263.75,147.73 L 263.76,148.01 L 263.77,148.21 L 263.78,148.34 L 263.80,148.42 L 263.79,148.47 L 263.79,148.50 L 263.80,148.52 L 263.81,148.57 L 263.82,148.63 L 263.82,148.74 L 263.84,148.90 L 263.87,149.12 L 263.90,149.37 L 263.93,149.65 L 263.97,149.90 L 263.99,150.12 L 264.02,150.28 L 264.03,150.38 L 264.04,150.45 L 264.04,150.50 L 264.04,150.52 L 264.05,150.54 L 264.05,150.58 L 264.06,150.62 L 264.07,150.69 L 264.08,150.78 L 264.09,150.89 L 264.11,151.03 L 264.12,151.18 L 264.14,151.31 L 264.15,151.43 L 264.17,151.52 L 264.17,151.58 L 264.18,151.63 L 264.19,151.66 L 264.19,151.68 L 264.19,151.71 L 264.19,151.73 L 264.19,151.76 L 264.20,151.79 L 264.20,151.82 L 264.21,151.86 L 264.22,151.90 L 264.22,151.95 L 264.22,151.99 L 264.23,152.02 L 264.24,152.06 L 264.24,152.09 L 264.24,152.11 L 264.24,152.13 L 264.24,152.15 L 264.24,152.18 L 264.24,152.21 L 264.24,152.25 L 264.23,152.31 L 264.21,152.38 L 264.20,152.48 L 264.18,152.60 L 264.16,152.72 L 264.14,152.84 L 264.12,152.93 L 264.11,153.01 L 264.10,153.07 L 264.09,153.11 L 264.09,153.14 L 264.09,153.16 L 264.09,153.19 L 264.09,153.22 L 264.09,153.26 L 264.09,153.32 L 264.08,153.40 L 264.08,153.50 L 264.07,153.62 L 264.07,153.74 L 264.06,153.87 L 264.06,153.97 L 264.07,154.05 L 264.07,154.10 L 264.07,154.15 L 264.07,154.17 L 264.07,154.20 L 264.07,154.22 L 264.07,154.26 L 264.07,154.30 L 264.09,154.36 L 264.10,154.43 L 264.12,154.53 L 264.14,154.65 L 264.16,154.77 L 264.18,154.89 L 264.20,154.98 L 264.21,155.06 L 264.22,155.12 L 264.23,155.16 L 264.23,155.19 L 264.23,155.21 L 264.24,155.24 L 264.24,155.28 L 264.25,155.33 L 264.26,155.42 L 264.28,155.55 L 264.29,155.72 L 264.32,155.92 L 264.35,156.13 L 264.37,156.34 L 264.38,156.51 L 264.40,156.63 L 264.41,156.72 L 264.42,156.77 L 264.43,156.82 L 264.43,156.84 L 264.43,156.87 L 264.43,156.91 L 264.43,156.98 L 264.43,157.07 L 264.43,157.23 L 264.43,157.43 L 264.44,157.67 L 264.44,157.92 L 264.45,158.15 L 264.45,158.36 L 264.46,158.51 L 264.46,158.61 L 264.46,158.67 L 264.45,158.71 L 264.45,158.74 L 264.45,158.77 L 264.46,158.84 L 264.47,158.96 L 264.48,159.18 L 264.50,159.53 L 264.52,160.02 L 264.56,160.61 L 264.59,161.23 L 264.63,161.81 L 264.65,162.30 L 264.67,162.65 L 264.68,162.87 L 264.69,163.00 L 264.69,163.06 L 264.69,163.09 L 264.69,163.12 L 264.70,163.19 L 264.69,163.32 L 264.71,163.55 L 264.71,163.92 L 264.72,164.44 L 264.73,165.05 L 264.74,165.70 L 264.76,166.31 L 264.77,166.83 L 264.78,167.19 L 264.79,167.43 L 264.79,167.56 L 264.79,167.62 L 264.79,167.66 L 264.80,167.69 L 264.80,167.73 L 264.80,167.82 L 264.81,167.98 L 264.82,168.21 L 264.85,168.52 L 264.87,168.91 L 264.91,169.30 L 264.94,169.69 L 264.96,170.01 L 264.97,170.24 L 264.98,170.38 L 264.98,170.47 L 264.99,170.52 L 264.99,170.55 L 265.00,170.58 L 265.01,170.61 L 265.01,170.66 L 265.02,170.74 L 265.03,170.84 L 265.06,170.98 L 265.08,171.15 L 265.11,171.32 L 265.13,171.48 L 265.14,171.63 L 265.16,171.73 L 265.17,171.94 L 265.18,172.35 L 265.18,172.53 L 265.14,172.73 L 265.14,172.90 L 265.14,173.06 L 265.13,173.17 L 265.13,173.25 L 265.13,173.30 L 265.12,173.34 L 265.12,173.36 L 265.12,173.39 L 265.12,173.43 L 265.11,173.52 L 265.11,173.65 L 265.10,173.85 L 265.09,174.12 L 265.07,174.45 L 265.06,174.79 L 265.04,175.12 L 265.03,175.40 L 265.02,175.59 L 265.02,175.73 L 265.02,175.80 L 265.01,175.85 L 265.01,175.88 L 265.01,175.91 L 265.00,175.96 L 264.99,176.03 L 264.98,176.17 L 264.97,176.37 L 264.95,176.66 L 264.92,177.00 L 264.89,177.36 L 264.87,177.70 L 264.84,177.98 L 264.82,178.18 L 264.81,178.32 L 264.81,178.40 L 264.81,178.45 L 264.81,178.48 L 264.81,178.50 L 264.81,178.54 L 264.81,178.60 L 264.81,178.68 L 264.80,178.80 L 264.80,178.96 L 264.79,179.14 L 264.79,179.34 L 264.78,179.52 L 264.78,179.68 L 264.78,179.80 L 264.78,179.88 L 264.78,179.93 L 262.86,179.41 L 261.61,179.05 L 258.90,179.42 L 256.19,179.17 L 254.57,179.15 L 253.08,179.41 L 251.29,180.03 L 249.74,180.94 L 248.46,181.81 L 245.87,182.78 L 243.85,183.83 L 242.52,184.73 L 241.31,185.81 L 240.08,186.80 L 239.02,187.84 L 238.02,188.79 L 236.90,190.00 L 235.44,191.75 L 234.59,192.89 L 234.10,194.15 L 233.77,195.30 L 231.95,197.29 L 230.31,198.81 L 229.18,200.09 L 228.49,201.13 L 228.10,201.90 L 228.07,202.85 L 228.15,203.73 L 226.05,203.31 L 222.86,202.52 L 221.48,202.30 L 220.54,202.15 L 218.81,202.26 L 217.61,202.51 L 215.82,202.92 L 214.53,202.80 L 212.51,202.63 L 210.36,202.71 L 207.74,202.96 L 205.46,203.48 L 203.32,203.97 L 201.74,204.18 L 200.49,204.99 L 199.40,206.02 L 198.49,206.90 L 197.67,207.90 L 195.78,210.11 L 195.02,211.08 L 194.27,212.37 L 193.06,213.16 L 191.95,213.44 L 190.33,213.57 L 189.43,213.93 L 188.34,213.68 L 187.79,213.20 L 187.27,212.40 L 186.80,212.56 L 186.18,213.03 L 184.79,213.91 L 183.93,214.22 L 183.14,213.89 L 181.85,213.36 L 180.51,212.71 L 179.66,212.77 L 178.25,212.48 L 176.73,211.65 L 176.00,210.93 L 174.80,209.92 L 173.77,209.21 L 172.13,208.21 L 170.64,206.96 L 168.94,205.62 L 168.21,204.89 L 167.08,203.81 L 166.19,203.05 L 165.97,202.87 L 164.95,202.87 L 162.95,203.41 L 163.48,204.72 L 164.29,207.22 L 164.43,208.64 L 164.84,210.46 L 165.26,212.25 L 165.57,213.89 L 165.71,215.47 L 165.85,216.74 L 165.94,218.21 L 165.83,219.80 L 165.56,221.24 L 163.51,222.13 L 161.24,223.31 L 159.34,224.22 L 157.55,225.38 L 155.80,226.47 L 154.59,227.35 L 153.48,228.26 L 152.10,229.37 L 150.48,229.97 L 148.52,230.66 L 147.31,231.04 L 145.95,231.46 L 143.66,232.87 L 141.61,233.86 L 139.67,234.83 L 137.88,235.76 L 136.56,236.84 L 135.11,237.84 L 133.81,238.67 L 132.14,239.47 L 130.27,240.18 L 128.33,240.54 L 126.86,240.95 L 125.63,241.19 L 124.30,241.73 L 123.07,242.25 L 121.33,243.24 L 119.69,244.29 L 119.22,244.71 L 119.30,245.63 L 119.00,246.82 L 118.84,247.65 L 118.84,248.20 L 119.24,249.51 L 119.62,250.58 L 119.95,252.28 L 119.90,253.43 L 119.65,254.39 L 118.77,255.57 L 117.59,256.60 L 116.80,257.58 L 116.29,258.33 L 115.89,259.26 L 115.26,260.45 L 114.84,261.47 L 114.63,262.07 L 114.83,263.22 L 115.33,264.64 L 115.45,265.72 L 115.41,266.27 L 115.49,267.30 L 115.82,268.73 L 116.46,270.09 L 116.75,270.85 L 116.63,271.60 L 115.95,272.87 L 115.03,274.28 L 114.60,275.36 L 114.39,276.18 L 114.43,277.38 L 114.64,278.13 L 115.11,279.29 L 115.74,280.45 L 115.82,281.27 L 115.90,282.74 L 115.81,283.81 L 116.02,284.80 L 116.56,285.40 L 117.90,285.96 L 119.49,286.32 L 121.70,286.72 L 122.91,286.84 L 125.05,286.69 L 126.22,286.70 L 127.56,286.78 L 128.56,286.74 L 129.73,286.94 L 131.34,287.56 L 132.59,288.47 L 133.43,289.43 L 132.46,290.09 L 131.08,291.40 L 130.36,292.27 L 129.56,292.90 L 128.72,293.81 L 128.43,294.76 L 127.94,296.15 L 127.33,297.12 L 126.44,298.19 L 125.37,298.59 L 124.19,298.86 L 123.65,299.20 L 123.42,299.61 L 123.19,300.64 L 122.87,301.63 L 122.30,302.33 L 121.35,302.62 L 120.09,302.75 L 118.68,303.14 L 116.84,303.72 L 115.12,304.15 L 113.85,304.28 L 111.97,304.53 L 110.35,304.66 L 109.47,304.96 L 108.11,305.73 L 106.96,306.66 L 106.01,307.68 L 104.76,308.69 L 104.04,309.42 L 103.21,310.37 L 102.32,310.20 L 100.99,309.76 L 99.70,309.38 L 98.86,308.95 L 96.52,308.05 L 95.26,307.39 L 93.96,307.02 L 93.46,306.89 L 92.48,305.40 L 91.63,304.10 L 90.89,302.98 L 90.07,301.53 L 89.19,300.20 L 88.70,299.44 L 88.12,298.38 L 87.84,297.32 L 87.38,296.23 L 86.85,295.08 L 86.16,293.17 L 85.79,292.29 L 85.18,291.35 L 84.25,290.31 L 83.62,288.74 L 82.84,287.65 L 83.88,283.90 L 85.14,280.43 L 84.29,278.88 L 81.37,274.48 L 80.11,272.42 L 78.81,270.99 L 77.47,269.06 L 74.85,271.06 L 71.71,273.26 L 69.45,274.86 L 68.06,276.28 L 67.70,276.96 L 67.53,281.91 L 66.41,283.14 L 65.53,286.32 L 64.76,289.74 L 70.19,292.75 L 71.69,292.12 L 73.96,292.28 L 74.04,293.47 L 73.62,297.74 L 73.42,299.52 L 73.26,301.02 L 73.07,302.69 L 72.71,303.66 L 72.20,305.23 L 71.27,308.17 L 70.79,309.53 L 70.09,311.92 L 67.25,311.92 L 65.88,311.87 L 64.90,311.84 L 63.84,311.73 L 63.80,311.91 L 63.78,312.22 L 63.66,312.89 L 63.57,313.18 L 63.42,313.89 L 63.22,314.55 L 63.04,314.76 L 63.25,315.08 L 63.74,315.74 L 63.98,316.22 L 64.07,316.88 L 64.13,317.43 L 64.11,317.80 L 63.83,317.70 L 63.31,317.47 L 62.82,317.23 L 62.36,317.01 L 61.88,316.89 L 60.66,316.61 L 59.88,316.41 L 59.15,316.16 L 58.67,315.97 L 58.33,315.78 L 58.04,315.54 L 57.84,315.30 L 57.64,314.92 L 57.39,314.38 L 57.16,314.06 L 56.89,313.81 L 56.51,313.60 L 55.95,313.30 L 55.13,312.87 L 54.72,312.62 L 54.48,312.43 L 54.27,312.16 L 54.00,311.62 L 53.57,310.92 L 53.19,310.63 L 52.81,310.39 L 52.27,310.17 L 51.66,309.97 L 50.80,309.76 L 49.88,309.46 L 48.45,309.03 L 47.44,308.69 L 46.70,308.47 L 46.04,308.30 L 45.02,308.13 L 44.02,307.98 L 42.76,307.95 L 41.99,308.07 L 41.48,308.26 L 40.70,308.67 L 39.52,309.56 L 38.22,310.71 L 37.07,311.19 L 35.90,311.57 L 34.58,311.95 L 33.61,312.14 L 32.10,312.62 L 32.35,315.56 L 32.62,317.44 L 32.62,318.14 L 32.84,323.05 L 32.75,335.61 L 32.90,337.96 L 30.99,337.84 L 31.01,339.40 L 31.45,344.80 L 31.49,347.21 L 31.02,350.22 L 34.07,350.90 L 43.97,352.54 L 43.98,352.54 L 53.17,354.23 L 58.33,355.85 L 66.26,357.60 L 68.63,358.04 L 76.89,360.48 L 76.24,363.58 L 75.39,367.29 L 75.38,367.34 L 74.46,371.71 L 73.81,374.88 L 73.70,375.31 L 73.57,375.35 L 73.35,375.31 L 72.84,375.25 L 72.23,375.17 L 71.81,375.11 L 71.39,375.04 L 71.12,375.04 L 70.15,375.14 L 69.79,375.24 L 68.81,379.52 L 63.80,380.96 L 63.50,381.52 L 62.51,383.32 L 59.53,387.96 L 56.38,391.96 L 52.76,395.50 L 49.71,398.84 L 46.36,402.57 L 41.15,408.58 L 39.64,410.38 L 37.68,411.57 L 35.67,412.71 L 34.64,413.03 L 33.94,413.62 L 32.95,415.30 L 32.01,416.35 L 30.15,417.24 L 28.77,417.58 L 27.42,418.56 L 24.08,421.12 L 21.66,423.01 L 18.32,425.57 L 15.07,427.89 L 12.08,430.21 L 10.00,432.36 L 11.50,433.65 L 12.72,434.12 L 14.35,434.64 L 16.15,435.46 L 17.24,436.29 L 18.59,437.84 L 19.18,438.79 L 19.62,440.19 L 20.88,441.67 L 22.63,443.29 L 23.83,444.62 L 25.49,445.73 L 28.17,446.89 L 30.40,447.48 L 33.00,447.87 L 34.58,447.98 L 35.64,448.19 L 37.45,448.89 L 38.75,449.38 L 39.51,449.44 L 40.31,449.15 L 42.08,448.15 L 43.64,447.27 L 46.25,446.76 L 47.63,446.73 L 50.00,446.75 L 52.86,446.64 L 54.44,446.55 L 55.78,446.47 L 55.88,446.47 L 58.33,446.74 L 59.34,447.09 L 61.60,448.07 L 64.58,449.33 L 68.30,448.36 L 70.94,447.13 L 74.18,445.95 L 78.45,444.00 L 82.42,441.88 L 85.20,440.88 L 85.70,440.50 L 86.39,439.88 L 88.04,438.91 L 89.14,438.07 L 89.93,437.37 L 90.96,436.62 L 91.67,436.28 L 93.74,435.45 L 94.10,435.36 L 95.32,435.26 L 94.87,436.38 L 94.52,437.02 L 94.10,437.58 L 93.77,438.15 L 93.53,438.81 L 93.30,439.69 L 92.98,440.68 L 92.67,441.91 L 92.38,443.49 L 92.30,444.36 L 92.15,445.33 L 92.11,446.67 L 91.89,447.68 L 91.64,448.36 L 91.55,449.17 L 91.19,451.24 L 90.67,452.87 L 90.28,453.66 L 89.69,455.32 L 89.36,456.76 L 89.17,457.41 L 88.32,459.02 L 88.18,459.40 L 88.11,459.82 L 87.66,460.30 L 87.41,460.92 L 87.39,461.20 L 88.05,462.56 L 88.27,463.17 L 88.26,463.81 L 88.15,464.42 L 87.91,465.23 L 87.79,466.15 L 87.78,466.75 L 87.95,467.57 L 88.22,468.09 L 88.43,468.39 L 88.92,468.87 L 89.31,469.47 L 89.61,469.82 L 89.82,470.19 L 89.83,470.28 L 89.80,470.38 L 89.77,470.51 L 89.68,470.63 L 88.79,471.49 L 88.73,471.58 L 88.70,471.63 L 88.66,471.81 L 88.64,471.93 L 88.63,472.06 L 88.65,472.19 L 88.79,472.84 L 88.99,473.28 L 89.02,473.47 L 89.36,474.18 L 89.52,474.65 L 89.69,475.42 L 89.85,475.77 L 90.21,476.30 L 90.59,476.70 L 90.79,476.83 L 91.27,477.04 L 92.04,477.73 L 92.24,478.27 L 92.34,478.83 L 92.32,480.19 L 92.45,480.79 L 92.51,480.96 L 92.57,481.08 L 92.65,481.20 L 92.73,481.29 L 92.84,481.36 L 92.92,481.38 L 92.98,481.39 L 93.08,481.41 L 93.14,481.41 L 93.22,481.41 L 93.29,481.38 L 94.09,481.09 L 94.79,480.84 L 94.93,480.83 L 95.16,480.88 L 95.51,481.08 L 95.71,481.29 L 96.04,481.83 L 96.48,482.38 L 96.73,483.19 L 96.78,484.51 L 96.55,486.38 L 96.69,486.65 L 97.38,487.46 L 98.06,488.61 L 98.14,489.45 L 98.10,490.35 L 98.34,490.90 L 98.99,491.42 L 99.26,491.58 L 100.13,491.97 L 100.36,492.19 L 100.54,492.68 L 100.58,492.94 L 100.53,493.63 L 100.81,494.39 L 101.66,495.45 L 101.88,495.84 L 102.03,496.37 L 102.04,497.27 L 102.15,497.98 L 102.32,498.49 L 102.61,499.04 L 103.46,500.38 L 105.31,499.58 L 106.29,499.24 L 108.11,498.12 L 108.66,497.75 L 110.46,497.60 L 112.81,497.18 L 114.11,496.90 L 119.40,495.84 L 122.80,495.01 L 124.60,494.54 L 126.58,493.78 L 128.35,493.09 L 130.33,492.23 L 131.29,492.13 L 133.59,494.94 L 134.25,495.92 L 136.35,498.49 L 137.04,499.44 L 138.84,501.57 L 139.20,502.06 L 142.29,505.86 L 144.22,508.28 L 146.29,511.11 L 148.69,513.90 L 149.96,515.58 L 152.18,518.35 L 153.51,520.32 L 155.02,522.54 L 156.50,524.87 L 157.55,526.61 L 158.68,528.18 L 160.05,530.50 L 161.94,533.27 L 162.83,534.77 L 164.42,536.98 L 166.38,539.33 L 167.54,540.81 L 169.47,543.36 L 171.02,545.24 L 172.57,547.38 L 172.94,547.64 L 173.15,547.88 L 173.47,548.03 L 174.14,547.99 L 174.95,548.06 L 175.53,548.21 L 176.32,548.67 L 176.76,548.83 L 177.15,548.89 L 177.57,548.86 L 178.15,548.89 L 179.44,549.07 L 181.87,549.56 L 183.02,549.54 L 183.82,549.71 L 184.87,549.74 L 185.70,549.85 L 186.75,550.82 L 187.28,551.58 L 188.10,553.03 L 188.37,553.84 L 188.84,554.65 L 191.10,557.43 L 191.69,558.06 L 192.37,559.33 L 193.17,560.63 L 194.26,562.01 L 194.71,562.41 L 195.37,562.77 L 196.15,563.16 L 197.01,563.68 L 197.94,561.65 L 198.77,560.23 L 199.41,559.17 L 200.99,558.03 L 202.43,556.89 L 205.58,555.05 L 207.74,553.72 L 210.01,552.33 L 211.40,551.24 L 212.71,550.39 L 215.35,548.84 L 217.51,547.51 L 218.71,546.80 L 218.84,546.75 L 219.23,545.35 L 220.10,542.62 L 220.71,540.69 L 223.58,540.43 L 225.63,540.10 L 228.98,539.84 L 232.20,539.35 L 235.31,539.02 L 237.43,538.80 L 238.57,538.65 L 239.17,536.76 L 239.49,536.06 L 239.79,535.22 L 239.89,534.25 L 240.00,533.45 L 240.32,531.46 L 240.62,529.59 L 240.97,527.71 L 241.66,526.96 L 242.42,526.27 L 242.97,525.51 L 243.45,524.75 L 244.35,522.92 L 244.80,522.22 L 245.32,521.21 L 246.16,520.74 L 248.02,519.59 L 248.82,519.16 L 249.65,518.79 L 250.57,518.16 L 251.63,517.86 L 252.78,517.75 L 253.74,517.60 L 253.75,517.22 L 253.76,516.45 L 253.94,514.69 L 254.03,513.62 L 254.49,511.84 L 254.65,510.85 L 255.10,509.10 L 255.38,508.34 L 255.36,508.39 L 255.51,508.27 L 256.11,507.78 L 257.04,507.31 L 257.98,506.72 L 259.08,506.46 L 260.30,505.90 L 261.43,505.90 L 263.44,506.04 L 264.51,506.03 L 265.22,505.45 L 266.66,504.13 L 267.47,503.45 L 268.13,502.84 L 269.13,502.18 L 270.96,501.24 L 272.17,500.66 L 272.72,499.80 L 272.58,498.78 L 272.55,497.91 L 272.98,497.01 L 273.11,496.01 L 273.79,494.10 L 274.19,493.26 L 274.96,491.53 L 275.82,491.26 L 276.81,491.27 L 278.81,491.40 L 279.95,491.46 L 280.97,491.60 L 281.93,491.88 L 283.85,492.14 L 284.89,492.40 L 286.71,492.75 L 287.08,493.45 L 287.83,495.17 L 291.29,497.39 L 292.09,499.67 L 293.89,502.19 L 296.54,504.31 L 303.16,509.81 L 308.47,513.43 L 314.91,518.08 L 312.31,524.86 L 314.98,525.19 L 321.28,527.07 L 326.49,531.41 L 338.23,536.31 L 338.78,536.38 L 348.40,540.37 L 352.10,542.00 L 363.09,546.44 L 370.50,544.62 L 381.62,541.52 L 381.90,542.05 L 382.56,542.73 L 384.30,544.01 L 385.46,544.76 L 386.57,545.35 L 387.46,546.02 L 388.28,547.13 L 388.89,548.61 L 389.42,550.55 L 389.94,551.35 L 390.80,552.04 L 392.26,552.83 L 393.89,553.90 L 394.42,554.33 L 394.94,554.75 L 395.47,555.28 L 395.87,555.99 L 396.05,557.01 L 395.85,558.90 L 395.11,560.88 L 393.90,562.80 L 391.83,564.69 L 390.30,566.08 L 388.87,567.50 L 388.18,568.19 L 387.64,569.08 L 387.05,570.32 L 386.84,570.78 L 386.74,571.32 L 386.80,571.73 L 387.33,572.65 L 388.38,574.52 L 389.51,575.65 L 391.09,577.49 L 392.26,578.56 L 392.58,578.76 L 394.94,579.96 L 397.40,580.69 L 399.50,581.58 L 400.13,582.24 L 400.43,582.88 L 400.59,584.26 L 400.63,585.61 L 400.90,586.67 L 401.26,587.45 L 401.67,587.98 L 402.64,588.88 L 403.97,589.65 L 405.18,590.00 L 407.68,588.40 L 408.60,587.93 L 409.95,586.03 L 410.91,584.14 L 411.76,582.52 L 413.02,580.51 L 414.95,577.77 L 416.37,576.30 L 418.81,573.42 L 420.18,571.80 L 420.64,570.73 L 422.03,568.62 L 422.86,566.17 L 423.07,565.72 L 423.15,565.71 L 423.71,565.95 L 424.80,566.13 L 425.87,566.13 L 427.77,566.01 L 428.70,565.88 L 429.91,565.63 L 431.52,565.43 L 432.68,565.15 L 433.58,564.84 L 434.07,564.50 L 434.98,563.64 L 435.40,563.32 L 435.66,563.19 L 437.04,562.82 L 437.17,562.79 L 440.02,562.67 L 441.68,562.46 L 443.20,562.07 L 443.92,561.79 L 444.27,561.56 L 444.84,561.32 L 445.38,560.85 L 445.84,560.34 L 446.20,559.96 L 446.72,559.56 L 447.88,559.08 L 449.21,558.73 L 450.32,558.46 L 451.12,558.16 L 452.43,557.56 L 453.59,557.02 L 453.67,556.99 L 454.45,556.62 L 457.79,555.09 L 459.26,554.26 L 459.53,554.14 L 460.46,543.58 L 462.76,533.71 L 465.25,516.01 L 452.80,515.31 L 452.78,515.29 L 452.48,515.18 L 452.11,515.14 L 451.65,515.13 L 449.67,514.92 L 449.00,514.84 L 448.29,514.67 L 447.79,514.49 L 447.13,514.49 L 446.81,514.32 L 446.57,514.25 L 445.98,514.12 L 445.49,513.86 L 444.99,513.52 L 444.53,513.20 L 443.98,512.75 L 443.48,512.34 L 442.73,511.84 L 441.24,510.82 L 440.89,510.70 L 440.15,510.41 L 439.68,510.23 L 439.00,509.92 L 438.37,509.69 L 437.62,509.45 L 436.80,509.08 L 436.10,508.76 L 435.63,508.64 L 434.88,508.52 L 434.26,508.32 L 433.75,508.09 L 433.29,507.97 L 432.69,507.84 L 430.21,507.40 L 429.45,507.16 L 428.63,483.74 L 428.69,483.58 L 428.89,483.28 L 429.31,482.81 L 429.67,482.52 L 430.07,482.41 L 430.67,482.39 L 430.92,482.26 L 431.69,481.59 L 432.07,481.31 L 432.68,480.38 L 433.08,479.98 L 433.68,479.23 L 434.77,478.58 L 435.26,478.35 L 435.74,478.13 L 436.19,477.99 L 436.44,477.90 L 436.65,477.85 L 437.12,477.69 L 437.54,477.63 L 438.71,477.20 L 439.41,477.11 L 439.64,477.07 L 440.23,476.91 L 440.76,476.87 L 441.52,476.95 L 442.12,477.08 L 442.64,477.11 L 443.77,477.14 L 444.74,476.77 L 445.56,476.64 L 446.03,476.75 L 446.42,476.74 L 446.67,476.27 L 446.84,475.82 L 447.19,475.24 L 447.53,474.46 L 447.57,474.11 L 447.48,473.71 L 447.39,473.46 L 447.39,473.17 L 447.50,472.99 L 447.68,472.87 L 448.17,472.47 L 448.51,472.12 L 448.72,471.65 L 448.76,471.10 L 449.06,470.58 L 449.49,470.10 L 449.81,469.60 L 450.48,468.05 L 450.66,467.72 L 464.56,468.42 L 470.76,468.65 L 471.17,468.79 L 472.17,469.03 L 472.85,468.18 L 473.00,467.61 L 473.18,466.66 L 473.40,465.51 L 474.06,463.50 L 474.68,461.44 L 475.07,460.32 L 475.96,458.74 L 477.15,458.24 L 478.55,457.63 L 479.94,457.23 L 481.56,457.20 L 482.78,456.77 L 483.78,456.17 L 484.25,455.79 L 485.94,454.84 L 487.74,453.80 L 488.70,453.11 L 489.17,452.22 L 489.64,450.74 L 490.11,448.80 L 490.95,447.01 L 491.56,446.20 L 492.56,445.38 L 493.50,444.75 L 494.65,444.45 L 494.58,443.66 L 494.17,440.32 L 493.82,438.56 L 493.58,436.92 L 493.47,434.99 L 493.64,430.92 L 493.76,425.75 L 493.95,423.75 L 494.16,423.65 L 494.74,423.38 L 495.42,423.01 L 496.18,422.57 L 496.68,422.13 L 496.97,421.63 L 497.29,421.05 L 497.66,420.30 L 497.70,419.45 L 497.73,418.64 L 497.56,416.67 L 497.57,415.86 L 498.08,413.97 L 498.62,412.95 L 498.76,411.94 L 498.95,411.43 L 499.13,410.95 L 500.24,410.45 L 502.78,408.43 L 505.66,406.14 L 507.86,404.39 L 509.34,403.36 L 510.48,402.57 L 513.59,400.32 L 515.24,399.04 L 515.53,398.30 L 515.60,397.08 L 515.97,396.26 L 515.90,394.98 L 515.84,393.96 L 516.48,393.42 L 516.49,393.08 L 516.20,392.53 L 515.85,391.65 L 515.71,390.43 L 516.86,389.75 L 522.77,386.03 L 529.17,381.50 L 534.14,377.77 L 535.85,375.95 L 537.73,372.74 L 538.28,371.56 L 538.69,369.22 L 539.14,367.38 L 540.38,367.51 L 541.68,367.26 L 542.47,365.85 L 543.98,363.46 L 545.07,361.53 L 546.80,357.91 L 547.02,356.23 L 545.72,355.12 L 543.17,353.66 L 541.85,352.57 L 540.72,351.96 L 539.17,351.65 L 538.03,352.08 L 536.87,352.49 L 535.86,352.37 L 535.90,351.27 L 535.91,350.87 L 535.95,350.27 L 536.13,348.89 L 536.43,346.73 L 536.72,346.08 L 536.92,345.85 L 537.13,345.72 L 537.34,345.66 L 537.53,345.56 L 537.64,345.39 L 538.21,344.46 L 538.78,344.38 L 539.33,344.37 L 539.92,344.27 L 540.36,344.15 L 540.75,343.96 L 541.14,343.77 L 541.49,343.58 L 541.85,343.39 L 542.60,343.23 L 543.63,342.88 L 544.07,342.74 L 544.45,342.61 L 544.87,342.48 L 545.28,342.33 L 545.69,342.21 L 546.10,342.06 L 546.44,341.88 L 546.81,341.68 L 547.15,341.53 L 547.46,341.37 L 547.81,341.17 L 548.14,340.96 L 548.41,340.72 L 548.62,340.42 L 548.87,339.99 L 548.92,339.92 L 548.94,339.63 L 548.95,339.24 L 548.94,338.85 L 548.88,338.46 L 548.77,338.07 L 548.69,337.68 L 548.60,337.32 L 548.47,336.93 L 548.35,336.54 L 548.24,336.15 L 548.06,335.75 L 547.92,335.36 L 547.73,334.33 L 547.86,334.09 L 548.20,333.41 L 548.32,333.27 L 548.99,332.48 L 549.19,332.27 L 550.16,331.68 L 551.02,331.42 L 551.41,331.36 L 551.89,331.43 L 552.23,331.54 L 552.71,331.98 L 553.12,332.49 L 553.18,332.50 L 553.26,332.69 L 553.41,332.75 L 553.59,332.87 L 553.59,332.89 L 554.15,332.86 L 554.31,332.77 L 554.50,332.66 L 554.97,331.88 L 555.46,331.54 L 555.82,331.24 L 556.12,330.88 L 556.42,330.41 L 556.70,329.95 L 557.08,329.55 L 557.48,329.02 L 557.59,328.92 L 557.79,328.42 L 557.46,327.37 L 557.47,327.32 L 557.51,326.85 L 557.67,326.36 L 557.73,326.23 L 558.03,325.88 L 558.48,325.38 L 558.94,324.97 L 559.42,324.58 L 559.74,324.24 L 560.01,323.85 L 560.19,323.32 L 560.44,322.83 L 560.80,322.37 L 561.18,322.03 L 561.55,321.78 L 562.18,321.16 L 563.81,320.31 L 564.14,320.07 L 564.24,319.93 L 564.67,319.68 L 565.14,319.42 L 565.31,319.35 L 565.66,319.21 L 567.84,318.23 L 569.76,317.34 L 569.83,317.29 L 569.91,317.24 L 570.39,316.97 L 570.81,316.64 L 571.25,316.21 L 571.72,315.92 L 572.19,315.76 L 572.68,315.54 L 573.13,315.22 L 573.56,314.91 L 573.99,314.64 L 574.50,314.41 L 575.01,314.20 L 575.55,314.00 L 576.04,313.73 L 576.55,313.52 L 577.39,313.14 L 578.71,312.90 L 578.84,313.00 L 579.34,313.00 L 579.90,312.94 L 580.46,313.09 L 581.02,313.38 L 581.55,313.43 L 581.83,313.33 L 582.07,313.25 L 582.11,313.23 L 582.30,313.14 L 582.33,313.04 L 582.85,313.12 L 583.54,313.47 L 584.23,313.92 L 585.32,313.95 L 585.88,314.07 L 586.37,314.21 L 586.89,314.41 L 587.38,314.64 L 587.87,314.87 L 588.36,315.15 L 588.84,315.37 L 589.34,315.56 L 589.83,315.68 L 590.35,315.79 L 590.84,315.90 L 591.33,315.98 L 591.82,316.10 L 592.31,316.18 L 592.79,316.27 L 593.78,316.45 L 595.20,316.38 L 595.35,316.35 L 595.77,316.14 L 596.25,315.91 L 596.67,315.69 L 597.06,315.45 L 597.46,315.35 L 597.98,315.29 L 598.47,315.29 L 600.35,315.64 L 601.32,316.06 L 601.30,315.70 L 601.32,315.44 L 601.36,315.17 L 601.37,314.88 L 601.40,314.60 L 601.48,314.37 L 601.46,314.33 L 601.50,314.31 L 601.50,314.06 L 601.50,313.81 L 601.47,313.81 L 601.22,313.49 L 601.16,313.42 L 601.07,313.28 L 601.03,313.00 L 601.03,312.93 L 601.07,312.75 L 601.08,312.71 L 601.12,312.69 L 601.14,312.49 L 601.20,312.25 L 601.29,311.96 L 601.40,311.68 L 601.47,311.39 L 601.55,311.14 L 601.59,311.06 L 601.63,310.97 L 601.70,310.86 L 601.68,310.28 L 601.57,309.57 L 601.56,309.29 L 601.61,309.01 L 601.71,308.72 L 601.83,308.40 L 601.95,308.12 L 601.98,307.92 L 602.02,307.89 L 602.08,307.83 L 602.10,307.66 L 602.15,307.58 L 602.16,307.51 L 602.48,306.78 L 602.32,306.34 L 602.29,306.23 L 602.25,306.16 L 602.23,305.98 L 602.23,305.81 L 602.23,305.63 L 602.25,305.47 L 602.30,305.42 L 602.48,304.74 L 602.91,304.06 L 602.98,303.92 L 603.08,303.88 L 603.08,303.80 L 603.12,303.78 L 603.23,303.49 L 603.30,303.21 L 603.41,302.92 L 603.56,302.62 L 604.27,301.60 L 604.60,300.32 L 605.33,299.31 L 605.99,298.29 L 606.51,297.32 L 607.06,296.53 L 608.16,296.03 L 608.68,295.71 L 610.15,296.16 L 611.63,296.58 L 612.77,296.79 L 613.00,296.49 L 614.60,295.77 L 617.27,295.73 L 618.44,295.52 L 620.03,295.07 L 620.81,294.87 L 621.75,294.89 L 623.60,295.10 L 625.00,295.14 L 626.42,295.22 L 628.90,295.39 L 630.14,295.55 L 629.71,296.45 L 629.56,297.52 L 629.44,299.00 L 629.41,300.65 L 629.29,302.33 L 629.09,303.75 L 629.00,305.65 L 631.22,306.78 L 634.03,307.86 L 635.89,308.91 L 637.51,309.86 L 638.76,310.81 L 640.00,312.12 L 640.50,312.85 L 640.66,313.60 L 640.23,315.77 L 640.00,317.46 L 639.64,318.91 L 638.92,320.32 L 638.46,321.92 L 637.79,323.61 L 637.09,325.02 L 636.17,326.64 L 637.30,328.47 L 638.23,330.26 L 639.27,332.00 L 638.49,333.50 L 638.42,335.13 L 638.55,336.95 L 638.78,339.02 L 638.52,340.94 L 638.12,342.61 L 637.66,344.14 L 639.98,344.20 L 641.65,344.65 L 643.23,345.98 L 645.06,346.95 L 646.88,348.35 L 647.19,351.33 L 648.49,354.03 L 650.01,355.87 L 650.02,356.65 L 650.05,357.13 L 650.03,357.41 L 649.94,357.62 L 649.80,358.09 L 649.69,358.55 L 649.51,359.64 L 650.02,361.06 L 650.71,362.44 L 651.81,363.06 L 652.50,364.03 L 652.83,364.94 L 652.84,364.99 L 653.01,365.91 L 653.40,366.85 L 654.06,368.53 L 655.19,368.58 L 656.09,368.96 L 656.66,369.38 L 656.89,369.62 L 657.17,369.92 L 657.35,370.08 L 657.42,370.35 L 657.46,370.41 L 657.64,370.80 L 658.73,371.47 L 658.92,371.65 L 659.22,371.82 L 659.84,372.15 L 659.98,372.20 L 660.48,372.31 L 660.98,372.37 L 661.46,372.38 L 661.96,372.33 L 662.27,372.05 L 662.59,371.13 L 663.06,370.59 L 664.05,370.54 L 664.17,370.47 L 665.10,370.96 L 665.78,371.80 L 665.87,372.17 L 665.95,372.18 L 666.00,372.32 L 666.19,372.82 L 666.32,373.10 L 666.46,373.28 L 666.92,373.59 L 667.40,373.76 L 667.89,373.97 L 668.38,374.14 L 668.87,374.29 L 669.39,374.46 L 669.78,374.57 L 669.92,374.71 L 669.99,374.71 L 670.16,374.80 L 670.29,374.78 L 671.19,375.34 L 671.85,374.50 L 672.13,374.22 L 673.00,373.36 L 673.91,372.12 L 674.61,371.19 L 674.73,370.76 L 674.85,370.06 L 674.90,369.29 L 675.01,368.57 L 675.09,368.23 L 675.28,367.89 L 675.36,367.37 L 675.50,367.01 L 675.76,365.88 L 676.31,364.80 L 676.73,363.95 L 677.25,363.35 L 677.88,362.67 L 678.24,361.92 L 678.37,360.61 L 678.42,359.27 L 678.43,357.72 L 678.60,356.52 L 678.76,355.86 L 679.12,355.41 L 679.36,355.16 L 679.85,354.81 L 680.68,354.52 L 681.38,354.47 L 681.99,354.48 L 682.51,354.64 L 683.45,354.84 L 684.11,354.94 L 685.52,355.09 L 686.35,355.17 L 687.59,355.30 L 688.24,355.22 L 689.53,355.07 L 690.57,355.01 L 690.86,354.88 L 692.30,354.69 L 693.74,354.62 L 695.24,354.60 L 696.26,354.62 L 696.83,354.75 L 697.58,354.98 L 698.17,355.19 L 699.47,355.71 L 700.81,356.30 L 701.76,356.73 L 702.25,356.78 L 702.73,356.75 L 703.25,356.61 L 703.93,356.47 L 705.18,356.12 L 705.98,355.74 L 707.43,354.80 L 708.34,353.83 L 708.90,353.24 L 709.18,352.81 L 709.81,351.64 L 710.49,350.37 L 710.98,348.96 L 711.46,347.75 L 711.70,346.51 L 711.94,345.11 L 712.10,343.68 L 712.10,342.98 L 712.10,342.00 L 712.00,341.08 L 711.92,340.52 L 711.74,339.76 L 711.11,338.46 L 710.46,337.28 L 709.60,336.06 L 708.67,334.93 L 708.01,334.43 L 707.47,334.13 L 706.76,333.60 L 706.24,333.49 L 705.51,333.39 L 704.75,333.45 L 703.85,333.77 L 703.42,333.84 L 702.46,333.96 L 701.79,334.11 L 700.34,334.37 L 698.89,334.45 L 697.23,334.48 L 695.76,334.39 L 694.25,334.26 L 692.67,334.18 L 691.18,334.19 L 690.15,334.01 L 689.63,333.96 L 688.60,333.43 L 688.16,333.32 L 686.83,332.62 L 686.01,332.17 L 685.39,331.99 L 683.99,331.44 L 682.62,330.87 L 681.26,330.38 L 680.34,330.22 L 679.70,330.20 L 678.07,330.18 L 677.11,330.12 L 676.52,329.95 L 675.66,329.87 L 675.16,329.72 L 674.65,329.58 L 673.64,329.17 L 672.92,328.86 L 672.15,328.22 L 671.35,327.23 L 670.97,326.63 L 670.61,325.89 L 670.30,325.19 L 670.14,324.57 L 670.02,324.17 L 669.94,323.50 L 669.87,322.59 L 669.94,321.00 L 670.02,319.58 L 670.14,318.76 L 670.34,317.47 L 670.52,316.81 L 670.77,315.99 L 671.39,314.71 L 672.04,313.45 L 672.54,312.30 L 673.08,311.19 L 673.73,309.95 L 674.29,308.74 L 674.77,307.33 L 675.40,305.95 L 676.21,303.41 L 676.71,302.21 L 677.27,300.47 L 677.81,299.11 L 678.01,298.47 L 678.32,297.17 L 678.37,296.93 L 678.61,295.76 L 678.84,294.40 L 679.06,293.05 L 679.28,291.71 L 679.67,290.36 L 679.91,289.72 L 680.21,289.06 L 680.28,288.97 L 680.37,288.84 L 680.74,288.50 L 681.00,288.38 L 681.52,288.14 L 682.55,287.95 L 682.69,287.92 L 683.51,287.82 L 684.53,287.88 L 684.84,287.90 L 685.26,287.85 L 685.47,287.82 L 686.83,287.84 L 687.48,287.84 L 688.02,287.63 L 688.20,287.56 L 688.40,287.47 L 688.81,287.28 L 689.13,287.08 L 689.49,286.86 L 689.66,286.77 L 689.89,286.64 L 690.02,286.42 L 690.09,286.32 L 690.36,285.84 L 690.41,285.69 L 690.45,285.54 L 690.60,284.58 L 690.56,284.37 L 690.34,283.24 L 690.08,282.45 L 689.91,281.92 L 689.70,281.39 L 689.37,280.56 L 688.88,279.19 L 688.40,277.84 L 687.86,276.40 L 687.64,275.89 L 687.35,275.19 L 686.53,273.71 L 685.85,272.51 L 685.16,271.45 L 685.11,271.37 L 685.11,271.37 L 684.69,270.91 L 684.57,270.77 L 684.51,270.71 L 683.89,270.04 L 683.48,269.65 L 683.47,269.64 L 683.38,269.59 L 682.78,269.23 L 682.37,269.08 L 682.12,268.98 L 681.57,268.85 L 680.75,268.72 L 680.22,268.74 L 678.75,269.00 L 677.40,269.04 L 675.87,269.20 L 674.26,269.52 L 671.42,270.08 L 670.03,270.37 L 668.33,270.72 L 667.80,270.73 L 667.56,270.73 L 667.34,270.73 L 666.76,270.72 L 666.46,270.61 L 666.07,270.46 L 665.71,270.25 L 665.49,270.11 L 664.93,269.60 L 664.87,269.56 L 664.45,269.30 L 663.01,268.70 L 661.98,268.26 L 660.83,267.75 L 659.56,267.17 L 658.58,266.74 L 658.40,266.67 L 657.05,266.31 L 655.64,265.97 L 654.35,265.54 L 653.01,265.32 L 653.01,265.32 L 652.03,265.37 L 651.62,265.54 L 651.41,265.62 L 651.29,265.68 L 651.23,265.71 L 650.84,265.99 L 650.61,266.20 L 650.16,266.61 L 649.63,267.16 L 649.25,267.58 L 648.19,268.62 L 647.85,268.97 L 647.15,269.67 L 646.41,270.41 L 645.94,270.88 L 644.92,271.97 L 644.60,272.32 L 643.94,273.03 L 643.16,273.85 L 643.03,273.99 L 641.89,275.00 L 641.67,275.25 L 640.97,276.08 L 640.84,276.21 L 640.40,276.65 L 639.60,277.60 L 638.50,278.66 L 637.47,279.26 L 636.52,279.41 L 635.60,279.56 L 635.00,279.48 L 634.25,279.28 L 633.73,279.11 L 632.80,278.73 L 631.61,277.99 L 630.51,277.12 L 629.43,275.92 L 628.48,274.71 L 627.56,273.57 L 626.77,272.36 L 625.95,271.20 L 625.10,270.07 L 624.30,269.00 L 623.62,268.24 L 623.25,267.99 L 622.38,267.27 L 621.57,266.99 L 621.06,266.93 L 620.65,266.90 L 620.65,266.90 L 620.40,266.89 L 618.77,266.86 L 617.92,266.61 L 617.46,266.36 L 616.70,265.55 L 616.33,265.11 L 615.85,264.54 L 615.49,263.94 L 614.73,262.92 L 613.93,261.62 L 613.19,260.46 L 612.85,259.88 L 612.56,259.28 L 612.20,258.53 L 612.02,258.02 L 611.96,257.79 L 611.72,256.64 L 611.70,256.13 L 611.60,254.43 L 611.75,253.30 L 612.20,252.42 L 612.47,251.93 L 612.91,251.40 L 613.95,250.35 L 614.61,249.72 L 615.03,249.42 L 615.46,249.13 L 616.16,248.48 L 616.71,248.26 L 617.43,248.01 L 618.75,247.71 L 620.17,247.67 L 621.53,247.61 L 622.92,247.66 L 624.36,247.95 L 625.72,248.19 L 627.03,248.62 L 629.83,249.23 L 632.35,249.87 L 633.76,250.21 L 635.01,250.62 L 636.14,250.81 L 636.94,250.89 L 638.81,250.95 L 640.55,250.86 L 641.76,250.76 L 642.36,250.51 L 642.58,250.36 L 642.70,250.10 L 642.70,250.10 L 642.82,249.84 L 642.90,249.21 L 642.91,248.78 L 642.90,248.55 L 642.73,247.86 L 642.63,247.54 L 642.36,246.56 L 641.82,245.26 L 641.16,243.93 L 640.56,242.66 L 640.07,241.41 L 639.34,240.08 L 638.94,239.25 L 638.70,238.76 L 638.21,238.12 L 637.88,237.72 L 637.65,237.48 L 637.25,237.06 L 636.81,236.70 L 636.20,236.18 L 635.67,235.82 L 634.88,235.26 L 634.39,234.99 L 632.99,234.32 L 631.71,233.56 L 630.99,233.05 L 630.67,232.74 L 630.36,232.43 L 629.87,231.99 L 629.52,231.34 L 629.42,230.91 L 629.40,230.83 L 629.40,230.83 L 629.28,230.17 L 629.22,229.81 L 629.29,229.62 L 629.42,229.26 L 629.90,228.49 L 630.31,228.10 L 630.77,227.78 L 630.90,227.69 L 632.06,226.81 L 633.25,226.00 L 633.58,225.78 L 634.46,225.20 L 635.23,224.79 L 635.80,224.49 L 636.48,224.20 L 637.08,223.94 L 637.67,223.66 L 638.47,223.29 L 641.34,222.09 L 642.61,221.56 L 643.06,221.35 L 643.96,220.95 L 644.64,220.63 L 645.26,220.35 L 645.38,220.30 L 645.74,220.04 L 646.15,219.75 L 646.47,219.29 L 646.56,219.08 L 646.61,218.97 L 646.67,218.65 L 646.71,218.50 L 646.71,217.95 L 646.65,217.19 L 646.55,216.55 L 646.51,216.25 L 646.39,215.54 L 646.32,215.38 L 646.25,215.21 L 645.85,213.89 L 645.60,213.34 L 645.18,212.58 L 644.99,212.36 L 644.58,211.87 L 644.25,211.60 L 644.20,211.55 L 644.15,211.52 L 644.02,211.40 L 643.73,211.28 L 643.46,211.17 L 643.20,211.07 L 642.85,210.95 L 642.29,210.87 L 641.88,210.82 L 641.47,210.78 L 640.42,210.67 L 640.18,210.66 L 639.93,210.65 L 638.98,210.67 L 638.79,210.68 L 638.62,210.68 L 637.52,210.67 L 637.04,210.63 L 636.50,210.59 L 635.59,210.52 L 634.17,210.48 L 633.76,210.38 L 633.42,210.29 L 633.07,210.22 L 633.01,210.21 L 632.65,210.12 L 632.13,209.93 L 631.63,209.86 L 631.28,209.82 L 630.36,209.71 L 630.12,209.71 L 629.89,209.71 L 628.81,209.77 L 628.42,209.84 L 627.00,209.93 L 626.36,209.90 L 625.51,209.86 L 624.55,209.71 L 624.07,209.58 L 623.97,209.55 L 621.37,208.33 L 621.30,208.30 L 619.91,207.50 L 619.04,206.91 L 618.70,206.63 L 618.32,206.20 L 618.27,206.14 L 618.22,205.97 L 618.16,205.80 L 618.15,205.67 L 618.11,205.25 L 618.08,204.80 L 618.07,204.44 L 618.06,204.33 L 618.07,204.18 L 618.10,203.65 L 618.12,203.08 L 618.13,202.64 L 618.14,201.96 L 618.17,201.32 L 618.18,201.13 L 618.15,200.89 L 618.08,200.14 L 617.90,199.57 L 617.82,199.31 L 617.68,198.16 L 617.70,197.97 L 617.71,197.81 L 617.73,197.74 L 617.83,197.45 L 618.05,196.99 L 618.22,196.66 L 618.40,196.43 L 618.56,196.23 L 619.26,195.22 L 619.62,194.47 L 619.86,193.97 L 620.33,192.82 L 620.53,192.28 L 620.69,191.84 L 620.92,190.95 L 621.00,190.01 L 620.98,189.86 L 620.95,189.55 L 620.80,188.84 L 620.63,188.56 L 620.33,188.21 L 620.25,188.16 L 619.84,187.88 L 619.67,187.75 L 619.13,187.54 L 618.67,187.36 L 618.32,187.22 L 618.16,187.18 L 617.86,187.11 L 617.36,187.05 L 616.91,187.00 L 616.30,186.88 L 615.34,186.68 L 614.63,186.55 L 614.05,186.45 L 613.42,186.41 L 612.50,186.34 L 611.80,186.26 L 611.09,186.17 L 609.71,186.00 L 609.35,185.94 L 608.37,185.76 L 607.39,185.66 L 607.05,185.63 L 606.24,185.38 L 605.70,185.22 L 605.22,185.15 L 604.24,185.01 L 603.28,184.93 L 602.88,184.89 L 601.98,184.81 L 601.43,184.76 L 600.18,184.35 L 599.32,183.84 L 598.98,183.63 L 598.72,183.43 L 597.85,182.80 L 597.14,182.10 L 596.79,181.76 L 595.76,180.85 L 595.53,180.54 L 594.91,179.70 L 594.21,178.52 L 594.08,178.32 L 593.50,177.46 L 593.21,176.97 L 592.72,176.14 L 591.94,175.12 L 591.85,175.00 L 591.72,174.84 L 590.91,173.86 L 590.42,173.32 L 589.86,172.71 L 588.99,171.96 L 588.77,171.77 L 587.81,171.22 L 587.37,171.01 L 587.22,170.91 L 586.14,170.23 L 584.63,169.47 L 583.18,168.97 L 581.84,168.50 L 581.01,168.22 L 580.53,168.10 L 579.93,167.99 L 579.54,167.92 L 579.09,167.92 L 578.41,167.92 L 578.15,167.92 L 578.06,167.94 L 577.67,168.01 L 576.74,168.15 L 576.18,168.37 L 575.44,168.68 L 574.83,168.99 L 574.61,169.12 L 574.21,169.36 L 574.06,169.47 L 573.73,169.71 L 572.68,170.52 L 571.70,171.39 L 570.66,172.28 L 569.65,173.11 L 568.75,173.94 L 567.67,174.73 L 566.62,175.56 L 565.68,176.31 L 564.56,177.05 L 563.42,177.70 L 562.23,178.12 L 560.86,178.57 L 559.51,178.85 L 558.51,178.91 L 558.17,178.97 L 557.14,178.95 L 556.62,178.93 L 555.69,178.74 L 555.21,178.59 L 554.03,178.15 L 553.59,177.96 L 552.18,177.33 L 551.26,176.90 L 550.90,176.82 L 549.92,176.58 L 549.46,176.59 L 548.13,176.57 L 546.81,176.59 L 545.32,176.49 L 543.89,176.06 L 543.00,175.59 L 542.60,175.37 L 541.81,174.73 L 541.55,174.34 L 540.97,173.51 L 540.76,173.14 L 540.16,171.89 L 539.79,170.93 L 539.62,170.54 L 539.51,169.61 L 539.48,168.86 L 539.53,168.35 L 539.82,167.69 L 540.01,166.94 L 540.25,166.38 L 540.29,165.89 L 540.35,165.32 L 540.24,164.82 L 540.06,164.08 L 539.89,163.33 L 539.39,162.03 L 539.08,161.18 L 538.87,160.55 L 538.86,160.21 L 538.94,159.61 L 539.43,158.86 L 539.94,158.43 L 540.62,158.07 L 541.42,157.75 L 541.89,157.67 L 543.45,157.56 L 544.92,157.50 L 545.81,157.49 L 546.43,157.46 L 547.73,157.55 L 549.10,157.69 L 550.14,157.86 L 550.63,158.03 L 552.02,158.38 L 553.57,158.86 L 554.89,159.21 L 556.27,159.45 L 557.96,159.62 L 559.57,159.80 L 561.14,159.86 L 562.65,159.93 L 563.57,159.81 L 564.26,159.81 L 566.71,159.88 L 567.23,159.74 L 568.16,159.55 L 568.93,159.20 L 569.39,158.86 L 569.97,158.08 L 570.09,157.53 L 570.15,156.37 L 570.05,155.35 L 569.61,153.82 L 568.69,151.09 L 568.11,149.59 L 567.46,148.14 L 566.88,146.33 L 566.48,145.35 L 565.71,143.58 L 565.58,142.96 L 565.75,142.39 L 566.22,141.72 L 567.00,140.78 L 567.88,139.57 L 568.76,138.37 L 569.69,136.72 L 570.11,135.31 L 570.21,134.46 L 570.12,133.12 L 569.94,131.99 L 569.75,131.10 L 569.38,130.32 L 569.00,129.81 L 568.38,129.26 L 567.81,128.91 L 566.60,128.40 L 565.64,128.10 L 565.25,127.99 L 563.71,127.97 L 562.74,128.04 L 562.22,128.23 L 560.79,128.76 L 559.89,129.23 L 559.43,129.61 L 558.30,130.48 L 557.26,131.33 L 556.12,132.22 L 555.25,133.03 L 555.25,133.03 L 555.02,133.24 L 553.96,134.26 L 552.78,135.37 L 551.79,136.40 L 549.69,138.36 L 548.61,139.33 L 547.47,140.34 L 546.36,141.26 L 545.26,142.24 L 544.00,142.99 L 542.65,143.86 L 541.25,144.56 L 539.92,145.08 L 538.40,145.48 L 537.32,145.76 L 536.84,145.76 L 535.31,145.68 L 533.86,145.42 L 532.44,145.16 L 531.00,144.72 L 529.63,144.29 L 528.38,144.00 L 526.93,143.34 L 526.47,143.17 L 526.01,142.93 L 525.57,142.44 L 525.20,142.00 L 524.97,141.53 L 524.90,141.36 L 524.82,141.18 L 524.58,140.37 L 524.55,139.65 L 524.56,138.28 L 524.70,136.68 L 524.83,135.17 L 524.87,133.56 L 524.87,132.42 L 524.80,130.61 L 524.57,129.63 L 524.13,128.27 L 523.38,127.09 L 522.40,125.98 L 521.29,124.98 L 520.35,124.28 L 520.06,124.15 L 518.73,123.31 L 517.29,122.67 L 515.94,122.30 L 514.41,122.01 L 512.89,121.75 L 511.30,121.49 L 509.92,121.21 L 508.33,121.11 L 507.57,121.17 L 506.74,121.34 L 506.00,121.55 L 505.54,121.81 L 504.88,122.13 L 504.27,122.66 L 503.22,123.63 L 502.90,124.15 L 502.62,124.94 L 502.56,125.16 L 502.48,126.39 L 502.74,127.84 L 502.87,129.24 L 502.91,130.67 L 502.81,133.53 L 502.73,136.40 L 502.75,137.87 L 502.72,140.85 L 502.75,143.77 L 502.69,146.73 L 502.69,148.08 L 502.61,148.85 L 502.53,149.62 L 502.19,150.83 L 501.62,152.12 L 500.78,153.25 L 499.75,154.12 L 498.99,154.57 L 495.47,155.20 L 494.37,154.73 L 494.36,154.72 L 493.99,154.57 L 492.75,153.66 L 491.89,153.13 L 491.87,153.11 L 491.49,152.88 L 491.10,152.65 L 490.25,152.16 L 490.25,152.16 L 488.86,151.28 L 487.97,150.60 L 487.73,150.42 L 487.31,150.15 L 485.65,149.08 L 485.25,148.85 L 484.23,148.63 L 483.62,148.49 L 482.35,148.65 L 481.49,149.06 L 481.21,149.27 L 480.66,149.68 L 480.28,149.97 L 480.16,150.05 L 479.98,150.17 L 479.50,150.65 L 479.00,151.14 L 478.45,152.00 L 478.30,152.24 L 478.14,152.54 L 477.57,153.56 L 476.91,154.89 L 476.63,155.34 L 476.14,156.12 L 475.63,156.76 L 475.27,157.23 L 475.02,157.47 L 474.83,157.66 L 474.42,157.98 L 474.42,157.98 L 472.58,158.73 L 472.56,158.74 L 470.77,159.09 L 469.02,160.00 L 468.49,160.27 L 464.85,161.93 L 463.79,162.49 L 463.08,162.73 L 462.32,162.88 L 461.18,162.83 L 459.85,162.64 L 459.21,162.64 L 458.62,162.88 L 457.71,163.85 L 456.49,165.29 L 455.58,165.94 L 454.30,166.41 L 453.33,166.50 L 452.63,166.46 L 451.84,166.44 L 450.91,166.11 L 450.84,166.06 L 450.53,165.80 L 449.65,164.75 L 449.22,163.78 L 449.13,163.60 L 449.08,163.47 L 448.33,160.96 L 448.27,160.61 L 448.26,160.57 L 448.10,159.62 L 448.10,159.62 L 448.10,159.62 L 448.16,158.36 L 448.30,157.81 L 448.30,157.80 L 448.45,157.20 L 448.80,156.60 L 449.23,155.87 L 450.91,153.84 L 454.17,151.20 L 457.79,148.64 L 457.91,148.55 L 460.30,146.85 L 461.19,146.07 L 461.38,145.90 L 461.38,145.90 L 462.10,145.04 L 462.43,143.98 L 462.32,141.75 L 461.92,140.09 L 461.46,139.12 L 460.66,137.97 L 460.55,137.80 L 459.40,136.81 L 457.77,135.40 L 457.77,135.40 L 457.77,135.40 L 456.47,134.42 L 455.52,133.69 L 454.95,133.25 L 454.12,132.50 L 453.88,132.27 L 453.74,132.12 L 453.36,131.68 L 452.38,129.77 L 452.05,128.68 L 451.92,128.12 L 451.76,127.48 L 451.93,125.21 L 452.42,121.34 L 452.25,118.87 L 451.82,114.75 L 452.06,111.66 L 452.06,111.35 L 452.07,110.73 L 452.12,108.39 L 452.29,105.08 L 452.60,102.21 L 452.68,101.52 L 452.68,101.50 L 452.96,100.02 L 452.83,96.30 L 452.50,94.77 L 452.30,94.19 L 451.96,93.51 L 451.22,92.50 L 450.94,92.28 L 449.53,91.67 L 448.31,91.18 L 445.82,90.92 L 444.47,91.02 L 442.58,91.40 L 441.20,91.57 L 438.10,92.02 L 434.71,92.18 L 432.05,92.26 L 431.21,92.28 L 428.56,92.44 L 427.31,92.37 L 426.34,92.19 L 423.53,91.35 L 421.99,90.66 L 419.79,90.31 L 418.46,90.38 L 416.30,90.81 L 411.19,91.65 L 410.97,91.64 L 410.96,91.64 L 409.84,91.59 L 409.07,91.53 L 408.25,91.19 L 406.96,90.02 L 406.25,88.96 L 405.47,87.37 L 405.47,87.37 L 404.69,85.78 L 403.13,83.66 L 402.40,82.48 L 401.61,80.22 L 401.71,77.48 L 402.39,74.52 L 404.51,71.23 L 405.45,69.67 L 405.94,68.35 L 406.08,67.31 L 406.20,63.16 L 406.18,62.25 L 406.35,61.42 L 407.10,57.15 L 407.13,57.00 L 407.31,56.10 L 407.58,54.50 L 407.55,51.72 L 407.33,48.37 L 407.33,47.08 L 407.46,45.52 L 408.10,44.29 L 408.81,43.70 L 409.67,43.10 L 410.47,42.87 L 411.79,42.76 L 414.89,42.29 L 416.25,41.80 L 417.23,41.16 L 417.63,40.63 L 418.18,39.46 L 418.26,38.36 L 417.96,36.20 L 417.44,34.80 L 416.54,32.97 L 415.78,31.83 L 414.69,30.51 L 413.21,28.97 L 411.74,27.57 L 409.77,25.70 L 407.84,23.83 L 407.68,23.66 L 407.14,23.08 L 405.85,21.68 L 404.45,19.90 L 404.36,19.78 L 404.35,19.78 L 404.28,19.69 L 403.35,18.63 L 402.62,17.29 L 402.23,15.07 L 401.71,13.71 L 400.94,12.65 L 399.77,11.62 L 397.44,10.41 L 396.09,10.05 Z" fill="#1d3672" stroke="#333" stroke-width="1"/>
</svg>