<svg xmlns="http://www.w3.org/2000/svg" width="800" height="600" viewBox="0 0 800 600">
<path d="M 239.71,10.01 L 239.11,10.00 L 238.48,10.22 L 237.96,10.61 L 237.34,11.12 L 237.22,11.95 L 237.38,13.06 L 237.83,14.39 L 238.41,16.10 L 238.71,17.92 L 238.38,18.71 L 236.97,19.85 L 235.72,20.61 L 234.44,21.14 L 233.20,21.37 L 231.72,21.90 L 230.39,22.17 L 229.29,22.73 L 228.68,23.14 L 228.02,23.73 L 227.56,24.36 L 227.28,24.94 L 227.19,25.14 L 226.08,27.59 L 225.56,29.43 L 225.04,32.03 L 224.70,34.27 L 224.64,35.84 L 224.38,38.70 L 223.69,39.97 L 223.27,40.59 L 222.67,41.38 L 222.07,41.61 L 221.41,41.76 L 220.74,41.79 L 219.97,41.64 L 219.30,41.44 L 218.69,41.00 L 217.94,40.12 L 217.48,35.84 L 217.58,34.05 L 217.95,32.57 L 218.63,28.43 L 218.44,26.47 L 218.06,25.65 L 217.54,25.31 L 217.04,25.26 L 216.37,25.40 L 215.82,25.71 L 215.45,26.19 L 214.94,27.38 L 214.01,29.40 L 213.50,31.35 L 212.75,32.71 L 212.09,33.47 L 210.27,35.14 L 207.86,36.78 L 205.92,38.41 L 204.72,39.50 L 203.48,40.72 L 200.12,42.78 L 199.32,43.01 L 198.49,42.72 L 197.26,41.22 L 196.50,38.91 L 195.85,36.65 L 195.23,35.45 L 194.63,34.72 L 193.91,34.17 L 192.92,34.20 L 192.03,34.59 L 190.18,35.58 L 188.54,36.58 L 187.36,37.69 L 187.03,37.89 L 184.90,39.89 L 183.96,41.14 L 182.51,42.54 L 181.11,43.97 L 180.07,45.26 L 179.05,46.24 L 177.78,46.72 L 176.18,46.37 L 175.51,46.20 L 174.17,45.59 L 173.20,45.03 L 171.71,44.57 L 170.70,44.70 L 169.22,45.10 L 167.49,45.66 L 166.08,46.22 L 164.15,46.94 L 163.02,47.55 L 162.05,48.15 L 161.53,48.96 L 160.99,49.79 L 160.89,50.61 L 160.98,52.12 L 161.51,53.17 L 163.34,54.94 L 165.31,56.12 L 167.34,57.27 L 168.53,57.77 L 169.47,58.36 L 170.07,59.09 L 170.39,59.61 L 170.49,60.37 L 170.38,61.19 L 169.82,62.16 L 167.51,64.17 L 166.53,64.98 L 165.84,65.70 L 165.33,66.63 L 165.26,67.63 L 165.52,68.39 L 165.81,69.16 L 166.43,70.09 L 168.20,72.08 L 169.66,73.62 L 170.90,74.83 L 172.16,76.22 L 173.03,77.49 L 173.68,78.84 L 174.32,80.19 L 174.82,81.22 L 175.10,82.05 L 175.19,83.53 L 175.05,85.18 L 174.84,86.75 L 174.70,88.89 L 174.71,90.86 L 174.86,91.66 L 175.40,92.78 L 176.62,93.91 L 177.73,94.96 L 178.45,95.55 L 178.50,95.83 L 178.46,96.04 L 178.47,96.48 L 178.40,96.82 L 178.26,97.23 L 178.02,97.43 L 177.69,97.64 L 177.09,97.73 L 176.13,97.92 L 174.17,97.61 L 173.01,97.52 L 171.90,97.65 L 171.25,97.91 L 169.79,98.95 L 169.24,100.05 L 169.35,101.21 L 169.74,101.94 L 171.81,104.25 L 172.48,104.96 L 173.21,105.85 L 174.03,106.79 L 174.80,108.20 L 175.22,109.20 L 175.34,110.15 L 175.28,110.86 L 175.02,111.54 L 174.42,112.71 L 173.79,114.76 L 172.55,115.22 L 170.16,116.31 L 169.62,116.74 L 168.97,117.17 L 168.46,117.41 L 167.91,117.84 L 167.02,118.25 L 163.90,118.57 L 163.04,118.62 L 161.93,118.75 L 161.20,118.87 L 160.86,119.03 L 160.00,119.34 L 159.37,119.71 L 158.54,120.51 L 158.04,121.11 L 157.75,121.73 L 157.52,122.84 L 157.28,123.86 L 157.10,124.94 L 156.91,125.85 L 156.71,126.06 L 156.41,126.13 L 155.74,125.95 L 155.34,125.89 L 154.75,125.62 L 154.22,125.19 L 153.93,124.53 L 153.25,123.35 L 152.88,122.78 L 152.00,122.32 L 151.45,122.34 L 150.53,122.52 L 149.82,122.89 L 149.05,123.26 L 148.29,123.62 L 147.29,123.88 L 146.45,124.06 L 145.68,124.18 L 144.05,123.96 L 143.49,123.76 L 142.66,123.53 L 141.87,122.85 L 139.68,121.36 L 138.59,120.64 L 137.84,120.42 L 137.35,120.36 L 136.98,120.47 L 136.58,120.97 L 136.12,122.56 L 135.76,123.63 L 135.38,124.54 L 134.85,125.05 L 134.47,125.34 L 133.57,125.62 L 132.63,125.80 L 132.26,125.83 L 131.86,125.89 L 130.49,125.82 L 129.21,126.03 L 127.91,125.96 L 126.84,125.92 L 124.47,125.78 L 123.71,125.65 L 122.42,125.36 L 121.17,124.97 L 120.06,124.48 L 118.45,123.56 L 117.85,123.11 L 117.19,122.61 L 116.39,121.98 L 115.78,121.48 L 114.85,120.86 L 112.86,119.91 L 112.19,119.72 L 111.28,119.41 L 110.80,118.91 L 110.43,118.62 L 110.28,118.14 L 110.30,117.88 L 110.75,117.48 L 111.94,116.80 L 113.11,116.16 L 113.79,115.68 L 114.49,115.26 L 115.27,114.32 L 115.82,113.18 L 116.08,112.44 L 116.49,111.01 L 116.54,110.38 L 116.42,110.01 L 116.25,109.68 L 115.58,109.09 L 115.00,108.58 L 114.41,108.30 L 113.75,108.22 L 113.19,108.14 L 112.23,108.16 L 111.75,108.19 L 111.10,108.35 L 110.28,108.43 L 109.70,108.60 L 108.62,108.82 L 107.68,108.70 L 106.66,108.58 L 105.77,108.39 L 104.84,108.05 L 103.88,107.66 L 102.96,107.26 L 102.04,107.02 L 100.64,106.47 L 99.34,105.92 L 98.04,105.15 L 96.73,104.27 L 95.43,103.65 L 94.44,103.14 L 92.84,102.56 L 91.85,102.06 L 91.54,102.43 L 91.00,102.99 L 90.68,103.65 L 89.92,104.78 L 89.18,105.63 L 88.41,106.27 L 87.71,106.80 L 87.01,106.84 L 85.56,106.86 L 84.60,106.77 L 83.99,106.89 L 83.43,107.24 L 82.72,107.70 L 82.20,107.97 L 81.43,108.15 L 80.60,108.18 L 80.04,108.29 L 79.27,109.02 L 78.17,109.70 L 76.63,110.80 L 75.25,111.58 L 74.19,111.84 L 73.31,112.36 L 72.35,112.81 L 71.49,112.97 L 70.70,113.31 L 69.16,114.60 L 68.13,115.76 L 67.34,117.03 L 66.84,117.96 L 66.36,119.15 L 65.86,120.73 L 65.78,121.67 L 65.28,123.30 L 64.36,124.68 L 63.19,126.31 L 63.05,127.15 L 63.02,127.37 L 62.98,127.61 L 62.84,127.95 L 62.75,128.27 L 62.68,128.57 L 62.46,129.08 L 62.17,129.41 L 61.80,129.66 L 61.31,129.82 L 60.64,129.93 L 59.99,130.04 L 59.26,130.30 L 58.62,130.54 L 58.34,131.00 L 58.36,131.42 L 58.53,132.02 L 58.54,132.54 L 58.60,132.92 L 59.03,133.37 L 59.27,133.64 L 59.33,133.98 L 59.32,134.29 L 59.11,135.04 L 58.97,135.51 L 58.97,135.86 L 59.23,136.76 L 59.36,137.47 L 59.53,137.91 L 59.79,138.15 L 60.27,138.24 L 60.84,138.20 L 61.16,138.14 L 61.56,138.16 L 61.62,138.48 L 61.38,139.06 L 61.08,139.69 L 61.01,139.96 L 60.96,140.26 L 60.61,140.65 L 60.31,140.80 L 60.28,141.05 L 60.36,141.47 L 60.51,141.91 L 60.52,142.47 L 60.22,142.88 L 60.22,143.46 L 60.43,144.22 L 60.49,144.56 L 60.45,144.87 L 60.25,145.04 L 59.57,145.24 L 59.02,145.42 L 58.77,145.61 L 58.59,145.96 L 58.65,146.33 L 58.84,146.89 L 58.90,147.26 L 58.86,147.72 L 58.67,147.99 L 58.34,148.16 L 57.81,148.27 L 57.01,148.33 L 56.23,148.64 L 55.75,149.25 L 55.41,149.96 L 55.31,150.54 L 55.44,151.14 L 55.77,151.47 L 56.25,151.82 L 56.72,151.92 L 57.13,152.14 L 57.25,152.45 L 57.04,152.86 L 56.87,153.28 L 56.80,153.55 L 56.76,153.69 L 56.82,154.37 L 57.05,154.90 L 57.17,155.28 L 56.63,155.78 L 56.12,156.02 L 55.44,156.18 L 54.89,156.26 L 54.23,156.37 L 54.00,156.69 L 53.83,157.24 L 53.87,157.93 L 54.33,158.58 L 54.77,159.01 L 55.47,159.57 L 56.19,160.06 L 56.57,160.41 L 56.80,160.83 L 56.98,161.86 L 56.96,162.42 L 56.65,162.96 L 56.01,163.53 L 55.33,163.74 L 54.78,164.20 L 54.23,164.68 L 53.98,165.23 L 53.90,165.56 L 53.88,166.30 L 53.93,167.47 L 53.91,168.40 L 53.65,168.83 L 53.10,169.40 L 52.69,169.66 L 52.08,169.87 L 51.49,170.07 L 50.79,170.36 L 50.19,170.65 L 49.91,170.88 L 49.54,171.51 L 48.39,172.35 L 47.87,172.61 L 47.26,172.84 L 46.71,173.09 L 46.01,173.17 L 45.41,173.67 L 44.80,174.13 L 43.09,174.60 L 42.35,174.78 L 43.41,177.03 L 45.25,180.49 L 46.05,182.01 L 49.62,183.37 L 52.86,184.70 L 55.22,184.27 L 59.98,183.55 L 64.55,183.14 L 70.02,182.49 L 73.93,181.93 L 78.41,181.02 L 81.27,180.75 L 83.82,180.87 L 84.69,180.95 L 93.52,181.00 L 93.82,180.08 L 94.19,178.62 L 94.96,175.12 L 98.19,175.13 L 104.58,174.74 L 109.03,174.66 L 113.09,174.26 L 113.41,173.21 L 113.73,172.16 L 114.06,170.86 L 114.40,169.59 L 114.94,168.40 L 115.70,167.89 L 116.45,167.37 L 118.52,165.86 L 120.11,164.71 L 121.40,163.57 L 123.28,162.35 L 124.12,161.59 L 124.34,160.86 L 124.24,160.50 L 125.12,160.24 L 125.68,160.16 L 126.25,160.10 L 126.52,159.98 L 126.78,159.85 L 127.15,159.70 L 127.51,159.54 L 127.77,159.38 L 128.04,159.22 L 128.94,159.30 L 130.52,159.40 L 131.49,159.40 L 132.24,159.19 L 132.85,158.81 L 133.24,158.44 L 135.01,158.29 L 135.31,158.47 L 135.43,158.89 L 135.58,159.23 L 136.14,159.77 L 137.44,159.92 L 137.92,159.95 L 138.69,159.85 L 139.69,159.68 L 140.37,159.44 L 140.25,160.80 L 140.14,162.35 L 140.16,163.16 L 140.28,163.82 L 140.78,165.10 L 141.01,166.09 L 141.14,166.31 L 141.18,167.30 L 141.06,168.29 L 141.16,168.99 L 141.38,169.93 L 141.41,170.61 L 141.55,172.42 L 141.51,173.23 L 141.44,173.43 L 141.57,174.34 L 141.81,175.18 L 142.22,176.17 L 142.52,176.83 L 142.60,177.47 L 142.51,178.38 L 142.59,179.56 L 142.69,179.93 L 142.68,181.06 L 142.76,181.40 L 143.04,181.92 L 143.25,183.07 L 143.41,183.90 L 143.48,184.42 L 143.40,184.90 L 143.29,185.44 L 143.11,186.01 L 143.12,186.69 L 143.25,187.29 L 143.75,188.18 L 144.06,189.63 L 144.17,190.37 L 144.15,191.26 L 144.03,192.10 L 144.06,192.57 L 144.30,193.17 L 145.34,193.65 L 145.87,194.69 L 146.06,195.20 L 146.12,195.82 L 146.10,196.26 L 146.16,196.72 L 146.25,197.28 L 146.21,197.78 L 146.15,198.92 L 146.06,199.66 L 146.16,200.81 L 146.34,201.61 L 146.39,202.54 L 146.55,203.29 L 146.92,205.20 L 147.01,205.80 L 147.06,206.68 L 146.97,207.31 L 146.97,208.59 L 146.96,209.64 L 146.88,210.40 L 146.69,210.82 L 146.70,211.56 L 146.88,212.50 L 147.01,213.44 L 147.29,214.38 L 147.36,214.58 L 147.43,214.78 L 147.14,217.27 L 146.05,222.06 L 146.18,223.62 L 146.50,227.38 L 146.86,230.81 L 147.04,232.73 L 147.16,235.28 L 147.57,238.83 L 147.05,239.93 L 145.62,243.08 L 144.72,245.42 L 143.73,247.84 L 142.62,250.71 L 141.53,252.67 L 140.19,255.14 L 137.77,259.87 L 137.27,260.74 L 137.25,261.31 L 137.23,261.64 L 137.12,262.01 L 136.16,262.89 L 135.14,263.83 L 133.86,264.65 L 133.38,265.11 L 133.12,265.56 L 132.75,266.43 L 132.40,267.14 L 132.16,267.34 L 131.84,267.55 L 131.52,267.77 L 131.17,267.95 L 130.24,268.36 L 129.81,268.61 L 129.38,269.05 L 129.08,269.81 L 128.88,270.88 L 128.58,272.21 L 128.02,273.33 L 127.50,274.54 L 127.25,275.53 L 127.04,276.30 L 126.48,276.71 L 122.20,280.37 L 119.38,282.95 L 118.39,282.59 L 116.16,281.34 L 114.59,280.68 L 112.24,279.53 L 107.61,276.75 L 105.96,275.88 L 101.70,273.91 L 99.62,272.76 L 94.60,270.22 L 91.07,268.16 L 89.76,267.63 L 86.28,265.97 L 83.54,265.00 L 81.10,264.04 L 78.86,262.91 L 77.52,262.35 L 76.11,261.76 L 74.79,261.70 L 73.04,261.78 L 71.60,261.76 L 70.18,261.68 L 69.19,261.21 L 67.10,259.65 L 65.29,258.43 L 62.50,256.42 L 60.91,258.12 L 58.57,260.92 L 56.90,262.94 L 55.93,264.14 L 55.31,265.33 L 54.84,266.63 L 54.93,270.27 L 54.29,275.69 L 54.12,277.15 L 52.71,282.12 L 52.13,283.85 L 51.16,286.87 L 50.74,288.52 L 50.82,291.48 L 50.25,293.79 L 48.12,298.47 L 47.65,299.34 L 46.47,301.45 L 45.37,302.85 L 44.20,303.51 L 42.82,303.76 L 41.21,304.43 L 40.43,304.85 L 39.44,306.11 L 38.76,306.90 L 38.34,307.58 L 37.46,308.92 L 34.68,312.24 L 31.82,315.37 L 31.26,317.23 L 31.64,319.40 L 30.90,320.73 L 29.60,322.22 L 27.81,323.04 L 25.98,323.63 L 24.10,325.07 L 22.98,326.06 L 22.33,327.03 L 21.13,328.51 L 19.79,330.11 L 18.00,332.78 L 17.84,335.05 L 15.60,337.29 L 13.02,341.55 L 11.91,344.16 L 10.96,345.72 L 10.00,349.45 L 11.38,350.26 L 14.24,352.34 L 15.64,353.24 L 18.58,355.93 L 21.92,357.48 L 24.83,360.01 L 28.32,365.00 L 28.94,366.66 L 30.24,371.13 L 30.94,374.08 L 30.79,374.20 L 36.88,377.26 L 40.96,381.45 L 39.10,387.84 L 38.29,391.48 L 38.74,395.18 L 42.86,404.94 L 48.71,415.68 L 49.48,418.73 L 50.99,425.21 L 55.16,428.57 L 61.34,428.48 L 63.26,428.35 L 66.13,428.11 L 71.10,428.25 L 74.06,427.33 L 79.67,427.53 L 81.93,427.98 L 84.82,428.12 L 87.82,429.31 L 89.20,429.80 L 92.76,430.84 L 97.51,432.11 L 102.90,433.60 L 102.91,434.22 L 102.68,435.18 L 102.21,436.67 L 102.54,438.05 L 103.47,441.38 L 102.92,443.04 L 101.83,444.02 L 101.36,445.52 L 100.80,447.78 L 100.84,449.88 L 99.59,452.69 L 98.85,454.83 L 99.27,460.57 L 99.08,465.73 L 98.52,467.86 L 97.66,475.00 L 99.82,476.58 L 100.86,477.22 L 103.05,478.58 L 108.70,481.36 L 111.68,483.65 L 121.69,488.68 L 129.21,494.01 L 132.19,496.35 L 132.33,496.45 L 137.38,500.27 L 142.39,503.89 L 143.91,506.82 L 145.67,509.04 L 147.88,510.38 L 150.16,510.73 L 153.05,513.47 L 153.32,516.35 L 152.95,517.32 L 152.64,517.95 L 152.37,518.47 L 152.05,519.20 L 151.84,519.72 L 151.70,520.32 L 151.56,520.72 L 151.35,521.07 L 151.03,521.59 L 150.50,522.14 L 150.03,522.75 L 149.35,523.32 L 148.60,523.99 L 148.07,524.49 L 147.86,524.84 L 147.63,525.17 L 147.63,525.61 L 147.74,525.96 L 148.11,526.46 L 148.43,527.04 L 148.52,527.39 L 148.55,528.09 L 148.51,528.39 L 148.39,528.76 L 148.12,529.33 L 147.61,530.05 L 146.95,530.69 L 146.36,531.38 L 146.00,531.90 L 145.73,532.25 L 145.22,533.07 L 144.61,534.08 L 144.36,534.70 L 144.14,535.47 L 143.43,535.99 L 142.57,536.21 L 142.15,536.46 L 141.06,538.18 L 140.42,540.57 L 139.53,541.42 L 138.12,544.01 L 137.19,545.55 L 135.86,548.99 L 137.49,549.62 L 138.80,549.73 L 140.10,549.83 L 142.05,549.28 L 144.01,549.50 L 145.38,549.98 L 146.23,550.56 L 147.90,553.53 L 149.02,555.33 L 147.68,556.68 L 153.51,559.59 L 152.18,564.14 L 153.14,564.87 L 156.85,568.45 L 160.42,571.11 L 161.63,571.82 L 164.20,573.31 L 167.17,575.44 L 169.34,577.06 L 171.49,578.19 L 172.78,579.07 L 174.06,579.66 L 176.54,580.92 L 178.63,581.91 L 180.28,582.63 L 182.08,583.74 L 184.96,584.53 L 187.32,585.11 L 190.30,585.80 L 193.90,587.18 L 196.43,588.82 L 198.77,590.00 L 199.25,589.58 L 199.38,589.13 L 199.60,586.81 L 199.61,586.20 L 199.49,584.14 L 199.35,583.59 L 199.14,582.70 L 198.88,581.57 L 198.78,580.77 L 198.78,580.35 L 198.75,579.47 L 198.74,578.77 L 198.64,578.28 L 198.83,577.51 L 199.02,577.06 L 199.06,576.49 L 199.04,575.85 L 198.96,575.00 L 199.67,574.50 L 200.38,573.39 L 200.87,572.06 L 201.55,571.08 L 201.97,569.93 L 202.40,568.78 L 202.62,567.57 L 202.85,566.37 L 202.81,564.92 L 202.76,563.48 L 202.91,561.01 L 202.64,560.30 L 201.78,557.45 L 201.57,556.21 L 201.69,554.79 L 201.81,552.11 L 202.47,550.96 L 203.24,549.50 L 203.49,548.53 L 204.01,547.41 L 204.54,546.03 L 205.64,544.53 L 206.21,543.23 L 206.69,541.39 L 207.23,538.88 L 208.03,536.12 L 208.69,535.11 L 208.94,534.84 L 209.95,533.80 L 210.76,533.54 L 212.06,533.27 L 213.81,533.57 L 217.34,534.61 L 219.41,535.84 L 224.24,538.31 L 228.21,540.30 L 230.99,541.35 L 231.92,541.39 L 234.80,541.29 L 236.06,540.97 L 237.48,541.13 L 240.54,540.47 L 241.54,540.10 L 243.26,539.63 L 244.24,539.84 L 246.38,539.62 L 250.07,537.55 L 251.79,533.18 L 251.82,529.21 L 252.38,525.43 L 254.04,521.36 L 256.19,519.42 L 259.61,518.68 L 262.40,519.29 L 266.79,520.77 L 271.38,520.69 L 275.77,523.14 L 278.40,524.17 L 280.20,523.56 L 283.09,521.48 L 286.48,519.38 L 290.92,518.48 L 293.37,518.76 L 297.02,520.02 L 299.62,522.35 L 301.61,525.25 L 302.72,528.12 L 303.63,531.14 L 306.32,530.28 L 308.74,528.95 L 312.28,527.42 L 312.94,526.44 L 313.84,524.21 L 315.27,520.14 L 316.95,517.25 L 318.27,515.19 L 321.99,514.68 L 325.48,513.79 L 327.84,512.68 L 330.59,510.41 L 331.83,509.08 L 335.05,507.41 L 336.98,505.70 L 338.85,501.35 L 339.65,498.01 L 340.01,493.46 L 339.67,486.09 L 339.93,480.08 L 340.25,477.04 L 345.06,474.03 L 347.92,472.34 L 349.70,470.56 L 352.29,468.45 L 353.10,467.35 L 354.74,469.83 L 355.68,471.43 L 356.17,473.20 L 357.51,474.18 L 360.64,473.95 L 364.84,473.20 L 367.15,473.55 L 370.18,474.70 L 373.77,476.61 L 375.41,477.43 L 377.68,477.97 L 381.41,480.10 L 385.95,482.03 L 388.73,483.30 L 394.24,486.05 L 397.05,486.75 L 400.29,488.27 L 402.62,489.69 L 404.34,491.36 L 405.21,493.46 L 405.32,495.07 L 405.29,495.89 L 409.10,495.39 L 411.74,495.06 L 414.47,495.44 L 416.64,496.80 L 417.70,497.98 L 418.11,498.80 L 419.29,501.88 L 421.44,505.63 L 422.54,507.79 L 422.83,508.72 L 424.85,508.18 L 427.67,510.02 L 430.81,512.57 L 433.20,514.82 L 434.01,517.75 L 433.29,519.37 L 433.24,520.70 L 433.27,522.06 L 433.62,522.87 L 435.51,524.91 L 436.17,526.78 L 442.44,526.14 L 448.51,525.60 L 451.61,524.87 L 454.15,523.07 L 455.47,521.37 L 457.77,521.15 L 463.38,520.44 L 465.33,520.34 L 466.50,520.28 L 467.85,522.01 L 470.05,522.54 L 471.66,521.51 L 474.13,518.79 L 476.14,515.29 L 477.13,514.62 L 476.64,512.51 L 475.91,509.84 L 474.50,507.26 L 473.48,503.02 L 471.98,499.76 L 471.75,497.71 L 470.99,495.54 L 469.64,494.24 L 467.52,492.17 L 462.54,487.49 L 457.76,482.67 L 454.33,478.87 L 451.71,476.45 L 450.44,474.81 L 448.69,473.00 L 450.36,471.22 L 452.55,468.87 L 454.74,466.16 L 455.35,465.09 L 455.38,464.38 L 454.17,462.32 L 453.13,461.28 L 451.99,459.95 L 451.95,459.13 L 452.20,458.39 L 452.08,457.83 L 451.27,456.08 L 450.24,454.61 L 448.74,453.24 L 446.77,451.48 L 444.26,449.47 L 444.25,449.04 L 443.63,448.21 L 442.53,447.12 L 442.15,445.87 L 440.59,444.09 L 438.45,441.74 L 438.44,441.08 L 437.95,438.32 L 437.51,436.66 L 436.57,435.10 L 435.44,433.18 L 434.51,431.00 L 434.11,429.13 L 433.44,427.52 L 432.93,424.99 L 432.80,422.81 L 432.91,421.58 L 433.48,419.40 L 433.81,416.97 L 433.95,415.42 L 434.34,413.23 L 434.40,411.39 L 434.13,410.36 L 433.19,407.45 L 433.00,405.35 L 432.71,402.84 L 432.48,400.52 L 431.97,397.85 L 430.57,396.64 L 428.31,396.07 L 426.94,396.36 L 423.86,396.56 L 420.55,396.59 L 418.17,397.08 L 416.52,397.64 L 414.28,398.81 L 412.56,399.81 L 410.06,401.02 L 406.92,402.36 L 404.94,403.38 L 402.86,404.29 L 400.46,405.22 L 398.11,406.01 L 395.91,406.55 L 394.82,406.79 L 392.44,407.47 L 388.89,407.88 L 386.18,407.71 L 385.03,407.77 L 384.95,407.36 L 384.86,405.64 L 384.34,404.20 L 383.63,401.81 L 382.77,399.23 L 381.92,398.29 L 380.88,396.59 L 379.60,394.86 L 379.50,393.95 L 379.82,393.33 L 381.27,391.83 L 381.36,390.07 L 379.99,389.13 L 379.91,387.12 L 379.00,386.96 L 377.46,387.36 L 374.89,387.15 L 373.95,386.62 L 372.12,386.22 L 370.24,386.29 L 370.13,385.63 L 370.04,383.23 L 370.18,380.48 L 370.13,377.40 L 370.22,374.39 L 369.83,369.66 L 369.45,367.86 L 368.83,367.22 L 367.00,365.73 L 365.17,363.85 L 364.13,363.98 L 362.02,363.26 L 360.84,362.47 L 358.60,360.87 L 358.32,360.10 L 358.48,359.54 L 358.93,358.60 L 360.32,356.27 L 360.68,354.43 L 361.74,353.03 L 361.97,352.08 L 362.41,350.83 L 363.65,349.50 L 364.58,347.78 L 365.65,345.76 L 366.51,345.09 L 368.56,344.59 L 370.82,343.87 L 372.39,344.07 L 374.65,343.85 L 376.30,343.07 L 377.84,342.90 L 379.43,343.23 L 380.83,342.99 L 382.16,343.51 L 383.91,344.08 L 383.46,343.84 L 384.90,344.03 L 386.87,344.28 L 388.48,345.14 L 390.18,345.18 L 392.11,345.40 L 392.47,345.91 L 392.48,345.29 L 392.77,342.82 L 392.49,342.03 L 392.35,340.83 L 393.42,339.28 L 393.70,338.42 L 393.27,337.42 L 392.93,335.89 L 393.23,335.39 L 393.50,333.77 L 393.14,328.99 L 392.33,328.04 L 391.34,327.29 L 391.10,326.66 L 391.78,325.11 L 391.86,323.14 L 391.39,322.25 L 391.38,321.61 L 391.77,320.35 L 392.50,319.09 L 393.47,316.95 L 394.59,314.28 L 395.61,312.58 L 396.68,311.03 L 397.22,309.66 L 398.15,309.18 L 399.36,307.67 L 400.48,305.32 L 401.01,303.46 L 400.83,301.78 L 400.28,300.93 L 399.16,297.90 L 398.52,293.87 L 397.43,290.53 L 396.75,288.44 L 396.13,285.62 L 397.02,285.16 L 398.57,285.24 L 400.11,284.75 L 400.05,283.53 L 400.28,281.60 L 400.96,280.05 L 400.89,278.23 L 399.65,274.76 L 399.24,270.98 L 399.58,269.48 L 399.42,268.73 L 398.10,266.27 L 397.83,264.13 L 397.61,260.84 L 397.81,257.46 L 398.00,253.59 L 398.42,249.96 L 397.99,247.39 L 396.77,246.91 L 394.68,246.09 L 392.43,245.06 L 390.89,243.80 L 390.15,242.71 L 389.69,240.41 L 389.91,238.37 L 390.63,236.57 L 391.41,235.59 L 393.26,233.95 L 395.35,231.98 L 395.66,231.13 L 396.52,229.04 L 396.67,227.11 L 396.30,225.36 L 395.25,224.10 L 390.70,220.58 L 384.43,214.94 L 379.98,211.57 L 377.62,209.31 L 377.65,208.36 L 377.70,206.89 L 376.85,206.19 L 375.38,206.29 L 371.74,207.53 L 365.86,210.62 L 361.15,213.24 L 359.99,213.51 L 359.56,212.66 L 360.07,210.35 L 361.65,206.61 L 363.18,203.61 L 364.60,201.02 L 366.41,198.84 L 368.20,196.04 L 370.52,193.10 L 370.98,191.41 L 370.97,189.05 L 368.88,186.32 L 368.10,183.23 L 367.22,181.10 L 365.58,178.52 L 363.55,176.07 L 362.99,174.72 L 362.69,173.04 L 363.09,171.86 L 364.32,169.48 L 365.34,167.64 L 366.47,165.47 L 366.39,163.45 L 365.22,161.26 L 363.38,160.15 L 361.25,159.61 L 358.92,159.98 L 356.24,161.20 L 351.82,164.92 L 347.96,168.88 L 345.39,172.16 L 344.62,175.32 L 345.14,178.49 L 344.82,179.21 L 343.15,180.75 L 339.82,183.76 L 336.77,186.03 L 331.95,189.00 L 329.62,191.26 L 327.65,192.80 L 324.88,193.99 L 320.22,194.72 L 317.56,195.45 L 316.47,193.86 L 315.98,191.97 L 315.71,190.09 L 314.39,188.18 L 312.79,187.53 L 311.62,187.66 L 310.03,189.33 L 308.90,187.49 L 307.17,185.71 L 303.17,183.82 L 299.63,182.85 L 298.71,182.11 L 299.06,180.57 L 299.20,178.54 L 299.33,175.26 L 298.68,173.19 L 297.14,171.43 L 296.88,169.79 L 297.60,168.14 L 299.36,165.39 L 299.03,163.24 L 298.95,162.74 L 298.91,161.68 L 297.42,159.28 L 296.00,156.16 L 294.94,152.10 L 293.93,146.73 L 294.97,145.64 L 296.37,143.80 L 297.76,141.95 L 299.29,138.71 L 299.60,135.56 L 297.70,131.23 L 298.64,127.22 L 298.91,125.81 L 298.97,125.03 L 299.42,124.58 L 300.70,123.95 L 303.83,122.80 L 305.29,122.26 L 305.53,122.08 L 306.12,120.73 L 306.66,119.81 L 307.10,119.14 L 308.89,118.29 L 310.62,117.96 L 312.06,117.79 L 313.31,117.45 L 316.30,116.73 L 318.36,116.22 L 319.52,115.89 L 320.10,115.63 L 320.59,114.96 L 321.17,112.84 L 321.52,111.45 L 322.15,110.39 L 323.32,109.21 L 324.58,108.25 L 324.73,107.74 L 324.74,107.10 L 324.91,106.84 L 326.27,102.12 L 326.02,102.16 L 325.16,101.97 L 324.41,101.64 L 324.08,101.41 L 323.30,100.64 L 322.87,99.97 L 322.56,99.42 L 322.36,98.78 L 322.31,97.85 L 322.30,97.50 L 322.35,95.60 L 322.42,94.90 L 322.78,93.80 L 323.49,92.49 L 324.14,91.38 L 324.73,90.17 L 324.94,89.44 L 325.03,88.91 L 325.01,88.27 L 324.95,87.10 L 324.79,86.58 L 324.25,85.34 L 323.33,84.22 L 321.41,82.46 L 320.54,81.67 L 319.83,80.97 L 318.29,79.09 L 317.58,77.68 L 317.14,76.97 L 316.67,75.73 L 316.46,74.47 L 316.63,72.74 L 316.91,71.17 L 317.07,70.23 L 317.17,68.72 L 317.12,66.97 L 316.92,65.65 L 316.39,64.48 L 315.85,63.43 L 315.33,62.60 L 314.82,62.13 L 313.82,61.30 L 312.92,60.70 L 311.17,59.42 L 310.33,58.85 L 310.28,58.82 L 309.18,57.80 L 308.10,56.77 L 307.07,55.71 L 306.61,55.17 L 306.40,54.55 L 306.32,53.18 L 306.44,52.53 L 306.50,51.90 L 306.92,50.66 L 307.16,50.10 L 308.07,48.50 L 308.72,47.32 L 309.07,46.83 L 309.95,45.95 L 311.18,44.35 L 311.41,43.80 L 311.70,42.61 L 311.83,41.95 L 311.92,40.01 L 311.81,39.32 L 311.58,38.09 L 311.30,37.02 L 311.04,36.21 L 310.69,36.02 L 309.58,35.20 L 309.05,34.80 L 306.69,33.29 L 305.27,32.35 L 304.19,31.63 L 302.44,30.44 L 301.71,29.97 L 301.69,29.96 L 301.14,29.54 L 300.82,29.30 L 299.28,27.87 L 298.54,27.06 L 297.43,28.10 L 296.28,28.67 L 295.76,29.10 L 295.28,29.72 L 293.29,31.48 L 290.92,33.81 L 288.10,36.36 L 287.19,36.69 L 285.97,38.31 L 284.57,38.71 L 283.11,38.85 L 281.19,39.31 L 279.94,38.99 L 279.27,39.02 L 278.52,38.88 L 277.95,39.18 L 276.46,39.48 L 275.72,39.52 L 274.10,39.76 L 273.25,40.03 L 271.75,42.62 L 268.84,47.57 L 266.15,52.28 L 263.91,56.11 L 261.06,53.11 L 259.82,51.78 L 259.35,51.78 L 256.99,53.25 L 253.58,55.80 L 251.30,57.27 L 251.00,57.32 L 245.71,57.18 L 245.01,40.96 L 245.22,39.56 L 245.24,38.62 L 245.41,37.90 L 245.64,36.93 L 246.64,36.35 L 247.30,35.49 L 247.91,34.85 L 248.62,34.22 L 249.10,33.67 L 249.86,32.98 L 250.69,32.16 L 250.98,31.77 L 251.33,31.00 L 251.59,30.21 L 251.68,29.68 L 251.72,28.68 L 251.67,28.53 L 251.49,28.02 L 251.43,27.11 L 251.30,26.04 L 251.13,25.21 L 250.97,24.63 L 250.92,24.15 L 250.99,23.69 L 251.47,23.01 L 252.50,22.48 L 254.29,21.80 L 255.59,21.25 L 255.77,20.99 L 255.66,20.71 L 255.08,20.17 L 253.64,18.97 L 252.28,18.35 L 251.05,18.10 L 249.96,18.02 L 248.08,17.94 L 247.29,17.73 L 246.02,17.52 L 245.88,17.49 L 245.48,17.52 L 244.72,17.34 L 243.91,16.13 L 242.89,13.98 L 242.12,12.42 L 241.46,11.13 L 240.84,10.41 L 239.71,10.01 Z" fill="#1d3672" stroke="#333" stroke-width="1"/>
</svg>