<svg xmlns="http://www.w3.org/2000/svg" width="800" height="600" viewBox="0 0 800 600">
<path d="M 445.43,17.11 L 444.86,15.72 L 444.79,15.73 L 442.45,16.07 L 439.07,16.54 L 438.02,18.24 L 436.78,19.80 L 435.44,21.75 L 434.49,23.62 L 433.43,25.62 L 431.27,29.47 L 430.76,30.87 L 429.84,33.26 L 429.24,35.10 L 429.48,36.81 L 430.08,38.70 L 430.53,40.49 L 430.03,42.49 L 428.26,43.43 L 426.00,44.27 L 424.69,44.83 L 423.01,45.23 L 421.54,45.89 L 419.68,47.24 L 415.63,49.12 L 415.24,48.59 L 414.99,47.92 L 414.47,46.49 L 413.70,45.17 L 412.30,43.62 L 411.21,42.92 L 410.51,42.15 L 410.07,40.96 L 410.29,38.70 L 409.77,37.31 L 409.81,37.01 L 407.55,37.07 L 405.42,37.18 L 402.33,37.25 L 399.71,37.24 L 397.31,37.51 L 394.72,37.76 L 391.79,38.42 L 392.77,40.89 L 393.32,42.94 L 393.60,44.69 L 393.44,45.62 L 394.50,49.44 L 395.17,51.52 L 395.53,53.45 L 395.84,55.04 L 395.58,57.02 L 395.10,59.02 L 395.22,60.69 L 393.85,61.09 L 392.98,62.97 L 392.03,64.90 L 390.93,66.44 L 388.02,70.01 L 387.34,71.74 L 386.39,73.38 L 384.99,75.22 L 383.42,76.57 L 381.51,77.78 L 379.49,78.54 L 377.67,79.37 L 375.22,79.29 L 371.45,78.91 L 369.31,78.82 L 365.13,78.49 L 362.22,77.69 L 360.53,77.24 L 359.00,76.20 L 357.39,75.99 L 355.45,75.16 L 352.49,73.92 L 351.34,72.34 L 349.93,71.69 L 348.33,70.62 L 346.71,69.59 L 344.74,68.55 L 343.23,67.77 L 341.71,67.32 L 340.63,65.99 L 340.00,64.07 L 338.69,61.13 L 338.02,58.75 L 336.68,55.98 L 335.34,53.17 L 334.75,52.19 L 333.61,48.87 L 332.45,46.55 L 331.32,44.05 L 329.82,41.54 L 329.23,40.15 L 327.78,38.71 L 325.97,36.37 L 324.80,35.57 L 323.89,33.87 L 321.89,33.07 L 320.05,33.08 L 317.86,32.14 L 316.33,30.93 L 313.98,29.64 L 312.09,29.23 L 310.47,28.78 L 307.85,27.23 L 305.29,26.19 L 303.35,25.20 L 301.34,24.16 L 298.76,22.08 L 294.40,19.44 L 291.12,17.82 L 289.62,17.27 L 287.62,16.98 L 284.17,16.95 L 280.56,16.43 L 277.12,16.01 L 273.30,16.26 L 271.44,16.30 L 269.43,16.89 L 268.74,20.56 L 268.30,23.30 L 267.65,26.94 L 266.03,31.91 L 265.37,34.66 L 265.38,36.88 L 265.68,40.14 L 263.35,42.63 L 260.62,45.01 L 257.33,47.12 L 257.61,48.42 L 257.49,49.59 L 257.36,52.07 L 257.11,54.82 L 257.54,56.26 L 258.64,57.16 L 262.05,57.83 L 262.82,58.03 L 264.68,59.19 L 266.63,60.61 L 268.01,61.35 L 269.78,62.55 L 271.52,63.31 L 272.87,63.27 L 274.31,63.00 L 275.83,62.76 L 277.38,62.75 L 279.18,63.13 L 279.66,63.65 L 280.60,64.59 L 281.38,66.79 L 281.66,69.89 L 281.91,72.11 L 282.09,75.29 L 281.87,78.92 L 281.88,81.03 L 282.14,84.75 L 282.12,87.12 L 280.06,88.38 L 276.66,89.77 L 273.18,91.61 L 271.36,92.05 L 269.06,92.94 L 266.96,94.03 L 262.89,95.71 L 259.91,97.43 L 257.78,98.89 L 255.72,99.75 L 253.27,100.60 L 250.38,101.12 L 243.19,101.22 L 241.16,100.93 L 237.16,100.73 L 232.15,100.56 L 230.66,99.82 L 229.04,98.53 L 227.95,97.35 L 226.06,96.29 L 224.26,95.23 L 221.38,93.00 L 219.79,94.11 L 216.08,97.10 L 212.35,100.17 L 210.84,101.78 L 209.67,103.28 L 206.94,106.92 L 205.93,112.07 L 205.23,116.09 L 204.56,121.08 L 204.81,122.88 L 204.83,125.23 L 205.36,126.89 L 205.80,128.74 L 206.37,130.30 L 206.00,132.36 L 204.91,135.33 L 203.50,139.35 L 203.77,139.90 L 203.89,141.28 L 204.44,143.58 L 205.04,145.11 L 205.88,147.46 L 207.34,148.62 L 208.74,150.27 L 209.84,151.44 L 210.26,152.03 L 210.75,152.71 L 210.68,153.56 L 209.06,152.66 L 206.52,151.39 L 202.75,150.24 L 201.20,149.64 L 199.47,149.26 L 195.53,149.17 L 193.94,148.70 L 192.01,148.38 L 189.42,147.71 L 187.42,147.14 L 185.80,145.05 L 183.91,144.84 L 181.46,145.50 L 178.47,145.85 L 176.37,145.87 L 174.99,145.13 L 172.74,143.84 L 169.18,142.00 L 167.14,140.84 L 163.01,138.20 L 161.80,137.06 L 160.90,135.70 L 159.63,133.25 L 160.18,132.08 L 160.54,130.91 L 161.00,130.19 L 160.39,128.25 L 159.19,125.62 L 158.27,124.31 L 156.52,122.92 L 155.67,121.31 L 154.94,120.43 L 154.64,119.60 L 154.58,118.65 L 154.23,117.54 L 153.87,116.56 L 153.76,114.35 L 153.48,112.95 L 153.53,112.25 L 154.16,111.47 L 154.79,110.52 L 154.80,109.66 L 154.61,109.12 L 155.01,108.14 L 155.02,108.13 L 154.59,104.92 L 152.93,103.95 L 148.81,100.53 L 146.78,99.73 L 144.12,100.03 L 140.79,100.31 L 136.70,99.72 L 125.02,99.90 L 112.16,99.82 L 112.16,99.82 L 90.59,99.32 L 78.59,98.85 L 72.41,99.05 L 72.39,98.97 L 72.53,105.96 L 72.54,108.05 L 71.60,110.61 L 69.89,112.76 L 66.47,115.69 L 62.46,118.31 L 60.43,120.42 L 58.04,124.67 L 54.99,130.47 L 53.78,133.64 L 53.76,137.50 L 53.44,138.12 L 50.54,141.00 L 50.76,141.33 L 51.09,142.32 L 51.45,145.37 L 51.68,149.20 L 52.56,153.45 L 52.87,154.66 L 54.27,159.01 L 54.93,160.98 L 55.63,162.60 L 57.18,165.75 L 58.56,168.55 L 60.81,172.24 L 62.94,175.85 L 63.93,179.22 L 65.09,183.14 L 64.66,187.42 L 64.29,191.47 L 63.59,196.26 L 63.26,197.02 L 61.07,201.21 L 58.55,206.63 L 57.28,209.30 L 56.36,211.21 L 55.50,212.97 L 53.67,216.85 L 51.78,220.86 L 50.33,224.90 L 50.28,226.63 L 50.28,233.53 L 49.77,237.64 L 49.62,239.82 L 49.43,242.63 L 49.29,245.65 L 49.62,248.34 L 50.51,251.51 L 50.57,253.65 L 50.40,260.74 L 50.61,265.35 L 50.90,268.08 L 51.20,269.09 L 52.98,271.38 L 56.85,276.21 L 58.93,278.80 L 60.95,279.73 L 64.85,281.06 L 71.72,283.06 L 75.36,284.22 L 75.49,284.26 L 77.34,285.10 L 81.07,287.33 L 87.26,290.88 L 87.73,291.23 L 88.05,291.63 L 88.26,292.17 L 89.06,297.27 L 89.41,300.27 L 89.63,305.55 L 90.13,308.60 L 87.55,311.96 L 83.58,316.22 L 82.01,318.17 L 80.76,320.08 L 78.67,322.70 L 76.59,325.31 L 75.20,327.17 L 72.65,328.30 L 68.26,330.68 L 65.86,331.72 L 64.68,332.59 L 58.89,337.12 L 49.72,344.13 L 47.29,346.04 L 43.89,348.28 L 40.68,349.79 L 37.84,350.90 L 34.91,351.84 L 33.60,352.85 L 30.48,355.81 L 30.09,355.96 L 27.49,356.11 L 17.75,355.54 L 13.34,355.36 L 10.00,355.35 L 11.70,359.88 L 13.03,363.15 L 14.10,365.89 L 15.41,368.13 L 15.92,369.40 L 16.62,371.21 L 16.81,372.44 L 17.00,374.15 L 16.81,375.42 L 16.64,376.28 L 16.31,378.15 L 18.30,379.26 L 22.65,381.66 L 24.19,380.48 L 28.17,383.21 L 34.29,383.89 L 40.99,384.85 L 42.87,385.00 L 45.69,384.66 L 48.73,384.31 L 53.38,384.00 L 59.26,383.52 L 63.90,382.74 L 66.30,382.64 L 70.73,382.44 L 74.85,382.20 L 77.12,382.03 L 81.99,381.81 L 88.42,381.70 L 89.06,381.81 L 93.29,383.82 L 93.74,383.43 L 95.73,379.84 L 96.82,376.54 L 97.37,373.99 L 97.85,369.86 L 98.42,367.96 L 99.17,366.61 L 99.53,366.31 L 100.11,366.09 L 101.38,365.88 L 106.12,364.96 L 107.16,363.63 L 108.62,360.59 L 109.31,357.71 L 113.16,360.22 L 119.00,364.15 L 119.73,364.63 L 126.69,368.97 L 132.11,373.43 L 135.44,375.82 L 141.45,380.33 L 144.80,382.83 L 146.60,384.18 L 146.90,384.54 L 147.07,384.96 L 147.18,385.69 L 147.27,391.87 L 147.40,395.59 L 147.55,405.01 L 148.82,405.08 L 150.65,405.20 L 158.75,403.15 L 165.27,401.18 L 165.27,401.18 L 167.68,400.59 L 169.63,400.77 L 169.69,400.78 L 173.09,401.11 L 176.89,401.56 L 181.88,401.29 L 190.12,401.29 L 198.92,401.23 L 202.21,401.19 L 206.78,401.15 L 221.67,395.42 L 233.46,391.21 L 233.60,391.16 L 237.30,389.83 L 237.30,389.83 L 238.83,389.05 L 240.47,388.66 L 241.93,387.87 L 247.07,387.31 L 247.11,387.30 L 249.76,387.01 L 256.88,386.22 L 266.79,390.50 L 270.30,392.11 L 270.33,392.13 L 275.73,394.61 L 286.03,399.28 L 295.36,403.52 L 300.92,406.05 L 303.12,411.29 L 303.74,412.35 L 303.74,412.35 L 304.36,413.39 L 305.48,414.64 L 306.29,415.10 L 307.75,415.23 L 309.96,415.43 L 312.82,416.11 L 312.83,416.11 L 315.51,416.74 L 318.69,417.72 L 324.51,420.94 L 327.28,422.52 L 330.80,421.80 L 334.07,421.99 L 334.07,421.99 L 337.24,421.66 L 338.63,421.14 L 342.17,421.40 L 342.98,421.46 L 346.50,421.74 L 346.72,421.75 L 354.63,422.38 L 356.89,422.57 L 362.26,422.36 L 362.69,422.37 L 363.11,422.38 L 370.80,421.85 L 370.80,421.85 L 371.42,421.92 L 375.44,423.36 L 379.60,425.65 L 380.54,426.73 L 382.43,428.87 L 382.98,430.26 L 382.98,430.26 L 383.64,431.62 L 384.65,433.67 L 387.76,439.90 L 389.42,442.85 L 390.93,444.21 L 392.19,445.35 L 395.39,446.07 L 399.65,446.99 L 404.52,448.00 L 404.57,448.01 L 406.30,448.37 L 407.76,448.78 L 408.65,449.03 L 412.60,451.32 L 415.84,454.21 L 416.65,454.91 L 418.90,456.85 L 422.08,462.29 L 422.20,462.51 L 422.54,463.15 L 422.61,463.29 L 422.99,464.00 L 422.99,464.00 L 423.14,464.16 L 426.30,467.62 L 427.61,469.00 L 427.61,469.00 L 429.41,470.05 L 433.00,472.14 L 433.00,472.14 L 439.30,473.00 L 440.11,473.07 L 442.97,473.32 L 448.65,475.10 L 455.36,478.51 L 455.36,478.51 L 461.18,482.32 L 463.44,488.04 L 463.47,488.10 L 465.62,493.54 L 467.52,494.86 L 467.89,495.24 L 470.31,495.09 L 473.65,495.35 L 474.70,495.66 L 476.13,495.51 L 476.80,495.09 L 477.87,495.13 L 480.51,496.64 L 481.90,497.78 L 483.45,500.38 L 486.36,502.12 L 492.65,506.01 L 495.57,507.96 L 501.94,512.91 L 504.23,514.87 L 504.73,515.31 L 506.34,516.70 L 507.78,517.93 L 511.06,520.76 L 514.04,521.60 L 517.30,522.07 L 518.98,522.52 L 519.73,523.09 L 520.81,524.12 L 522.30,526.68 L 522.75,527.45 L 524.27,529.94 L 525.54,533.38 L 526.80,539.01 L 527.16,540.86 L 527.38,541.90 L 527.82,545.13 L 527.93,545.90 L 528.00,547.02 L 528.17,549.29 L 528.60,550.51 L 530.79,552.89 L 532.81,556.59 L 533.65,558.43 L 534.49,559.34 L 535.77,559.98 L 538.76,560.88 L 540.11,561.65 L 541.46,563.57 L 545.21,565.95 L 548.82,568.62 L 551.65,571.65 L 552.89,574.03 L 553.80,575.38 L 555.31,576.02 L 557.38,577.27 L 558.53,578.97 L 560.96,581.85 L 562.39,583.21 L 564.11,583.88 L 568.09,584.60 L 571.91,585.54 L 576.64,586.79 L 581.38,588.35 L 584.37,589.47 L 585.72,589.81 L 586.99,590.00 L 588.79,589.39 L 590.37,588.22 L 592.53,586.49 L 595.17,584.93 L 596.26,584.67 L 596.99,584.52 L 597.35,584.41 L 598.99,584.11 L 601.97,584.53 L 604.00,584.49 L 606.94,582.95 L 612.12,581.36 L 616.46,579.61 L 620.29,578.63 L 624.23,577.42 L 626.50,576.17 L 628.09,576.20 L 629.89,576.50 L 633.50,577.09 L 636.53,577.57 L 640.07,577.27 L 643.54,576.93 L 646.53,574.49 L 648.28,572.75 L 651.27,571.69 L 655.57,571.16 L 658.20,570.52 L 658.87,570.25 L 660.43,568.67 L 661.55,566.82 L 661.79,565.54 L 661.67,562.96 L 660.64,559.36 L 657.89,557.55 L 655.15,554.29 L 652.21,551.05 L 649.14,547.52 L 646.27,543.56 L 643.73,539.78 L 640.90,539.21 L 635.25,538.56 L 632.29,537.96 L 630.15,535.31 L 627.39,532.63 L 624.09,529.49 L 623.41,528.66 L 622.63,524.43 L 618.95,520.08 L 617.93,518.05 L 618.41,516.37 L 618.29,513.36 L 616.57,509.83 L 619.76,509.42 L 620.31,506.39 L 621.01,502.96 L 624.26,502.70 L 624.62,501.73 L 624.86,498.48 L 624.82,495.95 L 624.65,495.54 L 624.34,494.90 L 624.34,494.90 L 624.39,491.92 L 624.59,486.56 L 624.59,486.56 L 624.70,484.48 L 624.81,482.37 L 627.63,479.68 L 627.63,479.67 L 631.18,476.28 L 633.05,476.01 L 633.05,476.01 L 639.77,470.84 L 639.77,470.84 L 644.13,465.31 L 644.13,465.31 L 650.84,455.81 L 650.84,455.81 L 656.02,448.51 L 669.03,450.61 L 680.68,452.32 L 680.68,452.32 L 682.44,451.93 L 684.66,450.75 L 684.97,449.95 L 687.23,444.64 L 687.87,443.03 L 689.73,438.34 L 694.93,426.00 L 699.00,416.04 L 699.00,416.04 L 698.94,415.73 L 697.35,408.28 L 695.62,399.61 L 695.97,393.35 L 696.32,387.11 L 692.30,381.58 L 692.31,381.27 L 692.45,372.00 L 692.39,366.14 L 693.91,364.93 L 701.61,356.46 L 705.25,352.26 L 708.06,349.01 L 709.72,347.08 L 710.54,345.97 L 710.99,345.36 L 712.89,342.79 L 713.12,342.48 L 713.12,342.48 L 713.27,342.17 L 716.00,336.63 L 716.00,336.63 L 718.48,330.57 L 719.10,328.88 L 720.14,326.88 L 722.54,322.52 L 724.07,319.74 L 724.44,317.52 L 725.06,313.34 L 725.94,306.82 L 726.81,301.99 L 727.59,295.51 L 728.37,287.78 L 728.42,287.42 L 728.86,283.76 L 725.88,283.62 L 718.48,283.36 L 709.00,280.16 L 706.75,276.29 L 700.97,264.81 L 695.86,254.40 L 702.51,240.47 L 706.15,232.45 L 707.05,230.43 L 713.89,230.45 L 716.55,230.46 L 718.48,230.46 L 719.62,230.73 L 720.68,231.02 L 722.55,231.62 L 724.24,232.29 L 726.91,234.56 L 729.14,236.28 L 736.44,242.08 L 741.72,246.06 L 748.14,251.32 L 748.50,251.58 L 748.91,251.51 L 749.93,251.26 L 750.85,251.00 L 751.82,250.75 L 752.52,250.47 L 753.32,250.30 L 754.44,250.26 L 755.10,250.16 L 755.59,249.98 L 756.12,249.35 L 756.37,248.78 L 756.61,247.89 L 756.83,247.61 L 757.18,247.33 L 757.83,246.95 L 757.94,246.68 L 758.16,246.30 L 758.47,246.13 L 759.11,245.67 L 759.25,245.54 L 759.37,245.27 L 759.53,245.07 L 759.80,244.79 L 759.97,244.67 L 760.32,244.43 L 760.73,244.20 L 761.81,243.18 L 762.48,242.57 L 762.92,242.13 L 763.19,241.57 L 763.28,241.18 L 763.20,240.63 L 763.13,239.70 L 763.01,238.65 L 763.11,238.29 L 763.29,238.00 L 763.65,237.76 L 764.15,237.39 L 764.43,237.09 L 764.67,236.70 L 764.72,236.36 L 764.79,235.40 L 764.81,234.14 L 764.92,233.81 L 765.11,233.48 L 765.42,233.31 L 765.74,233.28 L 766.41,233.31 L 766.75,233.25 L 767.14,233.05 L 767.55,232.78 L 767.96,232.43 L 768.21,232.06 L 768.04,231.56 L 767.98,230.79 L 768.00,230.20 L 768.15,229.84 L 768.45,229.43 L 768.76,229.09 L 768.98,228.69 L 769.02,228.37 L 769.04,227.60 L 769.11,226.96 L 769.31,226.62 L 769.77,226.22 L 770.09,225.88 L 770.19,225.64 L 770.12,225.26 L 769.85,224.97 L 769.83,224.72 L 769.93,224.55 L 770.29,224.27 L 770.79,223.97 L 771.17,223.58 L 771.46,223.17 L 771.70,222.76 L 771.85,222.32 L 772.13,221.73 L 772.67,220.76 L 773.01,220.38 L 773.58,219.81 L 774.63,218.93 L 774.15,217.82 L 771.64,215.09 L 769.52,213.54 L 765.86,212.64 L 760.73,211.10 L 759.69,210.47 L 762.79,209.17 L 767.89,205.29 L 773.15,201.61 L 778.98,197.85 L 783.90,193.80 L 786.47,191.50 L 786.75,191.08 L 786.98,190.77 L 787.19,190.13 L 787.46,189.61 L 787.66,189.27 L 788.02,189.00 L 788.36,188.77 L 788.53,188.41 L 788.65,187.85 L 788.77,187.48 L 789.10,187.14 L 789.50,186.86 L 789.93,186.65 L 790.00,186.65 L 789.54,186.21 L 785.45,182.78 L 784.17,181.90 L 777.09,182.13 L 771.31,182.25 L 768.24,181.88 L 762.31,180.73 L 760.06,180.99 L 752.34,182.24 L 746.33,182.96 L 744.70,182.62 L 742.08,180.66 L 737.25,178.06 L 736.48,175.78 L 736.47,174.00 L 736.26,171.12 L 736.23,170.45 L 736.13,169.95 L 736.10,169.55 L 736.23,168.72 L 736.20,167.99 L 735.86,167.11 L 735.54,166.56 L 735.15,165.73 L 735.10,165.63 L 734.98,165.41 L 734.74,164.84 L 734.42,164.18 L 734.36,163.95 L 734.31,163.46 L 734.09,162.64 L 733.63,161.88 L 733.36,161.27 L 733.06,160.62 L 732.94,160.37 L 732.90,159.93 L 732.98,159.52 L 733.05,159.22 L 733.23,158.86 L 733.63,158.49 L 733.90,158.20 L 733.98,157.66 L 733.72,157.16 L 733.13,155.03 L 733.12,152.59 L 733.96,150.47 L 734.38,147.10 L 734.87,145.00 L 735.58,140.85 L 739.16,141.35 L 739.54,140.13 L 739.79,137.11 L 740.36,135.91 L 740.28,133.41 L 740.18,133.42 L 739.04,133.23 L 731.21,129.98 L 727.23,128.35 L 721.20,125.27 L 718.47,124.23 L 717.70,123.91 L 712.99,121.66 L 711.44,121.04 L 708.55,120.08 L 704.68,118.76 L 702.98,118.20 L 699.73,117.50 L 695.41,116.58 L 691.51,115.37 L 685.06,113.54 L 683.23,112.90 L 675.83,110.58 L 670.51,108.87 L 667.10,107.97 L 663.18,106.90 L 657.24,105.19 L 654.08,104.46 L 651.80,103.75 L 650.25,102.67 L 646.28,100.00 L 643.66,97.97 L 642.43,97.09 L 636.97,93.42 L 633.66,92.32 L 631.75,91.79 L 627.72,90.38 L 626.93,91.22 L 626.13,92.35 L 624.95,93.81 L 624.02,94.86 L 622.11,96.88 L 620.78,98.50 L 619.42,99.51 L 618.55,100.75 L 615.16,103.36 L 613.53,105.13 L 612.42,106.26 L 609.66,109.24 L 608.34,111.20 L 603.50,115.55 L 601.06,117.75 L 599.40,119.34 L 598.10,121.33 L 597.11,122.92 L 595.45,124.25 L 594.13,125.70 L 593.56,126.85 L 592.80,128.12 L 591.58,130.74 L 590.83,132.16 L 588.89,134.76 L 587.39,135.71 L 586.29,136.30 L 584.73,137.37 L 583.62,138.70 L 582.76,140.72 L 581.81,143.34 L 580.88,147.20 L 580.39,149.10 L 580.12,150.62 L 579.25,154.05 L 578.72,157.93 L 577.90,161.88 L 576.72,165.24 L 576.03,167.24 L 573.62,170.41 L 571.93,171.80 L 569.91,172.72 L 567.89,173.92 L 565.99,175.11 L 564.12,176.07 L 562.40,176.77 L 561.13,177.04 L 559.87,177.30 L 557.97,177.87 L 556.91,177.99 L 554.85,178.24 L 552.64,178.99 L 550.80,179.78 L 549.54,180.54 L 548.68,182.84 L 548.23,184.40 L 548.14,185.44 L 547.76,186.19 L 546.96,187.17 L 545.09,188.36 L 543.09,187.94 L 538.91,185.73 L 537.29,185.00 L 536.04,184.34 L 534.50,184.30 L 531.91,183.79 L 531.06,182.76 L 530.28,181.02 L 530.06,179.58 L 529.75,178.26 L 529.13,176.86 L 528.77,175.34 L 528.22,173.85 L 527.38,172.45 L 526.17,171.22 L 524.85,170.40 L 521.77,168.81 L 520.11,168.71 L 518.79,168.11 L 517.40,167.52 L 514.87,166.13 L 513.20,164.07 L 511.04,161.64 L 510.21,160.30 L 509.02,158.99 L 508.13,157.58 L 504.92,156.26 L 501.63,155.13 L 498.69,155.11 L 497.30,154.77 L 494.24,153.82 L 492.42,153.61 L 490.94,152.96 L 489.26,152.65 L 486.47,151.92 L 485.08,151.33 L 483.78,150.68 L 483.13,150.06 L 482.05,150.47 L 476.98,152.48 L 475.02,153.10 L 473.23,153.29 L 471.20,153.85 L 467.35,155.02 L 465.41,155.64 L 461.90,156.32 L 460.33,156.86 L 458.35,157.10 L 458.79,154.02 L 459.34,152.15 L 460.47,148.87 L 461.63,146.40 L 462.18,144.62 L 463.72,141.76 L 465.04,138.80 L 466.03,135.89 L 466.41,134.13 L 467.61,131.03 L 468.50,127.86 L 469.62,124.84 L 470.48,121.84 L 471.75,118.85 L 472.37,117.61 L 472.98,116.38 L 472.97,114.04 L 472.81,112.50 L 472.26,111.04 L 471.47,109.38 L 470.85,107.80 L 470.17,106.25 L 469.84,105.51 L 469.47,103.33 L 469.67,102.09 L 469.63,101.00 L 470.03,99.57 L 471.65,95.99 L 468.11,93.17 L 465.68,91.12 L 464.05,90.75 L 462.44,90.50 L 460.68,89.31 L 457.62,87.57 L 456.16,86.62 L 453.77,85.19 L 453.04,83.77 L 452.35,81.64 L 452.25,79.98 L 451.86,76.82 L 451.83,73.20 L 451.95,68.31 L 451.79,62.98 L 450.75,56.26 L 450.47,52.24 L 449.29,44.14 L 448.97,41.04 L 447.61,37.60 L 447.10,34.04 L 446.74,29.91 L 445.37,25.67 L 444.80,22.06 L 444.91,20.28 L 445.43,17.11 Z" fill="#1d3672" stroke="#333" stroke-width="1"/>
</svg>