<svg xmlns="http://www.w3.org/2000/svg" width="800" height="600" viewBox="0 0 800 600">
<path d="M 258.86,10.00 L 258.72,10.00 L 258.29,10.04 L 257.54,10.32 L 256.39,11.06 L 255.84,11.48 L 254.85,12.35 L 252.73,14.56 L 250.54,17.07 L 248.89,19.26 L 248.08,20.35 L 247.43,21.26 L 246.57,21.96 L 245.99,22.19 L 245.22,22.46 L 244.70,22.59 L 243.79,22.73 L 242.65,22.87 L 241.84,22.97 L 240.06,22.76 L 238.28,22.38 L 237.84,22.30 L 236.96,22.15 L 236.07,22.07 L 234.59,22.05 L 233.58,22.22 L 232.51,22.45 L 232.01,22.73 L 231.31,23.46 L 230.91,24.06 L 230.07,25.25 L 229.32,26.41 L 228.97,26.88 L 228.16,27.90 L 227.50,28.67 L 226.39,29.92 L 225.12,30.59 L 223.65,31.30 L 222.53,31.84 L 220.96,32.21 L 217.63,32.82 L 214.76,33.34 L 214.25,33.48 L 212.83,33.76 L 212.65,33.78 L 212.02,33.86 L 211.10,33.95 L 209.53,33.89 L 208.71,33.74 L 207.93,33.57 L 207.29,33.27 L 206.24,32.72 L 205.28,32.12 L 204.55,31.49 L 204.27,31.22 L 203.92,30.67 L 203.55,30.09 L 203.27,29.62 L 203.24,29.55 L 202.75,28.66 L 202.37,27.97 L 201.98,27.39 L 201.19,26.86 L 200.17,26.40 L 198.95,26.04 L 197.82,25.80 L 197.28,25.73 L 195.89,25.76 L 194.65,25.70 L 193.87,25.68 L 193.02,25.59 L 192.54,25.49 L 191.52,25.25 L 190.91,25.17 L 190.48,25.15 L 189.64,25.25 L 188.62,25.32 L 187.44,25.15 L 186.45,25.14 L 185.56,25.23 L 184.87,25.19 L 183.20,24.78 L 181.43,24.42 L 180.11,24.09 L 179.16,23.82 L 178.45,23.64 L 177.61,23.29 L 176.47,22.84 L 174.21,21.94 L 173.85,21.75 L 172.38,21.32 L 171.93,21.18 L 171.45,21.17 L 170.99,21.21 L 170.50,21.24 L 169.25,21.49 L 167.96,22.22 L 167.94,22.23 L 167.24,22.82 L 166.34,23.58 L 165.12,25.20 L 164.01,27.36 L 163.54,28.45 L 162.90,29.76 L 162.34,30.78 L 161.73,31.85 L 161.03,32.92 L 160.48,33.74 L 159.77,34.40 L 159.27,34.77 L 158.68,35.17 L 160.71,36.02 L 163.76,36.89 L 165.80,37.44 L 166.45,37.81 L 168.17,37.67 L 171.23,37.92 L 172.56,37.92 L 176.41,38.03 L 178.42,38.14 L 181.22,38.20 L 184.77,39.46 L 187.11,40.38 L 187.69,40.58 L 188.33,41.53 L 189.63,43.56 L 189.90,44.13 L 189.94,44.14 L 189.34,44.74 L 189.26,45.25 L 189.26,46.24 L 189.28,46.84 L 189.13,47.22 L 188.64,48.02 L 188.41,48.60 L 188.29,49.35 L 188.37,49.82 L 188.68,50.46 L 188.55,52.36 L 188.46,53.65 L 187.95,55.41 L 187.21,55.32 L 186.76,57.53 L 186.18,60.22 L 184.46,60.63 L 183.47,60.80 L 183.27,62.67 L 182.96,64.80 L 181.73,65.01 L 179.32,65.44 L 179.15,64.08 L 174.77,63.39 L 172.86,63.07 L 172.18,64.71 L 170.26,69.10 L 170.13,69.36 L 169.46,69.15 L 168.80,71.62 L 168.46,72.63 L 168.11,74.01 L 168.01,74.86 L 168.05,77.11 L 168.24,78.96 L 168.19,81.69 L 168.28,82.82 L 167.16,84.49 L 165.46,86.99 L 163.28,90.18 L 160.82,93.88 L 159.65,95.49 L 159.46,96.46 L 159.23,98.33 L 158.81,101.38 L 158.70,102.00 L 157.64,102.05 L 157.11,105.15 L 156.97,106.22 L 155.98,106.20 L 155.69,108.29 L 153.90,108.07 L 152.86,108.01 L 152.56,106.85 L 152.43,106.15 L 150.44,106.12 L 150.03,105.91 L 149.87,105.82 L 149.62,105.84 L 149.53,105.88 L 149.35,105.89 L 149.31,105.74 L 149.39,105.31 L 149.43,105.08 L 149.39,104.90 L 149.47,104.68 L 149.63,104.40 L 149.66,104.21 L 149.63,104.06 L 149.17,103.58 L 149.16,103.40 L 147.75,103.25 L 144.66,103.02 L 144.14,102.48 L 142.61,102.07 L 139.91,101.33 L 136.75,100.55 L 133.63,99.71 L 132.34,99.27 L 131.93,99.27 L 131.86,102.15 L 131.68,105.50 L 131.61,108.48 L 131.52,109.88 L 131.79,112.68 L 131.98,114.93 L 131.92,115.62 L 131.20,118.62 L 130.69,120.55 L 130.73,122.69 L 129.05,122.81 L 128.41,125.06 L 127.39,126.48 L 126.42,127.63 L 126.29,127.95 L 127.93,129.24 L 129.36,130.24 L 130.85,130.35 L 133.66,132.11 L 135.42,133.26 L 136.87,133.20 L 139.39,132.15 L 140.45,132.38 L 141.35,132.71 L 142.68,134.26 L 143.29,135.04 L 143.67,137.71 L 143.89,139.25 L 143.30,142.07 L 142.95,143.93 L 142.76,145.15 L 142.67,147.70 L 142.65,150.36 L 142.70,151.87 L 142.68,152.28 L 140.22,150.97 L 139.17,150.33 L 136.55,148.88 L 134.92,147.95 L 133.08,146.99 L 130.72,146.14 L 127.86,145.15 L 126.20,144.52 L 123.85,143.33 L 122.34,142.87 L 120.43,142.28 L 118.58,141.46 L 116.72,140.66 L 115.48,140.82 L 114.72,139.79 L 113.43,139.44 L 110.99,138.79 L 108.77,138.19 L 104.85,137.10 L 103.52,136.74 L 102.96,136.50 L 102.93,136.72 L 103.55,138.64 L 104.26,140.83 L 104.87,142.70 L 105.40,144.26 L 105.61,145.07 L 107.04,146.45 L 108.23,147.69 L 109.97,149.58 L 111.89,151.61 L 112.69,152.42 L 113.41,153.32 L 114.36,154.72 L 114.60,155.11 L 114.38,166.92 L 125.48,171.07 L 129.26,174.91 L 128.59,180.67 L 127.64,187.68 L 120.34,188.00 L 117.90,188.78 L 113.62,183.93 L 112.95,176.65 L 105.72,178.53 L 105.21,180.19 L 100.67,184.19 L 98.58,183.79 L 99.20,181.00 L 94.97,179.48 L 94.61,181.48 L 92.77,181.22 L 91.97,180.24 L 88.87,176.66 L 84.10,176.53 L 84.25,175.12 L 81.01,173.83 L 78.97,173.10 L 73.86,172.12 L 70.04,171.40 L 67.94,171.00 L 65.58,171.12 L 63.66,171.34 L 64.82,174.23 L 61.62,180.53 L 58.72,186.36 L 57.30,187.01 L 57.24,188.35 L 57.90,188.86 L 56.36,195.54 L 59.40,196.97 L 57.20,206.71 L 57.51,208.31 L 59.44,208.82 L 60.39,213.22 L 60.72,212.89 L 61.21,212.38 L 61.55,212.04 L 61.89,211.71 L 62.39,211.36 L 63.16,210.87 L 63.60,210.56 L 64.12,210.18 L 64.82,209.74 L 65.60,209.37 L 66.15,209.13 L 66.90,208.74 L 67.88,208.38 L 68.48,208.15 L 69.50,207.51 L 70.29,207.01 L 70.86,206.66 L 71.35,206.34 L 72.10,205.83 L 72.78,205.40 L 73.21,205.14 L 74.09,204.65 L 74.89,204.30 L 75.51,204.05 L 76.15,203.80 L 76.78,203.57 L 77.61,203.43 L 78.43,203.37 L 79.25,203.37 L 80.21,203.37 L 80.96,203.32 L 81.43,203.27 L 81.73,203.24 L 82.14,203.21 L 82.51,203.23 L 83.14,203.38 L 83.65,203.56 L 84.20,203.77 L 85.04,204.06 L 85.70,204.28 L 86.38,204.46 L 87.15,204.63 L 87.94,204.78 L 88.65,204.95 L 89.70,205.19 L 90.57,205.43 L 91.29,205.65 L 92.13,206.06 L 92.60,206.31 L 92.78,206.42 L 92.99,206.60 L 93.30,207.00 L 93.62,207.53 L 93.96,208.15 L 94.23,208.71 L 94.65,209.57 L 94.92,210.01 L 95.39,210.99 L 95.63,211.47 L 96.00,212.41 L 96.15,212.76 L 96.51,213.86 L 96.88,214.94 L 97.19,216.12 L 97.49,217.06 L 97.61,217.53 L 97.86,218.51 L 97.88,219.05 L 97.98,219.89 L 97.98,220.22 L 97.85,221.48 L 97.49,222.68 L 97.04,223.74 L 96.61,224.72 L 96.49,225.14 L 96.46,225.42 L 96.47,226.12 L 96.53,226.58 L 96.63,226.83 L 96.79,227.27 L 97.10,227.89 L 97.30,228.13 L 97.65,228.49 L 98.23,228.87 L 98.62,229.02 L 99.25,229.22 L 99.82,229.29 L 100.47,229.37 L 101.23,229.30 L 102.15,229.28 L 103.30,229.25 L 103.77,229.18 L 104.29,229.23 L 104.88,229.24 L 105.60,229.40 L 106.35,229.57 L 107.09,229.86 L 107.79,230.26 L 108.56,230.68 L 109.25,231.01 L 109.92,231.41 L 110.66,231.84 L 111.04,232.16 L 111.56,232.66 L 112.09,233.28 L 112.39,233.71 L 112.65,234.18 L 112.92,234.71 L 113.25,235.43 L 113.46,235.78 L 113.89,236.76 L 114.07,237.08 L 114.50,238.08 L 114.72,238.81 L 114.83,239.23 L 115.10,240.16 L 115.25,240.48 L 115.41,240.82 L 115.67,241.42 L 115.87,241.81 L 116.26,242.84 L 116.33,243.11 L 116.38,243.56 L 116.45,243.86 L 116.59,244.27 L 116.74,244.67 L 116.84,244.98 L 117.11,245.63 L 117.33,246.03 L 117.72,246.62 L 118.04,246.96 L 118.30,247.20 L 119.03,247.63 L 119.43,247.85 L 119.84,248.06 L 120.40,248.33 L 121.13,248.60 L 121.84,248.79 L 122.29,248.97 L 122.69,249.08 L 123.39,249.37 L 123.62,249.46 L 123.86,249.55 L 124.30,249.72 L 125.03,249.99 L 125.67,250.15 L 126.45,250.27 L 127.31,250.32 L 128.11,250.30 L 128.43,250.28 L 128.78,250.17 L 129.26,249.99 L 129.92,249.56 L 130.31,249.28 L 130.66,249.06 L 131.09,248.67 L 131.38,248.32 L 131.50,248.07 L 131.58,247.64 L 131.62,247.12 L 131.65,246.59 L 131.68,245.85 L 131.66,245.09 L 131.73,244.53 L 131.78,243.45 L 131.88,243.01 L 131.96,242.25 L 131.99,241.63 L 132.11,241.22 L 132.29,240.76 L 132.66,240.25 L 132.91,239.92 L 133.27,239.22 L 133.48,238.84 L 133.81,238.28 L 134.12,237.93 L 134.46,237.55 L 134.90,237.14 L 135.25,236.88 L 135.52,236.63 L 135.78,236.31 L 135.97,236.06 L 136.21,235.68 L 136.40,235.19 L 136.50,234.73 L 136.65,234.48 L 136.81,234.27 L 137.01,234.04 L 137.40,233.80 L 137.74,233.66 L 138.45,233.42 L 138.88,233.27 L 139.27,233.19 L 139.90,233.08 L 140.47,233.03 L 140.79,233.01 L 141.23,233.10 L 141.64,233.19 L 142.01,233.28 L 142.46,233.47 L 142.74,233.65 L 143.22,233.95 L 143.76,234.34 L 144.04,234.56 L 144.66,235.02 L 145.05,235.20 L 145.64,235.53 L 146.14,235.81 L 146.45,235.91 L 147.27,236.16 L 148.07,236.39 L 148.66,236.63 L 148.84,236.71 L 149.41,237.11 L 149.77,237.47 L 150.05,237.74 L 150.35,237.97 L 150.67,238.15 L 151.17,238.33 L 151.58,238.45 L 151.96,238.43 L 152.40,238.39 L 153.12,238.14 L 153.64,237.96 L 154.24,237.85 L 155.20,237.62 L 155.64,237.39 L 156.17,236.89 L 156.44,236.53 L 156.91,236.08 L 157.28,235.75 L 157.71,235.42 L 158.02,235.00 L 158.22,234.61 L 158.32,234.36 L 158.46,233.51 L 158.49,232.80 L 158.50,232.31 L 158.48,231.60 L 158.52,231.14 L 158.66,230.57 L 158.76,230.07 L 158.88,229.50 L 159.05,228.90 L 159.26,228.22 L 159.54,227.71 L 159.80,227.44 L 160.15,227.23 L 160.51,227.11 L 160.92,227.01 L 161.35,227.01 L 162.02,227.04 L 162.42,227.15 L 162.77,227.34 L 163.14,227.46 L 163.51,227.49 L 163.76,227.44 L 164.04,227.33 L 164.35,227.19 L 164.56,227.16 L 164.84,227.20 L 165.15,227.29 L 165.36,227.44 L 165.63,227.78 L 165.88,228.03 L 166.21,228.24 L 166.70,228.48 L 167.18,228.59 L 167.74,228.68 L 168.04,228.74 L 168.70,228.91 L 169.15,229.08 L 169.65,229.22 L 170.59,229.55 L 170.88,229.65 L 171.30,229.71 L 171.97,229.71 L 172.23,229.72 L 172.51,229.81 L 172.98,229.97 L 173.58,230.19 L 174.06,230.33 L 174.57,230.47 L 175.13,230.61 L 175.61,230.80 L 175.96,230.99 L 176.44,231.25 L 177.02,231.58 L 177.64,231.91 L 178.22,232.22 L 178.92,232.50 L 179.39,232.69 L 179.54,232.72 L 179.91,232.81 L 180.46,232.93 L 180.97,233.01 L 181.44,233.11 L 181.83,233.21 L 182.13,233.30 L 182.69,233.56 L 183.11,233.79 L 183.51,234.07 L 183.97,234.33 L 184.26,234.44 L 184.76,234.50 L 185.38,234.51 L 185.86,234.46 L 186.33,234.39 L 187.01,234.38 L 187.62,234.42 L 188.10,234.51 L 188.54,234.65 L 189.06,234.88 L 189.31,235.01 L 189.73,235.23 L 190.30,235.66 L 190.66,235.93 L 191.13,236.33 L 191.50,236.72 L 191.96,237.17 L 192.26,237.47 L 192.57,237.73 L 192.87,237.88 L 193.36,238.03 L 194.14,238.23 L 194.50,238.31 L 194.87,238.41 L 195.17,238.47 L 195.58,238.50 L 196.03,238.40 L 196.64,238.21 L 197.16,238.01 L 197.61,237.87 L 198.03,237.75 L 198.33,237.72 L 198.76,237.72 L 199.01,237.77 L 199.25,237.82 L 199.86,237.99 L 200.46,238.16 L 200.83,238.36 L 201.17,238.59 L 201.68,239.08 L 201.95,239.39 L 202.22,239.65 L 202.77,240.31 L 203.04,240.72 L 203.22,241.06 L 203.32,241.31 L 203.37,241.50 L 203.38,241.85 L 203.35,242.13 L 203.43,242.48 L 203.68,243.09 L 203.82,243.43 L 204.11,243.84 L 204.31,244.10 L 204.69,244.48 L 205.15,244.87 L 205.38,245.16 L 205.65,245.44 L 206.00,245.86 L 206.19,246.12 L 206.36,246.47 L 206.53,246.83 L 206.61,247.18 L 206.68,247.57 L 206.81,248.03 L 206.98,248.65 L 207.13,249.09 L 207.36,249.54 L 207.53,249.83 L 207.95,250.52 L 208.22,251.07 L 208.42,251.57 L 208.55,252.10 L 208.64,252.80 L 208.75,253.46 L 208.89,254.20 L 209.00,254.61 L 209.15,255.30 L 209.30,256.43 L 209.34,256.93 L 209.52,257.62 L 209.64,257.96 L 209.87,258.39 L 210.24,258.82 L 210.81,259.37 L 211.41,260.03 L 211.61,260.28 L 212.38,261.43 L 213.00,262.45 L 213.42,263.11 L 213.74,263.49 L 214.59,264.69 L 215.04,265.39 L 215.30,265.85 L 215.55,266.53 L 215.70,267.11 L 215.74,267.77 L 215.78,268.27 L 215.85,269.07 L 215.83,269.46 L 215.71,270.30 L 215.63,270.74 L 215.44,271.33 L 215.27,271.69 L 215.02,272.18 L 214.93,272.36 L 214.80,272.49 L 214.67,272.63 L 214.36,272.82 L 214.14,273.07 L 213.91,273.38 L 213.77,273.66 L 213.69,273.98 L 213.70,274.31 L 213.74,274.65 L 213.87,275.10 L 213.89,275.29 L 213.84,275.56 L 213.72,275.98 L 213.49,276.52 L 213.10,277.23 L 212.72,277.82 L 212.31,278.41 L 211.85,278.94 L 211.35,279.51 L 210.84,280.11 L 210.44,280.66 L 210.22,280.95 L 210.06,281.38 L 209.97,282.04 L 209.98,282.71 L 210.12,282.98 L 210.40,283.32 L 210.55,283.54 L 210.59,283.75 L 210.59,284.02 L 210.49,284.47 L 210.45,284.84 L 210.48,285.24 L 210.51,285.59 L 210.56,286.01 L 210.60,286.28 L 210.77,286.75 L 210.91,287.17 L 211.10,287.58 L 211.30,288.01 L 211.65,288.89 L 211.82,289.27 L 211.99,289.79 L 212.00,290.01 L 211.94,290.26 L 211.65,290.91 L 211.47,291.21 L 211.40,291.55 L 211.38,291.99 L 211.44,292.43 L 211.42,292.73 L 211.27,293.20 L 211.07,293.94 L 210.84,294.70 L 210.71,294.98 L 210.45,295.34 L 210.22,295.62 L 209.92,295.90 L 209.51,296.21 L 208.74,296.79 L 208.16,297.21 L 207.61,297.70 L 207.10,298.25 L 206.88,298.59 L 206.62,298.97 L 206.52,299.24 L 206.41,299.61 L 206.35,299.94 L 206.35,300.37 L 206.39,300.67 L 206.52,301.09 L 206.68,301.54 L 206.90,302.07 L 207.11,302.42 L 207.49,302.97 L 207.99,303.65 L 208.29,304.11 L 208.83,304.98 L 209.00,305.31 L 209.53,306.34 L 210.00,307.30 L 210.13,307.70 L 210.36,308.48 L 210.42,308.76 L 210.42,309.19 L 210.38,309.51 L 210.21,309.92 L 210.04,310.22 L 209.82,310.58 L 209.70,310.90 L 209.67,311.16 L 209.71,311.70 L 209.75,312.19 L 209.84,313.17 L 209.82,313.49 L 209.73,314.33 L 209.65,314.55 L 209.30,315.25 L 209.29,315.27 L 209.12,315.61 L 208.73,316.21 L 208.52,316.46 L 208.51,316.46 L 208.15,316.77 L 207.51,317.19 L 206.83,317.52 L 205.94,317.87 L 205.23,318.04 L 204.37,318.12 L 203.79,318.16 L 203.27,318.31 L 202.75,318.43 L 202.74,318.43 L 201.86,318.48 L 201.11,318.50 L 200.32,318.47 L 199.96,318.45 L 198.69,318.41 L 198.19,318.40 L 197.19,318.41 L 196.88,318.51 L 196.39,318.71 L 196.16,318.79 L 195.78,319.06 L 195.57,319.25 L 195.30,319.61 L 195.21,319.84 L 195.06,320.12 L 194.94,320.25 L 194.75,320.37 L 194.45,320.40 L 194.20,320.39 L 193.92,320.37 L 193.43,320.20 L 192.95,319.97 L 192.40,319.77 L 191.89,319.72 L 191.61,319.71 L 191.09,319.74 L 190.83,319.78 L 190.66,319.84 L 190.45,319.88 L 190.44,319.88 L 190.44,319.88 L 190.31,319.87 L 190.19,319.80 L 189.96,319.63 L 189.79,319.54 L 189.59,319.53 L 189.32,319.55 L 189.05,319.63 L 188.75,319.75 L 188.49,319.88 L 188.14,320.10 L 187.96,320.29 L 187.75,320.72 L 187.63,320.98 L 187.45,321.35 L 187.32,321.69 L 187.27,322.03 L 187.21,322.37 L 187.24,322.64 L 187.28,322.82 L 187.36,323.05 L 187.38,323.21 L 187.38,323.32 L 187.25,323.46 L 186.93,323.70 L 186.31,324.03 L 186.01,324.17 L 185.67,324.24 L 185.24,324.33 L 184.25,324.51 L 183.41,324.69 L 182.96,324.81 L 182.67,324.92 L 182.19,325.21 L 181.48,325.76 L 180.89,326.18 L 180.68,326.28 L 180.42,326.30 L 180.07,326.16 L 179.83,326.09 L 179.42,326.11 L 179.14,326.18 L 178.78,326.38 L 178.60,326.55 L 178.45,326.61 L 178.37,326.62 L 177.92,326.69 L 177.59,326.76 L 177.28,326.78 L 176.90,326.70 L 176.52,326.62 L 176.20,326.61 L 175.72,326.70 L 175.21,326.70 L 174.71,326.71 L 174.38,326.68 L 174.20,326.66 L 173.81,326.61 L 173.38,326.52 L 172.64,326.21 L 171.92,326.07 L 171.37,325.90 L 171.04,325.80 L 170.53,325.67 L 170.00,325.50 L 169.75,325.38 L 169.63,325.28 L 169.39,324.97 L 169.15,324.44 L 169.00,324.24 L 168.68,324.01 L 168.09,323.75 L 167.12,323.43 L 166.31,323.17 L 165.57,322.99 L 164.77,322.88 L 164.39,322.82 L 163.07,322.50 L 162.59,322.38 L 161.48,322.04 L 160.94,321.91 L 159.82,321.63 L 159.07,321.46 L 158.17,321.33 L 157.75,321.32 L 157.29,321.42 L 156.97,321.53 L 156.56,321.69 L 156.28,321.74 L 155.69,321.67 L 155.38,321.65 L 155.01,321.70 L 154.63,321.80 L 154.18,321.96 L 153.68,322.19 L 153.27,322.42 L 152.72,322.69 L 152.29,322.94 L 151.99,323.18 L 151.52,323.54 L 151.16,323.96 L 150.96,324.22 L 150.83,324.43 L 150.61,324.91 L 150.50,325.30 L 150.42,325.70 L 150.46,326.05 L 150.66,326.49 L 150.85,326.91 L 150.99,327.26 L 151.32,327.84 L 151.75,328.56 L 152.09,329.06 L 152.69,329.76 L 153.01,330.11 L 153.80,330.92 L 154.14,331.29 L 154.90,332.18 L 155.33,332.55 L 155.92,333.05 L 156.37,333.47 L 156.73,333.70 L 157.72,334.17 L 158.03,334.23 L 158.40,334.37 L 159.29,334.99 L 159.74,335.38 L 160.63,336.18 L 160.94,336.42 L 161.80,336.98 L 162.23,337.25 L 162.53,337.49 L 163.23,338.14 L 163.33,338.26 L 163.33,338.26 L 163.61,338.59 L 164.10,339.42 L 164.24,339.75 L 164.46,340.33 L 164.60,340.78 L 164.75,341.49 L 164.79,341.88 L 164.87,342.70 L 164.91,343.32 L 164.83,344.17 L 164.78,344.52 L 164.57,345.59 L 164.48,346.12 L 164.47,346.38 L 164.53,346.75 L 164.65,347.14 L 164.81,347.56 L 164.86,347.84 L 164.84,348.06 L 164.77,348.20 L 164.48,348.47 L 164.08,348.70 L 163.85,348.92 L 163.20,349.66 L 162.81,350.03 L 161.95,350.69 L 161.36,351.12 L 160.33,351.78 L 159.84,352.08 L 159.26,352.43 L 158.00,352.97 L 157.34,353.29 L 156.89,353.56 L 156.89,353.56 L 156.86,353.59 L 156.86,353.59 L 156.37,353.88 L 155.34,354.42 L 154.27,354.91 L 153.99,355.07 L 153.83,355.19 L 153.68,355.38 L 153.46,355.95 L 153.32,356.56 L 153.15,357.51 L 153.05,358.00 L 152.88,358.92 L 152.86,359.30 L 152.68,360.29 L 152.43,361.42 L 152.18,362.40 L 152.12,362.71 L 152.01,363.58 L 152.19,364.20 L 152.34,365.50 L 152.28,366.77 L 152.16,367.97 L 151.83,369.25 L 150.95,370.61 L 149.73,371.84 L 148.52,372.94 L 147.57,374.14 L 146.93,375.41 L 146.48,376.64 L 146.26,377.70 L 145.84,378.77 L 145.42,379.35 L 144.47,379.93 L 142.54,380.49 L 140.60,380.74 L 139.42,380.72 L 138.39,380.48 L 136.73,379.85 L 135.82,379.34 L 134.34,378.56 L 133.57,378.26 L 132.49,378.07 L 131.60,378.14 L 130.68,378.55 L 129.31,379.58 L 128.06,380.64 L 127.51,381.27 L 126.96,381.90 L 126.96,381.90 L 125.86,383.15 L 124.76,384.41 L 124.39,385.08 L 123.62,385.79 L 122.09,386.63 L 120.36,387.92 L 118.72,389.02 L 117.10,390.15 L 115.80,391.21 L 114.47,392.50 L 113.71,393.22 L 112.44,394.09 L 111.89,394.61 L 111.58,395.40 L 111.46,396.80 L 111.18,397.43 L 110.49,398.37 L 109.45,398.76 L 108.33,398.82 L 107.59,398.59 L 106.89,398.18 L 106.59,398.00 L 105.82,397.41 L 104.48,396.50 L 102.44,395.13 L 101.58,394.60 L 100.19,393.93 L 99.29,393.34 L 98.50,392.72 L 98.16,392.28 L 97.72,391.40 L 97.12,390.31 L 96.62,389.64 L 96.15,389.27 L 94.41,388.53 L 93.51,388.12 L 92.25,387.48 L 90.60,386.73 L 89.66,386.21 L 88.70,385.52 L 87.66,384.50 L 86.68,383.43 L 85.85,382.42 L 84.94,381.22 L 84.00,380.04 L 83.15,378.86 L 82.35,377.64 L 81.44,376.51 L 80.54,375.39 L 80.16,374.94 L 79.34,374.24 L 78.48,373.70 L 77.20,373.02 L 76.44,372.73 L 75.11,372.47 L 74.16,372.34 L 72.84,372.31 L 71.92,372.33 L 71.14,372.47 L 70.33,372.81 L 69.09,373.33 L 68.35,373.83 L 67.29,374.79 L 66.44,375.57 L 65.92,376.30 L 65.47,377.56 L 65.13,379.03 L 64.91,380.57 L 64.79,381.87 L 64.74,383.31 L 64.68,384.74 L 64.72,386.13 L 64.88,387.57 L 65.14,388.97 L 65.39,390.35 L 65.64,391.73 L 65.83,393.04 L 65.87,394.29 L 65.76,395.60 L 65.58,396.89 L 65.23,398.18 L 64.74,399.50 L 64.20,400.78 L 63.43,401.65 L 62.66,402.28 L 61.68,402.60 L 60.50,402.89 L 59.45,402.99 L 58.53,402.82 L 57.81,402.72 L 56.36,402.63 L 55.52,402.51 L 54.11,402.35 L 53.25,402.24 L 52.35,402.21 L 51.62,402.31 L 50.38,402.68 L 49.65,402.67 L 48.61,402.61 L 48.17,402.55 L 47.74,402.47 L 46.68,402.99 L 45.80,403.55 L 44.89,404.03 L 44.57,404.15 L 44.42,404.15 L 44.31,404.12 L 43.54,403.78 L 43.16,403.63 L 42.79,403.57 L 42.13,403.57 L 41.92,403.58 L 41.56,403.63 L 41.06,403.81 L 40.64,404.00 L 40.50,404.10 L 40.15,404.49 L 39.94,404.78 L 39.66,405.19 L 39.46,405.51 L 39.31,405.76 L 39.13,406.16 L 38.99,406.40 L 38.85,406.58 L 38.72,406.69 L 38.58,406.79 L 38.44,406.86 L 37.84,407.00 L 37.71,407.07 L 37.60,407.16 L 37.46,407.31 L 37.14,407.67 L 36.95,407.82 L 36.59,408.04 L 36.40,408.11 L 36.26,408.15 L 35.11,408.15 L 34.84,408.26 L 34.78,408.26 L 34.69,408.22 L 34.22,407.91 L 34.05,407.87 L 33.68,407.86 L 33.52,407.88 L 33.05,408.01 L 31.85,408.44 L 31.57,408.48 L 30.49,408.51 L 29.65,408.44 L 29.05,408.43 L 28.85,408.45 L 28.10,408.58 L 27.71,408.64 L 27.34,408.74 L 26.74,408.91 L 26.49,408.93 L 25.28,408.81 L 24.92,409.06 L 24.40,409.48 L 24.08,409.79 L 23.73,410.26 L 23.40,410.82 L 23.24,411.46 L 23.06,412.13 L 22.89,412.53 L 22.70,412.76 L 22.02,413.37 L 21.73,413.63 L 21.69,413.70 L 21.62,414.04 L 21.61,414.21 L 21.60,414.34 L 21.57,415.04 L 21.48,416.06 L 21.32,416.54 L 21.09,416.82 L 20.82,417.04 L 20.43,417.30 L 20.17,417.57 L 20.01,418.38 L 19.97,419.65 L 19.90,420.18 L 19.68,420.73 L 19.46,421.09 L 19.02,421.59 L 18.27,422.30 L 17.89,422.75 L 17.56,423.16 L 17.50,423.57 L 17.57,423.95 L 17.63,424.64 L 17.58,425.29 L 17.58,425.55 L 17.64,425.74 L 17.77,425.96 L 17.89,426.09 L 18.00,426.21 L 18.13,426.41 L 18.33,426.92 L 18.46,427.19 L 18.63,427.32 L 18.85,427.41 L 19.19,427.48 L 19.57,427.64 L 19.75,427.83 L 19.82,427.95 L 19.90,428.14 L 20.01,428.90 L 20.21,429.71 L 20.17,429.98 L 20.07,430.18 L 19.72,430.60 L 19.47,430.91 L 19.30,431.16 L 19.19,431.33 L 19.10,431.70 L 19.10,431.94 L 19.14,432.10 L 19.21,432.23 L 19.52,432.58 L 20.02,433.17 L 19.82,433.35 L 19.58,433.52 L 19.41,433.63 L 19.30,433.66 L 17.89,433.75 L 16.56,433.95 L 16.24,433.98 L 16.02,434.00 L 15.37,434.47 L 14.16,435.77 L 13.31,436.50 L 12.65,437.14 L 12.17,437.74 L 11.69,438.72 L 11.49,439.23 L 11.46,440.75 L 11.26,441.59 L 11.14,443.36 L 11.12,443.99 L 11.15,444.45 L 11.32,445.15 L 11.67,446.50 L 12.05,448.36 L 12.31,450.03 L 12.53,451.90 L 12.59,453.58 L 12.61,454.97 L 12.51,456.32 L 12.55,457.51 L 12.51,458.84 L 12.51,459.81 L 12.52,460.14 L 12.61,460.46 L 12.88,461.15 L 13.07,461.42 L 13.20,461.66 L 13.22,461.73 L 13.18,462.29 L 13.03,463.11 L 13.02,463.43 L 13.05,463.50 L 13.14,463.57 L 13.41,463.74 L 13.54,463.85 L 13.59,463.99 L 13.64,464.18 L 13.84,464.37 L 13.92,464.48 L 13.98,464.62 L 14.00,464.78 L 14.04,465.25 L 14.14,465.58 L 14.28,465.78 L 14.72,466.19 L 15.12,466.59 L 15.22,466.78 L 15.22,466.81 L 15.06,467.25 L 14.98,467.40 L 14.93,467.62 L 14.93,467.92 L 14.94,468.07 L 14.88,468.14 L 14.72,468.36 L 14.62,469.35 L 14.26,471.32 L 14.05,472.48 L 13.91,473.44 L 13.79,474.14 L 13.40,475.22 L 12.53,477.68 L 11.72,480.05 L 11.14,481.67 L 10.70,483.08 L 10.37,484.80 L 10.02,486.74 L 10.00,488.33 L 10.08,489.42 L 10.44,491.90 L 10.69,494.03 L 10.92,495.67 L 11.07,497.36 L 12.84,497.97 L 14.34,498.58 L 15.91,499.29 L 17.68,500.16 L 18.93,500.79 L 19.48,501.09 L 19.68,501.24 L 19.95,501.57 L 20.71,502.48 L 21.34,503.49 L 21.76,504.55 L 22.09,506.01 L 22.31,506.89 L 22.52,507.43 L 22.63,507.61 L 23.03,508.04 L 23.82,508.71 L 24.55,509.16 L 25.97,509.98 L 27.67,510.90 L 29.04,511.61 L 29.90,512.07 L 30.30,512.18 L 30.72,512.21 L 32.06,512.08 L 32.66,511.92 L 32.70,511.92 L 32.74,511.92 L 32.84,512.00 L 33.11,512.40 L 33.66,513.47 L 33.86,513.87 L 34.25,514.74 L 34.39,514.95 L 34.67,515.38 L 35.56,516.25 L 36.38,517.13 L 37.23,518.43 L 37.75,519.75 L 38.17,521.03 L 38.54,522.17 L 38.85,522.70 L 38.95,522.81 L 39.23,523.02 L 39.82,523.40 L 41.29,524.21 L 42.91,525.02 L 44.19,525.58 L 45.83,525.94 L 46.63,526.24 L 46.91,526.35 L 47.04,526.45 L 47.31,526.68 L 48.18,527.78 L 48.56,528.49 L 49.31,529.59 L 50.39,531.11 L 54.63,532.77 L 57.04,532.93 L 61.45,534.58 L 62.75,535.35 L 63.44,536.14 L 63.99,537.37 L 64.53,538.60 L 64.80,541.31 L 63.37,542.65 L 63.67,546.76 L 63.85,548.42 L 66.63,548.70 L 70.57,549.90 L 74.55,551.23 L 79.75,552.66 L 80.55,553.10 L 82.37,554.15 L 82.74,554.26 L 86.94,555.46 L 86.96,556.09 L 86.80,558.25 L 86.39,562.92 L 85.47,564.17 L 82.77,568.35 L 81.47,572.11 L 81.94,572.52 L 83.09,574.06 L 83.97,575.25 L 84.78,576.64 L 85.48,577.56 L 86.20,578.12 L 88.14,578.73 L 90.04,579.52 L 91.99,580.41 L 93.87,581.35 L 96.09,582.29 L 97.93,583.38 L 98.73,582.04 L 99.65,580.44 L 100.59,579.04 L 101.14,578.42 L 102.11,577.61 L 102.74,577.05 L 104.04,575.92 L 104.47,575.45 L 105.22,574.50 L 105.61,574.34 L 106.66,574.05 L 108.20,573.73 L 110.25,573.52 L 111.79,573.27 L 112.84,572.34 L 113.08,572.11 L 114.68,570.86 L 115.29,570.36 L 117.46,568.61 L 117.74,568.94 L 118.46,570.14 L 119.71,572.09 L 120.41,573.12 L 120.91,573.75 L 120.74,574.82 L 120.36,576.63 L 120.18,578.30 L 120.32,578.42 L 122.13,579.37 L 124.24,580.45 L 125.85,581.51 L 126.69,580.86 L 127.52,580.17 L 129.00,579.06 L 130.99,577.86 L 132.89,577.71 L 134.78,577.51 L 137.22,577.56 L 138.95,577.66 L 140.90,577.13 L 143.99,577.16 L 145.88,577.29 L 146.64,576.59 L 147.13,575.20 L 147.59,573.62 L 149.11,573.78 L 149.12,573.79 L 150.23,574.40 L 150.37,574.51 L 151.99,575.61 L 153.98,576.76 L 155.12,577.36 L 156.01,577.89 L 156.90,578.41 L 157.79,578.93 L 158.33,579.31 L 159.98,580.20 L 160.91,580.71 L 162.48,581.49 L 163.49,581.91 L 163.94,582.81 L 164.82,584.39 L 165.83,585.66 L 167.25,586.87 L 168.13,587.48 L 168.78,588.07 L 170.65,589.28 L 172.05,589.82 L 173.39,590.00 L 175.38,589.94 L 177.43,589.74 L 179.21,588.03 L 180.05,586.79 L 181.10,585.67 L 182.13,585.05 L 183.61,584.50 L 184.57,584.47 L 186.93,584.73 L 189.07,585.52 L 191.01,584.93 L 192.23,584.36 L 193.34,584.08 L 195.52,583.47 L 197.72,583.00 L 198.18,582.26 L 198.88,580.55 L 199.14,579.18 L 200.10,577.91 L 201.57,576.23 L 203.10,574.63 L 201.98,572.10 L 201.38,571.17 L 199.94,569.38 L 200.43,568.87 L 200.28,568.16 L 200.30,567.57 L 200.68,566.82 L 201.17,565.82 L 201.32,565.25 L 201.17,564.74 L 200.86,564.25 L 200.06,563.13 L 199.97,563.00 L 198.88,561.85 L 198.89,560.04 L 199.19,558.41 L 199.39,557.16 L 199.49,556.26 L 200.07,554.77 L 200.09,553.87 L 200.06,553.47 L 200.02,553.06 L 199.21,550.60 L 198.87,549.42 L 198.84,548.83 L 199.04,548.61 L 200.26,548.22 L 200.58,548.00 L 200.63,547.77 L 201.06,545.82 L 201.21,545.58 L 201.83,545.30 L 202.63,545.04 L 203.52,544.33 L 204.22,543.30 L 204.60,541.77 L 205.78,537.47 L 206.83,534.05 L 208.21,530.68 L 208.90,528.89 L 210.61,524.91 L 211.47,522.81 L 213.05,518.86 L 213.08,518.52 L 212.92,517.75 L 212.79,517.07 L 212.67,516.64 L 212.26,516.43 L 211.40,515.78 L 210.78,515.09 L 210.38,514.36 L 210.14,513.61 L 210.29,512.97 L 210.87,511.59 L 211.86,509.39 L 209.55,506.78 L 208.20,506.71 L 206.21,506.43 L 204.32,505.93 L 203.21,505.06 L 201.53,503.98 L 199.77,502.92 L 198.47,501.81 L 198.08,501.17 L 197.58,500.25 L 197.17,499.18 L 196.80,497.34 L 196.11,494.56 L 195.07,489.82 L 195.49,488.80 L 195.01,487.99 L 194.74,485.58 L 194.72,482.85 L 195.00,481.13 L 195.03,481.13 L 196.99,480.42 L 200.98,478.52 L 198.94,474.72 L 199.63,472.54 L 202.18,466.06 L 204.13,461.04 L 205.20,458.31 L 206.51,455.42 L 208.02,452.04 L 206.15,449.15 L 202.63,443.76 L 200.66,440.76 L 198.44,437.30 L 202.57,437.68 L 204.81,437.35 L 207.13,438.88 L 212.00,441.95 L 214.19,441.90 L 215.27,440.97 L 217.31,439.06 L 217.39,438.39 L 217.53,436.65 L 217.62,435.15 L 218.92,434.02 L 219.51,433.08 L 220.41,431.09 L 221.69,430.05 L 223.26,429.03 L 225.83,425.95 L 227.97,423.78 L 231.40,422.13 L 234.95,419.99 L 239.16,422.43 L 242.99,422.70 L 244.91,423.78 L 248.00,425.21 L 249.52,423.56 L 251.02,423.55 L 255.43,423.51 L 257.27,420.70 L 257.18,419.48 L 257.07,418.17 L 258.88,417.40 L 259.87,417.27 L 261.07,417.06 L 262.20,416.93 L 262.83,416.86 L 263.19,416.50 L 263.98,415.66 L 264.41,415.14 L 264.89,414.64 L 265.52,414.02 L 266.32,413.34 L 266.94,412.67 L 267.68,412.21 L 268.68,411.89 L 270.56,411.62 L 270.69,410.85 L 270.95,409.30 L 271.47,406.72 L 272.60,406.77 L 275.59,407.10 L 275.71,406.27 L 276.05,404.07 L 276.29,402.63 L 276.44,401.89 L 277.05,400.69 L 278.36,400.93 L 280.48,401.45 L 282.15,402.35 L 284.52,403.65 L 286.84,404.85 L 289.04,406.05 L 289.77,406.47 L 290.84,407.05 L 291.36,406.91 L 292.48,406.38 L 294.42,405.52 L 295.97,405.20 L 298.28,404.69 L 300.59,404.20 L 300.72,404.06 L 302.48,402.77 L 304.08,401.64 L 305.33,400.71 L 305.47,400.39 L 305.71,399.42 L 305.96,398.40 L 306.46,396.50 L 306.78,395.21 L 307.05,393.04 L 307.19,391.82 L 307.49,389.44 L 307.76,388.21 L 308.18,385.90 L 308.56,384.19 L 308.79,382.87 L 309.06,381.52 L 309.22,380.60 L 309.40,379.90 L 308.94,379.26 L 308.45,378.55 L 308.00,377.96 L 307.81,377.83 L 307.39,377.19 L 306.87,376.39 L 306.68,376.06 L 305.82,374.78 L 305.18,373.76 L 305.02,373.46 L 304.63,372.88 L 304.31,372.30 L 303.66,371.26 L 303.04,370.27 L 302.33,369.16 L 301.61,368.30 L 300.98,367.31 L 300.88,367.17 L 300.60,366.78 L 300.57,366.61 L 300.80,365.78 L 300.89,365.09 L 300.74,364.46 L 300.51,363.60 L 299.88,361.50 L 299.30,359.52 L 298.99,358.39 L 298.59,357.18 L 298.45,356.58 L 298.31,356.03 L 298.05,355.08 L 297.71,354.16 L 297.65,353.86 L 297.50,353.14 L 299.22,353.21 L 298.74,351.10 L 298.37,349.63 L 297.27,348.79 L 296.78,347.65 L 296.33,346.48 L 295.63,345.58 L 294.63,344.18 L 294.43,343.68 L 294.25,343.01 L 293.70,341.08 L 294.79,340.15 L 295.40,339.67 L 295.72,338.94 L 296.13,337.53 L 296.35,336.62 L 296.45,336.25 L 296.80,335.10 L 296.48,334.28 L 295.86,332.67 L 295.65,331.52 L 295.58,330.79 L 296.06,328.90 L 293.77,328.77 L 291.03,328.77 L 289.12,328.83 L 288.31,329.58 L 287.36,328.57 L 286.43,327.43 L 285.35,326.20 L 283.72,324.37 L 282.12,322.32 L 280.87,320.71 L 280.28,319.10 L 281.24,317.31 L 281.14,316.17 L 281.14,314.63 L 281.08,312.50 L 281.07,312.02 L 283.09,312.18 L 285.04,312.47 L 286.53,312.77 L 289.31,313.41 L 290.55,313.63 L 293.37,314.29 L 296.34,314.93 L 297.55,313.73 L 299.24,311.69 L 300.17,310.71 L 299.61,310.20 L 299.42,308.02 L 299.45,307.49 L 301.44,307.12 L 303.69,306.61 L 304.79,306.30 L 304.65,305.31 L 305.25,303.49 L 304.85,302.39 L 304.04,300.87 L 303.27,299.62 L 302.46,298.17 L 302.46,298.17 L 302.74,297.18 L 303.37,295.70 L 303.69,294.69 L 304.89,293.41 L 305.12,291.51 L 305.29,288.65 L 305.54,285.83 L 305.59,284.54 L 305.73,282.27 L 306.12,279.86 L 306.26,278.58 L 305.63,277.13 L 305.47,276.19 L 305.91,275.70 L 306.26,275.33 L 306.35,274.82 L 305.24,274.16 L 303.94,272.95 L 302.77,271.80 L 301.36,270.52 L 299.66,268.87 L 299.26,268.43 L 298.78,267.90 L 298.13,266.86 L 297.31,265.61 L 296.62,264.50 L 296.06,262.63 L 295.53,260.60 L 295.39,259.65 L 295.20,257.85 L 295.23,256.05 L 295.20,254.18 L 295.22,251.86 L 295.22,249.93 L 295.17,248.51 L 295.17,247.38 L 295.19,246.26 L 295.11,245.50 L 294.64,244.35 L 293.80,242.46 L 293.75,242.35 L 293.64,242.29 L 293.06,242.04 L 291.16,241.50 L 290.74,241.31 L 290.62,241.25 L 290.51,241.14 L 289.97,240.57 L 288.95,239.16 L 288.55,238.81 L 288.44,238.70 L 288.32,238.68 L 286.35,238.39 L 285.88,238.27 L 285.76,238.24 L 285.74,238.13 L 285.46,237.07 L 284.90,234.93 L 284.24,232.75 L 284.20,232.64 L 284.08,232.63 L 282.81,232.51 L 280.51,232.24 L 277.68,231.90 L 277.56,231.89 L 277.58,231.78 L 277.78,230.49 L 278.04,229.08 L 276.92,228.24 L 275.90,227.37 L 275.78,227.27 L 275.66,227.25 L 273.74,226.93 L 272.18,226.66 L 270.56,226.45 L 271.41,224.38 L 272.22,222.22 L 273.18,219.75 L 274.04,218.88 L 275.69,217.74 L 276.45,217.32 L 277.59,215.07 L 278.63,212.85 L 279.90,210.31 L 280.64,207.71 L 281.29,205.24 L 281.85,203.63 L 284.41,204.54 L 287.47,205.64 L 290.21,206.83 L 291.57,207.29 L 294.22,207.24 L 297.94,207.37 L 301.86,207.33 L 303.39,205.86 L 304.55,204.64 L 306.37,204.84 L 308.20,204.88 L 311.57,204.77 L 312.02,204.18 L 312.93,203.06 L 313.14,201.70 L 313.58,199.43 L 314.25,196.99 L 314.83,195.14 L 315.62,194.73 L 316.30,193.93 L 317.27,192.70 L 318.40,191.97 L 320.10,190.99 L 321.59,190.68 L 324.42,190.33 L 326.83,189.82 L 329.20,189.36 L 329.83,189.43 L 330.69,189.09 L 333.12,188.12 L 335.37,187.17 L 336.06,186.87 L 337.69,186.26 L 337.69,186.21 L 337.69,186.21 L 337.99,184.40 L 336.90,183.40 L 336.48,182.14 L 335.83,180.40 L 335.13,178.41 L 334.48,177.16 L 334.83,175.90 L 334.92,174.82 L 335.89,173.86 L 337.45,172.47 L 336.77,171.74 L 336.19,170.64 L 335.75,169.51 L 335.88,168.62 L 335.94,168.21 L 336.10,167.48 L 336.98,166.40 L 337.75,165.85 L 338.94,165.52 L 340.49,165.57 L 342.82,165.63 L 343.40,164.35 L 344.56,161.18 L 345.53,158.93 L 346.51,156.60 L 347.24,155.08 L 348.04,153.93 L 348.62,152.19 L 349.45,147.30 L 349.84,144.61 L 350.13,143.01 L 350.38,142.18 L 350.86,140.65 L 351.18,139.67 L 352.96,137.49 L 353.75,136.38 L 354.22,135.28 L 354.24,135.24 L 354.62,134.49 L 354.80,134.11 L 354.83,133.82 L 354.94,132.64 L 355.30,131.23 L 355.58,130.04 L 355.65,129.55 L 355.55,128.49 L 355.55,128.49 L 355.43,127.80 L 355.09,126.26 L 354.18,124.07 L 354.10,123.25 L 354.06,122.81 L 354.06,122.81 L 354.06,122.80 L 353.76,121.80 L 353.69,121.60 L 353.58,121.39 L 352.46,119.31 L 352.11,118.40 L 352.10,118.34 L 351.99,117.96 L 351.70,116.63 L 351.14,114.25 L 351.01,113.20 L 351.01,113.17 L 351.01,113.13 L 350.97,112.87 L 350.83,111.49 L 350.13,110.16 L 349.62,109.37 L 349.31,109.09 L 348.67,108.72 L 347.77,108.38 L 347.38,108.29 L 346.54,108.25 L 346.23,108.16 L 345.39,107.73 L 344.73,107.03 L 343.59,105.63 L 343.58,105.61 L 342.73,104.95 L 342.17,104.67 L 341.63,104.40 L 341.23,104.20 L 340.65,103.91 L 340.11,103.54 L 339.84,103.33 L 339.07,102.75 L 338.36,102.57 L 337.27,102.48 L 336.65,102.32 L 336.42,102.28 L 336.41,102.28 L 335.98,102.20 L 335.42,102.11 L 334.26,102.05 L 332.54,101.96 L 331.33,101.86 L 330.09,101.73 L 330.45,98.43 L 330.73,95.39 L 330.79,94.82 L 330.89,93.70 L 331.16,91.69 L 331.48,90.36 L 331.74,88.70 L 332.38,85.90 L 332.46,83.40 L 332.46,83.40 L 332.46,83.39 L 332.36,82.70 L 332.08,82.27 L 331.24,82.01 L 328.35,81.12 L 325.99,80.36 L 322.68,79.49 L 321.08,79.12 L 318.65,78.73 L 314.85,78.40 L 313.03,78.28 L 311.34,78.54 L 309.42,79.07 L 308.02,79.41 L 305.75,80.08 L 304.92,80.27 L 303.84,80.31 L 302.93,80.19 L 301.50,79.71 L 299.17,78.58 L 297.52,77.76 L 296.12,76.59 L 294.25,75.58 L 293.25,75.07 L 291.90,74.66 L 290.88,74.39 L 290.35,74.08 L 290.22,74.00 L 290.09,73.92 L 289.73,71.34 L 289.71,71.03 L 289.62,69.46 L 289.62,69.46 L 289.62,69.46 L 289.62,69.43 L 289.57,68.55 L 289.46,66.68 L 289.59,66.56 L 290.67,65.75 L 291.96,64.82 L 293.33,63.64 L 294.53,62.87 L 294.94,62.42 L 296.44,59.94 L 297.81,57.64 L 299.08,55.24 L 299.90,53.64 L 300.67,51.37 L 300.74,50.59 L 300.67,48.88 L 300.95,47.66 L 301.53,45.70 L 301.53,45.70 L 302.78,42.35 L 303.31,41.42 L 303.54,40.47 L 304.01,38.48 L 304.24,36.78 L 304.72,34.61 L 304.72,34.61 L 304.72,34.60 L 304.40,34.11 L 304.73,32.20 L 305.05,30.28 L 305.48,28.54 L 306.07,26.29 L 306.22,25.77 L 306.79,24.39 L 307.00,23.67 L 307.09,22.71 L 307.09,21.90 L 307.66,20.14 L 307.57,18.61 L 307.57,18.57 L 307.57,18.57 L 305.31,19.18 L 302.52,20.25 L 300.51,21.08 L 297.24,22.37 L 294.63,23.20 L 292.92,23.75 L 291.59,24.14 L 290.28,24.65 L 289.43,24.92 L 288.51,25.50 L 288.24,25.74 L 287.84,26.10 L 287.70,26.22 L 287.60,26.34 L 287.14,26.85 L 287.03,26.97 L 286.57,27.46 L 286.23,28.31 L 286.06,29.40 L 286.05,29.43 L 285.98,29.98 L 285.90,30.51 L 285.72,31.31 L 285.42,32.84 L 285.33,33.77 L 285.26,34.60 L 285.24,35.58 L 285.15,36.95 L 285.17,37.83 L 285.13,38.53 L 285.16,39.82 L 285.05,41.32 L 284.94,42.38 L 284.85,43.46 L 284.80,44.06 L 284.56,44.88 L 284.42,45.51 L 284.17,46.06 L 283.65,47.04 L 282.95,48.27 L 282.57,48.84 L 281.80,50.12 L 281.24,50.90 L 280.30,52.21 L 279.94,52.55 L 279.11,53.22 L 278.10,53.97 L 277.27,54.47 L 275.00,55.78 L 273.78,56.33 L 272.59,56.77 L 270.86,57.30 L 267.23,58.07 L 266.31,58.24 L 264.66,58.46 L 263.49,58.57 L 263.04,58.66 L 262.01,58.63 L 260.53,58.43 L 258.86,58.02 L 258.33,57.59 L 257.43,56.81 L 257.00,56.28 L 256.20,55.23 L 255.66,54.39 L 255.37,53.92 L 254.85,52.92 L 254.24,51.91 L 253.81,50.96 L 253.29,49.69 L 252.61,47.36 L 252.44,46.32 L 252.30,44.96 L 252.62,43.92 L 253.09,42.79 L 253.80,41.60 L 254.39,40.84 L 254.63,40.30 L 255.15,39.61 L 255.68,39.16 L 256.85,37.94 L 258.87,36.07 L 259.48,35.77 L 261.16,34.57 L 261.95,33.91 L 262.97,32.94 L 264.02,31.72 L 264.51,31.13 L 265.36,29.92 L 265.75,28.97 L 265.99,27.83 L 266.11,26.98 L 266.22,25.26 L 266.06,23.71 L 265.98,22.48 L 265.85,21.53 L 265.68,19.98 L 265.43,18.36 L 265.25,17.26 L 265.09,16.38 L 264.70,15.14 L 264.39,14.16 L 263.53,12.54 L 263.08,11.71 L 262.33,10.96 L 261.59,10.47 L 260.48,10.04 L 258.86,10.00 Z" fill="#1d3672" stroke="#333" stroke-width="1"/>
</svg>