<svg xmlns="http://www.w3.org/2000/svg" width="800" height="600" viewBox="0 0 800 600">
<path d="M 277.82,10.02 L 277.80,10.00 L 277.72,10.14 L 277.46,10.51 L 277.40,10.58 L 277.32,10.69 L 277.24,10.82 L 277.11,10.98 L 276.95,11.12 L 276.75,11.28 L 276.39,11.53 L 276.25,11.61 L 276.14,11.68 L 275.74,11.90 L 275.56,12.02 L 275.34,12.16 L 275.23,12.26 L 275.20,12.30 L 275.17,12.36 L 275.08,12.45 L 274.89,12.63 L 274.69,12.83 L 274.49,13.04 L 274.22,13.37 L 274.02,13.62 L 273.87,13.84 L 273.64,14.14 L 273.47,14.34 L 273.29,14.52 L 273.09,14.70 L 272.88,14.83 L 272.80,14.88 L 272.63,14.98 L 272.49,15.06 L 272.37,15.10 L 272.22,15.16 L 272.14,15.21 L 272.02,15.26 L 271.81,15.33 L 271.62,15.40 L 271.50,15.45 L 271.49,15.47 L 271.44,15.53 L 271.37,15.62 L 271.27,15.72 L 271.17,15.80 L 270.67,16.47 L 269.63,17.75 L 269.32,18.16 L 269.12,18.75 L 268.77,19.82 L 268.25,21.33 L 267.91,22.40 L 267.72,22.98 L 267.38,23.99 L 267.03,25.09 L 266.68,26.14 L 266.52,26.64 L 266.34,27.21 L 266.16,27.77 L 265.92,28.43 L 265.66,29.30 L 265.31,30.37 L 264.98,31.37 L 264.60,32.49 L 264.29,33.44 L 264.14,33.92 L 264.04,34.29 L 264.02,34.30 L 263.82,34.32 L 263.79,34.45 L 263.77,34.45 L 263.48,34.49 L 263.27,34.53 L 262.97,34.56 L 262.59,34.59 L 262.21,34.61 L 261.92,34.61 L 261.75,34.67 L 261.58,34.72 L 261.39,34.79 L 261.20,34.90 L 260.98,35.05 L 260.75,35.19 L 260.55,35.33 L 260.47,35.37 L 260.30,35.48 L 259.98,35.64 L 259.70,35.77 L 259.47,35.87 L 259.16,35.95 L 258.87,35.99 L 258.51,36.08 L 258.15,36.20 L 257.84,36.29 L 257.41,36.42 L 257.01,36.51 L 256.65,36.58 L 256.17,36.73 L 256.06,36.79 L 255.90,36.97 L 255.78,37.13 L 255.67,37.32 L 255.54,37.43 L 255.37,37.56 L 255.24,37.63 L 255.12,37.71 L 254.98,37.78 L 254.87,37.89 L 254.41,38.20 L 253.94,38.50 L 253.46,38.82 L 252.99,39.14 L 252.50,39.45 L 252.02,39.79 L 251.56,40.08 L 251.09,40.39 L 250.60,40.71 L 250.10,41.04 L 249.61,41.36 L 249.16,41.66 L 248.61,42.01 L 248.15,42.30 L 247.56,42.72 L 247.34,42.85 L 247.30,42.88 L 247.00,43.06 L 246.49,43.01 L 245.26,42.94 L 244.01,42.89 L 243.59,42.85 L 243.37,42.83 L 243.19,42.81 L 243.24,41.93 L 243.30,41.31 L 243.33,40.77 L 243.39,40.22 L 243.43,39.71 L 243.45,39.38 L 243.21,39.29 L 242.72,39.18 L 242.08,39.01 L 241.54,38.88 L 241.49,38.85 L 241.48,38.78 L 241.57,38.43 L 241.74,37.91 L 241.86,37.45 L 241.09,37.04 L 240.30,36.60 L 239.74,36.31 L 239.25,36.07 L 239.00,35.94 L 239.19,35.62 L 239.49,35.16 L 239.61,34.98 L 239.85,34.60 L 239.91,34.50 L 240.16,34.25 L 239.91,34.20 L 239.62,34.17 L 239.10,34.10 L 238.82,34.07 L 238.51,34.02 L 238.34,34.00 L 238.19,33.96 L 237.95,33.87 L 238.00,33.79 L 238.04,33.71 L 238.24,33.36 L 238.55,32.85 L 238.74,32.49 L 239.05,32.00 L 239.11,31.88 L 239.17,31.79 L 239.42,31.36 L 239.64,30.99 L 239.71,30.88 L 239.73,30.83 L 239.72,30.80 L 239.69,30.78 L 239.63,30.75 L 239.55,30.71 L 239.32,30.63 L 238.81,30.47 L 238.21,30.28 L 237.63,30.09 L 237.18,29.95 L 236.87,29.85 L 236.77,29.81 L 236.69,29.79 L 236.68,29.79 L 236.63,29.83 L 236.23,30.11 L 235.86,30.38 L 235.40,30.70 L 235.07,30.96 L 234.78,31.14 L 234.53,31.34 L 234.44,31.38 L 234.41,31.39 L 234.28,31.49 L 234.18,31.53 L 234.10,31.56 L 233.99,31.58 L 233.87,31.58 L 233.64,31.61 L 233.14,31.66 L 232.84,31.68 L 232.54,31.71 L 232.09,31.76 L 231.81,31.74 L 231.22,31.63 L 230.80,31.56 L 230.31,31.49 L 229.86,31.45 L 229.29,31.40 L 228.86,31.35 L 228.04,31.27 L 227.77,31.21 L 227.23,31.17 L 226.41,31.03 L 226.07,31.00 L 225.88,31.29 L 225.58,31.76 L 225.28,32.22 L 224.93,32.76 L 224.80,33.01 L 224.64,33.23 L 224.28,33.83 L 224.09,34.16 L 223.77,34.69 L 223.50,35.09 L 223.39,35.03 L 223.25,35.25 L 223.01,35.11 L 222.78,34.93 L 222.10,34.40 L 221.70,34.08 L 221.00,33.55 L 220.57,33.17 L 220.23,32.91 L 219.81,32.60 L 219.30,32.24 L 218.27,31.52 L 217.93,31.28 L 217.38,30.85 L 217.02,30.59 L 216.51,30.16 L 215.05,29.06 L 214.30,28.46 L 213.74,28.00 L 213.48,27.80 L 213.50,27.67 L 213.58,27.32 L 213.68,26.99 L 213.75,26.68 L 213.84,26.44 L 214.03,25.76 L 214.09,25.53 L 213.89,25.40 L 213.22,24.99 L 212.67,24.67 L 212.43,24.50 L 212.50,24.41 L 212.58,24.30 L 212.81,23.95 L 213.11,23.44 L 213.46,22.79 L 213.66,22.46 L 213.78,22.27 L 214.05,21.75 L 214.11,21.54 L 214.20,21.20 L 214.34,20.80 L 214.39,20.58 L 214.51,20.34 L 214.77,19.81 L 214.90,19.58 L 215.18,19.12 L 215.44,18.75 L 215.55,18.57 L 215.73,18.34 L 215.10,18.18 L 214.40,18.05 L 213.69,17.94 L 213.78,17.76 L 213.94,17.37 L 214.07,16.78 L 214.32,16.20 L 214.39,15.92 L 214.41,15.81 L 214.13,15.91 L 213.67,16.09 L 213.12,16.31 L 212.52,16.55 L 211.91,16.70 L 211.46,16.82 L 210.91,16.95 L 210.77,16.56 L 210.75,16.30 L 210.65,15.70 L 210.56,15.03 L 210.43,14.25 L 210.37,14.09 L 210.38,13.98 L 210.48,13.54 L 210.48,13.25 L 210.30,13.23 L 209.97,13.19 L 209.64,13.20 L 209.15,13.18 L 208.85,13.16 L 208.61,13.15 L 208.17,13.12 L 208.03,13.10 L 207.61,13.80 L 207.23,14.45 L 206.60,15.45 L 206.29,15.94 L 205.88,16.61 L 205.55,17.09 L 205.16,17.65 L 204.85,18.13 L 204.72,18.38 L 204.53,18.65 L 204.40,18.92 L 204.22,19.14 L 203.96,19.53 L 203.79,19.83 L 203.51,20.25 L 203.30,20.53 L 203.24,20.83 L 203.19,21.10 L 203.12,21.68 L 203.11,21.87 L 203.13,22.39 L 203.15,22.70 L 203.19,23.08 L 203.16,23.35 L 203.14,24.03 L 203.18,24.75 L 203.17,24.98 L 203.19,25.68 L 203.16,26.36 L 203.14,26.72 L 203.11,27.33 L 203.11,27.50 L 203.13,28.13 L 203.18,28.61 L 202.93,28.69 L 202.92,28.70 L 202.93,28.76 L 202.67,28.85 L 202.21,29.05 L 201.74,29.24 L 201.26,29.43 L 200.85,29.66 L 200.21,29.94 L 200.03,30.03 L 199.61,30.22 L 198.70,30.57 L 198.30,30.75 L 197.97,30.80 L 197.30,30.81 L 196.75,30.84 L 195.94,30.95 L 195.47,30.98 L 194.75,31.02 L 194.20,31.07 L 193.79,31.15 L 193.18,31.38 L 192.70,31.57 L 192.17,31.77 L 191.47,31.98 L 191.01,32.18 L 190.52,32.35 L 189.95,32.58 L 189.36,32.74 L 188.89,32.90 L 188.06,33.23 L 187.60,33.41 L 187.01,33.62 L 186.43,33.88 L 186.06,34.08 L 185.85,34.18 L 185.45,34.55 L 185.18,34.86 L 184.67,35.39 L 184.22,35.84 L 183.87,36.20 L 183.49,36.55 L 183.06,37.00 L 182.64,37.50 L 182.39,37.90 L 182.20,38.22 L 181.97,38.61 L 181.75,38.96 L 181.74,38.97 L 181.64,39.21 L 181.46,39.11 L 181.19,38.89 L 180.69,38.55 L 179.79,37.98 L 179.25,37.69 L 178.76,37.38 L 178.18,37.01 L 177.63,36.70 L 176.73,36.18 L 176.29,35.86 L 175.74,35.54 L 175.00,35.11 L 174.48,34.76 L 173.93,34.41 L 173.63,34.20 L 172.97,33.78 L 172.38,33.48 L 172.36,33.46 L 171.44,34.13 L 171.05,34.43 L 170.99,34.48 L 170.76,34.61 L 170.70,34.64 L 170.20,34.95 L 170.00,35.07 L 169.93,35.11 L 169.74,35.22 L 169.54,35.38 L 169.50,35.41 L 169.36,35.49 L 169.19,35.58 L 168.96,35.74 L 168.79,35.85 L 168.23,36.14 L 167.88,36.34 L 167.70,36.42 L 167.58,36.47 L 167.38,36.62 L 167.05,36.86 L 166.46,37.28 L 166.05,37.65 L 165.65,37.92 L 165.18,38.29 L 164.60,38.72 L 164.11,39.06 L 163.68,39.34 L 163.21,39.65 L 162.62,40.03 L 162.17,40.37 L 161.87,40.57 L 161.38,40.92 L 161.42,41.18 L 161.40,41.40 L 161.43,41.75 L 161.42,42.12 L 161.48,42.57 L 161.58,42.89 L 161.74,43.46 L 161.78,43.68 L 161.95,43.98 L 162.03,44.27 L 162.10,44.53 L 162.18,44.98 L 162.35,45.55 L 162.45,46.21 L 162.49,46.61 L 162.59,47.15 L 162.82,47.89 L 162.93,48.38 L 163.07,48.93 L 163.16,49.44 L 163.29,49.93 L 163.35,50.24 L 163.36,50.29 L 163.24,50.33 L 163.16,50.35 L 163.05,50.44 L 162.58,50.77 L 162.16,51.09 L 161.60,51.54 L 161.09,51.91 L 160.68,52.17 L 160.61,52.23 L 160.42,52.39 L 159.49,52.31 L 159.27,52.29 L 158.33,52.20 L 157.88,52.22 L 157.29,52.20 L 156.41,52.22 L 156.19,52.00 L 155.74,51.64 L 155.30,51.27 L 154.85,50.91 L 154.44,50.53 L 154.02,50.12 L 153.63,49.73 L 153.21,49.26 L 152.83,48.90 L 152.39,48.50 L 151.90,48.08 L 151.37,47.67 L 151.25,47.70 L 150.86,47.82 L 150.29,48.02 L 148.42,48.50 L 147.80,48.65 L 147.17,48.80 L 146.90,48.60 L 146.48,48.20 L 146.03,47.79 L 145.61,47.39 L 145.31,47.07 L 144.97,46.77 L 144.56,46.39 L 144.10,45.92 L 142.80,44.75 L 142.30,44.30 L 141.92,43.96 L 141.48,43.64 L 141.05,43.34 L 140.40,42.95 L 138.65,42.16 L 135.40,40.57 L 134.91,40.32 L 134.39,40.08 L 133.78,39.78 L 133.29,39.51 L 133.04,39.32 L 132.68,39.10 L 131.93,38.76 L 131.57,38.57 L 131.00,38.32 L 130.47,38.00 L 129.76,37.67 L 129.18,37.41 L 128.88,37.15 L 128.56,36.78 L 128.18,36.32 L 127.78,35.86 L 127.36,35.39 L 126.97,34.94 L 126.57,34.39 L 126.30,34.00 L 126.16,33.80 L 125.66,33.15 L 125.12,32.43 L 124.52,31.72 L 124.20,31.32 L 123.88,31.31 L 122.94,31.28 L 122.79,31.27 L 122.28,31.26 L 122.04,31.26 L 121.43,31.21 L 121.33,30.99 L 121.13,30.58 L 120.93,30.24 L 120.82,29.96 L 120.66,29.69 L 120.49,29.30 L 120.41,29.17 L 120.34,28.92 L 120.18,28.58 L 120.06,28.20 L 119.96,27.95 L 119.80,27.54 L 119.57,27.07 L 119.36,26.65 L 119.08,26.05 L 118.99,25.90 L 118.88,25.72 L 118.76,25.55 L 118.21,25.34 L 117.63,25.15 L 117.32,25.07 L 116.85,24.96 L 116.37,24.84 L 116.06,24.79 L 115.88,24.37 L 115.84,24.23 L 115.75,24.23 L 115.39,24.31 L 114.95,24.41 L 114.54,24.50 L 114.18,24.57 L 113.79,24.61 L 113.03,24.74 L 112.65,24.87 L 111.97,25.13 L 111.15,25.13 L 110.40,25.14 L 109.99,25.09 L 108.80,25.00 L 108.39,25.06 L 107.59,25.25 L 106.48,25.50 L 106.11,25.62 L 105.70,25.77 L 104.56,25.68 L 104.16,25.75 L 103.79,25.86 L 103.43,26.01 L 103.04,26.09 L 102.66,26.20 L 101.50,26.47 L 101.19,26.64 L 100.82,26.81 L 100.16,27.19 L 100.08,27.53 L 99.93,28.25 L 99.83,28.62 L 99.59,29.76 L 99.52,30.09 L 99.53,30.83 L 99.55,31.52 L 99.61,31.93 L 99.62,32.67 L 99.65,33.05 L 99.72,33.43 L 99.83,34.51 L 98.65,34.39 L 97.84,34.32 L 97.07,34.24 L 96.23,34.18 L 95.89,34.13 L 95.12,34.06 L 94.74,34.04 L 94.36,34.01 L 93.92,33.96 L 93.48,33.94 L 92.72,33.85 L 91.98,33.74 L 91.55,33.73 L 91.06,33.77 L 91.17,34.55 L 91.28,35.21 L 91.35,36.00 L 91.33,36.35 L 91.48,36.68 L 91.45,37.10 L 91.49,37.76 L 91.47,38.19 L 91.51,38.59 L 91.57,38.91 L 91.63,39.28 L 91.71,39.67 L 91.76,40.40 L 91.82,40.81 L 91.90,41.50 L 92.00,41.83 L 92.10,42.54 L 92.13,42.93 L 92.19,43.37 L 92.20,43.73 L 92.26,44.02 L 92.29,44.41 L 92.33,45.57 L 92.36,46.65 L 92.59,46.89 L 92.94,47.09 L 93.26,47.36 L 93.63,47.49 L 94.09,49.30 L 94.26,49.97 L 94.56,50.66 L 94.70,51.05 L 94.69,51.41 L 94.58,51.86 L 94.82,52.09 L 94.93,52.46 L 94.72,52.77 L 94.14,53.68 L 93.87,53.98 L 93.70,54.32 L 93.79,55.42 L 93.81,55.78 L 93.87,56.52 L 93.86,56.86 L 93.94,57.29 L 93.97,57.98 L 93.93,58.34 L 94.03,59.09 L 94.14,59.82 L 94.18,60.18 L 94.28,60.57 L 94.40,60.90 L 94.45,61.30 L 94.57,62.01 L 94.71,62.36 L 94.73,62.73 L 94.28,62.87 L 93.96,63.05 L 93.74,63.29 L 93.70,63.58 L 94.04,64.71 L 94.20,65.82 L 94.29,66.16 L 94.31,66.52 L 94.30,66.90 L 94.18,67.24 L 94.23,67.55 L 95.42,68.47 L 95.39,68.75 L 95.03,69.09 L 94.73,69.33 L 94.50,69.49 L 94.23,69.70 L 93.98,69.87 L 93.82,69.95 L 93.47,70.07 L 93.22,70.15 L 92.96,70.22 L 92.86,70.24 L 92.68,70.28 L 92.56,70.31 L 92.36,70.36 L 92.30,70.39 L 92.34,70.60 L 92.25,70.93 L 92.14,71.68 L 91.95,72.43 L 91.79,73.14 L 91.61,74.12 L 91.47,74.63 L 91.09,75.66 L 90.99,75.97 L 90.80,76.32 L 90.62,77.01 L 90.39,77.71 L 89.99,78.78 L 89.77,79.40 L 89.29,80.85 L 88.84,82.30 L 88.80,82.65 L 88.79,82.86 L 88.80,82.99 L 88.82,83.34 L 89.00,84.44 L 89.23,85.48 L 89.34,85.88 L 89.52,86.98 L 89.67,87.64 L 89.80,88.40 L 89.86,88.80 L 90.05,89.48 L 90.20,90.23 L 90.42,90.93 L 90.62,91.21 L 91.60,91.96 L 92.16,92.41 L 92.77,92.87 L 93.67,93.55 L 94.34,94.04 L 95.07,94.59 L 95.05,94.71 L 95.06,94.82 L 95.06,94.96 L 95.06,95.10 L 95.10,95.25 L 95.10,95.37 L 95.16,95.57 L 95.24,95.76 L 95.31,95.99 L 95.31,96.18 L 95.26,96.38 L 95.23,96.52 L 95.23,96.79 L 95.22,97.02 L 95.09,97.23 L 94.97,97.40 L 94.90,97.49 L 94.83,97.68 L 94.78,97.85 L 94.74,98.11 L 94.70,98.32 L 94.69,98.49 L 94.72,98.81 L 94.74,99.03 L 94.76,99.18 L 94.81,99.50 L 94.91,99.78 L 94.98,99.98 L 95.02,100.09 L 95.07,100.37 L 95.08,100.50 L 95.08,100.56 L 95.07,100.61 L 94.98,100.72 L 94.80,100.84 L 94.68,100.94 L 94.57,101.07 L 94.47,101.19 L 94.24,101.59 L 94.13,101.82 L 94.00,102.10 L 93.94,102.38 L 93.89,102.61 L 93.88,102.79 L 93.86,103.00 L 93.82,103.27 L 93.79,103.60 L 93.75,103.82 L 93.69,103.84 L 93.56,103.86 L 93.46,103.87 L 93.31,103.88 L 93.19,103.90 L 93.15,103.94 L 93.10,103.99 L 93.06,104.03 L 93.03,104.10 L 93.01,104.16 L 93.00,104.23 L 93.02,104.29 L 93.04,104.36 L 93.08,104.43 L 93.20,104.63 L 93.32,104.82 L 93.37,104.91 L 93.42,105.01 L 93.44,105.08 L 93.47,105.21 L 93.49,105.32 L 93.48,105.41 L 93.46,105.50 L 93.45,105.58 L 93.40,105.75 L 93.30,105.94 L 93.25,106.02 L 93.16,106.13 L 92.95,106.28 L 92.83,106.37 L 92.68,106.48 L 92.50,106.64 L 92.46,106.76 L 92.40,106.89 L 92.33,107.02 L 92.25,107.22 L 92.14,107.42 L 92.06,107.63 L 91.98,107.80 L 91.84,108.06 L 91.77,108.22 L 91.73,108.31 L 91.68,108.43 L 91.60,108.56 L 91.55,108.67 L 91.48,108.79 L 91.42,108.87 L 91.30,109.04 L 91.16,109.24 L 91.06,109.39 L 90.90,109.56 L 90.77,109.69 L 90.69,109.79 L 90.55,109.95 L 90.42,110.11 L 90.25,110.34 L 90.12,110.50 L 89.95,110.74 L 89.80,110.89 L 89.69,111.02 L 89.60,111.20 L 89.44,111.28 L 89.09,111.43 L 89.07,111.54 L 89.16,111.66 L 89.46,111.79 L 89.69,111.80 L 89.91,111.84 L 90.15,111.93 L 90.32,112.08 L 90.38,112.25 L 90.31,112.54 L 90.18,112.82 L 89.99,113.20 L 89.95,113.42 L 89.95,113.66 L 90.06,114.24 L 90.04,114.61 L 90.03,115.03 L 90.08,115.19 L 90.33,115.78 L 90.42,116.12 L 90.49,116.52 L 90.62,117.01 L 90.73,117.64 L 90.73,117.86 L 90.68,117.99 L 90.49,118.40 L 90.13,119.05 L 89.85,119.76 L 89.85,119.77 L 89.65,120.09 L 89.27,120.71 L 89.09,121.41 L 89.04,121.77 L 88.81,122.92 L 88.84,123.73 L 88.74,124.46 L 88.76,125.55 L 88.74,126.66 L 88.69,127.81 L 88.65,129.58 L 88.56,130.01 L 86.99,131.59 L 86.47,131.08 L 85.61,130.36 L 85.27,129.88 L 84.90,129.27 L 84.72,128.11 L 84.43,126.73 L 83.95,124.93 L 83.80,124.22 L 83.66,123.79 L 83.44,123.11 L 83.34,122.78 L 83.06,122.05 L 82.81,121.69 L 82.04,123.43 L 80.15,122.68 L 79.35,122.41 L 79.14,122.73 L 78.75,123.83 L 78.37,124.47 L 77.57,125.81 L 77.64,126.25 L 76.80,125.91 L 76.57,125.54 L 75.22,123.29 L 74.60,122.23 L 73.43,122.41 L 72.98,122.50 L 72.21,122.60 L 71.38,122.72 L 71.15,123.46 L 71.01,123.82 L 70.90,124.26 L 70.77,124.51 L 70.41,125.51 L 69.97,126.64 L 69.74,127.33 L 69.23,128.72 L 68.56,130.53 L 68.19,131.52 L 68.13,131.84 L 67.92,132.24 L 67.79,132.60 L 67.40,133.61 L 67.19,134.31 L 66.77,135.41 L 66.25,136.81 L 65.85,137.92 L 66.01,138.27 L 66.14,138.58 L 66.33,138.82 L 66.61,139.10 L 67.24,139.63 L 67.64,139.69 L 68.11,139.68 L 68.47,139.62 L 68.86,139.59 L 69.23,139.59 L 69.64,139.67 L 70.04,139.77 L 70.34,139.91 L 70.66,140.16 L 70.90,140.41 L 71.08,140.69 L 71.29,141.00 L 71.58,141.31 L 71.98,141.34 L 72.78,141.15 L 73.17,141.14 L 73.56,141.23 L 73.89,141.38 L 74.15,141.73 L 74.55,142.26 L 74.76,142.55 L 75.31,143.10 L 75.67,143.34 L 76.06,143.47 L 76.47,143.54 L 77.24,143.54 L 78.05,143.57 L 78.37,143.67 L 78.77,143.84 L 79.05,144.03 L 79.28,144.30 L 79.45,144.67 L 79.70,146.11 L 79.68,147.52 L 79.25,148.14 L 79.03,148.42 L 78.53,149.05 L 77.54,150.23 L 78.31,150.23 L 79.12,150.26 L 79.88,150.33 L 80.28,150.43 L 81.08,150.60 L 81.44,150.75 L 82.13,151.16 L 82.76,151.61 L 83.19,152.28 L 84.11,153.43 L 84.91,155.19 L 85.15,156.20 L 85.43,156.56 L 85.77,156.87 L 86.06,157.02 L 86.72,157.19 L 87.04,157.27 L 88.05,157.47 L 88.88,157.52 L 89.60,157.43 L 90.72,157.22 L 91.74,156.80 L 93.14,156.27 L 94.19,155.83 L 94.56,155.69 L 95.73,155.50 L 96.95,155.47 L 98.20,155.57 L 99.25,155.72 L 99.78,155.82 L 100.75,156.27 L 100.99,156.47 L 101.25,156.78 L 101.38,157.11 L 101.51,157.45 L 101.55,157.78 L 101.43,158.19 L 101.23,158.51 L 100.90,158.73 L 100.62,158.80 L 99.79,158.91 L 99.05,158.98 L 98.74,159.02 L 97.79,158.93 L 97.45,158.85 L 97.15,158.89 L 96.79,158.97 L 96.48,159.19 L 96.29,159.41 L 96.20,159.78 L 96.14,160.14 L 96.16,160.53 L 96.36,161.26 L 96.55,161.58 L 97.26,162.51 L 97.95,163.28 L 98.50,163.91 L 99.08,164.82 L 99.94,165.96 L 100.16,166.32 L 99.40,166.96 L 98.51,166.08 L 97.93,166.74 L 97.18,167.15 L 96.53,167.46 L 95.77,167.77 L 93.40,166.26 L 92.89,165.93 L 91.82,166.46 L 91.08,166.86 L 90.78,166.96 L 90.48,167.08 L 89.79,167.54 L 89.50,167.65 L 86.55,167.24 L 84.89,166.93 L 84.24,166.88 L 82.72,166.92 L 81.89,166.95 L 81.52,166.96 L 80.73,167.09 L 80.94,167.45 L 81.52,168.45 L 81.71,168.76 L 81.82,169.14 L 81.86,169.50 L 81.79,169.83 L 81.43,170.06 L 81.01,170.07 L 80.20,170.11 L 79.87,170.03 L 79.49,169.86 L 79.17,169.67 L 78.91,169.44 L 78.77,169.10 L 78.59,167.96 L 78.50,167.62 L 78.30,167.34 L 77.97,167.18 L 77.56,167.15 L 76.83,167.07 L 75.68,166.99 L 74.85,166.94 L 73.72,166.89 L 73.35,166.84 L 72.90,166.84 L 72.49,166.89 L 71.87,167.08 L 71.40,167.25 L 71.10,167.39 L 70.59,167.52 L 70.27,167.69 L 69.95,167.95 L 69.44,168.55 L 68.55,169.33 L 67.76,170.12 L 67.25,170.58 L 66.71,171.12 L 65.87,171.93 L 65.34,172.44 L 65.11,172.65 L 64.84,172.97 L 64.01,173.79 L 63.45,174.34 L 62.88,174.85 L 62.25,175.34 L 61.32,176.01 L 60.31,176.63 L 59.73,177.03 L 59.05,177.47 L 58.75,177.71 L 58.25,178.24 L 57.99,178.61 L 57.69,179.21 L 57.56,179.58 L 57.28,180.26 L 57.17,180.59 L 57.77,180.98 L 58.68,181.58 L 59.14,181.82 L 59.24,181.92 L 59.37,182.07 L 59.41,182.29 L 59.42,182.44 L 59.25,182.80 L 58.91,183.43 L 58.64,183.71 L 58.43,183.87 L 58.17,184.06 L 57.88,184.33 L 57.54,184.68 L 57.21,185.05 L 57.00,185.35 L 56.70,185.79 L 56.55,186.00 L 56.37,186.21 L 56.07,186.18 L 55.27,186.17 L 54.11,186.24 L 52.95,186.30 L 51.37,186.35 L 51.35,187.14 L 51.28,187.91 L 51.18,189.01 L 51.08,190.15 L 51.00,191.28 L 50.87,192.77 L 50.88,193.45 L 50.79,194.51 L 50.61,196.42 L 50.57,197.09 L 50.52,197.85 L 50.45,199.02 L 50.42,199.74 L 50.37,200.48 L 50.29,201.24 L 50.30,201.57 L 51.07,201.72 L 51.41,201.82 L 52.98,202.24 L 53.74,202.45 L 54.90,202.75 L 56.06,203.00 L 56.92,203.84 L 57.45,204.33 L 58.29,205.12 L 58.41,205.47 L 58.61,206.21 L 58.78,206.50 L 60.54,207.25 L 61.61,207.75 L 62.60,208.21 L 63.71,208.72 L 65.12,209.38 L 65.43,209.49 L 65.91,209.65 L 67.04,209.89 L 68.21,210.15 L 69.34,210.42 L 70.50,210.67 L 72.03,211.06 L 72.37,211.16 L 72.73,211.30 L 74.22,211.83 L 74.63,211.94 L 75.35,212.16 L 76.52,212.56 L 77.19,212.78 L 78.32,213.18 L 79.43,213.53 L 80.22,213.77 L 80.94,214.01 L 82.11,214.38 L 82.18,215.04 L 82.16,215.77 L 82.19,216.19 L 82.23,216.91 L 82.24,217.67 L 82.24,218.73 L 82.26,219.54 L 82.27,220.62 L 82.36,221.37 L 82.44,221.91 L 82.61,222.84 L 82.59,223.24 L 82.58,223.58 L 82.45,224.68 L 82.41,225.05 L 82.32,226.14 L 82.23,226.86 L 82.17,227.61 L 82.08,228.72 L 81.96,229.86 L 81.87,230.52 L 81.77,231.66 L 81.69,232.43 L 81.51,233.94 L 81.43,234.66 L 81.33,235.80 L 81.22,236.93 L 81.10,238.00 L 81.03,238.75 L 80.94,239.73 L 80.85,240.57 L 80.80,241.28 L 80.71,241.99 L 80.65,242.80 L 80.56,243.23 L 79.79,242.95 L 79.24,242.75 L 78.78,242.55 L 78.26,242.24 L 77.79,241.96 L 77.25,241.67 L 76.72,241.49 L 75.99,241.28 L 75.19,241.09 L 74.44,240.98 L 74.04,240.97 L 73.25,241.02 L 72.43,241.07 L 71.27,241.18 L 69.75,241.33 L 68.49,241.52 L 67.39,241.73 L 66.79,241.79 L 66.53,241.80 L 66.10,241.73 L 65.66,241.65 L 65.28,241.55 L 64.61,241.25 L 64.15,241.08 L 63.74,240.96 L 63.39,240.86 L 63.03,240.79 L 62.54,240.71 L 62.05,240.70 L 61.21,240.73 L 60.48,240.76 L 60.20,240.70 L 59.79,240.54 L 59.17,240.23 L 58.45,239.82 L 57.72,239.39 L 57.44,239.29 L 56.96,239.18 L 56.49,239.10 L 55.72,239.03 L 55.35,239.03 L 54.58,239.08 L 53.77,239.16 L 53.36,239.24 L 52.25,239.58 L 50.71,240.09 L 50.22,240.24 L 49.82,240.38 L 49.20,240.63 L 48.63,240.93 L 48.06,241.34 L 46.85,242.30 L 46.28,242.77 L 45.72,243.29 L 45.26,243.74 L 44.47,244.39 L 44.09,244.67 L 43.78,244.82 L 43.32,245.00 L 43.08,245.06 L 42.90,245.09 L 42.66,245.10 L 42.04,245.09 L 41.55,245.15 L 40.91,245.29 L 40.49,245.44 L 40.00,245.66 L 39.36,246.13 L 38.94,246.39 L 38.68,246.48 L 38.46,246.48 L 38.23,246.43 L 37.51,246.02 L 37.18,245.82 L 36.40,245.42 L 35.63,245.19 L 35.25,245.14 L 34.80,245.08 L 34.03,245.14 L 32.90,245.38 L 31.81,245.65 L 30.91,245.89 L 30.13,245.83 L 29.71,245.79 L 29.38,245.70 L 28.89,245.64 L 28.47,245.63 L 28.12,245.67 L 27.75,245.81 L 27.40,246.04 L 27.09,246.28 L 26.83,246.51 L 26.54,246.80 L 26.15,246.83 L 25.77,246.70 L 25.38,246.55 L 25.30,246.92 L 25.14,247.76 L 25.04,248.13 L 24.91,248.87 L 24.76,249.62 L 24.62,250.34 L 24.52,251.04 L 24.27,252.10 L 24.16,252.84 L 23.95,253.97 L 23.68,255.39 L 23.53,256.20 L 23.36,257.20 L 23.27,257.60 L 23.05,258.68 L 23.04,258.81 L 22.94,259.10 L 22.89,259.37 L 22.76,259.83 L 22.71,260.22 L 22.62,260.56 L 22.58,260.87 L 22.54,261.27 L 22.48,261.63 L 22.46,261.99 L 22.45,262.36 L 22.44,262.74 L 22.41,263.11 L 22.42,263.44 L 22.43,263.76 L 22.36,264.09 L 22.31,264.44 L 22.31,264.50 L 22.32,264.79 L 22.31,265.16 L 22.29,265.88 L 22.23,266.31 L 22.08,266.57 L 22.01,266.94 L 21.97,267.27 L 21.89,267.64 L 21.80,268.03 L 21.73,268.39 L 21.65,268.74 L 21.57,269.10 L 21.50,269.40 L 21.39,269.73 L 21.32,270.11 L 21.22,270.44 L 21.14,270.83 L 21.05,271.20 L 21.01,271.57 L 20.94,271.98 L 20.87,272.33 L 20.77,272.70 L 20.75,273.08 L 20.66,273.41 L 20.13,273.73 L 19.81,274.02 L 19.56,274.27 L 19.28,274.53 L 19.01,274.79 L 18.72,275.05 L 18.44,275.28 L 18.12,275.46 L 17.75,275.59 L 17.33,275.73 L 17.04,275.91 L 16.74,276.17 L 16.42,276.40 L 16.10,276.68 L 15.77,276.86 L 15.45,277.07 L 15.14,277.29 L 14.79,277.48 L 14.48,277.67 L 14.10,277.82 L 13.75,277.97 L 13.38,278.12 L 13.04,278.18 L 12.68,278.31 L 12.24,278.40 L 11.88,278.51 L 11.45,278.55 L 11.15,278.60 L 10.77,278.66 L 10.35,278.74 L 10.00,278.80 L 10.37,278.90 L 10.73,278.93 L 11.03,279.09 L 11.22,279.31 L 11.55,279.57 L 11.79,279.88 L 12.02,280.18 L 12.31,280.43 L 12.66,280.58 L 12.99,280.77 L 13.29,280.96 L 13.60,281.23 L 13.90,281.44 L 14.13,281.69 L 14.38,281.94 L 14.63,282.16 L 14.78,282.68 L 14.83,283.04 L 14.92,283.39 L 15.00,283.77 L 15.41,283.71 L 15.78,283.69 L 16.15,283.67 L 16.54,283.67 L 16.92,283.63 L 17.11,283.97 L 17.26,284.29 L 17.38,284.64 L 17.47,284.98 L 17.49,285.36 L 17.58,285.69 L 17.76,286.02 L 17.89,286.32 L 17.94,286.67 L 17.98,287.04 L 18.07,287.39 L 18.25,287.72 L 18.48,287.99 L 18.67,288.27 L 18.97,288.56 L 19.16,288.90 L 19.28,289.23 L 19.43,289.60 L 19.55,289.96 L 19.63,290.27 L 19.68,290.62 L 19.73,290.97 L 19.75,291.36 L 19.75,291.73 L 19.74,292.08 L 19.78,292.42 L 19.84,292.77 L 19.90,293.09 L 20.21,293.21 L 20.62,293.31 L 20.99,293.43 L 21.35,293.51 L 21.75,293.66 L 22.10,293.80 L 22.46,293.94 L 22.81,294.01 L 23.10,294.14 L 23.47,294.37 L 23.78,294.58 L 24.11,294.77 L 24.41,294.95 L 24.70,295.18 L 25.05,295.37 L 25.32,295.59 L 25.65,295.83 L 25.93,296.01 L 26.20,296.21 L 26.58,296.42 L 26.87,296.62 L 27.16,296.82 L 27.43,297.07 L 27.78,297.29 L 28.12,297.50 L 28.41,297.64 L 28.74,297.81 L 29.10,297.99 L 29.44,298.20 L 29.78,298.24 L 30.14,298.27 L 30.26,298.29 L 30.33,298.32 L 30.44,298.36 L 30.57,298.38 L 30.69,298.40 L 30.80,298.40 L 30.94,298.43 L 31.14,298.46 L 31.28,298.50 L 31.43,298.55 L 31.60,298.60 L 31.75,298.64 L 31.87,298.69 L 32.01,298.76 L 32.14,298.84 L 32.23,298.90 L 32.27,298.95 L 32.42,299.04 L 32.55,299.10 L 32.68,299.16 L 32.99,299.29 L 33.16,299.38 L 33.36,299.46 L 33.50,299.52 L 33.73,299.54 L 33.84,299.54 L 33.93,299.56 L 34.03,299.59 L 34.28,299.59 L 34.46,299.61 L 34.61,299.62 L 34.82,299.64 L 35.01,299.66 L 35.22,299.69 L 35.36,299.71 L 35.60,299.74 L 35.80,299.78 L 36.07,299.85 L 36.22,299.97 L 36.54,300.18 L 36.70,300.40 L 36.80,300.53 L 36.81,300.56 L 37.31,301.03 L 37.60,301.15 L 38.12,301.31 L 38.44,301.38 L 38.82,301.56 L 39.46,301.97 L 39.91,302.37 L 40.57,303.07 L 41.01,303.52 L 41.33,303.78 L 41.64,303.97 L 42.08,304.02 L 42.54,304.01 L 42.96,304.13 L 43.47,304.27 L 43.74,304.40 L 43.87,304.58 L 44.03,304.94 L 44.06,305.32 L 44.02,305.89 L 44.07,306.24 L 44.07,306.50 L 43.91,307.00 L 43.76,307.57 L 43.76,307.83 L 43.77,307.95 L 43.83,308.05 L 43.96,308.09 L 44.33,308.09 L 44.83,308.18 L 45.26,308.31 L 45.59,308.43 L 46.03,308.64 L 46.48,308.78 L 46.98,308.88 L 47.21,308.89 L 47.37,308.66 L 47.34,309.75 L 47.34,310.54 L 47.36,311.53 L 47.35,311.77 L 47.33,312.05 L 47.34,312.58 L 47.40,313.08 L 47.45,313.70 L 47.50,314.22 L 47.55,314.57 L 47.58,314.98 L 47.59,315.21 L 47.57,315.81 L 47.52,316.19 L 47.40,317.14 L 47.31,317.92 L 47.27,318.20 L 47.19,318.37 L 47.30,318.53 L 47.54,318.98 L 47.76,319.43 L 47.94,319.89 L 48.12,320.33 L 48.28,320.73 L 48.36,320.94 L 48.46,321.15 L 48.55,321.36 L 48.64,322.04 L 48.71,322.39 L 48.87,322.93 L 48.97,323.32 L 49.17,323.87 L 49.24,324.10 L 50.17,324.21 L 50.42,324.28 L 50.53,324.36 L 50.62,324.47 L 50.79,324.67 L 50.96,324.79 L 51.10,324.94 L 51.38,325.20 L 51.64,325.38 L 51.84,325.63 L 51.94,325.79 L 52.04,326.00 L 52.11,326.13 L 52.18,326.34 L 52.17,326.54 L 52.18,326.67 L 52.14,326.91 L 52.09,327.06 L 52.03,327.22 L 51.95,327.30 L 51.95,327.46 L 51.95,327.63 L 51.95,327.75 L 51.93,327.90 L 51.95,328.01 L 51.98,328.15 L 52.02,328.46 L 52.09,328.64 L 52.13,328.77 L 52.20,328.97 L 52.23,329.17 L 52.32,329.34 L 52.37,329.50 L 52.43,329.63 L 52.63,329.97 L 52.75,330.15 L 52.91,330.39 L 53.17,330.62 L 53.31,330.70 L 53.67,330.74 L 53.95,330.76 L 54.16,330.85 L 54.39,331.09 L 54.47,331.34 L 54.55,331.51 L 54.68,331.72 L 54.90,331.96 L 55.12,332.12 L 55.35,332.23 L 55.79,332.42 L 56.06,332.47 L 56.75,332.53 L 57.28,332.56 L 57.85,332.65 L 58.41,332.89 L 58.84,332.99 L 59.39,333.17 L 59.69,333.30 L 59.99,333.45 L 60.78,333.82 L 61.21,334.08 L 61.55,334.28 L 61.96,334.32 L 62.22,334.44 L 62.66,334.63 L 63.21,335.05 L 63.59,335.60 L 63.81,335.97 L 64.02,336.32 L 64.38,336.85 L 64.54,337.72 L 64.55,338.07 L 64.56,338.20 L 64.70,338.62 L 64.86,338.84 L 65.03,339.17 L 65.23,339.43 L 65.44,339.61 L 65.91,339.41 L 66.27,339.30 L 66.74,339.16 L 67.94,339.07 L 69.07,339.09 L 70.20,339.03 L 71.65,339.01 L 72.49,339.00 L 73.70,338.89 L 74.90,338.82 L 76.00,338.79 L 77.37,338.74 L 78.47,338.69 L 81.59,338.58 L 81.76,338.57 L 81.93,338.57 L 82.11,338.75 L 82.19,338.86 L 82.49,339.32 L 82.83,339.89 L 83.24,340.68 L 83.54,341.15 L 83.72,341.74 L 83.99,342.65 L 84.09,342.96 L 84.24,343.47 L 84.38,343.87 L 84.64,344.37 L 84.91,346.02 L 85.11,346.75 L 85.48,347.74 L 85.82,348.94 L 86.20,350.30 L 86.32,350.95 L 86.47,351.74 L 86.59,352.66 L 86.70,353.38 L 86.81,354.66 L 86.78,355.07 L 86.54,355.95 L 86.36,356.43 L 86.73,357.27 L 87.03,357.73 L 87.51,358.14 L 87.79,358.78 L 87.91,359.47 L 88.14,359.88 L 88.65,360.29 L 89.05,360.62 L 89.27,360.89 L 89.55,361.52 L 89.83,362.30 L 90.11,362.83 L 90.65,363.62 L 90.80,363.73 L 91.89,363.88 L 92.41,364.12 L 92.58,364.29 L 92.61,364.53 L 92.45,364.89 L 92.21,365.15 L 91.67,365.52 L 91.54,365.80 L 91.50,366.07 L 91.80,367.25 L 92.15,368.05 L 92.24,368.39 L 92.32,368.74 L 92.37,369.77 L 90.83,370.06 L 89.15,370.47 L 88.64,370.54 L 87.26,370.52 L 86.09,370.37 L 84.89,370.39 L 83.76,370.44 L 82.93,370.39 L 82.09,370.26 L 81.70,370.02 L 81.13,369.50 L 80.04,368.60 L 79.35,368.37 L 78.16,368.27 L 77.10,368.63 L 75.97,368.98 L 74.96,369.60 L 73.99,370.05 L 72.88,370.51 L 71.84,370.84 L 70.37,371.38 L 69.35,371.86 L 69.53,372.55 L 69.67,373.70 L 69.34,375.08 L 69.37,375.45 L 69.36,376.14 L 69.36,376.90 L 69.32,377.56 L 69.26,378.27 L 69.25,378.96 L 69.26,379.68 L 69.21,380.39 L 69.19,381.51 L 69.12,382.59 L 69.10,383.33 L 69.09,384.02 L 69.05,384.75 L 69.01,385.46 L 68.99,386.17 L 68.94,387.33 L 68.89,388.08 L 68.76,389.08 L 68.66,389.78 L 68.50,390.87 L 68.53,391.91 L 68.46,392.98 L 68.27,394.41 L 68.15,395.50 L 68.03,396.93 L 67.91,397.30 L 67.74,398.33 L 67.72,398.68 L 67.57,399.41 L 67.45,400.13 L 67.35,400.86 L 67.19,401.54 L 67.15,402.23 L 67.07,402.94 L 66.99,404.00 L 66.88,404.73 L 66.68,406.00 L 66.74,407.97 L 66.87,410.83 L 66.94,412.15 L 67.09,415.93 L 65.54,415.77 L 65.28,419.58 L 65.85,420.05 L 66.85,420.79 L 67.53,421.45 L 68.26,422.31 L 69.31,423.50 L 69.50,424.08 L 70.21,426.12 L 71.20,429.03 L 72.13,431.75 L 73.08,434.62 L 74.09,437.70 L 75.48,441.71 L 75.07,442.26 L 73.62,444.12 L 71.58,446.81 L 70.21,448.57 L 70.10,448.90 L 69.84,449.93 L 69.52,450.67 L 69.24,451.71 L 68.52,454.03 L 67.75,456.65 L 67.10,458.73 L 66.39,461.05 L 65.95,462.44 L 66.26,462.88 L 67.07,462.16 L 67.24,462.06 L 67.62,462.03 L 67.89,462.16 L 68.62,462.42 L 68.90,462.38 L 69.11,462.05 L 69.36,461.70 L 69.48,461.42 L 69.61,461.11 L 69.76,460.59 L 69.97,460.28 L 70.66,459.85 L 71.30,459.43 L 71.76,459.16 L 72.33,459.01 L 72.71,458.83 L 73.23,458.45 L 74.00,458.00 L 74.56,457.63 L 74.76,457.30 L 74.94,456.99 L 75.09,456.46 L 75.22,456.06 L 75.37,455.48 L 75.48,455.09 L 75.76,454.63 L 76.36,453.94 L 76.62,453.73 L 76.94,453.62 L 77.26,453.56 L 78.77,453.68 L 80.02,453.77 L 80.62,453.73 L 81.57,453.63 L 84.55,453.34 L 84.61,454.22 L 84.71,456.69 L 84.91,456.53 L 85.13,456.61 L 85.40,456.50 L 85.81,456.39 L 86.15,456.26 L 86.46,455.99 L 86.68,455.74 L 86.92,455.39 L 87.08,455.21 L 87.17,455.16 L 87.39,455.11 L 87.78,455.07 L 88.10,455.01 L 88.63,454.91 L 88.95,454.77 L 89.13,454.56 L 89.23,454.33 L 89.26,454.06 L 89.30,453.84 L 89.38,453.70 L 89.49,453.64 L 89.66,453.59 L 89.88,453.51 L 90.15,453.31 L 90.44,453.04 L 90.81,452.73 L 91.10,452.61 L 91.34,452.62 L 91.59,452.72 L 91.79,452.79 L 91.97,452.78 L 92.32,452.63 L 92.54,452.50 L 92.89,452.24 L 93.14,452.01 L 93.35,451.71 L 93.53,451.39 L 93.61,451.09 L 93.66,450.95 L 93.78,450.74 L 94.10,450.31 L 94.51,449.92 L 95.03,449.46 L 95.66,448.93 L 96.28,448.32 L 96.53,448.04 L 96.84,447.64 L 97.20,447.04 L 97.38,446.70 L 97.47,446.44 L 97.53,446.19 L 97.63,446.01 L 97.88,445.70 L 98.12,445.40 L 98.46,445.19 L 98.73,445.11 L 99.20,445.04 L 99.61,444.95 L 100.04,444.80 L 100.07,444.97 L 100.14,445.34 L 100.18,445.59 L 100.22,446.12 L 100.28,446.70 L 100.28,447.00 L 100.28,447.38 L 100.33,448.10 L 100.40,448.49 L 100.65,448.54 L 101.39,448.63 L 102.53,448.73 L 103.60,448.94 L 105.90,449.28 L 107.89,449.60 L 109.77,449.91 L 112.78,450.35 L 115.41,450.58 L 117.97,450.82 L 119.49,450.95 L 121.18,451.08 L 121.74,451.03 L 122.47,450.93 L 122.95,450.78 L 123.15,450.59 L 123.38,450.24 L 123.57,449.85 L 123.68,449.24 L 123.83,448.55 L 124.04,447.87 L 124.39,447.38 L 124.77,446.89 L 125.20,446.51 L 125.71,445.99 L 126.33,445.33 L 127.12,444.13 L 127.38,443.57 L 127.73,442.99 L 128.15,442.51 L 129.09,441.58 L 129.67,441.04 L 130.21,440.46 L 130.61,439.97 L 130.78,439.53 L 130.95,439.01 L 131.23,438.33 L 131.45,437.81 L 131.66,437.41 L 132.22,436.90 L 132.79,436.34 L 133.59,435.64 L 134.04,435.31 L 134.58,434.76 L 135.03,434.07 L 135.24,433.53 L 135.46,432.71 L 136.31,432.64 L 137.33,432.57 L 138.43,432.49 L 139.10,432.48 L 140.23,431.27 L 142.00,431.24 L 143.88,431.19 L 144.66,431.24 L 145.24,431.33 L 145.11,431.63 L 145.03,432.08 L 144.92,432.87 L 144.92,433.30 L 144.88,433.62 L 144.62,434.13 L 144.16,434.71 L 143.97,434.96 L 143.90,435.16 L 143.91,435.32 L 144.04,435.61 L 144.30,435.98 L 144.90,436.63 L 145.04,436.84 L 145.10,437.05 L 145.04,437.37 L 144.89,437.68 L 144.66,437.89 L 144.30,438.16 L 143.91,438.34 L 143.69,438.57 L 143.52,438.83 L 143.43,439.30 L 143.35,440.07 L 143.32,441.16 L 143.29,441.54 L 143.18,441.85 L 142.96,442.80 L 142.86,443.32 L 142.91,443.61 L 142.95,444.08 L 142.94,444.60 L 142.82,444.99 L 142.27,446.17 L 142.00,446.70 L 141.79,447.09 L 141.50,447.75 L 141.34,448.24 L 141.23,448.85 L 141.00,449.54 L 140.87,450.05 L 140.77,450.81 L 140.82,451.70 L 140.90,452.14 L 140.89,452.38 L 140.70,452.91 L 140.46,453.36 L 140.16,453.65 L 139.69,453.97 L 139.11,454.25 L 138.55,454.52 L 138.16,454.78 L 137.90,455.13 L 137.72,455.85 L 137.73,456.21 L 138.14,456.77 L 138.76,457.88 L 139.11,458.68 L 139.31,459.44 L 139.39,460.07 L 139.24,460.82 L 139.04,461.59 L 138.74,462.69 L 138.66,463.62 L 138.70,464.76 L 138.74,465.42 L 138.67,465.81 L 138.49,466.23 L 138.31,466.51 L 138.01,466.87 L 137.39,467.36 L 136.99,467.70 L 136.37,468.32 L 135.89,469.01 L 135.32,470.20 L 135.13,470.86 L 134.75,471.40 L 133.88,472.35 L 133.30,473.05 L 132.92,473.57 L 132.59,474.15 L 132.25,474.77 L 131.69,476.06 L 131.52,476.49 L 131.51,476.54 L 131.29,477.64 L 131.27,478.30 L 131.35,479.18 L 131.41,479.46 L 131.49,479.84 L 131.51,480.02 L 131.49,480.17 L 131.33,480.46 L 130.95,481.34 L 130.73,481.76 L 130.66,482.01 L 130.62,482.36 L 130.70,482.80 L 130.77,483.01 L 131.31,483.81 L 131.51,484.18 L 131.64,484.65 L 131.72,485.12 L 131.71,485.42 L 131.60,485.92 L 131.52,486.38 L 131.41,486.82 L 131.29,487.21 L 131.26,487.48 L 131.20,488.54 L 131.03,488.92 L 130.97,489.12 L 130.89,489.49 L 130.85,489.89 L 130.81,490.49 L 130.88,490.89 L 130.97,491.30 L 131.05,491.56 L 131.09,491.85 L 131.20,492.05 L 131.44,492.25 L 131.67,492.37 L 131.76,492.49 L 131.80,492.61 L 131.76,492.84 L 131.72,493.13 L 131.67,493.40 L 131.56,493.83 L 131.56,494.08 L 131.63,494.28 L 131.74,494.36 L 131.84,494.38 L 132.10,494.40 L 132.23,494.42 L 132.44,494.53 L 132.54,494.62 L 132.57,494.68 L 132.58,494.81 L 132.58,495.10 L 132.63,495.48 L 132.64,495.80 L 132.60,496.11 L 132.54,496.24 L 132.41,496.37 L 132.16,496.60 L 131.95,496.75 L 131.67,496.85 L 131.26,497.01 L 130.87,497.16 L 130.54,497.35 L 130.29,497.56 L 130.13,497.75 L 129.97,498.04 L 129.85,498.54 L 129.86,499.22 L 129.92,499.59 L 130.12,500.03 L 130.30,500.58 L 130.41,500.84 L 130.45,500.99 L 130.50,501.27 L 130.50,501.63 L 130.50,502.08 L 130.53,502.48 L 130.57,502.69 L 130.72,503.17 L 131.08,504.24 L 131.13,504.45 L 131.13,504.70 L 131.24,505.14 L 131.17,505.25 L 130.94,505.59 L 130.66,505.90 L 130.27,506.29 L 129.72,506.87 L 129.35,507.31 L 129.15,507.68 L 129.07,508.04 L 128.94,508.36 L 128.76,508.68 L 128.71,508.87 L 128.69,509.16 L 128.67,509.49 L 128.66,509.62 L 128.63,510.10 L 128.64,510.55 L 128.64,510.83 L 128.63,510.94 L 128.53,511.33 L 128.41,511.77 L 128.33,512.07 L 128.24,512.21 L 128.12,512.55 L 128.04,512.79 L 127.97,513.11 L 127.95,513.57 L 127.90,514.20 L 127.80,514.76 L 127.65,515.55 L 127.62,516.55 L 127.53,517.20 L 127.32,517.97 L 127.26,518.20 L 126.98,518.29 L 126.63,518.57 L 126.11,519.12 L 125.60,519.55 L 124.73,520.19 L 122.95,520.65 L 121.12,520.99 L 119.21,521.39 L 118.80,521.51 L 118.23,521.88 L 117.37,522.46 L 116.40,522.96 L 115.57,523.27 L 115.03,523.49 L 114.14,523.99 L 113.38,524.49 L 112.45,525.15 L 112.05,525.53 L 111.67,526.02 L 111.15,526.82 L 110.79,527.40 L 110.45,527.64 L 109.97,527.84 L 109.28,527.80 L 108.36,527.63 L 107.33,527.48 L 106.87,527.49 L 106.60,527.59 L 105.86,528.10 L 105.17,528.59 L 103.96,529.20 L 103.01,529.65 L 102.31,529.96 L 101.75,530.09 L 100.96,530.22 L 99.94,530.14 L 98.73,529.87 L 98.03,529.65 L 97.47,529.57 L 96.77,529.50 L 95.95,529.58 L 95.33,529.64 L 93.66,529.76 L 92.62,529.96 L 91.21,530.34 L 89.79,530.67 L 88.31,530.95 L 87.72,530.97 L 87.78,531.14 L 87.92,531.61 L 88.07,532.24 L 88.23,532.73 L 88.36,532.99 L 88.59,533.20 L 89.02,533.51 L 89.30,533.73 L 89.49,533.97 L 89.80,534.44 L 90.05,534.83 L 90.22,535.19 L 90.72,535.93 L 90.92,536.30 L 91.60,537.93 L 92.03,539.07 L 92.25,539.82 L 92.33,540.03 L 93.04,540.25 L 93.72,540.50 L 94.07,540.68 L 94.25,540.90 L 94.36,541.39 L 94.62,542.19 L 95.01,543.07 L 95.41,543.90 L 95.54,544.08 L 95.65,544.36 L 95.90,544.86 L 96.46,546.03 L 96.89,546.84 L 97.27,547.53 L 97.37,547.77 L 97.09,548.18 L 96.82,548.56 L 96.58,548.81 L 96.33,549.02 L 96.02,549.23 L 95.86,549.42 L 95.74,549.60 L 95.55,549.83 L 95.31,550.06 L 95.14,550.18 L 94.84,550.41 L 94.70,550.62 L 94.59,550.82 L 94.80,551.05 L 96.02,551.62 L 96.88,552.00 L 98.04,552.52 L 99.18,553.17 L 99.75,553.49 L 100.88,554.41 L 101.04,554.62 L 101.58,555.45 L 101.76,555.67 L 102.29,556.36 L 102.53,556.63 L 102.95,557.08 L 103.28,557.50 L 103.68,558.00 L 104.12,558.68 L 104.45,559.17 L 104.92,559.86 L 105.50,560.56 L 105.81,561.00 L 106.24,561.45 L 106.69,562.05 L 107.00,562.76 L 107.53,564.02 L 107.88,564.79 L 108.02,565.43 L 108.44,567.50 L 108.70,568.26 L 109.07,569.01 L 110.02,571.60 L 110.46,573.06 L 110.49,573.76 L 110.64,574.57 L 110.76,574.84 L 110.93,575.45 L 111.29,577.23 L 111.46,577.94 L 111.84,579.01 L 112.47,580.75 L 112.77,581.31 L 112.94,581.53 L 113.64,582.35 L 113.83,582.57 L 115.21,584.56 L 115.47,584.52 L 116.20,584.45 L 117.48,584.49 L 117.93,584.53 L 118.27,584.52 L 118.71,584.49 L 119.46,584.41 L 120.09,584.43 L 120.98,584.39 L 121.62,584.36 L 122.35,584.31 L 123.11,584.21 L 123.85,584.10 L 124.28,584.11 L 124.88,584.10 L 125.15,584.10 L 126.04,584.15 L 127.18,584.10 L 127.03,583.08 L 127.35,582.81 L 127.86,582.31 L 128.42,581.75 L 129.00,581.27 L 129.59,580.79 L 130.13,580.28 L 130.41,580.02 L 130.77,579.76 L 131.34,579.32 L 131.63,579.09 L 131.95,578.90 L 132.00,578.57 L 132.24,577.84 L 132.53,577.14 L 132.58,576.76 L 132.67,576.45 L 133.04,575.41 L 133.18,575.06 L 133.67,573.75 L 133.82,573.41 L 133.42,573.34 L 133.12,573.23 L 132.65,573.04 L 132.37,572.85 L 132.10,572.56 L 131.67,572.04 L 131.58,571.69 L 131.53,571.32 L 131.60,570.76 L 131.70,570.38 L 132.05,570.46 L 134.66,570.71 L 135.87,570.87 L 136.29,570.96 L 136.65,571.18 L 138.21,572.45 L 139.60,573.78 L 141.03,571.54 L 141.43,570.89 L 141.69,570.55 L 142.46,570.44 L 144.34,570.13 L 145.08,570.06 L 145.54,570.11 L 145.62,569.62 L 145.68,569.17 L 149.74,569.49 L 150.11,569.52 L 150.28,570.27 L 150.53,571.31 L 152.10,571.61 L 154.01,571.82 L 154.86,571.99 L 154.87,570.78 L 154.87,570.35 L 156.89,570.50 L 157.69,570.52 L 158.15,570.63 L 158.86,570.88 L 159.61,570.97 L 160.43,571.25 L 161.08,571.42 L 161.50,571.51 L 161.94,571.87 L 162.21,571.82 L 163.05,570.96 L 163.38,571.02 L 163.51,571.26 L 163.54,571.57 L 163.85,571.82 L 164.17,571.91 L 164.53,571.77 L 164.84,571.31 L 164.98,571.06 L 165.14,570.45 L 165.19,570.19 L 165.60,570.11 L 166.37,570.02 L 167.55,569.75 L 169.03,569.43 L 169.48,569.35 L 172.05,568.66 L 173.57,568.29 L 174.28,568.14 L 175.11,567.91 L 176.62,567.50 L 176.97,567.47 L 176.31,573.51 L 181.44,574.18 L 182.63,573.99 L 183.42,573.78 L 184.02,573.43 L 185.53,573.40 L 186.38,573.48 L 186.76,573.56 L 187.20,573.63 L 187.22,572.48 L 187.22,572.09 L 187.22,571.74 L 187.26,571.41 L 187.30,571.00 L 187.26,570.65 L 187.24,570.28 L 188.13,570.45 L 188.52,570.47 L 189.27,570.50 L 190.09,570.51 L 190.51,570.53 L 190.91,570.62 L 191.04,571.35 L 191.22,572.45 L 191.32,573.18 L 191.42,573.56 L 192.58,574.17 L 193.28,574.51 L 193.65,574.71 L 193.94,574.89 L 194.51,575.34 L 194.52,575.75 L 194.49,576.47 L 194.40,577.96 L 194.36,578.33 L 194.26,579.07 L 194.20,579.81 L 194.18,580.19 L 195.63,580.77 L 196.32,580.99 L 197.15,581.18 L 197.50,581.27 L 199.03,581.70 L 200.98,582.28 L 201.32,582.37 L 203.05,582.99 L 203.87,583.31 L 204.91,583.55 L 204.82,584.00 L 204.71,584.40 L 205.06,584.54 L 205.68,584.80 L 206.75,585.09 L 207.90,585.43 L 208.24,585.56 L 209.39,585.87 L 210.20,586.19 L 210.59,586.19 L 211.37,586.30 L 211.77,586.35 L 212.51,586.56 L 212.83,586.62 L 212.88,586.61 L 213.09,586.58 L 213.49,586.59 L 213.71,586.66 L 213.95,586.75 L 214.15,586.84 L 214.27,586.86 L 214.61,586.89 L 214.96,586.97 L 215.37,587.09 L 215.86,587.23 L 216.24,587.38 L 216.76,587.63 L 217.25,587.86 L 217.69,588.07 L 217.79,588.12 L 218.14,588.27 L 219.45,588.80 L 220.13,589.08 L 220.78,589.35 L 221.28,589.50 L 221.33,589.50 L 221.85,589.67 L 222.27,589.87 L 222.49,589.98 L 222.85,590.00 L 224.44,589.92 L 224.51,589.83 L 224.65,589.65 L 225.20,588.74 L 226.36,586.29 L 226.87,585.35 L 227.07,585.02 L 227.42,584.27 L 227.56,583.94 L 227.74,583.60 L 228.31,582.62 L 228.51,582.25 L 228.87,581.63 L 229.26,581.00 L 229.58,580.36 L 230.12,579.40 L 230.31,579.05 L 230.60,578.32 L 230.80,577.61 L 231.05,577.30 L 231.27,577.02 L 231.51,576.72 L 231.66,576.38 L 231.69,575.93 L 231.59,575.57 L 231.51,575.26 L 231.40,574.84 L 231.25,574.11 L 231.16,573.73 L 231.06,573.03 L 230.91,572.37 L 230.77,571.26 L 230.67,570.49 L 230.50,569.45 L 230.38,568.78 L 230.35,568.38 L 230.32,567.37 L 230.43,566.27 L 230.52,565.55 L 230.70,564.19 L 231.42,564.01 L 232.20,563.88 L 232.33,563.86 L 232.85,563.89 L 233.09,563.66 L 233.30,563.38 L 233.51,562.99 L 233.71,562.69 L 234.13,562.11 L 234.62,561.43 L 234.83,561.15 L 235.31,560.43 L 235.58,560.00 L 236.00,559.42 L 236.42,558.76 L 236.78,558.07 L 237.03,557.70 L 237.59,556.88 L 238.23,556.03 L 238.50,555.73 L 238.63,555.58 L 239.41,555.62 L 240.52,555.62 L 241.16,555.54 L 242.93,555.33 L 243.94,555.00 L 244.89,554.72 L 245.32,554.51 L 246.38,554.01 L 247.07,553.64 L 247.29,553.50 L 247.79,553.06 L 248.18,552.92 L 248.50,552.54 L 248.59,551.95 L 248.66,551.59 L 248.82,551.20 L 249.27,550.49 L 249.53,549.90 L 249.76,549.29 L 250.14,548.51 L 250.42,547.96 L 250.75,547.39 L 251.12,546.81 L 251.13,546.80 L 251.53,546.35 L 251.98,545.89 L 252.31,545.59 L 253.10,544.96 L 253.50,544.63 L 253.83,544.28 L 254.17,543.85 L 254.87,543.02 L 255.64,542.09 L 256.18,541.37 L 256.50,540.95 L 256.70,540.65 L 257.14,539.98 L 257.45,539.39 L 257.67,539.00 L 258.41,538.04 L 258.74,537.72 L 259.06,537.54 L 260.18,537.60 L 261.78,537.55 L 262.74,537.61 L 264.68,537.51 L 265.48,537.54 L 265.96,537.56 L 266.03,538.09 L 265.96,538.78 L 265.91,539.13 L 265.92,539.27 L 266.04,539.56 L 266.18,539.78 L 266.42,539.79 L 266.72,539.72 L 266.94,539.71 L 267.30,539.96 L 267.50,540.16 L 267.70,540.34 L 267.93,540.51 L 268.68,540.53 L 268.91,540.57 L 269.14,540.75 L 269.29,541.03 L 269.48,541.33 L 269.61,541.50 L 269.82,541.60 L 270.09,541.52 L 270.36,541.34 L 270.70,541.03 L 271.24,540.60 L 271.33,540.56 L 271.72,540.80 L 272.15,541.37 L 272.44,541.75 L 272.94,542.25 L 273.53,542.56 L 273.94,542.76 L 274.20,542.98 L 274.49,543.28 L 274.71,543.63 L 274.99,543.94 L 275.54,544.25 L 275.97,544.34 L 277.08,544.17 L 277.62,544.11 L 277.91,544.08 L 278.43,543.99 L 278.72,543.81 L 279.00,543.58 L 279.21,543.49 L 279.62,543.57 L 280.30,543.84 L 280.47,543.86 L 280.74,543.87 L 280.85,543.89 L 281.03,543.95 L 281.26,544.06 L 281.46,544.11 L 281.62,544.18 L 281.82,544.27 L 282.58,544.52 L 282.79,544.62 L 282.95,544.64 L 283.12,544.69 L 283.34,544.76 L 283.57,544.82 L 283.71,544.84 L 283.93,544.87 L 284.19,544.86 L 284.44,544.89 L 284.53,544.92 L 284.69,544.99 L 284.89,545.08 L 285.13,545.21 L 285.14,545.23 L 285.68,545.24 L 286.41,545.40 L 287.27,545.60 L 287.71,545.68 L 288.66,546.02 L 289.03,546.14 L 289.33,546.48 L 289.48,546.89 L 290.02,548.28 L 290.48,549.55 L 290.74,550.01 L 291.10,550.39 L 291.47,550.65 L 292.16,551.05 L 292.42,551.19 L 292.65,551.31 L 295.26,552.50 L 295.77,552.78 L 296.31,553.07 L 296.93,553.42 L 297.55,553.88 L 298.82,554.68 L 299.84,555.36 L 300.72,555.99 L 302.28,556.85 L 302.85,557.19 L 303.47,557.62 L 304.30,558.23 L 305.14,558.79 L 306.70,559.80 L 307.70,560.30 L 308.62,560.93 L 309.13,561.49 L 309.79,562.23 L 310.38,562.78 L 310.86,563.21 L 311.26,563.55 L 311.50,563.65 L 311.88,563.73 L 312.69,564.05 L 313.17,564.41 L 313.89,564.89 L 314.86,565.45 L 315.41,565.81 L 316.50,566.23 L 316.94,566.47 L 317.31,566.57 L 317.69,566.63 L 318.03,567.10 L 318.05,567.48 L 317.82,568.31 L 317.64,568.95 L 317.55,569.56 L 317.59,570.06 L 317.77,570.45 L 318.13,571.01 L 318.47,571.32 L 319.16,571.71 L 319.43,571.88 L 319.70,572.30 L 319.80,572.80 L 319.97,573.31 L 320.20,573.58 L 320.69,573.77 L 320.94,573.77 L 322.10,573.70 L 322.48,573.63 L 323.58,573.40 L 324.13,573.30 L 324.50,573.22 L 324.83,573.27 L 325.12,573.41 L 325.45,573.61 L 325.69,573.79 L 325.88,574.16 L 325.97,574.55 L 325.97,575.10 L 325.92,575.84 L 325.88,576.13 L 325.92,576.75 L 325.99,577.03 L 326.18,577.32 L 326.52,577.63 L 327.00,577.76 L 327.59,577.65 L 328.11,577.43 L 329.05,576.70 L 329.71,576.25 L 330.30,575.49 L 330.47,575.26 L 330.75,575.12 L 331.09,575.02 L 331.42,575.13 L 331.69,575.31 L 331.94,575.58 L 332.23,576.18 L 332.54,576.69 L 332.77,576.88 L 333.07,577.13 L 333.39,577.26 L 333.95,577.41 L 334.60,577.54 L 334.97,577.54 L 335.36,577.44 L 335.83,577.05 L 336.31,576.53 L 336.61,576.14 L 336.87,575.79 L 337.39,575.30 L 337.79,575.11 L 338.20,575.03 L 338.60,575.02 L 338.91,575.06 L 339.24,575.12 L 339.58,575.21 L 339.86,575.33 L 340.72,575.77 L 341.19,576.06 L 341.60,576.31 L 342.76,577.02 L 343.52,577.42 L 344.05,577.74 L 345.00,578.26 L 345.69,578.61 L 346.21,578.96 L 346.52,579.19 L 347.60,579.98 L 348.10,580.47 L 348.37,580.84 L 348.55,581.12 L 348.62,581.54 L 348.57,582.24 L 348.57,582.50 L 348.55,582.96 L 348.58,583.24 L 348.67,583.49 L 348.88,583.73 L 349.20,583.97 L 349.50,584.10 L 350.14,584.11 L 350.88,584.00 L 351.60,583.82 L 352.22,583.62 L 352.70,583.48 L 353.02,583.45 L 353.40,583.50 L 353.75,583.66 L 354.06,583.93 L 354.57,584.29 L 355.12,584.66 L 355.37,584.68 L 355.70,584.41 L 355.97,583.69 L 356.33,582.60 L 356.81,581.29 L 357.13,580.60 L 357.31,580.28 L 356.92,579.72 L 356.28,579.19 L 355.31,578.56 L 354.98,578.40 L 354.23,577.62 L 353.70,577.10 L 353.35,576.81 L 352.74,576.33 L 352.45,576.08 L 351.85,575.31 L 351.37,574.76 L 350.77,574.23 L 350.22,573.68 L 349.72,573.04 L 349.33,572.40 L 349.15,572.04 L 348.54,571.80 L 348.12,571.68 L 347.42,571.33 L 346.80,570.93 L 345.84,570.22 L 345.10,569.62 L 344.65,568.99 L 344.38,568.63 L 343.89,568.01 L 343.70,567.78 L 343.41,567.53 L 343.09,567.30 L 342.74,567.08 L 342.41,566.89 L 341.96,566.67 L 341.67,566.56 L 341.33,566.37 L 340.38,565.82 L 339.75,565.43 L 338.84,564.77 L 338.31,564.23 L 337.93,563.65 L 337.77,563.17 L 337.75,562.93 L 337.66,562.37 L 337.65,561.48 L 337.59,560.94 L 337.48,560.39 L 337.20,559.63 L 337.14,559.24 L 336.97,558.58 L 336.89,558.24 L 336.65,557.18 L 336.56,556.52 L 336.49,555.83 L 336.36,555.43 L 336.14,555.08 L 335.84,554.55 L 335.15,553.77 L 334.88,553.47 L 334.65,553.24 L 334.18,552.90 L 333.48,552.66 L 332.90,552.41 L 332.37,552.16 L 332.05,551.98 L 331.70,551.77 L 331.45,551.50 L 331.07,551.06 L 330.86,550.83 L 330.72,550.61 L 330.71,550.23 L 330.71,549.89 L 330.90,549.36 L 330.92,549.08 L 330.87,548.91 L 330.91,548.44 L 331.07,547.77 L 331.34,547.13 L 331.57,546.67 L 331.99,546.07 L 332.20,545.70 L 332.31,545.23 L 332.50,544.64 L 332.70,544.20 L 333.09,543.73 L 333.65,543.25 L 334.20,542.85 L 334.96,542.33 L 335.77,541.74 L 336.50,541.33 L 337.18,541.03 L 337.75,540.55 L 338.81,539.50 L 339.11,539.26 L 339.86,538.40 L 340.43,537.43 L 341.21,536.11 L 341.84,535.12 L 342.53,533.91 L 343.05,533.08 L 343.53,532.43 L 344.12,531.47 L 344.35,531.19 L 344.03,530.69 L 343.70,530.14 L 343.44,529.27 L 343.18,528.45 L 342.93,527.65 L 342.91,527.08 L 343.18,526.60 L 343.32,526.38 L 344.08,526.58 L 344.39,526.76 L 346.25,527.82 L 346.66,528.08 L 348.03,528.88 L 348.80,529.22 L 349.34,529.51 L 351.77,530.75 L 353.57,531.58 L 354.20,531.86 L 354.78,531.89 L 355.41,531.92 L 356.32,533.02 L 356.86,533.65 L 358.15,535.00 L 358.60,535.40 L 358.83,535.19 L 359.20,535.29 L 360.00,535.78 L 360.47,536.05 L 361.21,536.52 L 361.79,536.88 L 362.47,537.26 L 362.85,537.39 L 363.29,537.56 L 364.16,537.91 L 364.69,538.01 L 365.36,538.23 L 367.98,539.30 L 368.73,539.66 L 370.13,540.57 L 371.20,541.23 L 372.17,542.12 L 372.80,542.55 L 373.56,542.89 L 374.13,543.15 L 375.09,543.61 L 375.41,543.72 L 376.12,542.88 L 376.83,542.03 L 377.27,541.49 L 377.66,540.84 L 377.81,540.52 L 377.96,540.11 L 378.03,539.79 L 378.26,539.05 L 378.48,538.12 L 378.69,537.42 L 378.79,537.06 L 378.94,536.32 L 379.14,535.58 L 379.21,535.21 L 379.33,534.88 L 379.51,534.21 L 379.62,533.82 L 379.75,533.53 L 380.50,533.81 L 381.26,534.09 L 382.21,534.11 L 382.99,534.23 L 384.83,534.32 L 385.28,534.34 L 385.74,534.47 L 386.15,534.42 L 387.36,534.60 L 388.44,534.64 L 388.97,534.64 L 390.90,534.93 L 392.12,535.10 L 392.88,535.15 L 393.74,535.27 L 394.93,535.38 L 396.23,535.55 L 397.55,535.64 L 398.32,535.80 L 399.59,535.80 L 399.94,535.88 L 400.75,535.95 L 401.65,536.07 L 402.59,536.05 L 403.76,536.26 L 404.60,536.28 L 405.47,536.36 L 405.90,536.48 L 406.31,536.46 L 407.20,536.54 L 408.10,536.52 L 409.19,536.68 L 410.08,536.79 L 410.56,536.82 L 411.11,536.85 L 412.66,537.01 L 413.07,537.05 L 413.52,537.15 L 414.40,537.22 L 414.93,537.21 L 415.70,537.28 L 416.16,537.42 L 416.97,537.47 L 417.38,537.42 L 417.85,537.51 L 418.28,537.55 L 418.79,537.49 L 419.74,537.68 L 420.62,537.76 L 421.53,537.92 L 422.04,538.00 L 423.28,538.21 L 424.12,538.33 L 424.96,538.43 L 425.82,538.70 L 426.62,538.80 L 426.99,538.93 L 427.41,538.97 L 427.85,538.98 L 428.66,539.23 L 429.29,539.37 L 429.88,539.57 L 430.83,538.68 L 431.73,537.79 L 432.46,536.76 L 433.11,535.72 L 433.54,534.68 L 433.78,533.50 L 434.54,531.88 L 434.70,530.13 L 434.84,529.02 L 435.20,528.33 L 435.24,527.82 L 435.81,526.70 L 436.95,525.78 L 438.20,525.28 L 440.12,523.82 L 440.51,523.15 L 440.47,522.46 L 440.37,520.96 L 440.28,520.05 L 440.26,518.80 L 440.15,517.86 L 439.82,516.93 L 439.37,516.13 L 439.25,515.36 L 439.34,514.15 L 439.66,512.95 L 439.93,511.91 L 440.06,511.05 L 439.99,510.12 L 439.04,508.78 L 438.71,507.93 L 437.98,506.98 L 437.55,506.09 L 436.97,505.33 L 436.59,504.43 L 435.67,503.06 L 434.86,501.70 L 434.61,501.12 L 434.54,500.24 L 434.72,499.39 L 435.19,498.68 L 435.67,498.07 L 436.03,497.19 L 436.36,496.38 L 436.89,495.68 L 437.48,495.09 L 438.19,494.63 L 439.00,493.89 L 439.68,492.98 L 439.99,492.02 L 439.82,490.96 L 439.64,490.43 L 439.46,489.90 L 438.95,488.52 L 438.48,487.67 L 438.04,486.63 L 437.92,486.35 L 437.75,486.03 L 437.46,485.17 L 437.43,484.83 L 437.54,484.05 L 437.68,483.65 L 437.90,483.26 L 438.26,482.54 L 438.80,481.87 L 439.52,481.23 L 439.83,481.01 L 440.20,480.70 L 440.99,480.24 L 441.34,480.09 L 442.04,479.57 L 442.70,479.14 L 443.39,478.71 L 443.63,478.43 L 443.95,478.12 L 444.21,477.38 L 444.43,476.22 L 444.46,475.38 L 444.46,474.55 L 444.49,473.73 L 444.54,472.93 L 444.58,472.57 L 444.67,472.20 L 444.83,471.77 L 444.89,471.41 L 444.92,471.28 L 445.01,471.01 L 445.15,470.61 L 445.39,470.31 L 445.52,470.21 L 445.76,470.01 L 446.11,469.22 L 446.45,468.45 L 446.70,468.08 L 447.04,467.28 L 447.19,466.89 L 447.36,466.48 L 447.60,465.64 L 447.70,464.88 L 447.78,464.02 L 447.83,463.60 L 447.86,463.21 L 447.85,462.90 L 447.90,461.68 L 447.97,460.80 L 447.98,460.08 L 447.94,459.27 L 448.04,458.43 L 448.14,457.63 L 448.23,456.84 L 448.31,456.47 L 448.46,456.03 L 448.58,455.60 L 448.90,454.79 L 449.25,454.08 L 449.40,453.73 L 449.57,452.96 L 449.64,452.52 L 449.81,451.79 L 449.89,451.35 L 449.89,451.00 L 449.95,450.59 L 450.06,450.17 L 450.31,449.37 L 450.60,448.61 L 450.84,447.86 L 451.08,447.45 L 451.33,446.68 L 451.52,445.95 L 451.64,445.54 L 451.74,445.16 L 452.10,444.47 L 452.33,444.11 L 452.54,443.72 L 453.15,443.14 L 453.46,442.84 L 454.21,442.33 L 454.49,442.17 L 454.76,441.85 L 455.21,441.14 L 455.62,440.41 L 455.93,439.66 L 456.33,438.93 L 456.75,438.17 L 457.20,437.50 L 457.65,437.30 L 458.10,437.37 L 458.97,437.65 L 459.75,437.76 L 460.66,437.90 L 461.59,438.10 L 462.49,438.25 L 463.47,438.44 L 464.33,438.57 L 464.72,438.69 L 465.24,438.77 L 466.17,439.02 L 467.14,439.19 L 467.55,439.24 L 468.44,439.46 L 469.27,439.62 L 470.18,439.72 L 470.64,439.80 L 471.04,439.89 L 471.46,439.89 L 472.34,439.72 L 472.71,439.69 L 473.48,439.44 L 473.79,439.27 L 474.05,438.99 L 474.18,438.63 L 474.01,437.74 L 473.90,436.90 L 473.73,435.64 L 473.65,435.37 L 473.72,435.02 L 474.03,434.78 L 474.78,434.43 L 475.51,433.99 L 476.24,433.54 L 476.86,433.07 L 477.55,432.66 L 478.35,432.16 L 479.05,431.76 L 479.74,431.29 L 480.44,430.95 L 480.71,430.58 L 481.07,430.26 L 481.47,430.02 L 482.00,430.01 L 482.33,430.32 L 482.98,430.73 L 483.65,431.23 L 484.03,431.44 L 484.44,431.56 L 485.18,431.98 L 486.70,432.84 L 487.47,433.12 L 487.50,433.13 L 488.40,433.27 L 489.41,434.02 L 490.03,434.64 L 490.67,435.04 L 491.39,435.44 L 491.78,435.55 L 492.17,435.75 L 492.93,436.08 L 493.37,436.15 L 493.80,436.28 L 494.68,436.41 L 495.04,436.44 L 495.44,436.48 L 495.86,436.54 L 496.81,436.51 L 497.21,436.49 L 497.68,436.50 L 498.11,436.35 L 498.60,436.32 L 499.08,436.25 L 500.12,435.70 L 500.54,435.55 L 501.28,435.09 L 501.70,434.91 L 502.11,434.82 L 502.97,434.41 L 503.50,434.29 L 504.37,434.20 L 505.19,434.20 L 506.09,434.24 L 506.45,434.22 L 507.27,434.19 L 508.10,434.12 L 508.46,433.98 L 508.94,433.92 L 509.33,433.80 L 509.85,433.76 L 510.64,433.44 L 511.38,433.15 L 512.01,432.77 L 512.42,432.59 L 512.81,432.43 L 513.54,431.99 L 513.84,431.71 L 514.20,431.55 L 514.68,431.44 L 514.94,431.37 L 515.20,431.31 L 515.61,431.26 L 515.99,431.19 L 516.37,431.37 L 516.76,431.61 L 517.14,431.86 L 517.46,432.12 L 517.81,432.43 L 518.39,433.03 L 518.86,433.57 L 519.37,434.21 L 519.85,434.87 L 520.38,435.53 L 520.94,436.05 L 521.50,436.53 L 522.21,437.11 L 523.15,437.67 L 523.51,437.86 L 523.93,437.88 L 524.34,437.91 L 524.75,438.06 L 525.51,438.27 L 525.89,438.32 L 526.35,438.29 L 526.75,438.41 L 527.16,438.55 L 528.02,438.79 L 529.05,438.89 L 530.08,438.87 L 530.45,438.31 L 531.35,436.73 L 532.40,433.91 L 532.49,432.73 L 531.92,431.16 L 530.78,428.99 L 528.68,426.37 L 527.17,424.22 L 526.70,423.78 L 526.04,423.22 L 525.43,422.71 L 524.73,422.20 L 524.05,421.63 L 523.40,421.20 L 522.61,420.76 L 521.81,420.39 L 521.48,420.21 L 521.09,420.05 L 520.66,419.92 L 520.35,419.73 L 519.53,419.48 L 519.07,419.30 L 518.19,419.03 L 517.54,418.80 L 517.12,418.57 L 516.74,418.37 L 516.30,418.20 L 515.91,418.04 L 515.60,417.82 L 515.23,417.57 L 514.86,417.31 L 514.52,417.02 L 514.25,416.60 L 513.80,415.91 L 513.61,415.54 L 513.38,414.77 L 513.29,414.33 L 513.10,413.53 L 513.02,413.15 L 512.98,412.87 L 513.08,412.45 L 513.18,411.69 L 513.26,411.30 L 513.65,411.03 L 513.89,410.81 L 514.22,410.46 L 514.57,410.27 L 515.03,410.00 L 515.46,409.95 L 515.88,409.79 L 516.19,409.66 L 516.55,409.54 L 516.92,409.36 L 517.25,409.12 L 517.58,408.91 L 517.93,408.74 L 518.30,408.52 L 518.68,408.40 L 519.84,407.81 L 520.21,407.60 L 520.91,407.23 L 521.73,406.85 L 522.06,406.59 L 522.80,406.06 L 525.23,405.49 L 526.03,404.84 L 526.59,404.36 L 526.82,404.17 L 527.18,403.88 L 530.72,400.45 L 533.36,398.50 L 536.40,396.43 L 537.37,395.52 L 538.70,394.06 L 539.68,393.22 L 540.73,392.38 L 541.55,392.01 L 542.44,392.01 L 543.88,392.54 L 545.06,392.75 L 545.75,393.00 L 547.53,394.20 L 548.45,394.95 L 549.14,395.47 L 550.09,396.15 L 551.70,397.15 L 552.91,397.97 L 552.74,397.66 L 552.06,395.81 L 551.40,393.61 L 550.81,391.69 L 550.66,391.21 L 549.78,387.97 L 549.50,387.37 L 549.33,387.01 L 549.08,386.35 L 548.92,385.96 L 548.56,385.07 L 548.21,384.17 L 547.96,383.32 L 547.76,382.85 L 547.62,382.41 L 547.30,381.65 L 546.94,380.81 L 546.69,380.15 L 546.51,379.80 L 546.26,379.38 L 545.94,378.83 L 545.66,378.40 L 545.22,377.78 L 544.79,377.18 L 544.47,376.80 L 544.19,376.48 L 543.85,376.13 L 543.57,375.82 L 542.98,375.21 L 542.61,374.82 L 542.24,374.51 L 541.72,373.93 L 541.29,373.48 L 540.92,373.07 L 540.10,372.26 L 539.76,371.94 L 539.65,371.77 L 539.67,370.34 L 539.80,368.81 L 540.43,366.02 L 540.79,364.55 L 541.30,363.24 L 541.48,363.24 L 541.55,363.07 L 541.55,363.07 L 545.18,363.00 L 549.66,363.03 L 551.97,363.19 L 552.35,363.21 L 556.18,363.52 L 559.33,363.58 L 564.09,363.58 L 567.37,363.25 L 571.21,362.78 L 573.93,362.68 L 577.05,362.85 L 579.76,362.94 L 580.28,362.95 L 580.60,362.27 L 580.85,361.46 L 582.13,358.91 L 583.17,355.44 L 584.41,350.93 L 585.11,347.21 L 585.49,346.08 L 583.35,345.48 L 582.02,345.04 L 581.04,344.84 L 580.10,344.77 L 579.67,344.75 L 579.54,344.38 L 579.53,343.46 L 579.57,342.90 L 579.55,342.48 L 579.51,342.03 L 579.51,341.60 L 579.56,341.17 L 579.63,340.30 L 579.71,339.43 L 579.70,338.92 L 579.77,338.69 L 579.84,338.49 L 579.84,338.17 L 579.79,337.89 L 579.63,337.55 L 579.40,337.09 L 579.27,336.80 L 579.24,336.57 L 579.23,336.34 L 579.27,336.23 L 579.56,336.02 L 579.83,335.83 L 579.92,335.63 L 579.94,335.47 L 579.88,335.29 L 579.73,335.09 L 579.23,334.67 L 579.11,334.47 L 579.08,334.34 L 579.06,334.11 L 579.09,333.35 L 579.08,333.10 L 579.05,332.95 L 578.98,332.82 L 578.85,332.64 L 578.78,332.48 L 578.77,332.35 L 578.76,332.07 L 578.79,331.69 L 578.78,331.57 L 578.74,331.46 L 578.56,331.30 L 578.10,331.00 L 577.92,330.89 L 577.72,330.63 L 577.60,330.44 L 577.35,329.94 L 577.33,329.72 L 577.24,328.80 L 577.29,327.96 L 577.41,327.13 L 577.52,326.47 L 577.56,326.33 L 577.71,326.03 L 577.88,325.54 L 578.03,325.12 L 578.09,324.87 L 578.11,324.47 L 578.09,323.53 L 578.02,323.08 L 577.91,322.78 L 577.79,322.53 L 577.64,322.30 L 577.82,320.38 L 577.85,319.78 L 577.87,319.61 L 577.91,319.34 L 578.05,318.37 L 578.29,316.73 L 578.51,315.32 L 578.63,314.62 L 579.02,313.94 L 579.35,313.63 L 579.79,313.17 L 579.87,313.17 L 580.03,313.01 L 581.24,313.05 L 581.60,312.85 L 582.91,311.04 L 584.33,309.20 L 585.30,307.24 L 586.07,305.63 L 587.03,303.72 L 587.38,303.02 L 587.50,302.60 L 587.89,302.20 L 587.98,302.19 L 588.13,302.04 L 588.46,302.01 L 589.94,302.61 L 591.07,302.88 L 591.78,303.08 L 592.61,303.68 L 593.46,304.28 L 594.07,304.56 L 594.80,304.52 L 595.72,304.39 L 597.01,303.69 L 598.17,302.82 L 598.48,302.59 L 598.60,302.44 L 598.68,301.73 L 598.30,301.01 L 598.08,300.19 L 598.29,298.92 L 598.39,297.96 L 598.75,296.49 L 599.25,294.56 L 599.65,293.01 L 599.95,290.71 L 600.16,288.60 L 600.40,284.83 L 600.72,281.20 L 600.85,279.37 L 600.86,278.16 L 601.03,277.25 L 601.24,274.35 L 601.43,272.37 L 601.75,268.85 L 601.82,266.67 L 601.82,266.64 L 601.81,266.52 L 601.68,265.33 L 601.10,263.43 L 600.68,262.03 L 600.75,261.04 L 600.97,259.89 L 601.52,258.22 L 602.14,255.78 L 602.30,254.44 L 601.99,252.28 L 601.82,251.29 L 601.90,250.64 L 601.40,249.72 L 601.40,249.13 L 601.00,248.22 L 600.01,246.47 L 599.05,244.58 L 598.79,244.08 L 597.30,243.59 L 596.03,243.56 L 595.07,243.53 L 593.57,243.30 L 592.79,243.37 L 591.62,243.50 L 590.56,243.77 L 589.75,244.01 L 589.29,244.01 L 588.28,243.96 L 587.38,243.90 L 587.21,243.86 L 587.28,242.89 L 587.53,240.88 L 588.00,238.11 L 588.45,235.26 L 588.75,233.29 L 589.09,230.49 L 589.59,228.12 L 589.83,226.32 L 590.19,224.45 L 590.32,222.55 L 590.52,220.86 L 590.48,219.42 L 590.13,218.83 L 589.44,218.11 L 588.74,217.88 L 588.06,217.98 L 587.53,218.15 L 587.17,218.29 L 586.56,218.28 L 585.65,218.23 L 584.97,218.30 L 584.93,218.30 L 584.57,218.58 L 584.09,219.18 L 583.63,219.73 L 583.51,219.83 L 583.32,219.99 L 582.99,220.02 L 582.69,219.89 L 582.45,219.42 L 582.30,218.72 L 582.26,218.13 L 581.94,217.06 L 581.64,216.37 L 581.40,216.14 L 580.91,215.88 L 580.24,215.88 L 579.57,215.93 L 579.56,215.93 L 579.38,216.06 L 579.15,216.22 L 578.16,216.63 L 577.98,216.71 L 577.10,217.02 L 575.88,217.33 L 575.06,217.41 L 574.12,217.38 L 573.50,217.28 L 572.72,217.00 L 570.50,216.20 L 569.33,215.78 L 567.66,215.09 L 566.01,213.97 L 564.75,212.96 L 564.36,212.45 L 564.34,212.12 L 564.22,211.40 L 564.31,210.42 L 563.67,210.37 L 563.29,210.16 L 562.76,210.20 L 561.90,210.58 L 557.97,212.89 L 556.02,214.15 L 554.60,215.03 L 554.56,214.62 L 554.36,213.04 L 554.23,211.24 L 554.11,209.79 L 553.12,209.20 L 552.69,209.05 L 552.66,209.04 L 552.41,209.24 L 550.94,211.02 L 550.04,212.19 L 550.46,213.00 L 551.24,214.50 L 551.38,214.90 L 551.47,215.15 L 550.66,214.92 L 550.05,214.79 L 549.09,214.53 L 549.04,214.52 L 548.18,215.28 L 548.18,215.28 L 547.99,215.46 L 547.87,215.41 L 547.47,215.12 L 547.17,214.92 L 546.97,214.94 L 546.92,214.95 L 546.83,215.02 L 546.67,215.16 L 546.44,215.23 L 546.17,215.21 L 546.01,215.02 L 545.49,214.45 L 545.06,213.95 L 544.17,213.90 L 541.92,214.07 L 541.37,214.04 L 541.34,212.95 L 541.27,212.34 L 541.45,212.12 L 541.66,211.97 L 541.69,211.77 L 541.67,211.24 L 541.63,210.30 L 541.54,208.78 L 541.55,208.63 L 541.43,208.66 L 541.43,208.66 L 541.31,208.74 L 541.08,208.90 L 540.69,209.10 L 540.27,209.10 L 539.94,209.08 L 539.61,208.92 L 539.50,208.94 L 539.39,208.95 L 539.10,209.27 L 538.07,210.43 L 538.05,210.45 L 537.89,210.59 L 537.39,210.61 L 536.91,210.54 L 536.73,210.52 L 536.19,212.17 L 536.01,212.51 L 535.89,212.75 L 535.23,212.28 L 535.20,212.25 L 534.05,211.35 L 532.99,210.41 L 532.82,210.27 L 532.89,209.48 L 533.01,208.12 L 533.05,207.54 L 531.91,207.56 L 531.90,207.56 L 531.69,207.64 L 531.56,208.00 L 531.45,208.56 L 531.42,209.13 L 531.33,210.35 L 531.14,210.50 L 530.96,210.64 L 530.14,210.93 L 528.88,211.25 L 526.94,211.96 L 526.73,211.95 L 526.64,210.48 L 525.75,209.59 L 525.25,208.99 L 524.07,207.68 L 523.49,207.13 L 522.15,205.97 L 522.02,205.82 L 520.33,206.17 L 520.13,206.21 L 519.99,206.60 L 519.72,207.46 L 519.14,208.68 L 518.36,209.72 L 517.46,210.73 L 517.39,210.81 L 517.27,210.89 L 515.21,211.13 L 512.74,211.37 L 512.07,211.41 L 511.91,209.89 L 511.74,209.02 L 511.25,207.68 L 511.12,207.41 L 510.28,205.75 L 509.32,204.18 L 508.14,201.81 L 505.11,203.19 L 504.95,203.26 L 504.96,203.20 L 505.30,202.82 L 505.64,202.05 L 505.66,201.74 L 505.71,201.18 L 505.92,200.45 L 506.63,199.87 L 506.90,199.58 L 507.00,198.88 L 507.31,198.46 L 507.38,198.11 L 507.14,197.89 L 506.49,197.79 L 505.61,198.02 L 505.13,197.86 L 504.69,197.66 L 503.95,198.07 L 502.31,198.84 L 501.29,198.84 L 500.85,198.97 L 499.93,199.26 L 499.38,199.48 L 498.57,199.83 L 497.80,199.86 L 497.69,199.30 L 497.49,198.78 L 497.36,198.29 L 497.05,197.94 L 496.48,197.46 L 495.75,197.08 L 495.48,197.01 L 495.04,196.89 L 494.24,196.73 L 493.76,196.64 L 493.37,196.61 L 492.91,196.61 L 492.76,196.68 L 492.71,196.72 L 492.66,196.83 L 492.66,196.83 L 492.60,196.79 L 492.46,196.88 L 492.41,196.99 L 489.52,194.76 L 486.26,192.15 L 484.71,191.03 L 480.79,188.20 L 480.22,187.46 L 478.10,187.00 L 476.38,186.54 L 474.35,186.11 L 473.00,186.04 L 471.41,185.88 L 469.97,185.46 L 467.70,184.81 L 467.67,184.82 L 461.87,183.28 L 460.76,183.05 L 459.43,182.75 L 458.70,182.42 L 458.65,182.40 L 457.33,182.15 L 455.15,181.57 L 453.07,181.15 L 451.92,180.89 L 450.42,180.70 L 449.64,180.48 L 449.03,180.29 L 448.55,179.68 L 448.48,179.60 L 448.43,179.55 L 448.18,179.26 L 445.03,179.22 L 444.01,179.00 L 443.05,178.80 L 441.61,178.51 L 439.84,178.22 L 438.25,177.90 L 438.04,177.81 L 437.36,177.98 L 436.80,177.76 L 436.06,177.71 L 434.88,177.98 L 433.42,178.41 L 431.03,179.20 L 428.88,179.92 L 427.12,180.05 L 425.25,179.88 L 421.08,179.40 L 419.91,179.29 L 419.35,179.22 L 417.26,178.95 L 415.89,178.76 L 412.84,178.48 L 410.45,178.21 L 409.91,178.11 L 409.94,178.07 L 411.05,176.61 L 412.45,175.51 L 412.91,174.73 L 413.27,173.67 L 414.34,171.63 L 415.22,170.10 L 415.86,169.34 L 415.87,169.14 L 416.00,168.71 L 416.22,168.24 L 416.61,167.71 L 417.03,166.82 L 417.45,165.84 L 417.75,164.83 L 417.92,163.83 L 418.10,162.83 L 418.27,161.83 L 418.41,160.82 L 418.49,159.81 L 418.63,158.81 L 418.73,157.81 L 418.84,156.81 L 418.95,155.81 L 419.07,154.80 L 419.15,153.81 L 419.27,152.83 L 419.41,151.88 L 419.58,150.93 L 419.78,150.00 L 420.02,149.09 L 420.17,148.17 L 420.40,147.47 L 419.32,147.78 L 417.81,148.42 L 416.83,148.61 L 416.56,146.69 L 416.22,145.65 L 415.86,145.31 L 415.47,144.99 L 414.18,144.03 L 413.54,143.28 L 413.76,142.91 L 414.02,142.18 L 413.80,141.91 L 413.81,141.90 L 414.79,140.78 L 413.85,139.51 L 413.84,139.43 L 414.10,139.35 L 414.07,139.08 L 414.06,139.01 L 414.12,138.93 L 414.35,138.92 L 415.45,137.64 L 415.63,137.16 L 415.67,137.07 L 415.82,136.68 L 416.77,135.08 L 417.01,133.93 L 417.55,132.47 L 418.06,131.60 L 418.28,131.50 L 418.31,131.44 L 419.16,131.03 L 419.73,130.87 L 420.52,130.90 L 421.37,130.98 L 421.56,130.14 L 422.83,124.61 L 422.79,123.77 L 422.73,123.45 L 422.08,123.01 L 420.72,122.07 L 419.73,120.92 L 419.29,119.81 L 419.02,118.20 L 418.65,117.02 L 418.98,114.98 L 418.71,113.67 L 418.70,113.63 L 418.66,113.52 L 418.27,112.45 L 418.13,111.25 L 417.69,110.49 L 417.51,110.30 L 417.29,110.14 L 416.75,110.01 L 415.98,109.97 L 415.36,109.99 L 414.80,109.99 L 414.42,109.94 L 414.25,109.85 L 413.96,109.62 L 413.90,109.38 L 413.82,108.98 L 413.85,108.79 L 413.90,108.35 L 414.04,107.88 L 414.38,106.97 L 414.56,106.24 L 414.57,105.64 L 414.36,104.83 L 414.22,104.26 L 413.89,103.56 L 414.20,103.54 L 414.13,103.41 L 414.71,103.37 L 415.36,103.34 L 416.36,103.25 L 417.38,103.21 L 417.91,103.19 L 417.83,102.21 L 417.78,101.34 L 418.04,101.33 L 418.03,101.19 L 419.65,101.13 L 421.31,101.23 L 422.05,101.35 L 422.42,100.74 L 422.91,99.80 L 423.21,99.36 L 423.52,98.96 L 424.29,98.15 L 425.35,97.11 L 425.58,96.64 L 425.72,95.50 L 425.89,93.89 L 425.94,93.64 L 426.39,90.92 L 426.39,90.87 L 426.56,90.29 L 426.68,89.72 L 426.63,89.17 L 426.59,88.64 L 426.40,87.14 L 426.30,86.56 L 426.27,86.07 L 426.72,85.03 L 427.27,83.58 L 427.77,82.45 L 427.79,82.40 L 426.32,82.09 L 424.20,81.98 L 421.35,81.65 L 419.50,81.20 L 418.38,80.97 L 416.64,80.64 L 415.00,80.40 L 412.85,79.75 L 411.25,79.09 L 409.12,78.23 L 406.41,77.17 L 403.77,76.22 L 402.09,75.79 L 400.92,75.48 L 398.23,74.71 L 396.55,74.28 L 395.44,73.91 L 394.31,73.64 L 392.56,73.43 L 390.71,73.41 L 390.69,73.23 L 390.51,71.84 L 389.98,70.23 L 389.42,68.67 L 389.15,67.82 L 388.69,66.60 L 388.70,66.41 L 388.77,65.48 L 388.81,64.54 L 388.89,63.81 L 388.98,63.08 L 387.46,61.58 L 386.29,60.41 L 385.83,59.99 L 384.62,58.85 L 383.42,57.61 L 382.58,56.80 L 381.32,55.65 L 380.51,54.90 L 379.56,54.06 L 378.85,53.27 L 378.39,52.81 L 377.63,51.95 L 376.80,51.10 L 376.02,50.23 L 375.32,49.45 L 374.65,48.76 L 374.16,48.19 L 373.80,47.79 L 373.66,47.66 L 373.50,47.62 L 372.87,47.40 L 371.82,47.05 L 370.69,46.68 L 369.58,46.29 L 368.49,45.93 L 366.80,45.39 L 365.12,44.85 L 363.47,44.34 L 362.36,43.98 L 361.20,43.60 L 360.18,43.27 L 358.97,42.88 L 357.39,42.37 L 356.25,42.01 L 355.73,41.83 L 354.24,41.29 L 353.53,41.02 L 352.45,40.50 L 351.46,40.02 L 350.96,39.83 L 350.25,39.57 L 349.50,39.35 L 348.62,39.15 L 348.01,39.05 L 347.44,38.95 L 346.75,38.84 L 346.26,38.79 L 345.72,38.76 L 344.46,38.73 L 343.32,38.72 L 342.22,38.68 L 340.96,38.57 L 340.33,38.53 L 339.82,38.48 L 339.14,38.42 L 338.52,38.31 L 337.62,38.11 L 336.93,37.90 L 335.39,37.38 L 333.16,36.59 L 332.09,36.21 L 331.49,36.02 L 330.89,35.81 L 330.29,35.65 L 329.84,35.53 L 329.72,35.52 L 329.56,35.55 L 329.14,35.66 L 328.83,35.73 L 328.13,35.78 L 327.71,35.72 L 327.27,35.59 L 327.04,35.43 L 326.46,35.11 L 326.04,34.84 L 325.52,34.55 L 325.05,34.24 L 324.50,33.83 L 324.15,33.56 L 323.77,33.25 L 323.53,33.03 L 323.20,32.70 L 322.86,32.33 L 322.54,31.89 L 322.28,31.65 L 322.12,31.51 L 321.92,31.39 L 321.52,31.19 L 320.95,30.93 L 320.84,30.85 L 320.79,30.74 L 320.71,30.62 L 320.69,30.53 L 320.69,30.42 L 320.74,30.17 L 320.80,29.68 L 320.86,29.06 L 320.88,28.42 L 320.85,27.78 L 320.84,27.45 L 320.70,26.88 L 320.67,26.52 L 320.61,26.29 L 320.55,26.08 L 320.32,25.28 L 320.07,24.58 L 319.92,24.19 L 319.72,23.79 L 319.68,23.67 L 319.67,23.58 L 319.63,23.19 L 319.55,22.17 L 319.50,21.42 L 319.37,19.86 L 319.27,18.73 L 319.17,17.54 L 319.10,16.57 L 319.01,15.89 L 318.70,16.27 L 318.35,16.70 L 317.67,17.54 L 317.23,18.03 L 316.90,18.42 L 316.15,19.30 L 315.79,19.72 L 315.07,20.52 L 314.63,21.01 L 313.90,21.83 L 313.22,22.59 L 312.78,23.11 L 312.02,23.97 L 311.72,24.27 L 311.34,24.61 L 311.14,24.72 L 311.09,24.77 L 310.52,25.08 L 310.16,25.21 L 309.86,25.24 L 309.31,25.26 L 308.97,25.27 L 308.77,25.22 L 308.10,25.07 L 307.56,24.95 L 306.98,24.81 L 305.89,24.56 L 304.69,24.29 L 303.51,24.02 L 302.41,23.77 L 301.32,23.54 L 300.16,23.27 L 299.14,23.06 L 298.89,23.01 L 298.42,22.82 L 297.39,22.43 L 295.75,21.79 L 294.62,21.34 L 293.54,20.96 L 292.95,20.73 L 291.96,20.33 L 291.29,20.11 L 290.59,19.91 L 290.36,19.85 L 289.45,19.62 L 288.29,19.32 L 287.23,19.02 L 286.10,18.72 L 284.92,18.40 L 283.79,18.11 L 283.13,17.94 L 282.95,17.56 L 282.74,17.12 L 282.59,16.74 L 282.50,16.61 L 282.37,16.47 L 281.71,15.61 L 280.98,14.71 L 280.36,13.83 L 279.65,12.84 L 279.08,11.96 L 278.53,11.11 L 277.82,10.02 Z" fill="#1d3672" stroke="#333" stroke-width="1"/>
</svg>