<svg xmlns="http://www.w3.org/2000/svg" width="800" height="600" viewBox="0 0 800 600">
<path d="M 590.36,26.41 L 589.47,21.94 L 585.74,22.97 L 581.86,23.89 L 579.51,24.66 L 579.56,24.71 L 579.19,24.83 L 580.49,25.97 L 581.97,26.82 L 581.67,29.09 L 581.54,29.27 L 579.13,30.07 L 578.34,30.37 L 578.11,30.41 L 577.81,30.40 L 577.51,30.35 L 577.31,30.30 L 577.11,30.44 L 576.99,30.44 L 576.01,31.11 L 575.10,31.74 L 574.04,32.47 L 573.27,32.97 L 572.60,33.26 L 570.46,34.07 L 568.64,34.80 L 566.61,35.48 L 563.37,36.72 L 562.02,37.19 L 560.86,37.55 L 560.78,37.62 L 560.55,37.69 L 560.01,38.19 L 558.62,39.21 L 557.33,40.30 L 555.93,41.29 L 554.48,42.02 L 554.36,41.78 L 554.11,41.61 L 554.04,41.61 L 553.05,41.58 L 551.67,41.40 L 550.33,39.62 L 549.38,38.05 L 548.92,36.78 L 548.73,36.62 L 547.62,36.59 L 547.36,36.62 L 547.39,36.74 L 547.30,36.74 L 547.04,36.77 L 547.25,37.61 L 547.56,39.47 L 548.17,40.33 L 548.80,41.41 L 548.79,42.00 L 548.54,42.92 L 547.62,44.80 L 546.25,46.97 L 544.36,49.09 L 542.63,51.42 L 540.46,53.58 L 538.35,55.72 L 537.03,56.55 L 534.83,56.64 L 532.22,56.68 L 528.05,56.85 L 525.19,56.73 L 524.01,56.74 L 524.01,56.88 L 523.69,56.88 L 523.72,58.02 L 523.64,58.80 L 522.47,58.89 L 520.31,58.99 L 516.59,58.80 L 513.63,58.98 L 513.33,57.57 L 512.92,56.13 L 512.37,54.42 L 511.80,53.28 L 511.11,51.96 L 510.76,51.25 L 509.92,49.66 L 509.33,48.57 L 508.44,47.28 L 507.77,46.63 L 507.08,46.02 L 506.43,45.84 L 505.37,45.82 L 502.53,45.79 L 501.35,45.82 L 498.90,45.83 L 497.45,45.84 L 496.37,45.90 L 496.47,46.02 L 496.05,46.04 L 497.70,47.93 L 498.79,48.85 L 500.97,50.82 L 502.90,52.62 L 502.96,52.82 L 502.88,58.45 L 502.95,61.72 L 503.27,65.54 L 503.28,65.99 L 503.36,66.51 L 503.90,67.88 L 503.97,68.50 L 504.04,74.37 L 504.00,76.51 L 503.86,78.13 L 503.94,78.51 L 504.29,79.65 L 504.40,80.28 L 504.69,81.83 L 504.81,83.45 L 505.26,85.13 L 505.86,88.75 L 506.25,90.92 L 506.34,93.14 L 506.76,95.80 L 506.62,97.34 L 506.47,98.54 L 506.47,98.58 L 506.74,100.92 L 507.18,103.23 L 507.58,106.57 L 508.04,109.29 L 508.77,112.54 L 509.15,114.86 L 509.80,118.34 L 509.73,118.85 L 509.19,121.06 L 508.69,121.97 L 507.53,123.82 L 505.33,128.53 L 504.71,130.91 L 504.13,133.43 L 503.64,137.85 L 502.93,140.96 L 502.38,144.30 L 502.02,147.88 L 500.64,152.62 L 500.53,155.77 L 500.39,162.34 L 501.16,172.38 L 501.39,176.13 L 501.12,177.59 L 501.31,180.65 L 501.47,181.86 L 501.62,182.24 L 501.37,182.79 L 501.23,183.86 L 501.22,186.08 L 501.15,186.60 L 500.40,188.00 L 499.89,188.56 L 498.18,190.16 L 496.92,191.09 L 495.72,191.80 L 495.62,191.86 L 494.43,192.36 L 494.15,192.47 L 493.52,193.07 L 492.99,193.99 L 491.86,195.51 L 491.02,196.37 L 490.50,196.84 L 489.85,197.54 L 489.69,197.70 L 488.67,198.58 L 488.41,198.81 L 487.31,199.48 L 485.89,200.19 L 485.61,200.33 L 484.72,200.55 L 483.61,200.65 L 481.90,200.14 L 480.67,199.46 L 479.91,199.46 L 479.52,199.56 L 479.43,199.58 L 478.33,200.19 L 478.15,200.29 L 477.02,200.72 L 476.19,200.66 L 474.63,200.69 L 473.81,200.89 L 473.64,200.93 L 471.76,202.34 L 471.08,203.43 L 470.46,204.79 L 469.67,205.93 L 469.25,206.42 L 468.87,206.66 L 468.74,206.74 L 467.76,207.07 L 467.72,207.08 L 466.34,207.74 L 463.50,209.53 L 462.75,210.04 L 459.82,212.29 L 458.34,213.45 L 456.95,214.42 L 456.84,214.47 L 456.74,214.52 L 456.43,214.67 L 455.60,215.56 L 455.51,215.66 L 452.79,216.32 L 451.14,216.29 L 449.59,216.17 L 447.78,216.42 L 447.65,216.44 L 446.62,217.13 L 445.72,218.00 L 445.23,218.76 L 444.74,219.51 L 443.57,221.49 L 442.81,222.64 L 442.32,223.11 L 440.48,224.21 L 440.35,224.28 L 437.79,225.30 L 437.74,225.32 L 436.43,225.96 L 436.13,226.10 L 434.50,226.58 L 432.87,227.05 L 430.62,227.47 L 429.66,227.74 L 427.54,228.48 L 426.17,229.09 L 422.75,230.38 L 419.17,231.80 L 417.58,232.37 L 416.42,232.72 L 414.85,232.75 L 413.93,232.48 L 413.28,232.18 L 411.51,231.44 L 410.03,230.56 L 406.95,228.93 L 405.53,227.99 L 404.62,227.68 L 402.50,227.07 L 401.30,226.98 L 400.95,226.95 L 399.87,226.64 L 399.12,226.17 L 398.79,225.86 L 397.96,225.31 L 397.73,225.16 L 395.26,223.95 L 394.63,223.73 L 393.90,223.68 L 393.13,223.90 L 392.88,223.97 L 392.00,224.88 L 391.65,225.18 L 391.39,225.25 L 390.01,225.12 L 388.75,224.87 L 387.68,224.41 L 386.49,224.01 L 384.17,223.71 L 382.81,223.44 L 381.12,223.16 L 380.34,222.83 L 379.55,222.36 L 378.27,221.50 L 377.46,221.06 L 376.60,220.82 L 375.16,220.80 L 373.76,221.24 L 372.81,221.59 L 371.86,221.93 L 371.70,222.03 L 371.54,222.09 L 370.20,222.85 L 368.85,223.33 L 365.89,223.84 L 365.69,223.97 L 365.56,223.99 L 365.04,224.33 L 362.95,224.77 L 360.83,224.51 L 358.58,224.88 L 357.92,225.14 L 355.61,225.94 L 355.35,226.06 L 355.28,226.09 L 353.91,226.74 L 350.77,228.55 L 347.35,229.75 L 345.50,230.21 L 344.62,230.00 L 344.18,229.43 L 344.09,228.32 L 344.14,226.54 L 343.82,225.69 L 343.52,225.33 L 343.05,225.02 L 342.32,225.06 L 341.24,225.52 L 341.19,225.56 L 340.92,225.67 L 340.26,226.15 L 339.71,227.03 L 339.08,228.35 L 338.78,229.10 L 338.90,230.20 L 339.32,231.21 L 340.38,232.89 L 340.62,233.47 L 340.51,234.11 L 340.03,235.51 L 339.93,235.80 L 339.59,239.25 L 339.79,239.94 L 340.44,240.75 L 341.04,241.33 L 341.51,242.23 L 343.82,245.81 L 344.32,246.71 L 344.47,247.34 L 345.38,249.56 L 346.07,250.48 L 346.46,251.23 L 346.65,252.49 L 346.68,253.25 L 346.84,254.24 L 346.75,256.99 L 346.93,260.46 L 347.08,262.06 L 347.34,264.24 L 347.78,267.60 L 347.15,267.93 L 344.88,269.29 L 341.24,271.35 L 338.55,272.77 L 334.75,274.79 L 331.44,276.46 L 327.90,278.12 L 325.73,279.19 L 325.73,279.20 L 325.42,279.35 L 325.26,281.59 L 324.96,285.03 L 324.84,286.36 L 324.61,289.12 L 324.63,290.23 L 324.39,293.05 L 324.34,294.77 L 324.47,297.23 L 324.55,298.91 L 324.58,301.14 L 324.75,303.13 L 324.71,305.13 L 324.73,306.68 L 324.76,308.74 L 324.37,309.74 L 324.00,310.95 L 323.97,311.05 L 325.41,311.29 L 326.33,312.42 L 326.96,313.58 L 328.24,316.54 L 329.06,318.54 L 329.49,320.51 L 329.69,321.68 L 330.29,324.83 L 330.96,324.57 L 332.52,324.33 L 334.54,323.88 L 337.38,323.28 L 339.39,322.90 L 341.75,322.14 L 344.54,321.10 L 344.41,324.08 L 344.28,327.76 L 344.20,331.26 L 344.25,332.71 L 344.25,335.29 L 344.30,336.72 L 344.33,338.52 L 344.27,339.09 L 344.26,339.24 L 341.09,339.32 L 340.83,339.32 L 340.49,340.90 L 340.42,341.22 L 339.79,340.79 L 338.47,340.12 L 337.63,339.56 L 336.85,339.30 L 336.42,339.15 L 336.24,339.08 L 336.08,339.38 L 335.02,343.02 L 334.55,344.63 L 334.02,347.05 L 333.79,347.98 L 332.94,351.05 L 332.39,352.50 L 331.17,355.72 L 330.86,356.07 L 328.78,356.09 L 326.21,356.17 L 322.51,356.07 L 321.16,355.86 L 318.02,355.44 L 313.50,354.78 L 313.01,353.13 L 311.52,352.58 L 309.67,351.79 L 307.91,350.82 L 304.74,348.89 L 302.92,347.81 L 301.37,347.00 L 301.24,345.60 L 299.17,345.34 L 296.99,345.18 L 294.40,344.95 L 292.44,343.98 L 289.34,342.61 L 289.29,342.88 L 289.03,342.76 L 288.54,345.48 L 288.34,346.60 L 287.79,349.49 L 287.60,350.49 L 287.11,353.09 L 286.95,353.98 L 286.51,355.75 L 286.03,356.70 L 285.50,358.16 L 284.53,360.07 L 283.80,360.70 L 282.73,361.66 L 282.08,361.92 L 281.27,362.01 L 279.13,362.37 L 277.10,362.78 L 274.44,363.19 L 274.36,363.31 L 274.12,363.34 L 273.36,364.59 L 272.96,366.65 L 272.42,368.58 L 269.16,368.55 L 266.73,368.39 L 265.11,368.23 L 263.07,367.89 L 261.51,367.52 L 257.78,366.45 L 255.90,365.75 L 255.02,365.48 L 252.92,364.84 L 252.05,364.84 L 251.47,364.83 L 249.27,365.04 L 246.58,365.47 L 245.34,364.23 L 241.75,363.95 L 238.34,364.01 L 232.35,364.53 L 229.59,364.59 L 229.45,363.56 L 229.45,359.89 L 229.12,360.07 L 229.12,360.04 L 226.97,361.19 L 224.14,362.79 L 221.89,363.93 L 220.49,364.79 L 218.46,366.02 L 216.61,367.08 L 216.30,367.25 L 215.25,367.74 L 215.06,367.90 L 214.74,368.43 L 214.65,369.15 L 214.61,369.66 L 214.48,369.91 L 214.14,370.82 L 213.88,371.56 L 213.59,372.36 L 213.63,372.89 L 213.71,373.16 L 214.07,373.67 L 214.52,374.18 L 215.27,374.58 L 217.82,375.61 L 220.14,376.97 L 221.06,377.67 L 222.52,379.22 L 223.17,380.08 L 223.81,380.93 L 224.54,382.36 L 224.94,383.40 L 225.14,384.02 L 225.14,384.79 L 225.18,385.61 L 225.24,386.39 L 225.35,387.05 L 225.52,387.60 L 225.55,388.09 L 225.23,388.41 L 224.90,388.66 L 224.84,388.69 L 224.52,388.84 L 224.04,388.98 L 223.07,389.05 L 221.97,389.29 L 221.34,389.48 L 221.20,389.52 L 220.82,389.74 L 220.26,390.15 L 219.88,390.64 L 219.73,391.26 L 219.84,392.70 L 219.90,393.86 L 220.02,394.67 L 220.33,395.88 L 220.38,396.78 L 220.41,397.47 L 220.35,397.88 L 219.89,398.65 L 218.68,399.68 L 218.21,400.26 L 218.01,400.51 L 217.72,400.28 L 217.48,399.15 L 215.92,399.41 L 211.97,399.66 L 211.77,399.57 L 211.71,399.54 L 211.43,399.41 L 210.26,399.22 L 207.36,399.06 L 207.09,399.04 L 206.96,399.41 L 206.89,399.59 L 205.82,399.49 L 205.83,399.00 L 204.51,399.18 L 203.52,399.08 L 203.09,399.16 L 202.93,399.19 L 202.46,399.50 L 202.25,399.64 L 201.01,399.72 L 200.51,399.71 L 200.13,399.71 L 200.62,401.55 L 200.78,402.13 L 199.89,401.34 L 198.88,400.59 L 197.72,400.11 L 197.13,399.97 L 196.83,400.07 L 196.12,399.93 L 195.52,399.57 L 195.05,399.24 L 193.96,398.38 L 192.82,398.49 L 192.46,397.77 L 191.15,395.29 L 190.54,394.83 L 189.73,394.51 L 188.87,394.73 L 186.96,395.30 L 184.14,395.61 L 183.93,395.16 L 183.01,394.93 L 181.76,394.75 L 179.63,394.02 L 177.10,393.33 L 177.24,389.73 L 177.26,387.74 L 177.69,383.43 L 177.71,383.35 L 176.05,383.72 L 174.68,384.01 L 174.51,384.04 L 170.96,384.61 L 170.22,384.68 L 168.35,385.03 L 163.19,385.36 L 160.65,385.55 L 157.38,385.66 L 156.03,385.90 L 154.91,385.90 L 154.14,386.06 L 152.77,386.30 L 151.55,386.57 L 151.00,386.56 L 150.19,386.37 L 148.94,386.01 L 147.98,385.98 L 147.12,385.83 L 146.09,385.43 L 144.84,385.00 L 143.84,384.53 L 142.56,384.73 L 143.48,383.51 L 140.58,382.70 L 139.01,382.29 L 137.90,382.19 L 135.47,382.28 L 132.93,382.12 L 132.01,382.02 L 131.96,382.19 L 131.65,382.16 L 131.52,382.64 L 130.40,382.99 L 130.21,383.04 L 127.64,383.84 L 127.63,383.88 L 127.28,383.99 L 127.18,385.88 L 127.45,387.06 L 127.85,388.17 L 128.10,389.47 L 128.22,391.94 L 128.23,392.00 L 126.99,392.29 L 124.88,392.66 L 121.30,393.30 L 119.72,393.66 L 118.37,393.93 L 118.27,393.95 L 116.85,394.64 L 114.99,396.01 L 112.42,397.08 L 112.27,397.14 L 107.32,398.93 L 107.09,399.01 L 104.68,400.09 L 100.13,402.07 L 99.92,402.17 L 99.24,402.38 L 98.43,402.30 L 93.67,401.60 L 90.74,401.14 L 87.54,400.61 L 82.92,399.14 L 80.10,398.14 L 77.86,397.30 L 80.26,393.40 L 80.60,392.59 L 80.99,391.37 L 81.23,389.94 L 81.43,386.48 L 81.29,385.16 L 81.35,383.73 L 81.10,382.81 L 80.43,381.90 L 80.33,381.77 L 79.93,381.59 L 79.30,381.41 L 78.57,381.38 L 76.95,381.18 L 73.53,381.10 L 69.37,380.94 L 67.66,380.76 L 65.84,380.69 L 63.28,380.67 L 60.80,380.61 L 60.22,380.47 L 55.72,377.92 L 53.86,376.94 L 52.89,376.25 L 51.50,376.31 L 51.08,374.87 L 50.89,373.33 L 50.87,371.44 L 50.89,370.67 L 50.93,370.04 L 50.82,368.96 L 50.26,367.82 L 49.57,365.83 L 49.34,364.88 L 48.96,362.56 L 48.81,361.41 L 48.77,358.90 L 48.95,357.74 L 49.36,356.23 L 49.43,355.16 L 49.80,355.06 L 49.86,354.02 L 50.07,349.64 L 49.36,349.32 L 48.64,348.99 L 44.46,347.28 L 40.87,345.69 L 40.65,345.89 L 40.50,345.82 L 40.22,346.07 L 39.24,347.31 L 35.58,352.03 L 34.33,353.47 L 32.97,354.62 L 32.78,355.62 L 32.78,355.62 L 31.52,356.03 L 31.19,356.13 L 28.41,357.40 L 28.16,357.51 L 27.59,357.89 L 25.48,358.63 L 25.29,358.73 L 25.14,358.80 L 21.74,359.60 L 21.02,359.81 L 20.67,359.91 L 20.02,360.32 L 18.96,360.74 L 17.33,361.42 L 16.17,362.07 L 16.05,362.14 L 15.53,362.25 L 11.12,360.65 L 10.72,360.50 L 11.02,364.31 L 11.81,365.43 L 12.94,366.89 L 13.74,368.24 L 15.68,370.54 L 18.59,373.58 L 18.21,373.87 L 14.78,376.04 L 10.00,379.41 L 10.23,380.16 L 11.25,384.07 L 12.15,387.54 L 12.20,387.72 L 12.66,387.60 L 14.40,387.16 L 18.13,386.09 L 30.24,382.44 L 34.43,381.05 L 39.41,379.47 L 40.85,383.54 L 41.86,386.68 L 42.07,388.08 L 42.86,389.15 L 43.23,389.70 L 44.58,391.66 L 47.61,395.62 L 47.92,396.40 L 58.25,397.49 L 61.93,398.03 L 64.71,398.17 L 61.97,400.19 L 61.50,400.89 L 59.90,402.12 L 57.13,404.29 L 57.02,404.37 L 59.02,409.42 L 60.24,412.70 L 61.44,416.01 L 62.07,418.62 L 62.19,419.15 L 63.57,421.43 L 65.24,428.70 L 65.82,430.72 L 66.19,430.57 L 72.53,428.11 L 75.06,427.10 L 77.21,425.91 L 77.49,425.82 L 77.57,425.80 L 82.69,424.24 L 84.28,424.36 L 87.58,424.72 L 94.06,425.25 L 95.70,425.51 L 99.33,426.07 L 103.30,426.97 L 104.91,430.79 L 108.17,437.87 L 108.67,439.65 L 110.17,443.89 L 110.71,445.30 L 111.19,445.29 L 113.83,445.22 L 125.59,444.75 L 129.50,444.56 L 137.32,444.19 L 139.63,444.12 L 144.56,444.02 L 144.68,444.01 L 147.01,445.55 L 150.03,447.55 L 157.46,452.45 L 160.46,454.44 L 160.66,454.19 L 160.81,454.29 L 166.23,447.58 L 168.84,444.23 L 174.49,437.08 L 176.71,434.24 L 179.47,430.81 L 179.04,433.68 L 178.98,435.53 L 179.54,439.24 L 179.71,440.21 L 181.60,443.33 L 182.67,444.19 L 183.41,444.35 L 195.94,447.62 L 198.89,448.76 L 211.41,454.01 L 215.15,455.68 L 215.24,455.42 L 215.69,454.21 L 217.20,451.50 L 218.26,449.75 L 218.45,449.62 L 218.61,449.51 L 219.53,448.90 L 219.60,448.86 L 221.52,447.61 L 222.13,446.53 L 223.26,444.66 L 224.24,443.43 L 225.16,442.84 L 225.40,442.74 L 228.88,441.27 L 228.90,441.24 L 230.85,438.88 L 233.70,435.21 L 233.95,435.15 L 234.05,435.13 L 234.30,435.45 L 233.28,436.80 L 230.69,440.21 L 228.68,443.47 L 227.28,445.80 L 225.50,448.39 L 224.69,449.62 L 221.75,454.58 L 220.66,456.38 L 219.87,457.33 L 219.48,459.11 L 217.70,467.57 L 215.49,479.09 L 215.62,479.14 L 218.30,480.17 L 221.30,481.11 L 225.13,482.28 L 225.44,482.38 L 233.14,484.69 L 235.94,485.57 L 238.68,486.91 L 241.42,488.25 L 244.54,489.64 L 247.57,491.00 L 249.93,491.91 L 251.94,492.77 L 252.70,493.10 L 253.62,493.77 L 255.42,495.63 L 256.15,496.59 L 258.74,496.69 L 261.06,496.81 L 261.62,496.85 L 263.91,497.34 L 265.84,497.93 L 267.30,498.39 L 267.30,498.39 L 269.51,499.10 L 271.30,499.66 L 276.04,500.99 L 277.86,501.60 L 282.17,502.93 L 283.16,503.13 L 284.09,502.62 L 288.10,500.62 L 289.66,499.88 L 291.83,498.73 L 294.73,497.31 L 297.65,495.87 L 300.09,494.72 L 301.65,493.85 L 301.80,493.68 L 301.96,493.68 L 303.63,491.74 L 304.33,490.77 L 305.68,489.08 L 306.84,487.68 L 307.55,487.21 L 309.23,485.61 L 310.82,484.19 L 311.37,483.73 L 313.48,481.90 L 315.13,480.38 L 318.48,477.24 L 319.99,475.88 L 320.68,478.75 L 321.07,480.78 L 321.29,482.54 L 321.59,484.68 L 322.00,486.70 L 321.92,488.00 L 322.04,488.58 L 322.29,489.25 L 322.18,491.02 L 322.31,492.74 L 322.67,495.23 L 323.08,498.18 L 323.32,500.07 L 323.42,500.65 L 323.66,502.13 L 324.14,504.78 L 324.33,505.86 L 324.21,509.89 L 323.70,511.39 L 322.39,512.57 L 320.10,514.52 L 317.62,516.85 L 315.97,518.33 L 312.45,521.49 L 311.25,522.59 L 309.27,524.33 L 307.49,526.04 L 307.25,526.26 L 304.92,528.59 L 303.56,529.99 L 305.06,531.72 L 306.92,534.10 L 307.45,535.01 L 309.74,537.72 L 311.53,539.12 L 313.55,540.57 L 314.85,541.96 L 316.05,543.41 L 317.51,545.18 L 318.43,546.55 L 318.54,546.67 L 320.20,548.45 L 321.95,550.62 L 323.22,551.72 L 323.24,551.74 L 325.38,553.72 L 326.64,555.08 L 328.71,557.23 L 329.69,558.22 L 331.53,559.01 L 333.25,559.72 L 334.59,560.09 L 334.60,560.09 L 334.61,560.08 L 334.77,560.50 L 335.24,561.26 L 335.54,561.68 L 336.67,563.27 L 337.71,564.20 L 338.94,565.40 L 340.56,566.49 L 341.79,567.30 L 342.77,568.11 L 344.16,569.40 L 345.52,570.94 L 346.85,572.04 L 348.80,573.39 L 350.67,574.57 L 352.17,575.59 L 353.91,576.91 L 355.93,578.24 L 357.42,578.94 L 358.79,579.31 L 360.41,579.66 L 361.66,579.64 L 362.77,580.50 L 364.60,582.50 L 365.87,583.95 L 367.78,586.00 L 368.74,587.21 L 370.19,588.03 L 370.85,588.46 L 371.30,588.81 L 372.33,589.17 L 375.96,590.00 L 376.04,589.84 L 376.27,589.36 L 376.22,588.81 L 376.17,587.25 L 376.88,584.49 L 378.53,581.39 L 379.42,580.04 L 379.85,578.46 L 381.04,576.06 L 382.01,574.34 L 382.40,572.97 L 383.47,571.40 L 384.10,570.79 L 384.85,568.36 L 385.18,566.84 L 385.03,564.27 L 385.18,561.75 L 385.48,559.16 L 385.48,557.23 L 385.18,555.66 L 385.33,554.70 L 385.11,553.17 L 384.71,551.44 L 384.23,549.92 L 383.93,548.85 L 383.56,547.29 L 382.98,545.52 L 384.82,546.25 L 387.14,547.60 L 391.04,549.37 L 395.09,548.92 L 397.75,548.47 L 400.87,548.12 L 401.69,548.39 L 403.42,548.13 L 405.03,547.96 L 407.03,547.74 L 408.86,547.46 L 411.63,547.19 L 413.25,548.02 L 415.68,548.61 L 416.60,548.74 L 418.48,549.23 L 421.02,549.22 L 423.20,548.60 L 425.03,547.56 L 426.62,546.42 L 429.23,545.11 L 432.15,544.21 L 433.95,543.55 L 435.50,542.76 L 436.41,542.20 L 437.52,541.89 L 440.28,541.54 L 444.78,541.34 L 450.85,541.13 L 453.88,540.95 L 454.19,532.56 L 455.49,534.94 L 457.34,538.64 L 459.92,538.68 L 462.12,538.16 L 463.74,538.02 L 464.48,538.23 L 467.20,538.41 L 475.20,537.93 L 476.93,537.82 L 477.96,537.69 L 481.75,537.75 L 484.81,537.61 L 485.09,537.59 L 486.95,537.44 L 488.52,538.03 L 491.14,539.14 L 493.90,539.83 L 495.63,540.10 L 499.87,541.84 L 505.10,544.09 L 508.88,545.79 L 510.14,544.68 L 511.50,543.30 L 514.01,540.81 L 515.92,538.87 L 518.25,536.59 L 518.06,534.97 L 517.56,531.75 L 517.59,529.88 L 517.30,528.15 L 516.53,523.93 L 516.05,521.47 L 515.83,519.78 L 514.51,517.85 L 512.70,515.70 L 511.05,514.00 L 509.28,511.93 L 506.89,509.09 L 505.82,507.80 L 508.96,504.42 L 510.47,502.76 L 511.50,501.41 L 513.09,500.20 L 514.19,499.20 L 514.93,498.61 L 517.70,497.89 L 519.16,497.59 L 518.47,497.16 L 517.77,496.88 L 516.00,496.61 L 514.45,496.16 L 514.20,495.57 L 515.96,494.60 L 518.25,493.39 L 518.87,492.73 L 517.44,490.49 L 516.41,489.17 L 515.20,487.85 L 514.46,487.47 L 513.43,487.68 L 511.96,487.89 L 511.00,486.64 L 510.08,485.12 L 509.30,483.70 L 509.02,481.97 L 508.94,479.55 L 508.83,477.85 L 510.12,476.51 L 512.96,474.32 L 513.80,473.74 L 514.88,472.50 L 515.83,470.07 L 516.53,468.31 L 518.89,466.82 L 520.22,465.83 L 523.20,463.95 L 528.64,460.49 L 528.65,460.49 L 528.65,460.49 L 528.65,460.48 L 528.65,460.49 L 528.96,460.29 L 530.43,459.04 L 535.11,455.35 L 537.81,453.10 L 539.76,451.30 L 543.88,447.98 L 543.85,443.83 L 543.60,438.85 L 549.39,436.58 L 554.43,434.85 L 556.94,434.02 L 562.10,432.40 L 567.78,430.39 L 576.93,427.80 L 578.88,427.27 L 580.78,432.59 L 581.83,435.94 L 583.16,439.36 L 585.19,442.25 L 587.57,445.70 L 588.42,447.80 L 589.04,450.82 L 590.10,454.77 L 599.20,452.11 L 597.45,445.74 L 596.61,442.14 L 595.13,437.47 L 594.08,433.66 L 593.38,430.64 L 594.43,425.45 L 594.15,423.81 L 592.39,421.10 L 591.03,418.31 L 592.46,417.26 L 595.92,415.35 L 599.46,413.25 L 600.15,411.81 L 601.58,406.20 L 602.45,403.22 L 603.70,398.82 L 610.03,397.77 L 617.06,396.75 L 623.35,395.40 L 626.46,394.68 L 629.71,397.04 L 639.11,402.58 L 643.21,405.04 L 645.34,406.25 L 644.71,409.91 L 643.94,413.43 L 643.53,416.48 L 643.03,417.89 L 643.07,418.77 L 643.39,418.80 L 649.93,418.97 L 661.77,419.94 L 666.32,420.47 L 670.56,420.86 L 671.21,418.80 L 672.68,415.61 L 676.01,413.21 L 681.84,409.27 L 683.37,408.13 L 685.26,406.49 L 687.88,404.32 L 689.70,402.88 L 691.31,401.53 L 689.40,399.41 L 686.59,396.00 L 682.57,390.62 L 679.63,386.72 L 675.99,383.38 L 673.23,381.51 L 670.29,379.47 L 666.90,375.91 L 665.78,374.17 L 664.27,372.69 L 662.77,370.99 L 660.12,367.81 L 660.10,367.80 L 656.92,364.56 L 655.14,362.46 L 657.59,360.29 L 660.49,358.07 L 665.24,354.07 L 670.94,349.27 L 675.17,345.70 L 681.08,340.78 L 686.08,337.63 L 688.31,336.13 L 690.59,334.45 L 692.47,331.84 L 692.82,331.34 L 693.17,330.86 L 693.17,330.85 L 693.66,330.33 L 697.72,329.24 L 703.62,327.71 L 709.30,324.55 L 711.99,323.01 L 715.81,321.40 L 718.10,319.93 L 719.54,318.33 L 720.51,315.70 L 720.90,314.32 L 722.05,312.97 L 724.80,310.30 L 726.59,309.05 L 730.69,307.44 L 733.94,305.70 L 737.51,303.60 L 739.02,302.87 L 740.56,302.45 L 742.02,302.48 L 744.72,303.01 L 755.92,304.88 L 759.21,305.15 L 762.29,305.28 L 763.55,306.46 L 764.81,307.84 L 767.47,308.36 L 770.90,309.55 L 773.76,310.47 L 776.07,307.84 L 778.11,305.67 L 774.95,301.54 L 773.20,299.18 L 772.29,301.80 L 771.38,300.88 L 770.19,299.13 L 769.50,297.42 L 770.41,295.58 L 772.09,293.61 L 772.72,293.48 L 777.69,292.96 L 778.45,289.42 L 779.92,287.38 L 784.33,289.16 L 785.45,288.63 L 788.11,287.78 L 787.69,286.28 L 787.20,283.92 L 788.60,281.35 L 790.00,279.52 L 785.66,276.82 L 786.32,275.63 L 787.65,273.40 L 785.09,270.27 L 784.89,266.02 L 784.12,262.96 L 783.35,260.99 L 780.90,253.20 L 780.88,253.17 L 780.90,252.89 L 781.06,249.09 L 781.15,247.46 L 781.02,247.02 L 780.75,246.17 L 780.32,244.47 L 780.06,243.51 L 779.79,242.54 L 779.53,241.29 L 779.54,240.47 L 779.49,239.68 L 777.18,239.09 L 775.26,238.40 L 775.06,237.33 L 774.42,235.26 L 773.28,232.26 L 772.42,230.24 L 771.71,228.18 L 771.02,225.85 L 770.25,222.61 L 769.91,219.99 L 769.76,218.77 L 769.27,217.29 L 768.17,215.17 L 766.89,212.37 L 766.17,211.08 L 766.41,210.09 L 766.58,209.92 L 767.05,209.31 L 767.11,209.00 L 767.09,208.47 L 766.89,208.09 L 766.89,207.69 L 766.76,207.24 L 766.74,206.66 L 766.83,206.01 L 766.89,205.77 L 766.91,205.04 L 766.89,204.56 L 766.80,204.27 L 766.58,204.10 L 766.36,203.96 L 765.81,203.70 L 765.58,203.47 L 765.58,203.30 L 765.60,203.11 L 765.77,202.76 L 765.81,202.50 L 765.70,202.16 L 765.52,201.62 L 765.54,201.20 L 765.74,200.76 L 766.03,199.84 L 766.07,199.48 L 766.36,198.88 L 766.76,198.48 L 767.44,197.94 L 767.52,197.67 L 767.48,197.39 L 767.33,197.04 L 767.33,196.85 L 767.54,196.81 L 768.16,196.38 L 768.16,196.38 L 768.23,196.28 L 768.31,195.76 L 768.15,195.34 L 767.99,195.13 L 767.60,194.83 L 765.95,193.87 L 765.60,193.57 L 765.33,193.19 L 764.95,192.52 L 764.56,192.10 L 764.23,191.82 L 763.17,191.07 L 762.79,190.69 L 762.70,190.51 L 762.33,189.60 L 762.03,189.04 L 761.75,188.62 L 761.36,188.28 L 761.02,187.82 L 761.08,187.50 L 761.25,187.14 L 761.59,186.85 L 761.71,186.62 L 761.69,186.49 L 761.47,186.39 L 761.32,186.47 L 761.10,186.60 L 760.72,186.85 L 760.14,187.25 L 759.98,187.27 L 759.86,187.14 L 759.78,186.94 L 759.68,186.75 L 759.49,186.62 L 759.16,186.60 L 758.70,186.69 L 758.27,186.83 L 757.47,187.12 L 755.57,187.44 L 754.01,187.65 L 753.56,187.75 L 752.64,188.13 L 752.07,188.35 L 751.85,188.17 L 751.85,188.00 L 751.91,187.71 L 752.06,187.61 L 752.38,187.46 L 753.32,186.98 L 753.47,186.57 L 753.47,186.17 L 753.34,185.82 L 753.03,185.53 L 752.75,185.53 L 752.48,185.64 L 752.28,185.94 L 752.16,186.52 L 751.93,187.00 L 751.77,187.14 L 751.54,187.14 L 751.51,187.00 L 751.54,186.70 L 751.57,186.24 L 751.59,185.37 L 751.62,184.91 L 751.14,184.41 L 750.88,183.99 L 750.63,183.24 L 750.35,182.31 L 750.10,182.01 L 749.78,181.96 L 748.98,181.87 L 748.31,181.81 L 748.06,181.70 L 747.98,181.41 L 748.03,181.09 L 748.08,180.65 L 748.04,180.44 L 747.98,180.38 L 747.68,180.32 L 747.41,180.40 L 747.15,180.52 L 747.00,180.44 L 746.96,180.30 L 746.98,180.03 L 747.19,179.21 L 747.31,178.14 L 747.44,177.71 L 747.74,177.22 L 748.39,175.74 L 748.66,174.91 L 748.76,174.33 L 748.64,173.28 L 748.52,172.67 L 748.41,170.80 L 748.20,169.07 L 747.81,168.26 L 746.83,166.55 L 746.32,163.80 L 745.81,161.78 L 745.81,160.74 L 745.63,159.51 L 745.02,159.40 L 744.24,159.15 L 743.22,158.92 L 740.66,158.80 L 739.84,158.70 L 737.84,158.43 L 737.12,158.03 L 737.21,157.53 L 737.10,157.36 L 736.72,157.27 L 736.23,157.17 L 736.00,157.06 L 735.76,156.75 L 735.60,156.41 L 735.60,156.19 L 735.54,155.72 L 735.49,155.24 L 735.36,154.83 L 735.27,154.64 L 735.22,154.22 L 735.20,153.90 L 734.81,152.98 L 734.58,152.16 L 734.12,151.41 L 733.80,151.15 L 733.29,150.95 L 732.83,150.68 L 732.52,150.38 L 732.06,149.84 L 730.43,148.36 L 730.25,148.36 L 729.86,148.19 L 729.27,147.60 L 728.67,147.22 L 727.90,146.95 L 727.33,146.67 L 727.02,146.39 L 726.70,145.97 L 726.37,145.54 L 726.15,145.29 L 725.96,145.23 L 725.49,145.07 L 724.75,145.14 L 724.39,144.97 L 724.12,144.68 L 724.06,144.51 L 724.06,144.36 L 724.27,143.82 L 724.53,142.94 L 724.53,142.70 L 724.45,142.58 L 724.08,142.62 L 723.76,142.60 L 723.41,142.30 L 723.17,142.22 L 722.71,142.28 L 722.20,142.48 L 721.47,142.71 L 721.12,142.75 L 720.90,142.64 L 720.84,142.47 L 720.95,142.19 L 720.89,141.43 L 720.87,140.42 L 720.68,139.96 L 720.68,139.54 L 720.60,139.02 L 720.66,138.68 L 720.97,137.86 L 721.32,137.00 L 721.42,136.71 L 721.56,136.02 L 721.68,135.14 L 721.77,134.18 L 721.50,133.80 L 721.11,133.62 L 720.72,133.55 L 720.09,133.47 L 719.78,133.28 L 719.37,132.68 L 719.02,132.18 L 718.80,132.05 L 717.81,131.82 L 717.59,131.74 L 717.04,131.17 L 716.93,130.96 L 716.93,130.69 L 717.10,130.19 L 717.76,129.02 L 718.23,128.39 L 718.71,128.03 L 719.19,127.73 L 720.05,127.33 L 720.36,126.98 L 720.68,126.64 L 721.21,125.89 L 721.56,125.03 L 721.35,124.44 L 720.88,123.19 L 720.39,122.28 L 720.03,121.63 L 719.62,121.23 L 719.35,120.84 L 719.29,120.41 L 719.46,119.81 L 719.44,119.45 L 719.28,119.22 L 718.87,118.62 L 718.68,117.95 L 718.38,117.47 L 717.47,116.80 L 716.42,115.96 L 714.50,116.14 L 705.83,117.18 L 696.74,117.87 L 693.75,118.22 L 691.42,118.40 L 688.03,118.71 L 683.90,119.13 L 681.24,119.41 L 676.95,119.77 L 677.68,114.49 L 678.60,109.31 L 679.65,104.87 L 679.90,101.81 L 679.74,98.06 L 680.55,95.23 L 681.77,90.86 L 684.09,86.70 L 683.07,86.90 L 681.11,87.74 L 679.03,88.62 L 677.07,89.42 L 675.07,90.26 L 672.62,91.37 L 671.27,92.41 L 670.65,92.37 L 668.69,92.03 L 667.21,91.57 L 665.29,90.81 L 662.67,90.92 L 659.85,90.81 L 656.75,90.66 L 654.99,90.96 L 652.59,91.65 L 650.34,92.23 L 647.44,92.88 L 646.58,93.25 L 645.19,90.19 L 643.80,87.21 L 643.64,84.99 L 643.71,81.47 L 644.45,78.71 L 644.45,74.97 L 644.36,71.83 L 645.71,70.11 L 644.07,65.52 L 651.26,62.61 L 652.07,57.56 L 652.48,51.82 L 651.56,51.65 L 649.77,51.15 L 648.55,51.19 L 646.83,51.46 L 644.38,51.85 L 642.68,52.34 L 640.43,52.61 L 636.94,55.28 L 635.55,56.26 L 634.11,57.45 L 631.97,59.23 L 630.44,60.24 L 628.89,61.60 L 627.57,62.65 L 626.71,63.20 L 625.42,63.45 L 623.63,63.62 L 622.30,63.83 L 621.19,63.96 L 619.33,63.91 L 617.69,63.71 L 616.16,63.53 L 615.30,63.41 L 614.58,63.47 L 614.25,63.71 L 613.23,64.64 L 612.54,65.27 L 611.31,65.77 L 609.94,66.09 L 607.67,66.47 L 604.83,67.04 L 602.02,67.24 L 600.38,67.29 L 598.15,67.47 L 595.65,67.53 L 593.56,67.72 L 591.76,67.70 L 591.19,67.67 L 590.52,65.57 L 589.91,63.12 L 588.99,60.63 L 588.17,57.74 L 587.94,56.63 L 588.08,54.66 L 588.18,53.48 L 588.06,52.75 L 587.79,51.56 L 587.57,50.43 L 591.79,49.22 L 597.67,47.61 L 600.49,46.92 L 601.22,46.61 L 602.12,46.94 L 602.71,45.97 L 603.09,45.39 L 603.78,44.49 L 604.19,43.68 L 604.76,42.80 L 605.05,41.81 L 605.39,40.72 L 605.91,39.07 L 606.20,38.40 L 606.81,36.91 L 607.15,36.20 L 607.60,35.08 L 607.80,34.29 L 608.19,33.25 L 608.55,32.51 L 608.81,31.49 L 609.10,30.18 L 609.25,29.49 L 609.36,28.89 L 609.49,28.63 L 608.42,28.12 L 605.11,26.53 L 602.41,25.52 L 598.55,24.07 L 597.92,24.23 L 594.44,25.29 L 590.36,26.41 Z" fill="#1d3672" stroke="#333" stroke-width="1"/>
</svg>