<svg xmlns="http://www.w3.org/2000/svg" width="800" height="600" viewBox="0 0 800 600">
<path d="M 249.68,10.04 L 249.64,10.00 L 249.18,10.03 L 248.90,10.07 L 248.59,10.17 L 248.19,10.29 L 248.14,10.31 L 247.88,10.32 L 247.41,10.41 L 247.26,10.43 L 247.26,10.48 L 247.25,10.66 L 247.24,10.80 L 247.24,10.95 L 247.16,11.15 L 247.15,11.45 L 247.00,12.01 L 246.64,12.77 L 245.67,14.65 L 245.10,15.43 L 244.95,15.89 L 245.51,17.63 L 245.94,18.66 L 245.62,18.64 L 244.30,18.58 L 243.35,18.63 L 240.82,21.00 L 239.28,22.34 L 238.26,22.75 L 236.67,23.41 L 235.62,23.97 L 234.97,24.53 L 234.87,24.70 L 234.43,25.41 L 234.27,25.60 L 233.84,26.09 L 233.18,26.61 L 231.62,27.34 L 230.24,27.95 L 229.39,28.37 L 228.77,28.71 L 228.44,29.05 L 228.34,29.20 L 228.00,29.71 L 227.85,30.18 L 227.69,30.31 L 227.21,30.69 L 226.00,31.37 L 224.52,32.23 L 223.14,32.76 L 221.01,33.37 L 216.94,34.67 L 216.78,34.91 L 216.72,35.00 L 216.44,36.73 L 216.08,38.61 L 215.90,39.69 L 218.23,39.39 L 217.92,39.66 L 217.41,40.10 L 214.69,41.91 L 212.85,43.10 L 212.86,43.22 L 213.08,47.20 L 212.86,47.10 L 211.60,46.52 L 209.45,45.61 L 209.27,45.58 L 208.07,45.37 L 206.18,45.49 L 206.32,45.67 L 206.36,45.72 L 207.73,47.39 L 208.07,48.03 L 205.76,51.27 L 205.69,51.35 L 202.48,54.52 L 201.23,55.49 L 200.10,56.13 L 199.26,56.98 L 199.14,57.15 L 198.28,58.37 L 197.77,59.20 L 197.12,60.32 L 196.43,61.93 L 195.61,64.10 L 195.12,65.71 L 194.92,66.18 L 194.01,68.23 L 193.65,69.70 L 193.51,69.69 L 192.93,69.65 L 192.91,69.92 L 192.68,73.09 L 191.88,76.65 L 191.32,81.14 L 190.65,83.95 L 190.49,84.21 L 190.16,84.71 L 189.78,86.51 L 189.27,88.13 L 188.81,89.59 L 187.86,91.42 L 187.08,92.89 L 186.29,94.58 L 185.52,95.85 L 184.96,96.85 L 184.60,97.65 L 184.44,98.24 L 184.24,98.70 L 184.10,98.81 L 184.05,98.85 L 184.03,98.85 L 183.48,98.98 L 181.49,99.43 L 180.52,100.46 L 178.42,102.53 L 177.12,103.98 L 175.84,105.25 L 174.24,106.87 L 172.27,109.00 L 172.07,109.25 L 170.84,110.80 L 170.83,110.81 L 169.10,112.88 L 168.99,113.02 L 167.83,114.54 L 167.68,114.73 L 166.19,116.57 L 165.30,117.67 L 165.20,117.79 L 163.84,119.55 L 163.80,119.59 L 162.98,120.52 L 162.78,120.77 L 162.09,121.64 L 161.88,121.93 L 161.86,121.93 L 160.14,122.12 L 156.64,121.74 L 154.19,119.51 L 152.86,118.42 L 149.68,115.66 L 147.56,113.76 L 146.77,113.09 L 146.20,112.09 L 145.54,110.89 L 143.65,109.50 L 142.21,108.45 L 141.68,108.13 L 140.73,107.87 L 138.92,107.50 L 137.02,106.99 L 134.44,106.33 L 130.40,105.23 L 126.99,104.08 L 124.25,103.06 L 119.13,101.21 L 118.41,100.99 L 117.16,99.91 L 116.60,99.38 L 116.16,99.13 L 114.12,98.39 L 112.47,98.22 L 110.46,98.25 L 105.71,97.96 L 104.85,98.03 L 104.07,97.96 L 104.20,97.72 L 104.13,97.28 L 103.93,96.97 L 103.09,96.25 L 101.69,95.64 L 95.08,93.68 L 93.87,93.29 L 90.78,92.38 L 90.55,92.28 L 90.02,91.82 L 88.24,90.30 L 85.71,88.75 L 84.65,88.46 L 81.86,87.93 L 80.96,87.89 L 78.49,87.54 L 77.95,87.39 L 77.44,87.25 L 76.50,87.19 L 76.41,87.44 L 76.41,87.45 L 75.98,88.75 L 75.38,90.36 L 74.90,91.53 L 74.44,92.39 L 73.93,93.49 L 73.48,94.72 L 73.36,95.00 L 73.35,95.55 L 73.40,96.04 L 72.97,97.65 L 72.43,99.91 L 71.90,101.93 L 71.62,102.40 L 71.48,102.55 L 71.41,102.66 L 70.19,103.91 L 69.88,104.20 L 69.11,105.06 L 68.22,106.16 L 65.20,109.92 L 65.16,109.97 L 64.99,110.18 L 64.06,111.28 L 63.58,111.89 L 63.55,114.54 L 63.41,116.80 L 63.39,117.13 L 63.16,120.18 L 63.16,121.20 L 62.78,126.76 L 62.75,127.03 L 62.70,127.51 L 62.42,130.56 L 62.24,130.54 L 62.21,130.82 L 61.31,130.71 L 60.40,130.54 L 58.08,130.27 L 56.09,130.21 L 53.80,130.56 L 49.51,131.17 L 49.22,131.21 L 46.78,131.79 L 46.05,132.12 L 45.63,132.37 L 44.97,133.07 L 44.33,133.72 L 43.36,134.36 L 42.39,134.78 L 42.28,135.11 L 41.53,138.17 L 40.93,140.67 L 39.82,145.66 L 39.18,148.67 L 36.58,148.69 L 31.73,148.87 L 31.32,149.36 L 29.32,152.38 L 27.42,154.99 L 26.40,156.40 L 26.17,156.71 L 26.08,157.34 L 26.02,158.41 L 25.89,159.79 L 25.57,160.55 L 25.00,161.75 L 24.80,162.12 L 24.37,162.91 L 23.70,164.21 L 23.20,165.13 L 22.98,165.54 L 23.96,166.07 L 25.42,166.94 L 25.88,167.29 L 26.23,168.02 L 26.63,168.99 L 27.21,169.99 L 27.45,170.29 L 27.71,170.48 L 28.04,170.52 L 28.62,170.60 L 28.81,171.32 L 29.02,172.27 L 29.32,173.51 L 29.55,174.55 L 29.69,175.01 L 29.86,175.56 L 30.05,176.31 L 30.31,177.25 L 30.42,177.87 L 30.70,178.89 L 30.95,179.94 L 31.18,180.95 L 31.27,181.35 L 31.52,182.30 L 31.50,182.91 L 31.48,183.62 L 31.40,184.40 L 31.21,185.32 L 31.07,185.86 L 30.94,186.54 L 30.87,187.47 L 30.70,188.49 L 30.56,189.53 L 30.42,190.41 L 30.33,191.13 L 30.26,191.93 L 29.95,193.45 L 29.68,194.44 L 29.49,195.15 L 29.34,195.62 L 28.97,196.54 L 28.77,197.23 L 28.60,197.67 L 28.12,198.68 L 27.70,199.70 L 27.36,200.71 L 26.89,201.68 L 26.46,202.62 L 25.88,203.75 L 25.55,204.32 L 25.39,204.86 L 25.37,205.09 L 25.37,205.09 L 25.30,206.03 L 25.18,207.23 L 25.10,207.67 L 25.07,208.51 L 25.04,209.34 L 24.99,210.57 L 24.88,211.50 L 24.87,211.74 L 24.83,212.67 L 24.82,213.32 L 24.76,214.36 L 24.74,214.79 L 24.67,215.44 L 24.66,216.03 L 24.56,216.36 L 24.56,217.21 L 24.58,217.64 L 24.58,217.70 L 24.56,217.92 L 24.54,218.40 L 24.53,218.53 L 24.54,219.51 L 24.63,220.51 L 24.90,221.74 L 25.15,222.66 L 25.15,222.66 L 25.20,222.83 L 25.46,223.91 L 25.70,224.93 L 25.93,225.79 L 26.07,226.15 L 26.20,226.64 L 26.48,227.13 L 26.95,227.72 L 27.21,228.24 L 27.85,229.16 L 28.35,229.97 L 29.03,230.90 L 29.61,231.66 L 30.26,232.59 L 30.79,233.51 L 31.01,234.05 L 30.80,234.69 L 30.56,235.64 L 30.12,236.71 L 29.55,237.99 L 29.23,238.74 L 28.89,239.57 L 28.81,239.76 L 28.24,240.92 L 27.89,241.75 L 27.49,242.63 L 27.28,243.21 L 27.18,243.47 L 26.82,243.87 L 25.91,244.49 L 24.87,245.44 L 23.92,246.09 L 23.31,246.48 L 22.92,246.74 L 22.45,247.06 L 21.89,247.63 L 21.23,248.24 L 20.50,249.12 L 19.41,250.33 L 18.28,251.53 L 17.68,252.29 L 17.10,253.15 L 16.60,253.94 L 15.75,255.42 L 15.24,256.39 L 14.62,257.49 L 14.16,258.22 L 13.44,259.34 L 12.85,260.25 L 12.24,261.17 L 11.34,262.61 L 11.04,263.18 L 10.36,264.08 L 10.06,264.40 L 10.06,264.40 L 10.02,264.96 L 10.00,265.81 L 10.09,267.19 L 10.18,267.91 L 10.32,268.58 L 10.70,269.42 L 10.80,269.64 L 11.52,270.50 L 12.68,271.69 L 13.34,272.29 L 14.29,272.85 L 14.91,273.35 L 15.89,273.90 L 17.22,274.44 L 17.93,274.65 L 18.50,274.67 L 19.45,274.64 L 20.38,274.53 L 21.10,274.33 L 21.95,274.17 L 23.04,274.10 L 24.04,274.28 L 25.24,274.81 L 25.71,275.13 L 26.55,275.97 L 26.96,276.61 L 27.32,277.08 L 27.32,277.08 L 27.82,277.73 L 28.57,278.83 L 29.29,279.92 L 29.69,280.58 L 30.37,281.60 L 30.73,282.58 L 30.95,283.59 L 31.13,284.72 L 31.33,285.26 L 31.81,285.96 L 32.30,286.50 L 32.82,286.91 L 33.45,287.25 L 33.91,287.33 L 34.62,287.33 L 35.57,287.29 L 36.00,287.16 L 36.72,286.72 L 37.55,286.19 L 38.82,285.22 L 39.22,284.74 L 39.70,283.72 L 40.37,282.62 L 41.02,282.11 L 41.26,281.90 L 41.93,281.58 L 42.43,281.41 L 43.09,281.32 L 43.59,281.30 L 44.69,281.21 L 46.04,281.30 L 46.66,281.50 L 47.47,281.55 L 48.20,281.68 L 49.41,281.71 L 51.71,281.78 L 52.77,281.92 L 53.35,282.14 L 53.89,282.41 L 54.74,283.07 L 55.15,283.64 L 55.46,284.19 L 55.54,284.62 L 56.12,286.44 L 56.37,287.38 L 56.45,287.80 L 56.41,288.05 L 56.49,288.81 L 56.72,289.65 L 56.90,290.47 L 57.19,291.11 L 57.57,291.77 L 57.99,292.28 L 58.48,292.65 L 58.78,292.96 L 59.09,293.17 L 59.35,293.14 L 60.02,292.95 L 61.22,292.61 L 61.94,292.43 L 62.83,292.32 L 63.39,292.10 L 63.80,291.56 L 64.04,290.90 L 64.04,290.42 L 64.12,289.93 L 64.33,289.33 L 64.68,288.72 L 65.06,288.28 L 65.65,287.99 L 66.51,287.84 L 67.25,288.01 L 67.70,288.24 L 68.43,288.70 L 69.00,289.40 L 69.36,290.00 L 69.60,290.96 L 69.49,291.84 L 69.42,292.47 L 69.04,293.49 L 68.79,294.26 L 68.74,294.98 L 68.80,295.51 L 69.25,296.23 L 69.70,296.76 L 70.56,297.69 L 71.16,298.17 L 71.96,298.49 L 72.76,298.88 L 73.95,299.37 L 75.04,299.63 L 76.19,299.69 L 77.05,299.91 L 77.52,299.97 L 77.99,300.03 L 78.60,300.29 L 79.39,300.89 L 80.04,301.48 L 80.39,301.90 L 81.36,303.49 L 81.36,303.49 L 81.92,304.44 L 82.29,305.17 L 82.71,306.15 L 83.12,307.28 L 83.37,307.84 L 83.50,308.12 L 83.50,308.12 L 83.62,308.40 L 83.93,309.18 L 84.29,309.82 L 84.47,310.20 L 84.89,310.78 L 85.30,311.24 L 85.70,311.63 L 85.99,311.77 L 86.72,311.84 L 87.55,311.79 L 88.84,311.60 L 90.02,311.60 L 91.17,311.62 L 91.93,311.70 L 93.38,312.02 L 94.05,312.18 L 94.70,312.46 L 95.35,312.88 L 95.72,313.14 L 96.58,313.76 L 97.33,314.40 L 97.81,314.95 L 98.00,315.28 L 98.17,315.71 L 98.25,316.29 L 98.23,317.03 L 98.05,317.98 L 97.78,318.95 L 97.61,319.69 L 97.54,320.40 L 97.55,320.86 L 97.74,321.60 L 98.41,322.47 L 98.89,323.10 L 99.26,323.52 L 99.56,323.89 L 99.99,324.44 L 100.78,325.21 L 101.64,325.97 L 102.22,326.69 L 102.61,327.09 L 103.00,327.50 L 103.77,328.36 L 104.47,329.11 L 105.30,329.84 L 107.48,331.72 L 107.65,331.96 L 108.34,332.54 L 109.47,333.34 L 110.33,333.90 L 111.12,334.43 L 112.57,335.08 L 113.70,335.59 L 113.91,335.65 L 115.30,336.03 L 116.21,336.28 L 117.00,336.63 L 117.95,336.99 L 118.70,337.37 L 119.72,338.10 L 120.20,338.65 L 120.55,339.05 L 121.26,339.56 L 122.48,340.71 L 123.24,341.44 L 123.68,342.00 L 123.69,342.01 L 123.70,342.02 L 123.70,342.03 L 123.86,342.61 L 123.86,343.04 L 123.90,344.12 L 124.02,344.87 L 124.08,345.51 L 124.37,346.71 L 124.46,347.50 L 124.63,348.30 L 125.00,350.47 L 125.20,351.45 L 125.50,352.25 L 125.78,353.13 L 126.29,354.06 L 126.73,355.16 L 127.00,355.81 L 127.20,356.17 L 128.11,357.81 L 128.51,358.37 L 128.79,358.75 L 129.30,359.35 L 129.83,359.95 L 130.36,360.55 L 131.31,361.31 L 132.16,361.63 L 133.01,361.84 L 133.47,362.01 L 134.52,361.90 L 135.72,361.63 L 137.29,361.00 L 139.17,360.21 L 142.16,358.98 L 143.47,358.38 L 144.83,357.89 L 145.43,357.84 L 146.93,358.06 L 147.51,358.42 L 147.89,358.98 L 148.09,359.40 L 148.37,360.14 L 148.38,361.23 L 148.30,361.45 L 147.65,361.74 L 147.20,361.88 L 146.31,361.89 L 145.64,361.97 L 144.98,362.16 L 144.42,362.43 L 143.78,362.85 L 143.31,363.39 L 143.03,363.83 L 142.59,364.85 L 142.42,365.42 L 142.45,366.30 L 142.73,367.28 L 142.91,367.53 L 143.69,368.39 L 144.26,369.08 L 145.22,369.86 L 145.95,370.30 L 146.37,370.77 L 146.58,371.13 L 146.84,371.75 L 146.94,372.20 L 147.02,372.52 L 146.83,372.74 L 145.88,373.08 L 144.83,373.54 L 143.71,374.01 L 142.93,374.38 L 141.80,375.36 L 140.94,376.14 L 140.26,376.77 L 139.24,377.74 L 138.08,378.83 L 137.22,379.51 L 136.70,380.24 L 135.89,381.33 L 135.49,382.07 L 135.23,382.59 L 135.20,383.20 L 135.29,384.04 L 135.29,384.54 L 135.68,385.34 L 136.20,386.43 L 136.35,386.88 L 136.65,387.78 L 137.08,388.60 L 137.43,389.25 L 137.67,389.53 L 138.34,390.25 L 138.91,390.84 L 139.79,391.73 L 141.04,392.78 L 141.66,393.16 L 142.74,393.67 L 143.22,394.05 L 143.92,394.38 L 144.87,394.90 L 145.11,395.17 L 145.30,395.71 L 145.50,396.33 L 145.34,396.83 L 145.14,397.28 L 144.79,398.12 L 144.36,398.89 L 144.08,399.45 L 143.56,400.36 L 142.53,401.78 L 141.43,402.88 L 140.70,403.73 L 139.54,405.08 L 138.88,405.76 L 138.18,406.67 L 137.46,407.55 L 137.22,407.83 L 137.00,408.47 L 136.95,409.03 L 137.24,409.84 L 137.80,410.50 L 138.48,411.02 L 139.03,411.39 L 139.06,411.82 L 138.97,413.45 L 138.97,414.80 L 138.97,415.96 L 138.95,417.87 L 138.91,418.69 L 138.91,419.86 L 138.86,421.28 L 138.78,422.42 L 138.76,423.30 L 138.86,424.25 L 138.86,425.49 L 138.84,426.40 L 138.82,427.56 L 138.82,428.67 L 138.73,429.85 L 138.75,430.84 L 138.62,431.88 L 138.66,432.92 L 138.69,433.82 L 138.70,434.35 L 138.77,434.86 L 138.81,435.08 L 139.07,435.09 L 139.36,435.10 L 140.81,435.12 L 141.02,435.11 L 141.94,435.08 L 143.57,435.07 L 145.91,435.08 L 147.15,434.99 L 147.99,435.00 L 149.32,435.14 L 150.55,435.39 L 151.97,435.49 L 153.17,435.48 L 154.08,435.60 L 155.18,435.60 L 156.45,435.67 L 157.53,435.70 L 159.12,435.79 L 159.93,435.82 L 160.99,435.91 L 162.30,436.05 L 163.37,436.17 L 164.59,436.38 L 165.60,436.54 L 166.84,436.59 L 168.13,436.71 L 169.83,436.89 L 170.65,436.96 L 171.37,437.02 L 172.61,437.08 L 173.80,437.29 L 174.86,437.44 L 175.78,437.49 L 177.27,437.59 L 178.97,437.69 L 179.09,437.77 L 179.10,438.09 L 179.09,438.84 L 178.94,439.46 L 178.68,440.52 L 178.46,441.47 L 178.27,442.15 L 178.10,443.19 L 177.88,444.22 L 177.67,445.12 L 177.45,446.04 L 177.37,446.63 L 177.33,447.57 L 177.30,449.12 L 177.28,449.67 L 177.37,450.82 L 177.49,451.97 L 177.60,453.11 L 177.66,453.72 L 177.71,454.03 L 177.78,454.55 L 177.68,454.89 L 177.53,455.09 L 177.09,455.34 L 176.22,455.77 L 175.62,456.06 L 174.97,456.41 L 173.95,456.93 L 172.44,457.74 L 171.86,458.07 L 171.31,458.37 L 170.61,458.72 L 170.16,458.99 L 170.03,459.15 L 169.82,459.53 L 169.60,460.05 L 169.38,460.50 L 169.06,461.10 L 168.76,461.55 L 168.89,461.82 L 168.43,461.91 L 168.02,462.06 L 167.53,462.28 L 167.17,462.41 L 166.93,462.43 L 166.91,462.48 L 166.94,462.83 L 167.03,463.65 L 167.05,463.89 L 167.14,464.49 L 167.19,465.03 L 167.31,465.67 L 167.37,465.66 L 167.78,465.39 L 168.39,465.07 L 169.49,464.41 L 170.04,464.07 L 170.78,463.53 L 170.98,463.91 L 171.19,464.31 L 171.42,464.65 L 171.69,465.07 L 171.91,465.42 L 172.21,465.83 L 172.48,466.28 L 172.89,466.92 L 173.19,467.29 L 173.37,467.55 L 173.63,467.90 L 173.98,468.40 L 174.24,468.75 L 174.57,469.23 L 174.77,469.54 L 174.88,469.85 L 174.98,470.17 L 175.01,470.26 L 175.41,470.71 L 175.80,471.74 L 175.98,472.28 L 176.09,472.88 L 176.14,473.35 L 176.11,473.88 L 176.00,474.14 L 175.68,474.49 L 175.20,474.89 L 174.66,475.33 L 174.19,475.80 L 173.86,476.21 L 173.54,476.64 L 173.12,477.54 L 173.12,477.88 L 173.07,478.24 L 173.07,478.66 L 173.11,478.87 L 173.18,479.25 L 173.44,480.06 L 173.58,480.38 L 173.75,480.83 L 173.87,481.16 L 173.91,481.42 L 173.99,481.79 L 174.07,482.02 L 174.21,482.28 L 174.67,482.95 L 174.95,483.42 L 175.18,483.89 L 175.34,484.29 L 175.69,486.66 L 175.69,487.66 L 175.73,487.88 L 175.81,488.12 L 175.89,488.35 L 175.98,488.61 L 176.06,488.92 L 176.12,489.18 L 176.19,489.50 L 176.29,489.85 L 176.53,490.48 L 176.75,491.03 L 177.00,491.55 L 177.92,492.42 L 179.06,493.28 L 179.85,493.83 L 180.62,494.24 L 181.56,494.76 L 181.70,494.85 L 182.14,495.12 L 183.09,495.83 L 184.00,496.70 L 184.78,497.46 L 185.69,498.49 L 186.46,499.51 L 187.24,500.43 L 188.01,501.42 L 188.49,502.28 L 188.70,503.02 L 188.77,503.40 L 188.59,504.15 L 188.21,505.14 L 187.94,505.80 L 187.69,506.19 L 187.25,506.57 L 186.59,506.96 L 186.06,507.22 L 184.95,507.74 L 184.39,508.03 L 183.83,508.39 L 183.28,508.81 L 182.89,509.15 L 182.50,509.58 L 182.03,510.03 L 181.57,510.51 L 181.14,510.91 L 180.39,511.64 L 179.89,512.18 L 179.58,512.67 L 179.47,513.26 L 179.45,513.84 L 179.48,514.46 L 179.55,515.02 L 179.59,515.59 L 179.53,516.19 L 179.07,518.07 L 178.76,519.05 L 178.42,519.88 L 178.42,519.88 L 178.08,520.71 L 177.80,521.30 L 177.35,522.36 L 177.38,522.91 L 177.28,523.08 L 176.76,523.89 L 176.13,524.82 L 175.82,525.28 L 175.59,525.66 L 175.42,526.00 L 175.28,526.26 L 174.98,526.77 L 174.72,527.25 L 174.39,527.77 L 174.11,528.24 L 173.99,528.52 L 173.85,528.82 L 173.80,529.09 L 173.80,529.40 L 173.78,529.82 L 173.80,530.17 L 173.86,530.53 L 173.89,530.86 L 173.98,531.25 L 174.07,531.59 L 174.12,531.82 L 174.16,532.01 L 174.30,532.35 L 174.53,532.83 L 174.74,533.30 L 174.81,533.50 L 174.89,533.70 L 175.24,534.27 L 175.79,535.04 L 175.93,535.25 L 176.07,535.54 L 176.26,535.86 L 176.44,536.21 L 176.80,536.78 L 177.00,537.03 L 177.24,537.33 L 177.45,537.65 L 177.65,537.92 L 177.94,538.21 L 178.02,538.29 L 178.27,538.51 L 178.61,538.82 L 178.92,539.09 L 179.18,539.31 L 179.51,539.53 L 179.83,539.71 L 180.17,539.85 L 180.46,539.93 L 182.66,539.64 L 183.33,539.70 L 183.61,539.56 L 184.33,539.18 L 184.92,538.95 L 185.41,538.76 L 186.55,538.37 L 187.14,538.17 L 187.19,538.15 L 187.56,538.00 L 187.82,537.95 L 188.25,537.89 L 188.73,537.90 L 189.48,537.98 L 190.00,538.01 L 190.83,538.19 L 191.63,538.40 L 191.95,538.51 L 192.47,538.73 L 193.61,539.36 L 194.22,539.65 L 194.43,539.73 L 194.93,540.04 L 195.70,540.46 L 196.41,540.80 L 197.23,541.50 L 197.98,542.06 L 198.43,542.45 L 198.83,542.80 L 199.88,543.56 L 200.60,544.09 L 201.30,544.66 L 201.62,545.02 L 202.04,545.48 L 202.47,545.96 L 203.00,546.65 L 203.42,547.20 L 203.64,547.46 L 203.85,547.69 L 204.23,548.13 L 204.46,548.40 L 205.08,549.03 L 205.46,549.33 L 205.74,549.56 L 206.05,549.85 L 206.39,550.16 L 206.63,550.34 L 206.89,550.48 L 207.33,550.67 L 207.81,550.82 L 208.06,550.89 L 208.41,551.01 L 209.28,551.36 L 209.43,551.41 L 209.76,551.53 L 210.12,551.66 L 210.76,552.02 L 211.44,552.41 L 211.75,552.62 L 212.27,552.99 L 212.64,553.34 L 212.99,553.75 L 213.81,554.79 L 214.27,555.30 L 214.67,555.71 L 215.14,556.24 L 215.44,556.50 L 215.73,556.74 L 216.02,556.91 L 216.40,557.09 L 216.77,557.22 L 217.34,557.29 L 217.68,557.29 L 218.27,557.20 L 218.66,557.08 L 218.98,556.92 L 219.26,556.74 L 219.63,556.39 L 219.95,555.95 L 220.34,555.29 L 220.60,554.69 L 220.98,553.88 L 221.18,553.46 L 221.35,553.10 L 221.45,552.85 L 221.55,552.11 L 221.61,551.48 L 221.55,550.76 L 221.55,550.60 L 221.55,550.46 L 221.47,550.18 L 221.34,549.71 L 221.25,549.44 L 221.06,549.03 L 220.84,548.59 L 220.64,548.28 L 220.43,547.99 L 220.03,547.53 L 219.64,547.18 L 219.24,546.87 L 219.07,546.77 L 218.71,546.60 L 218.35,546.35 L 218.09,545.99 L 217.89,545.61 L 217.75,545.00 L 217.68,544.39 L 217.73,544.10 L 217.84,543.70 L 218.10,543.14 L 218.21,543.01 L 218.47,542.84 L 218.93,542.60 L 219.41,542.46 L 219.80,542.37 L 220.15,542.28 L 220.51,542.16 L 220.89,542.03 L 221.26,541.93 L 221.79,541.80 L 222.26,541.63 L 222.79,541.46 L 223.70,541.26 L 224.39,541.11 L 225.12,541.01 L 225.47,540.99 L 226.02,541.00 L 226.80,540.98 L 227.33,540.92 L 227.89,540.85 L 228.53,540.72 L 229.14,540.57 L 229.24,540.54 L 229.30,540.52 L 229.87,540.37 L 230.26,540.29 L 230.85,540.22 L 231.14,540.17 L 231.42,540.12 L 232.67,539.77 L 233.27,539.62 L 233.86,539.51 L 234.50,539.42 L 236.59,539.38 L 237.25,539.35 L 238.46,539.35 L 239.54,539.35 L 240.07,539.33 L 240.37,539.29 L 240.82,539.46 L 241.38,539.49 L 242.52,539.31 L 243.73,539.27 L 244.40,539.43 L 245.01,539.90 L 245.38,540.24 L 245.63,540.78 L 245.67,541.34 L 245.70,541.99 L 245.49,543.09 L 245.23,543.79 L 244.90,544.31 L 244.25,545.37 L 243.55,547.83 L 243.86,549.63 L 244.22,551.08 L 244.70,552.32 L 245.82,553.94 L 245.91,554.14 L 245.99,554.37 L 246.04,554.69 L 246.02,555.21 L 245.92,555.65 L 245.82,556.06 L 245.59,556.69 L 245.44,557.13 L 245.26,557.56 L 245.12,557.86 L 244.88,558.36 L 244.76,558.58 L 244.35,559.61 L 244.10,560.48 L 244.00,561.00 L 244.05,562.51 L 244.08,562.83 L 244.11,563.08 L 244.15,563.29 L 244.27,563.64 L 244.36,563.80 L 244.52,564.05 L 244.73,564.33 L 245.06,564.84 L 245.25,565.22 L 245.28,565.26 L 246.02,566.08 L 246.61,566.54 L 247.19,566.79 L 247.93,566.95 L 248.46,567.03 L 249.14,566.91 L 250.32,566.46 L 250.53,566.17 L 250.89,565.57 L 251.28,564.92 L 251.68,564.16 L 251.77,563.93 L 251.98,562.72 L 252.40,561.56 L 252.87,560.95 L 252.80,560.65 L 252.80,560.65 L 252.80,560.65 L 252.81,560.62 L 252.81,560.61 L 252.95,560.37 L 253.06,560.27 L 253.40,560.08 L 253.61,559.97 L 253.84,559.78 L 254.02,559.69 L 254.27,559.59 L 254.53,559.52 L 254.85,559.42 L 255.29,559.29 L 255.77,559.16 L 256.00,559.13 L 256.39,559.13 L 257.05,559.13 L 258.12,559.20 L 258.57,559.24 L 259.40,559.31 L 260.06,559.20 L 260.78,559.19 L 261.75,559.40 L 263.16,559.81 L 264.49,560.36 L 264.89,560.57 L 265.12,560.71 L 265.44,560.99 L 265.58,561.10 L 265.65,561.18 L 266.09,561.67 L 266.56,562.16 L 267.60,563.11 L 268.08,563.56 L 268.74,564.21 L 269.01,564.54 L 269.47,565.15 L 269.62,565.30 L 269.89,565.53 L 270.99,566.48 L 271.56,566.88 L 272.19,567.22 L 272.57,567.45 L 272.84,567.57 L 273.50,567.91 L 274.01,568.21 L 274.38,568.54 L 274.95,568.84 L 275.48,569.06 L 276.08,569.32 L 276.72,569.60 L 277.24,569.94 L 277.87,570.27 L 278.46,570.66 L 280.21,571.76 L 280.91,572.08 L 281.33,572.34 L 281.55,572.45 L 281.84,572.74 L 282.29,573.26 L 282.42,573.54 L 282.91,574.17 L 283.63,574.88 L 282.97,575.31 L 282.68,575.44 L 282.37,575.63 L 282.02,575.99 L 281.75,576.20 L 281.45,576.38 L 281.18,576.52 L 280.93,576.62 L 280.75,576.73 L 280.48,576.91 L 280.13,577.14 L 279.77,577.38 L 279.53,577.51 L 279.44,577.59 L 279.38,577.69 L 279.23,577.89 L 279.06,578.12 L 278.89,578.34 L 278.71,578.46 L 278.59,578.53 L 278.52,578.60 L 278.49,578.67 L 278.49,578.83 L 278.49,579.34 L 278.51,579.61 L 278.55,579.83 L 278.62,580.00 L 278.71,580.16 L 279.19,580.89 L 279.30,581.00 L 279.40,581.06 L 279.51,581.13 L 279.67,581.25 L 279.88,581.40 L 280.12,581.55 L 280.26,581.64 L 280.37,581.73 L 280.49,581.81 L 280.65,581.87 L 280.79,581.88 L 281.02,581.92 L 281.22,581.95 L 281.40,581.99 L 281.55,582.06 L 281.74,582.13 L 282.02,582.18 L 282.21,582.23 L 282.41,582.23 L 282.62,582.25 L 282.81,582.28 L 283.02,582.35 L 283.26,582.44 L 283.70,582.53 L 283.90,582.63 L 284.12,582.72 L 284.29,582.79 L 284.50,582.85 L 284.66,582.87 L 284.81,582.91 L 285.00,582.91 L 285.14,582.94 L 285.27,582.97 L 285.44,583.05 L 285.67,583.14 L 285.83,583.18 L 286.02,583.23 L 286.26,583.31 L 286.43,583.39 L 286.64,583.48 L 286.86,583.60 L 287.08,583.77 L 287.37,583.97 L 287.58,584.10 L 287.73,584.18 L 287.87,584.23 L 288.01,584.27 L 288.14,584.31 L 288.27,584.37 L 288.43,584.46 L 288.66,584.67 L 288.99,584.92 L 289.18,585.09 L 289.40,585.25 L 289.63,585.44 L 289.85,585.69 L 290.00,585.92 L 290.12,586.12 L 290.16,586.30 L 290.18,586.69 L 290.23,587.31 L 290.24,587.43 L 290.28,587.58 L 290.32,587.72 L 290.37,587.96 L 290.38,588.52 L 290.40,588.75 L 290.43,588.82 L 290.48,588.91 L 290.55,588.98 L 290.69,589.11 L 290.96,589.41 L 291.24,589.71 L 291.54,589.89 L 291.61,589.95 L 291.76,589.99 L 291.87,590.00 L 292.08,589.98 L 292.46,589.96 L 292.68,589.92 L 292.79,589.88 L 292.86,589.82 L 293.07,589.68 L 293.41,589.42 L 293.63,589.26 L 293.78,589.14 L 293.95,588.94 L 294.10,588.67 L 294.24,588.40 L 294.45,588.15 L 294.71,587.90 L 294.96,587.64 L 295.03,587.58 L 295.67,586.87 L 295.98,586.64 L 296.15,586.54 L 296.46,586.44 L 297.23,586.27 L 297.76,586.09 L 297.83,585.96 L 297.87,585.79 L 298.21,584.30 L 298.36,583.72 L 298.59,582.97 L 298.91,582.19 L 299.23,581.19 L 299.52,580.40 L 299.73,579.79 L 299.87,579.34 L 299.97,579.09 L 300.13,578.89 L 300.32,578.69 L 300.51,578.54 L 300.81,578.34 L 301.27,577.96 L 301.79,577.48 L 302.25,577.03 L 303.15,576.15 L 304.56,574.85 L 305.07,574.42 L 305.42,574.00 L 306.97,572.49 L 307.48,572.01 L 308.58,570.96 L 309.85,569.78 L 310.29,569.21 L 310.68,568.94 L 310.85,568.75 L 311.01,568.20 L 311.04,568.11 L 311.10,567.17 L 311.14,567.00 L 311.34,566.27 L 311.55,565.62 L 311.60,565.00 L 311.66,564.24 L 311.68,562.26 L 311.63,560.97 L 311.53,559.24 L 311.51,558.35 L 311.54,557.61 L 311.47,557.03 L 311.36,556.32 L 311.13,554.69 L 311.09,554.22 L 311.01,552.23 L 311.02,550.91 L 311.17,549.64 L 311.22,548.94 L 311.25,548.36 L 311.61,544.40 L 311.94,541.85 L 312.06,541.17 L 312.19,539.72 L 312.26,538.69 L 312.28,537.96 L 312.42,537.34 L 312.75,536.01 L 312.90,535.35 L 313.06,534.70 L 313.20,534.44 L 313.41,534.09 L 313.68,533.63 L 314.42,532.54 L 316.16,530.28 L 316.49,529.80 L 316.59,529.54 L 316.61,528.87 L 317.30,528.73 L 317.74,528.07 L 318.05,527.54 L 318.58,526.76 L 318.75,526.62 L 319.09,526.13 L 319.87,525.06 L 320.57,523.92 L 321.22,522.98 L 321.37,522.78 L 321.84,522.38 L 322.33,521.96 L 322.91,521.51 L 323.43,521.20 L 324.60,520.62 L 325.42,520.27 L 325.29,519.76 L 324.85,518.61 L 324.71,517.98 L 324.58,517.48 L 324.13,516.52 L 323.91,516.20 L 323.69,515.98 L 323.48,515.82 L 323.10,515.35 L 322.80,514.94 L 321.91,513.45 L 321.79,513.23 L 321.60,513.00 L 320.86,511.66 L 320.71,511.46 L 320.61,511.18 L 320.56,510.97 L 320.42,510.52 L 319.89,508.90 L 319.35,507.29 L 318.98,506.22 L 318.87,505.70 L 318.73,505.34 L 318.44,504.84 L 318.12,504.22 L 317.90,503.84 L 317.87,503.72 L 317.85,503.50 L 318.33,503.50 L 318.95,503.54 L 320.42,503.81 L 321.20,503.86 L 321.89,503.98 L 322.57,504.15 L 323.89,504.42 L 325.11,504.69 L 325.84,504.79 L 326.60,504.97 L 327.37,505.13 L 328.08,505.23 L 328.81,505.27 L 330.19,505.45 L 330.97,505.57 L 332.15,505.80 L 332.39,503.58 L 332.57,501.47 L 332.73,499.87 L 332.82,499.54 L 332.91,499.32 L 333.00,499.09 L 333.10,498.88 L 333.45,498.38 L 333.63,498.08 L 333.73,497.86 L 333.77,497.66 L 333.79,497.32 L 333.83,496.43 L 334.02,493.25 L 334.27,489.13 L 334.31,487.75 L 334.33,487.55 L 334.41,487.35 L 334.54,487.06 L 336.23,483.75 L 337.62,481.05 L 338.19,479.96 L 338.64,479.06 L 338.83,478.65 L 339.00,478.11 L 339.19,477.12 L 339.78,474.47 L 340.50,471.25 L 341.20,468.27 L 341.66,466.64 L 341.80,466.25 L 342.28,466.25 L 343.60,466.04 L 345.78,465.52 L 347.19,465.19 L 347.40,465.10 L 347.60,464.95 L 347.93,464.59 L 349.38,463.09 L 349.86,462.64 L 350.42,462.20 L 350.91,461.68 L 351.84,460.72 L 352.35,460.20 L 353.22,459.60 L 353.43,459.38 L 353.89,458.95 L 354.48,458.50 L 355.58,457.75 L 356.22,457.41 L 357.41,456.86 L 358.06,456.68 L 359.29,456.20 L 359.74,455.92 L 359.92,455.78 L 360.00,455.58 L 360.04,455.32 L 360.18,454.78 L 360.34,454.07 L 360.36,453.93 L 360.36,453.74 L 360.37,453.61 L 360.40,453.51 L 360.46,453.36 L 360.52,453.25 L 360.58,453.17 L 360.69,453.06 L 360.85,452.89 L 360.98,452.73 L 361.06,452.57 L 361.23,452.26 L 361.29,452.13 L 361.33,451.96 L 361.35,451.84 L 361.36,451.70 L 361.36,451.58 L 361.34,451.47 L 361.28,451.22 L 361.26,451.06 L 361.25,450.93 L 361.27,450.81 L 361.32,450.63 L 361.39,450.45 L 361.53,449.94 L 361.70,449.64 L 362.03,449.08 L 362.05,448.71 L 362.04,448.57 L 362.05,448.38 L 362.35,448.13 L 362.76,447.72 L 362.98,447.41 L 363.19,447.13 L 363.36,446.86 L 363.53,446.51 L 363.72,446.55 L 363.70,446.66 L 363.69,446.80 L 363.76,446.96 L 363.84,447.11 L 363.98,447.29 L 364.21,447.48 L 364.58,447.74 L 364.74,447.87 L 364.84,447.88 L 364.95,447.87 L 365.11,447.81 L 365.48,447.72 L 366.21,447.65 L 366.72,447.62 L 367.24,447.73 L 367.79,447.87 L 368.45,448.03 L 369.51,448.29 L 370.56,448.61 L 371.69,448.96 L 372.56,449.25 L 372.96,449.36 L 373.50,449.38 L 373.81,449.36 L 374.02,449.28 L 374.25,449.32 L 374.65,449.31 L 375.15,449.30 L 375.90,449.26 L 376.83,449.21 L 377.79,449.21 L 379.02,449.21 L 379.70,449.28 L 380.39,449.36 L 381.07,449.47 L 381.18,449.55 L 381.26,449.66 L 381.32,449.94 L 383.32,450.61 L 384.63,451.11 L 386.63,452.01 L 387.00,452.14 L 387.38,452.27 L 387.98,452.52 L 389.94,453.38 L 390.60,453.60 L 391.79,454.24 L 392.38,454.67 L 392.92,455.01 L 394.02,455.68 L 394.79,456.11 L 395.04,456.29 L 395.27,456.40 L 395.58,456.49 L 395.89,456.57 L 396.10,456.61 L 396.68,456.74 L 397.49,456.92 L 398.92,457.22 L 399.56,457.39 L 400.27,457.62 L 400.98,457.74 L 401.67,457.89 L 403.07,458.26 L 403.69,458.47 L 404.89,458.81 L 406.22,459.19 L 406.86,459.61 L 407.56,459.88 L 408.39,460.21 L 409.13,460.49 L 410.26,460.83 L 410.85,460.09 L 411.58,459.10 L 411.92,458.58 L 412.19,458.10 L 412.27,457.80 L 412.45,455.93 L 412.57,454.57 L 412.55,453.86 L 412.62,452.98 L 412.67,451.71 L 412.72,450.92 L 412.78,450.16 L 412.92,449.67 L 413.19,446.43 L 413.24,445.03 L 413.29,443.28 L 413.24,439.97 L 412.97,436.99 L 412.83,434.76 L 412.71,432.74 L 410.90,432.09 L 409.63,431.35 L 407.49,430.53 L 404.14,429.37 L 400.73,428.37 L 396.44,427.06 L 394.87,426.69 L 395.86,424.22 L 397.84,419.53 L 399.06,417.24 L 400.97,414.32 L 401.33,413.75 L 402.46,412.17 L 403.42,410.22 L 408.05,408.52 L 408.58,406.22 L 409.69,401.21 L 410.39,398.41 L 412.05,394.25 L 412.50,393.01 L 415.43,389.10 L 416.33,387.57 L 416.34,387.56 L 417.32,385.28 L 418.45,383.46 L 419.10,382.41 L 420.16,379.64 L 420.56,379.09 L 422.41,377.99 L 424.30,376.50 L 425.21,375.94 L 425.80,374.65 L 426.22,373.66 L 426.77,372.77 L 426.60,371.46 L 426.43,370.49 L 426.51,369.42 L 427.11,368.41 L 428.99,366.80 L 429.03,366.79 L 429.35,366.36 L 429.82,365.80 L 430.33,365.00 L 430.76,364.42 L 431.14,363.95 L 431.49,363.51 L 431.83,362.92 L 432.13,362.27 L 432.31,361.69 L 432.45,361.00 L 432.55,360.36 L 432.80,359.29 L 432.98,358.63 L 433.09,358.20 L 433.29,357.88 L 433.60,357.50 L 434.47,358.09 L 434.88,358.03 L 435.67,357.55 L 436.78,356.46 L 437.26,355.90 L 439.32,355.12 L 441.26,354.28 L 441.68,354.12 L 441.76,354.09 L 442.87,354.60 L 443.83,355.15 L 445.77,355.54 L 447.35,355.47 L 450.63,356.09 L 455.21,356.96 L 459.09,357.88 L 460.99,358.46 L 463.82,358.78 L 468.04,358.92 L 470.59,359.45 L 471.65,359.91 L 473.07,361.09 L 474.13,362.06 L 474.32,362.47 L 473.85,364.20 L 476.87,363.69 L 481.68,362.76 L 484.67,362.00 L 489.58,360.79 L 490.73,360.50 L 489.66,358.98 L 489.48,357.68 L 490.63,355.96 L 492.08,354.32 L 493.01,353.27 L 494.80,351.57 L 497.56,349.52 L 500.38,347.57 L 502.50,347.59 L 505.87,348.04 L 510.84,348.93 L 515.28,349.68 L 515.42,349.32 L 515.48,349.02 L 515.50,348.55 L 515.57,347.77 L 515.63,347.04 L 515.69,346.38 L 515.68,345.58 L 515.68,344.92 L 515.75,344.21 L 515.85,343.64 L 515.87,343.30 L 515.97,342.85 L 516.11,342.27 L 516.14,341.77 L 516.19,341.45 L 516.19,340.99 L 516.22,340.49 L 516.28,340.16 L 516.39,339.73 L 516.44,339.23 L 516.42,338.82 L 516.27,338.22 L 516.25,337.78 L 516.32,337.50 L 516.39,337.32 L 516.56,337.07 L 516.84,336.64 L 517.28,336.13 L 517.66,335.73 L 517.93,335.34 L 518.13,334.87 L 518.21,334.39 L 518.29,333.94 L 518.31,333.58 L 518.49,332.81 L 518.68,332.30 L 518.94,332.00 L 519.43,331.65 L 519.84,331.35 L 520.13,331.21 L 520.39,331.16 L 520.78,331.02 L 521.09,330.95 L 521.24,330.85 L 521.35,330.70 L 521.45,330.44 L 521.61,329.99 L 521.72,329.75 L 521.85,329.64 L 522.08,329.47 L 522.54,329.16 L 523.08,328.95 L 523.24,328.87 L 523.40,328.83 L 523.68,328.82 L 523.91,328.76 L 524.08,328.64 L 524.18,328.53 L 524.29,328.27 L 524.36,328.07 L 524.53,327.80 L 524.74,327.53 L 525.02,327.28 L 525.38,327.05 L 525.71,326.89 L 525.97,326.63 L 526.18,326.44 L 526.37,326.06 L 526.58,325.45 L 526.80,325.03 L 527.03,324.68 L 527.13,324.45 L 527.26,324.19 L 527.38,323.85 L 527.43,323.35 L 527.60,322.79 L 527.78,322.23 L 527.89,321.77 L 527.91,321.25 L 527.98,320.84 L 528.12,320.53 L 528.31,320.14 L 528.42,319.66 L 528.46,319.56 L 528.62,319.36 L 528.54,319.01 L 528.39,318.73 L 528.15,318.43 L 527.79,318.02 L 527.55,317.70 L 527.36,317.34 L 527.02,316.67 L 526.75,316.19 L 526.34,315.48 L 526.10,314.81 L 526.02,314.50 L 525.98,313.82 L 525.93,313.35 L 525.87,313.03 L 525.78,312.67 L 525.65,312.25 L 525.46,311.63 L 525.33,311.06 L 525.27,310.40 L 525.18,309.57 L 525.15,309.01 L 525.08,308.52 L 524.94,308.17 L 525.07,307.48 L 524.95,306.11 L 524.09,303.82 L 523.50,302.97 L 522.92,301.76 L 522.71,300.92 L 522.13,299.54 L 521.92,298.93 L 522.14,297.62 L 522.71,295.88 L 522.82,295.24 L 522.87,294.09 L 522.84,292.97 L 522.66,291.88 L 521.92,291.10 L 521.58,290.85 L 519.68,289.48 L 518.02,288.33 L 517.43,288.05 L 516.87,287.93 L 515.62,287.93 L 514.47,288.14 L 512.75,288.32 L 511.66,288.55 L 510.71,288.41 L 509.50,288.08 L 508.98,287.83 L 508.38,287.36 L 506.44,285.74 L 504.93,284.91 L 503.41,284.13 L 502.83,283.77 L 502.05,282.29 L 501.68,281.08 L 502.21,279.92 L 502.94,278.58 L 504.48,275.90 L 505.31,274.49 L 505.30,274.49 L 503.46,274.15 L 501.20,273.59 L 497.37,273.26 L 494.49,272.75 L 493.21,273.14 L 490.50,274.52 L 489.14,275.25 L 486.41,275.15 L 484.13,275.02 L 480.58,274.85 L 478.83,274.71 L 477.90,274.64 L 472.91,274.40 L 469.20,274.13 L 466.15,273.70 L 464.51,272.43 L 463.86,271.12 L 463.77,270.24 L 463.25,269.24 L 461.91,265.87 L 460.73,263.53 L 459.99,261.63 L 458.47,256.37 L 458.04,255.24 L 457.17,252.65 L 456.97,252.40 L 456.85,252.10 L 456.78,251.77 L 456.66,251.25 L 456.63,250.86 L 456.66,250.57 L 456.69,250.50 L 456.57,250.20 L 456.04,247.79 L 455.75,246.44 L 455.54,245.04 L 454.89,242.59 L 454.56,241.07 L 454.85,236.98 L 454.39,236.91 L 450.10,236.30 L 447.05,235.52 L 443.94,235.32 L 443.11,235.49 L 441.87,238.48 L 439.87,238.02 L 438.05,238.08 L 435.46,238.16 L 432.29,238.58 L 430.39,238.74 L 428.96,238.30 L 426.26,236.88 L 424.28,236.10 L 423.04,234.87 L 421.80,233.20 L 421.36,231.56 L 419.83,229.41 L 419.40,228.47 L 418.28,227.25 L 417.35,226.16 L 415.24,223.70 L 414.05,223.67 L 411.65,223.88 L 408.43,224.74 L 406.86,225.22 L 405.98,225.48 L 405.13,225.24 L 404.27,224.68 L 403.18,224.28 L 401.71,223.84 L 400.77,223.76 L 400.36,223.92 L 400.14,224.23 L 399.44,225.07 L 398.90,225.28 L 398.40,225.33 L 397.91,225.03 L 397.51,224.53 L 397.23,224.00 L 396.76,223.61 L 396.02,223.62 L 395.00,223.68 L 394.69,223.48 L 394.57,223.04 L 394.42,222.16 L 393.77,221.46 L 392.60,220.49 L 391.20,219.61 L 390.55,219.46 L 389.89,219.62 L 388.92,219.90 L 387.66,220.50 L 387.28,221.01 L 386.38,221.96 L 384.97,222.69 L 384.89,222.75 L 383.58,223.78 L 382.51,224.93 L 381.72,225.27 L 380.20,225.23 L 379.13,225.10 L 378.16,225.27 L 378.18,225.49 L 378.23,225.92 L 379.20,229.99 L 379.99,234.15 L 381.48,236.91 L 378.99,237.21 L 378.92,238.63 L 377.99,241.79 L 377.80,242.35 L 376.10,247.48 L 374.44,252.66 L 372.59,256.77 L 371.17,260.57 L 370.51,262.57 L 369.91,264.76 L 368.53,264.84 L 367.02,264.88 L 363.88,264.91 L 360.74,264.81 L 360.43,264.79 L 356.36,264.52 L 354.14,264.45 L 353.28,264.41 L 352.79,264.42 L 352.39,264.41 L 352.17,264.38 L 351.88,264.31 L 351.32,264.27 L 350.84,264.21 L 349.04,264.24 L 348.19,264.22 L 348.11,264.21 L 347.64,264.19 L 347.14,264.13 L 346.78,264.04 L 346.66,263.94 L 346.65,263.93 L 346.18,263.96 L 344.60,263.98 L 337.48,263.28 L 332.26,262.61 L 329.52,262.37 L 326.69,262.22 L 327.27,263.01 L 327.73,263.47 L 327.77,264.11 L 327.37,265.66 L 326.21,267.51 L 325.77,267.88 L 325.51,268.10 L 324.87,268.33 L 324.19,268.28 L 323.74,268.24 L 322.85,268.17 L 322.29,267.85 L 321.08,267.69 L 320.41,267.46 L 319.75,267.21 L 317.86,266.68 L 316.35,266.02 L 314.40,265.02 L 312.53,264.06 L 310.98,263.40 L 309.88,262.92 L 308.15,262.05 L 307.10,261.70 L 305.21,260.71 L 304.25,260.06 L 303.50,259.65 L 302.62,259.38 L 302.55,259.40 L 301.81,259.65 L 301.41,260.04 L 300.45,260.93 L 299.22,260.58 L 298.23,260.38 L 296.08,260.18 L 294.02,259.93 L 293.07,259.68 L 291.45,259.60 L 288.71,259.46 L 286.35,259.47 L 283.94,259.44 L 281.27,259.09 L 278.56,259.01 L 276.88,258.95 L 273.61,258.66 L 272.43,258.61 L 270.52,258.30 L 270.08,258.23 L 268.88,257.82 L 267.09,257.30 L 264.22,256.66 L 261.97,256.32 L 260.06,256.13 L 258.80,255.54 L 256.47,254.46 L 255.38,253.80 L 254.11,253.16 L 252.86,252.51 L 252.44,252.02 L 250.97,250.71 L 250.32,250.28 L 249.12,249.48 L 248.00,248.39 L 247.10,247.16 L 246.38,246.04 L 246.07,245.56 L 245.85,244.74 L 245.83,244.11 L 245.99,243.41 L 246.15,242.59 L 246.53,242.02 L 247.10,240.67 L 247.53,239.12 L 247.72,238.29 L 246.80,238.25 L 244.69,238.19 L 243.02,237.92 L 241.64,237.76 L 241.15,237.70 L 240.14,237.49 L 239.09,237.23 L 237.84,237.01 L 236.02,236.77 L 234.30,236.46 L 233.42,236.44 L 232.06,236.30 L 230.29,236.17 L 229.42,236.16 L 228.13,235.90 L 227.33,235.92 L 226.39,236.01 L 225.81,235.91 L 224.98,235.80 L 224.11,235.69 L 224.38,235.02 L 224.77,234.29 L 224.92,233.66 L 225.07,232.88 L 225.25,231.49 L 225.38,230.77 L 225.65,230.14 L 226.08,228.65 L 226.28,227.79 L 226.46,227.04 L 226.40,226.37 L 226.16,224.21 L 226.00,222.32 L 225.97,221.61 L 225.97,221.28 L 225.97,220.90 L 227.21,219.19 L 227.94,217.74 L 228.70,216.55 L 229.22,214.80 L 229.44,213.78 L 229.56,212.45 L 229.74,210.99 L 229.84,209.47 L 230.06,208.74 L 230.31,207.72 L 230.43,206.80 L 230.68,206.19 L 230.82,205.47 L 231.17,203.10 L 231.40,201.78 L 231.40,200.95 L 231.62,199.48 L 231.95,198.04 L 232.01,197.47 L 232.43,196.05 L 233.18,195.78 L 234.53,195.40 L 235.87,195.12 L 236.94,194.83 L 238.35,194.59 L 239.01,194.42 L 239.90,194.31 L 241.35,194.15 L 242.50,193.95 L 244.36,193.66 L 245.18,193.62 L 246.06,193.54 L 246.60,192.90 L 246.60,192.05 L 246.91,191.26 L 247.09,190.45 L 247.44,189.60 L 248.11,187.75 L 248.34,186.99 L 248.89,185.48 L 249.30,184.71 L 249.40,183.91 L 249.50,183.34 L 249.62,182.35 L 249.80,181.10 L 249.85,180.36 L 250.07,179.05 L 249.93,178.32 L 249.90,177.54 L 249.88,176.81 L 250.12,175.25 L 250.25,173.80 L 250.36,172.43 L 250.40,170.99 L 250.55,169.48 L 250.52,167.86 L 250.45,167.16 L 250.55,165.31 L 250.59,164.46 L 250.57,163.85 L 250.54,163.06 L 250.55,161.37 L 250.55,160.00 L 250.57,159.29 L 250.87,157.99 L 250.97,157.36 L 251.19,156.32 L 251.39,155.37 L 251.72,154.27 L 252.04,153.24 L 252.23,152.62 L 252.76,150.92 L 253.02,150.31 L 253.54,148.88 L 253.86,148.24 L 254.34,147.14 L 254.71,146.10 L 255.09,145.00 L 255.50,144.36 L 256.03,143.34 L 256.22,142.60 L 256.58,141.25 L 256.77,140.15 L 256.90,139.39 L 257.14,138.41 L 257.48,136.57 L 257.76,135.55 L 258.14,134.54 L 258.39,133.78 L 258.69,132.53 L 258.87,131.78 L 259.24,130.63 L 259.46,129.45 L 259.72,128.31 L 260.10,126.32 L 260.66,124.70 L 261.53,122.47 L 264.04,117.91 L 265.21,115.46 L 265.57,114.09 L 267.24,110.34 L 267.96,108.06 L 269.17,104.22 L 269.99,99.66 L 270.38,96.08 L 270.27,95.36 L 270.70,94.61 L 271.60,92.77 L 272.38,90.12 L 272.80,87.15 L 273.01,83.33 L 273.37,81.09 L 271.77,80.85 L 269.94,80.68 L 265.91,80.62 L 261.08,80.46 L 260.06,80.28 L 258.72,80.20 L 256.79,79.91 L 254.76,79.67 L 253.42,79.42 L 253.86,77.54 L 254.58,74.45 L 254.81,73.00 L 255.05,70.64 L 254.73,68.83 L 254.59,67.82 L 254.59,67.37 L 254.67,65.64 L 254.82,65.32 L 255.25,64.34 L 255.67,63.13 L 255.77,62.48 L 255.77,61.59 L 256.04,61.12 L 256.12,60.83 L 256.10,60.50 L 255.90,59.34 L 255.75,58.83 L 255.51,58.51 L 254.70,57.92 L 255.01,57.25 L 255.78,55.78 L 256.42,54.52 L 256.71,53.99 L 257.12,53.23 L 257.81,51.86 L 258.00,51.49 L 258.04,51.23 L 257.38,50.39 L 257.85,50.07 L 258.00,48.78 L 257.97,46.57 L 258.00,45.42 L 258.04,44.91 L 258.02,41.62 L 258.16,38.93 L 258.15,35.48 L 258.15,33.49 L 258.18,32.60 L 258.22,31.54 L 258.86,31.69 L 260.05,31.82 L 260.21,31.84 L 262.25,32.05 L 263.67,31.71 L 265.32,33.72 L 266.43,34.06 L 266.25,35.08 L 267.15,36.24 L 267.65,34.67 L 268.68,31.17 L 269.08,30.58 L 269.29,29.22 L 270.79,28.54 L 274.26,26.73 L 278.76,25.00 L 278.12,22.69 L 277.97,21.09 L 277.26,20.92 L 274.50,20.03 L 271.79,18.60 L 271.11,17.99 L 271.00,17.27 L 270.32,15.37 L 269.34,14.30 L 269.45,14.20 L 269.54,14.05 L 267.86,14.12 L 264.95,13.98 L 263.71,13.92 L 262.53,13.85 L 262.27,14.07 L 262.25,14.08 L 262.22,14.19 L 261.63,16.47 L 261.48,16.54 L 260.95,16.75 L 260.24,17.04 L 259.21,17.19 L 258.65,17.00 L 258.39,16.61 L 258.09,16.17 L 258.07,16.11 L 257.63,14.97 L 257.22,14.15 L 257.14,13.99 L 257.13,13.98 L 256.56,13.48 L 256.15,13.48 L 255.00,13.99 L 254.56,14.19 L 252.97,14.75 L 252.36,14.78 L 252.05,14.80 L 251.67,14.36 L 250.80,12.62 L 250.21,11.52 L 250.02,10.94 L 249.91,10.62 L 249.85,10.46 L 249.80,10.30 L 249.77,10.24 L 249.72,10.09 L 249.68,10.04 Z" fill="#1d3672" stroke="#333" stroke-width="1"/>
</svg>