<svg xmlns="http://www.w3.org/2000/svg" width="800" height="600" viewBox="0 0 800 600">
<path d="M 49.38,10.02 L 48.35,10.00 L 48.42,10.45 L 48.54,11.12 L 48.80,12.42 L 49.35,14.31 L 49.76,15.61 L 50.27,16.82 L 50.79,17.97 L 51.62,19.69 L 52.53,21.13 L 53.26,22.82 L 54.56,25.05 L 55.55,26.52 L 56.19,27.75 L 56.54,29.63 L 56.83,31.60 L 56.72,33.70 L 56.74,34.45 L 56.68,35.84 L 56.72,36.83 L 57.25,36.58 L 58.65,36.24 L 59.20,35.93 L 60.61,35.50 L 61.58,35.54 L 62.48,35.52 L 63.05,35.15 L 63.65,34.79 L 64.22,34.61 L 64.13,37.45 L 64.08,42.84 L 64.08,44.61 L 64.18,45.27 L 64.51,45.52 L 67.49,45.57 L 72.28,45.77 L 73.45,45.97 L 74.85,46.40 L 77.09,46.68 L 79.14,46.78 L 81.29,47.01 L 83.57,47.21 L 84.27,47.17 L 85.51,47.17 L 85.57,48.32 L 85.60,49.04 L 85.73,50.10 L 86.00,52.14 L 85.81,54.45 L 84.99,57.42 L 84.16,60.83 L 82.85,65.85 L 82.65,66.76 L 82.11,69.22 L 81.82,70.56 L 81.77,71.14 L 81.63,72.68 L 80.97,74.88 L 80.38,76.97 L 77.82,76.82 L 76.01,80.80 L 74.98,82.93 L 74.72,83.48 L 74.45,84.26 L 74.27,85.68 L 74.21,87.09 L 74.08,88.32 L 73.99,90.65 L 73.79,91.28 L 73.15,93.93 L 72.80,95.49 L 71.90,99.61 L 73.23,100.14 L 74.78,100.46 L 80.63,102.33 L 82.65,103.09 L 86.24,104.30 L 89.18,105.39 L 91.42,105.84 L 94.48,106.25 L 97.51,106.83 L 99.77,107.33 L 101.19,107.58 L 103.49,108.01 L 107.02,108.41 L 106.71,110.61 L 106.57,111.22 L 106.41,112.68 L 106.43,114.90 L 106.25,117.10 L 105.93,119.95 L 105.77,121.44 L 105.03,126.66 L 104.58,131.28 L 104.03,135.72 L 103.90,137.13 L 103.74,139.32 L 103.39,140.78 L 103.13,142.07 L 102.57,143.33 L 101.77,144.49 L 101.37,145.12 L 101.21,146.15 L 101.13,146.64 L 100.84,147.73 L 100.54,149.23 L 100.39,149.95 L 100.17,152.15 L 100.12,153.53 L 99.83,154.97 L 99.48,156.46 L 98.87,157.54 L 96.18,157.92 L 92.35,158.44 L 88.65,158.87 L 85.14,159.28 L 79.72,159.58 L 79.29,161.72 L 78.71,164.83 L 78.13,167.76 L 77.38,171.29 L 76.98,172.70 L 76.38,173.88 L 75.82,175.26 L 75.60,176.78 L 75.10,178.85 L 74.78,179.66 L 74.30,181.75 L 74.06,183.82 L 74.09,184.26 L 74.17,185.21 L 74.64,186.65 L 75.31,188.57 L 75.55,189.79 L 75.61,190.22 L 75.75,191.17 L 76.10,193.22 L 76.47,194.27 L 76.82,195.44 L 77.08,196.70 L 76.98,198.74 L 76.93,200.71 L 76.98,202.12 L 77.67,204.67 L 78.44,207.95 L 78.89,209.87 L 79.18,211.91 L 79.53,214.57 L 79.64,215.98 L 79.77,217.08 L 79.89,217.65 L 79.93,217.80 L 79.88,218.43 L 79.71,218.92 L 79.66,219.06 L 79.39,219.77 L 79.26,220.54 L 79.42,221.18 L 79.45,221.85 L 79.50,222.49 L 79.40,223.17 L 79.13,224.35 L 78.12,226.89 L 76.63,229.21 L 75.84,230.35 L 75.48,230.91 L 75.25,231.65 L 75.03,232.28 L 74.90,233.01 L 74.95,234.17 L 74.88,235.71 L 74.90,236.39 L 74.80,238.16 L 73.57,238.57 L 70.80,239.61 L 70.43,240.19 L 69.20,243.60 L 69.17,245.11 L 68.94,245.83 L 69.12,246.23 L 70.20,248.11 L 70.62,248.56 L 70.71,248.85 L 71.06,249.11 L 71.35,249.45 L 71.81,249.83 L 72.44,250.24 L 72.79,250.58 L 73.09,251.02 L 73.29,251.77 L 73.56,252.33 L 74.05,253.09 L 74.50,253.70 L 74.77,254.11 L 75.34,254.68 L 76.17,255.51 L 76.44,255.95 L 76.78,256.33 L 78.07,257.88 L 78.66,258.64 L 79.08,259.19 L 79.17,259.97 L 79.49,260.57 L 80.44,262.24 L 80.45,262.21 L 80.97,262.53 L 81.22,263.09 L 81.26,263.86 L 81.56,265.26 L 81.63,265.42 L 81.75,265.62 L 81.78,265.83 L 82.06,266.48 L 83.03,266.67 L 82.94,267.87 L 82.95,269.00 L 83.20,270.09 L 83.30,270.66 L 83.43,272.17 L 83.46,273.47 L 83.67,274.85 L 83.64,275.21 L 83.58,276.13 L 83.54,277.52 L 83.37,278.82 L 82.66,280.90 L 82.82,281.80 L 82.82,282.63 L 82.98,283.30 L 83.25,286.28 L 83.39,287.15 L 81.68,289.07 L 80.51,290.26 L 78.48,292.31 L 76.09,294.74 L 73.08,297.94 L 70.41,299.52 L 70.39,299.68 L 70.15,301.11 L 69.93,302.87 L 69.98,303.71 L 70.41,304.38 L 70.69,305.15 L 71.04,306.39 L 71.25,307.29 L 71.39,308.22 L 71.34,309.32 L 71.31,309.88 L 70.96,312.53 L 70.69,314.15 L 70.53,315.72 L 70.45,316.52 L 69.83,318.06 L 69.42,319.75 L 68.55,322.99 L 67.91,325.65 L 67.80,326.47 L 67.88,327.27 L 67.85,328.94 L 67.45,331.69 L 67.12,332.96 L 66.66,336.28 L 66.34,338.04 L 66.17,338.84 L 66.06,339.67 L 65.93,341.36 L 68.20,341.93 L 67.53,343.57 L 67.47,344.37 L 67.23,344.89 L 66.99,345.56 L 66.88,346.38 L 66.33,347.79 L 66.30,348.46 L 66.12,349.74 L 65.28,352.42 L 65.25,353.27 L 64.96,353.78 L 64.89,354.45 L 64.86,354.88 L 64.60,355.59 L 64.00,357.13 L 63.08,360.16 L 64.90,360.45 L 66.04,360.73 L 66.74,360.76 L 68.51,361.09 L 69.53,361.33 L 70.43,361.69 L 70.24,364.31 L 69.96,365.75 L 69.81,366.67 L 69.58,367.53 L 69.58,368.56 L 69.37,369.38 L 69.37,370.23 L 69.13,371.88 L 69.07,372.80 L 68.96,373.36 L 68.80,374.62 L 68.26,375.19 L 65.90,377.78 L 64.41,380.07 L 61.62,383.57 L 61.10,384.27 L 58.65,387.53 L 57.51,389.15 L 56.19,390.95 L 54.91,393.01 L 54.56,393.75 L 53.24,396.71 L 52.48,398.33 L 51.75,399.72 L 51.51,400.57 L 50.99,402.17 L 50.72,403.03 L 50.45,404.42 L 50.02,405.99 L 49.78,407.64 L 49.56,409.16 L 49.70,410.98 L 49.78,412.71 L 49.94,414.19 L 49.97,415.09 L 49.97,416.79 L 50.56,416.99 L 49.78,419.57 L 49.37,421.19 L 48.91,423.07 L 48.53,424.54 L 48.13,426.26 L 47.83,427.01 L 47.35,428.53 L 48.26,429.18 L 47.35,431.49 L 46.51,433.96 L 46.18,434.73 L 45.34,436.97 L 44.80,438.26 L 43.90,438.49 L 43.17,440.31 L 42.74,441.75 L 42.60,442.73 L 42.20,443.48 L 41.92,444.25 L 40.11,443.97 L 38.38,443.86 L 36.70,443.79 L 35.31,443.62 L 34.44,443.67 L 33.57,443.58 L 31.97,443.52 L 30.19,443.42 L 28.34,443.42 L 26.47,443.32 L 24.87,442.99 L 22.32,442.61 L 22.43,444.93 L 22.51,446.19 L 22.51,446.94 L 22.57,448.17 L 22.46,448.87 L 22.57,449.46 L 22.45,450.23 L 22.51,450.82 L 22.67,451.62 L 22.49,452.28 L 21.88,453.06 L 21.48,453.62 L 21.07,454.30 L 20.59,454.78 L 19.64,455.81 L 18.69,456.89 L 18.37,457.40 L 18.29,458.15 L 20.65,458.28 L 22.17,458.48 L 23.35,459.01 L 25.19,459.62 L 26.41,460.13 L 26.87,460.42 L 27.71,460.65 L 29.69,461.37 L 31.44,461.83 L 32.42,461.99 L 33.92,462.27 L 34.43,462.63 L 35.14,463.09 L 35.71,463.74 L 35.82,464.20 L 36.00,464.81 L 35.00,466.00 L 34.38,467.29 L 34.10,467.83 L 33.57,468.51 L 33.41,469.30 L 33.49,469.92 L 33.70,470.48 L 33.84,470.92 L 33.67,471.95 L 33.47,472.84 L 33.41,473.11 L 33.27,473.73 L 32.68,475.04 L 33.60,475.61 L 34.60,476.53 L 34.71,477.22 L 34.80,478.05 L 34.68,478.71 L 33.92,480.11 L 32.57,481.74 L 32.05,482.37 L 31.92,482.94 L 31.73,483.56 L 31.73,484.25 L 31.78,484.87 L 31.81,486.20 L 31.95,486.78 L 32.28,487.40 L 34.01,487.57 L 35.58,487.76 L 36.31,487.96 L 36.84,488.20 L 37.30,488.86 L 37.57,489.38 L 37.65,490.07 L 37.78,491.56 L 38.06,492.91 L 38.37,493.57 L 38.70,494.32 L 39.19,494.79 L 39.76,495.43 L 40.16,495.97 L 40.43,496.81 L 40.60,497.46 L 41.11,499.05 L 41.43,499.72 L 41.68,500.50 L 41.82,501.11 L 42.22,501.74 L 42.70,502.52 L 42.00,502.63 L 40.29,502.65 L 38.48,502.70 L 36.35,502.75 L 35.56,502.68 L 34.72,502.85 L 32.17,502.96 L 30.30,502.96 L 29.40,502.91 L 27.45,502.96 L 25.56,502.85 L 23.77,502.70 L 21.93,502.45 L 20.85,502.27 L 19.43,502.08 L 17.72,501.83 L 15.61,501.63 L 14.62,501.42 L 13.10,501.36 L 11.39,501.34 L 10.22,501.60 L 10.00,501.66 L 10.25,502.13 L 10.22,502.53 L 10.16,502.71 L 10.30,502.91 L 10.46,503.43 L 10.43,503.74 L 10.16,504.04 L 10.05,504.40 L 10.16,504.81 L 10.49,505.32 L 11.04,505.89 L 11.39,506.22 L 11.98,506.84 L 12.22,507.13 L 12.42,507.50 L 12.62,507.86 L 12.76,508.66 L 12.96,509.21 L 13.01,509.37 L 12.73,510.30 L 12.56,510.99 L 12.56,511.46 L 12.76,511.87 L 13.26,512.10 L 14.05,511.97 L 14.72,511.75 L 15.36,511.88 L 15.84,512.34 L 16.43,513.14 L 17.05,513.86 L 17.57,514.27 L 18.90,515.37 L 19.27,515.79 L 19.83,516.62 L 20.25,517.91 L 20.35,518.18 L 20.38,518.81 L 20.63,519.60 L 21.01,520.15 L 21.78,521.12 L 21.86,521.60 L 21.68,521.86 L 19.82,522.83 L 19.09,523.30 L 18.77,523.95 L 18.60,524.60 L 18.62,525.11 L 18.70,526.03 L 18.74,526.74 L 18.55,527.31 L 18.37,527.58 L 17.66,527.85 L 17.10,528.01 L 16.68,528.40 L 15.96,529.58 L 15.67,529.78 L 15.05,529.83 L 14.28,529.54 L 13.49,529.21 L 13.10,529.14 L 12.44,529.62 L 12.00,530.32 L 11.68,531.12 L 11.52,531.83 L 11.42,533.02 L 11.46,533.97 L 11.59,534.47 L 11.93,535.28 L 12.16,535.58 L 12.88,535.93 L 14.11,536.02 L 14.65,536.05 L 15.20,536.54 L 15.77,536.98 L 17.07,537.64 L 17.88,537.85 L 19.31,537.72 L 20.89,537.66 L 22.37,537.93 L 22.88,538.14 L 24.13,538.08 L 24.80,537.97 L 25.46,537.86 L 25.67,537.85 L 25.96,538.98 L 25.96,540.60 L 26.04,542.33 L 26.13,544.18 L 26.24,547.06 L 27.91,546.95 L 27.34,549.22 L 26.56,552.54 L 26.07,554.91 L 24.54,555.75 L 23.69,556.16 L 23.23,556.78 L 23.06,559.15 L 22.88,560.16 L 22.79,560.67 L 22.77,560.73 L 22.84,560.73 L 22.99,560.73 L 24.40,560.35 L 25.34,560.09 L 26.98,559.10 L 27.19,558.82 L 27.19,558.82 L 27.75,558.08 L 28.65,556.87 L 29.32,555.64 L 29.84,554.88 L 31.02,553.32 L 31.93,552.37 L 32.97,551.49 L 34.27,550.83 L 35.09,550.49 L 36.23,550.21 L 38.06,549.98 L 39.00,549.90 L 39.01,549.89 L 39.02,549.89 L 39.29,549.87 L 39.94,549.81 L 41.24,549.82 L 41.29,549.82 L 41.45,549.83 L 41.90,549.88 L 42.18,549.98 L 42.73,550.17 L 43.56,550.59 L 43.82,550.73 L 44.16,550.91 L 44.68,551.74 L 44.74,551.92 L 44.95,552.61 L 45.46,554.63 L 46.63,558.83 L 46.79,559.63 L 46.85,559.99 L 46.96,560.77 L 47.17,562.44 L 47.15,563.02 L 47.14,563.26 L 47.24,563.57 L 47.37,563.99 L 47.60,564.58 L 47.95,564.83 L 48.52,565.24 L 50.77,566.65 L 51.91,567.40 L 52.14,567.61 L 52.18,567.65 L 52.38,567.68 L 52.39,567.68 L 54.64,567.99 L 55.37,568.17 L 57.33,568.67 L 58.04,568.77 L 59.60,568.70 L 61.20,568.66 L 62.61,568.32 L 63.08,568.09 L 64.54,567.53 L 65.85,566.92 L 67.22,566.16 L 68.28,565.40 L 69.53,564.64 L 70.69,563.53 L 71.61,562.69 L 72.57,561.73 L 73.64,560.65 L 74.76,559.68 L 75.28,559.24 L 76.11,558.73 L 76.34,558.59 L 76.48,558.51 L 76.85,558.28 L 77.33,558.04 L 77.57,557.92 L 77.90,557.91 L 78.23,557.90 L 79.73,557.97 L 81.31,558.02 L 82.79,558.23 L 83.32,558.31 L 84.15,558.47 L 85.24,558.99 L 85.36,559.08 L 86.28,559.76 L 87.31,561.00 L 87.98,562.02 L 88.43,563.38 L 88.35,564.84 L 88.05,566.53 L 87.78,567.59 L 87.38,568.55 L 86.12,570.63 L 85.55,571.56 L 85.03,572.64 L 84.92,572.96 L 84.69,573.60 L 84.55,574.77 L 84.52,575.54 L 84.75,576.16 L 85.67,577.58 L 86.04,577.94 L 86.40,578.28 L 86.59,578.40 L 87.46,578.97 L 89.08,579.47 L 90.71,579.87 L 91.50,580.11 L 92.15,580.30 L 93.60,580.46 L 95.21,580.53 L 96.47,580.41 L 98.15,580.23 L 99.83,579.77 L 100.00,579.73 L 100.79,579.57 L 101.90,579.22 L 102.33,578.98 L 102.60,578.82 L 103.65,577.54 L 104.13,576.95 L 104.18,576.90 L 105.08,575.92 L 106.30,574.90 L 106.74,574.54 L 107.29,574.09 L 107.57,573.83 L 108.42,573.03 L 109.32,572.16 L 109.43,572.05 L 110.44,571.21 L 110.77,571.02 L 111.09,570.85 L 111.65,570.66 L 111.79,570.62 L 112.56,570.54 L 114.00,570.37 L 114.72,570.45 L 115.55,570.54 L 115.98,570.60 L 116.38,570.66 L 117.24,570.93 L 117.52,571.02 L 118.68,571.52 L 119.29,572.03 L 119.72,572.38 L 120.86,573.25 L 121.08,573.42 L 121.32,573.57 L 122.08,574.06 L 123.52,574.71 L 123.52,574.71 L 126.10,575.08 L 126.92,575.20 L 128.01,575.38 L 131.12,575.87 L 131.92,576.00 L 132.61,576.11 L 133.75,576.20 L 133.89,576.20 L 134.43,576.19 L 134.61,576.19 L 134.77,576.18 L 135.11,576.18 L 136.17,576.16 L 136.48,576.15 L 136.54,576.16 L 136.92,576.22 L 138.16,576.34 L 138.29,576.36 L 139.65,577.08 L 139.96,577.24 L 140.67,577.62 L 141.43,578.42 L 141.78,578.78 L 142.48,579.50 L 143.74,580.79 L 144.59,581.71 L 144.59,581.71 L 144.77,581.90 L 145.80,583.02 L 148.00,585.47 L 149.96,587.50 L 150.79,588.45 L 151.58,589.36 L 152.18,590.00 L 154.01,587.58 L 154.28,586.77 L 154.53,586.02 L 155.37,585.16 L 155.65,584.61 L 156.23,583.48 L 157.98,581.40 L 158.48,580.65 L 158.72,580.30 L 159.45,579.00 L 159.63,578.71 L 160.20,577.78 L 161.88,575.42 L 162.04,574.78 L 162.42,573.34 L 162.68,571.41 L 162.91,570.27 L 163.48,570.40 L 165.09,570.76 L 165.38,570.16 L 165.66,569.59 L 165.73,569.42 L 165.82,569.24 L 165.89,569.10 L 166.11,568.64 L 166.23,568.40 L 166.85,566.68 L 167.22,565.65 L 164.10,564.11 L 163.95,563.98 L 163.42,563.53 L 162.68,563.11 L 161.84,562.37 L 161.45,562.03 L 161.23,561.81 L 161.23,561.81 L 160.46,561.05 L 159.45,559.98 L 158.26,558.84 L 158.18,558.77 L 158.16,558.76 L 157.74,558.38 L 157.41,558.32 L 157.10,558.26 L 156.13,558.35 L 154.62,558.60 L 153.22,558.76 L 152.20,558.87 L 151.71,558.44 L 151.52,558.27 L 151.26,558.05 L 150.89,556.77 L 150.80,556.47 L 150.48,553.89 L 150.55,551.33 L 150.62,548.94 L 151.01,547.33 L 151.26,546.30 L 151.51,544.89 L 151.65,544.04 L 152.43,541.39 L 152.55,539.32 L 152.55,539.18 L 152.75,537.51 L 152.98,536.49 L 153.04,536.22 L 153.59,534.84 L 153.67,534.38 L 153.70,534.21 L 153.78,533.79 L 153.80,533.67 L 153.81,533.58 L 153.86,533.46 L 154.50,531.77 L 155.31,529.47 L 156.63,529.78 L 156.92,529.84 L 159.91,530.70 L 161.47,531.10 L 162.46,531.35 L 163.33,531.56 L 167.56,532.81 L 168.32,533.01 L 170.13,533.48 L 173.04,534.37 L 175.56,535.15 L 175.62,535.17 L 177.10,535.54 L 177.76,535.70 L 178.61,535.91 L 181.26,536.86 L 182.82,537.43 L 183.31,536.51 L 183.66,535.84 L 184.34,534.22 L 184.40,533.88 L 184.63,532.53 L 185.03,531.58 L 185.21,531.12 L 185.53,530.84 L 185.73,530.66 L 186.01,530.41 L 186.36,530.31 L 186.50,530.26 L 186.72,530.19 L 187.76,530.04 L 188.63,529.49 L 190.20,528.97 L 190.44,528.67 L 190.69,528.36 L 190.72,528.05 L 190.88,526.43 L 191.02,524.07 L 191.08,522.61 L 191.14,521.15 L 191.14,520.95 L 191.13,520.30 L 188.81,519.77 L 188.86,519.70 L 189.12,519.29 L 189.62,518.31 L 189.88,517.29 L 190.24,516.54 L 190.37,515.46 L 190.44,515.25 L 190.85,514.05 L 190.93,513.87 L 190.94,513.84 L 191.19,513.26 L 191.74,512.00 L 192.30,510.71 L 193.07,508.87 L 193.09,508.83 L 193.68,507.40 L 193.94,506.67 L 194.14,506.12 L 194.34,505.56 L 194.59,504.86 L 195.27,503.21 L 195.87,502.25 L 198.00,502.79 L 198.57,502.92 L 197.93,503.93 L 198.46,504.16 L 199.49,504.45 L 200.71,504.79 L 202.24,505.13 L 203.76,505.59 L 205.45,506.13 L 207.01,506.63 L 207.79,507.10 L 209.71,507.51 L 211.34,507.87 L 213.64,508.24 L 214.78,508.52 L 216.84,509.01 L 218.32,509.37 L 219.60,509.66 L 221.16,509.94 L 221.77,508.83 L 222.37,507.72 L 224.25,508.26 L 226.41,508.89 L 228.11,509.43 L 228.05,508.85 L 228.07,508.11 L 228.11,508.03 L 228.35,507.71 L 229.00,506.67 L 229.27,506.40 L 229.53,506.12 L 231.17,504.75 L 233.00,503.58 L 233.10,503.54 L 233.23,503.42 L 233.35,503.38 L 233.40,503.31 L 233.57,503.22 L 233.88,502.98 L 234.38,502.67 L 235.22,501.98 L 235.88,501.28 L 237.24,500.07 L 237.68,499.82 L 238.29,499.56 L 238.94,499.38 L 240.25,498.13 L 242.05,496.44 L 243.07,494.93 L 244.77,492.17 L 245.50,491.37 L 245.62,491.13 L 245.73,490.83 L 245.66,490.62 L 245.57,490.54 L 245.47,490.47 L 245.06,490.31 L 244.47,490.04 L 244.40,490.00 L 242.89,489.30 L 237.62,487.06 L 233.55,485.30 L 230.35,483.77 L 227.83,482.80 L 225.55,481.55 L 223.28,479.52 L 219.95,476.88 L 220.25,476.06 L 221.03,474.00 L 221.77,472.39 L 224.66,465.15 L 225.75,462.51 L 230.26,462.80 L 240.09,463.44 L 248.39,464.02 L 254.51,464.23 L 254.63,464.09 L 254.74,463.97 L 254.78,462.90 L 254.82,460.34 L 255.04,458.08 L 254.96,457.80 L 254.75,456.82 L 254.75,456.82 L 256.69,452.11 L 259.13,445.49 L 260.04,445.64 L 262.46,439.47 L 264.11,429.54 L 264.36,427.11 L 264.89,421.86 L 264.25,421.78 L 262.28,421.54 L 256.37,420.82 L 256.39,420.35 L 256.37,418.69 L 256.35,416.68 L 256.63,414.91 L 257.33,410.56 L 259.14,403.30 L 260.02,400.42 L 260.17,399.18 L 260.73,394.77 L 261.06,386.49 L 261.46,383.51 L 261.92,380.03 L 261.96,379.77 L 262.04,379.22 L 262.31,377.50 L 262.39,377.03 L 262.58,375.81 L 262.60,375.32 L 262.64,373.79 L 262.40,371.30 L 266.84,371.60 L 269.48,371.88 L 273.99,372.36 L 274.77,372.44 L 274.97,372.46 L 275.77,372.60 L 280.07,373.35 L 280.79,370.84 L 282.24,365.80 L 284.08,360.62 L 285.23,356.27 L 286.41,353.08 L 286.83,351.50 L 286.90,351.26 L 288.08,347.09 L 290.16,342.01 L 290.61,340.91 L 291.00,339.70 L 291.39,338.49 L 292.93,334.86 L 293.94,332.69 L 294.59,331.28 L 296.39,326.10 L 296.39,326.10 L 297.20,326.38 L 299.05,327.02 L 300.98,328.17 L 301.73,328.86 L 301.78,328.91 L 301.82,328.95 L 303.22,330.30 L 304.02,331.08 L 305.48,332.41 L 305.79,332.69 L 306.19,333.17 L 307.40,334.60 L 308.39,336.55 L 308.96,337.52 L 310.16,338.28 L 311.35,338.68 L 311.38,338.69 L 314.27,339.08 L 315.37,339.61 L 316.39,340.10 L 316.94,340.28 L 316.97,340.28 L 317.60,340.31 L 317.96,340.20 L 318.26,340.12 L 319.66,339.25 L 320.44,339.16 L 321.47,339.13 L 321.87,339.12 L 321.87,339.12 L 321.87,339.12 L 323.37,339.40 L 323.79,339.61 L 324.11,339.78 L 326.47,342.19 L 327.16,342.73 L 328.12,343.43 L 328.44,343.66 L 328.82,343.64 L 329.25,343.62 L 329.90,343.58 L 330.62,343.34 L 331.38,343.09 L 332.67,342.69 L 333.20,342.49 L 333.85,340.70 L 334.89,338.08 L 335.76,335.27 L 336.43,333.19 L 336.69,331.39 L 336.81,330.55 L 337.46,325.77 L 337.75,323.65 L 337.89,322.59 L 337.94,322.24 L 338.16,321.21 L 338.39,320.15 L 338.66,319.13 L 338.99,317.87 L 339.63,317.91 L 341.54,318.09 L 341.95,318.13 L 348.04,318.44 L 351.82,318.63 L 355.56,319.18 L 357.14,319.42 L 358.28,319.59 L 365.24,320.36 L 366.02,320.34 L 366.69,320.32 L 366.69,320.32 L 366.69,320.32 L 367.48,317.17 L 369.55,308.92 L 370.03,306.97 L 371.35,301.51 L 371.87,300.69 L 372.24,300.10 L 372.53,299.64 L 373.07,298.15 L 373.41,297.62 L 373.44,297.55 L 373.46,297.52 L 374.09,296.24 L 374.83,294.69 L 375.09,294.16 L 376.10,291.87 L 376.16,291.37 L 376.22,290.92 L 376.93,286.72 L 377.49,283.96 L 377.77,282.56 L 378.03,281.17 L 378.48,278.76 L 379.40,277.36 L 380.45,275.83 L 380.86,275.23 L 381.72,273.41 L 382.15,272.51 L 382.30,272.14 L 382.98,270.45 L 381.54,269.91 L 379.55,269.17 L 376.19,268.01 L 373.81,267.20 L 374.30,263.31 L 374.50,261.66 L 374.78,259.41 L 375.42,253.89 L 375.47,253.46 L 376.02,248.90 L 376.17,247.57 L 377.02,243.59 L 377.21,242.85 L 377.68,240.99 L 378.11,239.70 L 378.62,238.20 L 379.53,235.66 L 380.00,234.36 L 380.31,233.42 L 381.18,230.73 L 381.97,228.37 L 381.29,227.98 L 379.90,227.00 L 377.99,225.76 L 376.40,224.97 L 374.83,224.48 L 374.56,224.38 L 373.01,224.07 L 371.48,223.76 L 369.57,223.70 L 367.70,223.36 L 366.56,222.20 L 365.92,220.55 L 365.89,219.06 L 365.77,217.25 L 365.30,215.64 L 365.11,213.77 L 364.38,212.13 L 363.33,210.83 L 361.89,210.15 L 361.27,210.06 L 360.19,210.10 L 358.74,210.45 L 357.68,210.86 L 356.41,211.28 L 355.20,211.59 L 353.85,211.87 L 352.42,211.79 L 351.25,211.08 L 350.33,209.81 L 350.05,208.48 L 349.83,206.56 L 349.87,204.67 L 349.88,203.27 L 349.73,201.81 L 349.21,200.34 L 348.37,198.74 L 347.59,197.46 L 346.03,196.07 L 344.87,195.02 L 344.41,194.24 L 343.99,193.40 L 344.12,191.74 L 344.52,190.00 L 344.83,188.51 L 344.75,187.39 L 344.24,186.01 L 343.24,185.07 L 341.89,184.76 L 340.21,184.64 L 338.35,184.88 L 336.69,184.79 L 335.37,184.42 L 333.82,183.96 L 332.29,183.41 L 330.96,183.33 L 329.53,183.44 L 327.93,183.54 L 326.43,183.97 L 325.45,184.55 L 324.54,185.45 L 323.96,186.12 L 322.81,187.10 L 321.71,187.85 L 320.20,188.08 L 319.12,188.16 L 317.42,187.65 L 316.29,187.06 L 315.05,186.02 L 313.85,185.06 L 312.68,184.21 L 311.44,183.43 L 310.18,182.64 L 309.53,182.14 L 308.94,181.20 L 308.89,180.84 L 308.67,179.21 L 308.62,178.20 L 308.42,176.56 L 308.23,174.99 L 307.79,173.39 L 307.39,172.29 L 307.18,170.97 L 306.75,170.15 L 306.33,169.33 L 305.54,167.90 L 304.73,166.11 L 304.67,165.43 L 304.96,164.66 L 305.33,163.70 L 305.47,163.31 L 306.63,162.36 L 308.23,161.59 L 309.52,160.88 L 310.39,159.77 L 310.76,158.57 L 311.17,157.18 L 310.73,155.51 L 310.30,154.15 L 309.49,152.40 L 308.73,150.66 L 307.84,149.27 L 306.75,147.94 L 305.60,146.81 L 304.37,146.22 L 303.06,145.76 L 301.65,144.86 L 300.41,143.59 L 299.63,142.10 L 299.33,140.18 L 299.71,138.84 L 300.54,137.59 L 301.47,136.76 L 302.06,135.59 L 302.13,135.10 L 302.04,134.58 L 301.95,134.06 L 301.05,132.86 L 300.02,131.49 L 298.85,130.31 L 298.05,129.46 L 296.91,128.53 L 295.17,127.87 L 294.23,127.02 L 293.73,125.94 L 293.12,124.48 L 292.14,123.31 L 291.34,122.73 L 291.00,122.49 L 290.02,121.54 L 289.27,120.12 L 288.48,118.69 L 287.60,117.20 L 286.84,116.06 L 286.34,115.13 L 285.96,113.70 L 285.80,111.96 L 285.82,110.37 L 285.63,109.03 L 285.77,107.75 L 286.32,106.74 L 287.37,106.06 L 288.30,105.53 L 289.70,105.05 L 291.29,104.11 L 291.94,103.17 L 292.11,102.01 L 291.85,100.39 L 292.09,99.28 L 292.97,98.17 L 289.77,97.47 L 287.15,96.73 L 285.93,96.41 L 284.62,96.19 L 282.30,95.73 L 278.61,94.72 L 275.08,93.85 L 272.51,93.30 L 269.86,92.78 L 270.18,91.40 L 271.30,86.14 L 271.60,84.85 L 271.82,83.68 L 272.56,80.24 L 273.05,78.35 L 273.66,75.29 L 274.44,71.58 L 274.85,69.28 L 275.34,67.03 L 275.54,65.97 L 275.84,64.82 L 275.90,64.60 L 276.39,62.69 L 276.57,61.66 L 276.76,60.70 L 277.25,58.36 L 277.65,56.16 L 278.40,53.27 L 278.74,52.10 L 278.99,50.77 L 279.40,48.78 L 278.62,48.09 L 272.54,42.68 L 270.97,41.28 L 269.84,40.28 L 269.12,39.58 L 262.40,33.62 L 259.22,30.93 L 258.91,30.74 L 258.38,30.52 L 257.73,30.32 L 256.83,30.16 L 253.75,29.69 L 248.54,28.84 L 247.59,28.71 L 246.52,28.55 L 242.19,27.91 L 236.95,27.10 L 234.07,26.67 L 233.48,26.52 L 232.62,26.26 L 226.43,24.06 L 226.49,23.59 L 226.75,22.79 L 227.18,21.60 L 227.57,20.28 L 227.87,19.19 L 228.11,18.50 L 228.60,17.35 L 228.83,16.85 L 221.34,15.67 L 218.97,15.18 L 214.63,14.61 L 211.45,13.92 L 207.76,17.52 L 205.30,16.69 L 199.80,14.99 L 196.60,14.02 L 196.44,13.97 L 194.01,13.35 L 192.58,13.31 L 190.48,13.22 L 190.46,13.22 L 185.66,12.92 L 183.59,12.78 L 178.88,12.54 L 172.38,12.23 L 172.27,12.21 L 172.04,12.19 L 169.25,12.00 L 168.72,11.85 L 168.29,11.69 L 166.78,10.90 L 165.58,10.25 L 165.46,10.20 L 165.44,10.24 L 165.23,10.63 L 165.00,10.93 L 164.83,11.20 L 164.68,11.58 L 164.47,12.02 L 164.36,12.36 L 164.15,12.77 L 164.05,13.09 L 163.90,13.45 L 163.75,13.81 L 163.62,14.11 L 163.53,14.33 L 163.43,14.57 L 163.37,14.83 L 163.26,15.09 L 163.19,15.49 L 163.16,15.89 L 163.12,16.29 L 163.02,16.78 L 162.97,17.14 L 162.87,17.34 L 162.72,17.67 L 162.54,17.96 L 162.39,18.23 L 162.21,18.51 L 162.07,18.79 L 161.93,19.29 L 161.85,19.46 L 161.72,19.93 L 161.58,20.55 L 161.45,21.15 L 161.30,21.72 L 161.08,22.80 L 161.17,23.16 L 161.34,23.71 L 161.55,24.13 L 161.61,24.42 L 161.65,24.80 L 161.71,25.20 L 161.65,25.38 L 161.54,25.80 L 161.49,26.13 L 161.32,26.57 L 161.24,26.95 L 161.18,27.56 L 161.05,28.31 L 161.05,28.77 L 161.06,29.21 L 161.10,29.39 L 161.27,29.78 L 161.52,30.18 L 161.89,30.66 L 162.24,31.13 L 162.43,31.40 L 162.63,31.79 L 162.89,32.22 L 162.30,32.19 L 161.65,31.91 L 160.51,31.16 L 159.30,30.46 L 157.63,29.25 L 156.07,27.91 L 155.53,27.46 L 154.55,26.58 L 153.56,25.68 L 152.56,24.86 L 151.95,24.54 L 151.25,24.22 L 150.01,23.84 L 148.71,23.30 L 148.04,23.11 L 146.65,22.90 L 144.35,22.63 L 142.97,22.41 L 142.25,22.25 L 140.66,22.03 L 139.32,21.75 L 138.54,21.61 L 138.36,20.07 L 138.28,19.34 L 138.49,18.62 L 138.67,17.73 L 137.06,17.57 L 135.69,17.50 L 134.43,17.42 L 133.71,17.45 L 132.35,17.71 L 131.15,17.91 L 129.93,18.11 L 127.34,18.67 L 127.31,18.81 L 127.26,18.91 L 127.14,19.07 L 127.03,19.22 L 126.88,19.46 L 126.76,19.68 L 126.57,19.98 L 126.48,20.20 L 126.41,20.54 L 126.35,20.87 L 126.29,21.10 L 126.20,21.31 L 126.06,21.56 L 125.91,21.73 L 125.37,22.29 L 124.64,23.11 L 124.00,23.76 L 123.40,24.35 L 123.16,24.62 L 122.87,24.97 L 122.48,25.46 L 122.04,25.99 L 121.63,26.43 L 121.36,26.74 L 120.87,27.19 L 120.52,27.49 L 120.28,27.71 L 120.10,27.92 L 119.99,28.06 L 119.94,28.19 L 119.93,28.33 L 119.98,28.41 L 120.11,28.52 L 120.24,28.60 L 120.43,28.68 L 120.53,28.74 L 120.59,28.87 L 120.74,29.19 L 120.87,29.34 L 121.00,29.47 L 120.98,29.76 L 120.96,29.95 L 121.04,30.10 L 121.23,30.24 L 121.68,30.37 L 122.11,30.52 L 122.34,30.71 L 122.51,30.92 L 122.63,31.14 L 122.75,31.42 L 122.75,31.64 L 122.78,31.95 L 122.96,32.41 L 123.08,32.54 L 123.46,33.26 L 123.73,33.70 L 123.77,33.92 L 123.78,34.28 L 123.72,34.80 L 123.65,35.39 L 123.63,35.89 L 123.70,36.20 L 123.88,36.55 L 124.32,37.29 L 124.50,37.74 L 124.46,38.04 L 124.28,38.35 L 124.01,38.66 L 123.55,39.21 L 122.98,39.81 L 122.39,40.54 L 122.04,41.00 L 121.48,41.43 L 120.57,41.88 L 120.23,42.13 L 119.94,42.34 L 119.84,42.54 L 119.79,43.17 L 119.74,43.95 L 119.66,44.50 L 119.41,44.72 L 119.11,44.82 L 118.76,44.75 L 118.48,44.56 L 118.33,44.30 L 118.31,43.93 L 118.44,43.50 L 118.61,43.13 L 118.67,42.78 L 118.64,42.27 L 118.53,41.87 L 118.28,41.53 L 118.06,41.32 L 117.74,41.24 L 117.18,41.23 L 116.38,41.26 L 115.89,42.22 L 115.83,41.74 L 115.77,41.35 L 115.72,41.22 L 115.62,41.02 L 115.31,40.61 L 115.02,40.30 L 114.81,40.05 L 114.54,39.80 L 114.03,39.47 L 113.68,39.44 L 113.34,39.43 L 113.07,39.47 L 112.82,39.52 L 112.57,39.55 L 112.38,39.59 L 112.09,39.68 L 111.43,39.79 L 110.99,39.90 L 110.35,40.01 L 110.11,40.06 L 109.48,40.28 L 109.22,40.38 L 108.45,40.41 L 108.33,40.37 L 107.77,40.03 L 107.21,39.82 L 106.81,39.68 L 106.39,39.57 L 105.70,39.41 L 105.20,39.25 L 104.82,39.01 L 104.40,38.66 L 103.97,38.23 L 103.83,38.04 L 103.74,37.84 L 103.70,37.71 L 103.57,37.33 L 103.42,37.02 L 103.25,36.61 L 103.07,36.18 L 102.85,35.92 L 102.56,35.38 L 102.47,35.28 L 102.22,34.92 L 101.89,34.57 L 101.22,34.10 L 101.09,34.00 L 100.97,33.91 L 100.61,33.69 L 100.28,33.57 L 99.64,33.43 L 97.80,33.13 L 97.44,33.12 L 96.61,33.06 L 95.79,33.00 L 95.56,32.95 L 95.15,32.85 L 94.39,32.64 L 93.82,32.35 L 93.39,32.16 L 93.02,31.94 L 92.53,31.59 L 92.53,31.59 L 92.46,31.54 L 92.10,31.19 L 91.59,30.47 L 91.11,29.88 L 91.07,29.80 L 90.59,29.20 L 90.40,28.91 L 90.27,28.52 L 89.98,27.64 L 89.87,27.23 L 89.70,26.80 L 89.39,26.30 L 89.25,25.94 L 89.04,25.56 L 88.57,24.98 L 87.80,24.45 L 87.51,24.31 L 86.95,24.23 L 85.83,24.15 L 85.15,24.16 L 84.60,24.23 L 83.81,24.40 L 83.32,24.71 L 82.28,25.57 L 81.45,26.27 L 81.00,26.65 L 80.43,27.34 L 80.26,27.50 L 79.67,27.86 L 78.63,28.33 L 78.45,28.37 L 77.69,28.62 L 76.49,29.04 L 76.24,29.09 L 75.66,29.39 L 75.42,29.26 L 75.10,29.08 L 74.73,28.72 L 74.40,28.33 L 73.69,27.46 L 73.11,26.75 L 72.89,26.42 L 72.66,26.20 L 72.24,25.95 L 71.82,25.62 L 71.49,25.27 L 70.79,24.40 L 70.54,23.81 L 70.23,23.36 L 70.03,22.83 L 69.94,22.34 L 69.82,21.69 L 69.53,20.82 L 69.50,20.31 L 69.53,19.58 L 69.44,18.96 L 69.32,18.62 L 69.21,17.98 L 69.07,17.51 L 68.80,17.15 L 68.47,16.89 L 68.07,16.74 L 67.70,16.65 L 67.10,16.63 L 66.04,16.45 L 65.21,16.41 L 64.92,16.34 L 64.62,16.12 L 64.58,15.83 L 64.66,15.56 L 64.75,15.42 L 64.46,14.77 L 64.17,13.75 L 64.21,13.55 L 63.78,13.02 L 63.45,12.79 L 63.00,12.59 L 62.68,12.36 L 62.44,11.87 L 62.31,11.68 L 61.96,11.49 L 61.51,11.28 L 60.90,11.11 L 60.43,10.95 L 60.15,10.70 L 60.04,10.57 L 57.35,10.35 L 56.06,10.28 L 54.13,10.18 L 54.00,10.17 L 52.80,10.10 L 50.73,10.03 L 49.38,10.02 Z" fill="#1d3672" stroke="#333" stroke-width="1"/>
</svg>