<svg xmlns="http://www.w3.org/2000/svg" width="800" height="600" viewBox="0 0 800 600">
<path d="M 125.28,12.27 L 121.39,10.00 L 123.00,12.14 L 124.82,14.59 L 126.49,17.37 L 127.93,19.99 L 128.08,20.61 L 128.22,21.20 L 128.11,22.16 L 126.91,24.97 L 125.82,27.59 L 125.25,28.65 L 123.36,31.00 L 122.71,31.73 L 122.31,32.18 L 120.80,33.44 L 117.71,35.60 L 117.71,35.60 L 115.18,37.29 L 111.66,38.63 L 109.81,39.14 L 109.74,39.57 L 108.78,41.55 L 108.68,41.88 L 108.24,43.25 L 107.91,45.41 L 107.73,46.17 L 107.56,46.93 L 107.34,47.22 L 106.92,47.81 L 106.65,48.03 L 106.41,48.24 L 105.68,48.54 L 104.96,48.83 L 104.75,48.89 L 104.50,48.96 L 104.50,48.96 L 104.40,50.36 L 104.68,52.27 L 104.68,52.28 L 105.53,53.18 L 105.55,54.44 L 105.05,55.12 L 105.03,55.39 L 104.99,55.77 L 105.33,57.25 L 106.04,56.98 L 106.27,56.90 L 106.58,57.20 L 107.04,57.64 L 107.25,58.58 L 106.91,59.18 L 106.93,59.31 L 106.97,59.61 L 109.80,62.00 L 109.80,62.00 L 113.51,64.83 L 114.27,65.42 L 116.51,67.14 L 119.52,69.45 L 119.52,69.45 L 122.17,71.84 L 124.00,73.27 L 125.29,74.29 L 127.33,76.77 L 127.33,76.77 L 129.77,79.53 L 131.63,82.01 L 130.13,84.70 L 128.52,87.36 L 126.87,90.20 L 125.36,92.64 L 124.83,93.48 L 123.68,95.30 L 122.24,97.76 L 120.71,100.24 L 119.33,102.45 L 118.30,104.01 L 117.73,104.88 L 117.01,105.93 L 117.01,105.93 L 115.16,108.98 L 115.16,108.98 L 113.70,111.25 L 111.30,113.69 L 108.72,116.16 L 108.72,116.16 L 107.05,117.10 L 106.68,117.89 L 106.90,119.66 L 107.82,122.64 L 108.14,123.85 L 108.14,124.79 L 108.14,125.37 L 107.74,126.84 L 107.74,126.84 L 106.89,127.73 L 106.52,127.75 L 106.16,127.78 L 106.16,127.78 L 104.12,127.03 L 100.24,126.49 L 99.96,127.24 L 100.00,129.44 L 99.84,130.18 L 99.74,130.34 L 99.48,130.75 L 98.39,131.85 L 98.39,131.85 L 96.99,132.58 L 96.50,132.77 L 95.43,133.18 L 92.73,134.46 L 92.73,134.46 L 91.86,134.97 L 90.71,134.97 L 89.27,134.60 L 88.82,134.58 L 88.51,134.77 L 88.24,135.09 L 88.23,135.59 L 89.00,137.06 L 89.36,137.99 L 89.36,137.99 L 89.32,138.27 L 89.28,138.54 L 88.96,139.07 L 88.22,139.90 L 88.22,139.90 L 85.11,144.53 L 84.33,146.98 L 84.03,148.05 L 83.79,148.73 L 83.66,149.17 L 83.50,150.46 L 83.47,151.18 L 83.46,151.88 L 83.39,153.28 L 83.32,154.42 L 83.27,155.49 L 82.85,156.85 L 82.70,157.60 L 82.52,158.47 L 82.52,159.52 L 82.35,160.63 L 82.35,161.90 L 82.34,163.20 L 82.34,164.56 L 82.42,166.21 L 82.57,168.21 L 82.52,169.41 L 82.47,169.86 L 82.41,170.10 L 82.14,170.56 L 81.76,171.15 L 81.31,171.70 L 80.78,172.46 L 80.62,173.14 L 80.73,174.06 L 80.94,175.53 L 81.08,176.74 L 81.26,178.35 L 81.47,180.47 L 81.56,180.80 L 81.71,181.33 L 81.67,181.63 L 81.30,181.64 L 79.10,181.60 L 76.56,181.60 L 75.53,181.52 L 75.25,181.31 L 74.93,180.79 L 74.54,180.18 L 74.36,179.83 L 73.12,180.18 L 72.37,180.72 L 71.23,181.52 L 70.56,181.95 L 70.17,182.23 L 70.13,182.43 L 70.06,182.81 L 69.97,183.88 L 69.92,184.50 L 69.83,185.09 L 69.72,185.85 L 69.41,186.73 L 69.30,187.05 L 69.30,187.05 L 68.86,188.34 L 68.52,189.23 L 68.42,189.51 L 67.55,191.90 L 66.41,194.19 L 65.93,195.11 L 65.83,195.30 L 65.24,196.48 L 63.99,198.77 L 63.28,200.21 L 62.90,200.98 L 62.57,201.53 L 61.14,200.64 L 58.44,198.86 L 56.76,197.14 L 56.58,197.09 L 55.49,196.83 L 51.94,196.02 L 48.51,195.25 L 44.65,194.39 L 38.24,192.88 L 37.84,196.48 L 37.54,198.43 L 37.33,200.59 L 37.25,201.83 L 37.21,202.99 L 37.16,204.48 L 37.03,207.04 L 36.94,208.43 L 36.92,208.78 L 36.96,209.25 L 37.00,209.67 L 36.84,210.06 L 36.77,210.26 L 36.44,210.79 L 36.06,211.41 L 35.68,212.09 L 35.16,213.02 L 33.91,215.49 L 33.08,217.52 L 32.43,219.15 L 32.00,220.23 L 31.52,221.45 L 31.05,222.67 L 30.77,223.07 L 29.99,223.51 L 26.48,225.54 L 24.17,226.95 L 20.73,229.01 L 19.57,229.60 L 19.57,229.60 L 18.40,230.19 L 15.76,230.78 L 14.33,230.98 L 13.06,231.27 L 11.67,231.62 L 10.97,231.80 L 10.97,232.86 L 11.08,234.88 L 11.12,235.68 L 11.30,238.18 L 11.53,241.98 L 11.66,244.72 L 11.65,247.92 L 11.45,249.76 L 11.34,251.10 L 11.11,253.68 L 10.78,256.37 L 10.55,258.67 L 10.26,261.82 L 10.02,263.53 L 10.22,264.40 L 10.29,266.01 L 10.29,267.03 L 10.26,268.46 L 10.14,269.80 L 10.01,271.23 L 10.00,272.44 L 10.03,273.09 L 10.24,273.81 L 10.31,273.97 L 10.38,274.12 L 10.58,274.54 L 10.91,274.93 L 11.30,275.37 L 11.71,275.58 L 12.12,275.73 L 13.41,276.32 L 14.52,276.58 L 15.74,276.96 L 17.02,277.35 L 18.28,277.58 L 19.57,277.82 L 20.94,277.88 L 21.36,277.89 L 22.32,277.64 L 23.67,277.28 L 24.86,276.82 L 26.10,276.20 L 27.31,275.42 L 28.42,274.75 L 29.41,273.88 L 30.40,273.06 L 31.41,272.16 L 32.37,271.30 L 34.24,269.56 L 35.12,268.64 L 36.17,267.65 L 37.12,266.74 L 37.31,266.56 L 37.31,266.56 L 38.09,265.84 L 39.10,265.05 L 40.03,264.29 L 41.04,263.51 L 41.45,263.17 L 42.25,262.76 L 43.52,262.29 L 43.98,262.12 L 44.85,262.05 L 46.21,262.07 L 46.56,262.17 L 47.41,262.44 L 48.49,262.89 L 49.00,263.20 L 49.55,263.69 L 49.89,264.14 L 50.22,264.84 L 50.39,265.63 L 50.55,266.64 L 50.63,267.83 L 50.54,268.58 L 50.16,269.84 L 49.34,271.31 L 48.56,272.38 L 47.77,273.45 L 47.08,274.29 L 46.66,274.89 L 46.51,275.39 L 46.62,275.94 L 47.31,277.52 L 47.67,278.39 L 48.18,280.00 L 48.76,281.29 L 49.28,282.63 L 50.09,285.06 L 50.48,286.42 L 50.57,287.32 L 50.52,288.36 L 50.41,288.84 L 49.90,289.54 L 49.49,289.84 L 48.81,290.15 L 47.97,290.32 L 47.51,290.45 L 45.33,290.38 L 44.72,290.38 L 43.90,290.49 L 42.56,290.43 L 41.16,290.37 L 39.73,290.22 L 38.22,290.07 L 37.00,289.85 L 35.82,289.53 L 34.44,289.11 L 33.21,288.80 L 32.77,288.65 L 31.85,288.49 L 30.63,288.38 L 29.47,288.30 L 28.92,288.32 L 28.13,288.33 L 26.82,288.38 L 25.43,288.48 L 25.01,288.55 L 24.30,288.83 L 23.69,289.15 L 23.25,289.53 L 22.81,290.21 L 22.73,290.74 L 22.75,291.04 L 22.93,291.60 L 23.20,292.36 L 23.65,293.52 L 23.81,294.18 L 23.96,294.84 L 24.06,295.29 L 24.01,295.79 L 23.97,296.23 L 23.76,296.73 L 23.59,297.40 L 23.33,297.98 L 23.29,298.44 L 23.32,299.10 L 23.41,299.93 L 23.57,300.28 L 23.89,301.13 L 24.42,302.25 L 24.62,302.57 L 25.13,303.31 L 25.36,303.66 L 26.06,304.22 L 26.41,304.42 L 27.21,304.84 L 28.48,305.23 L 29.81,305.31 L 30.98,305.29 L 32.16,305.31 L 32.58,305.31 L 33.45,305.52 L 33.77,305.59 L 34.58,305.97 L 35.84,306.53 L 36.23,306.71 L 37.29,307.10 L 37.70,307.23 L 38.54,307.39 L 39.00,307.41 L 39.92,307.43 L 40.22,307.38 L 41.10,307.32 L 42.31,307.07 L 43.53,306.67 L 44.59,306.30 L 45.60,305.72 L 46.59,305.07 L 47.44,304.39 L 48.37,303.66 L 49.32,302.96 L 50.13,302.22 L 51.03,301.48 L 51.95,300.69 L 52.83,299.91 L 53.76,299.19 L 54.05,298.98 L 54.19,298.88 L 54.54,298.67 L 54.74,298.55 L 55.28,298.28 L 55.94,298.00 L 56.43,297.80 L 57.27,297.68 L 57.61,297.62 L 57.69,297.60 L 57.92,297.60 L 58.53,297.60 L 58.93,297.60 L 59.28,297.66 L 59.81,297.76 L 60.24,297.86 L 60.97,298.12 L 62.16,298.53 L 63.45,298.98 L 64.80,299.65 L 65.76,300.26 L 65.90,300.35 L 66.28,300.53 L 67.14,301.03 L 67.34,301.20 L 68.11,301.86 L 68.61,302.41 L 69.05,302.88 L 69.77,303.76 L 69.88,303.90 L 69.96,304.01 L 70.66,304.92 L 71.09,305.65 L 71.35,306.09 L 71.86,306.85 L 71.98,307.03 L 72.61,308.08 L 73.16,308.83 L 73.36,309.11 L 74.28,309.91 L 74.59,310.22 L 75.22,310.84 L 75.99,311.40 L 76.23,311.57 L 76.53,311.76 L 77.29,312.22 L 78.40,312.58 L 78.90,312.63 L 79.69,312.70 L 80.05,312.73 L 80.90,312.81 L 81.78,312.93 L 82.21,312.99 L 82.69,313.14 L 83.40,313.36 L 83.71,313.39 L 84.58,313.47 L 85.45,313.63 L 85.77,313.69 L 87.00,313.84 L 87.63,313.92 L 88.26,313.99 L 89.08,314.05 L 89.63,314.09 L 90.15,314.18 L 90.78,314.29 L 91.64,314.46 L 92.18,314.58 L 92.58,314.62 L 93.02,314.67 L 93.29,314.74 L 93.43,314.77 L 93.74,314.90 L 94.15,315.06 L 94.64,315.24 L 94.78,315.36 L 95.15,315.61 L 95.22,315.66 L 95.49,315.96 L 95.64,316.22 L 95.77,316.85 L 95.80,317.12 L 95.82,317.25 L 95.75,318.09 L 95.54,318.88 L 95.40,319.27 L 95.22,319.75 L 94.80,320.77 L 94.59,321.22 L 94.27,321.89 L 93.65,322.79 L 93.51,322.97 L 93.35,323.17 L 93.20,323.47 L 92.99,323.87 L 92.91,324.13 L 92.89,324.19 L 92.88,324.33 L 92.87,324.51 L 92.99,325.53 L 93.06,325.76 L 93.22,326.27 L 93.28,326.93 L 93.30,327.14 L 93.30,327.32 L 93.27,327.88 L 93.26,328.49 L 93.26,328.89 L 93.24,329.39 L 93.21,329.86 L 93.20,330.00 L 93.21,330.09 L 93.22,330.41 L 93.25,330.81 L 93.28,331.19 L 93.29,331.30 L 93.34,331.46 L 93.39,331.61 L 93.44,331.66 L 93.77,332.04 L 94.07,332.29 L 94.85,332.81 L 96.09,333.53 L 96.15,333.56 L 98.46,334.64 L 98.55,334.66 L 98.98,334.78 L 99.83,334.91 L 100.59,334.95 L 101.16,334.98 L 102.42,334.90 L 102.77,334.83 L 103.73,334.78 L 103.93,334.78 L 104.15,334.78 L 104.97,334.88 L 105.28,334.91 L 105.72,334.98 L 106.18,335.15 L 106.51,335.22 L 106.56,335.23 L 106.87,335.30 L 107.17,335.37 L 107.54,335.47 L 108.79,335.50 L 109.61,335.56 L 110.09,335.60 L 110.52,335.64 L 111.49,335.65 L 111.65,335.64 L 111.81,335.64 L 112.66,335.62 L 112.88,335.62 L 113.10,335.63 L 114.04,335.74 L 114.39,335.77 L 114.76,335.81 L 115.26,335.88 L 115.57,335.99 L 115.80,336.08 L 116.04,336.18 L 116.30,336.29 L 116.42,336.39 L 116.46,336.42 L 116.51,336.47 L 116.79,336.70 L 117.16,337.14 L 117.33,337.34 L 117.70,338.01 L 117.93,338.50 L 118.29,339.67 L 118.35,339.82 L 118.41,339.97 L 118.52,340.60 L 118.55,340.86 L 118.64,341.44 L 118.69,342.12 L 118.69,342.61 L 118.66,342.74 L 118.60,343.02 L 118.56,343.12 L 118.48,343.31 L 118.19,343.71 L 117.83,343.97 L 117.51,344.20 L 117.40,344.25 L 116.85,344.50 L 116.25,344.78 L 115.45,345.14 L 115.04,345.32 L 113.91,345.79 L 111.36,346.86 L 110.65,347.20 L 110.13,347.44 L 109.59,347.67 L 108.98,347.93 L 108.47,348.20 L 107.79,348.57 L 107.01,349.08 L 106.72,349.27 L 105.66,350.00 L 104.62,350.78 L 104.51,350.86 L 104.11,351.14 L 103.74,351.49 L 103.31,352.18 L 103.19,352.50 L 103.13,352.67 L 103.18,352.98 L 103.29,353.57 L 103.29,353.57 L 103.31,353.64 L 103.40,354.03 L 103.71,354.60 L 104.14,355.00 L 104.42,355.27 L 104.70,355.55 L 105.34,356.00 L 106.49,356.67 L 107.73,357.28 L 108.17,357.51 L 108.87,358.01 L 109.34,358.33 L 109.88,358.80 L 110.27,359.12 L 110.63,359.49 L 110.84,359.71 L 111.13,360.06 L 111.56,360.63 L 111.78,361.06 L 112.13,361.80 L 112.78,362.99 L 113.22,364.10 L 113.75,365.23 L 114.34,366.41 L 114.82,367.57 L 115.06,368.44 L 115.15,368.72 L 115.30,369.34 L 115.31,369.54 L 115.30,369.93 L 115.23,370.48 L 115.12,370.72 L 115.12,370.72 L 115.02,370.95 L 114.82,371.08 L 114.29,371.31 L 113.21,371.40 L 111.66,371.48 L 110.00,371.42 L 109.29,371.35 L 108.28,371.18 L 107.17,370.82 L 105.91,370.51 L 103.68,369.94 L 101.18,369.41 L 100.01,369.02 L 98.80,368.81 L 97.53,368.55 L 96.29,368.50 L 95.08,368.55 L 93.81,368.59 L 92.64,368.86 L 92.00,369.08 L 91.51,369.28 L 90.88,369.85 L 90.51,370.12 L 90.13,370.38 L 89.54,370.94 L 88.62,371.88 L 88.23,372.35 L 87.99,372.78 L 87.59,373.57 L 87.45,374.57 L 87.54,376.09 L 87.56,376.54 L 87.78,377.56 L 87.83,377.77 L 87.98,378.22 L 88.31,378.89 L 88.57,379.42 L 88.87,379.94 L 89.53,380.97 L 90.24,382.12 L 90.92,383.03 L 91.24,383.57 L 91.66,384.07 L 91.99,384.47 L 92.67,385.19 L 93.07,385.41 L 93.83,385.63 L 95.29,385.65 L 95.51,385.67 L 95.51,385.67 L 95.87,385.69 L 96.33,385.75 L 97.04,385.99 L 97.82,386.64 L 98.15,386.86 L 98.76,387.54 L 99.47,388.49 L 100.23,389.50 L 100.95,390.53 L 101.66,391.60 L 102.47,392.62 L 103.32,393.69 L 104.28,394.76 L 105.26,395.53 L 106.31,396.19 L 107.14,396.53 L 107.61,396.68 L 108.28,396.86 L 108.81,396.93 L 109.63,396.79 L 110.47,396.67 L 111.39,396.13 L 112.37,395.19 L 113.08,394.34 L 113.47,393.95 L 113.59,393.83 L 114.21,393.10 L 114.40,392.87 L 115.42,391.97 L 115.54,391.85 L 116.23,391.12 L 116.81,390.49 L 117.10,390.18 L 118.01,389.20 L 118.42,388.79 L 119.09,388.13 L 119.70,387.50 L 120.01,387.19 L 120.95,386.27 L 121.30,385.90 L 121.76,385.41 L 122.16,385.04 L 122.37,384.86 L 122.71,384.61 L 122.77,384.58 L 122.88,384.53 L 123.06,384.45 L 123.42,384.31 L 124.29,384.26 L 124.29,384.26 L 125.49,384.45 L 126.64,384.84 L 127.89,385.14 L 129.10,385.46 L 129.25,385.53 L 130.13,385.91 L 131.26,386.42 L 132.28,386.88 L 133.20,387.27 L 134.47,387.80 L 134.85,388.03 L 134.90,388.07 L 135.41,388.53 L 135.60,388.64 L 135.92,388.84 L 136.26,388.97 L 136.53,389.06 L 137.05,389.07 L 137.24,389.07 L 137.46,389.07 L 137.93,389.06 L 139.44,388.75 L 140.68,388.50 L 143.20,387.99 L 144.63,387.72 L 146.00,387.57 L 147.20,387.54 L 148.51,387.30 L 148.98,387.28 L 149.71,387.40 L 150.20,387.52 L 150.42,387.60 L 150.78,387.74 L 151.32,388.06 L 151.40,388.11 L 151.41,388.12 L 151.78,388.46 L 152.33,389.06 L 152.38,389.11 L 152.49,389.24 L 152.86,389.65 L 152.86,389.65 L 152.90,389.71 L 153.52,390.65 L 154.12,391.73 L 154.85,393.05 L 155.11,393.66 L 155.31,394.12 L 155.79,395.40 L 156.21,396.60 L 156.65,397.82 L 156.94,398.56 L 157.13,399.03 L 157.29,399.51 L 157.51,400.21 L 157.71,401.21 L 157.74,401.40 L 157.61,402.25 L 157.57,402.39 L 157.53,402.52 L 157.29,402.95 L 157.23,403.04 L 157.11,403.23 L 156.91,403.34 L 156.76,403.43 L 156.44,403.62 L 156.15,403.80 L 155.79,403.97 L 155.61,404.05 L 155.45,404.11 L 154.97,404.30 L 154.39,404.30 L 153.18,404.28 L 153.00,404.30 L 152.62,404.35 L 152.35,404.33 L 151.43,404.28 L 150.71,404.37 L 150.58,404.39 L 149.66,404.57 L 149.21,404.78 L 148.97,404.88 L 148.64,405.18 L 148.56,405.30 L 148.50,405.39 L 148.23,405.97 L 148.02,406.54 L 147.67,407.74 L 147.48,408.93 L 147.28,410.14 L 147.07,411.34 L 146.86,412.38 L 146.82,412.60 L 146.54,413.75 L 146.36,414.32 L 145.88,415.53 L 145.39,417.09 L 144.94,418.15 L 144.22,420.41 L 143.65,421.64 L 143.23,422.90 L 142.74,423.97 L 142.16,425.07 L 141.68,426.06 L 141.23,427.08 L 140.65,428.20 L 140.10,429.35 L 139.88,430.07 L 139.72,430.66 L 139.54,431.81 L 139.43,432.53 L 139.36,433.81 L 139.30,435.21 L 139.36,436.02 L 139.43,436.63 L 139.54,436.98 L 139.68,437.53 L 139.96,438.15 L 140.28,438.81 L 140.62,439.34 L 141.33,440.22 L 142.01,440.79 L 142.65,441.07 L 143.55,441.43 L 144.00,441.56 L 144.45,441.70 L 145.21,441.77 L 145.74,441.92 L 146.59,441.97 L 148.04,441.99 L 148.61,442.00 L 149.44,442.15 L 150.64,442.58 L 151.86,443.09 L 153.11,443.58 L 153.66,443.74 L 154.39,444.14 L 155.58,444.76 L 155.96,444.86 L 156.88,445.33 L 157.34,445.38 L 158.26,445.53 L 159.59,445.53 L 160.99,445.60 L 162.34,445.71 L 163.65,445.80 L 165.12,445.77 L 166.41,445.70 L 167.70,445.46 L 168.30,445.33 L 169.15,445.23 L 169.54,445.16 L 170.34,444.87 L 171.01,444.82 L 171.66,444.91 L 172.12,445.01 L 172.76,445.48 L 173.23,445.75 L 173.82,446.20 L 174.65,447.20 L 175.41,448.29 L 175.99,449.33 L 176.55,450.50 L 176.71,451.17 L 176.78,451.67 L 176.88,452.49 L 176.88,453.36 L 176.87,453.98 L 176.73,455.25 L 176.52,456.50 L 176.30,457.60 L 175.88,458.68 L 175.44,459.94 L 174.84,461.06 L 174.27,462.11 L 174.02,462.49 L 173.53,463.01 L 172.72,463.88 L 171.42,464.71 L 170.72,465.05 L 169.60,465.36 L 169.00,465.49 L 168.54,465.61 L 168.11,465.64 L 167.67,465.59 L 166.82,465.21 L 165.64,464.69 L 164.48,464.22 L 163.95,464.03 L 163.28,463.83 L 162.78,463.71 L 161.88,463.70 L 160.53,463.71 L 159.26,463.78 L 157.97,463.95 L 157.72,464.06 L 156.79,464.11 L 155.65,464.25 L 155.06,464.32 L 153.96,464.20 L 153.22,464.13 L 151.97,464.00 L 151.38,463.91 L 150.55,463.73 L 150.08,463.59 L 149.54,463.58 L 148.92,463.63 L 148.18,463.88 L 147.74,464.19 L 147.53,464.42 L 147.21,464.82 L 147.07,465.41 L 146.91,466.48 L 146.91,467.85 L 146.86,469.04 L 146.75,470.21 L 146.43,470.88 L 145.86,471.48 L 145.40,472.02 L 145.03,472.77 L 144.54,473.73 L 144.31,474.74 L 144.19,475.05 L 144.11,475.53 L 143.94,475.83 L 143.87,476.13 L 143.78,476.76 L 143.73,477.45 L 143.62,478.08 L 143.51,478.46 L 142.89,479.28 L 142.08,480.39 L 141.31,481.15 L 141.06,481.40 L 140.48,482.15 L 140.21,482.49 L 139.13,483.80 L 139.08,483.87 L 138.59,484.57 L 138.25,485.31 L 138.23,486.00 L 138.26,486.75 L 138.20,487.18 L 138.15,487.62 L 137.50,490.24 L 137.22,492.03 L 137.51,493.82 L 137.54,493.99 L 138.99,498.01 L 139.82,499.27 L 141.02,500.50 L 142.77,502.03 L 143.57,503.19 L 144.21,504.22 L 144.40,505.42 L 144.12,507.51 L 143.56,509.97 L 142.75,511.59 L 142.62,511.86 L 142.19,512.36 L 141.23,513.49 L 140.87,515.08 L 141.22,516.11 L 142.62,517.54 L 144.69,518.70 L 146.86,519.56 L 148.96,520.40 L 152.22,520.44 L 152.22,520.44 L 152.22,520.44 L 155.68,520.20 L 157.54,519.80 L 157.65,519.77 L 157.65,519.77 L 159.77,519.31 L 159.77,519.31 L 160.07,519.09 L 160.68,518.64 L 161.06,518.26 L 161.21,518.11 L 161.52,517.44 L 161.59,517.28 L 162.30,515.92 L 163.31,513.80 L 163.58,512.43 L 163.75,509.65 L 164.47,508.47 L 164.52,508.39 L 164.52,508.39 L 165.71,507.56 L 167.08,506.75 L 167.96,506.26 L 168.49,505.96 L 169.40,504.94 L 169.62,504.66 L 170.15,504.01 L 171.23,502.60 L 171.48,502.28 L 172.81,501.02 L 173.20,500.71 L 174.15,499.95 L 176.07,498.66 L 177.48,497.96 L 179.53,496.63 L 181.63,495.61 L 183.35,494.45 L 184.76,494.28 L 185.42,494.61 L 186.34,495.31 L 188.26,496.71 L 190.05,498.10 L 190.82,498.97 L 190.75,499.67 L 190.68,499.99 L 189.86,500.46 L 188.63,501.66 L 188.24,502.63 L 188.24,503.52 L 188.91,504.78 L 189.96,505.94 L 192.34,507.91 L 195.40,509.63 L 198.09,510.73 L 199.35,511.10 L 201.07,511.37 L 202.54,511.64 L 203.98,512.17 L 206.50,513.13 L 209.46,514.20 L 211.46,514.77 L 213.18,515.23 L 213.89,515.86 L 214.45,516.92 L 215.22,518.49 L 215.92,519.61 L 216.69,520.45 L 217.67,520.91 L 220.63,521.32 L 221.75,521.72 L 222.70,522.68 L 222.91,523.81 L 222.60,525.60 L 222.91,527.23 L 223.35,528.30 L 224.02,530.09 L 224.99,532.31 L 225.13,533.44 L 225.46,535.50 L 225.61,536.60 L 225.88,537.20 L 226.45,537.73 L 227.39,538.19 L 229.57,538.70 L 230.55,539.09 L 231.46,539.79 L 232.08,540.83 L 232.49,542.95 L 232.32,544.78 L 232.53,548.27 L 233.21,550.40 L 233.85,551.33 L 234.50,552.26 L 236.12,554.45 L 236.57,555.82 L 236.25,557.27 L 235.82,558.21 L 234.34,559.53 L 231.46,561.30 L 229.67,562.49 L 229.10,563.12 L 228.52,563.75 L 227.63,565.22 L 227.10,566.64 L 227.06,567.81 L 227.41,569.23 L 228.18,570.66 L 228.96,571.63 L 230.13,572.16 L 232.72,572.43 L 235.74,572.43 L 238.12,572.63 L 240.35,573.86 L 242.17,575.32 L 245.32,577.91 L 248.40,580.48 L 249.51,581.32 L 252.07,582.68 L 255.53,583.08 L 257.86,583.21 L 260.58,582.68 L 262.25,582.35 L 266.64,581.02 L 269.23,580.16 L 271.48,579.57 L 273.67,579.60 L 276.18,580.79 L 276.88,581.49 L 277.52,582.46 L 277.16,584.25 L 277.16,585.73 L 277.17,586.01 L 278.40,587.04 L 280.29,587.84 L 282.27,588.67 L 284.19,588.21 L 286.33,586.84 L 287.84,586.42 L 290.19,585.92 L 292.62,585.38 L 296.46,585.44 L 296.86,585.45 L 301.11,585.88 L 301.24,585.87 L 301.24,585.87 L 305.23,585.61 L 306.45,585.75 L 307.09,585.92 L 307.80,586.29 L 308.84,587.07 L 309.71,587.76 L 309.99,588.07 L 310.45,588.79 L 310.87,589.60 L 311.11,590.00 L 314.36,587.78 L 315.83,586.43 L 316.91,585.76 L 318.67,584.34 L 318.67,583.94 L 318.89,574.30 L 322.13,575.43 L 327.52,575.79 L 329.28,576.22 L 330.24,576.42 L 330.53,575.70 L 330.24,573.17 L 329.62,572.22 L 332.64,568.45 L 334.87,565.40 L 336.76,565.85 L 339.40,566.34 L 341.36,566.61 L 341.90,566.63 L 341.90,566.63 L 342.56,566.65 L 343.26,566.47 L 344.30,565.89 L 346.11,564.62 L 346.81,564.15 L 347.31,563.94 L 347.83,563.84 L 349.84,563.85 L 350.25,564.20 L 350.51,563.26 L 351.20,561.41 L 351.54,560.04 L 351.59,560.06 L 352.05,558.44 L 353.04,555.49 L 350.69,553.12 L 348.37,552.58 L 345.99,551.92 L 345.39,551.38 L 343.94,550.50 L 342.49,549.55 L 340.60,548.40 L 338.56,548.05 L 336.22,547.68 L 335.49,547.50 L 334.03,547.24 L 333.58,546.45 L 332.69,545.75 L 332.18,545.47 L 331.61,545.22 L 330.86,545.09 L 330.31,545.13 L 329.56,545.12 L 328.95,544.93 L 328.45,544.68 L 328.33,543.91 L 328.33,543.88 L 328.32,542.33 L 328.20,540.52 L 328.16,538.61 L 328.29,538.04 L 327.32,537.47 L 325.83,536.28 L 324.29,535.30 L 323.84,535.09 L 322.67,534.20 L 322.66,533.47 L 322.55,531.43 L 322.29,530.28 L 322.14,529.63 L 322.16,529.27 L 322.26,528.74 L 322.40,528.37 L 322.69,527.90 L 324.22,527.55 L 324.64,525.76 L 325.05,524.85 L 326.56,524.13 L 328.70,523.14 L 330.25,522.26 L 329.59,521.10 L 325.26,517.69 L 322.52,513.11 L 318.88,507.43 L 316.12,503.30 L 314.70,501.79 L 318.08,499.52 L 326.09,492.32 L 327.35,490.57 L 327.18,489.81 L 326.96,488.47 L 327.54,487.68 L 329.57,483.38 L 330.06,482.83 L 330.27,482.42 L 330.35,481.90 L 330.32,481.38 L 330.17,480.83 L 328.62,478.37 L 328.30,477.88 L 328.08,477.46 L 328.05,476.91 L 329.63,477.18 L 329.88,477.16 L 329.84,476.94 L 329.56,474.75 L 329.43,473.96 L 329.45,473.19 L 329.90,472.83 L 330.19,472.61 L 330.30,472.46 L 330.49,472.41 L 330.76,472.29 L 330.87,472.21 L 331.03,472.16 L 331.36,472.00 L 331.61,471.90 L 331.70,471.88 L 332.55,471.19 L 334.09,470.38 L 336.41,469.48 L 338.24,468.47 L 339.05,468.04 L 343.34,466.27 L 345.76,465.13 L 347.31,464.94 L 351.57,464.96 L 353.75,465.89 L 355.94,466.45 L 357.14,466.81 L 357.83,467.12 L 359.70,468.87 L 361.33,470.40 L 363.06,471.78 L 365.32,473.94 L 368.13,476.42 L 372.71,480.43 L 373.39,480.99 L 375.80,480.79 L 382.21,481.28 L 383.89,481.29 L 389.23,479.76 L 392.59,478.89 L 396.02,477.80 L 401.72,476.25 L 403.08,475.32 L 406.94,476.87 L 408.93,477.95 L 410.64,479.10 L 412.60,480.32 L 413.22,480.74 L 413.49,481.69 L 413.82,482.72 L 414.01,483.53 L 414.46,484.95 L 414.95,486.44 L 415.87,487.68 L 418.00,489.98 L 419.70,491.48 L 418.16,492.65 L 417.33,493.23 L 416.62,494.18 L 416.46,494.49 L 415.85,495.39 L 413.75,498.87 L 410.54,502.93 L 409.62,503.51 L 408.82,504.32 L 408.27,505.25 L 407.93,506.42 L 407.55,507.16 L 410.27,507.89 L 411.55,508.14 L 413.08,508.35 L 415.52,508.67 L 416.99,508.97 L 418.43,509.31 L 419.93,509.37 L 421.52,509.42 L 422.74,509.46 L 423.07,510.83 L 423.62,512.25 L 424.18,513.60 L 424.91,515.00 L 425.91,516.10 L 426.87,517.40 L 427.66,518.30 L 428.77,519.24 L 430.09,519.78 L 431.44,520.09 L 432.86,520.29 L 436.50,520.57 L 437.99,520.80 L 441.06,522.31 L 443.74,523.80 L 445.15,524.26 L 446.43,524.57 L 447.51,524.73 L 448.38,525.05 L 448.99,526.26 L 449.70,527.87 L 451.09,530.27 L 452.80,533.12 L 454.10,535.72 L 455.07,537.90 L 457.59,540.63 L 462.04,544.08 L 463.58,544.81 L 464.83,545.29 L 465.82,545.75 L 466.55,544.36 L 467.11,543.48 L 467.75,542.17 L 467.89,540.90 L 467.04,538.26 L 466.43,536.96 L 470.25,535.82 L 471.55,535.26 L 473.69,534.19 L 477.28,532.42 L 478.43,531.72 L 479.08,530.52 L 478.17,529.20 L 477.36,527.78 L 477.16,527.57 L 477.62,526.78 L 477.95,526.24 L 478.06,525.99 L 478.87,526.16 L 479.75,526.07 L 481.89,526.73 L 483.50,526.58 L 484.30,524.48 L 484.94,523.47 L 485.44,522.44 L 486.42,519.66 L 487.48,516.08 L 488.27,512.89 L 489.36,510.11 L 490.70,507.01 L 491.39,505.34 L 492.22,503.97 L 493.34,502.39 L 494.47,501.21 L 496.17,500.29 L 497.62,499.30 L 501.93,495.06 L 502.52,493.85 L 502.79,491.25 L 502.61,487.61 L 504.91,483.95 L 507.24,479.58 L 508.58,477.18 L 509.83,475.56 L 505.88,476.68 L 505.00,476.98 L 504.28,477.01 L 503.33,476.86 L 502.60,476.41 L 500.65,473.95 L 499.50,472.00 L 498.99,471.49 L 498.41,470.31 L 499.95,468.87 L 503.01,465.61 L 504.63,463.48 L 505.66,462.07 L 505.89,461.34 L 506.70,459.80 L 507.55,458.22 L 507.73,457.63 L 507.74,456.49 L 508.03,454.98 L 508.12,452.60 L 508.20,451.89 L 509.28,451.50 L 510.53,450.96 L 511.16,450.55 L 511.37,450.50 L 511.53,450.46 L 512.14,450.16 L 512.39,449.95 L 512.58,449.74 L 512.43,448.48 L 511.60,447.47 L 510.59,445.98 L 509.84,445.08 L 508.92,444.17 L 508.35,443.59 L 506.39,442.92 L 504.41,442.19 L 502.30,441.35 L 500.47,440.86 L 499.97,440.37 L 495.46,438.79 L 494.62,438.54 L 493.73,438.37 L 486.29,433.46 L 486.22,433.08 L 489.37,431.00 L 491.87,429.35 L 495.09,427.85 L 497.35,426.83 L 500.81,424.72 L 502.09,425.18 L 504.48,421.98 L 502.52,420.97 L 503.30,418.29 L 504.18,415.44 L 504.59,413.40 L 505.33,411.93 L 506.48,410.28 L 507.34,408.75 L 507.46,407.88 L 507.50,407.30 L 505.65,404.36 L 505.66,403.84 L 505.66,403.78 L 505.76,403.54 L 505.94,403.25 L 506.11,403.03 L 506.41,402.74 L 506.60,402.61 L 506.96,402.49 L 507.20,402.41 L 507.97,402.13 L 508.13,402.03 L 508.34,401.87 L 508.85,401.71 L 509.21,401.56 L 509.85,401.42 L 510.15,401.39 L 510.62,401.33 L 510.78,401.31 L 511.35,401.15 L 511.67,400.95 L 511.90,400.88 L 512.14,400.70 L 512.44,400.40 L 513.00,399.62 L 513.28,399.12 L 513.52,398.85 L 513.96,398.45 L 514.04,398.41 L 514.44,398.23 L 514.63,398.21 L 515.26,398.19 L 515.77,398.10 L 516.09,397.98 L 516.63,397.72 L 517.59,397.29 L 518.14,396.86 L 518.34,396.63 L 518.73,396.33 L 519.11,396.07 L 519.34,396.00 L 519.31,395.88 L 519.19,395.34 L 519.01,394.83 L 518.75,394.35 L 518.57,394.09 L 518.87,393.09 L 519.72,392.16 L 519.83,391.54 L 519.91,390.85 L 519.93,389.65 L 519.54,389.27 L 518.77,388.78 L 518.30,388.51 L 518.16,387.85 L 518.39,386.26 L 518.95,384.61 L 519.40,383.09 L 519.56,381.64 L 519.23,380.36 L 518.91,379.63 L 518.44,379.63 L 517.93,379.80 L 517.42,380.00 L 516.94,380.10 L 516.39,380.06 L 515.85,379.92 L 515.38,378.88 L 514.80,378.09 L 514.70,377.43 L 513.61,375.70 L 513.19,374.97 L 512.46,373.61 L 513.17,371.69 L 513.25,371.21 L 513.44,370.48 L 513.11,369.89 L 511.85,368.40 L 510.55,367.01 L 509.48,366.09 L 509.04,365.64 L 508.35,364.67 L 508.62,362.84 L 509.27,359.56 L 509.39,358.86 L 510.05,358.20 L 510.20,358.11 L 510.38,358.04 L 511.05,357.61 L 511.37,357.54 L 511.48,357.53 L 511.55,357.59 L 511.81,357.66 L 512.07,357.78 L 512.71,358.20 L 513.14,358.42 L 513.47,358.53 L 515.92,358.95 L 516.27,358.58 L 516.66,358.22 L 516.83,358.02 L 517.24,357.29 L 517.31,357.20 L 517.43,356.92 L 517.67,356.42 L 517.89,356.05 L 518.63,355.28 L 519.09,354.94 L 519.50,354.74 L 520.22,353.79 L 519.42,353.50 L 519.13,353.21 L 518.80,352.77 L 518.42,352.09 L 518.15,351.20 L 518.17,350.50 L 518.24,349.01 L 518.22,347.33 L 518.15,346.63 L 518.04,345.03 L 517.61,344.12 L 516.83,343.56 L 516.32,343.41 L 516.76,341.42 L 517.66,338.49 L 518.37,335.60 L 519.46,332.33 L 520.16,329.60 L 520.37,328.65 L 520.30,327.92 L 520.09,327.30 L 519.73,326.64 L 519.07,326.47 L 515.83,326.10 L 514.92,325.96 L 514.45,325.75 L 513.50,324.64 L 512.42,323.77 L 511.26,322.69 L 510.82,322.34 L 511.14,321.18 L 511.81,319.19 L 512.45,316.60 L 512.78,315.81 L 513.27,314.16 L 513.59,312.34 L 513.71,311.79 L 513.83,310.72 L 514.04,310.07 L 514.25,309.14 L 514.75,307.58 L 515.01,306.30 L 514.74,306.26 L 514.34,306.02 L 513.10,305.39 L 511.56,304.54 L 509.83,303.70 L 508.88,303.21 L 506.97,302.38 L 504.89,301.38 L 503.93,300.91 L 501.20,299.50 L 500.03,298.77 L 498.67,298.21 L 498.90,297.99 L 499.61,297.16 L 500.41,296.06 L 501.43,294.64 L 502.35,293.37 L 502.53,292.88 L 502.68,291.71 L 502.82,289.86 L 502.68,287.23 L 502.82,284.90 L 502.76,283.72 L 502.52,282.61 L 502.31,281.62 L 501.90,280.52 L 501.70,280.12 L 502.28,279.52 L 502.51,278.50 L 502.89,276.62 L 503.04,275.73 L 503.52,274.25 L 503.81,272.58 L 503.83,272.20 L 503.92,270.95 L 504.07,270.03 L 503.90,268.74 L 503.72,266.92 L 503.84,265.30 L 503.72,264.49 L 503.59,263.93 L 504.53,262.43 L 505.43,260.59 L 506.34,258.08 L 506.79,256.48 L 507.90,252.96 L 509.19,249.53 L 509.55,248.11 L 509.94,246.82 L 508.89,246.06 L 507.43,245.35 L 505.94,244.79 L 504.38,244.12 L 503.25,243.32 L 502.09,243.11 L 499.13,243.06 L 497.56,242.80 L 494.96,242.77 L 493.97,242.76 L 489.70,243.70 L 484.18,244.88 L 483.72,245.34 L 480.26,248.56 L 479.39,249.31 L 477.84,250.65 L 476.52,252.02 L 475.77,252.66 L 474.96,253.24 L 474.09,253.44 L 472.18,254.05 L 471.50,254.11 L 473.79,248.78 L 473.50,248.22 L 473.48,246.33 L 472.83,244.46 L 472.17,243.19 L 470.94,241.94 L 469.56,240.83 L 468.14,240.00 L 466.54,239.02 L 465.89,238.39 L 467.73,236.44 L 470.58,237.85 L 472.62,238.66 L 473.46,238.76 L 474.37,238.63 L 475.17,238.50 L 477.18,237.65 L 478.18,236.97 L 482.39,235.03 L 483.14,234.24 L 483.90,233.45 L 485.30,231.22 L 486.54,230.29 L 487.75,229.51 L 489.18,226.01 L 489.67,224.36 L 490.96,221.84 L 491.37,220.96 L 490.49,218.63 L 489.18,216.17 L 488.01,213.90 L 488.01,213.90 L 487.60,213.12 L 486.44,211.05 L 485.13,208.37 L 484.41,206.12 L 483.78,204.41 L 483.61,203.65 L 483.73,201.58 L 483.82,199.72 L 483.84,197.17 L 483.91,196.41 L 482.71,194.68 L 481.80,193.06 L 480.97,191.78 L 481.10,189.36 L 481.03,186.24 L 480.86,183.99 L 480.76,183.27 L 481.32,181.37 L 481.45,181.01 L 482.16,178.15 L 482.47,176.22 L 482.67,174.46 L 482.09,173.52 L 480.91,172.53 L 479.13,171.66 L 478.51,171.17 L 476.16,167.81 L 475.21,167.63 L 473.94,167.04 L 472.92,166.75 L 472.23,166.55 L 472.53,164.48 L 472.71,162.98 L 472.65,160.87 L 472.88,158.70 L 474.67,158.78 L 474.86,157.78 L 474.48,155.57 L 474.21,154.65 L 475.25,152.63 L 476.50,150.04 L 477.69,148.05 L 479.09,147.83 L 484.68,148.11 L 485.63,148.05 L 485.80,147.93 L 486.40,148.18 L 486.86,148.23 L 487.30,148.27 L 488.08,148.21 L 488.47,147.19 L 489.38,145.20 L 489.61,144.57 L 489.86,142.28 L 490.81,138.62 L 493.94,136.66 L 496.51,135.33 L 497.17,132.57 L 498.55,131.41 L 498.93,130.74 L 498.17,127.60 L 497.51,125.20 L 497.12,123.49 L 496.70,120.89 L 496.22,119.99 L 495.09,117.36 L 494.91,116.00 L 494.76,113.45 L 494.62,110.12 L 494.66,109.88 L 494.67,109.84 L 495.11,107.36 L 495.20,106.89 L 495.75,104.26 L 496.27,101.04 L 494.86,100.80 L 492.20,100.55 L 490.46,100.28 L 487.21,98.89 L 484.89,97.51 L 482.98,96.60 L 480.89,95.22 L 479.74,94.46 L 478.49,93.56 L 475.35,91.27 L 472.57,89.61 L 470.56,90.05 L 468.78,90.44 L 466.43,90.26 L 464.31,90.11 L 462.91,94.00 L 462.91,94.00 L 460.53,93.08 L 460.53,93.08 L 459.51,92.47 L 457.88,93.05 L 455.88,94.90 L 453.92,96.19 L 452.47,96.53 L 450.89,96.42 L 448.79,96.21 L 445.32,98.00 L 443.16,96.46 L 438.60,93.94 L 437.65,95.61 L 437.16,96.15 L 433.07,99.05 L 429.78,101.49 L 427.97,100.98 L 425.80,100.40 L 422.96,99.64 L 419.67,103.35 L 417.56,105.33 L 413.75,102.94 L 408.51,99.44 L 407.37,98.44 L 406.54,97.70 L 405.16,96.25 L 404.14,93.17 L 404.14,93.17 L 402.80,90.14 L 400.41,87.01 L 399.08,87.17 L 397.77,87.32 L 395.20,86.87 L 395.39,85.49 L 395.49,84.81 L 394.81,84.21 L 394.03,83.74 L 392.63,82.89 L 391.55,82.11 L 389.97,80.40 L 388.94,80.62 L 387.71,80.88 L 384.44,81.44 L 383.15,80.37 L 383.37,79.57 L 382.58,78.61 L 381.79,76.62 L 382.21,75.14 L 379.78,70.84 L 381.07,67.30 L 380.46,66.63 L 378.92,64.94 L 378.45,64.42 L 379.04,62.26 L 377.52,60.81 L 376.77,59.90 L 376.77,59.90 L 376.51,59.13 L 376.19,58.20 L 375.39,55.50 L 373.38,54.81 L 368.47,52.27 L 365.21,49.90 L 361.58,46.07 L 360.62,44.89 L 360.04,44.18 L 358.06,41.45 L 358.26,38.58 L 358.00,37.00 L 357.40,36.54 L 354.45,34.27 L 352.51,32.52 L 348.00,27.99 L 346.55,26.30 L 344.41,23.29 L 343.46,21.84 L 342.42,20.23 L 341.67,18.83 L 341.25,16.52 L 340.44,12.66 L 339.28,13.53 L 337.49,14.79 L 335.73,16.19 L 334.31,16.86 L 332.05,17.49 L 330.49,17.70 L 328.01,18.41 L 325.11,19.46 L 323.25,20.52 L 320.44,22.45 L 319.53,23.14 L 318.51,23.32 L 316.32,23.78 L 313.81,24.70 L 309.69,26.12 L 306.94,27.26 L 306.08,27.74 L 306.08,27.74 L 305.21,28.22 L 305.09,28.27 L 304.77,28.60 L 304.29,29.26 L 303.41,30.02 L 302.57,30.48 L 302.25,31.16 L 301.75,32.03 L 300.83,33.55 L 299.92,35.38 L 299.64,36.34 L 298.97,36.38 L 297.46,36.36 L 294.99,36.65 L 293.03,36.80 L 291.24,36.92 L 289.51,37.02 L 288.07,37.07 L 287.80,36.91 L 287.18,36.38 L 286.49,35.68 L 286.09,35.08 L 285.38,33.81 L 285.02,32.97 L 284.77,32.15 L 284.75,32.09 L 284.72,32.00 L 284.58,31.96 L 282.21,31.52 L 281.19,31.24 L 280.23,30.69 L 278.40,29.73 L 278.05,29.56 L 277.70,30.17 L 276.63,31.87 L 276.54,32.01 L 275.84,33.34 L 275.61,33.69 L 275.43,33.97 L 274.39,34.52 L 272.44,35.70 L 270.76,36.57 L 269.53,37.16 L 268.72,37.90 L 267.80,38.76 L 266.49,39.83 L 265.88,40.38 L 265.24,41.23 L 264.48,42.25 L 263.58,43.49 L 262.68,44.71 L 261.47,46.22 L 260.19,46.34 L 258.10,46.30 L 257.79,48.49 L 257.32,50.01 L 255.42,49.77 L 252.82,49.59 L 251.25,49.63 L 248.48,49.54 L 246.58,49.56 L 243.94,49.40 L 241.93,49.27 L 239.09,49.16 L 237.51,49.03 L 236.03,48.92 L 233.98,48.85 L 232.85,48.82 L 232.23,48.63 L 231.43,48.25 L 229.90,47.38 L 228.05,46.31 L 226.48,45.45 L 225.97,45.24 L 225.31,45.14 L 224.11,45.03 L 223.58,44.98 L 222.58,44.90 L 220.28,44.66 L 218.51,44.31 L 215.93,43.72 L 214.62,43.41 L 212.40,42.97 L 211.01,42.65 L 209.59,42.36 L 206.94,41.74 L 205.29,41.30 L 202.83,40.67 L 201.81,40.28 L 201.52,39.75 L 201.11,39.19 L 200.46,38.61 L 199.74,38.12 L 198.97,37.75 L 198.41,37.51 L 197.83,37.39 L 197.22,37.38 L 196.72,37.51 L 196.28,37.68 L 195.77,37.79 L 195.25,37.81 L 194.55,37.68 L 193.88,37.24 L 193.43,36.74 L 192.79,35.82 L 192.54,35.52 L 192.35,35.37 L 192.06,35.21 L 191.62,35.01 L 191.05,34.88 L 190.22,34.77 L 189.20,34.60 L 188.53,34.28 L 187.59,33.86 L 186.94,33.59 L 186.59,33.36 L 186.39,33.19 L 186.05,32.83 L 185.67,32.33 L 185.41,31.89 L 185.20,31.37 L 185.03,30.95 L 184.80,30.65 L 184.49,30.49 L 184.28,30.41 L 183.91,30.32 L 183.20,30.26 L 181.81,30.03 L 180.48,29.68 L 180.22,29.80 L 179.89,29.84 L 178.98,29.98 L 177.58,30.07 L 176.76,30.17 L 176.12,30.44 L 175.57,30.69 L 175.52,30.71 L 174.95,30.98 L 174.51,31.11 L 173.92,31.10 L 173.29,31.01 L 172.49,30.69 L 171.81,30.32 L 171.38,30.16 L 170.95,30.01 L 170.33,29.94 L 169.53,29.84 L 169.05,29.74 L 168.53,29.68 L 168.09,29.74 L 167.47,30.00 L 166.57,30.31 L 166.26,30.52 L 165.86,30.70 L 165.49,30.74 L 165.20,30.62 L 164.95,30.42 L 164.77,30.23 L 164.54,29.76 L 164.37,29.45 L 164.15,29.24 L 164.01,29.17 L 163.78,29.19 L 163.36,29.13 L 162.89,28.85 L 162.15,28.23 L 161.26,27.53 L 160.51,27.10 L 159.93,26.95 L 159.21,26.99 L 158.90,26.87 L 158.68,26.71 L 158.50,26.49 L 158.24,26.17 L 158.04,25.93 L 157.90,26.01 L 157.29,26.20 L 154.66,26.40 L 154.19,26.41 L 151.62,26.48 L 149.06,26.51 L 147.78,26.62 L 146.46,25.72 L 143.91,24.21 L 141.15,22.43 L 138.45,20.76 L 134.95,18.68 L 133.65,17.89 L 132.02,16.50 L 129.56,15.03 L 125.28,12.27 Z" fill="#1d3672" stroke="#333" stroke-width="1"/>
</svg>