<svg xmlns="http://www.w3.org/2000/svg" width="800" height="600" viewBox="0 0 800 600">
<path d="M 279.54,10.04 L 278.89,10.00 L 278.39,10.02 L 277.85,10.13 L 276.72,10.28 L 275.99,10.57 L 275.10,11.23 L 274.90,11.42 L 274.29,12.17 L 273.85,13.01 L 273.41,13.71 L 272.53,14.44 L 272.04,14.41 L 270.48,14.00 L 270.28,13.96 L 269.08,13.66 L 267.75,13.45 L 267.41,13.38 L 267.26,14.23 L 267.13,15.04 L 266.92,16.01 L 266.71,16.87 L 266.49,17.80 L 266.28,18.72 L 266.16,19.61 L 266.02,20.55 L 265.85,21.44 L 265.64,22.42 L 265.43,23.38 L 265.22,24.35 L 265.11,25.20 L 264.99,26.11 L 264.83,27.03 L 264.65,27.91 L 264.56,28.07 L 264.81,28.60 L 264.97,29.10 L 265.01,29.82 L 265.12,30.28 L 265.41,30.50 L 266.02,30.59 L 266.71,30.80 L 267.33,31.47 L 267.68,32.36 L 267.80,32.69 L 267.86,33.25 L 266.98,33.82 L 266.51,34.36 L 266.10,34.91 L 265.59,35.26 L 264.61,35.55 L 263.24,35.74 L 261.98,35.83 L 261.25,36.09 L 260.24,36.86 L 259.08,37.45 L 259.01,37.75 L 258.99,38.03 L 258.97,38.60 L 258.91,39.40 L 258.67,41.98 L 258.52,44.48 L 258.70,46.31 L 258.27,48.53 L 257.61,50.52 L 256.84,52.64 L 256.12,54.03 L 255.86,54.42 L 255.73,55.12 L 254.81,57.52 L 254.04,59.93 L 253.76,61.28 L 251.91,61.51 L 250.61,61.56 L 247.87,61.72 L 247.21,61.85 L 246.77,61.87 L 246.12,62.24 L 246.10,62.25 L 245.76,62.37 L 244.22,62.72 L 243.43,62.92 L 242.25,63.42 L 241.40,64.01 L 240.56,64.81 L 238.68,66.09 L 237.98,66.37 L 237.10,66.69 L 236.27,67.15 L 235.50,67.73 L 234.79,68.43 L 234.28,68.77 L 232.47,69.36 L 231.68,69.60 L 229.69,70.30 L 228.99,70.55 L 228.15,70.95 L 227.69,71.28 L 227.07,72.09 L 226.47,72.79 L 225.55,73.71 L 224.91,74.31 L 224.21,74.87 L 223.46,75.30 L 222.96,75.50 L 222.57,75.71 L 221.95,75.94 L 221.34,75.96 L 220.33,76.18 L 219.46,76.41 L 217.56,76.95 L 216.93,77.13 L 215.80,77.47 L 214.49,78.06 L 213.11,78.65 L 211.70,79.41 L 211.00,79.92 L 210.40,80.48 L 209.60,81.07 L 209.22,81.29 L 208.64,81.46 L 208.00,81.52 L 207.44,81.44 L 206.16,81.55 L 205.36,81.62 L 204.57,81.64 L 203.20,81.95 L 202.73,82.13 L 201.81,82.45 L 200.70,82.84 L 200.29,83.00 L 199.80,83.30 L 199.07,83.73 L 197.41,84.82 L 196.37,85.50 L 196.13,85.68 L 195.28,86.59 L 194.96,87.24 L 194.81,88.20 L 194.77,88.85 L 194.69,90.23 L 194.77,91.36 L 194.88,91.75 L 194.82,92.00 L 194.50,92.41 L 193.98,92.86 L 192.64,93.88 L 191.59,94.73 L 190.76,95.71 L 190.20,96.27 L 188.91,97.64 L 187.77,98.86 L 187.13,99.27 L 186.11,99.31 L 183.93,99.38 L 183.31,99.39 L 182.26,99.43 L 180.82,99.38 L 179.23,99.30 L 176.83,99.26 L 175.46,99.42 L 174.82,99.96 L 174.07,100.35 L 173.38,100.68 L 171.81,101.16 L 170.91,101.42 L 168.83,101.89 L 167.81,102.08 L 166.79,102.25 L 165.95,102.23 L 165.63,101.45 L 163.91,101.69 L 162.83,101.68 L 160.81,101.77 L 158.93,101.63 L 157.65,101.67 L 157.01,101.76 L 156.10,102.00 L 155.39,101.93 L 153.63,101.39 L 152.72,101.31 L 151.87,101.23 L 150.67,100.95 L 150.13,101.44 L 149.66,101.84 L 149.04,102.25 L 148.13,102.71 L 147.68,103.27 L 147.17,103.91 L 146.70,104.58 L 146.04,106.04 L 145.74,106.61 L 144.63,106.11 L 143.69,105.83 L 142.31,105.14 L 140.91,104.49 L 139.42,103.67 L 138.04,103.05 L 137.55,102.84 L 137.13,102.54 L 136.30,102.05 L 134.81,101.12 L 134.59,100.53 L 134.09,100.20 L 134.09,99.31 L 134.25,98.53 L 134.23,97.66 L 134.28,96.80 L 134.42,95.92 L 134.40,95.05 L 134.08,94.53 L 133.69,94.20 L 133.00,93.94 L 132.05,93.48 L 131.23,93.08 L 130.57,92.71 L 129.92,92.11 L 129.24,91.44 L 128.68,90.78 L 128.19,90.02 L 127.80,89.29 L 127.05,88.04 L 125.46,88.56 L 123.86,89.17 L 123.08,88.96 L 122.22,88.29 L 121.69,87.78 L 121.29,87.35 L 120.84,86.90 L 120.40,86.37 L 119.91,85.72 L 119.48,85.12 L 119.06,84.46 L 118.64,83.70 L 118.23,83.23 L 117.44,82.89 L 116.42,82.68 L 115.73,82.20 L 114.95,81.64 L 114.44,80.98 L 113.86,80.44 L 112.93,79.89 L 112.14,79.41 L 111.44,78.97 L 110.83,78.50 L 110.23,78.12 L 109.78,77.88 L 109.16,77.72 L 108.45,77.49 L 107.69,77.36 L 106.87,77.09 L 106.25,76.64 L 105.71,76.16 L 105.30,75.62 L 104.75,74.88 L 104.25,74.14 L 103.77,73.54 L 103.09,73.72 L 102.56,74.06 L 101.93,74.49 L 101.41,74.82 L 100.56,75.13 L 99.58,75.18 L 98.91,75.13 L 98.14,74.86 L 97.37,74.57 L 96.84,74.21 L 96.25,73.89 L 95.78,73.36 L 95.44,72.61 L 95.25,71.78 L 95.02,70.99 L 94.76,70.20 L 94.66,69.48 L 93.95,69.37 L 92.98,69.60 L 92.45,69.72 L 91.75,70.56 L 91.11,71.52 L 90.69,72.22 L 90.07,73.58 L 89.52,74.46 L 88.42,76.08 L 87.87,77.09 L 87.48,78.27 L 87.13,79.37 L 86.84,80.40 L 86.66,81.15 L 86.61,81.83 L 86.49,82.25 L 86.18,82.66 L 85.75,83.21 L 85.28,83.97 L 85.01,84.90 L 84.92,85.22 L 84.87,85.97 L 84.98,87.10 L 84.91,88.48 L 83.32,89.37 L 83.65,90.98 L 83.75,91.30 L 85.33,92.48 L 85.36,94.42 L 85.27,95.58 L 85.20,96.31 L 83.27,97.66 L 83.71,98.55 L 83.41,100.15 L 83.42,101.10 L 83.25,102.48 L 83.20,104.25 L 83.06,106.52 L 83.00,108.70 L 83.16,110.19 L 83.19,110.33 L 83.51,112.15 L 83.56,112.54 L 84.08,112.96 L 85.09,113.59 L 86.41,114.42 L 87.17,115.09 L 88.56,116.62 L 90.72,116.04 L 91.36,115.87 L 93.57,115.26 L 94.51,114.96 L 96.18,113.66 L 98.23,112.16 L 99.94,110.89 L 100.93,110.14 L 101.46,109.80 L 101.90,109.61 L 102.54,109.40 L 104.00,108.97 L 105.00,108.65 L 105.81,108.24 L 106.61,107.49 L 106.87,107.13 L 107.33,106.69 L 107.63,106.52 L 108.62,106.12 L 109.62,105.73 L 110.35,105.40 L 110.74,105.14 L 111.34,104.50 L 111.66,104.22 L 112.14,103.84 L 112.55,103.63 L 113.09,103.32 L 113.89,103.16 L 114.34,102.89 L 115.30,102.16 L 116.15,101.50 L 116.96,100.79 L 117.59,101.10 L 118.64,101.47 L 119.91,101.66 L 120.61,102.55 L 121.42,103.24 L 122.24,103.71 L 123.20,104.15 L 123.70,104.32 L 124.71,104.48 L 125.45,103.74 L 125.83,103.25 L 126.38,102.66 L 128.36,102.24 L 129.47,101.92 L 130.00,101.66 L 130.57,101.33 L 131.40,100.56 L 131.71,100.24 L 132.54,99.59 L 132.75,99.54 L 133.05,99.62 L 133.31,99.79 L 133.65,100.26 L 134.28,100.79 L 134.34,102.26 L 134.61,104.33 L 134.84,105.35 L 134.91,106.65 L 135.08,108.41 L 135.27,109.41 L 135.37,109.78 L 135.59,110.81 L 135.72,111.86 L 135.81,112.96 L 135.84,113.74 L 135.64,114.84 L 135.31,116.25 L 135.03,117.32 L 134.53,118.19 L 133.89,119.31 L 133.75,120.11 L 133.72,120.77 L 133.79,122.29 L 133.76,122.95 L 133.60,124.03 L 133.50,125.04 L 133.52,126.00 L 133.69,127.14 L 133.74,127.69 L 133.90,129.45 L 134.31,129.76 L 135.09,130.61 L 135.39,131.03 L 135.57,131.77 L 135.67,132.61 L 136.60,132.91 L 137.18,133.15 L 137.81,133.82 L 138.54,134.55 L 139.27,135.29 L 139.95,136.00 L 142.30,138.11 L 144.83,140.29 L 147.29,142.64 L 148.79,144.28 L 149.56,144.78 L 150.38,145.11 L 151.33,145.39 L 152.02,145.62 L 152.69,145.95 L 153.67,146.47 L 155.05,147.55 L 157.39,149.07 L 159.30,150.31 L 159.92,150.67 L 160.06,150.85 L 160.14,151.03 L 160.17,151.25 L 160.10,151.82 L 159.88,152.85 L 159.46,155.46 L 159.08,157.19 L 158.57,157.60 L 156.99,158.56 L 156.24,159.06 L 155.23,159.95 L 154.73,160.36 L 154.12,160.97 L 153.40,161.56 L 152.34,162.21 L 151.40,162.68 L 149.89,163.46 L 149.01,163.91 L 148.38,164.13 L 147.49,164.42 L 146.32,164.86 L 145.25,165.32 L 144.57,165.68 L 143.81,166.16 L 143.22,166.65 L 141.51,168.16 L 141.15,168.55 L 140.00,169.72 L 138.86,170.71 L 138.64,170.95 L 138.37,171.11 L 138.07,171.24 L 137.80,171.31 L 137.49,171.40 L 137.25,171.50 L 136.98,171.75 L 136.62,172.03 L 136.17,172.51 L 135.59,173.18 L 135.14,173.58 L 134.88,173.86 L 134.45,174.20 L 133.61,174.82 L 133.23,175.15 L 132.71,175.55 L 132.20,175.88 L 131.79,176.07 L 131.40,176.20 L 130.60,176.40 L 129.55,176.46 L 128.51,176.48 L 127.73,176.55 L 126.26,176.74 L 125.81,176.87 L 124.70,177.14 L 123.01,177.39 L 121.97,177.52 L 121.54,177.61 L 120.39,177.66 L 119.66,177.57 L 118.86,177.38 L 118.43,177.30 L 117.69,177.19 L 116.53,176.91 L 116.06,176.75 L 115.39,176.59 L 115.00,176.55 L 114.22,176.51 L 113.95,176.56 L 113.94,176.56 L 113.39,176.98 L 112.38,177.82 L 111.49,178.55 L 110.97,179.11 L 110.77,179.43 L 110.74,179.53 L 110.74,179.66 L 110.79,179.77 L 110.86,179.90 L 110.88,179.91 L 110.88,179.91 L 110.68,180.17 L 110.48,180.57 L 110.24,181.16 L 110.03,181.69 L 109.78,182.29 L 109.54,182.89 L 109.26,183.69 L 109.01,184.56 L 109.03,185.46 L 108.51,186.73 L 108.13,187.79 L 107.55,189.44 L 107.39,189.89 L 108.40,190.48 L 110.18,191.24 L 111.58,191.79 L 112.42,192.07 L 113.43,192.43 L 113.98,192.71 L 114.52,193.09 L 114.86,193.45 L 115.30,194.05 L 115.54,194.52 L 115.58,195.19 L 115.58,195.75 L 115.62,197.01 L 115.66,197.69 L 115.91,198.38 L 116.14,198.98 L 116.51,199.36 L 116.62,199.53 L 116.73,199.66 L 118.72,201.55 L 121.06,203.32 L 123.96,204.92 L 126.58,206.21 L 128.84,207.01 L 130.79,207.80 L 132.46,209.10 L 133.71,211.84 L 134.60,213.89 L 136.05,215.97 L 138.35,217.83 L 138.99,219.04 L 139.29,220.52 L 139.44,222.51 L 139.61,223.38 L 140.80,225.04 L 142.55,227.12 L 142.90,227.96 L 142.69,229.21 L 142.34,230.49 L 141.83,231.43 L 141.71,232.46 L 141.95,233.03 L 143.26,234.09 L 144.35,234.88 L 145.01,235.83 L 145.94,236.91 L 147.66,237.85 L 149.71,238.31 L 150.60,238.39 L 152.26,238.60 L 154.25,239.26 L 156.57,236.57 L 157.69,235.18 L 159.23,233.27 L 160.24,232.27 L 162.80,230.08 L 164.40,228.77 L 167.68,226.66 L 173.59,223.16 L 175.47,222.12 L 175.62,222.05 L 175.76,221.99 L 176.09,221.84 L 176.25,221.78 L 176.75,221.54 L 177.39,221.39 L 178.21,221.33 L 178.82,221.35 L 179.23,221.32 L 179.52,221.11 L 179.98,220.78 L 180.34,220.65 L 181.00,220.51 L 181.79,220.38 L 182.68,220.24 L 183.92,220.03 L 184.55,219.94 L 185.03,219.67 L 185.70,219.02 L 186.71,217.89 L 187.67,217.17 L 188.65,216.62 L 189.65,216.06 L 190.10,215.76 L 190.85,215.40 L 191.39,215.19 L 192.23,214.82 L 193.31,214.36 L 194.35,213.93 L 194.93,213.68 L 195.51,213.50 L 195.93,213.34 L 196.34,213.07 L 197.43,212.30 L 198.91,211.27 L 199.54,210.90 L 199.95,210.58 L 200.39,210.18 L 200.74,209.79 L 201.81,208.55 L 202.80,207.57 L 203.99,206.77 L 205.19,206.15 L 206.44,205.67 L 207.43,205.48 L 208.47,205.31 L 209.51,205.18 L 210.76,205.09 L 211.50,205.14 L 211.75,205.57 L 212.44,206.49 L 213.17,207.18 L 213.79,207.64 L 214.25,208.00 L 214.63,208.29 L 215.24,208.77 L 215.44,208.91 L 215.67,209.13 L 215.81,209.31 L 216.38,210.09 L 216.95,210.92 L 217.20,211.31 L 217.52,211.75 L 217.86,212.21 L 218.14,212.59 L 218.44,213.05 L 218.76,213.51 L 218.92,213.73 L 219.10,214.31 L 219.36,214.72 L 219.53,215.05 L 219.71,215.97 L 219.78,216.60 L 219.84,217.60 L 219.86,218.30 L 219.89,218.89 L 220.02,219.99 L 220.10,220.70 L 220.36,221.60 L 220.56,222.15 L 220.87,222.72 L 221.12,223.40 L 221.14,223.59 L 221.21,224.40 L 221.32,225.28 L 221.43,225.97 L 221.50,226.49 L 221.60,227.02 L 221.71,227.52 L 221.77,227.81 L 221.79,228.03 L 221.81,228.28 L 221.88,228.49 L 221.97,229.01 L 221.95,229.51 L 221.96,229.94 L 222.02,230.63 L 222.02,231.30 L 222.08,231.65 L 222.05,232.36 L 222.01,232.80 L 221.98,233.19 L 221.94,233.75 L 221.91,234.65 L 221.91,235.16 L 221.98,235.38 L 222.13,235.55 L 222.41,235.68 L 222.64,235.92 L 222.83,236.18 L 222.89,236.45 L 222.85,236.66 L 222.58,237.04 L 222.29,237.49 L 221.73,238.32 L 221.44,238.77 L 220.92,239.55 L 220.71,240.04 L 220.54,240.59 L 220.35,241.03 L 220.28,241.51 L 220.18,242.11 L 219.96,243.04 L 219.89,243.59 L 219.73,244.25 L 219.69,244.57 L 219.52,245.04 L 219.36,245.50 L 219.21,246.01 L 219.00,246.46 L 218.83,246.94 L 218.63,247.42 L 218.06,248.19 L 217.78,248.61 L 217.44,249.04 L 217.11,249.47 L 216.74,249.94 L 216.42,250.36 L 216.12,250.73 L 215.75,251.16 L 215.51,251.52 L 215.29,251.92 L 215.04,252.42 L 214.90,252.84 L 214.68,253.32 L 214.60,253.78 L 214.53,254.22 L 214.42,254.69 L 214.31,255.24 L 214.11,255.67 L 213.86,256.08 L 213.51,256.62 L 213.24,257.01 L 212.87,257.55 L 212.67,257.84 L 212.46,258.27 L 212.37,258.75 L 212.21,259.65 L 212.15,260.69 L 212.10,261.66 L 212.26,262.63 L 212.33,263.19 L 212.43,263.72 L 212.49,264.20 L 212.56,264.70 L 212.64,265.18 L 212.74,265.70 L 212.86,266.46 L 212.96,266.90 L 213.09,267.31 L 213.22,267.96 L 213.25,268.15 L 213.23,268.54 L 213.22,268.73 L 213.18,269.21 L 213.19,269.78 L 213.24,270.25 L 213.31,270.57 L 213.44,270.97 L 213.55,271.36 L 213.59,271.56 L 213.64,271.86 L 213.72,272.41 L 213.73,273.01 L 213.75,273.56 L 213.78,273.72 L 213.78,274.13 L 213.77,274.64 L 213.73,275.48 L 213.73,275.66 L 213.70,276.21 L 213.67,276.65 L 213.66,277.17 L 213.70,277.44 L 213.75,277.60 L 213.85,278.09 L 213.98,278.58 L 214.05,278.89 L 214.11,279.13 L 214.18,279.57 L 214.30,280.07 L 214.43,280.68 L 214.50,281.13 L 214.62,281.71 L 214.72,282.11 L 214.84,282.62 L 214.93,283.16 L 214.99,283.70 L 215.01,284.71 L 214.99,285.73 L 214.97,286.32 L 214.96,286.77 L 214.95,287.74 L 214.91,288.58 L 214.93,289.14 L 214.90,289.60 L 214.79,289.84 L 214.39,290.18 L 214.03,290.50 L 213.76,290.65 L 213.56,290.84 L 213.13,291.26 L 212.84,291.47 L 211.87,292.06 L 211.24,292.42 L 210.13,293.04 L 209.33,293.61 L 208.23,294.27 L 207.73,294.65 L 206.86,295.21 L 206.25,295.65 L 205.02,296.54 L 204.01,297.26 L 203.46,297.62 L 203.06,298.02 L 202.79,298.41 L 202.50,298.88 L 202.26,299.29 L 201.87,299.96 L 201.49,300.44 L 201.46,300.74 L 201.46,301.19 L 201.49,301.61 L 201.47,301.98 L 200.75,301.47 L 200.32,301.21 L 199.80,300.91 L 199.31,300.71 L 198.32,300.47 L 197.31,300.23 L 196.80,300.12 L 196.25,299.98 L 195.24,299.73 L 194.74,299.59 L 194.26,299.50 L 193.80,299.43 L 193.19,299.34 L 192.12,299.22 L 191.63,299.17 L 191.02,299.12 L 190.06,299.03 L 189.51,298.95 L 189.01,298.92 L 188.55,298.83 L 188.23,298.79 L 187.81,298.67 L 187.26,298.57 L 186.89,298.47 L 186.43,298.27 L 185.96,298.06 L 185.49,297.88 L 185.04,297.57 L 184.62,297.19 L 184.30,296.89 L 183.83,296.35 L 183.48,295.87 L 183.29,295.53 L 183.18,295.51 L 182.80,295.57 L 182.61,295.66 L 182.24,295.82 L 181.98,295.86 L 181.56,295.81 L 181.26,295.85 L 181.07,295.95 L 180.95,296.12 L 180.91,296.33 L 180.89,296.63 L 180.85,296.95 L 180.81,297.06 L 180.56,297.42 L 180.39,297.69 L 180.30,297.98 L 180.28,298.20 L 180.35,298.61 L 180.32,299.01 L 180.24,299.29 L 180.15,299.59 L 179.96,299.98 L 179.78,300.24 L 179.68,300.59 L 179.67,300.92 L 179.58,301.19 L 179.48,301.28 L 179.17,301.47 L 178.76,301.61 L 178.60,301.60 L 178.47,301.54 L 178.36,301.43 L 178.21,301.21 L 177.98,301.02 L 177.74,300.84 L 177.46,300.69 L 177.27,300.60 L 177.09,300.57 L 176.87,300.58 L 176.67,300.62 L 176.47,300.69 L 176.26,300.84 L 176.13,300.94 L 175.84,301.15 L 175.64,301.29 L 175.55,301.45 L 175.46,301.61 L 175.06,302.38 L 174.58,303.02 L 174.03,303.36 L 173.81,304.65 L 172.46,309.32 L 171.65,312.64 L 170.22,317.17 L 169.70,318.90 L 171.81,318.90 L 173.03,319.14 L 175.45,320.26 L 175.64,320.51 L 175.70,320.58 L 175.78,320.70 L 176.01,320.92 L 176.14,321.04 L 176.54,321.44 L 176.88,321.81 L 177.25,322.21 L 177.46,322.50 L 177.60,322.71 L 177.91,323.18 L 178.25,323.69 L 178.47,324.04 L 178.71,324.48 L 178.99,324.90 L 179.29,325.36 L 179.51,325.84 L 179.69,326.16 L 179.81,326.39 L 180.01,326.85 L 180.13,327.11 L 180.23,327.38 L 180.32,327.58 L 180.56,328.14 L 180.70,328.46 L 180.88,328.89 L 181.06,329.39 L 181.14,329.64 L 181.32,330.15 L 181.49,330.59 L 181.62,330.89 L 181.81,331.41 L 182.01,332.09 L 182.20,332.66 L 182.29,332.90 L 182.47,333.49 L 182.66,334.08 L 182.79,334.47 L 182.94,335.02 L 183.07,335.48 L 183.15,335.88 L 183.19,336.20 L 183.24,336.46 L 183.30,336.82 L 183.28,337.09 L 183.28,337.10 L 183.35,337.31 L 183.48,337.78 L 183.65,338.49 L 183.77,338.94 L 185.13,345.28 L 185.20,345.48 L 185.05,345.57 L 184.52,345.86 L 183.96,346.19 L 183.77,346.31 L 183.42,346.49 L 183.18,346.58 L 182.67,346.93 L 182.19,347.21 L 181.95,347.34 L 181.45,347.64 L 180.75,348.03 L 180.09,348.41 L 179.14,349.00 L 178.30,349.47 L 177.24,350.11 L 176.16,350.70 L 175.47,351.36 L 174.35,351.99 L 172.69,352.96 L 169.63,354.47 L 167.37,355.48 L 162.28,357.84 L 161.77,358.10 L 161.12,358.42 L 159.28,359.31 L 158.22,359.82 L 157.39,360.37 L 156.06,361.30 L 154.72,362.39 L 153.25,363.46 L 152.15,364.21 L 150.51,365.61 L 148.77,367.07 L 147.55,367.81 L 145.77,369.37 L 144.34,371.04 L 143.91,371.54 L 143.04,372.90 L 142.01,375.61 L 141.43,377.18 L 141.01,379.49 L 140.75,381.10 L 140.77,381.79 L 140.77,381.95 L 141.28,383.52 L 142.88,386.46 L 143.07,386.80 L 144.18,388.70 L 145.22,390.98 L 145.35,391.84 L 145.10,391.84 L 144.22,391.86 L 144.00,392.21 L 143.85,392.74 L 143.65,394.06 L 143.41,394.45 L 142.41,395.67 L 142.10,396.18 L 142.11,396.95 L 141.94,398.34 L 141.36,400.37 L 140.85,401.67 L 140.20,402.61 L 139.24,404.58 L 138.34,407.06 L 137.27,409.91 L 137.10,410.50 L 136.39,412.43 L 135.20,416.41 L 133.74,421.37 L 133.44,422.58 L 132.77,424.92 L 132.30,426.54 L 131.85,427.57 L 131.28,427.99 L 129.49,428.52 L 128.02,429.13 L 125.54,430.06 L 122.80,431.02 L 114.89,434.05 L 113.52,434.45 L 110.39,435.66 L 108.63,436.19 L 108.26,436.32 L 106.99,436.84 L 106.82,437.56 L 106.53,441.25 L 106.53,442.51 L 106.28,445.89 L 106.52,447.64 L 103.64,447.50 L 100.65,447.30 L 98.31,447.29 L 92.28,446.96 L 90.93,446.95 L 88.28,446.83 L 85.88,446.66 L 85.20,446.66 L 83.64,446.55 L 81.63,446.42 L 80.44,446.29 L 79.05,446.21 L 77.45,447.40 L 75.86,448.60 L 74.26,449.99 L 72.00,453.09 L 68.76,458.29 L 68.08,459.07 L 67.17,460.46 L 66.95,461.36 L 66.61,463.49 L 66.50,465.02 L 66.40,467.05 L 66.58,468.74 L 66.76,470.48 L 66.56,471.35 L 65.63,473.04 L 65.25,474.04 L 65.05,474.51 L 64.81,475.13 L 64.47,476.16 L 64.15,477.08 L 63.82,478.32 L 63.68,478.90 L 63.65,479.63 L 63.65,480.22 L 63.88,481.03 L 64.26,481.75 L 64.58,482.17 L 64.67,482.62 L 64.67,483.32 L 64.38,483.85 L 64.12,484.20 L 63.74,484.76 L 63.51,485.01 L 63.07,485.54 L 63.07,485.54 L 62.60,485.80 L 61.70,486.10 L 60.94,486.44 L 60.56,486.64 L 60.21,486.69 L 60.71,487.39 L 61.03,487.95 L 61.26,488.57 L 61.29,489.18 L 61.08,489.79 L 60.76,490.24 L 60.01,490.99 L 59.28,491.52 L 58.44,491.77 L 57.69,491.63 L 56.90,491.35 L 56.29,491.21 L 55.71,490.93 L 55.24,490.90 L 54.46,491.07 L 53.76,491.35 L 53.23,491.58 L 52.22,491.92 L 51.73,492.06 L 50.76,492.27 L 50.45,492.34 L 51.32,492.94 L 51.61,493.34 L 51.55,494.19 L 51.46,494.55 L 51.61,494.79 L 51.81,495.09 L 51.96,495.42 L 51.75,495.84 L 51.49,496.32 L 51.06,497.11 L 50.94,497.64 L 51.14,498.26 L 51.41,498.65 L 51.58,499.30 L 51.67,499.94 L 51.55,500.95 L 51.44,501.50 L 51.35,502.26 L 51.12,502.82 L 51.12,503.04 L 51.41,503.66 L 51.55,504.08 L 51.41,504.67 L 51.03,505.34 L 50.77,505.92 L 50.54,506.60 L 50.39,507.08 L 49.81,507.70 L 49.29,507.92 L 48.96,508.23 L 48.85,508.65 L 48.59,509.10 L 48.24,509.46 L 47.74,509.91 L 47.39,510.30 L 47.16,510.55 L 46.70,510.49 L 46.26,510.24 L 45.57,509.50 L 45.28,509.30 L 44.84,508.96 L 44.55,508.80 L 44.17,508.43 L 44.03,508.24 L 43.85,508.24 L 43.39,508.10 L 42.92,508.12 L 42.69,508.01 L 42.63,507.71 L 42.55,507.51 L 42.43,507.29 L 42.25,507.12 L 42.08,506.95 L 41.85,506.87 L 41.50,506.87 L 41.03,506.95 L 40.82,506.98 L 40.60,507.01 L 40.16,507.40 L 39.84,507.82 L 39.58,508.33 L 39.11,508.81 L 38.91,508.97 L 39.00,509.23 L 39.35,509.73 L 39.67,510.21 L 39.96,510.74 L 40.13,511.16 L 40.02,511.60 L 39.67,512.25 L 39.43,512.64 L 39.17,513.17 L 39.23,513.53 L 39.64,514.07 L 40.22,514.35 L 40.77,514.88 L 41.24,515.41 L 41.44,515.86 L 41.38,516.47 L 41.15,516.92 L 40.74,517.23 L 40.22,517.06 L 39.75,516.83 L 39.35,516.70 L 38.71,516.50 L 38.33,516.33 L 38.06,516.05 L 37.17,515.25 L 36.60,514.72 L 36.13,514.27 L 35.58,513.70 L 35.18,513.33 L 34.94,513.13 L 34.87,513.08 L 34.73,512.99 L 34.40,512.99 L 33.66,512.90 L 33.07,512.90 L 32.58,512.83 L 32.43,512.81 L 31.91,512.35 L 31.49,512.01 L 30.82,511.56 L 30.40,511.24 L 30.40,511.26 L 30.28,511.31 L 30.14,511.58 L 30.09,512.06 L 30.00,512.45 L 30.00,512.51 L 29.83,512.58 L 29.62,512.61 L 29.50,512.58 L 29.19,512.35 L 28.81,512.06 L 28.34,511.69 L 27.98,511.35 L 27.49,510.97 L 27.35,511.06 L 27.06,511.36 L 26.83,511.77 L 26.59,512.06 L 26.28,512.25 L 25.83,512.36 L 24.16,512.76 L 23.85,512.81 L 23.35,512.90 L 22.71,512.95 L 22.05,512.95 L 20.50,513.17 L 20.35,513.26 L 20.05,513.58 L 19.71,513.97 L 19.60,513.99 L 19.29,514.56 L 18.82,515.18 L 18.41,515.75 L 18.27,515.93 L 17.99,516.74 L 17.78,517.49 L 17.61,518.15 L 17.56,518.31 L 17.33,518.63 L 16.95,518.90 L 16.34,519.40 L 16.05,519.65 L 15.91,519.87 L 15.91,519.88 L 15.89,520.19 L 15.46,520.47 L 14.87,520.90 L 13.12,521.83 L 12.58,522.10 L 12.06,522.40 L 11.21,523.40 L 10.71,524.03 L 10.24,524.63 L 10.00,525.13 L 10.00,525.79 L 10.00,525.88 L 10.40,525.49 L 10.73,525.08 L 11.21,524.63 L 11.52,524.31 L 11.82,523.92 L 11.99,523.83 L 12.11,523.71 L 12.60,523.55 L 13.17,523.44 L 14.28,523.19 L 14.59,522.96 L 15.16,522.51 L 16.96,521.08 L 17.45,520.62 L 17.97,520.24 L 18.37,519.87 L 19.49,518.92 L 19.79,518.35 L 20.08,517.94 L 20.12,517.81 L 20.53,517.76 L 21.16,517.88 L 21.92,517.94 L 22.39,518.08 L 22.42,518.08 L 22.42,518.40 L 22.23,518.81 L 21.90,519.86 L 21.57,520.52 L 21.19,521.20 L 20.79,522.02 L 20.51,522.49 L 19.96,523.01 L 19.04,523.81 L 18.30,524.47 L 17.52,525.11 L 16.84,525.79 L 16.51,526.13 L 16.01,526.52 L 15.99,526.65 L 16.74,526.31 L 17.62,525.95 L 18.64,525.45 L 19.63,525.01 L 20.48,524.56 L 21.29,524.08 L 21.62,523.78 L 22.30,522.96 L 22.90,522.35 L 23.20,522.03 L 24.72,518.88 L 25.00,518.47 L 25.24,518.13 L 25.54,517.99 L 25.95,517.88 L 27.11,518.10 L 27.58,518.01 L 28.61,518.13 L 28.66,518.47 L 28.57,519.33 L 28.59,519.58 L 28.33,519.84 L 27.81,520.20 L 27.27,520.52 L 26.49,521.00 L 25.99,521.31 L 25.80,521.38 L 26.08,521.84 L 26.60,522.61 L 28.31,521.75 L 28.43,521.72 L 28.57,523.77 L 28.64,524.25 L 28.64,524.32 L 28.99,524.13 L 29.56,523.88 L 29.82,523.75 L 29.96,523.68 L 30.70,524.20 L 31.22,524.52 L 31.36,524.61 L 31.31,524.09 L 31.33,520.34 L 31.31,520.20 L 31.31,520.07 L 32.07,519.56 L 32.47,519.34 L 32.61,519.34 L 32.92,519.93 L 33.15,520.43 L 34.27,520.70 L 35.07,520.90 L 34.88,521.36 L 34.64,521.86 L 34.24,522.68 L 34.07,523.11 L 33.89,523.43 L 33.84,525.95 L 33.81,527.18 L 33.89,527.74 L 32.94,527.40 L 31.42,526.95 L 31.07,527.31 L 26.77,532.87 L 25.89,534.20 L 26.96,533.99 L 28.73,533.63 L 30.65,533.26 L 34.55,532.61 L 34.66,532.56 L 34.83,533.13 L 34.92,534.03 L 34.78,534.44 L 34.55,535.08 L 34.28,535.69 L 34.14,536.06 L 34.17,536.49 L 35.07,541.14 L 35.63,540.53 L 36.39,539.75 L 37.01,539.05 L 38.05,537.99 L 38.66,537.05 L 39.25,536.50 L 39.67,536.05 L 39.95,535.83 L 40.03,535.76 L 40.27,536.20 L 40.58,537.03 L 40.91,537.65 L 41.12,537.98 L 41.43,538.35 L 41.67,538.98 L 41.62,539.42 L 41.36,539.77 L 40.99,540.07 L 40.71,540.30 L 40.60,540.40 L 40.86,540.62 L 41.41,541.12 L 41.77,541.74 L 42.01,542.24 L 42.47,542.89 L 42.65,543.27 L 42.91,543.74 L 43.12,544.06 L 43.22,544.19 L 43.51,544.04 L 43.88,543.64 L 44.34,543.04 L 44.86,542.34 L 45.38,541.87 L 45.90,541.37 L 46.52,540.90 L 46.94,540.47 L 47.41,540.12 L 47.98,539.75 L 48.18,538.93 L 48.47,538.38 L 48.83,537.68 L 49.33,536.90 L 49.64,536.33 L 50.13,535.76 L 50.70,535.16 L 51.02,535.03 L 51.54,534.84 L 52.14,534.68 L 52.87,534.49 L 53.52,534.58 L 54.11,534.66 L 54.61,534.86 L 55.07,535.03 L 55.65,535.41 L 56.16,535.76 L 56.55,536.16 L 57.00,536.43 L 57.70,536.98 L 57.98,537.01 L 58.47,536.93 L 58.97,536.83 L 59.59,536.66 L 60.06,536.41 L 60.47,536.21 L 60.63,536.13 L 60.79,536.11 L 60.73,536.98 L 60.53,538.36 L 60.47,539.18 L 60.27,539.68 L 58.99,539.70 L 58.09,539.72 L 56.90,539.60 L 55.99,539.50 L 55.08,539.42 L 54.75,539.52 L 54.12,539.85 L 53.32,540.34 L 52.77,540.67 L 52.30,540.92 L 51.47,541.34 L 51.35,541.47 L 51.42,541.74 L 51.71,542.17 L 52.12,542.74 L 52.61,543.13 L 53.25,543.46 L 53.88,543.81 L 54.71,544.31 L 55.49,544.78 L 56.08,545.05 L 56.63,545.35 L 57.30,545.78 L 57.95,546.13 L 58.58,546.43 L 58.86,546.58 L 59.04,546.83 L 59.04,547.07 L 59.07,547.75 L 58.94,548.57 L 58.86,548.75 L 58.55,548.97 L 57.39,549.41 L 56.69,549.66 L 55.86,549.99 L 54.98,550.31 L 54.44,550.56 L 53.47,550.96 L 52.28,551.46 L 51.79,551.68 L 51.37,551.75 L 51.22,551.91 L 51.29,551.98 L 51.53,552.13 L 51.99,552.20 L 53.40,552.30 L 54.17,552.35 L 55.15,552.31 L 55.85,552.18 L 56.58,551.91 L 57.07,551.86 L 57.33,551.83 L 57.67,551.93 L 58.06,552.18 L 58.39,552.68 L 58.65,553.11 L 58.94,553.50 L 59.35,553.95 L 59.72,554.48 L 60.16,554.90 L 60.52,555.30 L 60.83,555.58 L 61.12,555.78 L 61.14,555.60 L 61.14,555.20 L 60.96,554.58 L 60.91,553.93 L 61.04,553.48 L 61.20,553.13 L 61.41,552.83 L 61.72,552.58 L 61.92,552.26 L 62.03,551.96 L 62.21,551.48 L 62.32,551.11 L 62.55,550.63 L 62.63,550.04 L 62.89,549.51 L 63.30,548.84 L 63.56,548.51 L 63.79,548.26 L 64.18,547.91 L 64.57,547.56 L 65.09,547.31 L 65.43,547.14 L 65.84,546.91 L 66.15,546.94 L 66.52,547.07 L 66.88,547.66 L 67.12,548.21 L 67.43,548.64 L 67.61,548.96 L 67.74,549.29 L 67.14,549.64 L 66.52,549.86 L 66.03,550.04 L 65.43,550.33 L 64.75,550.58 L 64.18,550.91 L 63.82,551.06 L 63.43,551.38 L 63.27,551.48 L 63.74,551.86 L 64.21,551.98 L 64.52,552.08 L 64.86,552.36 L 65.30,552.78 L 65.53,553.47 L 65.82,554.05 L 66.07,554.55 L 66.46,555.17 L 66.78,555.52 L 67.35,555.62 L 68.56,555.79 L 69.15,555.74 L 69.75,555.72 L 70.04,555.49 L 70.40,554.97 L 70.71,554.57 L 71.00,554.27 L 71.13,554.07 L 71.21,553.94 L 71.41,554.54 L 71.62,555.37 L 71.75,556.02 L 71.98,556.86 L 72.40,557.16 L 73.09,557.43 L 73.85,557.78 L 74.65,558.03 L 74.72,558.05 L 75.35,558.26 L 76.13,558.48 L 76.88,558.68 L 77.63,558.81 L 78.57,559.13 L 79.12,559.36 L 79.22,559.41 L 79.30,559.93 L 79.24,560.40 L 79.30,560.53 L 80.15,560.78 L 80.67,560.88 L 80.83,560.93 L 81.01,560.66 L 81.24,560.21 L 81.35,559.96 L 81.48,559.68 L 81.66,559.48 L 82.10,559.41 L 82.92,559.39 L 83.51,559.31 L 84.50,559.24 L 85.36,559.11 L 86.14,559.04 L 86.47,558.94 L 86.81,558.94 L 86.91,558.94 L 86.94,559.39 L 86.81,559.94 L 86.86,560.64 L 86.86,561.16 L 87.07,561.87 L 87.17,562.40 L 87.51,562.97 L 87.82,563.47 L 87.98,563.77 L 87.82,564.27 L 87.53,564.97 L 87.33,565.44 L 87.28,565.72 L 87.79,566.04 L 88.37,566.34 L 88.99,566.72 L 89.43,567.04 L 89.74,567.14 L 90.05,567.14 L 90.44,566.92 L 91.21,566.24 L 91.62,565.87 L 92.25,565.52 L 93.08,565.32 L 93.67,565.22 L 94.50,565.02 L 95.18,564.72 L 95.90,564.55 L 96.53,564.42 L 97.36,564.32 L 98.11,564.30 L 98.89,564.40 L 99.49,564.47 L 99.90,564.55 L 100.11,564.32 L 100.37,564.07 L 100.58,563.85 L 100.73,563.70 L 101.07,563.50 L 101.36,563.53 L 101.64,563.63 L 101.98,563.90 L 102.42,564.27 L 102.63,564.55 L 102.84,564.67 L 103.04,564.70 L 103.30,564.70 L 103.59,564.48 L 103.99,564.25 L 104.62,564.00 L 105.65,563.55 L 106.56,563.08 L 107.11,562.91 L 107.32,562.78 L 107.65,562.76 L 108.22,562.83 L 109.11,562.96 L 109.96,563.13 L 110.51,563.11 L 111.00,562.98 L 111.34,562.56 L 111.70,562.02 L 111.98,561.64 L 112.50,561.12 L 112.87,560.82 L 113.31,560.54 L 113.65,560.37 L 114.48,560.25 L 115.62,560.15 L 116.50,560.00 L 116.97,559.95 L 117.31,559.67 L 117.96,559.15 L 119.80,557.98 L 118.36,552.04 L 117.59,549.70 L 117.33,548.20 L 117.09,547.20 L 117.04,546.78 L 117.30,546.53 L 118.18,546.08 L 119.25,545.53 L 120.18,545.31 L 121.17,545.13 L 121.66,544.98 L 122.29,544.96 L 123.06,544.81 L 123.64,544.59 L 124.16,544.54 L 124.05,544.11 L 123.09,542.36 L 122.68,541.28 L 122.47,540.13 L 122.19,538.71 L 121.93,538.26 L 121.64,537.84 L 121.28,537.49 L 120.73,537.26 L 120.16,537.11 L 119.80,537.04 L 119.38,537.19 L 119.04,537.41 L 118.66,537.88 L 118.43,538.33 L 118.19,538.70 L 117.67,539.18 L 117.44,539.00 L 117.26,538.90 L 117.26,538.78 L 117.31,538.53 L 117.44,538.18 L 117.47,537.95 L 117.52,537.65 L 117.44,537.46 L 117.10,537.16 L 116.84,536.86 L 116.43,536.51 L 116.01,536.18 L 115.81,536.01 L 115.60,535.83 L 115.36,535.73 L 115.16,535.76 L 114.82,536.03 L 114.56,536.43 L 114.35,536.75 L 113.68,537.80 L 113.08,538.58 L 112.98,538.70 L 112.07,538.65 L 110.48,538.28 L 109.94,538.20 L 109.68,538.01 L 109.73,537.75 L 109.86,537.68 L 110.28,537.48 L 110.79,537.28 L 111.29,537.05 L 111.73,536.95 L 112.09,536.86 L 112.30,536.75 L 112.43,536.63 L 111.19,535.32 L 110.64,534.80 L 110.25,534.25 L 110.17,534.00 L 110.20,533.70 L 110.54,533.35 L 111.78,532.73 L 112.28,532.30 L 112.62,531.85 L 113.01,531.53 L 113.13,531.38 L 113.37,531.23 L 113.68,531.18 L 114.33,531.23 L 114.80,531.36 L 115.52,531.55 L 116.28,531.86 L 116.74,532.10 L 117.37,532.38 L 117.78,532.63 L 118.25,532.73 L 118.74,532.28 L 119.11,532.00 L 119.44,531.66 L 119.73,531.33 L 119.96,531.11 L 119.78,530.14 L 119.57,529.51 L 119.57,529.36 L 119.58,529.35 L 120.57,528.62 L 121.07,528.24 L 121.38,527.87 L 121.66,527.67 L 121.87,527.57 L 122.42,527.62 L 122.96,527.67 L 123.61,527.74 L 124.13,527.79 L 124.57,527.82 L 124.68,527.82 L 124.81,528.37 L 124.78,528.99 L 124.88,529.62 L 124.96,530.27 L 125.07,530.86 L 125.09,531.26 L 126.13,531.34 L 127.84,531.32 L 128.33,531.09 L 128.78,530.74 L 129.27,530.29 L 129.74,529.77 L 130.18,529.24 L 130.62,528.82 L 130.85,528.57 L 130.96,528.47 L 131.14,528.52 L 131.24,528.80 L 131.40,529.39 L 131.70,530.81 L 131.75,531.23 L 131.88,531.73 L 131.88,532.01 L 132.50,532.08 L 133.49,532.03 L 134.21,532.08 L 135.33,532.13 L 135.82,532.23 L 136.39,532.48 L 136.83,532.78 L 137.35,533.03 L 137.69,533.28 L 137.92,533.63 L 138.03,533.98 L 137.74,534.43 L 137.07,534.85 L 136.99,534.90 L 138.74,535.47 L 140.14,535.82 L 141.34,536.07 L 142.92,536.52 L 144.53,536.87 L 146.06,537.27 L 147.28,537.52 L 148.40,537.85 L 149.40,538.05 L 150.34,538.35 L 151.14,538.50 L 151.74,538.55 L 152.10,538.50 L 152.39,538.35 L 152.57,537.92 L 152.68,537.57 L 153.06,537.10 L 153.37,536.81 L 153.89,536.12 L 154.57,535.29 L 155.03,534.77 L 155.89,533.50 L 156.18,532.85 L 156.49,531.70 L 156.34,530.80 L 156.39,529.73 L 156.62,529.03 L 157.04,528.38 L 157.45,527.88 L 158.32,527.29 L 158.90,526.89 L 159.57,526.57 L 160.14,526.44 L 160.56,526.32 L 161.78,526.10 L 161.82,526.10 L 162.40,526.10 L 162.90,526.07 L 163.57,526.12 L 163.57,526.05 L 164.17,526.05 L 164.43,525.90 L 164.66,525.50 L 164.89,525.12 L 165.10,524.95 L 165.41,524.80 L 166.09,524.72 L 167.17,524.63 L 168.29,524.58 L 169.46,524.48 L 170.81,524.38 L 172.23,524.26 L 174.03,524.11 L 175.47,523.62 L 176.00,523.48 L 176.27,523.39 L 176.58,523.31 L 176.75,523.26 L 176.99,523.20 L 177.23,523.11 L 177.56,523.00 L 178.00,522.86 L 178.26,522.79 L 178.55,522.71 L 178.74,522.65 L 179.04,522.57 L 179.31,522.50 L 179.57,522.42 L 179.79,522.35 L 180.04,522.28 L 180.24,522.19 L 180.51,522.11 L 180.86,522.01 L 181.15,521.93 L 181.43,521.87 L 181.69,521.81 L 181.83,521.75 L 182.14,521.67 L 182.39,521.59 L 182.69,521.51 L 182.95,521.45 L 183.27,521.37 L 183.51,521.31 L 183.77,521.23 L 183.96,521.18 L 184.24,521.07 L 184.58,520.98 L 184.92,520.86 L 185.10,520.82 L 185.49,520.73 L 185.63,520.68 L 186.02,520.55 L 186.22,520.50 L 186.41,520.42 L 186.82,520.28 L 187.00,519.82 L 187.08,519.52 L 187.32,518.78 L 187.42,518.31 L 187.53,517.97 L 187.61,517.74 L 187.71,517.37 L 187.76,517.23 L 187.83,516.97 L 187.89,516.79 L 188.21,516.10 L 188.83,514.09 L 190.24,509.40 L 190.42,508.81 L 191.48,505.31 L 191.93,503.80 L 192.54,502.00 L 193.33,502.59 L 195.05,503.31 L 195.87,503.63 L 196.78,503.72 L 197.23,503.71 L 197.33,503.71 L 197.68,503.71 L 197.96,503.71 L 198.46,503.75 L 198.82,503.75 L 199.30,503.78 L 199.52,503.79 L 199.84,503.81 L 199.99,503.81 L 200.43,503.82 L 200.91,503.84 L 201.34,503.84 L 201.50,503.85 L 202.11,503.90 L 202.55,503.92 L 202.65,503.92 L 202.99,503.94 L 203.18,503.95 L 203.54,503.97 L 203.92,503.99 L 204.05,504.00 L 204.24,504.02 L 204.60,504.03 L 204.83,504.05 L 205.15,504.06 L 205.39,504.07 L 205.72,504.07 L 206.07,504.08 L 206.29,504.10 L 206.54,504.10 L 207.10,504.13 L 207.44,504.14 L 207.98,504.18 L 208.50,504.22 L 208.53,504.22 L 209.08,504.22 L 209.40,504.23 L 209.59,504.25 L 210.14,504.27 L 210.30,504.28 L 210.64,504.28 L 211.05,504.31 L 211.22,504.32 L 211.39,504.32 L 211.73,504.33 L 212.18,504.36 L 212.32,504.36 L 212.53,504.36 L 213.06,504.35 L 213.40,504.32 L 213.57,504.31 L 213.94,504.27 L 214.15,504.26 L 214.52,504.22 L 215.00,504.18 L 215.26,504.18 L 215.59,504.13 L 215.75,504.12 L 216.08,504.09 L 216.27,504.10 L 216.62,504.07 L 216.83,504.06 L 217.18,504.03 L 217.38,504.03 L 217.74,503.98 L 217.93,503.98 L 218.26,503.94 L 218.45,503.92 L 218.80,503.90 L 219.04,503.88 L 219.32,503.85 L 219.57,503.82 L 219.91,503.79 L 220.11,503.77 L 220.41,503.77 L 220.60,503.77 L 220.93,503.72 L 221.34,503.69 L 221.76,503.66 L 222.10,503.65 L 222.31,503.63 L 222.60,503.64 L 222.89,503.64 L 223.30,503.64 L 223.47,503.65 L 223.79,503.65 L 224.06,503.65 L 224.36,503.66 L 225.11,503.66 L 225.47,503.66 L 226.13,503.66 L 226.46,503.67 L 226.98,503.67 L 227.21,503.71 L 227.54,503.70 L 227.99,503.70 L 228.18,503.70 L 228.55,503.69 L 228.74,503.70 L 229.11,503.72 L 229.31,503.73 L 229.67,503.72 L 229.88,503.72 L 230.19,503.72 L 230.37,503.70 L 230.73,503.72 L 230.91,503.73 L 231.25,503.74 L 231.46,503.76 L 231.78,503.76 L 232.38,503.77 L 232.55,503.76 L 232.90,503.74 L 233.02,503.73 L 233.31,503.69 L 233.60,503.63 L 234.51,503.46 L 234.95,503.37 L 235.15,503.33 L 235.50,503.27 L 235.73,503.25 L 236.11,503.18 L 236.39,503.23 L 236.77,503.26 L 237.39,503.30 L 237.58,503.32 L 237.91,503.38 L 238.09,503.40 L 238.37,503.45 L 239.53,503.53 L 240.10,503.57 L 240.65,503.60 L 240.77,503.63 L 241.15,503.69 L 241.35,503.72 L 241.67,503.75 L 242.20,503.83 L 242.42,503.84 L 242.81,503.89 L 242.95,503.90 L 243.35,503.95 L 243.94,503.98 L 244.09,503.99 L 244.49,504.02 L 244.58,504.05 L 244.99,504.09 L 245.50,504.12 L 245.73,504.15 L 246.08,504.19 L 246.22,504.23 L 246.59,504.26 L 246.73,504.28 L 247.13,504.31 L 247.32,504.32 L 247.72,504.36 L 247.83,504.38 L 248.28,504.42 L 248.98,504.47 L 249.29,504.51 L 249.76,504.53 L 249.87,504.54 L 250.34,504.56 L 250.46,504.58 L 250.83,504.63 L 251.02,504.66 L 251.42,504.71 L 252.09,504.76 L 252.44,504.79 L 252.57,504.82 L 252.99,504.85 L 253.20,504.87 L 253.57,504.90 L 253.69,504.91 L 254.04,504.93 L 254.35,504.94 L 254.67,504.97 L 254.89,504.97 L 255.15,505.02 L 255.37,505.03 L 255.69,505.07 L 255.92,505.10 L 256.21,505.16 L 256.41,505.16 L 256.77,505.24 L 257.46,505.40 L 258.75,505.71 L 259.86,505.87 L 260.55,506.00 L 261.36,506.17 L 261.86,506.32 L 262.20,506.44 L 262.38,506.22 L 262.71,506.01 L 262.86,505.89 L 263.10,505.69 L 263.19,505.54 L 263.40,505.27 L 263.38,504.92 L 263.35,504.65 L 263.27,503.87 L 263.24,503.35 L 263.26,502.61 L 263.25,502.04 L 263.26,501.60 L 263.49,501.29 L 263.51,501.15 L 263.54,500.95 L 263.46,500.76 L 263.15,500.47 L 262.84,500.24 L 262.47,499.99 L 262.17,499.76 L 262.09,499.62 L 262.00,499.35 L 261.94,499.08 L 261.91,498.94 L 261.82,498.63 L 261.73,498.33 L 261.38,497.58 L 261.31,497.28 L 260.76,496.06 L 260.58,495.75 L 260.38,495.29 L 260.25,494.99 L 260.12,494.62 L 260.00,494.30 L 260.00,493.83 L 259.98,493.71 L 260.02,493.27 L 260.03,492.72 L 260.03,492.57 L 260.12,492.20 L 260.18,492.03 L 260.28,491.68 L 260.36,491.49 L 260.69,491.20 L 260.77,491.07 L 260.88,490.70 L 260.84,490.55 L 260.74,490.12 L 260.68,489.90 L 260.54,489.39 L 260.48,489.19 L 260.37,488.81 L 260.22,488.26 L 260.18,487.73 L 260.16,487.57 L 260.16,487.17 L 260.18,486.96 L 260.18,486.60 L 260.46,486.44 L 260.80,486.25 L 260.92,486.14 L 261.19,485.92 L 261.34,485.80 L 262.07,485.31 L 262.22,485.13 L 262.57,484.72 L 262.50,484.36 L 262.47,484.06 L 262.43,483.86 L 262.50,483.53 L 262.51,483.45 L 262.64,483.09 L 262.73,482.79 L 262.82,482.49 L 262.85,482.38 L 263.00,482.09 L 263.08,481.90 L 263.24,481.63 L 263.33,481.49 L 263.46,481.26 L 263.58,480.94 L 263.73,480.49 L 263.84,480.19 L 263.87,480.02 L 263.94,479.67 L 264.00,479.44 L 264.04,479.07 L 264.11,478.90 L 264.11,478.84 L 264.17,478.72 L 264.17,478.72 L 264.95,478.73 L 265.77,478.75 L 266.42,478.74 L 266.55,478.76 L 266.99,478.80 L 267.49,478.78 L 268.30,478.78 L 268.97,478.79 L 269.16,478.75 L 269.42,478.69 L 269.94,478.67 L 270.26,478.67 L 270.73,478.77 L 271.02,478.80 L 271.25,478.80 L 271.55,478.67 L 271.70,478.59 L 272.04,478.37 L 272.13,478.25 L 272.45,477.88 L 272.84,477.45 L 273.09,477.07 L 273.26,476.89 L 273.49,476.62 L 273.63,476.43 L 273.88,476.11 L 273.98,476.00 L 274.20,475.65 L 274.28,475.50 L 274.49,475.28 L 274.81,475.30 L 274.90,475.31 L 275.38,475.40 L 275.53,475.46 L 275.99,475.60 L 276.24,475.66 L 276.70,475.75 L 276.86,475.78 L 277.27,475.61 L 277.41,475.54 L 277.78,475.37 L 277.90,475.35 L 278.26,475.20 L 278.34,475.13 L 278.58,474.95 L 278.70,474.80 L 278.92,474.57 L 279.20,474.24 L 279.32,474.12 L 279.39,474.39 L 279.42,474.58 L 279.38,474.85 L 279.37,475.14 L 279.48,475.45 L 279.58,475.60 L 279.69,475.71 L 279.80,475.75 L 279.94,475.79 L 280.04,475.84 L 280.41,475.92 L 280.59,475.96 L 280.76,476.04 L 280.78,476.18 L 280.78,476.36 L 280.87,476.80 L 280.88,476.92 L 280.92,477.00 L 281.01,477.32 L 281.06,477.55 L 281.15,478.03 L 281.22,478.38 L 281.26,478.89 L 281.49,478.74 L 281.73,478.60 L 282.11,478.33 L 282.66,477.97 L 283.02,477.74 L 283.37,477.54 L 283.68,477.38 L 283.86,477.39 L 284.12,477.49 L 284.54,477.68 L 284.79,477.80 L 285.15,477.93 L 285.53,478.08 L 285.83,478.26 L 286.04,478.41 L 286.06,478.52 L 286.03,478.82 L 285.84,479.12 L 285.47,479.50 L 285.13,479.81 L 284.83,480.17 L 284.70,480.54 L 284.66,480.91 L 284.73,481.07 L 284.95,481.38 L 285.19,481.82 L 285.64,482.29 L 286.15,482.64 L 286.51,482.82 L 286.62,482.90 L 286.99,483.07 L 287.24,483.23 L 287.58,483.36 L 287.83,483.41 L 288.12,483.47 L 288.50,483.53 L 288.91,483.55 L 289.32,483.57 L 289.67,483.55 L 289.99,483.50 L 290.71,483.27 L 290.91,483.25 L 291.31,483.14 L 291.54,483.05 L 292.43,482.87 L 292.93,482.77 L 293.65,483.05 L 294.26,483.28 L 295.02,483.52 L 295.89,483.79 L 296.14,483.86 L 296.76,483.97 L 296.95,484.04 L 297.48,484.11 L 298.62,484.31 L 298.40,483.45 L 298.34,483.21 L 298.39,483.18 L 298.55,483.26 L 298.84,483.45 L 298.92,483.47 L 299.16,483.63 L 299.66,483.88 L 299.77,483.95 L 300.11,484.11 L 300.41,484.25 L 300.70,484.38 L 300.89,484.47 L 301.04,484.55 L 301.26,484.70 L 301.50,484.88 L 301.70,485.08 L 301.89,485.31 L 302.07,485.46 L 302.26,485.67 L 302.45,485.86 L 302.66,486.02 L 302.97,486.25 L 303.45,485.78 L 303.59,485.62 L 303.80,485.37 L 303.98,485.07 L 304.15,484.84 L 304.30,484.61 L 304.42,484.44 L 304.55,484.22 L 304.69,484.08 L 304.88,483.85 L 305.01,483.77 L 305.13,483.71 L 305.34,483.72 L 305.64,483.76 L 305.97,483.75 L 306.31,483.77 L 306.57,483.76 L 306.90,483.82 L 307.14,483.73 L 307.51,483.76 L 307.75,483.79 L 308.15,483.85 L 308.35,483.88 L 308.69,483.93 L 308.92,483.95 L 309.24,484.00 L 309.43,484.05 L 309.86,484.08 L 310.10,484.10 L 310.48,484.13 L 310.64,484.05 L 311.01,484.02 L 311.20,483.95 L 311.54,483.83 L 311.68,483.71 L 312.10,483.55 L 312.40,483.46 L 312.57,483.36 L 312.70,483.32 L 312.88,483.32 L 313.06,483.29 L 313.21,483.26 L 313.61,482.98 L 314.18,482.49 L 314.64,482.40 L 315.23,482.39 L 315.66,482.43 L 316.46,482.53 L 316.70,482.54 L 317.41,482.56 L 317.99,482.79 L 318.94,483.31 L 319.04,483.37 L 319.90,483.87 L 320.36,484.12 L 321.31,484.59 L 322.05,485.03 L 322.70,485.35 L 323.63,485.84 L 323.99,485.95 L 324.60,485.44 L 324.93,485.13 L 325.35,484.97 L 325.69,484.88 L 326.27,484.74 L 326.73,484.57 L 327.41,484.34 L 327.99,484.19 L 328.26,484.08 L 328.91,483.85 L 329.25,483.76 L 330.37,483.33 L 331.45,482.92 L 332.29,482.61 L 332.46,482.52 L 332.82,482.43 L 333.37,482.22 L 333.71,482.09 L 334.36,482.18 L 334.81,482.28 L 335.39,482.38 L 336.47,482.61 L 336.91,482.73 L 337.50,482.80 L 338.56,482.99 L 339.71,483.23 L 341.04,483.50 L 342.20,483.72 L 343.31,483.90 L 344.35,484.12 L 345.45,484.35 L 346.51,484.58 L 347.89,484.83 L 349.33,485.15 L 350.54,485.40 L 351.91,485.67 L 353.13,485.89 L 354.28,486.06 L 355.57,486.21 L 356.65,486.24 L 357.80,486.19 L 358.94,486.27 L 359.62,486.30 L 360.64,486.29 L 361.11,486.33 L 362.22,486.41 L 362.70,486.49 L 363.23,486.53 L 363.80,486.67 L 364.33,486.78 L 365.34,486.93 L 365.86,486.94 L 366.39,486.85 L 367.06,486.72 L 367.45,486.70 L 368.12,486.65 L 368.67,486.62 L 369.07,486.64 L 369.40,486.67 L 369.95,486.95 L 370.98,487.97 L 371.43,488.41 L 371.62,488.70 L 371.87,489.02 L 372.60,490.11 L 372.90,490.58 L 373.31,490.82 L 373.78,490.95 L 373.83,490.20 L 373.91,489.73 L 374.01,489.29 L 374.36,488.41 L 374.64,487.89 L 374.77,487.42 L 374.87,486.76 L 374.92,486.48 L 375.22,485.94 L 375.72,485.44 L 376.40,484.75 L 376.68,484.37 L 377.13,483.99 L 377.43,483.54 L 377.76,483.13 L 378.43,482.32 L 378.73,481.90 L 379.43,481.00 L 380.07,480.27 L 380.46,479.89 L 381.36,479.08 L 381.66,478.82 L 382.00,478.44 L 382.44,478.12 L 382.93,477.77 L 383.22,477.52 L 383.68,477.02 L 383.90,476.79 L 384.13,476.29 L 384.23,475.72 L 384.28,475.16 L 384.39,474.51 L 384.52,474.26 L 384.67,473.61 L 384.94,473.00 L 385.23,472.40 L 385.49,471.92 L 385.54,471.82 L 385.32,471.39 L 385.09,471.07 L 384.91,470.75 L 384.76,470.56 L 384.61,470.22 L 384.56,470.01 L 384.56,469.82 L 385.07,469.13 L 385.48,468.72 L 386.01,468.15 L 386.52,467.72 L 387.26,467.17 L 387.59,466.90 L 387.67,466.77 L 387.82,466.46 L 387.90,466.06 L 387.79,465.83 L 387.74,465.49 L 387.52,464.98 L 387.29,464.53 L 387.17,464.07 L 387.16,463.65 L 387.29,463.08 L 387.45,462.57 L 387.51,461.76 L 387.29,461.19 L 387.27,460.56 L 387.29,459.94 L 387.69,459.40 L 388.01,458.98 L 388.62,458.74 L 389.21,458.53 L 389.45,458.37 L 389.58,458.24 L 389.87,457.93 L 389.91,457.66 L 389.88,457.43 L 389.82,456.95 L 389.69,456.51 L 389.39,455.94 L 389.09,455.42 L 389.05,455.34 L 389.76,455.16 L 390.09,455.09 L 390.58,454.94 L 390.85,454.84 L 390.99,454.81 L 391.30,454.68 L 391.58,454.51 L 391.87,454.37 L 392.26,454.26 L 393.77,453.72 L 394.09,453.55 L 395.09,453.27 L 396.51,452.80 L 396.91,452.66 L 397.53,452.51 L 398.93,452.48 L 399.81,452.45 L 400.40,452.43 L 400.88,452.41 L 401.68,452.53 L 401.22,454.05 L 401.06,454.63 L 400.97,455.07 L 400.90,455.76 L 400.84,456.37 L 400.83,456.44 L 400.85,457.87 L 400.93,458.44 L 401.03,460.09 L 401.03,460.16 L 401.46,460.38 L 402.01,460.54 L 402.98,460.82 L 403.52,460.94 L 404.40,461.25 L 404.73,461.28 L 405.40,461.39 L 405.67,461.50 L 406.04,461.57 L 406.48,461.66 L 407.27,461.82 L 407.84,461.99 L 408.25,462.12 L 409.06,462.29 L 409.62,462.47 L 410.32,462.60 L 410.98,462.77 L 411.47,462.83 L 411.70,462.90 L 411.99,462.94 L 412.19,463.01 L 412.47,463.07 L 413.36,463.26 L 413.63,463.34 L 413.80,463.47 L 414.42,464.01 L 415.01,464.69 L 415.31,465.05 L 415.90,465.75 L 416.76,466.67 L 417.12,467.11 L 417.37,467.50 L 417.66,467.61 L 417.97,467.69 L 418.62,467.75 L 419.11,467.81 L 419.64,467.95 L 420.08,468.06 L 420.99,468.30 L 421.40,468.43 L 421.68,468.52 L 422.17,468.90 L 422.34,469.08 L 422.89,469.46 L 424.02,470.17 L 424.45,470.62 L 424.84,470.96 L 425.24,471.46 L 425.45,471.52 L 425.76,471.30 L 426.56,471.01 L 427.20,470.76 L 427.59,470.66 L 428.97,470.20 L 429.54,470.00 L 429.79,469.91 L 430.12,469.85 L 431.08,469.70 L 432.23,469.59 L 432.79,469.49 L 434.38,469.22 L 435.27,469.07 L 435.90,468.94 L 436.98,468.89 L 437.41,468.81 L 438.04,468.74 L 440.80,468.27 L 441.47,468.06 L 442.34,467.80 L 443.06,467.50 L 444.80,467.02 L 445.25,466.98 L 445.82,467.01 L 446.83,467.15 L 447.77,467.41 L 448.16,467.58 L 448.62,467.77 L 448.31,468.88 L 448.26,469.59 L 448.23,469.98 L 447.99,470.70 L 447.76,471.09 L 447.52,471.39 L 446.90,472.00 L 446.52,472.48 L 446.35,472.77 L 446.16,473.18 L 445.75,473.85 L 445.45,474.30 L 445.37,474.51 L 445.36,474.67 L 445.21,475.12 L 445.17,475.35 L 445.05,475.71 L 445.00,476.06 L 444.90,476.24 L 444.67,476.71 L 444.57,476.97 L 444.48,477.28 L 444.45,477.57 L 444.48,477.81 L 444.51,477.95 L 444.46,478.31 L 444.42,478.40 L 444.39,478.49 L 444.27,478.61 L 444.14,478.68 L 443.87,478.79 L 443.76,478.92 L 443.66,479.40 L 443.56,479.89 L 443.45,480.25 L 443.33,480.45 L 443.15,480.68 L 442.75,481.03 L 442.44,481.28 L 442.05,481.61 L 441.89,481.87 L 441.82,482.08 L 441.79,482.29 L 441.72,482.59 L 441.62,482.73 L 441.45,482.89 L 441.31,483.11 L 441.13,483.61 L 441.02,483.88 L 440.84,484.24 L 440.69,484.44 L 440.44,484.76 L 440.21,484.98 L 439.76,485.39 L 439.51,485.66 L 439.38,485.91 L 439.37,486.04 L 439.40,486.18 L 439.59,486.55 L 439.67,486.82 L 439.68,487.13 L 439.65,487.42 L 439.57,487.63 L 439.37,487.84 L 439.28,487.96 L 439.28,488.19 L 439.33,488.40 L 439.48,488.61 L 439.70,488.79 L 440.10,489.04 L 440.24,489.19 L 440.34,489.42 L 440.37,489.59 L 440.34,489.76 L 440.23,489.97 L 440.07,490.17 L 439.91,490.38 L 439.85,490.50 L 439.79,490.66 L 439.75,490.90 L 439.77,490.99 L 439.81,491.05 L 440.13,491.34 L 440.27,491.53 L 440.30,491.68 L 440.26,492.05 L 440.05,492.53 L 439.91,492.77 L 439.82,493.03 L 439.86,493.20 L 439.88,493.39 L 439.86,493.82 L 439.83,494.05 L 439.72,494.43 L 439.59,494.66 L 439.42,494.96 L 439.38,495.10 L 439.35,495.33 L 439.41,495.54 L 439.49,495.73 L 439.61,496.17 L 439.64,496.68 L 439.73,496.94 L 439.81,497.26 L 439.89,497.50 L 440.01,497.74 L 440.12,498.02 L 440.15,498.24 L 440.13,498.50 L 440.05,498.79 L 439.99,498.92 L 439.76,499.28 L 439.62,499.52 L 439.56,499.73 L 439.47,499.96 L 439.37,500.22 L 439.21,500.53 L 439.04,500.73 L 439.07,501.08 L 439.37,502.00 L 440.06,503.14 L 440.63,503.98 L 441.11,504.83 L 441.11,505.48 L 441.01,506.47 L 440.89,506.96 L 440.71,508.13 L 440.59,508.98 L 440.57,509.05 L 440.44,509.90 L 440.34,510.37 L 440.22,510.63 L 440.04,510.86 L 439.95,511.04 L 439.62,511.49 L 439.36,511.86 L 439.24,512.09 L 439.16,512.37 L 439.05,512.59 L 439.17,513.10 L 439.10,513.32 L 438.91,513.62 L 438.48,513.89 L 438.09,514.03 L 437.87,514.05 L 437.55,514.06 L 437.34,514.10 L 436.42,514.11 L 436.07,514.19 L 435.89,514.28 L 435.40,514.56 L 434.98,514.92 L 434.63,515.30 L 434.29,515.73 L 433.37,516.63 L 433.09,516.69 L 432.58,516.74 L 432.09,516.81 L 431.91,516.88 L 431.44,517.03 L 430.88,517.16 L 430.49,517.19 L 430.04,517.19 L 429.57,517.15 L 429.24,517.00 L 428.91,516.74 L 428.54,516.37 L 427.98,515.94 L 427.59,515.89 L 426.97,516.00 L 426.55,516.20 L 426.11,516.56 L 425.78,517.02 L 425.54,517.49 L 425.21,517.89 L 424.92,518.26 L 424.71,518.39 L 424.44,518.44 L 424.32,518.50 L 423.69,518.69 L 423.11,518.72 L 422.63,518.92 L 422.29,519.19 L 421.90,519.62 L 421.60,520.02 L 421.26,520.55 L 420.99,520.74 L 420.81,520.81 L 420.47,520.83 L 419.78,520.87 L 419.23,520.85 L 418.70,520.88 L 418.27,521.12 L 417.78,521.50 L 417.57,521.82 L 417.35,522.19 L 417.05,522.64 L 416.74,523.03 L 416.51,523.42 L 416.42,523.59 L 416.41,523.97 L 416.34,524.46 L 416.34,524.92 L 416.29,524.99 L 415.82,525.32 L 414.99,525.73 L 414.52,526.07 L 414.15,526.40 L 413.99,526.62 L 414.19,527.47 L 414.33,528.03 L 414.08,528.32 L 413.65,528.74 L 413.35,528.96 L 413.08,529.32 L 412.65,529.72 L 412.03,530.35 L 412.44,531.76 L 412.83,533.05 L 413.66,534.32 L 415.26,536.94 L 415.67,537.73 L 415.97,538.32 L 416.01,538.41 L 416.49,539.36 L 417.29,540.81 L 417.60,541.26 L 418.06,541.76 L 418.46,542.28 L 418.63,542.74 L 418.56,543.61 L 418.70,544.00 L 418.99,544.49 L 419.67,545.38 L 420.07,546.36 L 420.52,547.32 L 420.66,547.65 L 421.20,548.62 L 421.78,548.66 L 422.31,548.72 L 422.82,548.80 L 423.38,548.87 L 423.91,548.98 L 424.50,549.06 L 425.01,549.18 L 426.07,549.37 L 426.49,549.47 L 427.00,549.67 L 427.45,549.84 L 427.97,550.03 L 428.37,550.27 L 428.87,550.51 L 429.37,550.75 L 429.88,550.91 L 430.26,550.94 L 430.88,551.02 L 431.48,551.11 L 432.01,551.16 L 432.47,551.11 L 433.04,551.23 L 433.52,551.38 L 434.15,551.45 L 434.67,551.56 L 435.14,551.61 L 435.64,551.72 L 436.30,551.80 L 436.76,551.89 L 438.38,552.10 L 438.77,552.17 L 439.35,552.26 L 439.94,552.34 L 440.55,552.43 L 440.95,552.47 L 441.59,552.55 L 442.61,552.71 L 443.03,552.75 L 443.56,552.86 L 444.12,552.95 L 444.68,552.89 L 445.14,552.78 L 445.66,552.69 L 446.24,552.59 L 446.80,552.57 L 447.31,552.49 L 447.78,552.39 L 448.38,552.30 L 448.82,552.23 L 449.33,552.17 L 449.82,552.22 L 450.28,552.30 L 450.48,552.24 L 451.03,552.00 L 451.99,551.50 L 452.64,551.19 L 453.65,550.87 L 455.07,550.31 L 455.95,549.98 L 457.25,549.45 L 458.96,548.87 L 460.39,548.43 L 460.80,548.39 L 461.40,548.35 L 463.00,548.15 L 464.67,547.94 L 466.54,547.76 L 468.77,547.45 L 471.03,547.24 L 472.16,547.17 L 471.90,547.61 L 471.70,548.03 L 471.42,548.65 L 470.83,550.33 L 470.34,551.89 L 469.89,553.07 L 469.54,553.99 L 469.75,553.98 L 470.51,553.85 L 471.61,553.84 L 473.17,553.76 L 473.16,554.33 L 473.16,554.89 L 472.99,555.41 L 472.65,556.64 L 472.62,557.00 L 472.74,558.06 L 472.74,558.83 L 472.65,559.45 L 472.85,560.42 L 472.84,560.78 L 472.87,561.91 L 473.08,563.46 L 473.10,563.72 L 472.98,564.88 L 472.79,565.51 L 472.64,565.99 L 472.60,566.59 L 472.35,567.55 L 472.02,568.68 L 471.92,569.23 L 471.95,569.74 L 472.05,571.04 L 472.15,572.75 L 472.39,575.22 L 472.51,576.75 L 472.58,577.27 L 472.70,577.78 L 472.77,578.79 L 472.99,580.84 L 473.17,581.83 L 473.34,583.95 L 473.45,585.75 L 473.52,586.54 L 473.63,587.56 L 474.82,587.52 L 476.64,587.48 L 478.56,587.40 L 480.23,587.41 L 481.36,587.42 L 483.01,587.41 L 484.84,587.40 L 486.97,587.44 L 488.47,587.88 L 490.30,588.38 L 492.21,589.00 L 493.35,589.24 L 494.47,589.63 L 495.67,589.94 L 496.44,590.00 L 497.28,590.00 L 498.33,589.94 L 500.13,589.80 L 500.80,589.76 L 502.23,589.75 L 502.45,589.60 L 502.54,589.28 L 502.60,588.16 L 503.26,587.14 L 504.17,585.60 L 504.88,583.94 L 505.12,582.95 L 505.60,581.33 L 505.44,580.85 L 505.29,580.02 L 505.35,578.96 L 505.52,578.10 L 505.73,576.97 L 506.16,575.17 L 506.22,574.72 L 506.14,574.34 L 506.19,573.84 L 506.40,572.76 L 506.69,571.32 L 507.01,569.80 L 507.46,568.88 L 508.23,567.61 L 508.90,566.81 L 509.34,566.37 L 510.24,565.15 L 510.56,564.20 L 510.72,563.62 L 510.86,563.16 L 510.86,562.88 L 510.86,562.84 L 510.65,562.02 L 510.23,561.25 L 509.31,559.92 L 508.43,558.62 L 508.08,558.23 L 507.50,557.46 L 507.09,556.80 L 506.17,555.22 L 505.68,554.30 L 504.90,552.61 L 504.29,551.37 L 503.75,550.40 L 503.31,549.96 L 502.59,549.32 L 502.18,548.96 L 501.56,548.56 L 501.11,548.37 L 500.61,548.23 L 500.00,548.02 L 499.67,547.83 L 499.54,547.72 L 498.74,546.93 L 498.65,546.71 L 498.17,546.37 L 497.38,545.82 L 496.98,545.51 L 496.74,545.41 L 496.48,545.33 L 495.61,544.67 L 495.26,544.31 L 495.04,543.92 L 494.78,543.67 L 494.32,543.28 L 493.83,542.96 L 492.92,542.35 L 492.29,541.99 L 491.73,541.40 L 491.10,540.72 L 490.35,539.89 L 489.58,538.97 L 488.85,538.07 L 488.75,537.91 L 488.70,537.76 L 488.52,537.21 L 488.43,536.82 L 488.41,535.92 L 488.39,534.63 L 488.37,533.58 L 488.32,532.08 L 488.35,530.66 L 488.35,529.36 L 488.41,528.86 L 488.44,527.65 L 488.47,526.96 L 488.51,525.76 L 488.58,525.40 L 488.64,524.69 L 488.71,524.00 L 488.88,523.30 L 488.99,522.90 L 489.23,522.16 L 489.58,521.17 L 489.96,520.02 L 490.27,519.10 L 490.78,517.61 L 491.08,516.78 L 491.43,515.83 L 491.78,514.76 L 491.95,514.32 L 492.22,513.42 L 492.33,513.03 L 492.51,512.95 L 492.80,512.88 L 493.33,512.73 L 493.89,512.59 L 494.31,512.55 L 495.33,512.27 L 495.92,512.09 L 496.50,511.96 L 497.41,511.81 L 497.68,511.80 L 499.08,511.65 L 499.36,511.59 L 500.16,511.44 L 500.47,511.34 L 501.28,511.13 L 501.77,511.00 L 502.10,510.96 L 502.50,510.91 L 503.67,510.81 L 504.03,510.75 L 504.90,510.76 L 505.24,510.77 L 506.27,510.65 L 507.04,510.57 L 508.22,510.40 L 509.00,510.19 L 509.42,510.05 L 510.00,509.95 L 511.76,509.67 L 512.95,509.56 L 513.72,509.50 L 514.07,509.51 L 514.63,509.55 L 515.75,509.61 L 516.00,509.58 L 516.44,509.42 L 517.56,509.04 L 518.62,508.82 L 519.66,508.59 L 520.40,508.51 L 520.94,508.44 L 522.13,508.17 L 522.63,508.14 L 523.59,508.13 L 523.97,508.12 L 524.31,508.02 L 524.61,507.92 L 524.76,507.76 L 525.61,506.95 L 526.04,506.57 L 526.23,506.46 L 526.40,506.43 L 526.69,506.47 L 527.91,506.78 L 529.16,506.99 L 530.37,507.28 L 531.40,507.54 L 532.63,507.91 L 533.84,508.15 L 535.15,508.51 L 536.32,508.75 L 537.68,509.11 L 538.57,509.36 L 539.47,509.59 L 540.43,506.10 L 541.18,503.36 L 541.75,501.48 L 542.16,499.82 L 542.31,498.49 L 542.37,497.37 L 542.43,496.23 L 542.36,494.94 L 542.26,493.07 L 542.33,492.18 L 542.42,491.93 L 542.86,490.48 L 543.24,489.37 L 543.79,487.98 L 544.13,486.87 L 544.38,486.25 L 544.66,485.10 L 545.04,483.44 L 545.38,481.87 L 545.72,480.57 L 546.10,478.86 L 546.43,477.35 L 546.62,476.52 L 547.01,474.82 L 547.07,474.50 L 547.02,473.11 L 546.72,471.51 L 546.43,469.54 L 546.20,467.75 L 545.87,465.60 L 545.61,463.68 L 545.44,462.54 L 545.29,461.50 L 544.96,459.91 L 544.70,458.89 L 544.42,458.09 L 544.07,457.36 L 543.47,456.03 L 543.01,455.14 L 542.68,454.68 L 542.25,453.82 L 542.07,453.55 L 541.89,453.28 L 541.63,453.02 L 540.90,452.39 L 540.66,452.20 L 539.89,451.71 L 539.13,451.14 L 538.50,450.53 L 538.24,450.20 L 537.90,449.74 L 537.00,448.61 L 535.99,447.47 L 536.41,447.07 L 535.94,446.45 L 535.34,445.74 L 535.45,445.38 L 535.73,444.49 L 535.94,443.64 L 536.10,442.90 L 536.32,442.07 L 536.40,441.82 L 536.67,441.02 L 536.99,440.08 L 537.03,439.82 L 537.19,439.26 L 537.31,438.92 L 537.61,438.04 L 537.71,437.68 L 537.77,437.33 L 537.83,436.65 L 537.88,435.87 L 537.94,435.13 L 537.98,434.72 L 538.05,434.03 L 538.07,433.10 L 538.00,432.47 L 537.83,431.48 L 537.64,430.69 L 537.54,430.39 L 537.54,430.32 L 537.60,430.05 L 537.89,429.28 L 538.03,428.68 L 538.06,428.29 L 538.07,427.72 L 538.04,427.05 L 537.97,426.01 L 537.82,424.01 L 537.71,422.80 L 537.67,421.82 L 537.62,420.54 L 537.57,419.72 L 537.57,418.83 L 537.62,418.24 L 537.72,417.57 L 537.83,416.90 L 537.83,416.72 L 537.79,416.50 L 537.73,416.22 L 537.71,416.06 L 537.76,415.58 L 537.81,415.07 L 537.80,414.76 L 537.70,414.07 L 537.69,413.60 L 537.73,413.20 L 537.83,412.81 L 538.02,412.31 L 538.18,411.91 L 538.68,410.95 L 539.06,410.31 L 539.23,410.01 L 539.41,409.73 L 540.10,408.82 L 541.09,407.47 L 541.76,406.56 L 542.29,405.84 L 542.43,405.65 L 542.58,405.53 L 542.84,405.17 L 543.13,404.56 L 543.32,404.24 L 543.87,403.23 L 543.97,402.88 L 544.01,402.59 L 544.04,402.11 L 544.10,400.98 L 544.13,400.17 L 544.09,399.95 L 543.99,399.60 L 543.92,399.30 L 543.93,398.65 L 543.96,397.77 L 543.97,397.58 L 544.06,397.23 L 544.13,396.93 L 544.17,396.65 L 544.19,396.19 L 544.24,395.91 L 544.42,395.37 L 544.71,394.54 L 544.73,394.37 L 544.69,394.15 L 544.65,393.91 L 544.66,392.99 L 544.59,392.17 L 544.55,391.88 L 544.38,391.29 L 544.38,391.28 L 543.93,389.65 L 543.68,388.67 L 543.59,388.07 L 543.58,387.57 L 543.77,385.73 L 543.90,384.43 L 544.12,383.00 L 544.28,382.08 L 544.45,381.05 L 544.42,380.39 L 544.35,379.35 L 544.22,378.64 L 544.09,377.53 L 544.07,376.46 L 544.00,373.54 L 543.93,371.73 L 543.87,371.57 L 543.20,370.41 L 542.98,370.07 L 542.69,369.64 L 542.45,369.45 L 542.11,369.26 L 541.90,369.15 L 541.72,369.03 L 541.25,368.54 L 540.64,367.84 L 539.96,367.20 L 539.43,366.76 L 538.83,366.28 L 537.84,365.17 L 537.41,364.68 L 537.08,364.43 L 536.70,364.19 L 535.65,363.53 L 534.11,362.61 L 533.13,361.98 L 532.50,361.63 L 531.11,360.94 L 530.43,360.59 L 530.25,360.43 L 529.95,360.10 L 529.53,359.64 L 529.16,359.28 L 528.92,359.08 L 528.39,358.76 L 527.81,358.30 L 527.54,358.10 L 526.80,357.28 L 526.14,356.56 L 525.78,356.26 L 525.54,356.14 L 524.96,356.00 L 524.16,355.83 L 523.17,355.70 L 522.73,355.63 L 522.35,355.65 L 521.80,355.71 L 521.17,355.84 L 520.52,356.06 L 519.80,356.31 L 519.43,356.44 L 519.04,356.45 L 518.72,356.43 L 518.42,356.39 L 518.04,356.36 L 517.76,356.36 L 517.20,356.44 L 516.73,356.52 L 516.22,356.65 L 515.61,356.89 L 513.99,357.54 L 512.98,357.91 L 511.91,356.99 L 510.74,355.96 L 509.73,354.79 L 509.32,354.32 L 509.04,354.09 L 508.48,353.67 L 507.58,352.86 L 507.20,352.50 L 506.49,351.73 L 505.46,350.51 L 504.97,349.67 L 505.15,348.45 L 505.24,347.31 L 505.31,346.17 L 505.39,345.99 L 505.56,345.74 L 505.64,345.40 L 505.69,344.79 L 505.87,343.36 L 506.06,341.57 L 506.15,340.64 L 506.26,339.80 L 506.42,338.54 L 506.57,337.08 L 506.57,337.08 L 506.85,334.29 L 506.71,333.61 L 506.70,333.12 L 506.96,331.85 L 507.12,329.71 L 507.37,327.31 L 507.52,325.32 L 508.55,325.39 L 508.33,323.19 L 508.08,321.48 L 507.93,320.16 L 508.40,319.58 L 508.81,319.02 L 509.17,318.16 L 509.46,317.17 L 510.11,314.41 L 510.69,312.63 L 511.21,311.21 L 511.72,309.88 L 511.93,309.48 L 512.48,308.74 L 512.79,308.31 L 512.98,307.87 L 513.09,306.39 L 513.09,303.19 L 512.96,301.89 L 512.90,300.71 L 512.51,299.47 L 512.08,297.42 L 511.40,293.70 L 510.99,291.75 L 510.98,290.87 L 510.95,287.90 L 510.93,286.14 L 510.72,284.69 L 510.23,282.20 L 509.95,280.56 L 509.80,280.34 L 509.29,280.06 L 506.97,279.01 L 504.97,278.10 L 502.41,276.79 L 502.15,276.66 L 501.17,276.60 L 500.45,276.50 L 500.22,276.02 L 499.74,274.33 L 499.67,273.80 L 499.95,271.61 L 500.01,270.49 L 500.06,269.24 L 499.64,268.10 L 499.56,267.61 L 498.51,266.43 L 497.26,265.27 L 496.72,264.89 L 495.63,264.31 L 493.14,263.03 L 492.69,262.74 L 491.53,261.86 L 490.38,261.11 L 489.35,260.64 L 488.72,260.21 L 487.36,259.09 L 485.86,257.78 L 484.36,256.66 L 483.20,255.87 L 483.13,254.01 L 483.24,253.10 L 483.23,251.72 L 483.19,249.49 L 483.29,247.54 L 483.30,244.67 L 483.29,242.71 L 483.40,241.24 L 483.26,238.40 L 483.05,235.45 L 482.81,233.44 L 482.43,230.88 L 482.46,230.47 L 482.70,227.68 L 482.97,224.11 L 483.04,222.23 L 483.10,221.56 L 483.21,220.59 L 483.12,220.03 L 484.56,219.59 L 487.04,218.86 L 488.18,218.51 L 488.67,218.28 L 491.08,217.52 L 490.95,213.96 L 492.10,213.68 L 493.13,213.34 L 494.63,212.99 L 496.00,212.61 L 497.73,210.88 L 498.03,210.74 L 499.60,210.08 L 501.43,209.31 L 502.81,208.63 L 502.33,206.78 L 501.87,204.87 L 501.49,203.87 L 500.85,201.89 L 500.54,200.65 L 500.46,199.67 L 500.62,198.18 L 500.62,197.80 L 500.05,196.64 L 499.89,195.42 L 499.74,194.49 L 499.76,193.58 L 499.69,191.87 L 499.63,190.19 L 499.82,188.42 L 499.72,186.92 L 499.74,184.96 L 499.76,183.56 L 499.91,182.25 L 500.09,180.38 L 500.16,179.07 L 500.23,177.79 L 500.09,176.28 L 499.71,174.11 L 499.40,171.92 L 499.13,170.55 L 498.91,169.60 L 498.85,168.55 L 498.52,167.85 L 498.03,166.92 L 497.59,165.84 L 497.50,164.81 L 497.71,163.38 L 497.74,162.87 L 497.47,162.35 L 497.25,161.56 L 497.14,160.56 L 496.92,159.15 L 496.63,157.82 L 496.46,156.65 L 495.92,155.87 L 495.26,154.94 L 493.95,153.84 L 493.00,152.92 L 491.85,152.02 L 491.25,151.55 L 490.91,151.62 L 489.67,152.32 L 487.66,152.88 L 486.44,152.93 L 484.82,152.77 L 483.43,152.51 L 481.48,152.39 L 479.37,151.90 L 477.56,151.32 L 476.34,150.87 L 474.69,150.32 L 472.70,149.89 L 471.84,149.70 L 470.31,149.07 L 469.49,148.67 L 468.25,148.37 L 467.38,148.14 L 465.99,147.62 L 464.83,147.04 L 463.40,146.08 L 461.93,144.98 L 460.38,143.70 L 459.27,142.73 L 458.15,141.82 L 457.59,141.30 L 457.19,140.58 L 457.13,140.40 L 456.88,139.81 L 456.77,139.58 L 455.84,139.53 L 454.14,139.55 L 452.68,139.51 L 450.90,139.51 L 450.29,139.51 L 449.05,139.41 L 448.93,137.55 L 448.83,136.16 L 448.86,133.79 L 448.79,132.35 L 448.72,131.13 L 448.72,129.49 L 446.66,129.58 L 443.86,129.34 L 441.87,129.31 L 440.71,129.21 L 440.48,129.15 L 439.92,127.49 L 439.20,125.39 L 438.98,124.71 L 438.69,123.81 L 438.56,123.60 L 438.48,123.55 L 438.17,123.46 L 437.94,123.34 L 436.84,121.27 L 436.66,120.92 L 436.42,120.55 L 436.00,120.25 L 435.71,120.12 L 435.40,120.07 L 432.14,119.78 L 429.71,119.76 L 426.23,119.62 L 422.36,119.38 L 419.63,119.21 L 418.29,119.03 L 417.13,118.94 L 415.06,118.91 L 414.15,118.99 L 413.00,119.20 L 410.86,119.69 L 408.93,120.04 L 408.63,120.05 L 408.26,119.93 L 407.99,119.72 L 407.87,119.58 L 407.26,118.75 L 406.59,117.78 L 405.77,116.61 L 405.39,116.00 L 405.16,115.47 L 404.86,114.85 L 404.65,114.64 L 404.32,114.44 L 403.78,114.30 L 402.81,114.14 L 401.87,114.09 L 400.68,114.03 L 399.33,113.97 L 398.73,113.93 L 397.45,113.91 L 396.36,113.87 L 395.70,113.77 L 395.03,113.65 L 394.69,113.62 L 394.25,113.66 L 393.31,113.69 L 392.31,113.78 L 391.77,113.88 L 391.19,114.01 L 389.19,114.47 L 387.08,114.98 L 386.14,115.24 L 385.55,115.31 L 385.16,115.32 L 384.81,115.27 L 384.43,115.20 L 384.09,115.03 L 383.77,114.82 L 382.99,114.11 L 382.98,114.10 L 382.55,113.71 L 382.27,113.55 L 381.70,113.33 L 380.70,113.05 L 379.73,112.79 L 378.82,112.58 L 378.32,112.48 L 377.59,112.40 L 375.97,112.29 L 374.01,112.16 L 372.71,112.05 L 371.10,112.06 L 370.03,112.14 L 369.16,112.28 L 368.93,112.34 L 368.30,112.55 L 367.28,112.95 L 366.39,113.23 L 365.75,113.33 L 364.97,113.37 L 364.27,113.48 L 363.95,113.29 L 363.48,112.36 L 363.09,111.18 L 362.56,109.89 L 362.14,108.84 L 362.05,108.53 L 362.10,108.40 L 362.27,108.28 L 362.92,108.02 L 364.12,107.61 L 364.82,107.38 L 365.40,107.16 L 365.63,107.01 L 365.91,106.80 L 366.37,106.48 L 366.69,106.04 L 366.92,105.57 L 367.13,104.83 L 367.20,104.48 L 367.27,103.84 L 367.30,103.33 L 367.32,102.36 L 367.29,99.69 L 367.29,99.06 L 367.25,98.09 L 367.19,97.71 L 367.03,97.04 L 366.91,96.07 L 366.88,94.75 L 366.70,86.37 L 366.68,85.86 L 366.58,84.92 L 366.54,84.34 L 366.57,83.86 L 366.60,83.13 L 366.42,80.39 L 366.38,79.00 L 366.38,77.92 L 366.29,76.18 L 366.21,73.87 L 366.16,72.25 L 366.06,71.41 L 364.83,71.43 L 361.13,71.61 L 359.73,71.58 L 358.57,71.64 L 357.29,71.81 L 356.42,71.77 L 355.75,71.81 L 353.96,71.92 L 353.02,71.96 L 352.26,72.06 L 351.06,72.14 L 348.93,72.24 L 347.45,72.32 L 347.00,72.40 L 345.31,72.61 L 343.22,72.81 L 341.94,72.99 L 337.96,73.59 L 336.50,73.80 L 334.39,74.14 L 332.62,74.37 L 332.32,73.38 L 332.17,73.06 L 331.81,72.42 L 331.54,71.90 L 331.49,71.58 L 331.48,71.24 L 331.56,70.60 L 331.74,69.93 L 331.97,69.24 L 332.26,68.39 L 332.35,67.98 L 332.32,67.60 L 332.17,67.03 L 331.91,66.58 L 331.49,66.12 L 331.07,65.76 L 329.63,64.76 L 328.46,64.04 L 326.99,63.20 L 325.34,62.26 L 325.33,62.25 L 323.65,61.46 L 322.49,60.90 L 321.29,60.33 L 320.89,60.18 L 319.95,59.62 L 319.00,59.21 L 318.26,58.69 L 318.30,57.71 L 318.43,57.24 L 318.72,56.43 L 318.69,55.98 L 318.56,55.76 L 317.90,54.30 L 317.81,53.91 L 317.85,53.47 L 318.11,52.72 L 318.35,52.10 L 318.52,50.84 L 318.52,50.11 L 318.52,49.38 L 318.84,48.65 L 319.29,48.54 L 319.67,48.78 L 320.65,49.70 L 321.53,50.09 L 322.19,50.23 L 322.87,50.22 L 323.01,50.17 L 323.26,49.89 L 323.50,49.67 L 323.49,49.42 L 323.53,48.85 L 323.55,47.74 L 323.58,47.02 L 323.85,46.19 L 324.26,45.78 L 325.28,45.15 L 324.63,43.26 L 324.21,42.57 L 323.80,41.61 L 323.44,40.57 L 323.00,39.55 L 322.61,38.65 L 322.48,38.33 L 322.18,37.62 L 321.82,36.69 L 321.47,35.86 L 321.06,34.95 L 321.00,34.87 L 321.15,34.15 L 321.28,33.39 L 321.36,32.63 L 321.38,32.44 L 321.55,31.76 L 321.62,30.89 L 321.70,29.99 L 321.81,29.09 L 321.91,28.22 L 322.09,27.32 L 322.25,26.43 L 322.39,25.63 L 322.46,24.59 L 322.58,23.62 L 322.73,22.69 L 322.88,21.84 L 322.97,21.09 L 322.98,21.05 L 323.01,20.77 L 322.45,20.59 L 322.17,20.49 L 321.44,20.21 L 321.35,20.15 L 320.45,19.83 L 319.63,19.58 L 318.78,19.32 L 317.93,19.03 L 317.08,18.75 L 316.31,18.42 L 316.18,18.36 L 315.30,17.99 L 314.58,17.51 L 314.43,17.42 L 313.70,16.93 L 313.58,16.86 L 312.87,16.46 L 312.15,16.01 L 311.40,15.70 L 310.32,15.04 L 309.50,14.78 L 308.79,14.69 L 307.87,14.52 L 307.39,14.54 L 306.15,14.58 L 303.76,14.03 L 301.47,13.59 L 299.87,13.45 L 298.70,13.10 L 298.28,13.09 L 296.00,12.54 L 295.31,12.33 L 293.34,12.02 L 292.88,11.96 L 290.68,11.90 L 288.18,11.91 L 285.72,11.88 L 283.52,11.85 L 283.27,11.78 L 282.56,11.22 L 282.02,10.91 L 281.60,10.66 L 280.77,10.40 L 279.85,10.08 L 279.54,10.04 Z" fill="#1d3672" stroke="#333" stroke-width="1"/>
</svg>