<svg xmlns="http://www.w3.org/2000/svg" width="800" height="600" viewBox="0 0 800 600">
<path d="M 82.16,13.59 L 74.00,10.00 L 73.45,10.30 L 72.01,11.09 L 71.28,11.50 L 69.99,12.24 L 69.49,12.47 L 68.78,12.85 L 67.85,13.36 L 66.87,13.92 L 65.83,14.54 L 65.11,14.94 L 63.78,15.70 L 62.52,16.43 L 62.50,16.44 L 61.47,17.06 L 60.90,17.37 L 59.88,17.87 L 57.92,18.80 L 56.46,19.58 L 54.85,20.29 L 53.20,20.88 L 52.48,21.25 L 51.10,21.99 L 49.29,22.93 L 47.95,23.67 L 46.69,24.19 L 45.19,24.97 L 43.93,25.65 L 43.07,26.14 L 41.70,26.87 L 40.82,27.32 L 39.89,27.81 L 39.06,28.22 L 38.32,28.76 L 36.71,29.74 L 34.98,30.86 L 33.56,31.60 L 31.76,32.41 L 30.92,32.78 L 29.88,33.22 L 29.37,33.54 L 28.91,34.01 L 28.03,34.90 L 28.03,34.91 L 26.48,36.12 L 25.81,36.63 L 24.79,37.49 L 23.22,39.03 L 22.25,39.96 L 21.13,40.95 L 20.50,41.51 L 19.37,42.60 L 18.64,43.16 L 17.89,43.63 L 17.08,44.36 L 16.73,44.77 L 16.17,45.47 L 15.23,46.58 L 14.83,47.13 L 14.43,47.71 L 13.96,48.32 L 13.39,49.38 L 12.97,50.13 L 12.52,50.91 L 11.96,51.99 L 11.38,52.89 L 11.28,53.26 L 11.18,53.63 L 11.09,54.25 L 11.00,54.81 L 10.86,55.66 L 10.69,56.68 L 10.54,57.54 L 10.43,58.52 L 10.31,59.44 L 10.15,60.67 L 10.11,61.71 L 10.08,62.77 L 10.01,63.99 L 10.00,64.77 L 10.01,65.63 L 10.02,66.85 L 10.08,68.06 L 10.07,68.90 L 10.19,69.45 L 10.37,70.07 L 10.56,71.16 L 10.72,72.18 L 10.82,72.78 L 11.13,73.87 L 11.25,74.43 L 11.66,75.66 L 12.00,76.48 L 12.29,77.34 L 12.43,77.73 L 12.51,78.09 L 12.71,78.86 L 13.05,79.88 L 13.56,81.40 L 13.79,82.13 L 14.16,83.47 L 14.47,84.63 L 14.76,85.48 L 15.11,86.35 L 15.57,87.75 L 15.70,88.12 L 15.83,88.50 L 15.97,89.26 L 16.13,89.93 L 16.28,90.87 L 16.39,91.52 L 16.50,92.43 L 16.59,93.15 L 16.58,93.75 L 16.62,94.42 L 16.57,95.06 L 16.45,95.78 L 16.26,96.91 L 16.18,97.37 L 16.12,98.21 L 16.05,98.87 L 16.08,99.53 L 16.22,101.28 L 16.30,102.05 L 16.36,102.97 L 16.36,102.97 L 16.56,104.34 L 16.61,104.99 L 16.68,105.69 L 16.83,106.55 L 17.08,107.67 L 17.25,108.56 L 17.47,109.59 L 17.63,110.11 L 17.91,110.85 L 18.03,111.44 L 18.07,112.47 L 18.23,113.11 L 18.40,114.10 L 18.67,115.47 L 18.78,115.97 L 19.01,116.96 L 19.21,118.15 L 19.35,118.80 L 19.45,119.66 L 19.65,121.14 L 19.75,121.63 L 19.95,122.51 L 20.10,123.32 L 20.36,124.39 L 20.73,125.36 L 20.99,126.23 L 21.37,127.39 L 21.64,128.09 L 21.85,129.08 L 22.05,130.13 L 22.15,130.75 L 22.47,131.75 L 22.69,132.91 L 22.90,133.64 L 23.41,134.74 L 23.97,135.61 L 24.44,136.15 L 25.18,136.88 L 26.05,137.68 L 26.86,138.28 L 27.83,138.91 L 28.93,139.44 L 30.19,139.94 L 31.55,140.25 L 32.31,140.38 L 33.49,140.46 L 34.03,140.44 L 34.55,140.37 L 35.37,140.23 L 36.50,139.97 L 37.32,139.88 L 38.65,139.86 L 40.34,139.65 L 40.97,139.57 L 41.69,139.41 L 42.96,139.28 L 43.55,139.23 L 44.55,139.06 L 45.07,138.98 L 45.67,138.89 L 46.94,138.94 L 48.00,138.90 L 49.19,138.82 L 50.13,138.80 L 51.12,138.74 L 51.49,138.75 L 52.27,138.78 L 53.08,138.84 L 53.71,138.88 L 54.34,138.89 L 55.05,138.82 L 56.16,138.76 L 57.14,138.81 L 57.65,138.82 L 59.06,138.75 L 59.51,138.74 L 60.44,138.73 L 61.31,138.65 L 62.51,138.46 L 63.38,138.26 L 63.78,138.17 L 64.04,138.07 L 64.41,137.91 L 64.41,137.90 L 64.62,137.76 L 65.01,137.42 L 65.35,137.12 L 66.27,136.43 L 66.94,135.99 L 68.12,134.91 L 68.47,134.61 L 69.40,134.09 L 70.09,133.69 L 70.09,133.69 L 70.92,133.31 L 71.77,132.92 L 72.23,132.74 L 72.93,132.46 L 74.12,132.04 L 74.51,131.91 L 75.54,131.69 L 76.83,131.26 L 77.65,130.93 L 77.67,130.92 L 78.95,130.44 L 78.97,130.44 L 80.26,129.70 L 82.02,128.97 L 83.51,128.44 L 85.52,127.68 L 85.99,127.53 L 87.52,127.00 L 88.15,126.77 L 88.16,126.77 L 89.13,126.66 L 90.41,126.56 L 90.84,126.58 L 91.30,126.61 L 93.26,126.81 L 94.26,126.93 L 95.24,127.08 L 96.19,127.17 L 97.31,127.27 L 98.56,127.42 L 100.12,127.74 L 100.59,127.91 L 101.32,128.23 L 101.84,128.51 L 102.32,128.82 L 102.99,129.32 L 103.44,129.68 L 103.87,130.18 L 104.24,130.65 L 104.75,131.29 L 105.27,131.95 L 106.08,132.85 L 106.55,133.37 L 107.07,133.80 L 107.31,134.00 L 108.03,134.59 L 108.33,134.98 L 108.78,135.57 L 109.42,136.56 L 110.07,137.63 L 110.30,138.18 L 110.57,139.26 L 110.73,139.89 L 111.04,141.08 L 111.18,141.77 L 111.30,142.37 L 111.57,143.57 L 111.83,144.73 L 111.97,145.43 L 112.14,146.06 L 112.50,147.17 L 112.79,148.28 L 112.94,148.97 L 113.02,149.56 L 113.03,150.21 L 113.03,150.79 L 113.03,151.23 L 112.99,151.87 L 112.93,152.68 L 112.94,153.18 L 112.87,153.88 L 112.83,154.51 L 112.81,155.04 L 112.73,155.99 L 112.72,157.29 L 112.73,158.41 L 112.80,159.24 L 112.96,160.33 L 113.08,160.91 L 113.33,162.11 L 113.43,162.64 L 113.47,163.04 L 113.51,163.42 L 113.57,164.10 L 113.63,164.76 L 113.78,165.93 L 113.88,166.49 L 114.01,167.33 L 114.34,168.57 L 114.58,169.59 L 114.94,170.74 L 115.13,171.55 L 115.25,172.28 L 115.38,173.46 L 115.41,174.62 L 115.44,175.30 L 115.43,176.09 L 115.52,177.24 L 115.57,178.33 L 115.59,179.08 L 115.67,180.37 L 115.68,182.17 L 115.76,183.71 L 115.77,184.76 L 115.79,185.78 L 115.78,186.59 L 115.78,186.59 L 115.60,187.69 L 115.47,188.30 L 113.66,188.84 L 113.66,190.43 L 113.89,192.68 L 114.02,194.46 L 114.16,196.38 L 114.28,197.75 L 114.50,199.04 L 115.17,200.92 L 115.94,202.56 L 117.09,204.57 L 117.63,205.69 L 117.76,206.04 L 117.98,207.07 L 118.04,208.21 L 118.22,210.41 L 118.45,212.07 L 118.71,214.17 L 119.19,215.71 L 119.87,217.61 L 120.41,219.25 L 120.98,220.82 L 121.73,223.07 L 122.05,224.39 L 122.67,226.30 L 123.15,228.11 L 123.54,229.60 L 124.16,231.79 L 124.64,233.18 L 125.15,234.85 L 125.35,235.75 L 125.79,237.37 L 126.46,239.12 L 127.12,240.84 L 127.90,242.30 L 129.45,245.56 L 129.91,246.43 L 131.04,248.93 L 131.71,251.01 L 132.28,253.14 L 132.69,254.51 L 133.01,255.95 L 133.37,257.45 L 133.47,258.23 L 133.68,259.97 L 133.84,260.77 L 133.99,262.03 L 134.25,264.34 L 134.55,267.56 L 134.74,269.11 L 134.79,270.86 L 134.87,272.79 L 134.90,274.78 L 134.85,278.48 L 134.72,280.66 L 134.46,283.41 L 134.30,285.96 L 133.92,287.61 L 133.40,289.59 L 132.83,291.19 L 132.32,292.53 L 132.20,293.43 L 131.55,295.48 L 131.29,296.58 L 130.81,298.60 L 130.05,302.07 L 129.95,302.98 L 129.64,305.60 L 129.46,307.09 L 129.54,308.89 L 129.69,311.15 L 130.01,312.90 L 130.42,314.49 L 131.21,316.84 L 132.07,318.59 L 133.09,320.95 L 133.59,321.87 L 134.24,323.60 L 134.79,324.97 L 134.98,325.69 L 135.50,327.49 L 135.88,328.83 L 136.33,331.71 L 136.43,332.48 L 136.72,334.23 L 137.03,336.15 L 137.35,338.27 L 137.74,339.89 L 138.36,341.91 L 138.92,344.52 L 139.13,345.32 L 139.24,346.26 L 139.35,347.26 L 139.44,349.20 L 139.40,351.16 L 139.64,354.47 L 139.56,356.40 L 139.32,358.07 L 139.17,358.82 L 138.97,359.39 L 138.02,360.99 L 137.74,361.64 L 137.10,363.23 L 136.39,364.54 L 135.68,365.44 L 135.24,365.78 L 134.28,366.57 L 132.86,367.14 L 131.51,367.66 L 130.77,368.18 L 129.72,369.12 L 128.24,370.83 L 127.46,371.59 L 126.22,372.91 L 125.17,374.24 L 123.41,375.88 L 122.05,377.03 L 120.86,377.90 L 119.42,378.90 L 118.75,379.35 L 118.09,379.71 L 115.60,381.50 L 114.19,382.23 L 112.89,382.72 L 110.76,383.42 L 109.13,384.02 L 106.68,384.83 L 104.32,385.71 L 103.22,386.11 L 102.08,386.51 L 99.36,387.75 L 97.73,388.65 L 96.00,389.77 L 94.42,390.81 L 93.32,391.71 L 91.94,392.70 L 90.38,394.10 L 88.62,395.51 L 87.35,396.69 L 86.25,397.56 L 84.65,399.15 L 83.30,400.87 L 82.09,402.45 L 81.14,403.98 L 80.19,405.88 L 79.90,406.71 L 79.79,407.24 L 79.83,407.97 L 79.83,408.72 L 79.86,409.80 L 79.89,410.11 L 80.20,410.44 L 80.46,410.70 L 80.89,411.42 L 81.29,412.25 L 81.88,413.44 L 82.09,413.88 L 83.06,415.70 L 83.48,416.56 L 84.92,419.44 L 85.48,420.56 L 86.44,422.63 L 87.21,424.31 L 88.03,426.07 L 88.69,427.14 L 89.16,427.83 L 90.12,428.88 L 91.55,430.29 L 92.54,431.31 L 94.10,432.83 L 95.25,433.91 L 97.25,435.49 L 98.66,436.67 L 100.48,437.88 L 101.27,438.38 L 102.97,439.64 L 106.51,441.94 L 108.41,443.19 L 109.45,444.01 L 110.81,445.23 L 112.43,446.18 L 113.12,446.59 L 114.37,447.31 L 115.91,448.18 L 117.79,449.41 L 119.61,450.40 L 121.05,451.23 L 122.61,452.19 L 124.36,453.58 L 125.33,454.55 L 125.87,455.06 L 126.60,455.98 L 128.08,457.81 L 130.45,460.52 L 130.62,460.71 L 132.98,463.40 L 134.00,464.82 L 135.32,466.98 L 136.48,468.43 L 137.96,469.64 L 139.40,470.71 L 141.00,471.85 L 142.76,472.80 L 144.43,473.40 L 146.35,473.93 L 148.24,474.31 L 149.88,474.74 L 152.01,475.10 L 154.13,475.39 L 157.93,475.30 L 161.79,475.35 L 163.73,475.46 L 165.69,475.53 L 168.46,475.66 L 169.90,475.81 L 171.21,475.95 L 173.32,476.21 L 174.61,476.48 L 176.44,476.96 L 176.63,477.01 L 179.00,477.68 L 180.78,477.45 L 182.48,476.56 L 184.08,474.01 L 185.32,470.17 L 185.87,469.90 L 187.19,471.25 L 188.96,469.98 L 190.43,470.43 L 192.20,470.92 L 193.43,471.24 L 194.76,471.65 L 196.72,472.12 L 199.87,473.10 L 201.48,473.68 L 203.03,474.25 L 205.77,475.25 L 206.58,475.49 L 209.87,476.63 L 210.51,476.89 L 210.97,477.11 L 211.28,477.42 L 211.72,479.06 L 212.02,481.34 L 212.04,481.88 L 212.06,482.21 L 212.14,482.64 L 212.21,482.92 L 212.73,483.45 L 214.31,484.95 L 215.94,486.54 L 216.85,488.00 L 217.13,488.77 L 217.05,490.26 L 216.79,490.79 L 216.52,491.30 L 216.46,492.33 L 216.66,493.65 L 217.07,494.24 L 217.76,495.10 L 217.99,495.46 L 219.05,496.48 L 219.88,497.09 L 220.30,497.27 L 221.32,497.34 L 222.38,497.27 L 224.77,496.98 L 227.03,496.60 L 228.37,496.44 L 229.92,496.36 L 231.05,496.42 L 231.93,496.55 L 232.98,496.79 L 234.22,497.40 L 235.24,498.06 L 235.25,498.07 L 236.23,498.95 L 236.91,499.98 L 237.37,501.11 L 237.54,501.58 L 237.55,501.62 L 237.77,502.99 L 237.84,503.22 L 238.48,505.61 L 238.75,508.45 L 239.01,509.49 L 239.66,511.47 L 241.02,514.00 L 241.24,514.38 L 242.19,515.98 L 243.21,518.00 L 245.01,520.44 L 246.79,522.12 L 247.78,523.35 L 248.19,524.07 L 248.58,524.89 L 249.29,528.05 L 249.77,529.42 L 250.53,530.46 L 252.16,532.23 L 253.93,533.96 L 254.90,534.81 L 255.88,535.35 L 257.09,535.82 L 259.13,536.14 L 262.61,536.06 L 264.27,535.88 L 265.82,535.63 L 266.57,535.59 L 267.86,535.85 L 268.76,536.21 L 269.75,536.81 L 272.62,539.13 L 274.06,540.24 L 274.58,540.84 L 275.75,543.10 L 276.84,545.01 L 277.93,547.31 L 278.77,549.68 L 279.22,550.26 L 280.02,551.05 L 280.47,551.62 L 281.26,552.20 L 282.13,552.46 L 283.68,552.52 L 284.44,552.67 L 284.70,552.78 L 285.32,553.06 L 286.12,553.74 L 286.99,554.61 L 288.20,555.36 L 288.84,555.73 L 289.93,556.08 L 290.65,556.30 L 291.37,556.34 L 293.22,555.83 L 294.62,555.47 L 295.75,555.36 L 297.08,555.50 L 297.82,555.68 L 298.72,556.26 L 300.52,558.14 L 301.78,559.47 L 304.99,563.27 L 305.44,563.81 L 306.91,565.79 L 308.00,567.38 L 308.68,568.36 L 311.29,571.62 L 311.94,572.31 L 313.04,572.92 L 315.07,573.85 L 316.64,574.79 L 318.35,575.96 L 319.70,577.37 L 321.93,580.10 L 323.22,581.77 L 327.18,585.75 L 328.50,586.86 L 329.75,587.58 L 331.56,588.56 L 333.33,589.14 L 335.86,589.82 L 339.93,589.88 L 341.29,589.88 L 342.27,589.52 L 343.71,588.77 L 344.65,588.08 L 345.67,586.54 L 346.66,584.26 L 348.31,581.79 L 348.95,581.15 L 350.57,580.39 L 352.01,580.11 L 353.82,579.24 L 357.03,577.69 L 360.09,575.93 L 363.33,574.16 L 364.84,573.81 L 365.82,573.66 L 367.21,573.73 L 368.69,574.03 L 370.69,574.42 L 371.82,574.38 L 373.92,574.06 L 375.77,573.05 L 378.04,571.76 L 379.51,570.56 L 380.16,569.73 L 381.09,567.39 L 381.78,566.32 L 382.57,565.23 L 383.17,564.62 L 383.46,564.51 L 384.31,564.19 L 385.51,564.16 L 386.38,564.42 L 387.79,564.89 L 388.08,564.99 L 389.12,565.07 L 389.33,565.09 L 390.43,564.99 L 392.69,564.48 L 393.94,564.27 L 394.81,564.23 L 396.63,564.75 L 398.11,565.25 L 399.20,565.75 L 399.26,565.81 L 400.34,567.05 L 401.55,568.74 L 403.09,571.97 L 403.96,575.29 L 405.17,578.28 L 406.08,580.07 L 406.15,580.21 L 407.85,582.52 L 409.50,584.64 L 410.64,585.68 L 411.85,586.37 L 419.51,588.16 L 422.10,588.76 L 426.60,589.89 L 429.14,590.00 L 431.74,589.75 L 434.25,589.47 L 435.65,588.74 L 436.52,588.13 L 437.32,587.20 L 437.77,586.45 L 438.11,584.82 L 437.54,581.76 L 437.50,579.44 L 437.58,577.93 L 437.81,576.81 L 439.09,574.72 L 443.45,569.85 L 446.37,566.90 L 448.98,563.87 L 450.27,561.57 L 451.21,560.38 L 452.31,559.48 L 454.58,558.21 L 457.14,557.47 L 458.24,557.01 L 460.07,556.18 L 460.24,556.10 L 461.71,555.53 L 462.81,555.45 L 463.75,555.67 L 464.93,556.36 L 466.24,557.44 L 467.30,557.69 L 470.75,558.25 L 471.52,558.37 L 472.24,558.84 L 472.91,559.63 L 474.05,561.46 L 475.11,562.55 L 475.78,563.05 L 476.24,563.09 L 476.68,563.12 L 477.77,562.93 L 477.99,562.89 L 480.77,562.37 L 481.44,562.21 L 481.98,562.08 L 482.88,561.54 L 483.71,560.82 L 484.46,560.15 L 486.31,558.48 L 487.02,558.19 L 488.42,558.27 L 489.97,558.52 L 491.37,558.20 L 492.62,557.91 L 493.82,557.91 L 494.92,557.41 L 495.64,557.27 L 496.73,557.48 L 497.79,557.48 L 498.07,557.48 L 499.36,557.44 L 499.72,557.15 L 501.05,556.08 L 502.15,555.78 L 502.79,555.37 L 503.88,554.41 L 505.31,553.19 L 506.95,551.77 L 508.87,549.99 L 510.88,547.75 L 512.76,545.69 L 514.85,544.27 L 517.04,542.90 L 518.18,542.35 L 518.62,541.86 L 518.69,541.57 L 518.68,540.49 L 518.81,539.80 L 519.02,539.35 L 519.51,538.73 L 519.86,538.43 L 520.95,537.98 L 522.64,537.14 L 524.73,535.93 L 526.31,535.15 L 526.37,535.13 L 527.00,534.95 L 527.00,534.95 L 527.02,534.95 L 527.17,534.90 L 527.33,534.85 L 527.38,534.83 L 527.42,534.82 L 527.46,534.81 L 527.49,534.80 L 527.49,534.81 L 529.22,536.11 L 529.97,536.59 L 529.68,536.15 L 529.02,535.61 L 528.36,535.07 L 526.86,533.74 L 526.48,533.33 L 526.47,533.33 L 525.76,532.36 L 524.82,530.81 L 524.33,530.01 L 523.81,529.17 L 522.73,527.54 L 521.63,525.92 L 520.52,524.40 L 520.43,524.27 L 519.52,522.83 L 518.54,521.40 L 517.59,519.90 L 516.78,518.35 L 515.13,515.07 L 514.07,513.28 L 513.91,513.06 L 513.48,512.30 L 513.12,511.88 L 512.89,511.53 L 512.18,510.76 L 511.62,510.10 L 509.80,508.09 L 508.89,507.12 L 507.94,506.02 L 507.67,505.80 L 506.53,504.90 L 504.47,503.11 L 503.29,501.87 L 501.89,500.69 L 498.97,498.55 L 498.74,498.37 L 497.18,497.24 L 495.61,496.10 L 494.13,494.86 L 494.09,493.22 L 494.13,492.44 L 494.16,491.21 L 494.17,490.85 L 494.32,490.16 L 494.42,489.93 L 494.04,487.48 L 495.30,483.28 L 495.92,482.77 L 498.38,480.39 L 501.15,478.79 L 506.43,479.00 L 521.31,479.59 L 523.07,480.33 L 523.95,480.77 L 524.82,481.22 L 526.56,481.98 L 528.26,482.67 L 530.04,483.19 L 530.43,483.32 L 531.50,483.44 L 531.91,483.43 L 532.31,483.33 L 533.92,482.50 L 537.26,480.50 L 538.36,479.82 L 540.57,478.43 L 542.05,477.10 L 542.69,476.48 L 543.33,475.86 L 543.66,475.55 L 544.65,474.77 L 545.09,474.47 L 545.79,474.11 L 546.28,473.93 L 546.91,473.82 L 548.84,473.23 L 548.92,473.18 L 549.24,473.00 L 549.26,472.99 L 549.27,472.98 L 549.40,472.85 L 549.55,472.56 L 549.58,472.49 L 549.59,472.47 L 549.60,472.43 L 549.69,471.99 L 549.64,471.48 L 549.32,469.80 L 549.31,469.11 L 549.35,468.62 L 549.52,468.25 L 549.68,467.88 L 549.89,467.26 L 550.01,467.06 L 550.08,466.93 L 550.32,466.60 L 550.65,466.22 L 551.61,465.22 L 551.91,464.91 L 552.23,464.53 L 552.24,464.52 L 552.26,464.50 L 552.37,464.37 L 552.40,464.31 L 552.59,463.93 L 552.67,463.56 L 552.69,463.20 L 552.75,462.78 L 553.07,461.39 L 553.22,460.70 L 553.69,460.18 L 554.03,459.80 L 554.64,458.86 L 554.98,458.34 L 555.05,458.23 L 555.30,457.82 L 556.66,455.56 L 556.99,455.01 L 558.01,453.40 L 559.07,451.75 L 559.98,450.48 L 560.16,450.24 L 560.37,450.06 L 561.72,448.89 L 562.72,447.86 L 563.13,447.53 L 563.90,446.93 L 564.64,446.45 L 565.26,446.13 L 566.06,445.75 L 566.36,445.56 L 566.39,445.55 L 566.59,445.42 L 568.03,444.55 L 568.94,443.94 L 569.67,443.48 L 570.42,443.08 L 570.58,443.00 L 571.64,442.52 L 573.36,442.04 L 574.30,441.87 L 575.35,441.73 L 576.78,441.45 L 577.32,441.35 L 578.44,440.99 L 579.12,440.79 L 580.64,440.31 L 581.55,440.05 L 582.15,439.97 L 582.52,439.98 L 582.91,440.06 L 584.40,440.33 L 585.46,440.52 L 587.36,440.87 L 588.33,441.01 L 589.93,441.18 L 590.79,441.31 L 592.14,441.37 L 592.55,441.35 L 592.82,441.26 L 594.39,440.36 L 594.83,440.13 L 595.50,439.69 L 595.99,439.36 L 596.19,439.24 L 597.49,438.37 L 597.60,438.30 L 598.03,438.05 L 598.85,437.50 L 599.87,436.90 L 600.86,436.20 L 601.53,435.68 L 601.65,435.60 L 602.59,434.97 L 604.10,434.11 L 604.98,433.44 L 605.70,432.92 L 605.89,432.75 L 605.90,432.75 L 605.94,432.71 L 606.62,432.13 L 607.92,431.00 L 608.64,430.38 L 609.19,429.82 L 609.43,429.60 L 610.14,428.94 L 611.65,427.70 L 611.97,427.44 L 612.17,427.29 L 613.06,426.62 L 614.07,425.92 L 614.85,425.45 L 616.47,424.38 L 617.36,423.87 L 618.06,423.49 L 619.34,422.93 L 619.96,422.75 L 620.61,422.54 L 621.25,422.43 L 622.31,422.25 L 623.31,422.10 L 623.90,422.06 L 624.92,421.93 L 625.74,421.84 L 625.75,421.84 L 626.18,421.74 L 626.74,421.54 L 627.13,421.34 L 627.35,421.15 L 627.41,421.13 L 627.64,420.88 L 628.61,419.40 L 629.48,417.63 L 630.28,415.87 L 630.74,414.12 L 631.22,412.19 L 631.60,410.42 L 631.90,408.71 L 631.94,408.45 L 632.27,406.64 L 632.04,404.76 L 631.85,403.23 L 631.80,402.85 L 631.45,399.09 L 631.23,397.33 L 630.82,395.33 L 630.10,391.60 L 629.64,389.76 L 629.14,387.85 L 627.84,384.32 L 626.43,380.65 L 626.06,379.75 L 625.52,379.02 L 624.21,377.55 L 621.69,374.69 L 620.29,373.04 L 619.17,371.73 L 618.08,370.27 L 617.10,368.69 L 616.31,367.03 L 614.54,363.62 L 613.62,361.99 L 612.52,360.42 L 610.38,357.06 L 610.18,356.73 L 608.39,353.88 L 605.97,350.88 L 605.90,350.79 L 603.53,347.74 L 602.37,346.30 L 601.08,344.77 L 599.88,343.32 L 599.19,341.50 L 599.03,341.24 L 598.23,339.99 L 597.61,339.24 L 596.99,338.49 L 595.66,337.10 L 594.24,335.66 L 592.79,334.55 L 592.04,333.94 L 590.98,333.67 L 590.05,333.42 L 589.10,332.90 L 587.52,331.74 L 586.05,330.43 L 584.67,329.11 L 583.50,327.66 L 582.38,326.20 L 581.29,324.63 L 581.25,324.57 L 581.20,324.51 L 580.21,323.08 L 578.03,319.91 L 576.88,318.31 L 575.79,316.81 L 574.27,315.06 L 573.28,313.91 L 571.92,312.42 L 570.67,311.06 L 569.34,309.70 L 568.01,308.34 L 566.84,306.77 L 566.83,306.76 L 566.81,306.73 L 565.98,305.13 L 565.29,303.33 L 564.48,301.71 L 564.24,301.34 L 563.85,300.73 L 563.81,300.67 L 563.36,300.25 L 562.39,299.34 L 561.92,298.90 L 560.41,297.48 L 558.71,295.95 L 557.58,294.94 L 556.66,294.19 L 555.38,293.16 L 553.39,291.55 L 553.17,291.37 L 553.13,291.35 L 551.96,290.68 L 550.26,289.66 L 549.01,288.93 L 548.11,288.38 L 547.15,287.84 L 546.36,287.42 L 545.94,287.11 L 544.80,286.16 L 543.97,285.48 L 542.87,284.58 L 541.81,283.70 L 541.07,283.08 L 539.96,282.18 L 539.30,281.58 L 538.93,281.32 L 534.44,277.45 L 532.69,275.66 L 531.73,274.68 L 530.74,273.15 L 529.26,269.74 L 527.42,266.37 L 527.02,265.30 L 526.41,263.67 L 526.07,262.78 L 525.72,261.10 L 525.62,260.59 L 525.31,259.08 L 525.22,257.29 L 525.11,255.40 L 525.18,254.47 L 525.26,253.49 L 525.26,253.48 L 525.27,253.26 L 525.52,251.80 L 525.63,251.50 L 525.94,250.58 L 526.14,250.02 L 526.20,249.87 L 526.91,248.29 L 527.33,247.42 L 527.73,246.61 L 528.65,244.14 L 529.10,242.73 L 529.45,241.27 L 529.80,239.24 L 530.59,235.61 L 530.93,233.77 L 530.99,233.20 L 531.08,232.64 L 531.28,231.12 L 531.34,230.52 L 531.40,229.11 L 531.42,228.58 L 531.52,227.50 L 531.64,226.22 L 531.67,225.16 L 525.97,225.49 L 513.04,226.25 L 491.79,229.88 L 431.82,239.59 L 413.60,243.53 L 399.44,248.11 L 365.44,220.21 L 362.98,218.29 L 344.74,204.05 L 288.33,161.02 L 255.02,139.32 L 238.56,130.97 L 230.52,126.89 L 228.26,125.74 L 191.91,108.11 L 171.18,95.73 L 150.06,80.24 L 137.22,70.68 L 129.50,64.93 L 114.80,56.72 L 102.08,50.68 L 89.47,46.23 L 83.01,41.43 L 76.55,36.63 L 83.00,31.87 L 86.86,26.42 L 90.62,19.82 L 91.54,15.52 L 82.79,15.72 L 82.16,13.59 Z" fill="#1d3672" stroke="#333" stroke-width="1"/>
</svg>