<svg xmlns="http://www.w3.org/2000/svg" width="800" height="600" viewBox="0 0 800 600">
<path d="M 148.68,10.02 L 148.61,10.00 L 147.91,10.47 L 147.20,10.94 L 146.49,11.71 L 146.01,12.02 L 145.13,12.43 L 144.32,13.14 L 142.69,13.86 L 142.14,14.20 L 141.86,14.37 L 141.27,15.34 L 139.96,15.96 L 138.39,16.88 L 136.64,18.31 L 135.34,18.21 L 133.76,18.41 L 131.25,18.72 L 128.64,19.38 L 126.36,19.33 L 124.76,18.78 L 124.68,18.72 L 123.74,18.16 L 122.83,17.66 L 121.88,17.24 L 121.73,17.31 L 121.35,17.13 L 121.28,17.53 L 121.26,17.53 L 120.80,17.85 L 120.96,18.61 L 120.88,19.58 L 120.37,21.08 L 119.99,23.31 L 119.68,24.08 L 119.04,25.21 L 118.44,26.08 L 118.03,26.49 L 115.44,28.11 L 114.29,29.13 L 114.25,29.27 L 114.08,29.39 L 113.79,30.44 L 113.31,31.65 L 113.10,32.83 L 112.93,33.33 L 113.04,34.61 L 113.04,34.77 L 112.88,35.48 L 112.83,35.70 L 110.39,37.86 L 107.91,43.80 L 107.83,44.00 L 107.68,44.77 L 107.55,45.49 L 109.75,48.40 L 109.83,48.51 L 109.94,48.59 L 111.85,50.15 L 115.05,51.33 L 117.84,51.45 L 118.64,51.48 L 119.35,54.36 L 119.36,54.72 L 119.46,57.29 L 116.02,66.36 L 115.11,69.33 L 114.24,72.17 L 113.80,72.99 L 112.82,74.83 L 112.33,75.26 L 111.84,75.70 L 109.56,76.42 L 103.24,77.95 L 99.82,78.56 L 97.99,79.29 L 93.78,80.97 L 93.81,81.02 L 93.82,81.03 L 94.36,81.83 L 95.34,83.26 L 95.74,83.84 L 96.71,86.24 L 97.58,89.04 L 97.35,92.73 L 96.16,95.65 L 91.90,100.75 L 90.53,101.99 L 90.21,102.28 L 89.34,102.77 L 89.12,102.90 L 82.97,103.92 L 78.25,105.83 L 76.77,106.43 L 75.63,106.84 L 74.22,107.35 L 74.18,107.34 L 73.74,107.25 L 72.97,107.09 L 72.91,107.08 L 71.64,106.40 L 69.14,105.77 L 66.71,105.77 L 63.46,105.83 L 62.58,106.17 L 61.75,107.26 L 60.41,108.53 L 58.83,110.43 L 57.21,111.97 L 56.60,112.52 L 54.40,114.45 L 54.29,114.61 L 52.29,116.40 L 50.02,117.42 L 48.14,118.10 L 47.69,118.47 L 45.56,119.43 L 42.02,119.77 L 40.75,119.94 L 38.18,119.96 L 36.02,120.10 L 33.83,121.97 L 33.82,121.98 L 32.54,123.05 L 31.81,123.96 L 31.21,124.71 L 30.54,125.48 L 30.54,125.53 L 30.17,125.99 L 30.11,130.60 L 31.01,132.80 L 32.88,137.42 L 33.34,138.20 L 33.51,138.97 L 34.38,139.09 L 35.63,138.72 L 38.29,138.78 L 38.58,138.83 L 41.06,139.66 L 41.24,139.76 L 47.06,142.49 L 49.54,144.02 L 53.75,147.33 L 54.32,149.00 L 54.66,150.57 L 54.53,151.89 L 55.14,152.47 L 55.14,152.48 L 55.18,152.51 L 57.28,154.52 L 58.26,155.51 L 58.18,155.96 L 56.82,156.97 L 56.54,157.10 L 56.37,157.30 L 55.08,158.26 L 54.18,159.89 L 53.99,160.11 L 53.99,160.22 L 53.94,160.32 L 53.83,163.23 L 54.11,163.88 L 54.11,164.24 L 54.26,165.62 L 55.11,164.89 L 56.03,163.59 L 57.23,162.27 L 57.70,161.90 L 59.76,160.83 L 60.70,160.60 L 61.22,160.47 L 63.95,161.08 L 65.69,161.39 L 68.73,160.21 L 69.68,159.92 L 72.10,159.19 L 72.14,159.19 L 73.39,159.33 L 74.79,160.31 L 75.99,162.42 L 76.40,163.14 L 76.45,163.24 L 76.65,165.07 L 76.97,166.40 L 77.57,166.77 L 78.55,167.02 L 78.88,167.32 L 78.98,167.99 L 79.47,169.79 L 80.45,170.70 L 80.46,170.71 L 80.65,170.90 L 81.21,171.43 L 81.70,172.91 L 81.82,173.55 L 82.14,175.27 L 82.29,177.01 L 81.70,177.99 L 80.34,179.11 L 79.96,179.93 L 80.02,180.12 L 80.23,180.75 L 81.48,182.70 L 81.65,182.96 L 82.57,183.56 L 83.05,183.99 L 83.22,184.13 L 83.27,184.42 L 83.33,184.70 L 83.46,188.28 L 83.49,189.10 L 83.87,189.56 L 85.07,189.97 L 85.88,190.74 L 87.08,192.07 L 87.15,192.41 L 87.29,193.10 L 87.02,194.48 L 86.26,195.40 L 86.20,195.92 L 86.26,196.07 L 86.58,197.09 L 86.58,197.58 L 86.58,198.37 L 85.72,200.11 L 85.72,200.12 L 85.99,200.99 L 90.01,202.32 L 92.67,203.14 L 92.95,203.44 L 92.82,203.58 L 92.45,204.01 L 90.55,204.67 L 89.52,205.46 L 89.23,206.43 L 88.92,207.41 L 88.98,209.46 L 90.26,211.32 L 90.28,211.35 L 91.64,212.50 L 91.81,212.65 L 91.89,212.78 L 92.65,213.20 L 94.01,213.71 L 96.11,213.99 L 99.29,214.24 L 100.94,214.21 L 106.05,213.80 L 107.62,213.59 L 110.21,213.02 L 113.40,212.65 L 115.38,212.72 L 118.05,212.92 L 118.41,212.63 L 119.44,212.68 L 120.21,212.72 L 120.74,212.75 L 125.09,214.24 L 129.87,216.85 L 134.39,219.52 L 136.67,220.14 L 140.36,220.08 L 142.65,219.80 L 143.71,219.90 L 144.23,219.95 L 147.49,221.85 L 150.26,222.98 L 151.52,223.54 L 153.90,224.88 L 155.05,225.33 L 157.00,226.11 L 157.87,226.78 L 158.90,227.85 L 160.42,230.21 L 160.96,234.34 L 161.19,236.05 L 161.45,238.61 L 161.66,242.16 L 162.48,244.72 L 163.62,247.34 L 164.82,248.60 L 164.98,248.77 L 165.63,250.20 L 165.73,251.19 L 166.21,255.76 L 166.53,257.09 L 168.00,263.29 L 168.21,266.06 L 168.05,266.93 L 167.40,267.90 L 166.37,271.01 L 166.36,271.02 L 165.22,277.04 L 163.86,282.62 L 162.55,288.20 L 162.00,291.81 L 162.17,293.04 L 162.82,294.33 L 163.00,294.44 L 163.20,294.57 L 164.29,295.29 L 167.17,295.97 L 170.83,296.59 L 171.29,296.67 L 174.12,297.15 L 175.90,297.23 L 177.71,297.31 L 178.21,297.27 L 179.70,297.18 L 181.68,297.05 L 183.59,297.09 L 184.10,297.18 L 185.93,297.50 L 187.25,297.93 L 189.01,298.51 L 189.68,298.73 L 190.77,299.40 L 191.05,299.80 L 191.05,299.81 L 191.31,300.16 L 191.42,300.82 L 191.53,301.50 L 191.49,301.58 L 191.40,301.82 L 190.49,304.06 L 189.90,305.39 L 189.43,305.75 L 187.88,306.93 L 183.10,310.36 L 179.02,312.81 L 168.35,318.97 L 159.43,324.85 L 154.27,329.05 L 153.24,330.59 L 152.96,331.51 L 152.96,331.52 L 152.04,334.59 L 151.11,337.00 L 150.47,338.85 L 149.92,339.71 L 150.14,340.99 L 150.41,341.85 L 150.41,341.87 L 150.41,341.89 L 150.24,342.73 L 149.70,344.27 L 149.43,345.81 L 148.93,346.74 L 148.88,347.91 L 149.09,348.47 L 149.39,349.29 L 149.64,349.96 L 150.46,351.50 L 150.98,351.80 L 151.32,352.01 L 151.44,352.30 L 151.54,352.57 L 151.05,354.62 L 150.72,356.11 L 150.13,357.62 L 150.20,361.05 L 150.31,362.17 L 150.28,362.68 L 149.76,364.32 L 149.63,364.98 L 149.75,365.70 L 149.80,366.69 L 149.91,367.10 L 150.11,367.76 L 147.52,368.25 L 144.84,368.89 L 142.28,370.35 L 139.11,372.80 L 136.56,375.09 L 135.81,375.96 L 134.76,377.19 L 134.18,378.24 L 133.54,380.64 L 133.28,382.66 L 133.50,387.35 L 133.12,390.24 L 132.81,393.19 L 132.45,395.12 L 132.38,395.50 L 132.01,396.52 L 130.84,397.57 L 129.53,398.27 L 126.29,399.20 L 123.28,399.71 L 119.18,400.26 L 116.35,400.85 L 115.13,401.24 L 113.91,402.14 L 112.60,404.18 L 111.44,406.54 L 109.83,408.59 L 109.12,409.16 L 109.09,409.18 L 109.11,409.20 L 110.12,410.25 L 110.62,410.65 L 110.62,410.65 L 110.74,410.92 L 110.74,411.29 L 109.64,412.95 L 108.89,413.63 L 108.47,414.18 L 108.14,414.88 L 107.98,415.57 L 107.54,416.47 L 107.50,416.52 L 106.83,417.37 L 104.90,420.31 L 104.60,421.01 L 104.45,421.67 L 104.18,422.08 L 103.69,422.64 L 103.13,423.94 L 103.08,424.02 L 102.55,424.82 L 102.23,425.31 L 101.22,427.39 L 100.86,427.84 L 100.48,428.59 L 100.13,429.59 L 99.76,430.28 L 99.66,430.74 L 99.68,431.19 L 99.06,432.19 L 97.52,433.88 L 95.09,435.66 L 94.73,435.55 L 94.14,435.13 L 93.47,435.07 L 92.65,434.57 L 91.99,434.45 L 92.30,434.93 L 92.49,435.52 L 92.49,436.13 L 92.39,436.67 L 91.73,438.13 L 91.74,438.64 L 91.87,439.22 L 92.30,439.92 L 92.30,439.93 L 92.51,440.51 L 92.78,441.90 L 92.38,442.44 L 92.33,442.51 L 92.11,442.87 L 91.99,443.46 L 91.68,443.70 L 91.31,444.10 L 91.21,444.45 L 91.05,445.60 L 90.73,446.12 L 90.57,446.45 L 90.52,447.14 L 90.30,447.55 L 89.31,448.58 L 89.20,449.00 L 89.19,449.73 L 89.36,450.25 L 89.25,450.73 L 88.53,453.82 L 87.47,456.05 L 87.33,456.22 L 84.48,459.75 L 82.69,461.85 L 81.28,463.07 L 79.40,465.25 L 79.28,465.59 L 79.15,465.82 L 79.05,466.51 L 78.77,467.11 L 78.71,467.62 L 78.48,468.06 L 78.30,468.59 L 78.26,469.24 L 78.15,469.75 L 77.20,471.85 L 76.98,472.09 L 76.70,472.63 L 76.30,473.10 L 76.30,473.66 L 76.62,474.78 L 76.64,474.85 L 76.57,475.05 L 76.57,475.06 L 76.18,475.73 L 75.95,476.54 L 76.01,477.61 L 76.10,477.79 L 76.22,478.03 L 76.72,478.26 L 77.40,478.14 L 77.94,478.10 L 78.26,478.21 L 78.73,478.47 L 78.83,479.00 L 78.87,480.86 L 78.79,481.36 L 78.78,481.44 L 78.75,482.49 L 78.91,483.29 L 79.21,484.18 L 79.24,484.26 L 79.44,484.72 L 79.42,485.25 L 79.42,485.26 L 79.42,485.28 L 79.50,485.59 L 79.35,485.63 L 77.66,486.08 L 76.42,486.79 L 75.50,487.30 L 73.88,488.95 L 72.73,491.16 L 72.23,492.30 L 72.06,493.44 L 72.27,495.22 L 73.31,497.35 L 73.39,497.52 L 73.46,497.67 L 73.97,498.93 L 74.10,499.53 L 73.88,500.01 L 73.25,500.39 L 72.51,500.58 L 71.50,500.56 L 70.09,499.96 L 68.66,498.65 L 68.01,497.86 L 67.82,497.63 L 67.67,497.36 L 67.18,496.52 L 66.94,496.17 L 66.42,495.44 L 66.41,495.43 L 66.04,495.03 L 65.52,494.86 L 65.06,494.99 L 64.61,495.60 L 64.19,497.06 L 63.75,498.16 L 63.37,500.12 L 63.23,501.89 L 62.93,502.90 L 62.65,503.29 L 62.38,503.68 L 61.11,504.13 L 58.65,504.88 L 56.41,505.38 L 55.32,505.54 L 53.91,505.31 L 52.62,504.63 L 51.67,504.55 L 50.87,504.68 L 50.56,504.90 L 50.36,505.58 L 50.57,506.09 L 51.28,507.83 L 51.77,509.04 L 52.47,511.39 L 52.65,513.56 L 52.72,515.15 L 52.64,515.55 L 52.23,516.01 L 51.56,516.21 L 50.46,515.98 L 48.19,513.29 L 47.41,512.23 L 46.56,511.44 L 45.88,511.09 L 45.28,510.98 L 44.11,510.96 L 42.99,511.12 L 42.07,511.52 L 41.67,511.86 L 40.79,512.62 L 40.33,513.32 L 39.70,514.65 L 38.91,517.39 L 38.19,519.51 L 37.77,521.31 L 38.01,523.09 L 38.04,524.24 L 37.72,525.34 L 37.16,526.00 L 36.37,526.53 L 35.14,526.89 L 33.88,526.87 L 31.65,526.20 L 27.16,524.30 L 24.65,523.37 L 23.55,523.24 L 22.69,523.41 L 21.42,523.95 L 21.39,523.97 L 18.13,526.70 L 15.73,528.22 L 13.51,529.22 L 12.15,529.62 L 11.05,530.17 L 10.78,531.02 L 11.16,533.03 L 11.37,533.81 L 11.15,534.92 L 10.27,535.68 L 10.00,536.14 L 10.12,536.36 L 11.05,537.93 L 11.58,539.73 L 11.48,544.85 L 10.87,548.55 L 10.98,550.53 L 11.02,551.29 L 11.25,553.63 L 11.30,554.09 L 11.79,556.40 L 12.99,559.23 L 14.33,561.86 L 14.42,561.99 L 15.63,564.45 L 18.64,566.24 L 19.10,565.97 L 20.05,565.41 L 23.15,563.81 L 25.89,561.85 L 28.35,559.14 L 33.89,554.60 L 36.61,550.43 L 39.48,547.69 L 41.79,545.21 L 47.36,543.05 L 49.56,543.03 L 51.30,543.80 L 52.54,545.34 L 53.07,547.31 L 53.06,550.15 L 52.71,555.16 L 52.54,559.07 L 52.57,560.00 L 52.60,560.89 L 52.60,560.92 L 53.06,562.89 L 54.75,566.42 L 55.23,566.97 L 55.79,567.62 L 56.12,568.23 L 57.11,570.04 L 58.42,571.99 L 61.52,577.95 L 62.13,579.79 L 62.92,582.73 L 63.45,586.34 L 63.79,587.94 L 64.09,589.31 L 65.62,589.85 L 66.64,590.00 L 68.02,589.60 L 69.85,588.73 L 70.69,588.15 L 71.57,586.43 L 71.59,586.39 L 71.99,584.38 L 71.99,581.69 L 71.75,580.72 L 70.98,578.92 L 69.89,577.23 L 68.67,575.74 L 66.81,573.65 L 65.42,571.70 L 65.04,570.62 L 65.11,569.56 L 65.27,568.64 L 66.34,566.85 L 67.00,565.96 L 68.12,565.41 L 69.63,564.98 L 71.18,564.85 L 72.03,564.81 L 72.89,564.76 L 75.64,565.47 L 77.77,566.14 L 79.69,566.80 L 82.56,567.53 L 84.72,567.93 L 85.99,567.93 L 88.16,568.38 L 90.27,568.41 L 91.35,568.30 L 93.39,568.32 L 95.56,568.23 L 96.71,568.11 L 97.61,567.85 L 100.76,567.39 L 102.78,566.70 L 104.68,565.61 L 106.38,564.44 L 108.77,562.39 L 110.02,560.61 L 110.65,558.93 L 110.91,555.81 L 110.65,554.83 L 108.99,552.42 L 108.11,550.42 L 107.75,549.38 L 107.13,546.77 L 107.35,544.85 L 108.11,542.98 L 108.86,542.28 L 109.85,541.70 L 111.75,541.60 L 114.00,542.13 L 115.92,542.87 L 117.98,543.75 L 118.96,544.34 L 120.97,545.93 L 122.26,547.38 L 123.28,548.65 L 124.80,550.61 L 125.59,552.45 L 126.96,556.30 L 127.23,557.28 L 128.14,559.62 L 128.95,560.93 L 129.83,561.91 L 131.04,562.91 L 132.07,563.32 L 132.97,563.40 L 134.00,563.21 L 135.52,562.49 L 135.59,561.79 L 135.47,560.92 L 135.35,560.06 L 134.80,557.95 L 134.14,556.23 L 133.16,553.34 L 132.70,551.58 L 132.40,549.53 L 132.47,546.62 L 132.69,545.63 L 133.26,544.56 L 134.51,543.28 L 137.16,540.62 L 138.67,539.22 L 138.84,539.07 L 141.16,537.14 L 144.29,535.28 L 146.18,534.74 L 148.43,534.54 L 150.53,534.63 L 152.56,535.37 L 153.91,536.60 L 154.94,538.48 L 155.83,541.25 L 156.51,543.51 L 157.15,544.94 L 158.77,547.56 L 159.90,549.21 L 160.85,549.86 L 161.96,550.19 L 163.02,550.16 L 163.83,549.62 L 164.37,548.70 L 163.83,546.71 L 162.70,543.54 L 162.14,542.01 L 161.80,540.21 L 162.02,538.67 L 162.96,537.36 L 164.07,536.87 L 165.04,536.65 L 166.59,536.78 L 169.01,537.53 L 171.16,538.65 L 172.76,539.38 L 174.72,540.45 L 179.24,542.70 L 181.65,543.98 L 183.22,544.37 L 184.50,544.39 L 186.37,544.37 L 187.62,544.07 L 189.07,543.28 L 189.51,542.99 L 190.29,541.88 L 190.31,540.87 L 189.60,539.58 L 187.92,538.27 L 185.75,537.51 L 182.52,536.89 L 180.45,535.96 L 180.04,535.19 L 180.29,533.81 L 180.85,532.57 L 181.90,531.76 L 183.80,530.91 L 184.72,530.60 L 186.83,529.90 L 190.47,528.70 L 195.20,527.39 L 197.17,526.88 L 199.03,526.40 L 200.17,526.08 L 201.72,525.76 L 203.85,525.57 L 206.09,525.10 L 207.78,524.66 L 208.87,524.28 L 211.16,523.18 L 212.89,521.79 L 214.49,520.11 L 214.69,519.85 L 215.45,518.88 L 216.34,517.81 L 218.01,516.07 L 219.22,514.78 L 220.11,514.15 L 221.54,513.52 L 223.14,513.21 L 224.24,513.25 L 224.79,513.38 L 224.80,513.38 L 225.68,514.15 L 226.20,515.42 L 226.30,516.48 L 226.22,516.89 L 226.18,517.42 L 226.02,517.97 L 225.83,518.41 L 225.57,518.81 L 224.99,519.63 L 224.06,520.81 L 223.66,521.20 L 222.70,522.28 L 222.28,522.76 L 221.57,523.86 L 220.99,524.88 L 220.87,525.21 L 220.60,525.75 L 220.62,526.62 L 220.72,527.42 L 220.74,527.79 L 220.95,528.36 L 221.19,528.77 L 221.98,529.89 L 223.00,530.91 L 223.86,531.57 L 223.89,531.59 L 225.01,532.57 L 227.29,534.16 L 228.01,534.79 L 228.99,535.93 L 229.42,536.36 L 230.65,538.37 L 231.10,539.25 L 231.92,540.02 L 232.73,540.69 L 234.14,541.27 L 235.29,541.38 L 236.39,541.21 L 237.31,540.75 L 238.05,540.03 L 238.66,539.32 L 239.09,538.21 L 239.53,536.99 L 239.93,535.97 L 240.09,535.59 L 240.11,534.73 L 239.87,533.74 L 239.47,533.17 L 239.02,532.78 L 236.51,532.25 L 234.18,532.06 L 233.05,531.97 L 232.02,531.72 L 230.71,530.66 L 230.13,529.82 L 230.01,529.35 L 229.76,527.49 L 229.73,527.03 L 229.38,526.09 L 228.93,524.93 L 228.81,523.91 L 229.13,522.92 L 229.36,522.28 L 229.94,521.79 L 230.83,521.30 L 232.45,520.85 L 233.98,520.58 L 234.84,520.74 L 237.37,522.48 L 239.40,523.90 L 240.50,524.53 L 241.55,525.05 L 243.03,525.00 L 244.01,524.53 L 244.67,523.68 L 244.79,523.32 L 244.70,522.85 L 244.47,522.08 L 243.24,520.25 L 243.04,519.77 L 242.29,518.54 L 242.14,517.63 L 242.16,516.67 L 242.59,515.79 L 243.60,514.46 L 244.02,514.14 L 244.63,514.10 L 245.22,514.21 L 246.19,514.47 L 247.12,514.94 L 248.07,515.58 L 248.44,515.91 L 249.32,516.51 L 250.05,517.28 L 250.22,517.48 L 251.02,518.42 L 251.63,519.42 L 252.21,520.41 L 253.05,521.78 L 253.96,522.93 L 254.79,523.60 L 255.75,524.16 L 256.62,524.32 L 257.15,524.34 L 257.29,524.29 L 258.00,524.04 L 259.26,523.14 L 260.51,522.36 L 262.82,520.34 L 264.39,518.79 L 264.86,517.56 L 265.02,517.05 L 265.01,516.37 L 264.99,513.71 L 265.02,512.08 L 265.25,510.94 L 265.82,510.26 L 266.35,510.01 L 266.61,510.05 L 267.62,510.60 L 268.75,511.51 L 269.81,512.39 L 271.04,513.61 L 272.31,514.86 L 273.14,515.33 L 274.51,515.46 L 275.09,515.11 L 276.03,513.57 L 277.39,512.22 L 278.42,511.91 L 280.65,511.81 L 282.28,511.68 L 283.75,511.34 L 284.15,511.09 L 285.23,510.59 L 287.56,508.49 L 288.99,507.45 L 289.73,507.45 L 290.39,507.80 L 290.46,508.77 L 290.43,510.21 L 290.39,511.12 L 290.82,511.53 L 292.39,511.88 L 293.87,512.16 L 294.31,512.32 L 294.71,512.50 L 295.17,513.32 L 295.70,514.32 L 296.10,515.24 L 296.34,516.99 L 296.40,517.15 L 296.74,518.10 L 297.57,519.17 L 298.90,520.30 L 300.73,520.99 L 302.53,520.99 L 303.89,520.30 L 305.75,518.97 L 307.21,519.36 L 308.34,520.27 L 309.93,520.92 L 311.47,521.21 L 312.80,521.02 L 314.19,520.30 L 315.62,518.53 L 315.66,518.47 L 316.69,515.99 L 318.34,514.93 L 319.74,514.27 L 320.67,513.58 L 322.90,513.23 L 324.96,512.42 L 326.69,511.57 L 328.22,511.35 L 328.80,511.36 L 329.40,511.38 L 330.30,511.55 L 331.37,512.02 L 331.97,512.25 L 333.13,513.08 L 334.23,514.03 L 334.55,514.45 L 335.38,514.97 L 335.90,515.34 L 336.57,515.46 L 337.51,515.40 L 338.00,515.32 L 338.56,515.04 L 338.95,514.75 L 339.60,513.99 L 339.90,513.53 L 340.24,513.11 L 340.69,512.67 L 341.63,512.28 L 342.78,511.83 L 343.81,511.27 L 344.25,510.96 L 344.81,510.19 L 345.58,509.20 L 345.84,508.98 L 346.01,508.83 L 346.57,508.64 L 347.27,508.71 L 347.58,508.76 L 347.87,508.80 L 348.84,509.18 L 349.81,509.56 L 350.99,509.61 L 351.58,509.55 L 353.02,509.19 L 354.05,508.82 L 354.27,508.64 L 354.51,508.46 L 355.39,507.73 L 356.17,506.97 L 356.84,506.22 L 357.48,505.31 L 357.76,504.36 L 358.04,503.42 L 358.13,502.82 L 358.47,501.44 L 358.94,500.40 L 359.22,500.00 L 359.51,499.64 L 359.99,499.28 L 360.89,498.92 L 361.38,498.75 L 362.02,498.65 L 363.07,498.55 L 364.13,498.67 L 365.20,499.11 L 366.11,499.57 L 366.88,500.12 L 367.75,500.81 L 368.03,501.13 L 368.80,502.00 L 369.10,502.37 L 369.79,503.00 L 370.20,503.33 L 371.40,504.27 L 372.28,504.62 L 373.22,504.82 L 373.72,504.60 L 374.71,503.79 L 375.16,503.02 L 375.45,502.62 L 375.72,502.18 L 375.99,501.74 L 377.02,500.57 L 377.42,500.19 L 378.39,499.06 L 378.69,498.67 L 379.10,498.31 L 380.01,497.31 L 380.63,496.60 L 381.00,496.22 L 381.82,495.51 L 382.65,494.87 L 384.04,494.07 L 384.64,493.76 L 385.25,493.65 L 386.28,493.83 L 387.21,494.39 L 388.51,495.26 L 388.86,495.59 L 390.13,496.47 L 391.32,497.32 L 391.73,497.59 L 392.68,498.18 L 393.51,498.77 L 394.04,498.88 L 394.68,498.82 L 395.39,498.56 L 396.19,498.02 L 397.12,497.43 L 397.80,496.83 L 397.93,496.71 L 398.37,496.35 L 399.07,495.75 L 399.70,495.09 L 399.99,494.78 L 400.76,493.98 L 401.44,493.31 L 401.93,493.00 L 402.89,492.43 L 403.81,492.10 L 404.78,491.96 L 405.74,491.93 L 406.59,491.81 L 407.44,491.73 L 408.52,491.67 L 409.55,491.71 L 410.75,491.72 L 411.72,491.69 L 412.65,491.65 L 414.17,491.67 L 415.26,491.68 L 416.69,491.71 L 417.55,491.68 L 417.83,491.65 L 418.07,491.57 L 418.45,491.34 L 419.11,490.77 L 420.17,489.83 L 420.53,489.47 L 421.79,488.46 L 423.01,487.64 L 424.13,486.82 L 424.54,486.50 L 425.04,486.14 L 425.81,485.68 L 426.64,485.06 L 427.53,484.44 L 427.89,484.10 L 428.45,483.46 L 428.80,482.93 L 429.29,482.07 L 429.76,481.10 L 430.16,480.32 L 430.46,480.08 L 430.71,479.94 L 430.74,479.93 L 430.78,479.92 L 430.86,479.90 L 431.23,479.94 L 431.80,480.27 L 432.42,480.54 L 433.13,480.82 L 433.71,480.88 L 434.33,480.99 L 435.39,481.39 L 437.15,482.33 L 438.10,482.66 L 439.88,482.86 L 440.89,482.84 L 441.56,482.73 L 442.14,482.55 L 443.15,482.13 L 444.14,481.61 L 445.11,481.24 L 445.89,480.95 L 447.23,480.78 L 447.80,480.77 L 448.56,480.78 L 449.57,480.85 L 450.57,480.74 L 451.25,480.67 L 451.79,480.54 L 452.58,480.24 L 453.06,479.92 L 453.96,479.05 L 454.78,478.20 L 455.33,477.76 L 456.10,477.28 L 456.77,476.94 L 457.75,476.62 L 458.76,476.32 L 459.97,475.98 L 460.70,475.79 L 461.57,475.71 L 462.31,475.49 L 463.44,475.01 L 465.03,474.36 L 466.73,473.74 L 467.85,473.36 L 468.32,473.29 L 469.11,473.22 L 469.58,473.28 L 470.15,473.48 L 471.29,474.17 L 472.27,474.93 L 473.58,476.23 L 474.36,476.94 L 475.13,477.39 L 476.01,477.95 L 477.74,479.02 L 478.69,479.59 L 479.40,479.83 L 479.75,479.83 L 480.05,479.75 L 480.37,479.48 L 480.72,478.97 L 481.08,478.47 L 481.87,477.65 L 482.41,477.11 L 482.80,476.58 L 482.93,476.29 L 483.01,475.98 L 482.98,475.51 L 482.85,475.11 L 482.53,474.64 L 482.16,474.29 L 481.58,474.07 L 480.83,473.93 L 479.48,473.95 L 478.42,473.88 L 477.83,473.77 L 477.09,473.57 L 476.63,473.32 L 476.22,472.88 L 475.98,472.36 L 475.87,471.91 L 475.87,471.10 L 475.90,470.14 L 476.26,468.53 L 476.54,467.58 L 476.95,466.83 L 477.30,466.44 L 477.63,466.25 L 478.46,466.01 L 478.82,465.90 L 479.17,465.88 L 479.53,465.87 L 480.07,465.99 L 481.85,466.64 L 483.13,467.20 L 484.01,467.49 L 485.40,467.53 L 486.46,467.37 L 487.12,467.22 L 488.08,466.80 L 488.85,466.33 L 489.14,465.95 L 489.20,465.39 L 489.13,464.54 L 489.23,464.01 L 489.42,463.78 L 489.65,463.66 L 489.97,463.67 L 490.44,463.82 L 491.06,464.17 L 491.52,464.66 L 492.55,465.43 L 493.12,465.78 L 493.89,466.04 L 494.93,466.19 L 496.72,466.17 L 498.08,466.06 L 499.91,465.88 L 501.08,465.66 L 502.01,465.44 L 502.41,465.22 L 502.68,464.96 L 502.92,464.55 L 503.14,463.82 L 503.28,463.29 L 503.29,463.14 L 503.25,462.99 L 503.19,462.85 L 503.01,462.71 L 502.50,462.13 L 502.29,461.72 L 502.05,460.95 L 501.88,460.28 L 501.90,460.07 L 501.99,459.89 L 502.32,459.63 L 502.65,459.51 L 503.05,459.41 L 503.42,459.26 L 503.85,459.09 L 504.34,458.87 L 504.67,458.69 L 505.17,458.35 L 505.58,458.05 L 505.86,457.76 L 506.06,457.49 L 506.31,457.31 L 506.76,457.08 L 507.63,456.57 L 508.26,456.13 L 508.65,455.72 L 509.25,455.13 L 509.64,454.71 L 510.13,454.24 L 510.54,453.98 L 510.82,453.66 L 511.12,453.24 L 511.38,452.70 L 511.61,452.10 L 511.84,451.47 L 512.20,450.99 L 512.63,450.73 L 513.20,450.60 L 514.07,450.54 L 515.40,450.57 L 516.33,450.62 L 517.30,450.79 L 517.65,450.85 L 517.83,450.79 L 518.32,450.58 L 518.88,450.12 L 519.33,449.75 L 519.81,449.34 L 520.16,449.22 L 520.51,449.30 L 520.86,449.50 L 521.53,449.86 L 522.59,450.10 L 523.28,450.15 L 523.84,450.18 L 524.18,450.15 L 524.48,450.01 L 524.83,449.69 L 525.25,449.33 L 525.62,448.61 L 525.91,448.04 L 526.04,447.90 L 526.18,447.86 L 526.46,447.87 L 527.03,447.94 L 527.95,448.00 L 528.69,447.92 L 529.13,447.82 L 529.74,447.68 L 529.96,447.68 L 530.04,447.61 L 530.27,447.31 L 530.55,447.09 L 530.81,446.95 L 531.18,446.84 L 531.47,446.81 L 531.70,446.70 L 532.02,446.41 L 534.27,449.18 L 535.21,450.45 L 536.07,450.81 L 537.02,451.06 L 538.58,451.50 L 539.49,451.85 L 541.01,452.28 L 542.36,452.59 L 544.54,453.82 L 545.07,453.82 L 546.53,454.12 L 548.57,453.60 L 549.55,453.37 L 550.04,453.21 L 550.45,453.24 L 550.90,453.39 L 551.77,453.82 L 552.78,454.24 L 553.76,454.68 L 554.68,455.16 L 557.02,455.89 L 558.98,458.19 L 559.62,459.01 L 559.93,459.32 L 560.22,459.74 L 560.45,460.05 L 560.92,460.31 L 561.92,460.56 L 562.36,460.66 L 563.90,460.46 L 565.00,460.49 L 566.57,460.46 L 567.13,460.46 L 568.05,460.21 L 569.02,460.00 L 570.00,459.78 L 570.46,459.68 L 571.09,459.32 L 572.36,458.42 L 573.34,457.43 L 573.41,457.36 L 574.17,456.52 L 574.53,455.62 L 574.93,454.61 L 575.21,454.07 L 576.23,452.65 L 577.43,451.06 L 578.43,449.00 L 579.60,448.58 L 580.00,448.43 L 580.41,448.28 L 581.63,449.15 L 582.64,449.67 L 583.43,450.31 L 584.34,450.77 L 585.83,451.26 L 587.20,451.81 L 588.69,452.30 L 590.63,455.08 L 593.76,455.28 L 594.73,455.44 L 595.68,455.42 L 596.52,454.48 L 598.71,455.17 L 603.87,456.57 L 605.86,457.08 L 606.95,457.35 L 607.99,457.53 L 613.58,456.99 L 615.01,456.95 L 616.43,456.91 L 619.01,456.73 L 622.51,456.48 L 626.51,456.44 L 627.46,456.37 L 629.51,455.95 L 630.52,455.64 L 631.06,455.58 L 631.53,455.23 L 633.95,452.70 L 634.27,452.40 L 635.48,452.70 L 635.79,452.70 L 636.24,452.52 L 636.47,452.32 L 636.99,451.99 L 638.10,451.66 L 638.89,451.46 L 640.43,450.75 L 641.09,450.52 L 642.15,449.81 L 642.84,449.30 L 643.64,448.07 L 644.09,447.20 L 644.89,446.32 L 645.73,445.43 L 646.34,444.88 L 647.01,444.35 L 647.48,443.51 L 647.72,442.69 L 647.75,442.38 L 646.99,442.51 L 645.68,442.36 L 644.82,442.36 L 644.63,442.36 L 643.53,442.54 L 643.13,442.18 L 642.03,441.63 L 641.40,441.02 L 640.60,439.92 L 639.44,438.78 L 637.77,437.18 L 637.38,437.05 L 637.47,433.69 L 637.60,433.20 L 637.56,432.63 L 637.38,432.27 L 637.25,431.70 L 637.42,430.39 L 637.49,430.08 L 637.90,429.42 L 638.07,428.27 L 638.09,427.66 L 637.98,427.17 L 637.87,425.53 L 638.00,424.51 L 638.19,423.53 L 638.11,423.00 L 637.72,422.49 L 637.48,422.00 L 637.76,421.45 L 637.96,421.11 L 637.85,420.70 L 637.81,420.49 L 638.15,420.09 L 638.75,419.76 L 639.83,419.48 L 640.59,418.93 L 641.32,418.09 L 641.58,417.69 L 641.82,417.45 L 641.22,416.71 L 640.22,415.08 L 639.70,413.62 L 638.92,411.54 L 637.97,409.02 L 637.50,406.54 L 637.58,406.17 L 638.00,405.48 L 638.85,405.03 L 639.21,404.71 L 639.35,404.00 L 639.49,403.05 L 639.66,402.39 L 639.57,401.47 L 639.52,400.75 L 639.62,400.15 L 639.73,399.84 L 640.08,398.52 L 640.38,397.78 L 640.74,397.01 L 640.88,396.80 L 641.14,395.73 L 641.29,395.07 L 641.65,394.50 L 641.94,394.13 L 642.48,394.18 L 643.24,394.23 L 644.35,394.13 L 644.74,393.95 L 645.85,393.58 L 646.61,393.48 L 648.84,393.22 L 649.38,393.12 L 649.70,392.76 L 650.12,392.06 L 650.53,391.37 L 650.78,390.81 L 650.55,390.38 L 650.32,389.93 L 649.87,389.15 L 649.02,387.86 L 648.60,387.07 L 648.50,386.51 L 648.50,385.93 L 648.75,384.88 L 648.90,384.33 L 649.19,383.70 L 649.31,382.70 L 649.45,381.14 L 649.62,380.00 L 649.67,379.57 L 650.00,376.94 L 650.07,375.95 L 650.21,374.98 L 650.43,374.05 L 650.50,373.54 L 650.52,373.01 L 650.55,371.04 L 650.42,370.53 L 650.31,368.33 L 650.07,366.53 L 649.79,365.52 L 649.84,365.06 L 649.90,362.46 L 649.94,361.54 L 649.94,361.03 L 649.94,360.22 L 650.03,359.28 L 650.06,358.77 L 650.30,358.00 L 650.48,357.50 L 650.53,356.61 L 650.73,355.63 L 650.87,354.64 L 650.95,354.07 L 651.07,352.71 L 651.21,352.19 L 648.55,352.09 L 647.88,350.79 L 647.23,349.47 L 645.51,346.00 L 642.01,344.68 L 642.17,342.70 L 642.83,337.26 L 643.01,335.16 L 641.75,335.00 L 643.25,328.86 L 643.76,326.93 L 645.89,320.32 L 646.27,319.30 L 646.28,318.78 L 644.37,315.97 L 641.72,312.15 L 644.76,303.82 L 645.82,301.30 L 646.75,298.90 L 647.37,297.07 L 649.52,291.34 L 649.93,290.44 L 649.58,290.23 L 646.79,288.91 L 646.65,288.94 L 646.60,289.16 L 646.44,289.61 L 646.33,289.84 L 646.19,290.06 L 646.04,290.28 L 645.87,290.72 L 645.00,290.23 L 644.53,289.90 L 643.69,289.31 L 642.78,288.72 L 642.35,288.46 L 641.91,288.14 L 641.11,287.58 L 640.53,287.26 L 640.21,287.02 L 639.48,286.43 L 638.99,286.17 L 638.53,285.91 L 638.02,285.86 L 637.46,285.74 L 635.32,285.61 L 632.82,285.38 L 631.23,285.19 L 631.06,285.15 L 631.23,284.91 L 631.29,284.86 L 631.43,284.73 L 631.22,284.60 L 630.91,284.40 L 630.46,284.15 L 630.13,283.92 L 629.98,283.76 L 629.75,283.41 L 629.49,283.01 L 629.24,282.64 L 628.93,282.44 L 628.60,282.36 L 628.31,282.36 L 627.98,282.43 L 627.59,282.45 L 627.23,282.41 L 626.79,282.30 L 626.47,282.25 L 626.21,282.25 L 626.03,282.34 L 625.79,282.57 L 625.57,282.96 L 625.21,283.29 L 624.86,283.51 L 624.46,283.55 L 624.24,283.54 L 623.93,283.42 L 623.50,283.16 L 623.04,282.94 L 622.73,282.88 L 622.38,282.84 L 622.04,282.84 L 621.79,282.90 L 621.47,283.02 L 621.07,283.15 L 620.79,283.21 L 620.11,283.22 L 618.70,283.06 L 617.56,282.96 L 617.11,282.88 L 615.53,282.35 L 615.14,282.25 L 614.19,281.95 L 612.55,281.45 L 612.04,281.27 L 611.07,281.03 L 610.61,280.90 L 610.61,280.87 L 610.48,280.45 L 610.48,279.92 L 610.37,279.47 L 610.99,278.85 L 611.68,278.14 L 612.01,277.75 L 612.36,277.42 L 613.36,276.33 L 613.69,276.01 L 613.99,275.68 L 613.25,275.04 L 612.44,274.35 L 611.30,273.33 L 610.55,272.68 L 609.52,271.70 L 609.34,270.83 L 611.13,269.93 L 613.07,269.03 L 613.96,268.64 L 615.70,267.80 L 616.69,267.34 L 620.62,267.85 L 623.68,268.14 L 626.80,268.47 L 628.76,268.65 L 629.29,268.72 L 632.36,269.11 L 633.94,269.35 L 633.16,266.60 L 632.87,265.69 L 631.95,262.47 L 631.74,261.13 L 631.81,260.63 L 631.54,259.69 L 631.09,258.67 L 630.44,257.90 L 629.84,257.15 L 628.35,255.58 L 627.32,254.57 L 626.20,253.37 L 624.86,251.97 L 624.16,251.16 L 623.84,250.81 L 623.20,250.11 L 621.52,248.31 L 620.84,247.56 L 619.82,246.50 L 619.58,246.19 L 616.92,243.42 L 616.57,243.06 L 616.19,242.74 L 615.67,243.59 L 615.24,244.32 L 614.50,245.47 L 614.29,245.80 L 613.99,245.96 L 613.67,246.14 L 612.62,246.64 L 611.44,247.16 L 611.24,247.28 L 608.70,248.54 L 607.08,249.28 L 605.92,249.82 L 605.07,250.22 L 604.86,250.31 L 602.61,250.96 L 601.89,251.14 L 599.08,251.82 L 597.87,252.10 L 597.16,252.22 L 596.83,252.28 L 596.51,252.37 L 595.55,252.69 L 595.36,252.75 L 593.40,253.18 L 591.70,253.72 L 591.60,253.85 L 591.27,254.69 L 590.07,257.30 L 589.14,259.34 L 589.09,259.22 L 588.36,257.37 L 587.08,255.56 L 585.00,253.02 L 583.21,252.05 L 581.08,251.39 L 576.17,249.59 L 572.35,248.15 L 570.94,245.89 L 569.69,244.16 L 565.20,244.62 L 559.46,245.14 L 558.03,245.04 L 554.23,244.46 L 551.80,244.03 L 545.22,241.57 L 544.49,241.37 L 543.99,241.16 L 543.53,241.08 L 543.45,241.09 L 542.96,240.95 L 537.62,241.54 L 532.03,242.14 L 530.86,242.20 L 530.06,242.33 L 528.58,242.45 L 525.99,242.29 L 525.54,242.19 L 524.92,242.25 L 522.95,242.19 L 519.70,242.85 L 517.94,242.84 L 516.10,242.52 L 514.47,242.07 L 514.20,242.00 L 512.92,240.03 L 511.80,238.44 L 511.44,238.15 L 511.10,237.62 L 510.79,237.77 L 509.94,238.14 L 507.78,238.83 L 507.18,238.88 L 506.26,239.24 L 504.88,239.95 L 504.11,240.31 L 502.13,241.47 L 501.43,241.87 L 499.87,242.69 L 497.64,243.85 L 494.48,245.37 L 492.04,246.87 L 489.40,249.03 L 489.13,249.24 L 488.23,249.89 L 487.57,250.44 L 485.28,252.19 L 483.52,253.57 L 482.24,254.43 L 481.20,255.14 L 480.98,255.29 L 479.22,256.45 L 479.04,256.60 L 478.34,257.16 L 477.07,258.11 L 475.44,258.81 L 475.11,258.96 L 473.72,259.58 L 472.96,259.89 L 472.29,260.30 L 471.62,260.70 L 471.07,261.32 L 470.70,261.58 L 470.15,261.83 L 469.58,261.81 L 468.33,261.73 L 468.19,261.72 L 467.04,261.57 L 465.77,261.72 L 465.28,261.97 L 465.19,262.01 L 464.59,262.18 L 463.48,262.55 L 462.88,262.75 L 462.24,262.89 L 461.79,262.96 L 461.47,263.01 L 461.06,263.06 L 460.11,263.17 L 459.02,263.14 L 457.92,263.20 L 456.80,263.12 L 456.59,263.09 L 456.47,263.08 L 456.29,263.05 L 456.06,263.02 L 455.21,262.86 L 454.04,262.40 L 453.25,262.11 L 453.11,261.83 L 452.55,260.66 L 451.58,259.70 L 451.20,259.59 L 450.28,259.31 L 449.15,259.13 L 447.75,259.11 L 446.15,259.34 L 445.63,259.46 L 445.31,259.53 L 442.87,259.80 L 442.90,259.40 L 442.82,258.65 L 442.47,256.80 L 442.05,255.65 L 441.52,254.52 L 440.96,253.47 L 439.21,251.76 L 438.03,250.69 L 436.90,249.78 L 435.89,249.04 L 434.48,247.88 L 432.66,246.14 L 431.33,244.91 L 430.73,244.58 L 429.56,243.94 L 429.28,243.83 L 428.30,243.45 L 427.00,242.69 L 424.83,241.07 L 424.81,241.07 L 423.54,240.16 L 423.54,240.15 L 423.34,239.98 L 422.63,239.38 L 422.02,239.05 L 420.72,239.02 L 419.72,239.13 L 418.70,239.24 L 418.21,239.29 L 416.75,238.41 L 415.59,237.72 L 414.41,236.99 L 413.38,236.31 L 412.54,235.94 L 411.31,235.59 L 410.15,235.47 L 408.97,234.96 L 407.96,234.29 L 406.90,233.33 L 406.12,232.41 L 404.54,230.39 L 403.52,229.05 L 402.48,227.44 L 402.35,225.35 L 402.21,224.28 L 402.27,223.58 L 402.23,222.06 L 402.19,221.79 L 402.13,220.36 L 402.12,219.98 L 402.20,218.69 L 402.36,217.33 L 402.31,216.29 L 402.21,214.10 L 401.80,212.50 L 402.06,211.87 L 402.13,211.71 L 402.51,210.79 L 402.64,210.51 L 403.10,209.54 L 403.09,209.52 L 403.20,209.29 L 402.26,206.50 L 402.07,205.51 L 401.48,204.08 L 400.30,201.36 L 399.49,198.55 L 398.87,195.69 L 397.95,192.73 L 397.22,190.68 L 396.30,188.57 L 396.11,187.25 L 396.13,186.96 L 396.15,186.51 L 396.07,185.90 L 396.02,185.63 L 395.86,185.29 L 395.60,185.06 L 395.15,184.83 L 394.64,184.67 L 394.12,184.46 L 393.80,184.09 L 393.66,183.83 L 393.66,183.73 L 393.86,183.46 L 394.25,183.28 L 394.65,183.03 L 394.93,182.82 L 395.19,182.49 L 395.26,182.21 L 395.24,181.98 L 395.32,181.81 L 395.29,181.41 L 395.23,181.04 L 395.02,180.74 L 394.82,180.46 L 394.51,180.26 L 393.76,180.06 L 393.01,179.89 L 392.39,179.64 L 392.09,179.57 L 391.65,179.53 L 391.49,179.53 L 391.07,179.15 L 390.39,178.50 L 389.90,177.75 L 389.87,177.57 L 389.87,177.55 L 389.84,177.44 L 389.83,177.39 L 389.79,176.90 L 389.60,176.40 L 389.26,175.93 L 388.77,175.68 L 387.94,175.58 L 387.11,175.45 L 386.64,175.20 L 386.50,174.99 L 386.36,174.71 L 386.32,174.62 L 386.27,174.41 L 385.93,173.30 L 385.66,172.73 L 385.20,172.14 L 384.49,171.43 L 384.06,170.92 L 383.52,169.96 L 383.29,169.08 L 383.27,168.78 L 383.30,168.54 L 383.39,167.83 L 383.68,166.75 L 383.80,166.38 L 384.06,165.70 L 384.27,165.24 L 384.41,164.82 L 384.36,164.58 L 384.24,164.42 L 384.09,164.35 L 384.04,164.35 L 383.99,164.27 L 383.83,164.16 L 383.37,164.23 L 382.55,164.66 L 381.47,165.22 L 380.96,165.29 L 380.40,165.12 L 380.11,164.89 L 379.81,164.44 L 379.59,163.72 L 379.43,162.88 L 379.34,162.65 L 378.83,162.36 L 378.18,162.01 L 377.52,161.55 L 376.20,160.87 L 376.16,160.85 L 375.57,160.48 L 374.36,159.72 L 374.27,159.65 L 372.80,158.27 L 371.35,157.00 L 370.96,156.73 L 370.88,156.66 L 370.82,156.63 L 370.04,156.09 L 368.95,155.31 L 368.57,154.73 L 368.35,153.72 L 367.56,151.86 L 365.68,150.42 L 365.27,150.18 L 364.65,149.65 L 363.57,148.92 L 361.55,148.01 L 359.67,145.98 L 359.13,145.11 L 357.07,146.36 L 357.02,146.35 L 355.90,146.44 L 355.90,146.44 L 353.66,146.37 L 353.00,145.33 L 352.05,143.96 L 351.75,143.52 L 351.00,142.54 L 350.34,141.96 L 350.18,141.87 L 350.18,141.87 L 350.03,141.79 L 349.54,141.53 L 347.70,140.84 L 347.22,140.71 L 346.79,140.56 L 344.29,139.59 L 343.73,138.84 L 343.44,138.38 L 343.03,137.58 L 342.73,137.51 L 342.69,137.47 L 341.48,137.25 L 340.84,137.11 L 340.61,137.09 L 339.89,136.96 L 338.00,136.96 L 337.50,136.86 L 337.09,136.60 L 336.42,136.19 L 335.26,135.13 L 334.91,134.68 L 334.51,133.87 L 334.12,133.33 L 333.85,132.62 L 332.49,132.16 L 331.42,131.69 L 329.77,130.70 L 328.84,130.04 L 328.08,130.04 L 326.89,130.14 L 326.76,130.13 L 324.37,130.18 L 323.68,130.07 L 323.16,129.79 L 322.97,129.62 L 322.46,129.02 L 321.29,127.92 L 320.09,126.84 L 319.40,126.04 L 318.16,125.66 L 316.99,125.03 L 315.82,124.39 L 315.66,124.31 L 314.52,123.70 L 313.67,123.19 L 313.23,122.93 L 311.24,121.85 L 310.82,121.93 L 309.54,122.02 L 309.40,122.39 L 308.94,123.61 L 308.40,125.21 L 307.78,126.25 L 307.36,126.80 L 307.25,126.79 L 306.95,126.76 L 306.28,126.45 L 305.75,126.20 L 305.42,125.98 L 304.29,125.25 L 303.22,124.79 L 302.99,124.70 L 302.98,124.69 L 302.61,124.58 L 301.60,124.26 L 299.63,123.60 L 299.45,123.72 L 299.28,123.83 L 298.82,124.13 L 297.15,125.42 L 296.14,126.15 L 295.77,126.76 L 295.23,127.75 L 294.83,128.35 L 294.79,128.42 L 293.85,130.06 L 293.14,131.15 L 292.26,130.69 L 290.60,129.61 L 289.62,129.08 L 288.62,128.53 L 287.49,128.00 L 285.70,127.43 L 285.51,127.40 L 283.93,127.10 L 282.13,126.69 L 282.03,126.67 L 282.00,126.66 L 281.91,126.61 L 281.86,126.58 L 281.50,126.38 L 281.05,125.95 L 280.44,125.12 L 279.79,124.41 L 278.17,122.77 L 278.08,122.67 L 277.29,121.89 L 276.81,121.49 L 276.44,120.83 L 276.22,119.91 L 275.36,118.63 L 274.37,116.91 L 273.72,115.70 L 272.86,114.15 L 271.24,111.79 L 271.22,111.77 L 270.27,110.74 L 269.72,110.57 L 269.19,109.97 L 268.65,109.20 L 267.71,107.87 L 266.02,105.32 L 265.56,104.68 L 264.62,103.38 L 263.13,101.36 L 262.15,99.85 L 261.64,99.33 L 260.27,98.82 L 259.06,97.99 L 258.83,97.92 L 258.00,97.66 L 257.62,97.45 L 257.46,97.36 L 256.98,97.06 L 256.66,96.87 L 255.71,95.71 L 255.11,94.98 L 254.39,94.24 L 254.23,94.07 L 254.22,94.04 L 253.93,93.28 L 253.90,91.89 L 253.80,90.38 L 253.79,90.25 L 253.67,88.38 L 253.65,88.25 L 253.58,87.71 L 253.35,87.65 L 252.26,87.03 L 251.28,86.47 L 250.85,86.02 L 249.53,85.76 L 247.38,85.13 L 245.49,84.73 L 244.26,84.35 L 242.31,83.86 L 241.11,83.74 L 240.20,83.94 L 238.86,84.21 L 237.62,84.53 L 237.39,84.48 L 235.97,83.78 L 235.47,83.24 L 235.30,82.72 L 235.14,82.15 L 235.26,81.12 L 235.26,80.19 L 235.05,79.63 L 234.64,79.18 L 234.02,78.67 L 233.98,78.77 L 233.75,79.34 L 233.66,80.21 L 233.58,80.94 L 233.41,82.17 L 232.99,83.10 L 232.87,83.70 L 232.72,84.38 L 232.53,85.79 L 232.67,87.52 L 232.57,88.73 L 232.27,90.19 L 232.18,90.62 L 232.16,90.71 L 231.78,91.03 L 230.18,92.41 L 229.96,92.74 L 229.96,92.95 L 229.98,94.31 L 229.79,96.37 L 229.75,96.38 L 228.30,96.88 L 226.66,97.66 L 224.71,98.31 L 223.30,98.68 L 221.61,98.93 L 218.83,98.91 L 218.00,98.42 L 217.42,98.09 L 216.07,97.11 L 215.52,96.59 L 215.45,96.53 L 214.92,96.04 L 214.34,95.60 L 213.52,94.81 L 213.00,94.40 L 210.42,92.66 L 208.47,91.39 L 208.24,91.24 L 208.11,92.08 L 207.93,94.12 L 207.64,95.76 L 207.20,98.20 L 206.93,99.41 L 206.49,100.47 L 205.76,101.91 L 205.43,102.84 L 204.90,104.38 L 204.87,104.91 L 204.68,105.35 L 204.19,105.84 L 203.28,106.45 L 202.56,107.17 L 202.12,107.89 L 201.94,108.18 L 201.14,108.82 L 201.04,108.90 L 200.22,109.32 L 198.79,108.19 L 197.51,110.73 L 196.91,112.58 L 196.23,114.67 L 195.65,115.95 L 194.43,118.63 L 191.83,117.78 L 189.94,117.16 L 188.88,116.72 L 188.80,116.69 L 188.79,116.69 L 187.91,115.65 L 187.60,115.58 L 187.28,115.52 L 186.36,115.94 L 184.30,115.26 L 184.30,115.25 L 183.42,112.88 L 184.30,111.84 L 185.03,110.99 L 183.80,110.21 L 182.99,106.90 L 181.82,103.62 L 184.22,103.40 L 184.10,102.62 L 184.07,102.43 L 181.97,102.35 L 181.38,102.41 L 181.38,102.41 L 180.70,101.89 L 179.70,101.33 L 179.00,100.94 L 176.94,99.65 L 176.93,99.64 L 177.07,99.23 L 177.08,99.21 L 177.15,98.31 L 177.30,96.28 L 176.98,94.42 L 176.62,92.39 L 176.62,92.39 L 174.84,91.74 L 173.25,91.25 L 172.86,91.13 L 172.61,91.02 L 171.49,90.53 L 169.38,89.32 L 169.07,89.15 L 169.28,88.65 L 169.37,88.46 L 169.37,88.46 L 169.38,88.04 L 169.39,87.62 L 169.09,85.52 L 168.96,85.25 L 168.76,84.50 L 168.31,83.51 L 167.47,82.21 L 167.38,82.08 L 167.79,81.57 L 168.21,81.06 L 169.41,80.17 L 170.49,79.12 L 170.65,78.97 L 171.01,78.67 L 171.58,78.21 L 172.45,77.43 L 173.08,77.17 L 173.61,77.48 L 173.99,78.19 L 174.19,78.85 L 174.36,79.40 L 174.77,80.80 L 175.10,81.93 L 175.11,81.93 L 175.59,82.65 L 176.26,82.72 L 176.71,82.95 L 177.30,83.50 L 178.09,84.01 L 179.05,84.30 L 179.38,84.31 L 179.40,84.34 L 179.48,84.47 L 179.51,84.46 L 179.60,84.46 L 180.16,83.64 L 181.33,82.03 L 181.62,81.63 L 181.88,81.23 L 183.00,79.51 L 183.41,78.13 L 183.50,76.75 L 184.05,74.80 L 185.43,70.29 L 185.80,68.22 L 185.94,66.66 L 185.39,65.37 L 184.57,64.24 L 183.88,63.77 L 183.20,63.53 L 182.92,63.43 L 182.91,63.42 L 182.89,63.42 L 182.75,63.37 L 181.53,62.99 L 180.19,62.66 L 179.97,62.60 L 179.66,61.99 L 179.49,61.74 L 178.97,60.91 L 178.01,60.05 L 176.26,58.68 L 176.00,58.47 L 176.27,57.35 L 176.29,56.31 L 176.32,54.85 L 176.32,54.49 L 176.38,51.95 L 176.66,49.58 L 176.47,47.00 L 175.92,44.84 L 175.52,43.79 L 175.33,43.27 L 175.17,42.84 L 175.04,42.51 L 173.22,39.87 L 171.61,37.04 L 169.92,33.84 L 168.63,32.72 L 166.17,31.39 L 163.37,30.52 L 163.26,30.34 L 163.01,29.92 L 162.73,29.44 L 162.50,27.12 L 162.52,26.78 L 162.92,21.37 L 162.19,20.98 L 162.09,18.59 L 162.09,17.33 L 162.09,16.09 L 161.99,15.72 L 161.18,12.76 L 160.17,12.67 L 157.60,11.98 L 154.43,11.46 L 154.09,11.38 L 148.69,10.02 L 148.68,10.02 Z" fill="#1d3672" stroke="#333" stroke-width="1"/>
</svg>