<svg xmlns="http://www.w3.org/2000/svg" width="800" height="600" viewBox="0 0 800 600">
<path d="M 54.76,418.15 L 48.76,417.64 L 44.03,416.54 L 43.78,416.09 L 43.02,415.90 L 42.57,415.35 L 42.25,414.80 L 41.90,414.08 L 41.12,413.95 L 40.26,413.69 L 39.05,413.32 L 38.32,413.10 L 36.13,412.58 L 34.21,411.86 L 32.72,411.31 L 31.09,410.72 L 30.40,410.38 L 28.35,409.52 L 26.20,408.85 L 25.28,408.57 L 24.04,408.18 L 23.46,407.91 L 22.01,407.61 L 21.15,407.56 L 19.16,407.44 L 18.60,407.39 L 18.19,407.36 L 17.49,407.40 L 15.27,407.41 L 13.86,407.43 L 12.56,407.32 L 10.70,407.16 L 10.36,408.80 L 10.00,411.86 L 10.30,419.86 L 10.90,424.78 L 11.22,426.52 L 11.31,426.76 L 11.40,426.81 L 11.40,426.81 L 11.40,426.81 L 11.56,426.91 L 11.87,426.91 L 12.31,428.89 L 22.08,434.32 L 24.03,434.67 L 25.82,434.88 L 27.29,435.31 L 28.65,436.12 L 29.41,437.48 L 29.78,439.43 L 30.43,440.85 L 30.32,440.88 L 32.75,443.00 L 32.47,447.23 L 32.57,450.75 L 32.03,454.23 L 33.25,456.61 L 34.72,458.73 L 34.72,458.71 L 36.78,460.83 L 37.80,461.84 L 38.94,462.57 L 39.95,463.46 L 40.91,464.58 L 42.33,465.49 L 43.82,466.84 L 45.13,467.53 L 46.80,467.70 L 48.14,467.79 L 49.97,467.74 L 50.68,467.66 L 53.08,467.06 L 53.73,466.83 L 55.00,466.17 L 57.32,464.23 L 58.44,462.49 L 59.38,460.71 L 60.11,460.10 L 63.32,459.78 L 64.20,459.94 L 65.79,460.39 L 67.18,460.64 L 67.93,460.99 L 68.60,461.40 L 69.37,462.67 L 69.26,464.76 L 69.03,466.46 L 69.29,467.61 L 69.47,470.00 L 69.61,470.40 L 70.55,471.91 L 70.92,472.86 L 72.69,475.38 L 73.23,475.65 L 74.15,475.95 L 75.50,476.11 L 76.58,476.01 L 78.13,475.57 L 81.42,473.90 L 82.55,473.81 L 84.13,473.86 L 85.46,474.08 L 87.55,475.41 L 90.46,476.63 L 93.52,476.92 L 94.40,477.05 L 95.16,477.57 L 95.37,478.20 L 95.56,478.80 L 95.64,479.65 L 95.53,481.49 L 95.81,482.65 L 95.92,482.82 L 96.59,483.22 L 98.22,484.63 L 99.29,486.16 L 101.08,490.58 L 101.40,492.03 L 109.16,489.68 L 108.32,488.36 L 107.56,486.54 L 107.70,486.21 L 108.48,485.38 L 110.97,484.78 L 112.40,484.06 L 112.78,483.77 L 113.54,482.90 L 114.47,481.51 L 114.71,481.33 L 114.81,481.11 L 116.16,480.63 L 117.44,479.66 L 117.67,479.68 L 117.72,479.73 L 122.97,480.07 L 124.67,480.45 L 126.16,482.31 L 128.92,486.52 L 131.08,488.94 L 135.60,492.24 L 139.84,494.58 L 146.89,498.19 L 151.59,500.27 L 157.52,496.97 L 160.81,494.47 L 162.82,494.24 L 166.13,494.77 L 170.28,496.06 L 171.07,496.30 L 172.59,496.30 L 175.96,495.65 L 180.62,492.49 L 183.74,491.56 L 188.99,491.32 L 192.67,491.77 L 201.86,495.22 L 206.45,497.25 L 210.44,500.75 L 214.50,504.60 L 220.02,508.76 L 221.33,509.77 L 224.53,508.50 L 226.55,507.75 L 228.37,507.62 L 231.19,509.55 L 233.73,511.42 L 236.87,513.58 L 241.37,516.22 L 241.82,520.10 L 242.20,526.41 L 242.76,531.15 L 243.70,536.68 L 244.09,538.60 L 244.25,542.10 L 244.16,543.37 L 243.86,547.59 L 244.19,552.29 L 244.68,554.03 L 245.63,555.72 L 246.76,559.03 L 248.55,562.12 L 251.85,566.75 L 252.90,567.96 L 257.48,575.51 L 261.48,582.66 L 264.23,585.87 L 267.36,590.00 L 271.66,586.93 L 277.48,582.28 L 282.86,578.09 L 289.82,572.57 L 295.35,567.64 L 300.69,562.96 L 309.93,555.04 L 315.40,550.27 L 322.14,544.00 L 324.97,541.73 L 331.26,539.50 L 336.49,537.86 L 339.46,536.43 L 339.48,529.03 L 339.40,527.26 L 341.80,523.63 L 342.86,522.60 L 346.53,522.06 L 350.04,521.56 L 353.31,520.85 L 358.72,519.40 L 360.61,518.88 L 364.15,517.93 L 367.49,517.09 L 369.16,516.50 L 370.63,516.77 L 372.25,517.79 L 373.39,518.40 L 374.18,519.17 L 375.48,520.38 L 376.72,521.06 L 378.41,521.82 L 379.76,522.22 L 380.90,522.91 L 382.04,523.39 L 383.29,523.94 L 384.06,524.41 L 384.74,525.06 L 385.50,526.24 L 385.92,526.96 L 386.38,527.37 L 386.89,527.52 L 388.21,527.76 L 389.54,527.86 L 391.36,527.81 L 393.23,527.94 L 394.01,528.22 L 394.62,528.60 L 395.05,529.25 L 395.30,530.34 L 395.75,532.61 L 396.43,534.38 L 398.03,537.00 L 399.00,538.70 L 402.22,542.30 L 403.14,543.09 L 403.52,543.25 L 404.87,543.80 L 406.17,544.42 L 406.89,544.84 L 407.71,545.43 L 408.43,546.27 L 409.50,547.70 L 410.59,548.85 L 411.12,549.36 L 411.69,549.72 L 412.18,549.80 L 412.70,549.65 L 413.30,549.24 L 414.58,547.69 L 415.37,546.58 L 416.46,545.50 L 417.40,544.85 L 418.05,544.73 L 418.73,545.03 L 419.20,545.40 L 419.66,546.18 L 420.20,547.32 L 420.62,548.81 L 421.41,550.85 L 422.36,552.33 L 423.61,553.39 L 424.73,553.99 L 425.52,554.24 L 426.25,554.31 L 427.05,554.22 L 427.68,553.56 L 428.07,553.12 L 428.57,551.43 L 429.44,550.54 L 431.69,548.89 L 432.43,548.11 L 433.15,547.42 L 434.88,546.17 L 436.23,545.31 L 436.89,545.12 L 437.32,545.02 L 437.68,545.06 L 438.78,546.10 L 440.05,546.88 L 441.36,547.24 L 442.50,547.53 L 443.71,547.63 L 446.85,547.43 L 447.37,547.36 L 449.04,547.15 L 452.94,546.37 L 455.50,545.72 L 456.78,545.48 L 458.61,545.25 L 462.03,544.32 L 463.84,544.07 L 465.76,543.79 L 466.86,543.78 L 467.44,543.56 L 468.20,543.22 L 468.67,543.23 L 469.81,543.51 L 470.68,543.85 L 471.68,544.67 L 472.61,545.72 L 472.51,546.33 L 470.74,549.60 L 470.24,550.73 L 470.15,551.35 L 470.51,551.94 L 472.25,553.72 L 475.00,555.69 L 475.55,555.91 L 476.38,556.24 L 477.47,556.70 L 478.34,556.96 L 478.86,556.92 L 479.35,556.67 L 481.33,555.18 L 482.63,553.82 L 483.61,552.35 L 484.32,550.41 L 485.59,547.78 L 487.28,545.05 L 488.06,544.02 L 489.35,543.29 L 490.06,542.84 L 490.58,542.39 L 491.24,541.71 L 491.70,540.58 L 492.12,537.82 L 492.26,535.63 L 492.44,533.38 L 492.96,531.59 L 493.51,530.23 L 494.40,529.12 L 495.44,528.42 L 496.67,528.17 L 498.23,528.21 L 500.36,528.50 L 501.64,528.60 L 503.77,529.15 L 506.52,529.77 L 506.56,523.84 L 510.21,523.74 L 517.57,523.07 L 526.01,521.94 L 533.14,520.53 L 534.90,519.90 L 539.37,517.09 L 540.96,516.05 L 540.98,516.06 L 542.15,517.12 L 545.90,520.47 L 550.75,523.19 L 554.27,525.09 L 555.76,525.95 L 556.89,526.90 L 559.74,528.96 L 562.20,529.26 L 562.95,529.35 L 566.73,529.48 L 571.00,528.91 L 573.02,529.44 L 576.68,530.30 L 579.93,528.33 L 581.73,527.74 L 583.79,530.45 L 584.66,531.82 L 585.52,533.17 L 586.69,534.16 L 588.89,533.60 L 593.25,535.80 L 599.70,537.64 L 602.91,539.05 L 604.97,539.70 L 606.96,540.04 L 611.95,540.78 L 613.33,540.75 L 617.12,541.70 L 619.12,542.47 L 620.68,542.81 L 622.23,541.95 L 623.96,543.01 L 624.95,543.63 L 626.36,544.81 L 626.70,546.88 L 626.60,552.79 L 626.46,557.98 L 626.31,560.02 L 627.25,559.58 L 631.58,557.58 L 634.63,555.99 L 641.27,552.82 L 644.17,551.27 L 645.91,550.53 L 649.52,550.74 L 655.49,550.90 L 662.44,551.00 L 669.24,551.19 L 677.19,551.09 L 680.66,551.13 L 687.64,551.20 L 693.46,550.97 L 700.57,551.02 L 704.19,550.96 L 705.84,556.14 L 707.33,559.10 L 709.85,563.92 L 710.65,567.11 L 711.77,568.53 L 712.79,570.01 L 714.02,571.35 L 714.02,571.32 L 717.99,574.59 L 720.80,576.88 L 722.58,577.10 L 727.00,577.01 L 730.57,577.23 L 734.00,577.60 L 735.76,577.50 L 738.00,576.51 L 739.13,575.51 L 739.47,574.12 L 739.76,573.47 L 740.04,572.98 L 740.19,572.52 L 740.48,572.08 L 741.06,571.55 L 741.44,571.15 L 741.77,570.64 L 741.88,570.23 L 742.18,569.89 L 742.41,569.35 L 742.79,568.60 L 746.47,565.20 L 748.09,560.65 L 750.76,556.29 L 753.89,553.62 L 755.91,552.06 L 756.94,551.32 L 758.52,550.29 L 759.91,549.31 L 760.62,548.55 L 762.26,546.86 L 765.14,542.47 L 767.98,538.65 L 769.26,536.75 L 770.35,534.57 L 771.97,532.45 L 773.85,529.86 L 775.97,527.03 L 780.17,524.72 L 783.07,522.80 L 785.33,521.90 L 787.21,520.16 L 788.77,518.41 L 790.00,515.93 L 788.66,509.64 L 787.32,502.57 L 783.95,495.86 L 783.52,494.99 L 782.34,492.58 L 779.15,488.56 L 778.29,487.51 L 777.51,486.56 L 773.89,482.18 L 771.84,480.59 L 765.09,475.72 L 758.51,473.69 L 755.44,473.23 L 754.68,473.11 L 753.88,472.36 L 752.37,468.58 L 751.74,461.45 L 751.03,458.84 L 748.22,454.64 L 747.42,452.49 L 747.09,452.05 L 746.79,451.51 L 746.78,450.72 L 747.01,449.97 L 747.36,449.27 L 748.10,447.06 L 748.15,446.87 L 749.94,441.95 L 752.53,439.86 L 754.57,437.01 L 755.63,436.16 L 755.90,436.10 L 756.39,435.70 L 759.85,434.95 L 764.69,434.30 L 767.54,432.29 L 767.83,432.18 L 768.31,431.84 L 773.71,429.61 L 777.50,427.25 L 782.83,423.88 L 784.96,422.45 L 782.91,418.23 L 783.72,417.87 L 783.67,417.77 L 784.01,417.62 L 783.90,414.69 L 783.46,412.31 L 783.34,411.65 L 782.70,409.12 L 781.72,408.21 L 779.96,407.85 L 778.03,408.13 L 777.07,408.71 L 777.06,408.71 L 776.31,409.16 L 774.53,409.55 L 773.18,408.79 L 771.99,408.07 L 769.61,407.05 L 766.59,405.72 L 765.07,404.66 L 763.73,403.52 L 763.67,403.46 L 762.37,402.02 L 761.43,399.43 L 760.31,397.99 L 760.40,397.34 L 760.52,396.84 L 760.85,395.46 L 760.60,394.43 L 760.09,393.37 L 759.92,393.10 L 757.47,391.53 L 753.89,389.23 L 748.23,386.34 L 744.77,385.29 L 744.21,386.23 L 742.81,389.15 L 742.31,390.19 L 741.67,391.92 L 737.57,395.57 L 735.85,399.25 L 735.72,400.31 L 736.17,402.23 L 737.70,408.71 L 738.45,412.66 L 738.35,413.56 L 736.61,419.52 L 736.28,421.16 L 734.71,428.94 L 733.18,436.33 L 732.40,440.57 L 730.84,447.62 L 729.06,455.47 L 726.74,458.02 L 726.35,458.06 L 725.98,458.47 L 724.94,458.59 L 722.29,458.32 L 720.10,458.07 L 716.85,458.45 L 708.25,459.19 L 701.44,459.55 L 701.44,460.25 L 700.67,460.28 L 700.67,460.71 L 698.55,460.79 L 694.32,460.91 L 692.77,461.17 L 691.83,461.78 L 690.63,462.50 L 689.43,464.31 L 688.42,467.07 L 687.78,468.88 L 687.14,468.96 L 687.12,469.02 L 687.02,469.33 L 685.71,469.51 L 684.79,469.32 L 684.45,469.15 L 683.18,468.50 L 681.18,467.51 L 679.11,466.48 L 676.44,465.35 L 672.69,464.60 L 671.08,463.93 L 669.10,461.83 L 668.16,459.39 L 668.11,459.19 L 667.15,457.89 L 665.96,455.89 L 665.42,452.83 L 664.93,448.83 L 663.76,441.07 L 663.70,440.64 L 662.84,440.39 L 662.54,438.13 L 661.99,437.10 L 661.37,436.77 L 657.62,435.21 L 656.08,434.99 L 653.07,434.13 L 650.72,432.89 L 650.60,432.78 L 649.89,432.13 L 649.08,430.28 L 649.08,430.28 L 647.63,426.98 L 646.18,423.59 L 643.66,420.03 L 641.70,417.31 L 639.85,412.39 L 638.77,409.40 L 638.98,409.00 L 639.29,408.54 L 639.62,408.12 L 639.78,407.89 L 639.97,407.03 L 640.03,406.53 L 640.10,406.02 L 640.20,405.69 L 640.29,405.37 L 640.51,404.43 L 640.74,403.50 L 640.78,403.08 L 640.91,402.57 L 641.05,401.99 L 641.17,401.41 L 641.32,400.85 L 641.54,400.38 L 641.77,400.09 L 642.04,399.83 L 642.29,399.46 L 642.55,399.08 L 642.82,398.49 L 642.97,398.21 L 643.14,397.92 L 643.34,397.65 L 643.55,397.37 L 643.74,396.86 L 643.96,396.40 L 644.04,396.00 L 644.18,395.70 L 644.37,395.06 L 644.57,394.42 L 644.96,393.71 L 645.34,392.99 L 645.55,392.45 L 645.77,391.91 L 646.02,391.45 L 646.26,390.99 L 646.41,390.56 L 646.58,390.15 L 646.63,389.27 L 648.26,388.30 L 649.01,386.52 L 649.28,383.82 L 649.79,382.94 L 650.80,381.51 L 651.82,380.88 L 652.02,380.27 L 652.24,379.68 L 652.46,379.22 L 652.51,378.94 L 652.53,378.85 L 652.71,378.25 L 652.88,377.66 L 653.01,377.39 L 653.15,377.12 L 653.25,376.67 L 653.81,375.76 L 654.37,374.84 L 654.80,374.26 L 655.23,373.68 L 656.57,371.92 L 656.81,371.99 L 657.59,370.80 L 657.87,370.53 L 658.41,369.91 L 658.83,369.52 L 658.91,369.45 L 659.43,368.65 L 660.58,367.11 L 662.22,364.05 L 666.23,359.04 L 666.68,358.48 L 667.25,357.61 L 667.68,356.99 L 668.21,356.17 L 668.85,355.07 L 669.49,353.95 L 669.83,353.21 L 670.44,352.02 L 670.95,351.23 L 671.41,350.65 L 672.02,349.82 L 672.22,349.35 L 672.56,348.60 L 672.72,348.32 L 672.94,347.78 L 673.59,346.91 L 673.97,346.41 L 674.46,345.81 L 674.92,345.00 L 675.24,344.32 L 675.73,343.51 L 676.00,343.15 L 676.65,341.91 L 677.00,341.01 L 677.10,339.74 L 677.36,338.83 L 677.77,337.99 L 677.47,336.95 L 678.42,333.18 L 678.66,330.03 L 677.31,328.90 L 676.83,327.94 L 676.34,326.43 L 676.24,323.76 L 676.03,315.05 L 675.90,310.36 L 675.65,303.13 L 676.04,299.49 L 676.04,299.49 L 676.06,299.26 L 675.35,299.17 L 676.75,294.97 L 678.85,291.29 L 684.32,284.88 L 686.40,282.35 L 687.01,281.60 L 685.26,278.04 L 683.99,277.42 L 678.70,275.54 L 677.96,275.46 L 673.29,276.03 L 668.82,274.63 L 657.91,270.95 L 651.76,272.68 L 646.27,273.93 L 645.04,273.08 L 642.39,267.91 L 642.00,266.91 L 641.83,266.47 L 641.45,264.58 L 641.30,261.23 L 641.12,257.03 L 641.38,254.55 L 642.80,247.51 L 641.63,244.21 L 639.99,238.39 L 638.67,233.91 L 638.67,233.90 L 637.36,223.82 L 637.34,223.69 L 637.93,219.94 L 638.19,218.33 L 639.48,209.47 L 640.82,201.56 L 641.06,200.60 L 641.36,199.43 L 642.07,198.89 L 644.53,197.03 L 645.01,196.28 L 641.64,194.82 L 634.76,191.76 L 619.20,184.75 L 614.01,182.48 L 607.94,179.57 L 601.36,178.43 L 597.31,177.56 L 594.17,177.10 L 585.22,176.31 L 582.37,176.65 L 577.48,178.96 L 572.14,179.07 L 571.43,179.77 L 568.64,179.67 L 567.14,179.49 L 565.53,179.29 L 561.59,178.22 L 548.98,173.37 L 535.58,167.54 L 531.24,165.55 L 530.64,165.07 L 528.27,160.24 L 525.40,161.58 L 522.14,160.06 L 519.15,158.67 L 519.03,158.67 L 515.61,158.80 L 515.02,158.78 L 513.23,157.51 L 511.50,157.10 L 508.57,157.28 L 504.38,158.52 L 502.47,158.62 L 496.75,158.39 L 491.25,158.24 L 486.43,155.89 L 483.72,154.58 L 475.89,154.23 L 474.56,154.09 L 473.47,153.66 L 472.62,152.48 L 469.27,148.10 L 466.83,145.79 L 462.01,146.82 L 456.31,148.81 L 453.55,149.67 L 450.36,150.88 L 448.94,151.42 L 448.92,151.44 L 444.58,159.06 L 439.22,167.21 L 433.85,165.35 L 424.12,160.19 L 420.59,158.26 L 417.44,156.12 L 413.79,152.50 L 409.65,148.42 L 401.38,148.99 L 398.73,149.10 L 398.55,150.95 L 393.26,148.29 L 387.93,145.68 L 385.38,144.44 L 381.06,146.55 L 376.28,148.03 L 371.45,148.60 L 366.17,151.35 L 362.61,152.43 L 352.24,154.52 L 352.81,157.65 L 352.83,157.72 L 353.89,162.74 L 354.20,164.23 L 355.04,168.77 L 356.08,174.18 L 357.01,178.95 L 358.26,185.15 L 358.90,189.39 L 359.20,193.82 L 359.20,194.37 L 359.14,202.78 L 356.75,202.72 L 352.67,202.62 L 344.88,202.28 L 339.85,201.74 L 331.56,201.20 L 322.27,200.47 L 317.16,199.99 L 307.42,199.21 L 299.57,198.74 L 296.73,198.52 L 293.36,202.48 L 288.04,208.91 L 287.29,209.94 L 287.48,210.73 L 288.04,212.90 L 288.13,213.26 L 288.39,214.63 L 283.14,214.98 L 281.01,217.25 L 277.97,222.21 L 276.65,225.95 L 274.38,231.82 L 273.80,233.33 L 274.23,235.00 L 274.41,235.52 L 274.98,237.14 L 274.99,237.19 L 278.79,240.74 L 283.11,245.12 L 283.56,248.29 L 284.46,249.15 L 286.25,250.90 L 285.63,252.71 L 291.10,255.39 L 290.88,256.74 L 287.63,256.72 L 286.21,256.32 L 284.06,255.70 L 278.47,252.83 L 270.46,257.88 L 265.51,254.32 L 264.78,253.97 L 257.95,255.23 L 257.92,258.07 L 253.56,258.00 L 253.61,256.15 L 246.19,258.14 L 245.81,260.39 L 245.12,262.35 L 243.37,262.93 L 240.37,264.92 L 237.47,268.31 L 235.46,268.01 L 233.03,268.04 L 231.96,268.05 L 233.49,269.06 L 234.96,270.30 L 236.51,271.99 L 237.50,273.23 L 237.95,274.34 L 238.61,275.96 L 240.10,280.19 L 241.61,284.92 L 241.76,285.38 L 242.75,288.36 L 243.32,290.53 L 243.34,291.44 L 243.38,293.47 L 242.45,297.56 L 235.65,296.79 L 234.02,300.45 L 236.16,300.41 L 239.36,301.05 L 240.33,301.13 L 241.85,301.24 L 241.14,309.87 L 241.63,313.27 L 241.99,315.49 L 242.35,317.57 L 242.43,320.74 L 242.08,323.47 L 241.55,325.19 L 239.51,327.28 L 236.75,329.70 L 235.14,331.97 L 234.78,332.25 L 233.13,335.96 L 232.55,340.71 L 232.23,343.42 L 232.76,346.24 L 233.45,346.88 L 233.46,346.88 L 234.58,347.07 L 237.52,346.88 L 240.78,346.60 L 242.42,346.77 L 245.23,348.32 L 248.95,350.38 L 249.80,351.04 L 250.06,352.09 L 249.64,356.12 L 249.45,357.97 L 249.29,361.54 L 249.64,366.22 L 250.19,370.19 L 250.42,370.99 L 251.01,373.01 L 251.39,374.30 L 252.32,376.84 L 252.57,377.35 L 254.06,380.53 L 255.27,384.85 L 255.71,387.55 L 255.52,387.46 L 251.91,385.76 L 250.71,385.11 L 250.17,385.00 L 248.73,385.76 L 246.88,383.18 L 245.89,382.39 L 243.53,382.68 L 239.98,380.10 L 238.57,381.98 L 237.82,382.10 L 231.91,380.52 L 229.48,380.05 L 229.70,376.83 L 229.32,376.20 L 227.43,375.43 L 225.56,374.77 L 223.94,373.37 L 223.43,372.77 L 222.47,372.31 L 221.65,371.32 L 221.16,369.71 L 220.53,368.94 L 218.32,366.44 L 216.90,360.61 L 211.61,358.77 L 203.83,356.31 L 203.26,352.49 L 201.73,353.47 L 200.23,354.30 L 200.05,354.40 L 199.24,354.20 L 198.60,354.17 L 198.12,354.17 L 197.50,354.53 L 194.16,358.09 L 188.80,363.67 L 187.87,364.48 L 187.24,364.79 L 186.89,364.84 L 186.44,364.78 L 186.17,364.63 L 185.92,364.36 L 185.40,363.43 L 184.73,360.69 L 179.52,362.03 L 179.26,362.78 L 179.76,365.60 L 178.99,365.99 L 171.53,367.24 L 168.14,367.34 L 162.55,367.24 L 161.07,367.27 L 160.26,367.29 L 159.91,368.20 L 159.72,368.73 L 154.74,366.98 L 154.13,370.17 L 152.37,372.72 L 149.81,372.57 L 145.29,378.82 L 148.54,380.72 L 147.80,384.99 L 150.88,386.87 L 150.87,387.03 L 150.82,388.47 L 150.74,391.35 L 150.69,393.30 L 150.92,394.52 L 151.81,396.84 L 152.86,398.54 L 153.04,398.73 L 153.57,401.33 L 155.82,405.39 L 158.72,408.77 L 162.01,409.15 L 164.44,414.15 L 165.63,417.39 L 165.99,419.71 L 166.01,424.73 L 166.24,426.46 L 166.62,428.36 L 167.33,429.74 L 167.82,430.77 L 167.81,432.82 L 170.42,436.78 L 170.33,438.14 L 170.19,440.17 L 164.81,437.63 L 160.66,435.86 L 151.73,432.44 L 146.86,430.68 L 145.40,429.91 L 139.77,426.35 L 136.38,424.29 L 136.06,421.46 L 129.88,420.84 L 128.21,420.85 L 124.71,417.73 L 122.78,416.73 L 115.81,415.37 L 113.48,418.01 L 112.02,419.68 L 109.61,419.13 L 104.01,419.16 L 101.58,419.10 L 101.29,417.10 L 99.30,417.11 L 99.19,418.74 L 97.54,418.84 L 97.49,416.93 L 94.74,417.17 L 90.52,417.76 L 84.95,419.40 L 81.86,421.72 L 81.69,421.92 L 79.22,420.29 L 75.71,417.97 L 74.61,417.88 L 63.25,418.03 L 57.96,418.11 L 54.76,418.15 Z" fill="#1d3672" stroke="#333" stroke-width="1"/>
</svg>