<svg xmlns="http://www.w3.org/2000/svg" width="800" height="600" viewBox="0 0 800 600">
<path d="M 563.47,172.37 L 563.35,170.40 L 562.05,170.50 L 555.89,170.70 L 554.21,170.66 L 549.42,170.50 L 545.07,170.51 L 537.81,170.56 L 534.10,170.46 L 530.15,170.77 L 529.10,173.23 L 526.95,178.14 L 524.45,183.39 L 522.26,182.78 L 521.49,182.41 L 520.89,182.44 L 520.01,183.19 L 517.08,185.33 L 515.42,186.48 L 513.60,187.07 L 512.45,186.95 L 511.12,186.71 L 509.08,186.91 L 507.64,187.18 L 506.16,186.98 L 504.38,186.46 L 503.27,186.66 L 501.79,186.71 L 500.52,186.30 L 499.83,186.62 L 498.65,187.26 L 497.04,188.05 L 495.46,189.39 L 493.47,191.33 L 492.50,192.15 L 491.48,192.86 L 490.26,193.46 L 489.07,193.61 L 487.50,193.81 L 487.29,195.12 L 486.57,195.55 L 486.57,196.38 L 486.56,198.01 L 486.81,199.36 L 487.03,200.79 L 486.94,201.81 L 486.69,203.05 L 485.96,203.57 L 481.09,205.54 L 480.38,205.15 L 479.87,204.09 L 479.34,203.50 L 476.63,203.98 L 475.74,204.22 L 473.74,204.42 L 473.46,204.54 L 472.89,204.76 L 471.92,205.57 L 470.52,206.23 L 468.91,206.99 L 468.12,207.25 L 465.95,206.30 L 465.18,205.43 L 463.80,206.29 L 462.13,207.96 L 460.23,208.99 L 458.62,209.66 L 457.85,209.30 L 456.97,208.35 L 455.31,206.26 L 454.35,205.38 L 453.04,204.60 L 451.26,206.78 L 449.94,208.01 L 448.03,205.19 L 447.36,204.55 L 447.06,204.51 L 446.29,205.63 L 445.15,207.57 L 443.92,209.41 L 441.17,213.37 L 440.02,214.60 L 438.71,216.73 L 437.89,217.80 L 436.80,219.55 L 436.12,219.15 L 434.80,218.60 L 432.97,218.40 L 432.28,218.32 L 428.85,217.33 L 425.80,216.19 L 424.74,215.75 L 423.72,215.71 L 422.91,216.10 L 421.35,216.50 L 419.86,216.26 L 417.68,216.07 L 417.06,216.10 L 415.97,215.86 L 414.90,215.54 L 414.26,215.66 L 413.84,216.14 L 413.63,217.17 L 413.67,219.49 L 413.63,221.78 L 412.18,224.00 L 411.38,224.44 L 407.93,223.93 L 405.86,224.20 L 403.35,223.97 L 399.92,223.01 L 398.83,222.82 L 395.66,221.31 L 394.38,220.99 L 392.31,220.91 L 391.41,221.27 L 390.87,222.54 L 389.17,223.48 L 386.87,224.12 L 385.64,224.47 L 385.20,224.90 L 384.81,226.68 L 384.46,228.23 L 383.15,228.78 L 382.39,228.39 L 381.12,228.19 L 378.62,228.70 L 376.55,228.66 L 375.45,228.15 L 374.26,227.83 L 373.28,227.91 L 372.26,228.73 L 371.42,229.85 L 369.90,231.31 L 367.61,232.53 L 365.37,233.95 L 363.37,235.15 L 361.47,235.58 L 359.90,235.18 L 358.62,235.38 L 356.38,235.81 L 354.85,236.21 L 352.98,236.84 L 351.55,236.76 L 349.51,235.97 L 348.13,234.76 L 347.37,233.72 L 347.07,232.61 L 346.61,230.91 L 345.67,230.20 L 344.14,229.48 L 341.22,228.53 L 339.95,228.53 L 338.76,228.85 L 337.84,229.23 L 337.33,229.90 L 335.34,231.85 L 332.33,232.95 L 330.46,233.98 L 328.39,234.77 L 327.19,234.93 L 325.55,234.46 L 324.54,234.65 L 322.92,234.33 L 322.29,234.57 L 321.57,235.12 L 321.19,236.51 L 321.19,237.50 L 321.27,238.17 L 320.85,238.45 L 319.78,238.77 L 318.07,239.01 L 316.50,238.61 L 315.62,238.40 L 313.92,239.16 L 312.27,239.28 L 310.61,239.32 L 309.89,239.39 L 309.05,240.07 L 307.99,240.90 L 305.57,241.18 L 304.17,241.02 L 301.78,239.75 L 299.65,238.37 L 298.05,238.01 L 295.08,237.65 L 292.78,237.49 L 289.65,237.89 L 288.33,238.37 L 287.62,239.02 L 286.06,241.61 L 284.57,243.42 L 283.27,244.10 L 281.20,244.41 L 280.14,244.21 L 279.25,244.97 L 277.75,246.31 L 276.92,247.42 L 276.69,248.78 L 276.32,250.07 L 276.10,250.89 L 275.34,251.77 L 273.69,252.29 L 271.66,252.92 L 270.98,253.59 L 270.39,255.06 L 270.22,256.76 L 270.26,258.51 L 270.80,260.14 L 271.23,261.52 L 271.40,262.12 L 271.06,262.31 L 270.60,262.28 L 269.66,261.88 L 268.56,261.77 L 267.92,261.60 L 266.23,261.95 L 265.05,261.91 L 264.49,261.52 L 264.11,260.37 L 263.60,258.98 L 263.61,257.54 L 263.69,255.90 L 263.19,255.60 L 262.60,255.59 L 261.45,255.63 L 260.05,255.47 L 258.86,255.31 L 257.93,254.72 L 257.55,254.28 L 257.89,253.61 L 258.44,253.25 L 259.09,252.18 L 259.22,250.84 L 257.27,250.48 L 254.39,249.61 L 252.06,249.33 L 250.45,249.41 L 249.85,248.74 L 248.70,247.87 L 248.07,247.67 L 246.04,247.82 L 244.47,247.83 L 243.08,248.24 L 242.10,247.88 L 240.49,247.12 L 238.46,245.73 L 236.80,244.95 L 234.95,244.70 L 233.80,244.47 L 232.19,244.43 L 230.11,242.88 L 226.84,240.15 L 223.92,237.61 L 222.30,236.70 L 221.90,235.10 L 221.74,234.62 L 220.12,232.93 L 218.16,231.28 L 216.96,232.03 L 215.81,232.84 L 214.12,233.76 L 210.31,235.50 L 204.24,238.36 L 199.98,240.61 L 199.72,241.45 L 198.47,245.30 L 197.67,251.65 L 197.21,254.00 L 196.61,255.03 L 195.35,255.64 L 192.55,256.81 L 192.05,259.45 L 192.00,260.76 L 192.15,262.20 L 191.24,263.93 L 190.69,265.11 L 189.49,266.52 L 189.28,267.87 L 189.31,267.97 L 189.80,271.58 L 190.11,272.52 L 190.50,273.02 L 192.16,275.28 L 193.86,277.06 L 195.96,278.64 L 198.38,280.47 L 200.13,282.49 L 201.08,284.49 L 201.23,286.45 L 201.19,288.19 L 201.04,290.26 L 201.48,290.78 L 202.33,291.01 L 203.29,291.38 L 204.40,292.23 L 205.29,292.99 L 205.29,293.63 L 205.84,294.89 L 205.50,295.69 L 205.24,296.25 L 206.55,297.05 L 207.85,297.37 L 208.25,297.80 L 208.41,298.79 L 208.26,299.40 L 209.46,300.33 L 209.42,301.75 L 208.26,303.15 L 208.31,303.91 L 208.76,304.84 L 208.60,307.24 L 207.91,308.53 L 207.61,310.17 L 207.66,312.28 L 207.66,313.03 L 209.20,314.88 L 212.97,318.17 L 213.76,319.09 L 214.02,320.60 L 213.92,322.24 L 214.07,323.98 L 213.37,326.65 L 213.31,327.24 L 214.31,327.90 L 215.17,328.09 L 215.82,328.74 L 215.62,329.64 L 214.92,331.15 L 215.33,333.48 L 215.02,335.61 L 214.82,336.52 L 214.97,338.40 L 215.38,339.39 L 215.77,340.07 L 217.28,340.03 L 217.78,340.88 L 217.73,343.32 L 218.68,344.99 L 219.63,346.22 L 220.99,347.58 L 223.12,348.72 L 225.04,349.06 L 226.10,349.97 L 226.94,350.74 L 226.80,351.61 L 226.47,352.87 L 226.29,354.09 L 225.99,355.64 L 225.56,357.85 L 224.58,359.50 L 223.92,360.02 L 223.45,360.35 L 223.02,360.81 L 220.11,364.13 L 214.88,364.73 L 207.36,365.85 L 206.74,374.18 L 204.32,377.76 L 201.70,380.78 L 199.35,381.23 L 188.19,381.72 L 187.40,387.38 L 185.78,398.32 L 180.75,399.33 L 181.35,398.60 L 181.90,397.65 L 181.65,396.47 L 181.20,394.49 L 180.79,392.47 L 180.13,389.60 L 179.68,388.23 L 178.52,386.25 L 177.72,384.75 L 177.77,382.16 L 176.77,376.51 L 176.37,374.48 L 175.86,371.70 L 175.36,367.93 L 169.85,367.83 L 164.56,367.73 L 158.66,367.69 L 154.06,367.68 L 153.75,367.82 L 153.35,367.80 L 152.96,367.80 L 151.97,367.38 L 150.66,365.72 L 150.20,364.85 L 149.31,363.98 L 147.85,363.63 L 146.36,364.04 L 144.96,365.64 L 144.54,367.68 L 144.50,368.53 L 146.52,369.53 L 153.40,372.71 L 157.93,374.69 L 159.76,381.49 L 160.05,383.93 L 160.46,390.38 L 160.01,393.99 L 161.17,396.80 L 161.88,401.22 L 162.98,404.43 L 163.80,406.79 L 157.64,409.34 L 154.21,410.76 L 153.92,410.95 L 152.60,410.10 L 151.59,408.68 L 150.99,407.26 L 149.77,405.19 L 148.87,403.22 L 147.66,401.32 L 147.36,400.10 L 146.76,397.83 L 146.05,396.05 L 145.24,393.50 L 145.55,389.62 L 143.83,385.86 L 142.22,383.50 L 141.21,381.71 L 140.40,377.76 L 139.89,374.93 L 137.17,371.16 L 136.06,370.11 L 134.86,368.70 L 134.44,366.45 L 134.28,365.87 L 127.16,352.38 L 133.29,352.59 L 135.25,352.72 L 137.31,352.72 L 139.21,353.00 L 141.57,353.05 L 143.24,353.44 L 145.15,353.72 L 148.20,354.47 L 150.04,354.94 L 148.50,350.09 L 147.35,345.66 L 145.80,342.57 L 145.59,341.97 L 147.69,339.01 L 149.80,336.74 L 151.95,334.64 L 154.85,332.25 L 154.80,330.56 L 155.04,329.49 L 159.30,327.89 L 161.88,326.64 L 164.09,325.66 L 164.93,321.03 L 165.88,318.95 L 167.24,314.68 L 168.18,313.27 L 168.93,310.90 L 169.63,308.51 L 169.64,307.25 L 169.11,305.78 L 168.76,304.70 L 169.12,303.95 L 169.92,301.94 L 170.22,300.35 L 171.87,298.24 L 172.47,297.25 L 172.72,294.49 L 172.41,292.64 L 172.36,291.66 L 172.32,291.10 L 169.97,288.00 L 168.91,285.47 L 168.41,283.36 L 168.27,281.19 L 167.91,279.74 L 167.06,278.10 L 166.41,275.66 L 165.61,272.98 L 161.82,273.59 L 161.79,273.55 L 159.43,273.56 L 157.38,273.32 L 155.57,272.52 L 153.81,271.35 L 152.06,270.41 L 150.76,270.32 L 148.30,270.51 L 144.99,270.32 L 144.54,269.52 L 143.94,267.70 L 143.24,265.79 L 142.93,264.20 L 142.44,261.66 L 142.14,260.51 L 141.95,260.08 L 141.79,259.71 L 139.69,257.98 L 137.53,256.39 L 134.98,253.39 L 133.73,252.13 L 131.89,249.94 L 131.12,248.13 L 129.45,246.26 L 128.29,246.11 L 127.39,246.16 L 126.33,246.50 L 123.84,247.56 L 121.98,248.27 L 120.28,248.93 L 118.36,250.06 L 116.05,252.18 L 115.09,253.31 L 114.94,254.15 L 114.44,253.83 L 113.39,253.16 L 111.88,252.84 L 110.27,252.46 L 107.45,252.13 L 104.36,252.36 L 102.39,252.64 L 99.68,253.17 L 95.29,253.31 L 90.81,253.73 L 90.41,253.96 L 90.24,254.00 L 89.11,255.47 L 87.44,256.46 L 86.00,257.54 L 83.54,258.10 L 81.22,258.53 L 80.36,258.25 L 78.81,257.49 L 77.80,256.78 L 76.14,254.78 L 75.44,253.88 L 74.37,254.02 L 72.02,253.79 L 70.37,253.51 L 68.96,253.70 L 67.76,253.46 L 64.93,254.17 L 63.98,254.12 L 61.06,253.75 L 57.80,253.36 L 55.62,254.50 L 53.31,255.82 L 50.39,257.14 L 47.12,259.41 L 44.27,261.28 L 41.79,263.44 L 40.28,265.18 L 40.20,266.17 L 40.89,268.37 L 40.50,272.42 L 40.05,274.25 L 39.15,279.36 L 38.30,281.76 L 37.79,284.19 L 36.73,286.40 L 35.59,287.85 L 34.02,290.06 L 33.82,291.33 L 34.18,292.79 L 35.33,295.23 L 36.39,298.38 L 37.14,300.86 L 37.74,301.76 L 38.59,303.38 L 39.21,305.36 L 40.11,306.73 L 41.29,308.02 L 43.25,309.74 L 45.14,311.36 L 46.39,312.57 L 47.72,314.04 L 48.40,314.93 L 49.22,316.22 L 49.68,317.15 L 49.75,318.59 L 49.12,320.48 L 48.10,322.83 L 47.60,324.16 L 48.24,325.31 L 49.31,326.82 L 51.32,329.17 L 51.75,329.92 L 52.42,331.66 L 52.39,331.74 L 52.57,332.90 L 52.27,335.33 L 52.49,336.19 L 52.72,336.70 L 53.67,337.71 L 55.05,339.56 L 56.26,340.81 L 56.44,341.27 L 56.96,342.12 L 56.24,343.45 L 55.58,344.69 L 55.14,345.32 L 55.08,345.77 L 54.61,346.31 L 53.12,347.10 L 51.59,347.86 L 49.73,348.11 L 47.61,348.38 L 45.86,348.68 L 42.49,349.36 L 39.68,350.17 L 38.64,350.52 L 38.57,350.55 L 37.97,350.66 L 30.54,352.81 L 28.64,352.81 L 24.87,354.26 L 24.27,359.34 L 24.04,359.60 L 23.36,366.05 L 22.54,368.78 L 20.51,368.87 L 16.83,369.09 L 13.42,369.18 L 10.24,369.24 L 10.00,369.30 L 16.46,382.03 L 14.87,386.20 L 14.17,388.05 L 15.57,396.00 L 16.67,405.04 L 18.58,412.62 L 20.88,419.45 L 22.88,423.01 L 27.57,429.87 L 31.56,428.09 L 36.26,427.81 L 41.06,426.31 L 43.26,425.65 L 48.93,426.59 L 59.59,428.18 L 63.40,438.66 L 64.57,442.14 L 64.10,443.76 L 66.01,450.22 L 66.50,454.84 L 66.51,457.27 L 67.32,459.24 L 68.01,460.54 L 67.80,463.54 L 69.31,465.51 L 71.11,469.79 L 72.51,473.53 L 72.41,476.15 L 75.21,476.44 L 87.21,476.71 L 89.10,481.20 L 90.41,484.01 L 90.71,487.47 L 91.91,488.60 L 93.61,488.50 L 94.41,489.34 L 96.20,492.43 L 98.71,494.11 L 99.41,494.48 L 99.91,495.04 L 96.51,495.51 L 91.51,496.17 L 88.20,496.73 L 84.51,497.11 L 81.41,497.11 L 79.43,497.61 L 78.71,497.95 L 73.71,500.01 L 72.72,500.29 L 73.32,501.22 L 73.42,502.53 L 64.31,508.03 L 65.59,515.64 L 66.31,517.50 L 66.05,518.53 L 64.66,519.90 L 64.50,524.19 L 64.51,526.17 L 64.37,526.23 L 62.31,526.16 L 61.90,526.81 L 61.00,527.48 L 58.24,529.68 L 57.93,529.08 L 59.08,531.70 L 60.84,534.79 L 62.26,537.76 L 66.62,543.19 L 68.04,544.48 L 69.47,546.19 L 72.81,546.34 L 78.75,546.20 L 84.69,546.05 L 86.40,546.24 L 89.54,547.15 L 92.02,548.09 L 94.57,548.51 L 96.96,550.07 L 97.99,551.34 L 98.63,551.45 L 98.90,551.95 L 100.78,551.81 L 101.29,551.89 L 107.42,551.90 L 108.25,552.04 L 111.57,552.33 L 115.50,552.05 L 118.43,551.29 L 121.40,550.39 L 121.90,550.24 L 121.90,549.86 L 121.65,547.69 L 121.41,546.98 L 120.85,546.84 L 120.24,546.27 L 120.19,545.47 L 120.75,544.90 L 120.74,544.48 L 120.24,544.10 L 120.09,543.36 L 120.26,542.66 L 119.58,542.12 L 119.57,542.09 L 119.45,541.82 L 118.55,540.75 L 117.78,540.11 L 117.14,539.83 L 116.64,539.08 L 116.42,538.74 L 116.33,538.36 L 115.71,537.02 L 124.30,535.84 L 130.00,534.54 L 130.18,534.78 L 130.75,536.32 L 133.22,541.43 L 134.00,542.51 L 134.31,543.15 L 135.27,543.02 L 135.63,543.80 L 138.35,543.52 L 141.16,543.33 L 142.47,544.93 L 145.99,543.70 L 149.27,542.85 L 149.88,544.17 L 152.90,543.41 L 153.41,545.39 L 155.63,545.21 L 157.93,545.01 L 158.37,543.75 L 158.87,543.68 L 159.38,543.24 L 159.33,541.95 L 159.63,539.21 L 159.41,537.37 L 158.74,535.50 L 158.67,534.83 L 158.71,534.77 L 158.87,534.66 L 159.18,534.30 L 160.30,533.81 L 161.06,533.10 L 161.66,532.81 L 162.52,532.72 L 164.91,532.68 L 172.57,532.11 L 176.61,532.09 L 176.56,532.93 L 178.32,533.02 L 182.25,532.94 L 185.72,532.93 L 189.07,532.70 L 189.35,533.18 L 189.53,533.99 L 189.53,535.39 L 190.00,536.26 L 190.44,537.39 L 191.24,538.12 L 191.46,539.18 L 191.66,540.77 L 192.11,541.59 L 193.39,542.82 L 193.75,543.30 L 193.79,544.28 L 194.00,545.13 L 195.00,547.12 L 195.35,547.99 L 195.80,548.47 L 195.93,549.20 L 195.83,550.05 L 195.96,550.40 L 196.25,550.61 L 196.44,550.64 L 196.68,550.68 L 197.34,549.64 L 197.50,549.51 L 198.15,549.08 L 198.74,548.87 L 199.96,548.94 L 200.71,548.81 L 202.70,546.90 L 204.00,546.34 L 204.98,545.52 L 205.15,545.10 L 205.39,544.91 L 205.40,544.50 L 205.41,544.47 L 205.41,544.28 L 205.43,543.56 L 205.38,542.49 L 204.68,540.97 L 202.75,539.02 L 204.67,537.88 L 205.32,537.58 L 205.44,537.36 L 206.44,536.54 L 206.46,535.05 L 206.58,534.73 L 206.88,533.45 L 206.99,533.13 L 207.53,532.21 L 210.85,531.87 L 213.43,531.94 L 213.34,535.31 L 212.92,543.14 L 213.69,543.20 L 213.67,543.58 L 216.57,543.41 L 217.79,543.50 L 222.79,543.83 L 228.99,543.59 L 231.70,543.59 L 233.08,543.80 L 234.45,544.02 L 236.86,544.09 L 238.61,545.00 L 241.46,546.07 L 243.74,547.64 L 244.51,547.87 L 245.14,547.82 L 246.10,548.68 L 248.27,549.85 L 250.35,549.07 L 251.59,549.16 L 252.27,550.36 L 252.32,550.73 L 252.41,553.34 L 253.03,555.16 L 253.18,555.51 L 253.65,555.32 L 253.73,554.41 L 253.81,553.42 L 253.81,551.32 L 254.03,549.54 L 254.17,549.27 L 255.05,549.35 L 255.80,549.42 L 256.06,548.42 L 256.65,546.22 L 256.94,543.90 L 257.07,541.50 L 257.17,539.79 L 257.79,537.05 L 258.44,535.27 L 258.49,535.12 L 259.17,534.00 L 265.48,533.23 L 269.86,533.10 L 272.19,533.04 L 272.21,533.04 L 276.46,532.95 L 279.00,532.61 L 279.47,532.62 L 280.84,532.47 L 282.21,532.32 L 284.44,531.62 L 286.24,531.20 L 288.21,531.09 L 290.56,531.11 L 293.23,530.90 L 294.73,530.58 L 294.18,527.54 L 294.18,525.92 L 294.07,525.10 L 293.99,521.36 L 294.08,521.29 L 295.85,521.10 L 295.90,520.60 L 295.92,520.60 L 296.46,519.86 L 296.79,518.05 L 297.21,510.78 L 297.48,507.87 L 297.56,505.93 L 302.89,503.60 L 303.63,501.97 L 320.43,501.69 L 346.77,502.07 L 346.97,501.98 L 346.97,508.45 L 346.93,520.25 L 346.92,521.08 L 346.64,522.39 L 346.58,522.52 L 346.24,522.52 L 346.21,523.20 L 345.93,523.72 L 346.14,525.12 L 346.25,525.37 L 346.40,526.15 L 347.36,527.47 L 347.72,528.26 L 348.23,528.47 L 348.18,528.63 L 347.99,529.36 L 347.64,530.02 L 346.67,530.94 L 345.63,530.87 L 345.36,531.51 L 346.44,532.25 L 346.44,532.78 L 346.99,533.21 L 347.39,533.92 L 347.69,535.42 L 348.35,536.58 L 348.94,537.10 L 349.00,537.61 L 349.38,537.77 L 349.71,537.81 L 349.82,537.78 L 350.99,538.39 L 351.55,539.15 L 352.23,540.31 L 352.31,541.00 L 352.11,542.56 L 352.26,543.40 L 353.07,544.06 L 353.11,544.68 L 352.87,545.38 L 353.56,546.13 L 353.73,546.21 L 354.47,547.16 L 355.23,547.91 L 355.33,548.58 L 356.08,549.89 L 357.84,551.16 L 359.35,553.03 L 359.48,553.99 L 359.62,554.47 L 359.56,555.03 L 359.60,555.93 L 359.76,556.28 L 359.80,556.71 L 361.30,557.18 L 362.71,557.70 L 363.24,558.19 L 363.23,559.64 L 363.08,560.13 L 363.14,560.68 L 363.68,562.04 L 363.86,562.82 L 364.22,563.06 L 364.24,563.17 L 363.33,565.33 L 363.61,565.35 L 363.75,565.36 L 364.60,565.63 L 365.32,565.47 L 366.14,565.52 L 366.47,564.20 L 367.11,563.66 L 367.63,563.55 L 369.15,563.54 L 370.87,566.84 L 372.57,566.36 L 372.48,565.89 L 373.30,565.81 L 373.68,565.58 L 373.78,564.72 L 374.23,564.18 L 374.94,564.16 L 375.59,569.38 L 377.38,569.43 L 378.02,569.73 L 380.59,570.23 L 385.32,571.44 L 388.45,572.02 L 388.74,575.30 L 388.83,575.30 L 388.73,576.58 L 391.45,576.79 L 393.35,576.86 L 393.36,585.36 L 393.73,590.00 L 395.05,589.67 L 395.76,589.50 L 396.67,589.69 L 397.57,589.88 L 398.67,589.69 L 399.98,589.69 L 401.18,589.59 L 402.19,589.03 L 403.49,588.75 L 405.51,589.04 L 405.70,588.29 L 405.80,586.41 L 406.51,584.99 L 406.80,584.18 L 407.41,583.68 L 407.96,583.11 L 408.33,582.92 L 409.82,581.90 L 411.74,581.71 L 414.35,580.12 L 416.46,578.70 L 418.07,578.90 L 421.28,579.92 L 425.19,579.92 L 427.01,578.61 L 428.71,576.27 L 430.53,574.49 L 431.58,574.16 L 434.04,573.54 L 437.45,572.09 L 437.67,571.58 L 437.95,571.47 L 438.20,571.02 L 439.29,570.51 L 440.39,569.84 L 441.02,569.65 L 442.95,568.25 L 443.89,566.72 L 444.29,564.94 L 444.42,564.66 L 446.64,560.85 L 447.11,559.76 L 448.88,558.04 L 451.52,556.03 L 451.69,555.96 L 451.84,556.07 L 455.45,555.51 L 458.76,554.48 L 460.65,553.94 L 460.46,551.78 L 460.72,551.14 L 462.54,550.75 L 464.88,550.48 L 467.37,550.38 L 469.25,549.94 L 471.03,549.81 L 472.12,549.05 L 472.75,543.30 L 473.53,538.43 L 474.19,537.48 L 474.31,536.94 L 481.50,538.79 L 481.45,539.21 L 480.65,541.00 L 480.04,541.97 L 479.51,543.21 L 479.35,544.62 L 481.25,544.85 L 486.40,544.59 L 488.41,544.78 L 488.54,545.10 L 488.28,548.22 L 487.82,549.99 L 487.82,550.74 L 491.38,550.70 L 491.71,550.73 L 491.94,550.84 L 490.81,554.30 L 490.97,556.23 L 491.37,558.72 L 491.37,559.66 L 490.84,563.05 L 491.23,566.08 L 491.04,572.29 L 494.74,572.29 L 494.74,573.24 L 497.36,573.33 L 500.67,573.72 L 502.97,573.61 L 504.77,573.52 L 510.99,573.44 L 511.30,571.87 L 511.47,571.35 L 517.32,571.08 L 522.24,570.61 L 524.99,570.27 L 526.73,570.18 L 530.85,570.09 L 532.02,570.01 L 534.48,570.09 L 538.95,570.47 L 546.89,571.04 L 552.87,571.16 L 555.02,571.48 L 556.30,571.23 L 556.68,571.10 L 556.69,567.31 L 556.65,564.60 L 564.05,564.66 L 565.19,559.56 L 566.50,553.32 L 567.91,546.96 L 567.87,543.79 L 568.25,543.61 L 568.73,543.39 L 568.76,540.67 L 570.48,540.42 L 570.88,540.36 L 573.18,540.53 L 573.49,540.56 L 574.27,540.36 L 575.48,540.06 L 576.93,539.73 L 577.73,539.55 L 579.27,539.23 L 582.75,539.14 L 583.27,539.13 L 586.43,539.00 L 590.17,538.96 L 591.39,538.87 L 591.38,538.80 L 591.24,537.95 L 590.35,535.70 L 589.88,533.40 L 589.16,530.16 L 588.67,527.73 L 588.15,524.95 L 587.12,522.06 L 587.16,518.19 L 588.71,518.35 L 588.85,518.36 L 591.24,518.40 L 593.07,518.24 L 594.12,517.62 L 594.53,517.37 L 596.14,516.35 L 598.30,514.57 L 598.38,513.90 L 600.01,513.68 L 600.99,513.54 L 607.27,512.92 L 606.84,510.89 L 606.59,509.71 L 608.13,509.43 L 614.55,508.26 L 617.55,508.07 L 623.09,506.98 L 625.68,506.23 L 626.54,507.14 L 629.20,506.77 L 632.29,506.14 L 632.29,505.97 L 632.26,504.30 L 632.22,501.21 L 633.79,501.24 L 634.09,501.25 L 636.95,501.32 L 639.77,501.87 L 642.94,502.43 L 642.80,504.31 L 642.77,504.73 L 643.00,506.18 L 643.11,506.18 L 648.97,506.32 L 651.31,506.92 L 651.39,508.41 L 652.19,523.16 L 652.60,529.58 L 652.21,533.40 L 652.01,537.03 L 651.75,541.81 L 652.00,541.82 L 655.61,542.00 L 658.53,541.84 L 660.56,541.72 L 661.12,541.90 L 663.76,542.71 L 670.90,543.70 L 672.76,543.64 L 676.21,544.64 L 677.76,544.95 L 687.74,543.57 L 691.82,543.00 L 694.04,542.71 L 694.63,546.09 L 695.16,547.14 L 696.82,547.59 L 696.97,550.39 L 698.37,550.33 L 698.74,549.37 L 699.10,548.96 L 699.68,548.28 L 700.71,547.15 L 701.11,545.86 L 701.23,544.78 L 701.57,543.73 L 702.27,543.06 L 703.35,542.95 L 704.38,543.16 L 705.08,543.41 L 705.15,543.46 L 705.75,543.90 L 706.28,543.89 L 706.62,543.72 L 706.66,543.69 L 706.86,543.16 L 707.04,542.67 L 707.20,542.14 L 707.51,541.81 L 707.83,541.70 L 708.25,541.84 L 709.06,542.52 L 709.69,542.96 L 710.40,543.15 L 711.07,542.98 L 711.24,542.62 L 711.30,542.12 L 711.36,541.73 L 712.52,541.62 L 713.71,541.40 L 714.09,540.97 L 714.22,540.41 L 714.21,539.92 L 714.60,539.64 L 715.72,539.60 L 716.57,539.79 L 717.10,540.17 L 717.63,540.09 L 718.17,540.32 L 718.47,540.59 L 718.94,540.85 L 719.37,541.05 L 719.96,541.21 L 720.68,541.40 L 721.29,541.43 L 722.15,541.38 L 722.88,541.10 L 723.34,540.89 L 723.55,540.38 L 723.26,540.08 L 723.14,539.81 L 723.18,539.65 L 723.25,539.57 L 723.39,539.57 L 723.64,539.57 L 724.01,539.88 L 724.77,540.10 L 725.53,540.36 L 726.36,540.55 L 727.66,540.53 L 728.81,540.58 L 729.25,540.42 L 729.38,539.97 L 729.41,539.43 L 729.40,538.97 L 729.40,538.73 L 729.62,538.52 L 730.04,538.48 L 730.87,538.37 L 731.41,538.16 L 731.91,537.71 L 732.23,537.07 L 732.14,536.40 L 732.06,535.42 L 732.34,534.94 L 733.01,534.50 L 733.58,533.79 L 734.48,533.27 L 734.93,532.93 L 735.44,533.06 L 735.55,533.36 L 735.56,533.56 L 735.59,533.73 L 736.32,533.42 L 737.26,531.62 L 738.26,528.54 L 739.06,526.60 L 744.44,523.14 L 747.47,520.98 L 750.12,519.18 L 750.11,513.77 L 750.23,512.69 L 749.95,510.24 L 749.64,508.86 L 749.03,499.82 L 748.91,496.21 L 748.89,492.22 L 748.70,489.85 L 749.48,489.83 L 750.93,489.08 L 751.14,487.95 L 750.73,486.77 L 750.66,485.89 L 750.68,485.23 L 750.74,484.48 L 751.15,483.22 L 751.23,482.75 L 751.70,482.40 L 751.55,480.57 L 750.43,480.72 L 749.83,479.53 L 747.87,475.55 L 748.43,474.84 L 748.11,472.35 L 748.31,470.07 L 748.20,469.65 L 748.13,468.41 L 748.09,466.60 L 747.78,458.24 L 747.44,452.92 L 747.43,451.78 L 748.91,451.69 L 748.80,450.54 L 748.75,448.31 L 752.15,447.23 L 755.51,445.75 L 760.00,444.44 L 762.48,443.85 L 764.02,443.49 L 764.96,442.00 L 767.11,439.87 L 770.47,435.80 L 774.22,436.88 L 776.90,437.83 L 779.75,438.66 L 780.91,438.58 L 782.96,438.23 L 787.96,437.50 L 789.74,425.66 L 790.00,416.01 L 789.86,407.35 L 785.82,407.76 L 781.17,407.43 L 777.99,407.06 L 775.98,406.61 L 775.73,405.53 L 774.30,400.58 L 773.23,397.03 L 772.64,394.82 L 772.39,393.46 L 772.24,391.56 L 771.95,390.73 L 771.78,388.74 L 772.01,386.93 L 772.14,386.35 L 772.16,385.19 L 772.13,384.57 L 771.78,383.73 L 771.55,382.81 L 771.08,380.55 L 771.44,374.61 L 770.97,372.46 L 769.96,366.13 L 769.72,362.50 L 769.07,359.91 L 768.33,356.80 L 767.41,352.17 L 765.28,343.34 L 765.51,337.49 L 765.92,335.59 L 765.89,328.70 L 766.23,327.13 L 766.65,321.10 L 766.43,314.04 L 766.62,313.29 L 766.61,307.35 L 766.83,306.47 L 765.67,306.80 L 764.53,300.96 L 761.79,300.76 L 761.92,302.81 L 759.63,302.84 L 759.31,305.48 L 756.08,305.69 L 750.62,305.35 L 750.86,294.86 L 749.45,294.77 L 749.30,291.76 L 749.70,289.19 L 749.70,287.87 L 750.21,286.31 L 747.66,287.01 L 745.81,286.97 L 745.81,286.09 L 745.54,282.15 L 745.35,279.55 L 745.17,276.82 L 744.53,275.27 L 744.46,274.67 L 742.92,275.01 L 742.78,275.05 L 742.96,271.95 L 742.88,267.39 L 742.74,264.19 L 740.83,259.79 L 743.44,257.15 L 744.94,255.11 L 743.59,252.39 L 743.54,252.14 L 742.20,249.28 L 747.81,237.57 L 746.27,236.93 L 743.96,235.85 L 743.43,233.84 L 745.90,230.22 L 747.73,226.97 L 749.85,224.60 L 751.92,222.68 L 750.26,219.19 L 747.15,216.03 L 744.40,214.18 L 744.53,213.52 L 755.12,203.68 L 760.42,199.48 L 763.01,196.18 L 761.32,196.81 L 759.89,197.35 L 757.59,197.59 L 754.32,197.43 L 752.92,197.35 L 750.74,197.28 L 748.18,197.31 L 746.52,196.78 L 745.43,196.41 L 743.76,196.22 L 742.49,196.58 L 740.95,197.67 L 740.00,197.88 L 737.55,198.84 L 735.11,199.86 L 732.78,200.31 L 730.64,200.18 L 728.87,199.40 L 726.41,197.89 L 724.95,197.46 L 723.14,197.08 L 721.51,195.77 L 720.53,194.51 L 719.85,194.22 L 719.22,194.29 L 718.58,194.75 L 717.80,195.14 L 716.14,195.77 L 714.85,195.74 L 713.50,195.11 L 712.66,194.83 L 711.80,194.89 L 710.03,195.28 L 707.59,195.78 L 704.11,196.27 L 701.94,196.38 L 700.24,195.85 L 698.28,195.43 L 697.24,195.61 L 695.01,195.89 L 692.14,196.24 L 690.68,196.10 L 689.58,195.79 L 687.78,194.48 L 684.77,192.60 L 682.84,191.22 L 681.42,190.38 L 681.04,189.39 L 681.01,187.88 L 680.18,186.37 L 678.75,185.14 L 676.74,183.52 L 673.84,179.89 L 673.65,180.49 L 672.68,181.88 L 670.65,184.24 L 669.38,185.55 L 666.89,187.14 L 664.36,189.64 L 663.04,191.61 L 662.40,193.36 L 662.25,195.68 L 662.19,199.07 L 661.47,201.05 L 660.42,202.21 L 658.61,203.46 L 655.30,205.66 L 651.76,207.52 L 650.07,208.15 L 648.11,208.64 L 645.81,208.93 L 640.84,209.43 L 637.00,209.63 L 632.43,209.95 L 631.65,210.88 L 630.45,211.86 L 629.80,211.93 L 629.20,212.03 L 628.30,211.33 L 627.77,211.33 L 625.66,211.12 L 623.25,210.95 L 621.45,210.83 L 613.22,210.39 L 609.75,210.00 L 602.51,209.55 L 599.10,209.36 L 596.28,209.04 L 595.35,209.05 L 592.22,208.85 L 588.46,208.77 L 587.92,208.88 L 586.53,209.03 L 584.38,209.03 L 582.87,209.04 L 581.23,209.01 L 580.40,209.18 L 579.67,209.35 L 578.92,209.28 L 579.05,208.50 L 579.33,207.52 L 579.24,206.80 L 579.14,205.08 L 579.12,203.21 L 578.93,202.55 L 578.84,202.33 L 578.46,201.82 L 577.82,201.09 L 576.93,200.15 L 576.19,199.36 L 575.47,198.54 L 574.91,197.90 L 574.60,197.38 L 574.03,197.09 L 573.01,196.56 L 571.76,195.83 L 571.32,195.33 L 570.51,194.58 L 569.89,194.18 L 569.27,193.96 L 568.79,193.66 L 568.38,193.45 L 567.99,193.19 L 567.57,192.60 L 566.42,190.82 L 565.26,189.04 L 564.48,187.68 L 563.65,186.26 L 563.32,185.59 L 562.62,184.45 L 562.15,183.26 L 561.92,182.27 L 561.90,181.37 L 561.87,180.46 L 561.98,179.27 L 562.06,178.70 L 562.23,178.28 L 562.44,177.68 L 562.61,176.96 L 562.59,176.48 L 562.69,176.02 L 563.03,175.40 L 563.41,174.65 L 563.53,174.13 L 563.47,172.37 Z" fill="#1d3672" stroke="#333" stroke-width="1"/>
</svg>