<svg xmlns="http://www.w3.org/2000/svg" width="800" height="600" viewBox="0 0 800 600">
<path d="M 216.48,14.41 L 215.70,10.00 L 214.24,10.58 L 192.01,23.40 L 173.74,37.64 L 172.51,38.18 L 171.45,37.71 L 170.89,37.42 L 163.17,33.36 L 157.48,30.38 L 152.88,28.07 L 149.20,27.19 L 146.02,26.38 L 140.91,26.11 L 137.98,26.65 L 132.86,27.70 L 129.28,28.36 L 127.33,28.47 L 122.24,28.39 L 119.55,29.30 L 119.68,29.91 L 120.21,32.35 L 120.05,34.67 L 119.67,37.24 L 119.53,40.09 L 119.51,40.58 L 119.52,42.15 L 119.51,43.72 L 119.03,47.32 L 119.25,49.56 L 120.47,51.91 L 121.49,53.80 L 120.56,55.04 L 120.47,55.93 L 120.65,57.50 L 121.87,57.96 L 123.18,58.81 L 125.88,58.11 L 131.05,57.26 L 135.21,56.72 L 150.50,54.15 L 152.05,53.92 L 155.23,51.83 L 158.67,50.13 L 159.08,48.97 L 158.83,47.82 L 157.93,44.87 L 170.03,40.88 L 174.16,39.51 L 174.17,44.20 L 174.46,52.77 L 174.83,58.12 L 175.02,63.02 L 174.82,65.34 L 174.74,66.81 L 174.74,68.04 L 175.16,69.49 L 175.23,71.73 L 174.91,73.19 L 175.74,74.07 L 174.61,75.13 L 174.09,75.69 L 172.69,77.24 L 171.13,79.01 L 168.57,81.96 L 166.63,83.41 L 164.31,84.95 L 162.03,86.15 L 160.57,86.71 L 158.33,87.35 L 156.58,87.63 L 155.61,87.96 L 154.48,88.42 L 152.67,88.92 L 150.92,89.25 L 149.21,89.04 L 148.11,88.47 L 146.75,88.21 L 145.58,87.43 L 144.18,87.09 L 141.60,86.27 L 139.37,85.19 L 135.75,84.23 L 134.20,83.97 L 132.87,84.11 L 131.92,84.93 L 131.17,85.84 L 130.91,86.16 L 130.34,86.89 L 128.67,89.48 L 127.17,91.46 L 126.93,91.74 L 124.84,94.24 L 123.36,95.51 L 122.08,95.90 L 119.29,96.53 L 118.03,96.52 L 115.70,96.17 L 114.18,95.59 L 110.97,93.79 L 106.48,91.13 L 103.06,89.36 L 100.19,88.51 L 98.76,88.44 L 97.46,88.82 L 96.43,89.17 L 93.70,90.33 L 91.77,90.57 L 89.70,90.57 L 87.61,90.57 L 83.77,90.68 L 82.34,89.53 L 79.25,87.63 L 76.65,86.27 L 75.27,85.36 L 74.16,84.79 L 73.46,84.27 L 72.69,82.81 L 72.49,81.04 L 72.25,80.16 L 71.67,79.45 L 70.70,78.05 L 70.03,76.87 L 69.66,74.50 L 69.43,72.17 L 69.20,68.73 L 68.97,65.70 L 68.86,63.86 L 68.59,63.21 L 68.29,62.80 L 67.63,62.42 L 65.83,62.20 L 62.51,62.01 L 61.70,61.87 L 60.98,62.09 L 59.85,63.02 L 58.87,64.50 L 58.72,65.64 L 58.64,66.77 L 58.56,68.47 L 58.15,69.29 L 57.10,70.51 L 56.43,71.16 L 55.42,71.71 L 54.20,71.99 L 53.48,72.15 L 53.25,72.34 L 52.96,73.96 L 52.63,75.64 L 51.91,77.17 L 51.44,78.79 L 51.21,80.05 L 50.69,81.19 L 50.14,81.68 L 49.56,81.84 L 49.31,81.86 L 48.21,81.15 L 47.43,80.82 L 47.03,80.79 L 45.86,82.27 L 44.85,83.39 L 44.22,84.07 L 43.67,84.34 L 43.06,84.73 L 42.37,85.11 L 41.04,85.02 L 40.34,84.81 L 40.10,84.84 L 40.59,86.37 L 41.78,89.79 L 42.48,91.65 L 43.17,93.65 L 43.97,95.64 L 44.17,96.05 L 44.61,96.02 L 45.71,95.53 L 46.66,95.09 L 48.42,94.41 L 49.70,94.00 L 51.09,93.67 L 52.44,93.43 L 54.81,93.05 L 56.26,92.64 L 57.50,91.96 L 58.00,91.52 L 58.16,92.17 L 58.77,93.90 L 59.87,96.44 L 61.18,99.95 L 61.61,101.24 L 62.21,102.63 L 63.48,104.05 L 64.78,105.61 L 66.91,107.93 L 68.44,109.71 L 70.01,111.18 L 70.33,111.67 L 71.00,111.48 L 71.17,111.31 L 72.07,112.27 L 73.25,113.42 L 74.88,114.76 L 76.47,116.02 L 78.84,118.43 L 80.80,120.15 L 82.51,121.55 L 83.81,122.68 L 85.13,123.17 L 86.46,123.53 L 87.70,123.65 L 88.49,124.51 L 89.88,127.92 L 90.40,129.64 L 91.08,131.84 L 92.34,134.98 L 93.01,136.02 L 93.67,137.06 L 96.02,141.08 L 96.39,142.37 L 96.75,143.66 L 96.82,145.10 L 96.90,146.54 L 96.58,148.46 L 96.79,149.92 L 97.42,151.10 L 97.47,151.17 L 98.08,152.51 L 98.84,153.49 L 99.61,154.48 L 100.33,156.25 L 100.89,158.06 L 101.47,161.01 L 101.77,161.99 L 102.53,165.32 L 103.39,170.50 L 103.71,173.49 L 104.14,176.18 L 104.16,176.35 L 105.02,178.74 L 105.60,181.36 L 105.85,184.89 L 105.54,187.58 L 104.38,190.03 L 103.26,192.41 L 102.41,194.64 L 101.97,195.49 L 101.53,196.35 L 100.86,197.38 L 100.07,198.30 L 99.36,199.73 L 98.69,200.51 L 98.37,201.52 L 98.37,201.54 L 98.35,202.65 L 98.69,203.80 L 98.72,203.90 L 101.55,208.02 L 102.95,210.10 L 104.65,212.35 L 105.17,213.25 L 105.66,214.50 L 105.17,215.46 L 104.70,216.61 L 104.23,217.76 L 103.79,219.47 L 103.42,220.80 L 103.65,221.88 L 103.83,223.24 L 103.91,224.36 L 103.74,225.68 L 103.58,226.87 L 103.38,228.17 L 103.36,228.61 L 103.34,229.12 L 103.11,231.96 L 102.42,233.19 L 101.93,234.03 L 101.02,235.21 L 100.22,236.08 L 99.43,236.93 L 98.48,237.87 L 97.45,239.43 L 96.44,240.99 L 95.90,242.14 L 94.95,243.29 L 94.37,244.39 L 93.66,245.56 L 93.39,246.04 L 93.11,246.52 L 92.34,247.61 L 91.97,248.66 L 91.33,252.04 L 90.87,254.81 L 90.82,256.11 L 90.69,258.81 L 90.72,261.06 L 91.06,262.32 L 91.52,263.61 L 91.98,264.92 L 92.72,266.27 L 93.36,268.39 L 94.60,272.15 L 95.48,273.34 L 96.08,274.30 L 97.37,276.50 L 98.73,278.51 L 100.31,280.69 L 101.45,281.74 L 103.33,283.06 L 104.34,283.62 L 105.42,284.17 L 106.97,284.89 L 108.19,285.12 L 110.59,285.59 L 111.90,285.80 L 111.74,286.76 L 111.40,289.11 L 111.05,291.85 L 110.51,294.42 L 110.29,296.79 L 110.34,297.96 L 110.23,301.78 L 110.16,303.20 L 110.09,304.44 L 112.38,305.83 L 114.67,306.99 L 116.96,308.14 L 118.33,308.63 L 120.78,309.46 L 120.81,310.79 L 120.84,312.13 L 120.95,313.04 L 121.75,313.34 L 123.01,313.58 L 122.87,314.90 L 122.84,316.30 L 123.14,317.67 L 123.54,318.83 L 122.59,319.07 L 121.84,319.80 L 121.43,321.02 L 121.06,322.54 L 120.46,324.85 L 119.64,327.49 L 118.63,329.84 L 117.21,332.05 L 115.96,333.99 L 114.88,335.06 L 113.76,335.92 L 112.91,336.58 L 111.84,337.75 L 111.37,339.21 L 110.95,340.45 L 110.87,341.92 L 111.30,343.05 L 109.72,344.13 L 109.72,345.79 L 109.48,347.04 L 108.48,347.59 L 107.89,349.02 L 107.46,350.73 L 107.14,352.76 L 107.07,354.11 L 106.75,355.35 L 106.16,356.84 L 104.38,360.42 L 103.99,362.73 L 104.43,366.18 L 104.16,367.38 L 103.08,369.70 L 102.22,371.02 L 102.85,372.71 L 104.08,375.55 L 104.68,376.71 L 103.02,378.62 L 100.36,380.31 L 99.57,380.42 L 98.06,381.14 L 96.56,381.70 L 94.21,382.23 L 91.72,382.45 L 90.62,382.34 L 89.62,380.83 L 87.99,377.68 L 87.24,376.29 L 85.98,376.03 L 84.31,374.76 L 83.87,374.53 L 83.54,374.51 L 82.90,375.04 L 82.29,375.62 L 81.95,375.93 L 81.45,376.08 L 80.91,376.41 L 80.59,376.68 L 80.15,377.15 L 79.73,377.73 L 79.39,378.75 L 79.21,379.49 L 78.91,380.13 L 78.58,380.71 L 78.15,381.32 L 77.98,381.47 L 77.46,380.75 L 77.18,380.41 L 76.80,380.11 L 76.48,379.92 L 76.01,379.79 L 75.37,379.68 L 75.19,379.58 L 74.95,379.41 L 74.57,378.68 L 74.47,378.66 L 74.17,378.05 L 74.09,377.84 L 73.43,377.56 L 73.16,377.30 L 72.70,376.90 L 72.38,376.54 L 72.18,376.31 L 72.04,376.15 L 71.64,375.99 L 71.28,375.94 L 70.96,375.46 L 70.73,374.94 L 70.61,374.63 L 70.45,374.41 L 70.33,374.24 L 70.01,373.99 L 69.52,373.86 L 68.80,373.68 L 68.32,373.67 L 68.09,373.57 L 68.12,372.44 L 68.26,371.67 L 68.57,370.78 L 68.65,370.36 L 68.82,369.89 L 67.43,369.80 L 66.07,369.64 L 65.66,368.98 L 65.58,368.02 L 65.56,366.38 L 65.58,364.99 L 65.60,363.57 L 65.54,362.42 L 65.69,360.77 L 65.65,358.49 L 65.57,356.23 L 65.33,354.85 L 65.11,353.22 L 64.90,351.71 L 64.94,351.24 L 64.49,349.03 L 64.32,346.56 L 64.14,344.20 L 63.92,342.50 L 63.78,341.52 L 63.68,340.82 L 63.39,339.88 L 62.40,339.56 L 61.56,339.20 L 60.86,338.95 L 59.75,338.82 L 58.35,338.57 L 58.13,338.55 L 57.65,337.91 L 57.02,336.99 L 56.52,336.06 L 56.04,335.38 L 55.82,334.99 L 55.43,334.44 L 54.12,334.28 L 52.48,333.81 L 51.35,333.74 L 50.39,333.62 L 50.07,333.62 L 49.67,333.07 L 49.37,332.73 L 48.68,332.26 L 47.24,331.62 L 46.65,331.34 L 46.33,331.20 L 44.85,331.03 L 43.40,331.05 L 40.38,331.22 L 37.85,331.44 L 35.24,331.61 L 34.62,331.66 L 33.56,330.74 L 32.80,330.27 L 32.78,330.25 L 31.25,329.94 L 31.19,329.91 L 30.49,329.81 L 29.30,329.51 L 28.90,329.42 L 26.41,329.11 L 23.51,328.73 L 20.68,328.43 L 18.03,328.11 L 15.59,327.88 L 14.68,327.69 L 14.21,327.56 L 11.82,327.42 L 10.00,327.18 L 10.86,328.42 L 11.71,329.95 L 12.43,331.18 L 13.05,332.43 L 14.19,334.29 L 14.99,336.07 L 15.72,337.84 L 16.20,339.27 L 16.82,340.45 L 17.30,341.41 L 17.47,341.78 L 18.80,344.79 L 19.77,346.88 L 20.73,349.24 L 21.39,350.86 L 21.62,351.50 L 23.13,355.15 L 24.04,357.18 L 24.92,359.60 L 25.50,361.13 L 27.16,365.00 L 27.95,367.02 L 28.27,367.94 L 28.79,369.09 L 29.32,370.19 L 29.62,370.62 L 30.42,371.38 L 31.58,372.68 L 31.80,373.00 L 33.16,374.45 L 34.32,375.75 L 34.54,376.02 L 35.17,377.01 L 35.69,377.92 L 36.27,378.73 L 36.55,379.51 L 37.02,381.15 L 37.16,381.90 L 37.36,382.23 L 37.50,382.42 L 38.51,381.90 L 40.14,381.20 L 40.66,380.92 L 41.00,380.69 L 41.30,380.58 L 42.26,380.67 L 43.61,380.64 L 44.63,380.66 L 45.90,380.41 L 46.20,380.43 L 46.86,381.50 L 47.14,381.81 L 47.86,381.71 L 49.23,381.62 L 49.71,381.64 L 50.49,382.41 L 50.49,382.47 L 50.76,382.64 L 51.46,382.58 L 53.54,382.74 L 56.08,382.64 L 57.61,382.66 L 58.85,382.74 L 60.20,382.79 L 59.56,380.80 L 61.30,380.04 L 62.42,379.40 L 62.64,379.31 L 63.90,379.47 L 65.50,379.56 L 65.69,379.62 L 65.87,379.68 L 66.17,381.98 L 66.41,383.78 L 66.65,384.30 L 68.46,385.32 L 70.93,386.53 L 72.84,387.44 L 72.66,389.19 L 72.92,390.57 L 72.97,390.91 L 72.73,392.40 L 72.41,393.87 L 72.39,394.91 L 72.54,395.91 L 72.93,396.64 L 73.45,397.23 L 74.72,398.70 L 75.17,399.23 L 75.87,399.38 L 76.93,399.36 L 77.45,399.38 L 77.74,399.40 L 78.46,399.78 L 79.06,400.18 L 79.68,400.44 L 80.34,400.61 L 81.17,400.67 L 82.21,400.63 L 83.55,400.74 L 84.60,401.29 L 85.23,402.53 L 85.52,403.63 L 85.92,404.41 L 87.78,405.54 L 88.57,406.07 L 89.68,407.48 L 90.64,408.61 L 91.70,410.14 L 92.19,412.97 L 91.71,415.25 L 91.51,416.52 L 91.47,417.39 L 91.60,419.00 L 92.43,419.74 L 93.38,420.34 L 94.34,421.16 L 94.62,422.07 L 94.65,423.20 L 93.94,424.70 L 93.34,425.53 L 91.68,427.66 L 91.57,428.60 L 91.25,429.69 L 91.06,430.66 L 91.09,432.25 L 91.42,433.41 L 91.46,433.50 L 91.46,433.51 L 91.87,434.46 L 91.87,434.54 L 92.34,435.49 L 92.97,436.58 L 93.73,437.75 L 94.14,438.49 L 94.31,438.87 L 94.54,442.48 L 94.69,445.10 L 94.78,447.53 L 95.38,450.95 L 95.61,452.25 L 96.05,453.26 L 97.07,455.40 L 98.47,457.68 L 98.87,458.85 L 99.02,459.98 L 98.94,461.19 L 97.51,463.19 L 96.04,465.16 L 95.42,467.27 L 95.69,470.99 L 96.23,474.87 L 96.07,477.19 L 96.17,482.21 L 95.92,483.41 L 94.90,485.61 L 93.98,486.42 L 92.62,487.17 L 91.90,487.35 L 91.22,487.50 L 92.24,488.65 L 93.41,489.64 L 94.56,490.11 L 95.65,491.03 L 97.55,492.79 L 98.22,493.94 L 98.72,494.99 L 98.82,496.32 L 98.29,499.01 L 97.89,501.30 L 97.23,503.73 L 96.33,507.42 L 95.72,510.22 L 96.00,511.34 L 101.26,512.05 L 102.69,512.27 L 105.04,511.20 L 107.63,508.81 L 108.54,507.61 L 109.23,506.64 L 110.07,505.61 L 111.03,504.64 L 112.24,503.97 L 114.59,503.54 L 117.26,503.22 L 118.45,502.63 L 119.55,501.91 L 120.53,499.84 L 121.06,497.51 L 121.32,496.45 L 121.54,495.12 L 122.18,491.55 L 122.80,490.33 L 123.42,489.19 L 125.36,487.35 L 126.40,486.55 L 127.66,486.15 L 130.39,485.98 L 132.71,485.10 L 133.75,484.48 L 134.71,483.51 L 135.85,481.37 L 135.91,480.20 L 136.24,477.75 L 136.70,475.27 L 137.14,471.70 L 137.36,470.43 L 138.40,467.91 L 139.14,467.02 L 140.17,466.45 L 141.20,465.88 L 145.09,465.12 L 145.40,465.94 L 145.35,465.96 L 145.64,466.37 L 146.44,466.78 L 147.32,467.17 L 148.02,467.32 L 148.71,467.44 L 151.27,467.10 L 153.52,466.73 L 156.92,466.35 L 158.21,466.63 L 159.37,467.08 L 164.93,469.20 L 169.17,470.06 L 171.14,469.87 L 172.07,469.38 L 172.30,468.84 L 172.23,468.38 L 172.01,467.82 L 171.76,467.04 L 171.76,466.55 L 172.11,466.18 L 172.43,466.09 L 172.75,466.00 L 173.62,466.06 L 174.59,466.85 L 174.69,467.00 L 174.79,467.15 L 174.51,468.82 L 173.76,472.49 L 173.63,473.65 L 174.07,477.53 L 174.18,481.27 L 174.32,481.75 L 174.52,481.99 L 174.60,482.21 L 174.61,482.47 L 174.60,482.67 L 174.51,482.86 L 174.37,482.97 L 174.22,483.13 L 174.14,483.33 L 174.08,483.83 L 174.08,484.11 L 174.15,484.33 L 174.25,484.46 L 174.52,484.69 L 174.87,485.10 L 174.98,485.42 L 175.08,485.79 L 175.12,486.02 L 175.01,486.29 L 174.85,486.45 L 174.82,486.63 L 174.97,486.90 L 175.40,487.39 L 175.64,487.65 L 175.82,487.97 L 175.90,488.23 L 175.89,488.57 L 175.70,488.99 L 175.56,489.22 L 175.48,489.43 L 175.50,489.78 L 175.65,490.04 L 175.81,490.27 L 176.01,490.52 L 176.24,490.77 L 176.35,491.06 L 176.66,491.53 L 177.00,491.82 L 177.22,492.05 L 177.33,492.33 L 177.52,492.55 L 177.73,492.63 L 178.06,492.65 L 178.34,492.64 L 178.48,492.60 L 178.65,492.55 L 179.06,492.30 L 179.06,492.31 L 179.43,492.98 L 184.28,497.26 L 190.06,502.34 L 191.01,502.96 L 193.16,503.99 L 194.35,504.21 L 195.53,504.44 L 196.91,504.47 L 197.81,504.83 L 199.04,505.12 L 200.16,505.45 L 201.27,505.78 L 203.96,506.55 L 204.89,507.54 L 205.83,508.54 L 206.98,513.38 L 207.31,519.55 L 207.39,520.27 L 207.47,520.98 L 207.87,524.88 L 209.37,529.40 L 211.64,535.21 L 212.28,536.99 L 212.92,538.77 L 213.30,541.30 L 213.48,542.44 L 213.85,543.24 L 214.72,543.75 L 215.71,544.27 L 217.20,544.79 L 218.34,548.46 L 219.47,550.74 L 219.95,551.92 L 220.19,553.14 L 220.19,554.39 L 219.31,561.84 L 219.29,561.94 L 219.31,562.01 L 220.30,562.75 L 221.29,563.30 L 222.51,564.08 L 223.64,564.98 L 224.12,565.55 L 224.56,566.16 L 224.71,566.31 L 225.07,566.61 L 225.22,566.75 L 225.42,566.95 L 225.76,567.22 L 226.07,567.41 L 227.10,567.90 L 227.83,568.19 L 228.62,568.50 L 229.55,569.01 L 230.02,569.26 L 230.56,569.49 L 231.52,569.71 L 233.05,569.75 L 234.26,569.70 L 235.37,569.67 L 237.17,569.84 L 238.28,569.92 L 239.78,570.32 L 240.41,570.55 L 241.02,570.78 L 241.85,571.12 L 242.36,571.31 L 242.95,571.41 L 244.16,571.42 L 245.55,571.21 L 246.36,570.96 L 246.35,570.93 L 246.98,570.70 L 247.84,571.55 L 248.94,572.57 L 249.68,573.46 L 249.97,574.76 L 250.63,576.42 L 251.61,577.84 L 252.49,579.16 L 252.85,580.29 L 253.19,581.49 L 254.27,583.65 L 255.14,584.51 L 256.86,586.12 L 257.65,587.03 L 258.07,588.38 L 258.49,589.36 L 259.63,589.60 L 260.95,589.60 L 262.28,590.00 L 263.61,587.78 L 264.41,586.81 L 265.96,584.92 L 266.69,583.97 L 267.13,583.46 L 267.57,582.96 L 268.50,580.56 L 269.52,578.43 L 270.07,577.21 L 270.70,576.20 L 271.33,575.19 L 272.16,574.40 L 274.16,572.62 L 276.44,571.27 L 280.93,568.78 L 283.97,566.56 L 284.98,565.76 L 287.76,563.23 L 288.79,562.37 L 290.63,560.92 L 291.96,560.19 L 293.09,559.59 L 295.53,558.67 L 297.93,558.08 L 300.68,557.56 L 301.89,557.12 L 302.95,556.58 L 303.81,555.92 L 305.03,555.15 L 306.19,554.61 L 308.76,553.77 L 309.99,553.34 L 311.25,552.94 L 313.46,552.02 L 314.79,551.51 L 316.26,551.40 L 317.54,551.53 L 318.83,551.65 L 320.26,551.74 L 321.45,551.81 L 322.81,551.81 L 323.87,551.31 L 325.54,549.52 L 325.84,549.00 L 326.15,548.48 L 327.27,547.64 L 328.40,546.83 L 330.66,545.76 L 331.18,545.51 L 331.70,545.27 L 332.00,543.97 L 331.86,542.78 L 331.34,541.42 L 330.94,540.24 L 329.95,538.02 L 329.46,536.78 L 329.06,535.63 L 328.63,534.41 L 328.19,533.20 L 328.20,531.96 L 328.70,530.98 L 329.23,530.70 L 329.69,530.47 L 331.12,529.91 L 333.72,529.21 L 335.05,528.67 L 335.55,528.27 L 336.04,527.88 L 337.30,525.91 L 338.52,523.78 L 339.45,522.61 L 340.65,521.27 L 341.85,519.91 L 343.19,518.51 L 344.52,517.10 L 346.07,515.14 L 346.83,514.13 L 348.11,511.98 L 348.63,510.86 L 349.29,508.53 L 349.62,507.34 L 350.17,503.58 L 351.26,501.36 L 351.76,500.19 L 353.45,498.26 L 354.26,497.51 L 356.27,495.82 L 357.39,494.99 L 359.64,493.98 L 362.10,492.77 L 363.73,491.32 L 364.53,490.29 L 365.53,488.20 L 366.22,486.89 L 367.66,485.05 L 368.38,484.38 L 368.59,484.19 L 370.80,482.68 L 373.06,481.48 L 374.28,481.05 L 375.51,480.75 L 376.74,480.45 L 378.22,480.33 L 380.70,480.00 L 381.87,479.54 L 383.35,479.37 L 384.65,479.62 L 386.12,479.84 L 387.17,480.16 L 389.56,481.42 L 391.96,482.44 L 394.12,483.87 L 396.22,485.28 L 397.37,485.98 L 397.74,486.21 L 398.69,486.80 L 400.99,485.94 L 403.83,485.54 L 407.46,485.33 L 407.57,482.98 L 406.48,481.92 L 404.66,479.98 L 403.90,479.11 L 402.85,478.12 L 402.08,477.02 L 401.31,476.15 L 401.83,474.86 L 402.98,472.67 L 403.65,471.68 L 404.64,470.90 L 406.08,470.12 L 407.35,469.79 L 408.79,469.37 L 411.11,468.72 L 412.65,468.26 L 413.54,467.48 L 414.40,466.48 L 415.08,465.53 L 415.49,464.45 L 415.58,463.31 L 414.91,461.14 L 414.64,459.53 L 414.55,458.23 L 414.37,457.02 L 414.34,455.71 L 414.41,454.56 L 414.54,452.22 L 414.75,450.73 L 415.04,448.28 L 415.11,447.29 L 415.13,447.02 L 415.55,444.80 L 416.08,443.74 L 416.56,442.91 L 416.97,442.42 L 417.38,441.92 L 418.71,441.39 L 421.31,440.64 L 423.61,439.73 L 424.58,437.77 L 425.51,436.18 L 426.11,432.18 L 426.06,427.11 L 426.32,426.64 L 427.30,424.88 L 427.93,423.30 L 429.30,421.51 L 430.78,419.44 L 430.89,419.29 L 427.58,418.22 L 423.15,416.13 L 419.27,415.56 L 416.79,413.52 L 417.03,413.40 L 419.46,412.82 L 421.88,411.67 L 423.07,410.35 L 424.13,409.55 L 428.23,410.21 L 431.37,410.07 L 432.17,408.68 L 432.91,407.06 L 433.34,405.03 L 434.06,402.28 L 434.37,401.32 L 434.42,398.21 L 433.97,397.62 L 432.92,395.16 L 431.38,393.06 L 429.45,391.28 L 428.72,390.26 L 428.44,388.77 L 428.30,387.93 L 429.19,386.98 L 429.33,386.85 L 430.15,385.74 L 431.09,384.54 L 431.90,383.63 L 432.77,382.64 L 433.71,381.79 L 434.50,381.18 L 435.27,380.60 L 436.16,380.25 L 437.23,380.21 L 437.56,379.62 L 438.56,379.04 L 442.59,378.24 L 444.07,378.45 L 445.63,377.82 L 446.88,377.41 L 448.70,376.88 L 449.42,376.73 L 449.64,376.19 L 452.09,376.37 L 453.19,376.42 L 455.43,377.81 L 457.02,379.53 L 457.82,380.72 L 458.90,382.83 L 459.58,384.02 L 459.91,386.37 L 459.30,388.85 L 459.01,390.12 L 458.92,391.09 L 459.43,392.29 L 459.58,393.00 L 460.47,393.75 L 461.77,394.55 L 463.02,394.91 L 465.14,395.38 L 466.68,395.43 L 468.08,395.43 L 470.09,394.59 L 471.78,393.26 L 472.01,392.99 L 472.24,392.02 L 472.98,389.22 L 473.92,387.05 L 475.00,384.49 L 476.86,380.03 L 478.03,377.20 L 479.35,374.36 L 480.70,371.97 L 482.39,370.55 L 483.42,369.57 L 484.07,368.83 L 484.45,367.63 L 484.51,366.85 L 484.58,366.09 L 484.44,363.62 L 484.44,360.92 L 485.09,358.70 L 485.28,357.44 L 488.19,357.57 L 489.58,357.68 L 492.48,357.83 L 493.77,353.39 L 488.09,350.56 L 489.40,349.24 L 488.30,347.48 L 486.67,344.59 L 485.85,344.02 L 484.51,343.55 L 482.60,343.34 L 480.69,343.88 L 479.42,343.78 L 478.15,343.67 L 476.56,343.05 L 477.86,339.70 L 478.76,338.19 L 480.13,335.67 L 481.01,334.84 L 481.63,332.51 L 482.69,330.83 L 483.11,330.59 L 483.95,330.37 L 484.63,329.86 L 484.85,329.12 L 485.09,328.51 L 485.68,327.53 L 486.18,326.73 L 486.44,326.39 L 486.80,325.88 L 487.38,325.20 L 488.02,324.58 L 488.52,323.88 L 488.78,323.32 L 488.90,322.96 L 488.94,322.67 L 488.91,321.99 L 488.82,321.65 L 488.50,321.08 L 488.15,320.59 L 488.04,320.25 L 488.04,319.82 L 488.26,319.50 L 488.46,319.15 L 488.99,318.66 L 489.71,318.02 L 490.38,317.46 L 490.84,316.86 L 491.35,316.33 L 491.67,315.82 L 491.87,315.48 L 492.00,315.09 L 492.14,314.50 L 492.35,313.99 L 492.66,313.28 L 492.92,312.78 L 493.22,312.17 L 493.59,311.22 L 493.33,308.41 L 490.51,305.74 L 488.28,305.40 L 486.13,304.09 L 484.41,301.92 L 482.93,299.06 L 478.04,295.53 L 473.11,291.81 L 472.98,291.71 L 470.07,289.43 L 462.74,284.22 L 452.97,279.32 L 450.07,277.08 L 444.56,274.37 L 442.42,273.05 L 441.41,272.42 L 439.30,270.88 L 440.14,263.92 L 440.68,261.84 L 440.87,256.81 L 440.45,251.21 L 441.18,249.12 L 442.40,246.38 L 442.36,244.33 L 442.90,242.12 L 443.36,240.67 L 444.43,239.71 L 444.96,238.09 L 444.06,234.84 L 443.74,233.50 L 444.19,232.04 L 444.42,231.10 L 444.41,230.50 L 439.16,229.05 L 434.52,227.81 L 431.04,226.79 L 429.70,226.31 L 426.77,225.15 L 423.95,225.02 L 421.75,224.58 L 416.28,224.38 L 413.39,225.28 L 408.54,225.15 L 405.75,225.38 L 403.87,225.51 L 397.84,225.59 L 393.77,222.31 L 392.31,215.99 L 391.55,213.02 L 385.84,202.54 L 381.83,193.02 L 381.39,189.42 L 382.17,185.86 L 383.99,179.64 L 380.01,175.55 L 374.07,172.56 L 374.22,172.44 L 373.53,169.57 L 372.26,165.20 L 371.66,163.58 L 368.26,158.72 L 365.42,156.25 L 362.16,154.74 L 359.30,152.12 L 357.93,151.24 L 355.14,149.21 L 353.79,148.42 L 354.73,144.78 L 355.65,143.26 L 356.74,140.71 L 359.25,136.56 L 361.43,134.37 L 361.60,132.16 L 363.34,129.55 L 364.65,127.99 L 365.82,126.54 L 366.45,125.60 L 367.54,124.64 L 369.38,123.24 L 371.17,122.66 L 372.91,121.86 L 374.18,120.40 L 374.90,119.10 L 374.53,116.99 L 375.07,115.17 L 373.41,114.95 L 369.45,114.16 L 368.35,113.43 L 367.78,112.70 L 367.04,111.55 L 366.12,109.31 L 363.38,106.88 L 360.96,103.71 L 356.42,99.08 L 353.65,96.61 L 350.93,95.03 L 342.71,89.13 L 340.99,87.72 L 339.26,86.33 L 337.85,85.03 L 336.43,83.74 L 334.74,81.95 L 333.31,79.68 L 332.62,78.87 L 331.40,77.74 L 330.05,77.16 L 329.08,77.03 L 327.65,76.64 L 326.22,76.23 L 325.36,75.30 L 324.61,74.18 L 323.73,72.01 L 323.03,69.46 L 322.79,68.18 L 322.56,66.90 L 322.31,64.60 L 322.18,63.44 L 318.06,66.18 L 313.17,68.48 L 309.58,70.46 L 305.98,71.91 L 302.24,73.49 L 298.23,76.46 L 294.27,81.49 L 292.56,82.62 L 290.83,83.75 L 281.14,85.45 L 276.53,82.41 L 274.26,81.84 L 273.00,81.96 L 272.35,82.35 L 270.99,83.35 L 269.11,85.27 L 267.32,86.61 L 266.22,86.35 L 264.50,83.74 L 262.72,82.13 L 261.20,80.85 L 259.37,80.10 L 256.51,80.36 L 252.94,81.67 L 249.68,81.83 L 245.84,80.81 L 241.82,79.92 L 240.33,79.71 L 238.17,79.07 L 235.68,78.05 L 232.97,77.07 L 231.51,76.82 L 229.65,77.09 L 228.42,77.49 L 227.10,78.65 L 225.02,79.89 L 223.41,81.02 L 220.93,82.16 L 218.43,82.36 L 215.76,81.65 L 214.70,80.94 L 214.10,78.98 L 215.67,70.78 L 218.54,62.82 L 218.82,56.87 L 218.18,44.23 L 220.86,43.70 L 229.93,36.65 L 228.44,33.29 L 227.58,30.82 L 224.77,28.34 L 224.21,25.95 L 221.50,22.02 L 220.52,19.90 L 218.36,17.33 L 216.48,14.41 Z" fill="#1d3672" stroke="#333" stroke-width="1"/>
</svg>