<svg xmlns="http://www.w3.org/2000/svg" width="800" height="600" viewBox="0 0 800 600">
<path d="M 423.44,10.40 L 421.36,10.00 L 419.09,10.32 L 417.30,11.06 L 415.22,11.94 L 411.51,13.47 L 408.28,14.50 L 404.41,15.73 L 401.10,16.47 L 396.48,17.76 L 391.38,19.83 L 387.54,22.16 L 381.48,26.15 L 377.38,28.88 L 377.36,28.90 L 374.75,30.67 L 370.19,33.54 L 368.44,34.37 L 365.93,34.94 L 360.38,35.54 L 356.46,36.35 L 351.63,37.41 L 348.42,37.50 L 345.13,36.61 L 340.76,34.57 L 338.30,34.25 L 338.17,34.21 L 337.15,33.93 L 336.03,33.70 L 332.76,32.13 L 330.13,31.04 L 326.64,30.49 L 324.19,31.04 L 319.43,32.93 L 317.77,33.19 L 314.41,32.95 L 310.28,31.94 L 305.93,29.65 L 302.11,28.53 L 299.57,27.80 L 298.32,27.24 L 297.54,26.74 L 296.73,25.23 L 296.43,24.84 L 294.52,22.45 L 293.45,21.53 L 292.20,21.14 L 290.91,21.06 L 289.44,21.01 L 287.25,21.46 L 282.86,22.52 L 281.01,22.55 L 279.18,22.42 L 275.29,21.51 L 275.18,21.50 L 274.21,21.32 L 273.19,20.82 L 271.47,19.71 L 265.25,14.59 L 262.40,13.41 L 261.81,14.41 L 261.22,17.07 L 260.52,23.14 L 259.72,27.04 L 256.54,39.67 L 254.66,44.39 L 244.08,42.23 L 240.55,42.05 L 237.81,41.92 L 235.15,41.68 L 234.01,41.81 L 230.00,42.20 L 227.58,42.27 L 226.24,42.43 L 226.64,44.60 L 227.34,48.73 L 228.21,51.42 L 228.95,55.17 L 229.54,56.55 L 230.40,57.83 L 231.16,58.89 L 231.79,60.06 L 232.27,61.24 L 233.03,62.49 L 233.30,63.56 L 233.61,64.89 L 233.64,64.93 L 235.99,65.59 L 238.71,66.32 L 241.33,67.01 L 242.88,67.34 L 243.79,67.44 L 244.08,67.49 L 251.54,70.07 L 261.25,76.68 L 267.99,81.35 L 270.40,81.62 L 272.65,81.88 L 275.39,81.60 L 280.67,80.82 L 281.27,80.79 L 281.56,84.87 L 279.01,86.85 L 277.77,100.46 L 276.81,112.42 L 276.91,118.49 L 281.18,118.69 L 280.32,130.91 L 291.93,131.98 L 291.73,136.41 L 301.38,135.88 L 300.33,147.18 L 298.65,154.84 L 297.50,162.80 L 305.70,164.73 L 306.04,166.56 L 305.98,168.04 L 305.98,168.04 L 305.78,171.54 L 304.28,173.49 L 303.52,179.36 L 303.44,184.94 L 303.26,186.72 L 303.26,186.72 L 303.42,192.39 L 302.49,194.79 L 303.82,201.70 L 301.73,213.74 L 299.47,226.11 L 297.63,237.03 L 279.16,232.30 L 276.32,236.71 L 274.45,240.14 L 272.62,245.30 L 271.70,249.97 L 271.88,251.58 L 271.80,252.89 L 271.33,256.77 L 271.28,258.64 L 271.13,260.89 L 271.04,263.87 L 271.20,266.29 L 271.55,269.56 L 271.78,272.91 L 271.84,275.95 L 272.19,279.03 L 272.31,281.54 L 272.40,284.52 L 272.29,288.52 L 272.15,292.03 L 272.02,294.09 L 271.96,301.42 L 259.54,304.90 L 259.27,306.09 L 259.21,307.62 L 258.97,309.68 L 258.98,311.44 L 259.16,314.31 L 260.09,318.25 L 260.49,320.41 L 261.14,323.63 L 261.61,329.76 L 258.40,331.55 L 255.77,334.07 L 254.18,336.26 L 254.25,337.05 L 254.93,338.62 L 254.53,339.80 L 254.83,340.90 L 256.06,342.18 L 258.61,344.27 L 258.85,345.57 L 257.00,346.68 L 255.20,348.83 L 252.88,350.97 L 251.07,353.43 L 249.79,353.81 L 248.84,354.47 L 247.43,355.04 L 245.66,355.30 L 244.08,355.52 L 237.60,357.45 L 235.13,360.05 L 230.99,364.30 L 228.20,366.82 L 227.00,367.67 L 222.53,369.11 L 217.85,370.36 L 213.58,370.42 L 212.33,369.99 L 211.66,369.40 L 204.32,362.17 L 198.48,368.26 L 196.49,368.86 L 181.68,374.18 L 178.72,374.51 L 173.82,374.83 L 171.31,375.02 L 167.11,375.26 L 164.34,375.58 L 160.21,376.49 L 156.60,377.31 L 154.23,377.88 L 147.45,378.35 L 143.13,378.79 L 142.14,378.83 L 140.94,378.88 L 137.41,378.62 L 134.62,378.68 L 130.85,378.34 L 129.87,377.56 L 128.08,375.93 L 126.45,376.11 L 120.95,377.03 L 116.58,377.63 L 114.25,378.15 L 108.84,379.24 L 106.26,379.61 L 102.42,380.80 L 97.60,382.51 L 94.99,383.31 L 90.90,384.56 L 87.25,385.92 L 86.36,386.95 L 85.46,387.99 L 82.57,391.08 L 81.62,392.36 L 82.21,394.81 L 82.86,398.46 L 83.42,402.02 L 81.40,403.00 L 79.15,404.15 L 76.50,404.40 L 74.29,405.11 L 74.50,406.83 L 74.45,408.82 L 73.58,409.39 L 72.52,410.21 L 70.52,411.59 L 68.49,411.59 L 67.53,411.71 L 66.09,412.17 L 63.56,413.12 L 61.20,414.07 L 59.96,413.76 L 55.86,412.41 L 53.31,412.40 L 51.99,412.67 L 50.68,412.93 L 49.35,413.69 L 48.35,415.90 L 47.90,417.46 L 47.07,418.61 L 45.14,420.66 L 44.27,421.71 L 43.21,422.78 L 41.95,423.50 L 39.49,424.83 L 38.24,425.76 L 37.45,426.84 L 35.84,429.16 L 35.11,430.17 L 33.67,432.58 L 32.89,435.09 L 32.38,436.43 L 31.57,438.74 L 30.86,440.86 L 28.12,442.24 L 27.16,442.88 L 25.70,443.46 L 23.26,445.08 L 20.35,445.56 L 17.77,446.19 L 16.20,447.97 L 15.37,448.68 L 13.33,451.14 L 14.27,453.00 L 13.34,453.92 L 12.04,454.78 L 10.00,456.25 L 10.50,457.26 L 11.05,458.32 L 11.46,460.76 L 12.04,463.08 L 12.10,464.12 L 12.20,465.63 L 11.94,466.66 L 13.05,466.79 L 15.55,467.66 L 17.58,468.94 L 17.29,470.09 L 16.89,471.32 L 16.55,474.07 L 16.99,475.41 L 17.58,477.86 L 17.69,479.44 L 18.43,483.15 L 19.31,486.90 L 20.04,488.04 L 20.65,490.52 L 20.99,491.62 L 20.97,493.65 L 22.31,497.71 L 22.90,500.13 L 23.67,501.55 L 24.76,501.27 L 27.07,500.74 L 28.65,501.66 L 31.09,503.00 L 33.30,504.56 L 33.01,506.66 L 32.59,509.32 L 32.15,510.38 L 31.21,512.53 L 29.70,515.26 L 28.98,515.95 L 27.61,517.42 L 26.82,518.42 L 25.68,521.38 L 24.77,523.82 L 24.08,524.73 L 22.42,526.24 L 19.72,528.38 L 17.99,529.98 L 18.04,531.89 L 18.13,533.58 L 18.70,534.89 L 19.19,535.85 L 20.64,535.21 L 21.76,534.30 L 22.97,532.95 L 24.56,530.99 L 25.43,531.13 L 27.61,532.65 L 27.76,534.10 L 27.62,535.43 L 27.60,536.92 L 28.40,539.25 L 28.99,541.56 L 28.34,542.53 L 26.84,544.49 L 26.21,545.52 L 29.42,546.03 L 30.34,546.39 L 31.92,547.23 L 33.70,548.63 L 33.76,549.16 L 48.94,545.38 L 50.34,544.48 L 56.47,544.53 L 59.85,543.90 L 60.61,543.90 L 61.37,543.90 L 64.68,542.72 L 67.78,541.27 L 70.29,537.97 L 72.45,536.32 L 73.74,535.22 L 74.53,532.81 L 75.52,531.44 L 79.27,530.46 L 84.60,528.11 L 89.21,528.03 L 95.53,529.10 L 101.07,528.53 L 106.26,527.70 L 114.68,524.65 L 119.22,524.15 L 121.42,524.29 L 123.88,526.40 L 125.90,528.86 L 128.65,530.44 L 131.03,530.71 L 134.92,529.80 L 137.75,527.74 L 147.32,529.49 L 155.36,531.86 L 159.12,534.12 L 159.70,535.15 L 160.06,537.14 L 160.36,540.08 L 159.72,543.72 L 158.15,549.08 L 158.21,554.16 L 158.86,556.90 L 159.52,560.74 L 159.52,562.39 L 161.71,565.28 L 161.71,565.28 L 166.75,565.64 L 174.11,565.62 L 179.31,565.16 L 182.36,564.23 L 185.23,564.00 L 187.24,564.14 L 190.77,566.34 L 194.05,567.93 L 198.46,569.29 L 202.14,568.74 L 203.90,568.74 L 205.98,568.88 L 209.11,570.25 L 214.36,570.16 L 215.07,570.15 L 215.80,570.15 L 217.80,571.44 L 220.84,573.57 L 225.74,576.45 L 229.10,578.27 L 232.23,580.01 L 235.20,581.53 L 237.45,582.36 L 239.75,584.74 L 242.27,585.80 L 243.89,586.46 L 246.06,588.13 L 247.59,588.53 L 249.76,589.38 L 253.55,589.97 L 253.93,590.00 L 256.10,588.06 L 257.82,585.73 L 259.35,584.08 L 260.55,583.11 L 265.09,580.95 L 267.49,579.19 L 270.64,576.75 L 273.68,575.27 L 275.26,574.77 L 276.06,575.12 L 276.31,574.14 L 276.31,571.51 L 275.70,568.79 L 275.23,567.19 L 274.97,564.06 L 274.27,559.53 L 274.35,557.23 L 274.44,555.99 L 274.78,555.00 L 274.27,553.93 L 273.49,552.77 L 272.92,552.32 L 274.85,550.98 L 279.59,550.10 L 281.83,549.14 L 288.76,546.53 L 291.00,544.98 L 294.40,542.77 L 299.04,540.67 L 298.98,537.41 L 298.11,535.52 L 297.75,530.55 L 298.25,526.41 L 299.70,524.01 L 302.27,521.10 L 302.38,520.98 L 304.46,518.06 L 304.55,517.94 L 304.80,517.59 L 303.57,515.48 L 303.51,511.21 L 305.06,508.28 L 305.81,506.87 L 308.66,502.15 L 311.27,499.32 L 314.62,497.20 L 316.84,496.59 L 318.66,496.27 L 323.00,496.35 L 327.21,496.61 L 331.58,497.00 L 332.93,497.05 L 333.19,499.71 L 332.72,503.03 L 332.98,504.24 L 338.07,504.28 L 339.65,503.50 L 341.63,502.16 L 344.35,499.11 L 347.15,496.59 L 348.41,495.29 L 351.32,493.23 L 353.12,492.01 L 354.20,491.01 L 355.15,493.38 L 355.57,494.22 L 355.69,494.33 L 356.07,494.56 L 356.21,494.62 L 356.39,494.59 L 357.03,494.64 L 357.89,495.02 L 358.55,495.56 L 359.01,495.85 L 359.40,496.03 L 361.49,496.62 L 363.34,496.87 L 364.56,496.88 L 365.54,497.25 L 366.40,497.72 L 367.90,498.36 L 369.70,499.01 L 371.44,499.37 L 372.60,499.54 L 374.07,499.66 L 374.34,499.65 L 378.87,500.14 L 380.71,498.35 L 381.95,496.32 L 381.47,494.58 L 381.11,492.33 L 379.63,491.49 L 378.14,490.82 L 375.42,489.76 L 371.29,489.99 L 368.45,487.02 L 367.91,483.25 L 366.89,478.59 L 365.69,472.18 L 365.10,468.13 L 365.27,466.44 L 367.62,463.17 L 368.74,461.64 L 368.86,461.48 L 368.13,460.85 L 364.41,457.83 L 361.68,455.25 L 359.25,451.20 L 358.70,448.29 L 359.65,446.37 L 359.99,444.73 L 362.56,440.36 L 362.74,438.66 L 363.00,438.14 L 363.11,437.79 L 363.56,436.64 L 363.77,436.18 L 363.89,435.43 L 363.96,434.17 L 364.19,433.07 L 364.49,432.26 L 364.42,431.66 L 368.58,425.44 L 371.76,420.43 L 373.35,416.66 L 375.46,413.27 L 378.87,407.42 L 381.19,403.87 L 383.75,405.02 L 385.08,405.44 L 386.24,405.89 L 390.21,405.22 L 391.31,404.77 L 393.00,406.00 L 396.77,408.73 L 399.88,411.13 L 402.84,408.34 L 405.28,406.53 L 407.55,405.27 L 410.13,403.97 L 413.73,405.66 L 419.25,405.42 L 423.05,404.10 L 425.14,403.25 L 428.49,403.07 L 428.74,403.09 L 432.40,403.38 L 436.16,405.23 L 439.66,406.63 L 441.10,407.15 L 445.10,407.63 L 448.95,406.79 L 450.55,406.51 L 454.52,406.61 L 459.93,407.26 L 466.31,408.79 L 466.50,409.79 L 472.14,410.57 L 474.17,410.94 L 472.54,414.52 L 473.22,416.91 L 474.37,417.17 L 475.02,417.97 L 475.71,420.85 L 476.29,424.68 L 476.45,426.13 L 476.64,427.26 L 478.77,426.96 L 480.23,427.03 L 481.67,427.31 L 482.81,427.66 L 484.48,428.03 L 486.46,428.84 L 488.38,429.26 L 489.95,429.36 L 491.13,428.97 L 492.41,427.97 L 493.57,426.81 L 495.16,424.69 L 496.92,422.31 L 498.49,420.93 L 500.70,419.62 L 502.46,419.34 L 504.53,419.22 L 506.36,418.72 L 507.72,418.10 L 509.81,416.64 L 511.90,414.59 L 513.84,412.74 L 517.16,410.46 L 519.08,409.22 L 521.21,407.91 L 523.38,406.46 L 523.98,405.81 L 526.46,403.13 L 528.81,400.69 L 531.35,397.90 L 532.03,398.49 L 533.10,399.65 L 534.07,400.67 L 535.41,401.04 L 536.66,400.54 L 538.27,399.74 L 540.04,399.30 L 541.90,399.72 L 544.03,400.33 L 545.55,400.82 L 546.23,401.02 L 547.18,400.96 L 547.98,400.61 L 550.20,399.49 L 551.29,399.03 L 552.39,398.90 L 552.47,398.91 L 553.61,399.09 L 555.39,399.86 L 556.87,400.95 L 558.53,402.07 L 561.01,403.54 L 561.28,402.33 L 562.01,399.10 L 562.87,394.94 L 563.31,393.11 L 563.63,390.60 L 564.49,386.94 L 565.72,380.89 L 565.92,379.70 L 570.24,377.99 L 574.65,376.15 L 578.70,374.62 L 583.37,372.64 L 590.24,370.09 L 592.33,369.26 L 593.79,368.70 L 599.03,367.71 L 601.70,368.41 L 603.11,368.95 L 604.74,369.62 L 605.46,369.82 L 606.01,369.83 L 606.54,369.76 L 607.51,369.42 L 607.91,369.24 L 607.64,367.80 L 606.96,365.98 L 606.75,365.49 L 606.69,365.31 L 606.07,363.38 L 606.13,361.46 L 605.42,357.63 L 605.57,353.85 L 604.74,349.23 L 604.77,346.65 L 604.56,344.14 L 604.43,342.21 L 603.55,341.09 L 602.39,340.25 L 600.76,338.42 L 599.64,337.61 L 598.69,336.70 L 594.34,332.39 L 591.20,330.17 L 588.48,327.65 L 584.36,324.43 L 581.09,321.27 L 581.80,319.63 L 582.04,318.90 L 581.98,317.38 L 582.87,315.83 L 583.27,315.26 L 583.69,314.63 L 584.00,313.97 L 584.22,313.43 L 584.62,312.92 L 585.03,312.20 L 585.37,311.67 L 585.74,311.13 L 586.09,310.62 L 586.51,309.99 L 586.92,309.38 L 587.33,308.80 L 587.85,308.21 L 588.39,307.62 L 588.89,307.02 L 589.36,306.42 L 589.88,305.83 L 590.37,305.23 L 590.87,304.68 L 591.39,304.09 L 591.95,303.50 L 593.26,302.15 L 593.67,301.69 L 593.95,300.95 L 596.35,296.37 L 597.55,293.80 L 598.45,293.97 L 602.17,294.73 L 604.64,295.18 L 605.66,291.88 L 606.30,290.07 L 606.28,288.11 L 604.16,287.61 L 602.14,286.99 L 603.05,286.02 L 605.00,283.79 L 606.33,282.24 L 606.27,281.67 L 605.90,281.11 L 603.08,280.71 L 598.05,280.08 L 594.53,279.64 L 590.20,279.22 L 585.92,278.90 L 581.56,278.61 L 577.28,278.44 L 574.39,278.02 L 571.61,277.51 L 567.30,276.94 L 564.39,276.73 L 561.60,276.52 L 557.17,276.28 L 555.10,276.16 L 553.66,276.17 L 549.99,275.98 L 545.70,275.84 L 544.18,275.89 L 543.56,275.56 L 541.84,274.58 L 542.33,273.30 L 542.21,272.00 L 541.95,271.36 L 541.02,270.27 L 539.15,269.09 L 536.61,267.81 L 536.34,267.20 L 536.39,266.53 L 536.52,265.80 L 536.94,265.34 L 538.44,263.95 L 540.83,262.24 L 542.37,260.89 L 543.24,259.76 L 543.53,259.14 L 543.85,257.89 L 544.07,255.77 L 543.85,254.47 L 543.24,252.52 L 542.24,249.91 L 541.54,247.97 L 541.64,244.63 L 541.40,243.94 L 541.82,241.16 L 541.73,238.45 L 541.10,236.50 L 539.96,234.68 L 538.60,232.92 L 537.76,230.50 L 537.79,229.84 L 538.22,228.56 L 538.71,226.53 L 538.47,225.19 L 538.00,222.78 L 537.07,220.66 L 536.35,218.67 L 535.86,216.02 L 535.39,213.99 L 534.01,211.62 L 532.87,209.02 L 532.74,208.38 L 532.74,206.36 L 533.28,205.11 L 533.93,203.86 L 535.01,202.90 L 535.96,201.99 L 537.36,200.36 L 538.69,198.73 L 539.52,196.23 L 539.79,194.25 L 539.65,192.08 L 539.53,190.77 L 539.40,188.75 L 539.56,187.36 L 539.72,186.63 L 540.11,186.05 L 540.61,184.77 L 540.99,184.15 L 541.80,182.96 L 543.32,180.79 L 544.64,179.12 L 545.82,176.59 L 546.41,175.33 L 546.81,174.73 L 548.03,173.05 L 550.02,170.28 L 550.41,169.67 L 551.00,169.19 L 553.01,167.33 L 556.34,164.57 L 557.89,163.31 L 561.04,160.82 L 561.32,160.61 L 563.13,158.60 L 564.39,156.17 L 564.26,154.74 L 563.73,152.75 L 563.13,151.56 L 561.86,150.93 L 560.50,150.59 L 558.34,150.23 L 557.72,150.06 L 557.14,149.64 L 556.70,149.20 L 556.43,148.52 L 556.34,147.85 L 556.47,147.14 L 556.99,145.84 L 558.89,146.32 L 561.66,147.06 L 566.62,148.19 L 568.68,148.64 L 570.01,148.98 L 573.49,150.05 L 577.58,151.35 L 580.37,152.19 L 583.13,152.98 L 587.21,154.25 L 591.85,156.15 L 594.59,157.08 L 598.68,158.35 L 605.05,159.83 L 607.82,160.32 L 612.10,160.82 L 616.43,161.20 L 621.59,161.64 L 621.53,160.91 L 621.89,157.50 L 622.25,155.43 L 624.72,146.22 L 625.38,143.51 L 626.76,138.93 L 628.21,133.63 L 629.08,128.93 L 629.71,124.87 L 630.09,122.15 L 630.71,120.22 L 632.01,116.57 L 633.37,116.91 L 634.76,117.25 L 635.28,117.15 L 636.18,115.21 L 637.57,112.04 L 638.44,110.17 L 640.60,104.39 L 642.23,99.85 L 642.70,98.54 L 643.55,95.91 L 644.14,92.61 L 645.21,86.78 L 642.98,86.43 L 639.38,85.86 L 635.89,85.31 L 632.31,84.57 L 628.91,83.68 L 626.09,83.06 L 623.20,82.46 L 620.52,81.71 L 618.39,81.16 L 618.14,79.88 L 616.04,79.32 L 612.45,78.70 L 604.70,77.28 L 601.82,76.78 L 601.36,76.42 L 601.24,75.92 L 600.37,73.36 L 599.02,71.77 L 595.99,69.85 L 594.29,68.53 L 593.01,68.65 L 591.50,68.73 L 588.62,68.49 L 585.84,68.04 L 582.29,67.49 L 577.30,66.70 L 576.62,71.38 L 574.50,70.97 L 571.70,70.35 L 563.24,68.80 L 561.09,68.29 L 554.25,66.36 L 551.94,65.49 L 551.26,65.37 L 544.10,64.21 L 540.25,63.78 L 538.93,61.21 L 535.30,55.33 L 532.85,51.05 L 531.15,48.06 L 529.77,45.73 L 528.07,42.72 L 527.01,40.99 L 523.48,41.57 L 521.32,41.93 L 518.83,42.51 L 515.05,43.60 L 511.62,44.57 L 508.73,45.47 L 507.52,45.79 L 505.36,46.42 L 502.18,47.04 L 499.21,47.24 L 497.70,47.01 L 496.38,46.60 L 494.05,45.49 L 491.57,44.73 L 490.09,44.59 L 489.17,44.79 L 486.72,45.26 L 483.46,45.37 L 481.81,44.47 L 481.44,43.24 L 481.86,39.82 L 482.28,35.17 L 481.78,31.13 L 480.36,24.90 L 478.55,21.23 L 477.25,19.45 L 475.62,18.19 L 473.99,17.04 L 472.32,16.17 L 467.70,14.74 L 464.72,13.68 L 461.70,12.53 L 457.68,11.38 L 452.62,10.92 L 446.57,11.12 L 441.78,11.69 L 437.76,12.38 L 434.04,13.50 L 431.87,13.73 L 430.15,13.67 L 428.73,13.13 L 426.98,11.78 L 425.91,10.91 L 424.41,10.80 L 423.44,10.40 Z" fill="#1d3672" stroke="#333" stroke-width="1"/>
</svg>