<svg xmlns="http://www.w3.org/2000/svg" width="800" height="600" viewBox="0 0 800 600">
<path d="M 289.48,10.00 L 289.47,10.00 L 287.10,10.94 L 285.70,11.39 L 282.84,12.43 L 279.27,13.65 L 276.17,14.63 L 273.03,15.72 L 271.71,16.08 L 269.56,16.79 L 265.74,18.04 L 260.93,19.62 L 258.40,20.33 L 259.21,22.27 L 260.20,24.61 L 261.50,27.60 L 262.65,30.29 L 263.85,33.17 L 265.35,36.58 L 266.35,39.14 L 268.08,42.88 L 268.48,43.51 L 264.64,44.36 L 260.56,45.32 L 256.50,46.20 L 251.77,47.26 L 247.13,48.23 L 244.43,48.81 L 240.32,49.71 L 234.70,50.52 L 228.63,51.36 L 223.84,52.17 L 220.73,52.76 L 213.65,54.24 L 210.65,54.90 L 208.59,55.29 L 207.52,53.75 L 206.75,52.48 L 204.64,49.07 L 202.50,45.78 L 199.39,40.82 L 197.95,38.32 L 197.61,37.79 L 195.80,38.40 L 191.52,39.94 L 187.43,41.38 L 183.86,42.58 L 179.99,43.96 L 176.09,45.29 L 172.22,46.67 L 167.41,48.34 L 163.90,49.59 L 159.32,51.13 L 155.57,52.33 L 150.80,53.93 L 146.83,55.28 L 144.58,56.01 L 144.01,56.16 L 143.80,58.10 L 143.87,59.36 L 143.77,60.62 L 143.16,62.52 L 142.30,64.15 L 141.78,66.18 L 141.71,67.79 L 141.92,69.41 L 142.14,71.04 L 141.22,74.55 L 140.49,77.64 L 140.32,78.65 L 139.74,79.26 L 134.32,84.31 L 133.94,85.22 L 132.91,86.25 L 130.91,88.05 L 128.02,90.99 L 127.89,92.74 L 127.98,95.02 L 128.01,95.59 L 127.13,95.80 L 125.21,96.65 L 123.79,97.15 L 122.33,98.02 L 120.53,98.82 L 118.70,99.19 L 116.97,99.22 L 116.05,99.25 L 115.77,99.38 L 115.48,99.50 L 115.13,100.67 L 115.02,102.55 L 114.94,105.00 L 114.83,108.90 L 115.33,111.99 L 115.48,114.23 L 115.55,115.72 L 115.07,117.97 L 114.53,120.43 L 113.49,124.65 L 112.85,126.89 L 112.05,127.44 L 112.00,128.14 L 112.69,129.59 L 112.70,130.75 L 112.58,132.22 L 111.86,133.44 L 110.40,134.70 L 111.09,138.40 L 112.04,143.00 L 112.11,144.41 L 110.02,144.99 L 106.86,145.72 L 103.75,146.65 L 101.25,147.37 L 98.42,148.42 L 96.47,149.04 L 94.40,149.69 L 93.13,150.20 L 92.52,150.61 L 92.22,150.95 L 92.22,150.95 L 91.72,151.54 L 90.46,154.48 L 88.19,159.28 L 85.40,165.12 L 84.83,166.07 L 80.85,168.30 L 76.79,170.84 L 71.62,173.78 L 68.98,177.90 L 66.07,182.04 L 63.58,185.37 L 61.28,189.37 L 59.60,191.88 L 58.32,193.57 L 57.03,192.99 L 55.42,192.31 L 53.91,191.70 L 51.21,190.86 L 49.20,190.22 L 46.68,189.48 L 45.15,188.84 L 45.05,191.44 L 45.01,192.71 L 44.79,193.58 L 44.36,194.23 L 43.64,194.31 L 42.34,194.49 L 41.80,195.28 L 41.15,196.55 L 40.95,197.20 L 40.70,199.43 L 40.55,201.24 L 40.38,202.48 L 40.43,203.79 L 40.20,204.69 L 38.37,204.61 L 37.07,208.08 L 35.74,211.60 L 35.43,212.37 L 35.54,213.34 L 36.46,214.82 L 38.04,217.47 L 40.75,220.81 L 42.63,223.10 L 41.05,223.25 L 38.38,223.57 L 35.46,224.41 L 33.82,224.82 L 30.11,226.18 L 25.89,227.20 L 21.31,228.79 L 18.10,230.46 L 17.45,233.44 L 16.99,238.03 L 16.65,241.37 L 16.65,246.83 L 16.31,251.83 L 16.12,256.47 L 15.65,258.68 L 15.44,261.64 L 15.13,265.59 L 14.75,268.38 L 14.48,269.34 L 13.99,270.65 L 13.63,272.03 L 12.87,272.90 L 12.22,273.88 L 12.41,275.30 L 12.87,276.74 L 12.79,278.90 L 12.86,279.81 L 12.29,280.53 L 11.24,280.68 L 11.84,283.50 L 12.33,286.01 L 12.72,288.91 L 11.11,290.24 L 10.32,291.07 L 10.00,291.81 L 10.06,293.30 L 11.73,296.84 L 12.49,298.51 L 12.76,299.70 L 12.76,300.65 L 13.19,301.99 L 13.69,302.96 L 13.80,303.90 L 13.83,306.96 L 14.37,308.45 L 15.48,311.23 L 16.25,313.16 L 17.17,314.35 L 18.82,316.02 L 21.99,317.90 L 24.33,319.13 L 26.24,320.52 L 27.97,322.04 L 29.68,323.32 L 30.66,323.93 L 31.63,324.44 L 33.11,324.81 L 35.91,324.87 L 37.33,324.88 L 39.59,325.42 L 41.62,326.14 L 43.11,326.87 L 44.84,327.34 L 46.60,327.96 L 47.78,328.31 L 48.78,328.78 L 49.59,329.11 L 49.92,329.65 L 50.20,330.57 L 50.24,331.94 L 50.29,333.04 L 50.33,333.77 L 49.75,334.94 L 50.47,337.39 L 51.65,339.20 L 53.43,340.63 L 55.86,342.31 L 58.69,345.39 L 61.84,348.62 L 63.15,349.43 L 66.18,352.55 L 67.03,354.79 L 67.23,357.40 L 67.57,360.54 L 69.25,368.09 L 70.38,372.85 L 71.62,376.89 L 73.40,380.81 L 76.49,383.49 L 81.54,385.47 L 80.30,390.27 L 70.45,393.13 L 69.86,395.52 L 70.12,397.51 L 70.13,405.88 L 70.12,412.19 L 80.18,412.38 L 84.84,413.25 L 89.51,414.74 L 97.45,415.89 L 97.25,418.13 L 99.46,418.46 L 99.70,418.49 L 100.14,430.27 L 101.99,430.70 L 103.89,431.51 L 99.31,438.07 L 98.80,438.80 L 98.80,438.80 L 100.30,440.70 L 101.85,442.59 L 102.34,443.20 L 104.25,444.67 L 105.03,445.16 L 107.00,446.01 L 109.83,447.03 L 112.31,447.74 L 115.20,448.43 L 117.74,449.18 L 121.09,450.24 L 122.71,450.62 L 124.98,450.77 L 128.02,450.79 L 130.59,450.65 L 132.43,450.78 L 134.37,450.88 L 135.67,451.03 L 137.74,450.98 L 138.84,451.06 L 140.38,451.13 L 142.07,451.23 L 143.74,451.40 L 145.26,451.68 L 146.90,452.04 L 146.90,452.04 L 148.15,452.42 L 149.83,452.61 L 151.37,452.77 L 152.16,452.59 L 153.50,452.02 L 154.79,451.55 L 155.84,451.34 L 156.69,451.32 L 157.62,451.60 L 158.87,452.15 L 159.11,452.30 L 159.11,452.30 L 160.50,453.13 L 161.67,454.07 L 162.92,455.09 L 165.33,456.75 L 167.16,457.78 L 168.59,458.51 L 170.35,459.53 L 171.89,460.67 L 174.07,462.48 L 175.80,463.63 L 177.43,464.73 L 178.42,465.30 L 180.01,466.00 L 180.97,466.34 L 181.94,466.44 L 183.65,466.52 L 184.84,466.41 L 186.17,466.25 L 186.17,466.25 L 188.87,466.12 L 192.28,466.07 L 194.66,466.06 L 197.01,466.23 L 197.12,466.24 L 199.41,466.42 L 201.38,466.86 L 203.27,467.20 L 205.40,468.24 L 207.63,469.16 L 209.40,469.97 L 211.27,471.00 L 213.14,471.91 L 214.80,472.64 L 215.51,472.87 L 216.55,473.35 L 217.48,473.99 L 218.27,474.93 L 219.17,475.80 L 220.13,476.43 L 220.14,476.44 L 220.40,476.68 L 220.59,476.86 L 220.60,476.86 L 221.19,476.94 L 221.21,476.95 L 222.80,477.27 L 225.63,477.67 L 227.59,477.87 L 227.73,477.88 L 230.36,478.18 L 230.49,478.21 L 232.00,478.52 L 233.79,478.84 L 236.08,479.50 L 238.56,480.29 L 241.27,480.89 L 243.43,481.45 L 244.43,481.68 L 244.43,481.68 L 245.43,481.92 L 247.89,482.55 L 250.68,483.27 L 253.30,483.93 L 254.97,484.42 L 255.84,484.76 L 255.90,484.49 L 255.94,484.35 L 258.20,485.23 L 258.63,485.45 L 260.53,486.55 L 260.45,486.57 L 260.45,486.57 L 260.79,486.70 L 263.09,487.54 L 263.88,487.79 L 266.15,488.67 L 267.58,489.29 L 268.87,489.96 L 269.91,490.58 L 270.83,491.10 L 271.46,491.68 L 272.34,492.88 L 272.93,493.95 L 273.21,495.07 L 273.50,496.22 L 273.92,497.01 L 274.71,498.41 L 275.45,500.00 L 275.99,501.73 L 276.31,503.35 L 276.60,504.53 L 276.93,505.98 L 277.67,509.01 L 278.20,511.07 L 278.39,513.07 L 278.57,514.17 L 278.68,515.09 L 278.86,516.11 L 279.12,517.15 L 279.49,517.96 L 280.27,519.19 L 281.10,520.64 L 281.67,521.36 L 282.02,521.65 L 283.11,522.47 L 283.70,522.96 L 284.47,523.46 L 285.54,524.03 L 286.80,524.62 L 288.62,525.44 L 290.01,526.14 L 290.89,526.54 L 291.83,526.97 L 294.31,527.80 L 296.10,528.55 L 297.34,529.07 L 300.27,530.02 L 302.81,530.95 L 304.67,531.66 L 306.42,532.24 L 307.44,532.51 L 308.48,532.71 L 308.53,532.72 L 309.76,532.85 L 310.79,532.95 L 312.54,532.91 L 312.55,532.91 L 313.59,532.80 L 313.66,532.79 L 314.54,532.52 L 315.76,531.58 L 317.28,530.33 L 318.02,529.33 L 319.24,527.54 L 320.22,525.37 L 320.93,523.52 L 321.83,521.53 L 322.69,519.11 L 323.50,516.72 L 324.03,514.76 L 324.47,513.28 L 325.04,511.77 L 325.48,510.32 L 326.12,508.83 L 326.52,508.08 L 327.24,507.18 L 327.82,506.64 L 328.88,505.72 L 329.81,505.08 L 332.52,503.69 L 335.27,502.37 L 337.05,501.79 L 338.76,501.12 L 339.74,500.82 L 339.74,500.82 L 340.61,500.55 L 342.86,500.13 L 344.46,499.94 L 346.32,499.90 L 348.67,499.99 L 350.43,500.07 L 352.32,500.41 L 354.61,500.95 L 356.54,501.68 L 357.90,502.33 L 359.33,503.12 L 360.61,503.86 L 362.17,504.97 L 363.62,506.10 L 365.74,509.93 L 371.66,516.71 L 373.94,517.91 L 377.39,519.76 L 380.85,520.95 L 382.23,520.97 L 385.99,520.54 L 390.55,518.14 L 398.43,512.33 L 406.44,508.78 L 409.95,507.39 L 414.13,506.94 L 422.22,506.45 L 427.48,507.61 L 432.13,509.31 L 439.89,513.02 L 448.20,521.47 L 453.30,526.43 L 455.05,528.12 L 458.30,531.29 L 458.96,533.59 L 459.81,538.99 L 460.87,545.61 L 464.63,548.93 L 471.18,552.46 L 475.50,553.02 L 480.55,551.76 L 490.53,545.33 L 495.95,542.60 L 500.29,542.01 L 503.41,542.54 L 506.32,544.87 L 509.40,548.20 L 514.93,553.81 L 517.10,555.03 L 517.97,555.20 L 521.95,552.36 L 528.66,547.79 L 533.03,545.38 L 538.79,543.33 L 547.72,541.89 L 551.10,540.72 L 558.08,539.13 L 561.83,537.66 L 564.37,535.93 L 567.09,534.00 L 569.50,531.42 L 571.67,528.62 L 572.72,527.36 L 574.79,525.67 L 576.97,524.46 L 580.59,523.86 L 583.06,523.87 L 588.26,524.29 L 592.21,524.78 L 594.99,525.40 L 599.89,527.43 L 602.98,528.71 L 605.82,529.72 L 608.32,530.05 L 612.23,530.18 L 616.00,530.47 L 619.40,530.83 L 622.62,531.91 L 625.28,533.86 L 626.96,535.63 L 627.57,537.39 L 628.05,540.58 L 627.76,542.57 L 627.09,545.11 L 626.33,548.61 L 625.20,551.46 L 623.79,555.76 L 622.26,559.27 L 621.91,560.17 L 621.90,560.83 L 621.89,561.40 L 621.63,563.89 L 621.69,565.75 L 621.75,565.85 L 622.02,566.71 L 622.38,567.42 L 623.44,568.86 L 624.14,569.81 L 624.62,570.28 L 625.25,570.66 L 626.18,570.99 L 626.81,571.15 L 627.54,571.27 L 628.12,571.22 L 629.02,570.91 L 630.31,570.48 L 631.39,570.17 L 632.12,570.05 L 632.81,570.00 L 633.56,570.02 L 634.48,570.20 L 635.44,570.59 L 637.31,571.67 L 639.64,573.35 L 642.54,575.80 L 646.23,578.98 L 648.41,581.16 L 650.83,583.48 L 652.95,585.13 L 654.94,586.44 L 655.39,586.67 L 655.68,586.83 L 656.42,587.21 L 658.27,587.95 L 661.51,589.08 L 663.03,589.46 L 664.81,589.82 L 666.79,589.87 L 671.18,590.00 L 672.23,589.94 L 673.83,589.70 L 675.13,589.38 L 677.71,588.49 L 678.96,588.04 L 680.22,587.59 L 683.41,586.74 L 684.71,586.29 L 686.20,585.54 L 686.89,585.13 L 687.25,584.82 L 688.05,583.48 L 688.59,581.81 L 689.18,580.71 L 690.11,579.17 L 690.46,578.83 L 690.89,578.48 L 691.95,577.97 L 694.38,576.79 L 696.60,575.71 L 700.74,573.85 L 704.08,572.38 L 708.01,570.88 L 710.12,570.23 L 711.54,569.99 L 716.10,569.30 L 719.67,568.57 L 721.24,568.34 L 724.64,568.14 L 728.99,568.31 L 735.49,568.74 L 738.68,569.12 L 740.44,569.24 L 741.20,569.24 L 743.41,569.25 L 745.76,569.24 L 749.33,569.08 L 749.59,569.05 L 752.15,568.83 L 753.65,568.63 L 754.79,568.49 L 755.31,568.34 L 756.41,568.02 L 756.67,567.94 L 758.14,567.46 L 760.21,566.80 L 761.78,566.26 L 762.36,565.89 L 763.08,565.27 L 763.61,564.72 L 763.98,564.11 L 765.19,562.65 L 766.06,560.64 L 766.43,558.88 L 766.58,555.78 L 766.29,552.44 L 765.62,550.17 L 764.56,548.17 L 762.93,546.55 L 761.17,545.07 L 759.78,542.72 L 758.56,540.23 L 757.95,539.23 L 757.94,539.23 L 757.94,539.23 L 753.09,539.49 L 747.00,540.04 L 739.32,538.74 L 731.55,537.13 L 723.45,534.95 L 715.44,531.51 L 709.31,528.49 L 709.33,521.66 L 709.43,514.84 L 716.15,514.30 L 719.64,514.11 L 719.61,510.46 L 718.42,506.24 L 717.76,502.50 L 717.65,500.75 L 717.54,499.01 L 717.37,493.13 L 717.37,486.78 L 713.92,484.68 L 707.80,481.10 L 707.87,476.02 L 705.18,476.06 L 704.31,474.55 L 703.55,471.60 L 703.78,468.19 L 703.18,466.51 L 702.14,463.96 L 701.80,463.08 L 702.18,461.42 L 702.15,457.77 L 701.94,454.03 L 710.80,453.44 L 717.35,452.74 L 725.51,451.82 L 725.91,448.56 L 719.56,427.90 L 713.13,428.34 L 699.30,429.30 L 696.49,421.09 L 680.43,415.48 L 671.90,412.60 L 669.60,408.14 L 661.89,409.01 L 655.38,409.00 L 648.25,408.75 L 639.68,409.12 L 639.54,400.85 L 644.01,400.50 L 646.24,400.00 L 651.18,398.57 L 655.16,397.34 L 646.91,387.04 L 641.99,382.24 L 641.00,374.70 L 620.64,372.32 L 613.36,371.33 L 615.04,359.60 L 612.99,356.10 L 613.62,349.41 L 614.76,349.34 L 615.37,345.17 L 615.55,342.27 L 615.45,334.37 L 620.04,334.17 L 623.95,333.94 L 623.98,331.95 L 627.14,331.75 L 626.89,330.38 L 626.83,329.40 L 626.89,328.17 L 626.94,327.31 L 626.76,326.62 L 626.46,325.74 L 625.75,325.05 L 624.76,324.47 L 623.24,323.61 L 622.16,322.47 L 621.37,321.30 L 620.71,320.15 L 620.54,319.65 L 620.26,319.11 L 619.77,318.40 L 619.10,317.70 L 618.50,317.19 L 617.60,316.94 L 616.67,316.80 L 615.84,316.84 L 614.83,316.84 L 613.94,316.45 L 612.91,316.26 L 611.53,316.41 L 610.25,316.73 L 609.26,317.00 L 608.46,317.06 L 607.60,316.88 L 606.71,316.54 L 605.78,316.18 L 604.53,315.78 L 603.62,315.62 L 602.41,315.59 L 601.83,315.55 L 601.19,315.43 L 600.71,315.01 L 599.78,314.17 L 599.09,313.39 L 598.15,312.52 L 597.76,311.93 L 597.37,311.01 L 597.11,310.24 L 596.71,309.63 L 596.46,309.39 L 596.30,309.03 L 595.87,308.27 L 595.54,307.28 L 595.01,306.56 L 594.62,306.15 L 593.85,305.66 L 593.10,305.39 L 592.98,305.35 L 592.47,305.09 L 591.90,304.69 L 591.47,304.30 L 591.38,303.70 L 591.53,302.82 L 591.91,301.80 L 592.62,300.63 L 592.98,300.02 L 593.43,299.17 L 593.16,298.51 L 592.85,298.12 L 592.28,297.52 L 591.90,296.91 L 591.46,296.15 L 590.87,295.70 L 590.49,295.67 L 589.65,295.36 L 589.17,295.01 L 588.70,294.47 L 588.03,294.03 L 587.24,293.98 L 586.85,294.07 L 586.47,294.15 L 585.46,294.32 L 584.50,294.66 L 583.48,294.93 L 582.74,295.17 L 581.52,295.54 L 579.56,296.21 L 579.78,302.63 L 578.76,302.53 L 579.35,306.67 L 580.09,306.68 L 580.49,310.72 L 578.26,311.04 L 577.47,314.37 L 574.21,314.59 L 573.99,316.96 L 572.78,316.94 L 572.93,319.76 L 571.92,322.54 L 569.35,322.79 L 565.06,323.43 L 564.79,322.64 L 563.60,321.92 L 558.44,319.22 L 553.09,316.07 L 540.95,311.81 L 541.88,304.72 L 542.28,301.65 L 541.49,295.31 L 541.50,291.88 L 540.85,289.68 L 539.72,286.91 L 540.09,282.27 L 546.91,280.73 L 547.90,279.26 L 549.17,277.85 L 551.85,276.72 L 555.65,274.83 L 562.17,274.67 L 567.62,274.59 L 573.63,275.06 L 581.38,276.08 L 587.73,276.83 L 587.95,276.83 L 589.84,276.55 L 591.74,275.82 L 593.04,274.47 L 594.91,271.58 L 595.38,269.45 L 595.34,264.81 L 595.03,260.68 L 595.14,259.66 L 597.09,259.23 L 597.17,257.57 L 609.26,257.06 L 609.51,258.30 L 611.23,259.03 L 612.82,260.89 L 624.95,260.39 L 624.95,259.10 L 624.78,256.83 L 624.49,255.17 L 623.90,254.11 L 623.06,252.70 L 622.60,252.00 L 622.19,250.93 L 621.76,249.77 L 621.45,248.84 L 621.04,247.88 L 620.49,246.63 L 619.84,245.26 L 619.27,244.04 L 619.01,243.52 L 618.31,241.89 L 617.57,240.40 L 617.52,240.30 L 616.55,238.25 L 615.23,236.48 L 613.75,234.60 L 609.79,235.19 L 606.10,236.05 L 605.25,234.95 L 604.88,234.40 L 603.71,234.65 L 601.95,235.82 L 594.25,233.98 L 592.70,233.59 L 592.35,230.94 L 587.33,230.68 L 584.36,230.74 L 583.75,232.47 L 580.66,232.52 L 579.80,231.50 L 578.07,231.48 L 577.57,231.92 L 566.33,233.24 L 561.60,232.72 L 556.39,231.92 L 551.69,231.50 L 551.44,228.76 L 548.75,228.17 L 544.02,227.65 L 536.18,227.37 L 532.41,227.22 L 530.30,226.47 L 525.10,223.84 L 525.42,242.32 L 525.42,245.84 L 524.55,245.64 L 522.92,245.30 L 522.97,244.71 L 522.92,244.13 L 522.60,243.69 L 522.22,243.51 L 521.49,243.21 L 520.66,243.01 L 519.60,242.90 L 518.69,242.92 L 517.33,243.01 L 516.61,242.90 L 515.65,242.60 L 514.69,242.29 L 513.84,242.22 L 512.77,242.16 L 511.01,241.70 L 510.66,241.52 L 509.90,241.07 L 509.20,240.61 L 508.39,240.10 L 507.69,239.69 L 506.95,239.48 L 506.36,239.40 L 505.50,239.35 L 504.77,239.20 L 504.06,238.89 L 503.58,238.64 L 502.98,238.59 L 502.39,238.64 L 502.31,238.63 L 502.23,238.62 L 497.83,238.80 L 493.81,239.35 L 492.80,239.24 L 484.98,236.27 L 480.99,234.98 L 476.94,234.01 L 471.60,232.94 L 464.71,231.80 L 458.53,230.54 L 458.52,228.42 L 459.68,225.14 L 461.19,221.09 L 464.79,215.42 L 467.43,215.23 L 475.28,214.01 L 488.02,212.22 L 486.82,208.21 L 488.37,195.06 L 486.17,193.81 L 479.47,189.42 L 475.04,194.95 L 469.51,189.34 L 469.89,186.42 L 473.68,178.92 L 476.12,176.43 L 479.56,172.40 L 479.51,166.18 L 478.94,162.32 L 478.54,162.86 L 477.76,163.40 L 476.82,163.65 L 475.74,163.68 L 475.25,163.86 L 474.46,164.17 L 473.89,164.28 L 473.21,164.37 L 472.54,164.51 L 472.02,164.82 L 471.29,165.18 L 470.60,165.39 L 469.83,165.47 L 469.02,165.32 L 468.39,165.41 L 468.04,165.62 L 464.91,166.36 L 463.79,166.98 L 462.72,167.38 L 461.17,167.27 L 459.86,167.25 L 458.75,167.42 L 457.78,167.87 L 455.93,168.62 L 455.47,166.46 L 456.88,166.16 L 457.60,153.26 L 458.02,144.27 L 458.70,144.27 L 460.15,144.81 L 460.97,144.75 L 461.29,144.21 L 461.49,143.06 L 461.67,141.99 L 462.37,141.21 L 462.75,140.66 L 465.08,139.82 L 462.44,139.42 L 461.34,139.04 L 459.80,138.66 L 458.92,138.65 L 457.32,139.31 L 456.19,140.30 L 455.00,138.83 L 453.95,138.08 L 452.45,137.79 L 450.42,137.72 L 450.25,137.27 L 450.27,135.67 L 446.79,135.90 L 446.35,129.78 L 441.75,129.77 L 437.40,129.62 L 435.54,128.10 L 433.69,125.78 L 433.27,124.73 L 432.68,121.57 L 432.84,117.44 L 425.76,117.95 L 425.54,113.06 L 424.45,98.43 L 423.76,92.66 L 420.02,93.90 L 417.33,96.33 L 414.56,93.60 L 411.47,93.65 L 396.81,94.46 L 393.27,94.92 L 383.93,94.43 L 376.63,94.20 L 368.96,93.98 L 365.54,91.86 L 364.44,89.06 L 364.63,82.09 L 365.53,79.32 L 366.39,78.02 L 367.05,76.02 L 367.17,74.51 L 366.98,71.08 L 366.96,68.88 L 366.76,66.71 L 366.37,65.39 L 365.52,63.64 L 364.34,63.11 L 361.75,61.75 L 360.34,61.07 L 359.45,60.61 L 358.21,60.23 L 357.52,59.97 L 355.91,59.66 L 354.52,59.57 L 353.80,59.47 L 351.79,59.43 L 350.39,59.43 L 348.68,59.46 L 347.71,59.62 L 347.31,59.79 L 346.62,60.49 L 345.89,61.51 L 345.68,61.88 L 345.30,62.02 L 344.23,61.94 L 343.03,61.69 L 342.02,61.48 L 340.40,61.20 L 338.82,60.87 L 337.96,60.71 L 335.97,60.40 L 334.41,60.08 L 332.38,59.69 L 330.99,59.37 L 329.77,59.01 L 328.29,58.61 L 326.92,58.29 L 325.87,58.00 L 324.29,57.73 L 322.98,57.65 L 321.75,57.44 L 321.62,56.61 L 321.82,54.22 L 322.08,51.06 L 322.55,48.41 L 322.75,46.23 L 323.48,42.38 L 324.41,39.71 L 325.27,36.84 L 326.18,34.52 L 327.08,32.56 L 327.79,31.21 L 327.94,30.75 L 324.04,28.70 L 320.47,26.75 L 317.95,25.36 L 313.93,23.08 L 309.48,20.52 L 306.49,18.72 L 303.53,17.16 L 302.16,16.35 L 299.72,15.04 L 297.27,13.40 L 295.14,12.08 L 293.27,11.05 L 291.82,10.41 L 290.33,10.21 L 289.48,10.00 Z" fill="#1d3672" stroke="#333" stroke-width="1"/>
</svg>